<svg version="1.1" viewBox="0.0 0.0 735.3727034120735 447.61942257217845" fill="none" stroke="none" stroke-linecap="square" stroke-miterlimit="10" xmlns:xlink="http://www.w3.org/1999/xlink" xmlns="http://www.w3.org/2000/svg"><clipPath id="p.0"><path d="m0 0l735.3727 0l0 447.61942l-735.3727 0l0 -447.61942z" clip-rule="nonzero"/></clipPath><g clip-path="url(#p.0)"><path fill="#000000" fill-opacity="0.0" d="m0 0l735.3727 0l0 447.61942l-735.3727 0z" fill-rule="evenodd"/><path fill="#d9ead3" d="m112.15223 92.8307l0 0c0 -36.04564 29.220757 -65.2664 65.266396 -65.2664l380.8058 0c17.309692 0 33.91046 6.8762627 46.15033 19.116085c12.239807 12.239822 19.116028 28.840584 19.116028 46.150314l0 261.05774c0 36.045624 -29.220703 65.26639 -65.26636 65.26639l-380.8058 0l0 0c-36.04564 0 -65.266396 -29.220764 -65.266396 -65.26639z" fill-rule="evenodd"/><path stroke="#38761d" stroke-width="2.0" stroke-linejoin="round" stroke-linecap="butt" d="m112.15223 92.8307l0 0c0 -36.04564 29.220757 -65.2664 65.266396 -65.2664l380.8058 0c17.309692 0 33.91046 6.8762627 46.15033 19.116085c12.239807 12.239822 19.116028 28.840584 19.116028 46.150314l0 261.05774c0 36.045624 -29.220703 65.26639 -65.26636 65.26639l-380.8058 0l0 0c-36.04564 0 -65.266396 -29.220764 -65.266396 -65.26639z" fill-rule="evenodd"/><path fill="#f4cccc" d="m165.54855 74.32853l0 0c0 -12.289669 9.962753 -22.252415 22.25241 -22.252415l145.57391 0c5.901703 0 11.561707 2.3444443 15.734833 6.517582c4.1731567 4.1731377 6.517578 9.833122 6.517578 15.734833l0 89.00698c0 12.289673 -9.962738 22.25241 -22.25241 22.25241l-145.57391 0l0 0c-12.289658 0 -22.25241 -9.962738 -22.25241 -22.25241z" fill-rule="evenodd"/><path stroke="#000000" stroke-width="3.0" stroke-linejoin="round" stroke-linecap="butt" d="m165.54855 74.32853l0 0c0 -12.289669 9.962753 -22.252415 22.25241 -22.252415l145.57391 0c5.901703 0 11.561707 2.3444443 15.734833 6.517582c4.1731567 4.1731377 6.517578 9.833122 6.517578 15.734833l0 89.00698c0 12.289673 -9.962738 22.25241 -22.25241 22.25241l-145.57391 0l0 0c-12.289658 0 -22.25241 -9.962738 -22.25241 -22.25241z" fill-rule="evenodd"/><path fill="#000000" d="m219.7886 125.49202q0 0.828125 0.09375 1.265625q0.09375 0.421875 0.328125 0.6875q0.234375 0.25 0.671875 0.40625q0.453125 0.15625 1.125 0.234375q0.671875 0.078125 1.78125 0.109375l0 1.296875l-12.359375 0l0 -1.296875q1.59375 -0.078125 2.265625 -0.203125q0.6875 -0.125 1.03125 -0.359375q0.359375 -0.25 0.53125 -0.6875q0.171875 -0.453125 0.171875 -1.453125l0 -10.34375q0 -0.59375 -0.234375 -0.84375q-0.21875 -0.265625 -0.609375 -0.265625q-0.359375 0 -1.015625 0.328125q-0.640625 0.328125 -2.125 1.34375l-0.875 -1.515625l7.46875 -4.484375l1.84375 0q-0.09375 1.375 -0.09375 3.8125l0 11.96875zm14.714371 -15.546875q2.390625 0 3.984375 0.375q1.609375 0.375 2.84375 1.171875q1.25 0.796875 2.015625 1.90625q0.765625 1.109375 1.140625 2.578125q0.375 1.46875 0.375 3.3125q0 2.234375 -0.53125 4.015625q-0.515625 1.78125 -1.5625 3.03125q-0.921875 1.140625 -2.28125 1.875q-1.34375 0.71875 -3.109375 1.03125q-1.515625 0.25 -3.828125 0.25l-6.5 0l0 -0.9375q0.53125 -0.15625 0.828125 -0.3125q0.3125 -0.171875 0.46875 -0.453125q0.15625 -0.296875 0.1875 -0.75q0.046875 -0.453125 0.046875 -1.140625l0 -12.34375q0 -0.671875 -0.046875 -1.125q-0.03125 -0.46875 -0.1875 -0.75q-0.140625 -0.28125 -0.453125 -0.453125q-0.296875 -0.1875 -0.84375 -0.34375l0 -0.9375l7.453125 0zm-1.484375 17.8125q0.265625 0.046875 1.3125 0.046875q1.5625 0 2.640625 -0.453125q0.796875 -0.34375 1.359375 -0.953125q0.9375 -0.984375 1.40625 -2.5625q0.515625 -1.71875 0.515625 -4.203125q0 -2.71875 -0.734375 -4.515625q-0.71875 -1.796875 -2.046875 -2.640625q-1.328125 -0.859375 -3.171875 -0.859375q-0.890625 0 -1.28125 0.03125l0 16.109375zm21.648682 -4.578125l-6.78125 0l0 -3.015625l6.78125 0l0 3.015625zm17.146683 -12.796875l0 4.15625l-1.953125 0q-0.34375 -1.609375 -1.09375 -2.375q-0.734375 -0.765625 -1.9375 -0.765625q-2.265625 0 -3.421875 2.171875q-1.15625 2.15625 -1.15625 6.421875q0 3.96875 1.046875 6.015625q1.0625 2.03125 3.125 2.03125q1.03125 0 1.6875 -0.34375q0.671875 -0.34375 1.0625 -1.046875q0.390625 -0.703125 0.6875 -1.984375l1.953125 0l0 4.34375q-1.578125 0.375 -2.890625 0.546875q-1.296875 0.171875 -2.6875 0.171875q-2.984375 0 -4.875 -1.078125q-1.875 -1.078125 -2.78125 -3.25q-0.890625 -2.171875 -0.890625 -5.484375q0 -3.109375 1.046875 -5.40625q1.0625 -2.296875 3.109375 -3.546875q2.046875 -1.25 4.90625 -1.25q1.4375 0 2.609375 0.15625q1.1875 0.15625 2.453125 0.515625zm19.952728 -0.4375l0 0.9375q-0.578125 0.1875 -0.8125 0.328125q-0.234375 0.125 -0.40625 0.34375q-0.15625 0.203125 -0.25 0.640625q-0.078125 0.4375 -0.078125 1.34375l0 15.953125l-3.640625 0l-6.4375 -11.140625q-1.3125 -2.265625 -1.921875 -3.546875l-0.125 0q0.140625 3.078125 0.140625 6.5l0 4.609375q0 1.078125 0.09375 1.515625q0.109375 0.421875 0.390625 0.671875q0.28125 0.25 1.0625 0.453125l0 0.9375l-5.421875 0l0 -0.9375q0.53125 -0.15625 0.84375 -0.328125q0.3125 -0.171875 0.453125 -0.453125q0.15625 -0.296875 0.1875 -0.734375q0.046875 -0.453125 0.046875 -1.125l0 -12.390625q0 -1.078125 -0.09375 -1.484375q-0.09375 -0.40625 -0.390625 -0.671875q-0.28125 -0.28125 -1.046875 -0.484375l0 -0.9375l5.796875 0l5.078125 8.8125q0.46875 0.828125 1.21875 2.25q0.765625 1.40625 1.359375 2.671875l0.21875 0q-0.15625 -3.421875 -0.15625 -7.484375l0 -2.65625q0 -0.9375 -0.078125 -1.34375q-0.0625 -0.421875 -0.21875 -0.625q-0.140625 -0.21875 -0.390625 -0.359375q-0.25 -0.15625 -0.84375 -0.328125l0 -0.9375l5.421875 0zm19.919647 0l0 0.9375q-0.578125 0.1875 -0.8125 0.328125q-0.234375 0.125 -0.40625 0.34375q-0.15625 0.203125 -0.25 0.640625q-0.078125 0.4375 -0.078125 1.34375l0 15.953125l-3.640625 0l-6.4375 -11.140625q-1.3125 -2.265625 -1.921875 -3.546875l-0.125 0q0.140625 3.078125 0.140625 6.5l0 4.609375q0 1.078125 0.09375 1.515625q0.109375 0.421875 0.390625 0.671875q0.28125 0.25 1.0625 0.453125l0 0.9375l-5.421875 0l0 -0.9375q0.53125 -0.15625 0.84375 -0.328125q0.3125 -0.171875 0.453125 -0.453125q0.15625 -0.296875 0.1875 -0.734375q0.046875 -0.453125 0.046875 -1.125l0 -12.390625q0 -1.078125 -0.09375 -1.484375q-0.09375 -0.40625 -0.390625 -0.671875q-0.28125 -0.28125 -1.046875 -0.484375l0 -0.9375l5.796875 0l5.078125 8.8125q0.46875 0.828125 1.21875 2.25q0.765625 1.40625 1.359375 2.671875l0.21875 0q-0.15625 -3.421875 -0.15625 -7.484375l0 -2.65625q0 -0.9375 -0.078125 -1.34375q-0.0625 -0.421875 -0.21875 -0.625q-0.140625 -0.21875 -0.390625 -0.359375q-0.25 -0.15625 -0.84375 -0.328125l0 -0.9375l5.421875 0z" fill-rule="nonzero"/><path fill="#000000" fill-opacity="0.0" d="m16.440945 62.212803l0 0c0 -5.598339 4.538349 -10.136688 10.136686 -10.136688l40.545525 0l0 0c2.6884232 0 5.2667236 1.0679703 7.1677246 2.9689674c1.9009933 1.9009972 2.9689636 4.4793015 2.9689636 7.167721l0 312.60852c0 5.5983276 -4.5383453 10.136688 -10.136688 10.136688l-40.545525 0c-5.598337 0 -10.136686 -4.5383606 -10.136686 -10.136688z" fill-rule="evenodd"/><path stroke="#000000" stroke-width="2.0" stroke-linejoin="round" stroke-linecap="butt" d="m16.440945 62.212803l0 0c0 -5.598339 4.538349 -10.136688 10.136686 -10.136688l40.545525 0l0 0c2.6884232 0 5.2667236 1.0679703 7.1677246 2.9689674c1.9009933 1.9009972 2.9689636 4.4793015 2.9689636 7.167721l0 312.60852c0 5.5983276 -4.5383453 10.136688 -10.136688 10.136688l-40.545525 0c-5.598337 0 -10.136686 -4.5383606 -10.136686 -10.136688z" fill-rule="evenodd"/><path fill="#f4cccc" d="m546.4619 218.51625l0 0c0 -14.159363 11.478455 -25.637787 25.637817 -25.637787l0 0c6.7995605 0 13.320618 2.7011108 18.128662 7.50914c4.8079834 4.808014 7.509094 11.329086 7.509094 18.128647l0 0c0 14.159363 -11.478394 25.637802 -25.637756 25.637802l0 0c-14.159363 0 -25.637817 -11.478439 -25.637817 -25.637802z" fill-rule="evenodd"/><path stroke="#000000" stroke-width="2.0" stroke-linejoin="round" stroke-linecap="butt" d="m546.4619 218.51625l0 0c0 -14.159363 11.478455 -25.637787 25.637817 -25.637787l0 0c6.7995605 0 13.320618 2.7011108 18.128662 7.50914c4.8079834 4.808014 7.509094 11.329086 7.509094 18.128647l0 0c0 14.159363 -11.478394 25.637802 -25.637756 25.637802l0 0c-14.159363 0 -25.637817 -11.478439 -25.637817 -25.637802z" fill-rule="evenodd"/><path fill="#434343" d="m559.4663 212.22842l6.359131 -6.3591156l6.755127 6.7551575l6.755188 -6.7551575l6.359131 6.3591156l-6.755188 6.7551727l6.755188 6.7551575l-6.359131 6.359131l-6.755188 -6.7551727l-6.755127 6.7551727l-6.359131 -6.359131l6.755127 -6.7551575z" fill-rule="evenodd"/><path fill="#cfe2f3" d="m24.0 89.88189l0 0c0 -12.619926 10.230469 -22.850395 22.850395 -22.850395l0 0c6.060299 0 11.872387 2.4074478 16.157665 6.692726c4.285282 4.2852783 6.69273 10.097366 6.69273 16.15767l0 0c0 12.619926 -10.230473 22.850395 -22.850395 22.850395l0 0c-12.619926 0 -22.850395 -10.230469 -22.850395 -22.850395z" fill-rule="evenodd"/><path stroke="#000000" stroke-width="1.0" stroke-linejoin="round" stroke-linecap="butt" d="m24.0 89.88189l0 0c0 -12.619926 10.230469 -22.850395 22.850395 -22.850395l0 0c6.060299 0 11.872387 2.4074478 16.157665 6.692726c4.285282 4.2852783 6.69273 10.097366 6.69273 16.15767l0 0c0 12.619926 -10.230473 22.850395 -22.850395 22.850395l0 0c-12.619926 0 -22.850395 -10.230469 -22.850395 -22.850395z" fill-rule="evenodd"/><path fill="#000000" d="m44.036934 85.79127l0 0.4375q-0.3125 0.03125 -0.4375 0.140625q-0.125 0.109375 -0.125 0.328125q0 0.109375 0.046875 0.25q0.046875 0.140625 0.140625 0.34375q0.109375 0.1875 0.359375 0.609375l0.59375 1.0l0.796875 -1.15625q0.265625 -0.390625 0.34375 -0.59375q0.09375 -0.203125 0.09375 -0.4375q0 -0.203125 -0.15625 -0.328125q-0.140625 -0.125 -0.390625 -0.15625l0 -0.4375l2.6875 0l0 0.4375q-0.1875 0.0625 -0.359375 0.171875q-0.171875 0.109375 -0.390625 0.375q-0.21875 0.265625 -0.703125 0.96875l-1.40625 2.0l2.125 3.5q0.109375 0.171875 0.21875 0.34375q0.109375 0.171875 0.21875 0.3125q0.109375 0.125 0.1875 0.203125q0.09375 0.0625 0.171875 0.09375q0.078125 0.03125 0.15625 0.0625l0 0.421875l-3.625 0l0 -0.421875q0.296875 -0.046875 0.421875 -0.140625q0.140625 -0.109375 0.140625 -0.328125q0 -0.078125 -0.03125 -0.171875q-0.015625 -0.09375 -0.078125 -0.21875q-0.046875 -0.140625 -0.109375 -0.234375q-0.046875 -0.109375 -0.21875 -0.390625l-0.90625 -1.484375l-1.046875 1.5625q-0.125 0.1875 -0.21875 0.34375q-0.078125 0.15625 -0.109375 0.296875q-0.03125 0.125 -0.03125 0.296875q0 0.171875 0.140625 0.3125q0.140625 0.125 0.390625 0.15625l0 0.421875l-2.6875 0l0 -0.421875q0.203125 -0.078125 0.375 -0.203125q0.1875 -0.140625 0.390625 -0.390625q0.21875 -0.25 0.59375 -0.78125l1.703125 -2.4375l-1.640625 -2.734375q-0.265625 -0.4375 -0.46875 -0.71875q-0.1875 -0.296875 -0.3125 -0.453125q-0.125 -0.15625 -0.234375 -0.21875q-0.09375 -0.0625 -0.234375 -0.09375l0 -0.4375l3.625 0z" fill-rule="nonzero"/><path fill="#000000" d="m50.923042 99.74439q-0.6875 0 -1.140625 -0.296875q-0.453125 -0.296875 -0.703125 -0.953125q-0.25 -0.65625 -0.25 -1.71875q0 -0.984375 0.25 -1.671875q0.265625 -0.6875 0.75 -1.046875q0.484375 -0.359375 1.171875 -0.359375q1.0625 0 1.578125 0.734375q0.53125 0.71875 0.53125 2.21875q0 1.53125 -0.5625 2.3125q-0.546875 0.78125 -1.625 0.78125zm-0.765625 -3.09375q0 0.953125 0.078125 1.515625q0.078125 0.5625 0.265625 0.828125q0.1875 0.265625 0.484375 0.265625q0.171875 0 0.296875 -0.078125q0.125 -0.078125 0.21875 -0.25q0.09375 -0.171875 0.15625 -0.453125q0.078125 -0.28125 0.109375 -0.703125q0.03125 -0.421875 0.03125 -0.9375q0 -0.78125 -0.0625 -1.3125q-0.0625 -0.53125 -0.171875 -0.8125q-0.109375 -0.28125 -0.25 -0.40625q-0.140625 -0.125 -0.34375 -0.125q-0.234375 0 -0.390625 0.15625q-0.15625 0.140625 -0.25 0.453125q-0.09375 0.3125 -0.140625 0.78125q-0.03125 0.453125 -0.03125 1.078125z" fill-rule="nonzero"/><path fill="#cfe2f3" d="m24.0 152.60367l0 0c0 -12.619919 10.230469 -22.850388 22.850395 -22.850388l0 0c6.060299 0 11.872387 2.4074402 16.157665 6.6927185c4.285282 4.2852936 6.69273 10.097382 6.69273 16.15767l0 0c0 12.619934 -10.230473 22.850403 -22.850395 22.850403l0 0c-12.619926 0 -22.850395 -10.230469 -22.850395 -22.850403z" fill-rule="evenodd"/><path stroke="#000000" stroke-width="1.0" stroke-linejoin="round" stroke-linecap="butt" d="m24.0 152.60367l0 0c0 -12.619919 10.230469 -22.850388 22.850395 -22.850388l0 0c6.060299 0 11.872387 2.4074402 16.157665 6.6927185c4.285282 4.2852936 6.69273 10.097382 6.69273 16.15767l0 0c0 12.619934 -10.230473 22.850403 -22.850395 22.850403l0 0c-12.619926 0 -22.850395 -10.230469 -22.850395 -22.850403z" fill-rule="evenodd"/><path fill="#000000" d="m44.036934 148.51305l0 0.4375q-0.3125 0.03125 -0.4375 0.140625q-0.125 0.109375 -0.125 0.328125q0 0.109375 0.046875 0.25q0.046875 0.140625 0.140625 0.34375q0.109375 0.1875 0.359375 0.609375l0.59375 1.0l0.796875 -1.15625q0.265625 -0.390625 0.34375 -0.59375q0.09375 -0.203125 0.09375 -0.4375q0 -0.203125 -0.15625 -0.328125q-0.140625 -0.125 -0.390625 -0.15625l0 -0.4375l2.6875 0l0 0.4375q-0.1875 0.0625 -0.359375 0.171875q-0.171875 0.109375 -0.390625 0.375q-0.21875 0.265625 -0.703125 0.96875l-1.40625 2.0l2.125 3.5q0.109375 0.171875 0.21875 0.34375q0.109375 0.171875 0.21875 0.3125q0.109375 0.125 0.1875 0.203125q0.09375 0.0625 0.171875 0.09375q0.078125 0.03125 0.15625 0.0625l0 0.421875l-3.625 0l0 -0.421875q0.296875 -0.046875 0.421875 -0.140625q0.140625 -0.109375 0.140625 -0.328125q0 -0.078125 -0.03125 -0.171875q-0.015625 -0.09375 -0.078125 -0.21875q-0.046875 -0.140625 -0.109375 -0.234375q-0.046875 -0.109375 -0.21875 -0.390625l-0.90625 -1.484375l-1.046875 1.5625q-0.125 0.1875 -0.21875 0.34375q-0.078125 0.15625 -0.109375 0.296875q-0.03125 0.125 -0.03125 0.296875q0 0.171875 0.140625 0.3125q0.140625 0.125 0.390625 0.15625l0 0.421875l-2.6875 0l0 -0.421875q0.203125 -0.078125 0.375 -0.203125q0.1875 -0.140625 0.390625 -0.390625q0.21875 -0.25 0.59375 -0.78125l1.703125 -2.4375l-1.640625 -2.734375q-0.265625 -0.4375 -0.46875 -0.71875q-0.1875 -0.296875 -0.3125 -0.453125q-0.125 -0.15625 -0.234375 -0.21875q-0.09375 -0.0625 -0.234375 -0.09375l0 -0.4375l3.625 0z" fill-rule="nonzero"/><path fill="#000000" d="m51.813667 161.20055q0 0.25 0.03125 0.375q0.03125 0.125 0.09375 0.203125q0.078125 0.078125 0.203125 0.125q0.140625 0.046875 0.34375 0.078125q0.203125 0.015625 0.546875 0.03125l0 0.390625l-3.75 0l0 -0.390625q0.484375 -0.03125 0.6875 -0.0625q0.21875 -0.03125 0.3125 -0.109375q0.109375 -0.078125 0.15625 -0.203125q0.0625 -0.140625 0.0625 -0.4375l0 -3.140625q0 -0.171875 -0.078125 -0.25q-0.0625 -0.078125 -0.171875 -0.078125q-0.109375 0 -0.3125 0.109375q-0.1875 0.09375 -0.640625 0.390625l-0.265625 -0.453125l2.265625 -1.359375l0.546875 0q-0.03125 0.421875 -0.03125 1.15625l0 3.625z" fill-rule="nonzero"/><path fill="#cfe2f3" d="m24.0 352.19455l0 0c0 -12.619904 10.230469 -22.850372 22.850395 -22.850372l0 0c6.060299 0 11.872387 2.4074402 16.157665 6.6927185c4.285282 4.2852783 6.69273 10.097351 6.69273 16.157654l0 0c0 12.619934 -10.230473 22.850403 -22.850395 22.850403l0 0c-12.619926 0 -22.850395 -10.230469 -22.850395 -22.850403z" fill-rule="evenodd"/><path stroke="#000000" stroke-width="1.0" stroke-linejoin="round" stroke-linecap="butt" d="m24.0 352.19455l0 0c0 -12.619904 10.230469 -22.850372 22.850395 -22.850372l0 0c6.060299 0 11.872387 2.4074402 16.157665 6.6927185c4.285282 4.2852783 6.69273 10.097351 6.69273 16.157654l0 0c0 12.619934 -10.230473 22.850403 -22.850395 22.850403l0 0c-12.619926 0 -22.850395 -10.230469 -22.850395 -22.850403z" fill-rule="evenodd"/><path fill="#000000" d="m43.65126 348.10394l0 0.4375q-0.3125 0.03125 -0.4375 0.140625q-0.125 0.109375 -0.125 0.328125q0 0.109375 0.046875 0.25q0.046875 0.140625 0.140625 0.34375q0.109375 0.1875 0.359375 0.609375l0.59375 1.0l0.796875 -1.15625q0.265625 -0.390625 0.34375 -0.59375q0.09375 -0.203125 0.09375 -0.4375q0 -0.203125 -0.15625 -0.328125q-0.140625 -0.125 -0.390625 -0.15625l0 -0.4375l2.6875 0l0 0.4375q-0.1875 0.0625 -0.359375 0.171875q-0.171875 0.109375 -0.390625 0.375q-0.21875 0.265625 -0.703125 0.96875l-1.40625 2.0l2.125 3.5q0.109375 0.171875 0.21875 0.34375q0.109375 0.171875 0.21875 0.3125q0.109375 0.125 0.1875 0.203125q0.09375 0.0625 0.171875 0.09375q0.078125 0.03125 0.15625 0.0625l0 0.421875l-3.625 0l0 -0.421875q0.296875 -0.046875 0.421875 -0.140625q0.140625 -0.109375 0.140625 -0.328125q0 -0.078125 -0.03125 -0.171875q-0.015625 -0.09375 -0.078125 -0.21875q-0.046875 -0.140625 -0.109375 -0.234375q-0.046875 -0.109375 -0.21875 -0.390625l-0.90625 -1.484375l-1.046875 1.5625q-0.125 0.1875 -0.21875 0.34375q-0.078125 0.15625 -0.109375 0.296875q-0.03125 0.125 -0.03125 0.296875q0 0.171875 0.140625 0.3125q0.140625 0.125 0.390625 0.15625l0 0.421875l-2.6875 0l0 -0.421875q0.203125 -0.078125 0.375 -0.203125q0.1875 -0.140625 0.390625 -0.390625q0.21875 -0.25 0.59375 -0.78125l1.703125 -2.4375l-1.640625 -2.734375q-0.265625 -0.4375 -0.46875 -0.71875q-0.1875 -0.296875 -0.3125 -0.453125q-0.125 -0.15625 -0.234375 -0.21875q-0.09375 -0.0625 -0.234375 -0.09375l0 -0.4375l3.625 0z" fill-rule="nonzero"/><path fill="#000000" d="m53.63112 356.0727l0 0.296875q-0.171875 0.046875 -0.25 0.09375q-0.0625 0.03125 -0.125 0.109375q-0.046875 0.0625 -0.078125 0.203125q-0.015625 0.125 -0.015625 0.390625l0 4.828125l-1.109375 0l-1.9375 -3.375q-0.40625 -0.6875 -0.59375 -1.078125l-0.03125 0q0.046875 0.9375 0.046875 1.96875l0 1.40625q0 0.3125 0.03125 0.453125q0.03125 0.125 0.109375 0.203125q0.09375 0.078125 0.328125 0.140625l0 0.28125l-1.640625 0l0 -0.28125q0.15625 -0.046875 0.25 -0.09375q0.09375 -0.0625 0.140625 -0.140625q0.046875 -0.09375 0.046875 -0.21875q0.015625 -0.140625 0.015625 -0.34375l0 -3.75q0 -0.328125 -0.03125 -0.453125q-0.015625 -0.125 -0.109375 -0.203125q-0.09375 -0.078125 -0.3125 -0.140625l0 -0.296875l1.75 0l1.53125 2.671875q0.140625 0.25 0.375 0.6875q0.234375 0.421875 0.40625 0.796875l0.078125 0q-0.046875 -1.03125 -0.046875 -2.25l0 -0.8125q0 -0.28125 -0.03125 -0.40625q-0.015625 -0.125 -0.0625 -0.1875q-0.046875 -0.0625 -0.125 -0.109375q-0.078125 -0.046875 -0.25 -0.09375l0 -0.296875l1.640625 0z" fill-rule="nonzero"/><path fill="#cfe2f3" d="m24.0 221.03806l0 0c0 -12.619919 10.230469 -22.850388 22.850395 -22.850388l0 0c6.060299 0 11.872387 2.4074402 16.157665 6.6927185c4.285282 4.2852783 6.69273 10.097366 6.69273 16.15767l0 0c0 12.619919 -10.230473 22.850403 -22.850395 22.850403l0 0c-12.619926 0 -22.850395 -10.230484 -22.850395 -22.850403z" fill-rule="evenodd"/><path stroke="#000000" stroke-width="1.0" stroke-linejoin="round" stroke-linecap="butt" d="m24.0 221.03806l0 0c0 -12.619919 10.230469 -22.850388 22.850395 -22.850388l0 0c6.060299 0 11.872387 2.4074402 16.157665 6.6927185c4.285282 4.2852783 6.69273 10.097366 6.69273 16.15767l0 0c0 12.619919 -10.230473 22.850403 -22.850395 22.850403l0 0c-12.619926 0 -22.850395 -10.230484 -22.850395 -22.850403z" fill-rule="evenodd"/><path fill="#000000" d="m44.036934 216.94743l0 0.4375q-0.3125 0.03125 -0.4375 0.140625q-0.125 0.109375 -0.125 0.328125q0 0.109375 0.046875 0.25q0.046875 0.140625 0.140625 0.34375q0.109375 0.1875 0.359375 0.609375l0.59375 1.0l0.796875 -1.15625q0.265625 -0.390625 0.34375 -0.59375q0.09375 -0.203125 0.09375 -0.4375q0 -0.203125 -0.15625 -0.328125q-0.140625 -0.125 -0.390625 -0.15625l0 -0.4375l2.6875 0l0 0.4375q-0.1875 0.0625 -0.359375 0.171875q-0.171875 0.109375 -0.390625 0.375q-0.21875 0.265625 -0.703125 0.96875l-1.40625 2.0l2.125 3.5q0.109375 0.171875 0.21875 0.34375q0.109375 0.171875 0.21875 0.3125q0.109375 0.125 0.1875 0.203125q0.09375 0.0625 0.171875 0.09375q0.078125 0.03125 0.15625 0.0625l0 0.421875l-3.625 0l0 -0.421875q0.296875 -0.046875 0.421875 -0.140625q0.140625 -0.109375 0.140625 -0.328125q0 -0.078125 -0.03125 -0.171875q-0.015625 -0.09375 -0.078125 -0.21875q-0.046875 -0.140625 -0.109375 -0.234375q-0.046875 -0.109375 -0.21875 -0.390625l-0.90625 -1.484375l-1.046875 1.5625q-0.125 0.1875 -0.21875 0.34375q-0.078125 0.15625 -0.109375 0.296875q-0.03125 0.125 -0.03125 0.296875q0 0.171875 0.140625 0.3125q0.140625 0.125 0.390625 0.15625l0 0.421875l-2.6875 0l0 -0.421875q0.203125 -0.078125 0.375 -0.203125q0.1875 -0.140625 0.390625 -0.390625q0.21875 -0.25 0.59375 -0.78125l1.703125 -2.4375l-1.640625 -2.734375q-0.265625 -0.4375 -0.46875 -0.71875q-0.1875 -0.296875 -0.3125 -0.453125q-0.125 -0.15625 -0.234375 -0.21875q-0.09375 -0.0625 -0.234375 -0.09375l0 -0.4375l3.625 0z" fill-rule="nonzero"/><path fill="#000000" d="m51.610542 229.77556q0.28125 0 0.421875 -0.03125q0.140625 -0.046875 0.21875 -0.140625q0.078125 -0.109375 0.125 -0.3125l0.5 0l-0.09375 1.546875l-3.96875 0l0 -0.28125q0.1875 -0.421875 0.53125 -0.90625q0.34375 -0.5 0.828125 -1.078125q0.46875 -0.546875 0.71875 -0.890625q0.25 -0.359375 0.359375 -0.671875q0.125 -0.328125 0.125 -0.671875q0 -0.46875 -0.21875 -0.734375q-0.203125 -0.28125 -0.578125 -0.28125q-0.34375 0 -0.578125 0.25q-0.21875 0.25 -0.328125 0.765625l-0.765625 0l0 -1.015625q0.515625 -0.21875 0.8125 -0.296875q0.3125 -0.078125 0.59375 -0.125q0.296875 -0.046875 0.640625 -0.046875q0.640625 0 1.03125 0.171875q0.40625 0.171875 0.578125 0.46875q0.1875 0.28125 0.1875 0.671875q0 0.34375 -0.125 0.640625q-0.125 0.296875 -0.4375 0.671875q-0.3125 0.375 -1.0625 1.078125q-0.328125 0.328125 -0.625 0.65625q-0.28125 0.328125 -0.421875 0.515625l0 0.046875l1.53125 0z" fill-rule="nonzero"/><path fill="#000000" fill-opacity="0.0" d="m77.25984 218.51706c22.07219 0 33.108948 -24.921265 44.14438 -49.842514c11.035431 -24.921265 22.06955 -49.84252 44.139084 -49.84252" fill-rule="evenodd"/><path stroke="#000000" stroke-width="1.0" stroke-linejoin="round" stroke-linecap="butt" d="m77.25984 218.51706c22.07219 0 33.108948 -24.921265 44.14438 -49.842514c5.5177155 -12.460632 11.03511 -24.921265 17.931747 -34.26674c3.4483337 -4.6727295 7.2414703 -8.566681 11.55188 -11.292442c2.1551971 -1.3628845 4.4397125 -2.4337158 6.875107 -3.1638412c0.3044281 -0.09125519 0.61120605 -0.17719269 0.9203949 -0.25772095c0.15458679 -0.040260315 0.30976868 -0.07917023 0.46557617 -0.11669922l0.429245 -0.09926605" fill-rule="evenodd"/><path fill="#000000" stroke="#000000" stroke-width="1.0" stroke-linecap="butt" d="m159.75595 121.119965l4.333954 -2.1305923l-4.6895294 -1.1536789z" fill-rule="evenodd"/><path fill="#f4cccc" d="m165.54855 273.6986l0 0c0 -12.289673 9.962753 -22.25241 22.25241 -22.25241l145.57391 0c5.901703 0 11.561707 2.3444366 15.734833 6.517578c4.1731567 4.173126 6.517578 9.83313 6.517578 15.734833l0 89.00699c0 12.289673 -9.962738 22.25241 -22.25241 22.25241l-145.57391 0l0 0c-12.289658 0 -22.25241 -9.962738 -22.25241 -22.25241z" fill-rule="evenodd"/><path stroke="#000000" stroke-width="3.0" stroke-linejoin="round" stroke-linecap="butt" d="m165.54855 273.6986l0 0c0 -12.289673 9.962753 -22.25241 22.25241 -22.25241l145.57391 0c5.901703 0 11.561707 2.3444366 15.734833 6.517578c4.1731567 4.173126 6.517578 9.83313 6.517578 15.734833l0 89.00699c0 12.289673 -9.962738 22.25241 -22.25241 22.25241l-145.57391 0l0 0c-12.289658 0 -22.25241 -9.962738 -22.25241 -22.25241z" fill-rule="evenodd"/><path fill="#000000" d="m219.7886 324.8621q0 0.828125 0.09375 1.265625q0.09375 0.421875 0.328125 0.6875q0.234375 0.25 0.671875 0.40625q0.453125 0.15625 1.125 0.234375q0.671875 0.078125 1.78125 0.109375l0 1.296875l-12.359375 0l0 -1.296875q1.59375 -0.078125 2.265625 -0.203125q0.6875 -0.125 1.03125 -0.359375q0.359375 -0.25 0.53125 -0.6875q0.171875 -0.453125 0.171875 -1.453125l0 -10.34375q0 -0.59375 -0.234375 -0.84375q-0.21875 -0.265625 -0.609375 -0.265625q-0.359375 0 -1.015625 0.328125q-0.640625 0.328125 -2.125 1.34375l-0.875 -1.515625l7.46875 -4.484375l1.84375 0q-0.09375 1.375 -0.09375 3.8125l0 11.96875zm14.714371 -15.546875q2.390625 0 3.984375 0.375q1.609375 0.375 2.84375 1.171875q1.25 0.796875 2.015625 1.90625q0.765625 1.109375 1.140625 2.578125q0.375 1.46875 0.375 3.3125q0 2.234375 -0.53125 4.015625q-0.515625 1.78125 -1.5625 3.03125q-0.921875 1.140625 -2.28125 1.875q-1.34375 0.71875 -3.109375 1.03125q-1.515625 0.25 -3.828125 0.25l-6.5 0l0 -0.9375q0.53125 -0.15625 0.828125 -0.3125q0.3125 -0.171875 0.46875 -0.453125q0.15625 -0.296875 0.1875 -0.75q0.046875 -0.453125 0.046875 -1.140625l0 -12.34375q0 -0.671875 -0.046875 -1.125q-0.03125 -0.46875 -0.1875 -0.75q-0.140625 -0.28125 -0.453125 -0.453125q-0.296875 -0.1875 -0.84375 -0.34375l0 -0.9375l7.453125 0zm-1.484375 17.8125q0.265625 0.046875 1.3125 0.046875q1.5625 0 2.640625 -0.453125q0.796875 -0.34375 1.359375 -0.953125q0.9375 -0.984375 1.40625 -2.5625q0.515625 -1.71875 0.515625 -4.203125q0 -2.71875 -0.734375 -4.515625q-0.71875 -1.796875 -2.046875 -2.640625q-1.328125 -0.859375 -3.171875 -0.859375q-0.890625 0 -1.28125 0.03125l0 16.109375zm21.648682 -4.578125l-6.78125 0l0 -3.015625l6.78125 0l0 3.015625zm17.146683 -12.796875l0 4.15625l-1.953125 0q-0.34375 -1.609375 -1.09375 -2.375q-0.734375 -0.765625 -1.9375 -0.765625q-2.265625 0 -3.421875 2.171875q-1.15625 2.15625 -1.15625 6.421875q0 3.96875 1.046875 6.015625q1.0625 2.03125 3.125 2.03125q1.03125 0 1.6875 -0.34375q0.671875 -0.34375 1.0625 -1.046875q0.390625 -0.703125 0.6875 -1.984375l1.953125 0l0 4.34375q-1.578125 0.375 -2.890625 0.546875q-1.296875 0.171875 -2.6875 0.171875q-2.984375 0 -4.875 -1.078125q-1.875 -1.078125 -2.78125 -3.25q-0.890625 -2.171875 -0.890625 -5.484375q0 -3.109375 1.046875 -5.40625q1.0625 -2.296875 3.109375 -3.546875q2.046875 -1.25 4.90625 -1.25q1.4375 0 2.609375 0.15625q1.1875 0.15625 2.453125 0.515625zm19.952728 -0.4375l0 0.9375q-0.578125 0.1875 -0.8125 0.328125q-0.234375 0.125 -0.40625 0.34375q-0.15625 0.203125 -0.25 0.640625q-0.078125 0.4375 -0.078125 1.34375l0 15.953125l-3.640625 0l-6.4375 -11.140625q-1.3125 -2.265625 -1.921875 -3.546875l-0.125 0q0.140625 3.078125 0.140625 6.5l0 4.609375q0 1.078125 0.09375 1.515625q0.109375 0.421875 0.390625 0.671875q0.28125 0.25 1.0625 0.453125l0 0.9375l-5.421875 0l0 -0.9375q0.53125 -0.15625 0.84375 -0.328125q0.3125 -0.171875 0.453125 -0.453125q0.15625 -0.296875 0.1875 -0.734375q0.046875 -0.453125 0.046875 -1.125l0 -12.390625q0 -1.078125 -0.09375 -1.484375q-0.09375 -0.40625 -0.390625 -0.671875q-0.28125 -0.28125 -1.046875 -0.484375l0 -0.9375l5.796875 0l5.078125 8.8125q0.46875 0.828125 1.21875 2.25q0.765625 1.40625 1.359375 2.671875l0.21875 0q-0.15625 -3.421875 -0.15625 -7.484375l0 -2.65625q0 -0.9375 -0.078125 -1.34375q-0.0625 -0.421875 -0.21875 -0.625q-0.140625 -0.21875 -0.390625 -0.359375q-0.25 -0.15625 -0.84375 -0.328125l0 -0.9375l5.421875 0zm19.919647 0l0 0.9375q-0.578125 0.1875 -0.8125 0.328125q-0.234375 0.125 -0.40625 0.34375q-0.15625 0.203125 -0.25 0.640625q-0.078125 0.4375 -0.078125 1.34375l0 15.953125l-3.640625 0l-6.4375 -11.140625q-1.3125 -2.265625 -1.921875 -3.546875l-0.125 0q0.140625 3.078125 0.140625 6.5l0 4.609375q0 1.078125 0.09375 1.515625q0.109375 0.421875 0.390625 0.671875q0.28125 0.25 1.0625 0.453125l0 0.9375l-5.421875 0l0 -0.9375q0.53125 -0.15625 0.84375 -0.328125q0.3125 -0.171875 0.453125 -0.453125q0.15625 -0.296875 0.1875 -0.734375q0.046875 -0.453125 0.046875 -1.125l0 -12.390625q0 -1.078125 -0.09375 -1.484375q-0.09375 -0.40625 -0.390625 -0.671875q-0.28125 -0.28125 -1.046875 -0.484375l0 -0.9375l5.796875 0l5.078125 8.8125q0.46875 0.828125 1.21875 2.25q0.765625 1.40625 1.359375 2.671875l0.21875 0q-0.15625 -3.421875 -0.15625 -7.484375l0 -2.65625q0 -0.9375 -0.078125 -1.34375q-0.0625 -0.421875 -0.21875 -0.625q-0.140625 -0.21875 -0.390625 -0.359375q-0.25 -0.15625 -0.84375 -0.328125l0 -0.9375l5.421875 0z" fill-rule="nonzero"/><path fill="#000000" fill-opacity="0.0" d="m69.70079 221.03806c0.03149414 0 0.06298828 0.03149414 0.06298828 0.06298828" fill-rule="evenodd"/><path stroke="#000000" stroke-width="1.0" stroke-linejoin="round" stroke-linecap="butt" d="m69.70079 221.03806c0.03149414 0 0.06298828 0.03149414 0.06298828 0.06298828" fill-rule="evenodd"/><path fill="#000000" fill-opacity="0.0" d="m77.25984 218.51706c22.07219 0 33.108948 24.921265 44.14438 49.84253c11.035431 24.921265 22.06955 49.8425 44.139084 49.8425" fill-rule="evenodd"/><path stroke="#000000" stroke-width="1.0" stroke-linejoin="round" stroke-linecap="butt" d="m77.25984 218.51706c22.07219 0 33.108948 24.921265 44.14438 49.84253c5.5177155 12.460632 11.03511 24.921265 17.931747 34.266724c3.4483337 4.6727295 7.2414703 8.566681 11.55188 11.29245c2.1551971 1.3628845 4.4397125 2.4337158 6.875107 3.1638184c0.3044281 0.091278076 0.61120605 0.17721558 0.9203949 0.25775146c0.15458679 0.040252686 0.30976868 0.07913208 0.46557617 0.11669922l0.429245 0.099243164" fill-rule="evenodd"/><path fill="#000000" stroke="#000000" stroke-width="1.0" stroke-linecap="butt" d="m159.40038 319.19843l4.6895294 -1.1536865l-4.333954 -2.1305847z" fill-rule="evenodd"/><path fill="#fff2cc" d="m408.16766 301.41428l76.47244 0l0 33.57483l-76.47244 0z" fill-rule="evenodd"/><path stroke="#000000" stroke-width="1.0" stroke-linejoin="round" stroke-linecap="butt" d="m408.16766 301.41428l76.47244 0l0 33.57483l-76.47244 0z" fill-rule="evenodd"/><path fill="#000000" d="m452.38824 316.00732l0 1.703125l-4.5625 0q1.5 0.859375 2.4375 2.171875q0.953125 1.296875 0.953125 2.765625q0 1.90625 -1.5 3.171875q-1.5 1.25 -3.421875 1.25q-2.25 0 -3.890625 -1.765625q-1.640625 -1.78125 -1.640625 -4.140625q0 -1.671875 0.859375 -2.9375q0.859375 -1.28125 2.0 -1.75q1.140625 -0.46875 3.09375 -0.46875l5.671875 0zm-5.34375 1.703125l-0.421875 0q-1.75 0 -2.796875 0.875q-1.046875 0.875 -1.046875 2.734375q0 1.984375 1.09375 3.5q1.109375 1.515625 2.578125 1.515625q1.1875 0 1.953125 -1.140625q0.78125 -1.140625 0.78125 -2.75q0 -2.578125 -2.140625 -4.734375z" fill-rule="nonzero"/><path fill="#000000" fill-opacity="0.0" d="m355.6273 318.2021l52.53543 0" fill-rule="evenodd"/><path stroke="#000000" stroke-width="1.0" stroke-linejoin="round" stroke-linecap="butt" d="m355.6273 318.2021l46.53543 0" fill-rule="evenodd"/><path fill="#000000" stroke="#000000" stroke-width="1.0" stroke-linecap="butt" d="m402.16272 319.85382l4.5381165 -1.6517334l-4.5381165 -1.6517334z" fill-rule="evenodd"/><path fill="#000000" fill-opacity="0.0" d="m355.6273 118.83202c47.70868 0 71.56299 24.921257 95.41733 49.84252c23.85434 24.92125 47.70868 49.842514 95.4173 49.842514" fill-rule="evenodd"/><path stroke="#000000" stroke-width="1.0" stroke-linejoin="round" stroke-linecap="butt" d="m355.6273 118.83202c47.70868 0 71.56299 24.921257 95.41733 49.84252c11.927155 12.460632 23.85434 24.92125 38.763275 34.266724c7.4544983 4.6727448 15.654419 8.566681 24.972565 11.29245c4.6589966 1.3628845 9.597595 2.433731 14.862305 3.1638336c2.6323853 0.36505127 5.3463135 0.644928 8.147522 0.83354187c0.7003174 0.047164917 1.4060669 0.08860779 2.1174316 0.12426758l0.55578613 0.025482178" fill-rule="evenodd"/><path fill="#000000" stroke="#000000" stroke-width="1.0" stroke-linecap="butt" d="m540.42596 220.03214l4.574463 -1.5482635l-4.4994507 -1.7543488z" fill-rule="evenodd"/><path fill="#000000" fill-opacity="0.0" d="m484.6401 318.2017c15.455444 0 23.182556 -24.921265 30.91092 -49.84253c7.7283325 -24.92125 15.457947 -49.842514 30.915833 -49.842514" fill-rule="evenodd"/><path stroke="#000000" stroke-width="1.0" stroke-linejoin="round" stroke-linecap="butt" d="m484.6401 318.2017c15.455444 0 23.182556 -24.921265 30.91092 -49.84253c3.8641357 -12.460617 7.7286377 -24.92125 12.559326 -34.266724c2.4153442 -4.6727295 5.0722046 -8.566681 8.09137 -11.29245c0.7548218 -0.681427 1.5322266 -1.289856 2.3342285 -1.8191986c0.40100098 -0.2646637 0.80810547 -0.509552 1.2216187 -0.7339325c0.20672607 -0.1121521 0.41503906 -0.21922302 0.625 -0.32102966l0.22729492 -0.10699463" fill-rule="evenodd"/><path fill="#000000" stroke="#000000" stroke-width="1.0" stroke-linecap="butt" d="m540.9684 221.43121l4.071411 -2.59729l-4.788391 -0.6274414z" fill-rule="evenodd"/><path fill="#000000" fill-opacity="0.0" d="m662.5302 62.212803l0 0c0 -5.598339 4.53833 -10.136688 10.136658 -10.136688l40.545532 0l0 0c2.6884155 0 5.2667236 1.0679703 7.1677246 2.9689674c1.901001 1.9009972 2.968933 4.4793015 2.968933 7.167721l0 312.60852c0 5.5983276 -4.53833 10.136688 -10.136658 10.136688l-40.545532 0c-5.5983276 0 -10.136658 -4.5383606 -10.136658 -10.136688z" fill-rule="evenodd"/><path stroke="#000000" stroke-width="2.0" stroke-linejoin="round" stroke-linecap="butt" d="m662.5302 62.212803l0 0c0 -5.598339 4.53833 -10.136688 10.136658 -10.136688l40.545532 0l0 0c2.6884155 0 5.2667236 1.0679703 7.1677246 2.9689674c1.901001 1.9009972 2.968933 4.4793015 2.968933 7.167721l0 312.60852c0 5.5983276 -4.53833 10.136688 -10.136658 10.136688l-40.545532 0c-5.5983276 0 -10.136658 -4.5383606 -10.136658 -10.136688z" fill-rule="evenodd"/><path fill="#cfe2f3" d="m670.08923 89.88189l0 0c0 -12.619926 10.230469 -22.850395 22.850403 -22.850395l0 0c6.0603027 0 11.8723755 2.4074478 16.157654 6.692726c4.2852783 4.2852783 6.692749 10.097366 6.692749 16.15767l0 0c0 12.619926 -10.230469 22.850395 -22.850403 22.850395l0 0c-12.619934 0 -22.850403 -10.230469 -22.850403 -22.850395z" fill-rule="evenodd"/><path stroke="#000000" stroke-width="1.0" stroke-linejoin="round" stroke-linecap="butt" d="m670.08923 89.88189l0 0c0 -12.619926 10.230469 -22.850395 22.850403 -22.850395l0 0c6.0603027 0 11.8723755 2.4074478 16.157654 6.692726c4.2852783 4.2852783 6.692749 10.097366 6.692749 16.15767l0 0c0 12.619926 -10.230469 22.850395 -22.850403 22.850395l0 0c-12.619934 0 -22.850403 -10.230469 -22.850403 -22.850395z" fill-rule="evenodd"/><path fill="#000000" d="m693.79895 93.04127q0 0.515625 0.03125 0.703125q0.046875 0.171875 0.171875 0.296875q0.140625 0.125 0.484375 0.21875l0 0.421875l-3.390625 0l0 -0.421875q0.375 -0.109375 0.484375 -0.203125q0.109375 -0.09375 0.15625 -0.265625q0.046875 -0.1875 0.046875 -0.75l0 -2.609375l-2.9375 0l0 2.609375q0 0.234375 0 0.4375q0.015625 0.1875 0.046875 0.3125q0.046875 0.125 0.125 0.21875q0.078125 0.078125 0.203125 0.140625q0.140625 0.0625 0.328125 0.109375l0 0.421875l-3.421875 0l0 -0.421875q0.234375 -0.078125 0.375 -0.140625q0.140625 -0.078125 0.203125 -0.203125q0.078125 -0.140625 0.09375 -0.34375q0.03125 -0.21875 0.03125 -0.53125l0 -5.609375q0 -0.296875 -0.03125 -0.5q-0.015625 -0.21875 -0.078125 -0.34375q-0.0625 -0.125 -0.203125 -0.203125q-0.140625 -0.09375 -0.390625 -0.15625l0 -0.4375l3.421875 0l0 0.4375q-0.34375 0.09375 -0.484375 0.21875q-0.125 0.109375 -0.171875 0.3125q-0.046875 0.1875 -0.046875 0.6875l0 2.171875l2.9375 0l0 -2.171875q0 -0.5 -0.046875 -0.6875q-0.03125 -0.1875 -0.171875 -0.3125q-0.125 -0.125 -0.46875 -0.21875l0 -0.4375l3.390625 0l0 0.4375q-0.28125 0.078125 -0.421875 0.171875q-0.125 0.078125 -0.1875 0.21875q-0.046875 0.140625 -0.0625 0.3125q-0.015625 0.15625 -0.015625 0.515625l0 5.59375z" fill-rule="nonzero"/><path fill="#000000" d="m697.69885 99.74439q-0.6875 0 -1.140625 -0.296875q-0.453125 -0.296875 -0.703125 -0.953125q-0.25 -0.65625 -0.25 -1.71875q0 -0.984375 0.25 -1.671875q0.265625 -0.6875 0.75 -1.046875q0.484375 -0.359375 1.171875 -0.359375q1.0625 0 1.578125 0.734375q0.53125 0.71875 0.53125 2.21875q0 1.53125 -0.5625 2.3125q-0.546875 0.78125 -1.625 0.78125zm-0.765625 -3.09375q0 0.953125 0.078125 1.515625q0.078125 0.5625 0.265625 0.828125q0.1875 0.265625 0.484375 0.265625q0.171875 0 0.296875 -0.078125q0.125 -0.078125 0.21875 -0.25q0.09375 -0.171875 0.15625 -0.453125q0.078125 -0.28125 0.109375 -0.703125q0.03125 -0.421875 0.03125 -0.9375q0 -0.78125 -0.0625 -1.3125q-0.0625 -0.53125 -0.171875 -0.8125q-0.109375 -0.28125 -0.25 -0.40625q-0.140625 -0.125 -0.34375 -0.125q-0.234375 0 -0.390625 0.15625q-0.15625 0.140625 -0.25 0.453125q-0.09375 0.3125 -0.140625 0.78125q-0.03125 0.453125 -0.03125 1.078125z" fill-rule="nonzero"/><path fill="#cfe2f3" d="m670.08923 152.60367l0 0c0 -12.619919 10.230469 -22.850388 22.850403 -22.850388l0 0c6.0603027 0 11.8723755 2.4074402 16.157654 6.6927185c4.2852783 4.2852936 6.692749 10.097382 6.692749 16.15767l0 0c0 12.619934 -10.230469 22.850403 -22.850403 22.850403l0 0c-12.619934 0 -22.850403 -10.230469 -22.850403 -22.850403z" fill-rule="evenodd"/><path stroke="#000000" stroke-width="1.0" stroke-linejoin="round" stroke-linecap="butt" d="m670.08923 152.60367l0 0c0 -12.619919 10.230469 -22.850388 22.850403 -22.850388l0 0c6.0603027 0 11.8723755 2.4074402 16.157654 6.6927185c4.2852783 4.2852936 6.692749 10.097382 6.692749 16.15767l0 0c0 12.619934 -10.230469 22.850403 -22.850403 22.850403l0 0c-12.619934 0 -22.850403 -10.230469 -22.850403 -22.850403z" fill-rule="evenodd"/><path fill="#000000" d="m693.79895 155.76305q0 0.515625 0.03125 0.703125q0.046875 0.171875 0.171875 0.296875q0.140625 0.125 0.484375 0.21875l0 0.421875l-3.390625 0l0 -0.421875q0.375 -0.109375 0.484375 -0.203125q0.109375 -0.09375 0.15625 -0.265625q0.046875 -0.1875 0.046875 -0.75l0 -2.609375l-2.9375 0l0 2.609375q0 0.234375 0 0.4375q0.015625 0.1875 0.046875 0.3125q0.046875 0.125 0.125 0.21875q0.078125 0.078125 0.203125 0.140625q0.140625 0.0625 0.328125 0.109375l0 0.421875l-3.421875 0l0 -0.421875q0.234375 -0.078125 0.375 -0.140625q0.140625 -0.078125 0.203125 -0.203125q0.078125 -0.140625 0.09375 -0.34375q0.03125 -0.21875 0.03125 -0.53125l0 -5.609375q0 -0.296875 -0.03125 -0.5q-0.015625 -0.21875 -0.078125 -0.34375q-0.0625 -0.125 -0.203125 -0.203125q-0.140625 -0.09375 -0.390625 -0.15625l0 -0.4375l3.421875 0l0 0.4375q-0.34375 0.09375 -0.484375 0.21875q-0.125 0.109375 -0.171875 0.3125q-0.046875 0.1875 -0.046875 0.6875l0 2.171875l2.9375 0l0 -2.171875q0 -0.5 -0.046875 -0.6875q-0.03125 -0.1875 -0.171875 -0.3125q-0.125 -0.125 -0.46875 -0.21875l0 -0.4375l3.390625 0l0 0.4375q-0.28125 0.078125 -0.421875 0.171875q-0.125 0.078125 -0.1875 0.21875q-0.046875 0.140625 -0.0625 0.3125q-0.015625 0.15625 -0.015625 0.515625l0 5.59375z" fill-rule="nonzero"/><path fill="#000000" d="m698.5895 161.20055q0 0.25 0.03125 0.375q0.03125 0.125 0.09375 0.203125q0.078125 0.078125 0.203125 0.125q0.140625 0.046875 0.34375 0.078125q0.203125 0.015625 0.546875 0.03125l0 0.390625l-3.75 0l0 -0.390625q0.484375 -0.03125 0.6875 -0.0625q0.21875 -0.03125 0.3125 -0.109375q0.109375 -0.078125 0.15625 -0.203125q0.0625 -0.140625 0.0625 -0.4375l0 -3.140625q0 -0.171875 -0.078125 -0.25q-0.0625 -0.078125 -0.171875 -0.078125q-0.109375 0 -0.3125 0.109375q-0.1875 0.09375 -0.640625 0.390625l-0.265625 -0.453125l2.265625 -1.359375l0.546875 0q-0.03125 0.421875 -0.03125 1.15625l0 3.625z" fill-rule="nonzero"/><path fill="#cfe2f3" d="m670.08923 352.19455l0 0c0 -12.619904 10.230469 -22.850372 22.850403 -22.850372l0 0c6.0603027 0 11.8723755 2.4074402 16.157654 6.6927185c4.2852783 4.2852783 6.692749 10.097351 6.692749 16.157654l0 0c0 12.619934 -10.230469 22.850403 -22.850403 22.850403l0 0c-12.619934 0 -22.850403 -10.230469 -22.850403 -22.850403z" fill-rule="evenodd"/><path stroke="#000000" stroke-width="1.0" stroke-linejoin="round" stroke-linecap="butt" d="m670.08923 352.19455l0 0c0 -12.619904 10.230469 -22.850372 22.850403 -22.850372l0 0c6.0603027 0 11.8723755 2.4074402 16.157654 6.6927185c4.2852783 4.2852783 6.692749 10.097351 6.692749 16.157654l0 0c0 12.619934 -10.230469 22.850403 -22.850403 22.850403l0 0c-12.619934 0 -22.850403 -10.230469 -22.850403 -22.850403z" fill-rule="evenodd"/><path fill="#000000" d="m693.41327 355.35394q0 0.515625 0.03125 0.703125q0.046875 0.171875 0.171875 0.296875q0.140625 0.125 0.484375 0.21875l0 0.421875l-3.390625 0l0 -0.421875q0.375 -0.109375 0.484375 -0.203125q0.109375 -0.09375 0.15625 -0.265625q0.046875 -0.1875 0.046875 -0.75l0 -2.609375l-2.9375 0l0 2.609375q0 0.234375 0 0.4375q0.015625 0.1875 0.046875 0.3125q0.046875 0.125 0.125 0.21875q0.078125 0.078125 0.203125 0.140625q0.140625 0.0625 0.328125 0.109375l0 0.421875l-3.421875 0l0 -0.421875q0.234375 -0.078125 0.375 -0.140625q0.140625 -0.078125 0.203125 -0.203125q0.078125 -0.140625 0.09375 -0.34375q0.03125 -0.21875 0.03125 -0.53125l0 -5.609375q0 -0.296875 -0.03125 -0.5q-0.015625 -0.21875 -0.078125 -0.34375q-0.0625 -0.125 -0.203125 -0.203125q-0.140625 -0.09375 -0.390625 -0.15625l0 -0.4375l3.421875 0l0 0.4375q-0.34375 0.09375 -0.484375 0.21875q-0.125 0.109375 -0.171875 0.3125q-0.046875 0.1875 -0.046875 0.6875l0 2.171875l2.9375 0l0 -2.171875q0 -0.5 -0.046875 -0.6875q-0.03125 -0.1875 -0.171875 -0.3125q-0.125 -0.125 -0.46875 -0.21875l0 -0.4375l3.390625 0l0 0.4375q-0.28125 0.078125 -0.421875 0.171875q-0.125 0.078125 -0.1875 0.21875q-0.046875 0.140625 -0.0625 0.3125q-0.015625 0.15625 -0.015625 0.515625l0 5.59375z" fill-rule="nonzero"/><path fill="#000000" d="m700.4069 356.0727l0 0.296875q-0.171875 0.046875 -0.25 0.09375q-0.0625 0.03125 -0.125 0.109375q-0.046875 0.0625 -0.078125 0.203125q-0.015625 0.125 -0.015625 0.390625l0 4.828125l-1.109375 0l-1.9375 -3.375q-0.40625 -0.6875 -0.59375 -1.078125l-0.03125 0q0.046875 0.9375 0.046875 1.96875l0 1.40625q0 0.3125 0.03125 0.453125q0.03125 0.125 0.109375 0.203125q0.09375 0.078125 0.328125 0.140625l0 0.28125l-1.640625 0l0 -0.28125q0.15625 -0.046875 0.25 -0.09375q0.09375 -0.0625 0.140625 -0.140625q0.046875 -0.09375 0.046875 -0.21875q0.015625 -0.140625 0.015625 -0.34375l0 -3.75q0 -0.328125 -0.03125 -0.453125q-0.015625 -0.125 -0.109375 -0.203125q-0.09375 -0.078125 -0.3125 -0.140625l0 -0.296875l1.75 0l1.53125 2.671875q0.140625 0.25 0.375 0.6875q0.234375 0.421875 0.40625 0.796875l0.078125 0q-0.046875 -1.03125 -0.046875 -2.25l0 -0.8125q0 -0.28125 -0.03125 -0.40625q-0.015625 -0.125 -0.0625 -0.1875q-0.046875 -0.0625 -0.125 -0.109375q-0.078125 -0.046875 -0.25 -0.09375l0 -0.296875l1.640625 0z" fill-rule="nonzero"/><path fill="#cfe2f3" d="m670.08923 221.03806l0 0c0 -12.619919 10.230469 -22.850388 22.850403 -22.850388l0 0c6.0603027 0 11.8723755 2.4074402 16.157654 6.6927185c4.2852783 4.2852783 6.692749 10.097366 6.692749 16.15767l0 0c0 12.619919 -10.230469 22.850403 -22.850403 22.850403l0 0c-12.619934 0 -22.850403 -10.230484 -22.850403 -22.850403z" fill-rule="evenodd"/><path stroke="#000000" stroke-width="1.0" stroke-linejoin="round" stroke-linecap="butt" d="m670.08923 221.03806l0 0c0 -12.619919 10.230469 -22.850388 22.850403 -22.850388l0 0c6.0603027 0 11.8723755 2.4074402 16.157654 6.6927185c4.2852783 4.2852783 6.692749 10.097366 6.692749 16.15767l0 0c0 12.619919 -10.230469 22.850403 -22.850403 22.850403l0 0c-12.619934 0 -22.850403 -10.230484 -22.850403 -22.850403z" fill-rule="evenodd"/><path fill="#000000" d="m693.79895 224.19743q0 0.515625 0.03125 0.703125q0.046875 0.171875 0.171875 0.296875q0.140625 0.125 0.484375 0.21875l0 0.421875l-3.390625 0l0 -0.421875q0.375 -0.109375 0.484375 -0.203125q0.109375 -0.09375 0.15625 -0.265625q0.046875 -0.1875 0.046875 -0.75l0 -2.609375l-2.9375 0l0 2.609375q0 0.234375 0 0.4375q0.015625 0.1875 0.046875 0.3125q0.046875 0.125 0.125 0.21875q0.078125 0.078125 0.203125 0.140625q0.140625 0.0625 0.328125 0.109375l0 0.421875l-3.421875 0l0 -0.421875q0.234375 -0.078125 0.375 -0.140625q0.140625 -0.078125 0.203125 -0.203125q0.078125 -0.140625 0.09375 -0.34375q0.03125 -0.21875 0.03125 -0.53125l0 -5.609375q0 -0.296875 -0.03125 -0.5q-0.015625 -0.21875 -0.078125 -0.34375q-0.0625 -0.125 -0.203125 -0.203125q-0.140625 -0.09375 -0.390625 -0.15625l0 -0.4375l3.421875 0l0 0.4375q-0.34375 0.09375 -0.484375 0.21875q-0.125 0.109375 -0.171875 0.3125q-0.046875 0.1875 -0.046875 0.6875l0 2.171875l2.9375 0l0 -2.171875q0 -0.5 -0.046875 -0.6875q-0.03125 -0.1875 -0.171875 -0.3125q-0.125 -0.125 -0.46875 -0.21875l0 -0.4375l3.390625 0l0 0.4375q-0.28125 0.078125 -0.421875 0.171875q-0.125 0.078125 -0.1875 0.21875q-0.046875 0.140625 -0.0625 0.3125q-0.015625 0.15625 -0.015625 0.515625l0 5.59375z" fill-rule="nonzero"/><path fill="#000000" d="m698.38635 229.77556q0.28125 0 0.421875 -0.03125q0.140625 -0.046875 0.21875 -0.140625q0.078125 -0.109375 0.125 -0.3125l0.5 0l-0.09375 1.546875l-3.96875 0l0 -0.28125q0.1875 -0.421875 0.53125 -0.90625q0.34375 -0.5 0.828125 -1.078125q0.46875 -0.546875 0.71875 -0.890625q0.25 -0.359375 0.359375 -0.671875q0.125 -0.328125 0.125 -0.671875q0 -0.46875 -0.21875 -0.734375q-0.203125 -0.28125 -0.578125 -0.28125q-0.34375 0 -0.578125 0.25q-0.21875 0.25 -0.328125 0.765625l-0.765625 0l0 -1.015625q0.515625 -0.21875 0.8125 -0.296875q0.3125 -0.078125 0.59375 -0.125q0.296875 -0.046875 0.640625 -0.046875q0.640625 0 1.03125 0.171875q0.40625 0.171875 0.578125 0.46875q0.1875 0.28125 0.1875 0.671875q0 0.34375 -0.125 0.640625q-0.125 0.296875 -0.4375 0.671875q-0.3125 0.375 -1.0625 1.078125q-0.328125 0.328125 -0.625 0.65625q-0.28125 0.328125 -0.421875 0.515625l0 0.046875l1.53125 0z" fill-rule="nonzero"/><path fill="#000000" fill-opacity="0.0" d="m597.7375 218.51625l64.787415 0" fill-rule="evenodd"/><path stroke="#000000" stroke-width="1.0" stroke-linejoin="round" stroke-linecap="butt" d="m597.7375 218.51627l58.787415 0" fill-rule="evenodd"/><path fill="#000000" stroke="#000000" stroke-width="1.0" stroke-linecap="butt" d="m656.5249 220.168l4.538086 -1.6517334l-4.538086 -1.6517334z" fill-rule="evenodd"/></g></svg>