<svg version="1.1" viewBox="0.0 0.0 872.1863517060367 598.5590551181102" fill="none" stroke="none" stroke-linecap="square" stroke-miterlimit="10" xmlns:xlink="http://www.w3.org/1999/xlink" xmlns="http://www.w3.org/2000/svg"><clipPath id="p.0"><path d="m0 0l872.18634 0l0 598.5591l-872.18634 0l0 -598.5591z" clip-rule="nonzero"/></clipPath><g clip-path="url(#p.0)"><path fill="#000000" fill-opacity="0.0" d="m0 0l872.18634 0l0 598.5591l-872.18634 0z" fill-rule="evenodd"/><path fill="#cfe2f3" d="m25.010504 20.985884l92.052376 0l0 92.052376l-92.052376 0z" fill-rule="evenodd"/><path stroke="#000000" stroke-width="1.0" stroke-linejoin="round" stroke-linecap="butt" d="m25.010504 20.985884l92.052376 0l0 92.052376l-92.052376 0z" fill-rule="evenodd"/><path fill="#000000" d="m73.03669 74.653946q0 0.90625 0.09375 1.375q0.109375 0.453125 0.359375 0.75q0.265625 0.28125 0.75 0.453125q0.484375 0.15625 1.21875 0.25q0.734375 0.078125 1.9375 0.109375l0 1.140625l-11.546875 0l0 -1.140625q1.734375 -0.078125 2.46875 -0.203125q0.75 -0.140625 1.140625 -0.40625q0.390625 -0.265625 0.5625 -0.75q0.1875 -0.484375 0.1875 -1.578125l0 -12.671871q0 -0.625 -0.21875 -0.90625q-0.21875 -0.296875 -0.640625 -0.296875q-0.5 0 -1.421875 0.515625q-0.921875 0.515625 -2.28125 1.421875l-0.6875 -1.203125l7.3125 -4.359375l0.859375 0q-0.09375 1.5 -0.09375 4.15625l0 13.343746z" fill-rule="nonzero"/><path fill="#cfe2f3" d="m117.06288 20.985884l92.05238 0l0 92.052376l-92.05238 0z" fill-rule="evenodd"/><path stroke="#000000" stroke-width="1.0" stroke-linejoin="round" stroke-linecap="butt" d="m117.06288 20.985884l92.05238 0l0 92.052376l-92.05238 0z" fill-rule="evenodd"/><path fill="#000000" d="m165.19844 76.23207q0.765625 0 1.234375 -0.09375q0.46875 -0.09375 0.75 -0.3125q0.28125 -0.21875 0.4375 -0.5625q0.171875 -0.359375 0.421875 -1.09375l1.328125 0l-0.265625 4.5625l-12.859375 0l0 -0.75q0.671875 -1.640625 1.8125 -3.359375q1.140625 -1.71875 3.234375 -4.046875q1.8125 -2.0 2.609375 -3.03125q0.875 -1.125 1.296875 -1.9375q0.4375 -0.828125 0.625 -1.546875q0.1875 -0.7343712 0.1875 -1.4687462q0 -1.171875 -0.375 -2.0625q-0.375 -0.90625 -1.15625 -1.421875q-0.765625 -0.515625 -1.9375 -0.515625q-2.921875 0 -3.9375 3.25l-1.890625 0l0 -3.0q1.890625 -0.890625 3.53125 -1.28125q1.65625 -0.40625 2.96875 -0.40625q2.90625 0 4.390625 1.28125q1.484375 1.265625 1.484375 3.6875q0 0.828125 -0.171875 1.53125q-0.15625 0.6874962 -0.515625 1.3749962q-0.34375 0.671875 -0.9375 1.453125q-0.59375 0.78125 -1.3125 1.59375q-0.71875 0.796875 -2.484375 2.671875q-2.96875 3.140625 -4.359375 5.484375l5.890625 0z" fill-rule="nonzero"/><path fill="#cfe2f3" d="m209.11526 20.985884l92.05237 0l0 92.052376l-92.05237 0z" fill-rule="evenodd"/><path stroke="#000000" stroke-width="1.0" stroke-linejoin="round" stroke-linecap="butt" d="m209.11526 20.985884l92.05237 0l0 92.052376l-92.05237 0z" fill-rule="evenodd"/><path fill="#000000" d="m257.25082 76.23207q0.765625 0 1.234375 -0.09375q0.46875 -0.09375 0.75 -0.3125q0.28125 -0.21875 0.4375 -0.5625q0.171875 -0.359375 0.421875 -1.09375l1.328125 0l-0.265625 4.5625l-12.859375 0l0 -0.75q0.671875 -1.640625 1.8125 -3.359375q1.140625 -1.71875 3.234375 -4.046875q1.8125 -2.0 2.609375 -3.03125q0.875 -1.125 1.296875 -1.9375q0.4375 -0.828125 0.625 -1.546875q0.1875 -0.7343712 0.1875 -1.4687462q0 -1.171875 -0.375 -2.0625q-0.375 -0.90625 -1.15625 -1.421875q-0.765625 -0.515625 -1.9375 -0.515625q-2.921875 0 -3.9375 3.25l-1.890625 0l0 -3.0q1.890625 -0.890625 3.53125 -1.28125q1.65625 -0.40625 2.96875 -0.40625q2.90625 0 4.390625 1.28125q1.484375 1.265625 1.484375 3.6875q0 0.828125 -0.171875 1.53125q-0.15625 0.6874962 -0.515625 1.3749962q-0.34375 0.671875 -0.9375 1.453125q-0.59375 0.78125 -1.3125 1.59375q-0.71875 0.796875 -2.484375 2.671875q-2.96875 3.140625 -4.359375 5.484375l5.890625 0z" fill-rule="nonzero"/><path fill="#cfe2f3" d="m301.16763 20.985884l92.05237 0l0 92.052376l-92.05237 0z" fill-rule="evenodd"/><path stroke="#000000" stroke-width="1.0" stroke-linejoin="round" stroke-linecap="butt" d="m301.16763 20.985884l92.05237 0l0 92.052376l-92.05237 0z" fill-rule="evenodd"/><path fill="#000000" d="m349.19382 74.653946q0 0.90625 0.09375 1.375q0.109375 0.453125 0.359375 0.75q0.265625 0.28125 0.75 0.453125q0.484375 0.15625 1.21875 0.25q0.734375 0.078125 1.9375 0.109375l0 1.140625l-11.546875 0l0 -1.140625q1.734375 -0.078125 2.46875 -0.203125q0.75 -0.140625 1.140625 -0.40625q0.390625 -0.265625 0.5625 -0.75q0.1875 -0.484375 0.1875 -1.578125l0 -12.671871q0 -0.625 -0.21875 -0.90625q-0.21875 -0.296875 -0.640625 -0.296875q-0.5 0 -1.421875 0.515625q-0.921875 0.515625 -2.28125 1.421875l-0.6875 -1.203125l7.3125 -4.359375l0.859375 0q-0.09375 1.5 -0.09375 4.15625l0 13.343746z" fill-rule="nonzero"/><path fill="#cfe2f3" d="m393.22 20.985884l92.0524 0l0 92.052376l-92.0524 0z" fill-rule="evenodd"/><path stroke="#000000" stroke-width="1.0" stroke-linejoin="round" stroke-linecap="butt" d="m393.22 20.985884l92.0524 0l0 92.052376l-92.0524 0z" fill-rule="evenodd"/><path fill="#000000" d="m438.44934 77.966446q0.96875 -0.25 1.296875 -0.546875q0.328125 -0.3125 0.421875 -0.875q0.109375 -0.5625 0.109375 -1.71875l0 -2.5625l-8.6875 0l0 -1.171875l9.140625 -13.796871l2.234375 0l0 13.453121l0.328125 0q0.90625 0 1.296875 -0.125q0.390625 -0.140625 0.640625 -0.46875q0.265625 -0.34375 0.484375 -1.109375l1.1875 0l-0.1875 3.21875l-3.75 0l0 2.5625q0 1.046875 0.0625 1.53125q0.078125 0.484375 0.234375 0.765625q0.171875 0.28125 0.484375 0.46875q0.328125 0.1875 1.046875 0.375l0 0.765625l-6.34375 0l0 -0.765625zm-4.28125 -7.21875l6.109375 0l0 -3.890625q0 -1.46875 0.046875 -3.2812462q0.046875 -1.828125 0.109375 -2.75l-0.15625 0l-6.109375 9.703121l0 0.21875z" fill-rule="nonzero"/><path fill="#cfe2f3" d="m25.010504 113.034706l92.052376 0l0 92.052376l-92.052376 0z" fill-rule="evenodd"/><path stroke="#000000" stroke-width="1.0" stroke-linejoin="round" stroke-linecap="butt" d="m25.010504 113.034706l92.052376 0l0 92.052376l-92.052376 0z" fill-rule="evenodd"/><path fill="#000000" d="m64.521065 169.92152l0 -3.3125l1.890625 0q0.46875 1.59375 1.40625 2.34375q0.953125 0.75 2.453125 0.75q2.078125 0 3.140625 -1.25q1.0625 -1.25 1.0625 -3.734375q0 -1.65625 -0.5625 -2.734375q-0.5625 -1.09375 -1.515625 -1.578125q-0.953125 -0.484375 -2.21875 -0.484375q-1.0625 0 -1.828125 0.140625q-0.765625 0.125 -1.640625 0.40625l-1.25 -0.734375l0 -10.28125l8.609375 0q0.53125 0 0.765625 -0.078125q0.234375 -0.09375 0.375 -0.265625q0.140625 -0.1875 0.328125 -0.6875l1.21875 0l-0.234375 3.625l-8.984375 0l0 6.859375q0.8125 -0.34375 1.765625 -0.515625q0.953125 -0.171875 1.90625 -0.171875q1.859375 0 3.296875 0.765625q1.4375 0.75 2.21875 2.15625q0.78125 1.390625 0.78125 3.234375q0 2.09375 -0.875 3.59375q-0.875 1.5 -2.53125 2.28125q-1.65625 0.78125 -3.921875 0.78125q-2.703125 0 -5.65625 -1.109375z" fill-rule="nonzero"/><path fill="#cfe2f3" d="m117.06288 113.034706l92.05238 0l0 92.052376l-92.05238 0z" fill-rule="evenodd"/><path stroke="#000000" stroke-width="1.0" stroke-linejoin="round" stroke-linecap="butt" d="m117.06288 113.034706l92.05238 0l0 92.052376l-92.05238 0z" fill-rule="evenodd"/><path fill="#000000" d="m165.19844 168.2809q0.765625 0 1.234375 -0.09375q0.46875 -0.09375 0.75 -0.3125q0.28125 -0.21875 0.4375 -0.5625q0.171875 -0.359375 0.421875 -1.09375l1.328125 0l-0.265625 4.5625l-12.859375 0l0 -0.75q0.671875 -1.640625 1.8125 -3.359375q1.140625 -1.71875 3.234375 -4.046875q1.8125 -2.0 2.609375 -3.03125q0.875 -1.125 1.296875 -1.9375q0.4375 -0.828125 0.625 -1.546875q0.1875 -0.734375 0.1875 -1.46875q0 -1.171875 -0.375 -2.0625q-0.375 -0.90625 -1.15625 -1.421875q-0.765625 -0.515625 -1.9375 -0.515625q-2.921875 0 -3.9375 3.25l-1.890625 0l0 -3.0q1.890625 -0.890625 3.53125 -1.28125q1.65625 -0.40625 2.96875 -0.40625q2.90625 0 4.390625 1.28125q1.484375 1.265625 1.484375 3.6875q0 0.828125 -0.171875 1.53125q-0.15625 0.6875 -0.515625 1.375q-0.34375 0.671875 -0.9375 1.453125q-0.59375 0.78125 -1.3125 1.59375q-0.71875 0.796875 -2.484375 2.671875q-2.96875 3.140625 -4.359375 5.484375l5.890625 0z" fill-rule="nonzero"/><path fill="#cfe2f3" d="m209.11526 113.034706l92.05237 0l0 92.052376l-92.05237 0z" fill-rule="evenodd"/><path stroke="#000000" stroke-width="1.0" stroke-linejoin="round" stroke-linecap="butt" d="m209.11526 113.034706l92.05237 0l0 92.052376l-92.05237 0z" fill-rule="evenodd"/><path fill="#000000" d="m248.76645 153.87465l0 -2.96875q1.8125 -0.859375 3.390625 -1.28125q1.578125 -0.421875 3.046875 -0.421875q1.765625 0 3.09375 0.546875q1.328125 0.546875 2.03125 1.578125q0.703125 1.015625 0.703125 2.4375q0 1.328125 -0.53125 2.34375q-0.53125 1.0 -1.5 1.75q-0.953125 0.75 -2.484375 1.46875l0 0.140625q0.953125 0.171875 1.828125 0.59375q0.890625 0.40625 1.578125 1.0625q0.6875 0.65625 1.09375 1.578125q0.421875 0.90625 0.421875 2.078125q0 1.8125 -0.796875 3.21875q-0.78125 1.40625 -2.40625 2.21875q-1.625 0.8125 -3.953125 0.8125q-1.34375 0 -2.90625 -0.296875q-1.546875 -0.3125 -2.84375 -0.8125l0 -3.3125l1.875 0q0.546875 1.625 1.4375 2.359375q0.90625 0.734375 2.453125 0.734375q2.03125 0 3.0625 -1.109375q1.046875 -1.109375 1.046875 -3.28125q0 -2.28125 -1.375 -3.484375q-1.375 -1.203125 -4.03125 -1.203125l-1.40625 0l0 -1.375q2.109375 -0.125 3.546875 -0.8125q1.453125 -0.6875 2.15625 -1.765625q0.703125 -1.078125 0.703125 -2.421875q0 -1.734375 -0.921875 -2.671875q-0.921875 -0.9375 -2.6875 -0.9375q-1.46875 0 -2.390625 0.796875q-0.921875 0.796875 -1.359375 2.4375l-1.875 0z" fill-rule="nonzero"/><path fill="#cfe2f3" d="m301.16763 113.034706l92.05237 0l0 92.052376l-92.05237 0z" fill-rule="evenodd"/><path stroke="#000000" stroke-width="1.0" stroke-linejoin="round" stroke-linecap="butt" d="m301.16763 113.034706l92.05237 0l0 92.052376l-92.05237 0z" fill-rule="evenodd"/><path fill="#000000" d="m349.19382 166.70277q0 0.90625 0.09375 1.375q0.109375 0.453125 0.359375 0.75q0.265625 0.28125 0.75 0.453125q0.484375 0.15625 1.21875 0.25q0.734375 0.078125 1.9375 0.109375l0 1.140625l-11.546875 0l0 -1.140625q1.734375 -0.078125 2.46875 -0.203125q0.75 -0.140625 1.140625 -0.40625q0.390625 -0.265625 0.5625 -0.75q0.1875 -0.484375 0.1875 -1.578125l0 -12.671875q0 -0.625 -0.21875 -0.90625q-0.21875 -0.296875 -0.640625 -0.296875q-0.5 0 -1.421875 0.515625q-0.921875 0.515625 -2.28125 1.421875l-0.6875 -1.203125l7.3125 -4.359375l0.859375 0q-0.09375 1.5 -0.09375 4.15625l0 13.34375z" fill-rule="nonzero"/><path fill="#cfe2f3" d="m393.22 113.034706l92.0524 0l0 92.052376l-92.0524 0z" fill-rule="evenodd"/><path stroke="#000000" stroke-width="1.0" stroke-linejoin="round" stroke-linecap="butt" d="m393.22 113.034706l92.0524 0l0 92.052376l-92.0524 0z" fill-rule="evenodd"/><path fill="#000000" d="m446.4181 150.20277l-9.09375 20.6875l-2.265625 0l0 -0.765625l8.421875 -17.828125l0 -0.234375l-6.875 0q-0.640625 0 -1.03125 0.125q-0.375 0.109375 -0.640625 0.328125q-0.25 0.21875 -0.421875 0.578125q-0.171875 0.359375 -0.46875 1.421875l-1.34375 0l0.3125 -5.0625l13.40625 0l0 0.75z" fill-rule="nonzero"/><path fill="#cfe2f3" d="m25.010504 205.08353l92.052376 0l0 92.05237l-92.052376 0z" fill-rule="evenodd"/><path stroke="#000000" stroke-width="1.0" stroke-linejoin="round" stroke-linecap="butt" d="m25.010504 205.08353l92.052376 0l0 92.05237l-92.052376 0z" fill-rule="evenodd"/><path fill="#000000" d="m70.239815 262.0641q0.96875 -0.25 1.296875 -0.546875q0.328125 -0.3125 0.421875 -0.875q0.109375 -0.5625 0.109375 -1.71875l0 -2.5625l-8.6875 0l0 -1.171875l9.140625 -13.796875l2.234375 0l0 13.453125l0.328125 0q0.90625 0 1.296875 -0.125q0.390625 -0.140625 0.640625 -0.46875q0.265625 -0.34375 0.484375 -1.109375l1.1875 0l-0.1875 3.21875l-3.75 0l0 2.5625q0 1.046875 0.0625 1.53125q0.078125 0.484375 0.234375 0.765625q0.171875 0.28125 0.484375 0.46875q0.328125 0.1875 1.046875 0.375l0 0.765625l-6.34375 0l0 -0.765625zm-4.28125 -7.21875l6.109375 0l0 -3.890625q0 -1.46875 0.046875 -3.28125q0.046875 -1.828125 0.109375 -2.75l-0.15625 0l-6.109375 9.703125l0 0.21875z" fill-rule="nonzero"/><path fill="#cfe2f3" d="m117.06288 205.08353l92.05238 0l0 92.05237l-92.05238 0z" fill-rule="evenodd"/><path stroke="#000000" stroke-width="1.0" stroke-linejoin="round" stroke-linecap="butt" d="m117.06288 205.08353l92.05238 0l0 92.05237l-92.05238 0z" fill-rule="evenodd"/><path fill="#000000" d="m156.57344 261.97034l0 -3.3125l1.890625 0q0.46875 1.59375 1.40625 2.34375q0.953125 0.75 2.453125 0.75q2.078125 0 3.140625 -1.25q1.0625 -1.25 1.0625 -3.734375q0 -1.65625 -0.5625 -2.734375q-0.5625 -1.09375 -1.515625 -1.578125q-0.953125 -0.484375 -2.21875 -0.484375q-1.0625 0 -1.828125 0.140625q-0.765625 0.125 -1.640625 0.40625l-1.25 -0.734375l0 -10.28125l8.609375 0q0.53125 0 0.765625 -0.078125q0.234375 -0.09375 0.375 -0.265625q0.140625 -0.1875 0.328125 -0.6875l1.21875 0l-0.234375 3.625l-8.984375 0l0 6.859375q0.8125 -0.34375 1.765625 -0.515625q0.953125 -0.171875 1.90625 -0.171875q1.859375 0 3.296875 0.765625q1.4375 0.75 2.21875 2.15625q0.78125 1.390625 0.78125 3.234375q0 2.09375 -0.875 3.59375q-0.875 1.5 -2.53125 2.28125q-1.65625 0.78125 -3.921875 0.78125q-2.703125 0 -5.65625 -1.109375z" fill-rule="nonzero"/><path fill="#cfe2f3" d="m209.11526 205.08353l92.05237 0l0 92.05237l-92.05237 0z" fill-rule="evenodd"/><path stroke="#000000" stroke-width="1.0" stroke-linejoin="round" stroke-linecap="butt" d="m209.11526 205.08353l92.05237 0l0 92.05237l-92.05237 0z" fill-rule="evenodd"/><path fill="#000000" d="m260.51645 242.11096l0 0.765625q-2.40625 0 -4.265625 1.03125q-1.859375 1.03125 -3.09375 3.03125q-1.21875 2.0 -1.71875 4.75l0.15625 0.0625q1.3125 -0.9375 2.578125 -1.375q1.28125 -0.4375 2.765625 -0.4375q1.765625 0 3.0 0.78125q1.25 0.765625 1.875 2.171875q0.625 1.390625 0.625 3.265625q0 2.03125 -0.78125 3.59375q-0.78125 1.546875 -2.421875 2.4375q-1.625 0.890625 -4.015625 0.890625q-3.421875 0 -5.171875 -2.125q-1.734375 -2.125 -1.734375 -6.265625q0 -2.78125 0.875 -5.203125q0.875 -2.421875 2.484375 -4.21875q1.609375 -1.8125 3.734375 -2.84375q2.125 -1.046875 4.46875 -1.171875l0.640625 0.859375zm-4.65625 9.46875q-0.765625 0 -1.484375 0.171875q-0.703125 0.171875 -1.328125 0.5q-0.625 0.328125 -1.21875 0.828125q-0.1875 0.171875 -0.28125 0.359375q-0.15625 0.296875 -0.203125 0.734375q-0.046875 0.4375 -0.046875 1.46875q0 2.984375 1.0 4.546875q1.0 1.5625 3.03125 1.5625q1.171875 0 1.96875 -0.40625q0.796875 -0.40625 1.28125 -1.109375q0.5 -0.71875 0.703125 -1.671875q0.21875 -0.96875 0.21875 -2.09375q0 -2.3125 -0.953125 -3.59375q-0.953125 -1.296875 -2.6875 -1.296875z" fill-rule="nonzero"/><path fill="#cfe2f3" d="m301.16763 205.08353l92.05237 0l0 92.05237l-92.05237 0z" fill-rule="evenodd"/><path stroke="#000000" stroke-width="1.0" stroke-linejoin="round" stroke-linecap="butt" d="m301.16763 205.08353l92.05237 0l0 92.05237l-92.05237 0z" fill-rule="evenodd"/><path fill="#000000" d="m340.6782 261.97034l0 -3.3125l1.890625 0q0.46875 1.59375 1.40625 2.34375q0.953125 0.75 2.453125 0.75q2.078125 0 3.140625 -1.25q1.0625 -1.25 1.0625 -3.734375q0 -1.65625 -0.5625 -2.734375q-0.5625 -1.09375 -1.515625 -1.578125q-0.953125 -0.484375 -2.21875 -0.484375q-1.0625 0 -1.828125 0.140625q-0.765625 0.125 -1.640625 0.40625l-1.25 -0.734375l0 -10.28125l8.609375 0q0.53125 0 0.765625 -0.078125q0.234375 -0.09375 0.375 -0.265625q0.140625 -0.1875 0.328125 -0.6875l1.21875 0l-0.234375 3.625l-8.984375 0l0 6.859375q0.8125 -0.34375 1.765625 -0.515625q0.953125 -0.171875 1.90625 -0.171875q1.859375 0 3.296875 0.765625q1.4375 0.75 2.21875 2.15625q0.78125 1.390625 0.78125 3.234375q0 2.09375 -0.875 3.59375q-0.875 1.5 -2.53125 2.28125q-1.65625 0.78125 -3.921875 0.78125q-2.703125 0 -5.65625 -1.109375z" fill-rule="nonzero"/><path fill="#cfe2f3" d="m393.22 205.08353l92.0524 0l0 92.05237l-92.0524 0z" fill-rule="evenodd"/><path stroke="#000000" stroke-width="1.0" stroke-linejoin="round" stroke-linecap="butt" d="m393.22 205.08353l92.0524 0l0 92.05237l-92.0524 0z" fill-rule="evenodd"/><path fill="#000000" d="m432.87122 245.92346l0 -2.96875q1.8125 -0.859375 3.390625 -1.28125q1.578125 -0.421875 3.046875 -0.421875q1.765625 0 3.09375 0.546875q1.328125 0.546875 2.03125 1.578125q0.703125 1.015625 0.703125 2.4375q0 1.328125 -0.53125 2.34375q-0.53125 1.0 -1.5 1.75q-0.953125 0.75 -2.484375 1.46875l0 0.140625q0.953125 0.171875 1.828125 0.59375q0.890625 0.40625 1.578125 1.0625q0.6875 0.65625 1.09375 1.578125q0.421875 0.90625 0.421875 2.078125q0 1.8125 -0.796875 3.21875q-0.78125 1.40625 -2.40625 2.21875q-1.625 0.8125 -3.953125 0.8125q-1.34375 0 -2.90625 -0.296875q-1.546875 -0.3125 -2.84375 -0.8125l0 -3.3125l1.875 0q0.546875 1.625 1.4375 2.359375q0.90625 0.734375 2.453125 0.734375q2.03125 0 3.0625 -1.109375q1.046875 -1.109375 1.046875 -3.28125q0 -2.28125 -1.375 -3.484375q-1.375 -1.203125 -4.03125 -1.203125l-1.40625 0l0 -1.375q2.109375 -0.125 3.546875 -0.8125q1.453125 -0.6875 2.15625 -1.765625q0.703125 -1.078125 0.703125 -2.421875q0 -1.734375 -0.921875 -2.671875q-0.921875 -0.9375 -2.6875 -0.9375q-1.46875 0 -2.390625 0.796875q-0.921875 0.796875 -1.359375 2.4375l-1.875 0z" fill-rule="nonzero"/><path fill="#cfe2f3" d="m25.010504 297.13235l92.052376 0l0 92.05237l-92.052376 0z" fill-rule="evenodd"/><path stroke="#000000" stroke-width="1.0" stroke-linejoin="round" stroke-linecap="butt" d="m25.010504 297.13235l92.052376 0l0 92.05237l-92.052376 0z" fill-rule="evenodd"/><path fill="#000000" d="m70.239815 354.1129q0.96875 -0.25 1.296875 -0.546875q0.328125 -0.3125 0.421875 -0.875q0.109375 -0.5625 0.109375 -1.71875l0 -2.5625l-8.6875 0l0 -1.171875l9.140625 -13.796875l2.234375 0l0 13.453125l0.328125 0q0.90625 0 1.296875 -0.125q0.390625 -0.140625 0.640625 -0.46875q0.265625 -0.34375 0.484375 -1.109375l1.1875 0l-0.1875 3.21875l-3.75 0l0 2.5625q0 1.046875 0.0625 1.53125q0.078125 0.484375 0.234375 0.765625q0.171875 0.28125 0.484375 0.46875q0.328125 0.1875 1.046875 0.375l0 0.765625l-6.34375 0l0 -0.765625zm-4.28125 -7.21875l6.109375 0l0 -3.890625q0 -1.46875 0.046875 -3.28125q0.046875 -1.828125 0.109375 -2.75l-0.15625 0l-6.109375 9.703125l0 0.21875z" fill-rule="nonzero"/><path fill="#cfe2f3" d="m117.06288 297.13235l92.05238 0l0 92.05237l-92.05238 0z" fill-rule="evenodd"/><path stroke="#000000" stroke-width="1.0" stroke-linejoin="round" stroke-linecap="butt" d="m117.06288 297.13235l92.05238 0l0 92.05237l-92.05238 0z" fill-rule="evenodd"/><path fill="#000000" d="m156.71407 337.9723l0 -2.96875q1.8125 -0.859375 3.390625 -1.28125q1.578125 -0.421875 3.046875 -0.421875q1.765625 0 3.09375 0.546875q1.328125 0.546875 2.03125 1.578125q0.703125 1.015625 0.703125 2.4375q0 1.328125 -0.53125 2.34375q-0.53125 1.0 -1.5 1.75q-0.953125 0.75 -2.484375 1.46875l0 0.140625q0.953125 0.171875 1.828125 0.59375q0.890625 0.40625 1.578125 1.0625q0.6875 0.65625 1.09375 1.578125q0.421875 0.90625 0.421875 2.078125q0 1.8125 -0.796875 3.21875q-0.78125 1.40625 -2.40625 2.21875q-1.625 0.8125 -3.953125 0.8125q-1.34375 0 -2.90625 -0.296875q-1.546875 -0.3125 -2.84375 -0.8125l0 -3.3125l1.875 0q0.546875 1.625 1.4375 2.359375q0.90625 0.734375 2.453125 0.734375q2.03125 0 3.0625 -1.109375q1.046875 -1.109375 1.046875 -3.28125q0 -2.28125 -1.375 -3.484375q-1.375 -1.203125 -4.03125 -1.203125l-1.40625 0l0 -1.375q2.109375 -0.125 3.546875 -0.8125q1.453125 -0.6875 2.15625 -1.765625q0.703125 -1.078125 0.703125 -2.421875q0 -1.734375 -0.921875 -2.671875q-0.921875 -0.9375 -2.6875 -0.9375q-1.46875 0 -2.390625 0.796875q-0.921875 0.796875 -1.359375 2.4375l-1.875 0z" fill-rule="nonzero"/><path fill="#cfe2f3" d="m209.11526 297.13235l92.05237 0l0 92.05237l-92.05237 0z" fill-rule="evenodd"/><path stroke="#000000" stroke-width="1.0" stroke-linejoin="round" stroke-linecap="butt" d="m209.11526 297.13235l92.05237 0l0 92.05237l-92.05237 0z" fill-rule="evenodd"/><path fill="#000000" d="m257.25082 352.37854q0.765625 0 1.234375 -0.09375q0.46875 -0.09375 0.75 -0.3125q0.28125 -0.21875 0.4375 -0.5625q0.171875 -0.359375 0.421875 -1.09375l1.328125 0l-0.265625 4.5625l-12.859375 0l0 -0.75q0.671875 -1.640625 1.8125 -3.359375q1.140625 -1.71875 3.234375 -4.046875q1.8125 -2.0 2.609375 -3.03125q0.875 -1.125 1.296875 -1.9375q0.4375 -0.828125 0.625 -1.546875q0.1875 -0.734375 0.1875 -1.46875q0 -1.171875 -0.375 -2.0625q-0.375 -0.90625 -1.15625 -1.421875q-0.765625 -0.515625 -1.9375 -0.515625q-2.921875 0 -3.9375 3.25l-1.890625 0l0 -3.0q1.890625 -0.890625 3.53125 -1.28125q1.65625 -0.40625 2.96875 -0.40625q2.90625 0 4.390625 1.28125q1.484375 1.265625 1.484375 3.6875q0 0.828125 -0.171875 1.53125q-0.15625 0.6875 -0.515625 1.375q-0.34375 0.671875 -0.9375 1.453125q-0.59375 0.78125 -1.3125 1.59375q-0.71875 0.796875 -2.484375 2.671875q-2.96875 3.140625 -4.359375 5.484375l5.890625 0z" fill-rule="nonzero"/><path fill="#cfe2f3" d="m301.16763 297.13235l92.05237 0l0 92.05237l-92.05237 0z" fill-rule="evenodd"/><path stroke="#000000" stroke-width="1.0" stroke-linejoin="round" stroke-linecap="butt" d="m301.16763 297.13235l92.05237 0l0 92.05237l-92.05237 0z" fill-rule="evenodd"/><path fill="#000000" d="m354.3657 334.3004l-9.09375 20.6875l-2.265625 0l0 -0.765625l8.421875 -17.828125l0 -0.234375l-6.875 0q-0.640625 0 -1.03125 0.125q-0.375 0.109375 -0.640625 0.328125q-0.25 0.21875 -0.421875 0.578125q-0.171875 0.359375 -0.46875 1.421875l-1.34375 0l0.3125 -5.0625l13.40625 0l0 0.75z" fill-rule="nonzero"/><path fill="#cfe2f3" d="m393.22 297.13235l92.0524 0l0 92.05237l-92.0524 0z" fill-rule="evenodd"/><path stroke="#000000" stroke-width="1.0" stroke-linejoin="round" stroke-linecap="butt" d="m393.22 297.13235l92.0524 0l0 92.05237l-92.0524 0z" fill-rule="evenodd"/><path fill="#000000" d="m438.44934 354.1129q0.96875 -0.25 1.296875 -0.546875q0.328125 -0.3125 0.421875 -0.875q0.109375 -0.5625 0.109375 -1.71875l0 -2.5625l-8.6875 0l0 -1.171875l9.140625 -13.796875l2.234375 0l0 13.453125l0.328125 0q0.90625 0 1.296875 -0.125q0.390625 -0.140625 0.640625 -0.46875q0.265625 -0.34375 0.484375 -1.109375l1.1875 0l-0.1875 3.21875l-3.75 0l0 2.5625q0 1.046875 0.0625 1.53125q0.078125 0.484375 0.234375 0.765625q0.171875 0.28125 0.484375 0.46875q0.328125 0.1875 1.046875 0.375l0 0.765625l-6.34375 0l0 -0.765625zm-4.28125 -7.21875l6.109375 0l0 -3.890625q0 -1.46875 0.046875 -3.28125q0.046875 -1.828125 0.109375 -2.75l-0.15625 0l-6.109375 9.703125l0 0.21875z" fill-rule="nonzero"/><path fill="#cfe2f3" d="m25.010504 389.18115l92.052376 0l0 92.0524l-92.052376 0z" fill-rule="evenodd"/><path stroke="#000000" stroke-width="1.0" stroke-linejoin="round" stroke-linecap="butt" d="m25.010504 389.18115l92.052376 0l0 92.0524l-92.052376 0z" fill-rule="evenodd"/><path fill="#000000" d="m64.521065 446.06796l0 -3.3125l1.890625 0q0.46875 1.59375 1.40625 2.34375q0.953125 0.75 2.453125 0.75q2.078125 0 3.140625 -1.25q1.0625 -1.25 1.0625 -3.734375q0 -1.65625 -0.5625 -2.734375q-0.5625 -1.09375 -1.515625 -1.578125q-0.953125 -0.484375 -2.21875 -0.484375q-1.0625 0 -1.828125 0.140625q-0.765625 0.125 -1.640625 0.40625l-1.25 -0.734375l0 -10.28125l8.609375 0q0.53125 0 0.765625 -0.078125q0.234375 -0.09375 0.375 -0.265625q0.140625 -0.1875 0.328125 -0.6875l1.21875 0l-0.234375 3.625l-8.984375 0l0 6.859375q0.8125 -0.34375 1.765625 -0.515625q0.953125 -0.171875 1.90625 -0.171875q1.859375 0 3.296875 0.765625q1.4375 0.75 2.21875 2.15625q0.78125 1.390625 0.78125 3.234375q0 2.09375 -0.875 3.59375q-0.875 1.5 -2.53125 2.28125q-1.65625 0.78125 -3.921875 0.78125q-2.703125 0 -5.65625 -1.109375z" fill-rule="nonzero"/><path fill="#cfe2f3" d="m117.06288 389.18115l92.05238 0l0 92.0524l-92.05238 0z" fill-rule="evenodd"/><path stroke="#000000" stroke-width="1.0" stroke-linejoin="round" stroke-linecap="butt" d="m117.06288 389.18115l92.05238 0l0 92.0524l-92.05238 0z" fill-rule="evenodd"/><path fill="#000000" d="m165.19844 444.42734q0.765625 0 1.234375 -0.09375q0.46875 -0.09375 0.75 -0.3125q0.28125 -0.21875 0.4375 -0.5625q0.171875 -0.359375 0.421875 -1.09375l1.328125 0l-0.265625 4.5625l-12.859375 0l0 -0.75q0.671875 -1.640625 1.8125 -3.359375q1.140625 -1.71875 3.234375 -4.046875q1.8125 -2.0 2.609375 -3.03125q0.875 -1.125 1.296875 -1.9375q0.4375 -0.828125 0.625 -1.546875q0.1875 -0.734375 0.1875 -1.46875q0 -1.171875 -0.375 -2.0625q-0.375 -0.90625 -1.15625 -1.421875q-0.765625 -0.515625 -1.9375 -0.515625q-2.921875 0 -3.9375 3.25l-1.890625 0l0 -3.0q1.890625 -0.890625 3.53125 -1.28125q1.65625 -0.40625 2.96875 -0.40625q2.90625 0 4.390625 1.28125q1.484375 1.265625 1.484375 3.6875q0 0.828125 -0.171875 1.53125q-0.15625 0.6875 -0.515625 1.375q-0.34375 0.671875 -0.9375 1.453125q-0.59375 0.78125 -1.3125 1.59375q-0.71875 0.796875 -2.484375 2.671875q-2.96875 3.140625 -4.359375 5.484375l5.890625 0z" fill-rule="nonzero"/><path fill="#cfe2f3" d="m209.11526 389.18115l92.05237 0l0 92.0524l-92.05237 0z" fill-rule="evenodd"/><path stroke="#000000" stroke-width="1.0" stroke-linejoin="round" stroke-linecap="butt" d="m209.11526 389.18115l92.05237 0l0 92.0524l-92.05237 0z" fill-rule="evenodd"/><path fill="#000000" d="m257.14145 442.8492q0 0.90625 0.09375 1.375q0.109375 0.453125 0.359375 0.75q0.265625 0.28125 0.75 0.453125q0.484375 0.15625 1.21875 0.25q0.734375 0.078125 1.9375 0.109375l0 1.140625l-11.546875 0l0 -1.140625q1.734375 -0.078125 2.46875 -0.203125q0.75 -0.140625 1.140625 -0.40625q0.390625 -0.265625 0.5625 -0.75q0.1875 -0.484375 0.1875 -1.578125l0 -12.671875q0 -0.625 -0.21875 -0.90625q-0.21875 -0.296875 -0.640625 -0.296875q-0.5 0 -1.421875 0.515625q-0.921875 0.515625 -2.28125 1.421875l-0.6875 -1.203125l7.3125 -4.359375l0.859375 0q-0.09375 1.5 -0.09375 4.15625l0 13.34375z" fill-rule="nonzero"/><path fill="#cfe2f3" d="m301.16763 389.18115l92.05237 0l0 92.0524l-92.05237 0z" fill-rule="evenodd"/><path stroke="#000000" stroke-width="1.0" stroke-linejoin="round" stroke-linecap="butt" d="m301.16763 389.18115l92.05237 0l0 92.0524l-92.05237 0z" fill-rule="evenodd"/><path fill="#000000" d="m349.3032 444.42734q0.765625 0 1.234375 -0.09375q0.46875 -0.09375 0.75 -0.3125q0.28125 -0.21875 0.4375 -0.5625q0.171875 -0.359375 0.421875 -1.09375l1.328125 0l-0.265625 4.5625l-12.859375 0l0 -0.75q0.671875 -1.640625 1.8125 -3.359375q1.140625 -1.71875 3.234375 -4.046875q1.8125 -2.0 2.609375 -3.03125q0.875 -1.125 1.296875 -1.9375q0.4375 -0.828125 0.625 -1.546875q0.1875 -0.734375 0.1875 -1.46875q0 -1.171875 -0.375 -2.0625q-0.375 -0.90625 -1.15625 -1.421875q-0.765625 -0.515625 -1.9375 -0.515625q-2.921875 0 -3.9375 3.25l-1.890625 0l0 -3.0q1.890625 -0.890625 3.53125 -1.28125q1.65625 -0.40625 2.96875 -0.40625q2.90625 0 4.390625 1.28125q1.484375 1.265625 1.484375 3.6875q0 0.828125 -0.171875 1.53125q-0.15625 0.6875 -0.515625 1.375q-0.34375 0.671875 -0.9375 1.453125q-0.59375 0.78125 -1.3125 1.59375q-0.71875 0.796875 -2.484375 2.671875q-2.96875 3.140625 -4.359375 5.484375l5.890625 0z" fill-rule="nonzero"/><path fill="#cfe2f3" d="m393.22 389.18115l92.0524 0l0 92.0524l-92.0524 0z" fill-rule="evenodd"/><path stroke="#000000" stroke-width="1.0" stroke-linejoin="round" stroke-linecap="butt" d="m393.22 389.18115l92.0524 0l0 92.0524l-92.0524 0z" fill-rule="evenodd"/><path fill="#000000" d="m441.24622 442.8492q0 0.90625 0.09375 1.375q0.109375 0.453125 0.359375 0.75q0.265625 0.28125 0.75 0.453125q0.484375 0.15625 1.21875 0.25q0.734375 0.078125 1.9375 0.109375l0 1.140625l-11.546875 0l0 -1.140625q1.734375 -0.078125 2.46875 -0.203125q0.75 -0.140625 1.140625 -0.40625q0.390625 -0.265625 0.5625 -0.75q0.1875 -0.484375 0.1875 -1.578125l0 -12.671875q0 -0.625 -0.21875 -0.90625q-0.21875 -0.296875 -0.640625 -0.296875q-0.5 0 -1.421875 0.515625q-0.921875 0.515625 -2.28125 1.421875l-0.6875 -1.203125l7.3125 -4.359375l0.859375 0q-0.09375 1.5 -0.09375 4.15625l0 13.34375z" fill-rule="nonzero"/><path fill="#cfe2f3" d="m25.010504 481.2284l92.052376 0l0 92.05237l-92.052376 0z" fill-rule="evenodd"/><path stroke="#000000" stroke-width="1.0" stroke-linejoin="round" stroke-linecap="butt" d="m25.010504 481.2284l92.052376 0l0 92.05237l-92.052376 0z" fill-rule="evenodd"/><path fill="#000000" d="m64.66169 522.06836l0 -2.96875q1.8125 -0.859375 3.390625 -1.28125q1.578125 -0.421875 3.046875 -0.421875q1.765625 0 3.09375 0.546875q1.328125 0.546875 2.03125 1.578125q0.703125 1.015625 0.703125 2.4375q0 1.328125 -0.53125 2.34375q-0.53125 1.0 -1.5 1.75q-0.953125 0.75 -2.484375 1.46875l0 0.140625q0.953125 0.171875 1.828125 0.59375q0.890625 0.40625 1.578125 1.0625q0.6875 0.65625 1.09375 1.578125q0.421875 0.90625 0.421875 2.078125q0 1.8125 -0.796875 3.21875q-0.78125 1.40625 -2.40625 2.21875q-1.625 0.8125 -3.953125 0.8125q-1.34375 0 -2.90625 -0.296875q-1.546875 -0.3125 -2.84375 -0.8125l0 -3.3125l1.875 0q0.546875 1.625 1.4375 2.359375q0.90625 0.734375 2.453125 0.734375q2.03125 0 3.0625 -1.109375q1.046875 -1.109375 1.046875 -3.28125q0 -2.28125 -1.375 -3.484375q-1.375 -1.203125 -4.03125 -1.203125l-1.40625 0l0 -1.375q2.109375 -0.125 3.546875 -0.8125q1.453125 -0.6875 2.15625 -1.765625q0.703125 -1.078125 0.703125 -2.421875q0 -1.734375 -0.921875 -2.671875q-0.921875 -0.9375 -2.6875 -0.9375q-1.46875 0 -2.390625 0.796875q-0.921875 0.796875 -1.359375 2.4375l-1.875 0z" fill-rule="nonzero"/><path fill="#cfe2f3" d="m117.06288 481.2284l92.05238 0l0 92.05237l-92.05238 0z" fill-rule="evenodd"/><path stroke="#000000" stroke-width="1.0" stroke-linejoin="round" stroke-linecap="butt" d="m117.06288 481.2284l92.05238 0l0 92.05237l-92.05238 0z" fill-rule="evenodd"/><path fill="#000000" d="m156.57344 538.11523l0 -3.3125l1.890625 0q0.46875 1.59375 1.40625 2.34375q0.953125 0.75 2.453125 0.75q2.078125 0 3.140625 -1.25q1.0625 -1.25 1.0625 -3.734375q0 -1.65625 -0.5625 -2.734375q-0.5625 -1.09375 -1.515625 -1.578125q-0.953125 -0.484375 -2.21875 -0.484375q-1.0625 0 -1.828125 0.140625q-0.765625 0.125 -1.640625 0.40625l-1.25 -0.734375l0 -10.28125l8.609375 0q0.53125 0 0.765625 -0.078125q0.234375 -0.09375 0.375 -0.265625q0.140625 -0.1875 0.328125 -0.6875l1.21875 0l-0.234375 3.625l-8.984375 0l0 6.859375q0.8125 -0.34375 1.765625 -0.515625q0.953125 -0.171875 1.90625 -0.171875q1.859375 0 3.296875 0.765625q1.4375 0.75 2.21875 2.15625q0.78125 1.390625 0.78125 3.234375q0 2.09375 -0.875 3.59375q-0.875 1.5 -2.53125 2.28125q-1.65625 0.78125 -3.921875 0.78125q-2.703125 0 -5.65625 -1.109375z" fill-rule="nonzero"/><path fill="#cfe2f3" d="m209.11526 481.2284l92.05237 0l0 92.05237l-92.05237 0z" fill-rule="evenodd"/><path stroke="#000000" stroke-width="1.0" stroke-linejoin="round" stroke-linecap="butt" d="m209.11526 481.2284l92.05237 0l0 92.05237l-92.05237 0z" fill-rule="evenodd"/><path fill="#000000" d="m257.14145 534.8965q0 0.90625 0.09375 1.375q0.109375 0.453125 0.359375 0.75q0.265625 0.28125 0.75 0.453125q0.484375 0.15625 1.21875 0.25q0.734375 0.078125 1.9375 0.109375l0 1.140625l-11.546875 0l0 -1.140625q1.734375 -0.078125 2.46875 -0.203125q0.75 -0.140625 1.140625 -0.40625q0.390625 -0.265625 0.5625 -0.75q0.1875 -0.484375 0.1875 -1.578125l0 -12.671875q0 -0.625 -0.21875 -0.90625q-0.21875 -0.296875 -0.640625 -0.296875q-0.5 0 -1.421875 0.515625q-0.921875 0.515625 -2.28125 1.421875l-0.6875 -1.203125l7.3125 -4.359375l0.859375 0q-0.09375 1.5 -0.09375 4.15625l0 13.34375z" fill-rule="nonzero"/><path fill="#cfe2f3" d="m301.16763 481.2284l92.05237 0l0 92.05237l-92.05237 0z" fill-rule="evenodd"/><path stroke="#000000" stroke-width="1.0" stroke-linejoin="round" stroke-linecap="butt" d="m301.16763 481.2284l92.05237 0l0 92.05237l-92.05237 0z" fill-rule="evenodd"/><path fill="#000000" d="m352.56882 518.25586l0 0.765625q-2.40625 0 -4.265625 1.03125q-1.859375 1.03125 -3.09375 3.03125q-1.21875 2.0 -1.71875 4.75l0.15625 0.0625q1.3125 -0.9375 2.578125 -1.375q1.28125 -0.4375 2.765625 -0.4375q1.765625 0 3.0 0.78125q1.25 0.765625 1.875 2.171875q0.625 1.390625 0.625 3.265625q0 2.03125 -0.78125 3.59375q-0.78125 1.546875 -2.421875 2.4375q-1.625 0.890625 -4.015625 0.890625q-3.421875 0 -5.171875 -2.125q-1.734375 -2.125 -1.734375 -6.265625q0 -2.78125 0.875 -5.203125q0.875 -2.421875 2.484375 -4.21875q1.609375 -1.8125 3.734375 -2.84375q2.125 -1.046875 4.46875 -1.171875l0.640625 0.859375zm-4.65625 9.46875q-0.765625 0 -1.484375 0.171875q-0.703125 0.171875 -1.328125 0.5q-0.625 0.328125 -1.21875 0.828125q-0.1875 0.171875 -0.28125 0.359375q-0.15625 0.296875 -0.203125 0.734375q-0.046875 0.4375 -0.046875 1.46875q0 2.984375 1.0 4.546875q1.0 1.5625 3.03125 1.5625q1.171875 0 1.96875 -0.40625q0.796875 -0.40625 1.28125 -1.109375q0.5 -0.71875 0.703125 -1.671875q0.21875 -0.96875 0.21875 -2.09375q0 -2.3125 -0.953125 -3.59375q-0.953125 -1.296875 -2.6875 -1.296875z" fill-rule="nonzero"/><path fill="#cfe2f3" d="m393.22 481.2284l92.0524 0l0 92.05237l-92.0524 0z" fill-rule="evenodd"/><path stroke="#000000" stroke-width="1.0" stroke-linejoin="round" stroke-linecap="butt" d="m393.22 481.2284l92.0524 0l0 92.05237l-92.0524 0z" fill-rule="evenodd"/><path fill="#000000" d="m432.87122 522.06836l0 -2.96875q1.8125 -0.859375 3.390625 -1.28125q1.578125 -0.421875 3.046875 -0.421875q1.765625 0 3.09375 0.546875q1.328125 0.546875 2.03125 1.578125q0.703125 1.015625 0.703125 2.4375q0 1.328125 -0.53125 2.34375q-0.53125 1.0 -1.5 1.75q-0.953125 0.75 -2.484375 1.46875l0 0.140625q0.953125 0.171875 1.828125 0.59375q0.890625 0.40625 1.578125 1.0625q0.6875 0.65625 1.09375 1.578125q0.421875 0.90625 0.421875 2.078125q0 1.8125 -0.796875 3.21875q-0.78125 1.40625 -2.40625 2.21875q-1.625 0.8125 -3.953125 0.8125q-1.34375 0 -2.90625 -0.296875q-1.546875 -0.3125 -2.84375 -0.8125l0 -3.3125l1.875 0q0.546875 1.625 1.4375 2.359375q0.90625 0.734375 2.453125 0.734375q2.03125 0 3.0625 -1.109375q1.046875 -1.109375 1.046875 -3.28125q0 -2.28125 -1.375 -3.484375q-1.375 -1.203125 -4.03125 -1.203125l-1.40625 0l0 -1.375q2.109375 -0.125 3.546875 -0.8125q1.453125 -0.6875 2.15625 -1.765625q0.703125 -1.078125 0.703125 -2.421875q0 -1.734375 -0.921875 -2.671875q-0.921875 -0.9375 -2.6875 -0.9375q-1.46875 0 -2.390625 0.796875q-0.921875 0.796875 -1.359375 2.4375l-1.875 0z" fill-rule="nonzero"/><path fill="#cfe2f3" d="m485.27252 20.985884l92.06299 0l0 92.06299l-92.06299 0z" fill-rule="evenodd"/><path stroke="#000000" stroke-width="1.0" stroke-linejoin="round" stroke-linecap="butt" d="m485.27252 20.985884l92.06299 0l0 92.06299l-92.06299 0z" fill-rule="evenodd"/><path fill="#000000" d="m524.929 61.83113l0 -2.96875q1.8125 -0.859375 3.390625 -1.28125q1.578125 -0.421875 3.046875 -0.421875q1.765625 0 3.09375 0.546875q1.328125 0.546875 2.03125 1.578125q0.703125 1.015625 0.703125 2.4375q0 1.328125 -0.53125 2.34375q-0.53125 1.0 -1.5 1.75q-0.953125 0.75 -2.484375 1.46875l0 0.140625q0.953125 0.171875 1.828125 0.59375q0.890625 0.40625 1.578125 1.0625q0.6875 0.65625 1.09375 1.578125q0.421875 0.90625 0.421875 2.078125q0 1.8125 -0.796875 3.21875q-0.78125 1.40625 -2.40625 2.21875q-1.625 0.8125 -3.953125 0.8125q-1.34375 0 -2.90625 -0.296875q-1.546875 -0.3125 -2.84375 -0.8125l0 -3.3125l1.875 0q0.546875 1.625 1.4375 2.359375q0.90625 0.734375 2.453125 0.734375q2.03125 0 3.0625 -1.109375q1.046875 -1.109375 1.046875 -3.28125q0 -2.28125 -1.375 -3.484375q-1.375 -1.203125 -4.03125 -1.203125l-1.40625 0l0 -1.375q2.109375 -0.125 3.546875 -0.8125q1.453125 -0.6875 2.15625 -1.765625q0.703125 -1.078125 0.703125 -2.421875q0 -1.734375 -0.921875 -2.671875q-0.921875 -0.9375 -2.6875 -0.9375q-1.46875 0 -2.390625 0.796875q-0.921875 0.796875 -1.359375 2.4375l-1.875 0z" fill-rule="nonzero"/><path fill="#cfe2f3" d="m485.27252 113.034706l92.06299 0l0 92.062996l-92.06299 0z" fill-rule="evenodd"/><path stroke="#000000" stroke-width="1.0" stroke-linejoin="round" stroke-linecap="butt" d="m485.27252 113.034706l92.06299 0l0 92.062996l-92.06299 0z" fill-rule="evenodd"/><path fill="#000000" d="m533.4134 168.2862q0.765625 0 1.234375 -0.09375q0.46875 -0.09375 0.75 -0.3125q0.28125 -0.21875 0.4375 -0.5625q0.171875 -0.359375 0.421875 -1.09375l1.328125 0l-0.265625 4.5625l-12.859375 0l0 -0.75q0.671875 -1.640625 1.8125 -3.359375q1.140625 -1.71875 3.234375 -4.046875q1.8125 -2.0 2.609375 -3.03125q0.875 -1.125 1.296875 -1.9375q0.4375 -0.828125 0.625 -1.546875q0.1875 -0.734375 0.1875 -1.46875q0 -1.171875 -0.375 -2.0625q-0.375 -0.90625 -1.15625 -1.421875q-0.765625 -0.515625 -1.9375 -0.515625q-2.921875 0 -3.9375 3.25l-1.890625 0l0 -3.0q1.890625 -0.890625 3.53125 -1.28125q1.65625 -0.40625 2.96875 -0.40625q2.90625 0 4.390625 1.28125q1.484375 1.265625 1.484375 3.6875q0 0.828125 -0.171875 1.53125q-0.15625 0.6875 -0.515625 1.375q-0.34375 0.671875 -0.9375 1.453125q-0.59375 0.78125 -1.3125 1.59375q-0.71875 0.796875 -2.484375 2.671875q-2.96875 3.140625 -4.359375 5.484375l5.890625 0z" fill-rule="nonzero"/><path fill="#cfe2f3" d="m485.27252 205.08353l92.06299 0l0 92.06299l-92.06299 0z" fill-rule="evenodd"/><path stroke="#000000" stroke-width="1.0" stroke-linejoin="round" stroke-linecap="butt" d="m485.27252 205.08353l92.06299 0l0 92.06299l-92.06299 0z" fill-rule="evenodd"/><path fill="#000000" d="m524.7884 261.97565l0 -3.3125l1.890625 0q0.46875 1.59375 1.40625 2.34375q0.953125 0.75 2.453125 0.75q2.078125 0 3.140625 -1.25q1.0625 -1.25 1.0625 -3.734375q0 -1.65625 -0.5625 -2.734375q-0.5625 -1.09375 -1.515625 -1.578125q-0.953125 -0.484375 -2.21875 -0.484375q-1.0625 0 -1.828125 0.140625q-0.765625 0.125 -1.640625 0.40625l-1.25 -0.734375l0 -10.28125l8.609375 0q0.53125 0 0.765625 -0.078125q0.234375 -0.09375 0.375 -0.265625q0.140625 -0.1875 0.328125 -0.6875l1.21875 0l-0.234375 3.625l-8.984375 0l0 6.859375q0.8125 -0.34375 1.765625 -0.515625q0.953125 -0.171875 1.90625 -0.171875q1.859375 0 3.296875 0.765625q1.4375 0.75 2.21875 2.15625q0.78125 1.390625 0.78125 3.234375q0 2.09375 -0.875 3.59375q-0.875 1.5 -2.53125 2.28125q-1.65625 0.78125 -3.921875 0.78125q-2.703125 0 -5.65625 -1.109375z" fill-rule="nonzero"/><path fill="#cfe2f3" d="m485.27252 297.13235l92.06299 0l0 92.06299l-92.06299 0z" fill-rule="evenodd"/><path stroke="#000000" stroke-width="1.0" stroke-linejoin="round" stroke-linecap="butt" d="m485.27252 297.13235l92.06299 0l0 92.06299l-92.06299 0z" fill-rule="evenodd"/><path fill="#000000" d="m533.304 350.80573q0 0.90625 0.09375 1.375q0.109375 0.453125 0.359375 0.75q0.265625 0.28125 0.75 0.453125q0.484375 0.15625 1.21875 0.25q0.734375 0.078125 1.9375 0.109375l0 1.140625l-11.546875 0l0 -1.140625q1.734375 -0.078125 2.46875 -0.203125q0.75 -0.140625 1.140625 -0.40625q0.390625 -0.265625 0.5625 -0.75q0.1875 -0.484375 0.1875 -1.578125l0 -12.671875q0 -0.625 -0.21875 -0.90625q-0.21875 -0.296875 -0.640625 -0.296875q-0.5 0 -1.421875 0.515625q-0.921875 0.515625 -2.28125 1.421875l-0.6875 -1.203125l7.3125 -4.359375l0.859375 0q-0.09375 1.5 -0.09375 4.15625l0 13.34375z" fill-rule="nonzero"/><path fill="#cfe2f3" d="m485.27252 389.18115l92.06299 0l0 92.06299l-92.06299 0z" fill-rule="evenodd"/><path stroke="#000000" stroke-width="1.0" stroke-linejoin="round" stroke-linecap="butt" d="m485.27252 389.18115l92.06299 0l0 92.06299l-92.06299 0z" fill-rule="evenodd"/><path fill="#000000" d="m533.304 442.85452q0 0.90625 0.09375 1.375q0.109375 0.453125 0.359375 0.75q0.265625 0.28125 0.75 0.453125q0.484375 0.15625 1.21875 0.25q0.734375 0.078125 1.9375 0.109375l0 1.140625l-11.546875 0l0 -1.140625q1.734375 -0.078125 2.46875 -0.203125q0.75 -0.140625 1.140625 -0.40625q0.390625 -0.265625 0.5625 -0.75q0.1875 -0.484375 0.1875 -1.578125l0 -12.671875q0 -0.625 -0.21875 -0.90625q-0.21875 -0.296875 -0.640625 -0.296875q-0.5 0 -1.421875 0.515625q-0.921875 0.515625 -2.28125 1.421875l-0.6875 -1.203125l7.3125 -4.359375l0.859375 0q-0.09375 1.5 -0.09375 4.15625l0 13.34375z" fill-rule="nonzero"/><path fill="#cfe2f3" d="m485.27252 481.2284l92.06299 0l0 92.06299l-92.06299 0z" fill-rule="evenodd"/><path stroke="#000000" stroke-width="1.0" stroke-linejoin="round" stroke-linecap="butt" d="m485.27252 481.2284l92.06299 0l0 92.06299l-92.06299 0z" fill-rule="evenodd"/><path fill="#000000" d="m533.4134 536.4799q0.765625 0 1.234375 -0.09375q0.46875 -0.09375 0.75 -0.3125q0.28125 -0.21875 0.4375 -0.5625q0.171875 -0.359375 0.421875 -1.09375l1.328125 0l-0.265625 4.5625l-12.859375 0l0 -0.75q0.671875 -1.640625 1.8125 -3.359375q1.140625 -1.71875 3.234375 -4.046875q1.8125 -2.0 2.609375 -3.03125q0.875 -1.125 1.296875 -1.9375q0.4375 -0.828125 0.625 -1.546875q0.1875 -0.734375 0.1875 -1.46875q0 -1.171875 -0.375 -2.0625q-0.375 -0.90625 -1.15625 -1.421875q-0.765625 -0.515625 -1.9375 -0.515625q-2.921875 0 -3.9375 3.25l-1.890625 0l0 -3.0q1.890625 -0.890625 3.53125 -1.28125q1.65625 -0.40625 2.96875 -0.40625q2.90625 0 4.390625 1.28125q1.484375 1.265625 1.484375 3.6875q0 0.828125 -0.171875 1.53125q-0.15625 0.6875 -0.515625 1.375q-0.34375 0.671875 -0.9375 1.453125q-0.59375 0.78125 -1.3125 1.59375q-0.71875 0.796875 -2.484375 2.671875q-2.96875 3.140625 -4.359375 5.484375l5.890625 0z" fill-rule="nonzero"/><path fill="#ff0000" fill-opacity="0.2038" d="m46.90026 122.135056l242.17322 0l0 204.48283l-242.17322 0z" fill-rule="evenodd"/><path stroke="#ff0000" stroke-width="2.0" stroke-linejoin="round" stroke-linecap="butt" d="m46.90026 122.135056l242.17322 0l0 204.48283l-242.17322 0z" fill-rule="evenodd"/><path fill="#ff0000" fill-opacity="0.2038" d="m289.0735 122.135056l242.17322 0l0 204.48283l-242.17322 0z" fill-rule="evenodd"/><path stroke="#ff0000" stroke-width="2.0" stroke-linejoin="round" stroke-linecap="butt" d="m289.0735 122.135056l242.17322 0l0 204.48283l-242.17322 0z" fill-rule="evenodd"/><path fill="#ff0000" fill-opacity="0.2038" d="m46.90026 326.6179l242.17322 0l0 204.48282l-242.17322 0z" fill-rule="evenodd"/><path stroke="#ff0000" stroke-width="2.0" stroke-linejoin="round" stroke-linecap="butt" d="m46.90026 326.6179l242.17322 0l0 204.48282l-242.17322 0z" fill-rule="evenodd"/><path fill="#ff0000" fill-opacity="0.2038" d="m289.0735 326.6179l242.17322 0l0 204.48282l-242.17322 0z" fill-rule="evenodd"/><path stroke="#ff0000" stroke-width="2.0" stroke-linejoin="round" stroke-linecap="butt" d="m289.0735 326.6179l242.17322 0l0 204.48282l-242.17322 0z" fill-rule="evenodd"/><path fill="#38761d" d="m102.00653 189.25688l0 0c0 -8.210342 6.6558 -14.866135 14.866142 -14.866135l0 0c3.9427414 0 7.7240067 1.5662537 10.511948 4.354187c2.787941 2.7879486 4.3541946 6.569214 4.3541946 10.511948l0 0c0 8.210342 -6.6558 14.86615 -14.866142 14.86615l0 0c-8.210342 0 -14.866142 -6.6558075 -14.866142 -14.86615z" fill-rule="evenodd"/><path fill="#38761d" d="m192.73094 189.25688l0 0c0 -8.210342 6.655792 -14.866135 14.866135 -14.866135l0 0c3.942749 0 7.7240143 1.5662537 10.511948 4.354187c2.7879486 2.7879486 4.3542023 6.569214 4.3542023 10.511948l0 0c0 8.210342 -6.6558075 14.86615 -14.86615 14.86615l0 0c-8.210342 0 -14.866135 -6.6558075 -14.866135 -14.86615z" fill-rule="evenodd"/><path fill="#38761d" d="m102.00653 274.2884l0 0c0 -8.210358 6.6558 -14.86615 14.866142 -14.86615l0 0c3.9427414 0 7.7240067 1.5662537 10.511948 4.354187c2.787941 2.7879333 4.3541946 6.569214 4.3541946 10.511963l0 0c0 8.210327 -6.6558 14.866119 -14.866142 14.866119l0 0c-8.210342 0 -14.866142 -6.655792 -14.866142 -14.866119z" fill-rule="evenodd"/><path fill="#38761d" d="m192.73094 274.2884l0 0c0 -8.210358 6.655792 -14.86615 14.866135 -14.86615l0 0c3.942749 0 7.7240143 1.5662537 10.511948 4.354187c2.7879486 2.7879333 4.3542023 6.569214 4.3542023 10.511963l0 0c0 8.210327 -6.6558075 14.866119 -14.86615 14.866119l0 0c-8.210342 0 -14.866135 -6.655792 -14.866135 -14.866119z" fill-rule="evenodd"/><path fill="#38761d" d="m339.80182 189.25688l0 0c0 -8.210342 6.655792 -14.866135 14.866119 -14.866135l0 0c3.942749 0 7.7240295 1.5662537 10.511963 4.354187c2.7879333 2.7879486 4.354187 6.569214 4.354187 10.511948l0 0c0 8.210342 -6.655792 14.86615 -14.86615 14.86615l0 0c-8.210327 0 -14.866119 -6.6558075 -14.866119 -14.86615z" fill-rule="evenodd"/><path fill="#38761d" d="m430.5262 189.25688l0 0c0 -8.210342 6.655792 -14.866135 14.86615 -14.866135l0 0c3.942749 0 7.723999 1.5662537 10.511932 4.354187c2.7879639 2.7879486 4.354187 6.569214 4.354187 10.511948l0 0c0 8.210342 -6.655792 14.86615 -14.866119 14.86615l0 0c-8.210358 0 -14.86615 -6.6558075 -14.86615 -14.86615z" fill-rule="evenodd"/><path fill="#38761d" d="m339.80182 274.2884l0 0c0 -8.210358 6.655792 -14.86615 14.866119 -14.86615l0 0c3.942749 0 7.7240295 1.5662537 10.511963 4.354187c2.7879333 2.7879333 4.354187 6.569214 4.354187 10.511963l0 0c0 8.210327 -6.655792 14.866119 -14.86615 14.866119l0 0c-8.210327 0 -14.866119 -6.655792 -14.866119 -14.866119z" fill-rule="evenodd"/><path fill="#38761d" d="m430.5262 274.2884l0 0c0 -8.210358 6.655792 -14.86615 14.86615 -14.86615l0 0c3.942749 0 7.723999 1.5662537 10.511932 4.354187c2.7879639 2.7879333 4.354187 6.569214 4.354187 10.511963l0 0c0 8.210327 -6.655792 14.866119 -14.866119 14.866119l0 0c-8.210358 0 -14.86615 -6.655792 -14.86615 -14.866119z" fill-rule="evenodd"/><path fill="#38761d" d="m102.00653 378.8107l0 0c0 -8.210358 6.6558 -14.86615 14.866142 -14.86615l0 0c3.9427414 0 7.7240067 1.5662537 10.511948 4.354187c2.787941 2.7879639 4.3541946 6.569214 4.3541946 10.511963l0 0c0 8.210327 -6.6558 14.86615 -14.866142 14.86615l0 0c-8.210342 0 -14.866142 -6.6558228 -14.866142 -14.86615z" fill-rule="evenodd"/><path fill="#38761d" d="m192.73094 378.8107l0 0c0 -8.210358 6.655792 -14.86615 14.866135 -14.86615l0 0c3.942749 0 7.7240143 1.5662537 10.511948 4.354187c2.7879486 2.7879639 4.3542023 6.569214 4.3542023 10.511963l0 0c0 8.210327 -6.6558075 14.86615 -14.86615 14.86615l0 0c-8.210342 0 -14.866135 -6.6558228 -14.866135 -14.86615z" fill-rule="evenodd"/><path fill="#38761d" d="m102.00653 463.8422l0 0c0 -8.210358 6.6558 -14.86615 14.866142 -14.86615l0 0c3.9427414 0 7.7240067 1.5662537 10.511948 4.354187c2.787941 2.7879639 4.3541946 6.569214 4.3541946 10.511963l0 0c0 8.210327 -6.6558 14.86615 -14.866142 14.86615l0 0c-8.210342 0 -14.866142 -6.6558228 -14.866142 -14.86615z" fill-rule="evenodd"/><path fill="#38761d" d="m192.73094 463.8422l0 0c0 -8.210358 6.655792 -14.86615 14.866135 -14.86615l0 0c3.942749 0 7.7240143 1.5662537 10.511948 4.354187c2.7879486 2.7879639 4.3542023 6.569214 4.3542023 10.511963l0 0c0 8.210327 -6.6558075 14.86615 -14.86615 14.86615l0 0c-8.210342 0 -14.866135 -6.6558228 -14.866135 -14.86615z" fill-rule="evenodd"/><path fill="#38761d" d="m339.80182 378.8107l0 0c0 -8.210358 6.655792 -14.86615 14.866119 -14.86615l0 0c3.942749 0 7.7240295 1.5662537 10.511963 4.354187c2.7879333 2.7879639 4.354187 6.569214 4.354187 10.511963l0 0c0 8.210327 -6.655792 14.86615 -14.86615 14.86615l0 0c-8.210327 0 -14.866119 -6.6558228 -14.866119 -14.86615z" fill-rule="evenodd"/><path fill="#38761d" d="m430.5262 378.8107l0 0c0 -8.210358 6.655792 -14.86615 14.86615 -14.86615l0 0c3.942749 0 7.723999 1.5662537 10.511932 4.354187c2.7879639 2.7879639 4.354187 6.569214 4.354187 10.511963l0 0c0 8.210327 -6.655792 14.86615 -14.866119 14.86615l0 0c-8.210358 0 -14.86615 -6.6558228 -14.86615 -14.86615z" fill-rule="evenodd"/><path fill="#38761d" d="m339.80182 463.8422l0 0c0 -8.210358 6.655792 -14.86615 14.866119 -14.86615l0 0c3.942749 0 7.7240295 1.5662537 10.511963 4.354187c2.7879333 2.7879639 4.354187 6.569214 4.354187 10.511963l0 0c0 8.210327 -6.655792 14.86615 -14.86615 14.86615l0 0c-8.210327 0 -14.866119 -6.6558228 -14.866119 -14.86615z" fill-rule="evenodd"/><path fill="#38761d" d="m430.5262 463.8422l0 0c0 -8.210358 6.655792 -14.86615 14.86615 -14.86615l0 0c3.942749 0 7.723999 1.5662537 10.511932 4.354187c2.7879639 2.7879639 4.354187 6.569214 4.354187 10.511963l0 0c0 8.210327 -6.655792 14.86615 -14.866119 14.86615l0 0c-8.210358 0 -14.86615 -6.6558228 -14.86615 -14.86615z" fill-rule="evenodd"/><path fill="#f4cccc" d="m621.8583 201.14174l105.44879 0l0 105.44881l-105.44879 0z" fill-rule="evenodd"/><path stroke="#ff0000" stroke-width="2.0" stroke-linejoin="round" stroke-linecap="butt" d="m621.8583 201.14174l105.44879 0l0 105.44881l-105.44879 0z" fill-rule="evenodd"/><path fill="#000000" d="m655.92645 264.72678l0 -3.3125l1.890625 0q0.46875 1.59375 1.40625 2.34375q0.953125 0.75 2.453125 0.75q2.078125 0 3.140625 -1.25q1.0625 -1.25 1.0625 -3.734375q0 -1.65625 -0.5625 -2.734375q-0.5625 -1.09375 -1.515625 -1.578125q-0.953125 -0.484375 -2.21875 -0.484375q-1.0625 0 -1.828125 0.140625q-0.765625 0.125 -1.640625 0.40625l-1.25 -0.734375l0 -10.28125l8.609375 0q0.53125 0 0.765625 -0.078125q0.234375 -0.09375 0.375 -0.265625q0.140625 -0.1875 0.328125 -0.6875l1.21875 0l-0.234375 3.625l-8.984375 0l0 6.859375q0.8125 -0.34375 1.765625 -0.515625q0.953125 -0.171875 1.90625 -0.171875q1.859375 0 3.296875 0.765625q1.4375 0.75 2.21875 2.15625q0.78125 1.390625 0.78125 3.234375q0 2.09375 -0.875 3.59375q-0.875 1.5 -2.53125 2.28125q-1.65625 0.78125 -3.921875 0.78125q-2.703125 0 -5.65625 -1.109375zm20.234375 -2.765625l0 3.625l-3.15625 0l0 -3.625l3.15625 0zm12.671875 1.125q0.765625 0 1.234375 -0.09375q0.46875 -0.09375 0.75 -0.3125q0.28125 -0.21875 0.4375 -0.5625q0.171875 -0.359375 0.421875 -1.09375l1.328125 0l-0.265625 4.5625l-12.859375 0l0 -0.75q0.671875 -1.640625 1.8125 -3.359375q1.140625 -1.71875 3.234375 -4.046875q1.8125 -2.0 2.609375 -3.03125q0.875 -1.125 1.296875 -1.9375q0.4375 -0.828125 0.625 -1.546875q0.1875 -0.734375 0.1875 -1.46875q0 -1.171875 -0.375 -2.0625q-0.375 -0.90625 -1.15625 -1.421875q-0.765625 -0.515625 -1.9375 -0.515625q-2.921875 0 -3.9375 3.25l-1.890625 0l0 -3.0q1.890625 -0.890625 3.53125 -1.28125q1.65625 -0.40625 2.96875 -0.40625q2.90625 0 4.390625 1.28125q1.484375 1.265625 1.484375 3.6875q0 0.828125 -0.171875 1.53125q-0.15625 0.6875 -0.515625 1.375q-0.34375 0.671875 -0.9375 1.453125q-0.59375 0.78125 -1.3125 1.59375q-0.71875 0.796875 -2.484375 2.671875q-2.96875 3.140625 -4.359375 5.484375l5.890625 0z" fill-rule="nonzero"/><path fill="#f4cccc" d="m727.30707 201.14174l105.44885 0l0 105.44881l-105.44885 0z" fill-rule="evenodd"/><path stroke="#ff0000" stroke-width="2.0" stroke-linejoin="round" stroke-linecap="butt" d="m727.30707 201.14174l105.44885 0l0 105.44881l-105.44885 0z" fill-rule="evenodd"/><path fill="#000000" d="m773.26587 244.8674l0 0.765625q-2.40625 0 -4.265625 1.03125q-1.859375 1.03125 -3.09375 3.03125q-1.21875 2.0 -1.71875 4.75l0.15625 0.0625q1.3125 -0.9375 2.578125 -1.375q1.28125 -0.4375 2.765625 -0.4375q1.765625 0 3.0 0.78125q1.25 0.765625 1.875 2.171875q0.625 1.390625 0.625 3.265625q0 2.03125 -0.78125 3.59375q-0.78125 1.546875 -2.421875 2.4375q-1.625 0.890625 -4.015625 0.890625q-3.421875 0 -5.171875 -2.125q-1.734375 -2.125 -1.734375 -6.265625q0 -2.78125 0.875 -5.203125q0.875 -2.421875 2.484375 -4.21875q1.609375 -1.8125 3.734375 -2.84375q2.125 -1.046875 4.46875 -1.171875l0.640625 0.859375zm-4.65625 9.46875q-0.765625 0 -1.484375 0.171875q-0.703125 0.171875 -1.328125 0.5q-0.625 0.328125 -1.21875 0.828125q-0.1875 0.171875 -0.28125 0.359375q-0.15625 0.296875 -0.203125 0.734375q-0.046875 0.4375 -0.046875 1.46875q0 2.984375 1.0 4.546875q1.0 1.5625 3.03125 1.5625q1.171875 0 1.96875 -0.40625q0.796875 -0.40625 1.28125 -1.109375q0.5 -0.71875 0.703125 -1.671875q0.21875 -0.96875 0.21875 -2.09375q0 -2.3125 -0.953125 -3.59375q-0.953125 -1.296875 -2.6875 -1.296875zm13.0 7.625l0 3.625l-3.15625 0l0 -3.625l3.15625 0zm12.5625 -0.453125q0 0.90625 0.09375 1.375q0.109375 0.453125 0.359375 0.75q0.265625 0.28125 0.75 0.453125q0.484375 0.15625 1.21875 0.25q0.734375 0.078125 1.9375 0.109375l0 1.140625l-11.546875 0l0 -1.140625q1.734375 -0.078125 2.46875 -0.203125q0.75 -0.140625 1.140625 -0.40625q0.390625 -0.265625 0.5625 -0.75q0.1875 -0.484375 0.1875 -1.578125l0 -12.671875q0 -0.625 -0.21875 -0.90625q-0.21875 -0.296875 -0.640625 -0.296875q-0.5 0 -1.421875 0.515625q-0.921875 0.515625 -2.28125 1.421875l-0.6875 -1.203125l7.3125 -4.359375l0.859375 0q-0.09375 1.5 -0.09375 4.15625l0 13.34375z" fill-rule="nonzero"/><path fill="#f4cccc" d="m621.8583 307.2756l105.44879 0l0 105.44879l-105.44879 0z" fill-rule="evenodd"/><path stroke="#ff0000" stroke-width="2.0" stroke-linejoin="round" stroke-linecap="butt" d="m621.8583 307.2756l105.44879 0l0 105.44879l-105.44879 0z" fill-rule="evenodd"/><path fill="#000000" d="m656.0671 354.81375l0 -2.96875q1.8125 -0.859375 3.390625 -1.28125q1.578125 -0.421875 3.046875 -0.421875q1.765625 0 3.09375 0.546875q1.328125 0.546875 2.03125 1.578125q0.703125 1.015625 0.703125 2.4375q0 1.328125 -0.53125 2.34375q-0.53125 1.0 -1.5 1.75q-0.953125 0.75 -2.484375 1.46875l0 0.140625q0.953125 0.171875 1.828125 0.59375q0.890625 0.40625 1.578125 1.0625q0.6875 0.65625 1.09375 1.578125q0.421875 0.90625 0.421875 2.078125q0 1.8125 -0.796875 3.21875q-0.78125 1.40625 -2.40625 2.21875q-1.625 0.8125 -3.953125 0.8125q-1.34375 0 -2.90625 -0.296875q-1.546875 -0.3125 -2.84375 -0.8125l0 -3.3125l1.875 0q0.546875 1.625 1.4375 2.359375q0.90625 0.734375 2.453125 0.734375q2.03125 0 3.0625 -1.109375q1.046875 -1.109375 1.046875 -3.28125q0 -2.28125 -1.375 -3.484375q-1.375 -1.203125 -4.03125 -1.203125l-1.40625 0l0 -1.375q2.109375 -0.125 3.546875 -0.8125q1.453125 -0.6875 2.15625 -1.765625q0.703125 -1.078125 0.703125 -2.421875q0 -1.734375 -0.921875 -2.671875q-0.921875 -0.9375 -2.6875 -0.9375q-1.46875 0 -2.390625 0.796875q-0.921875 0.796875 -1.359375 2.4375l-1.875 0zm20.09375 13.28125l0 3.625l-3.15625 0l0 -3.625l3.15625 0zm14.078125 -7.640625l0.03125 0.203125q1.765625 0.6875 2.671875 2.015625q0.90625 1.3125 0.90625 3.171875q0 1.828125 -0.875 3.21875q-0.875 1.390625 -2.546875 2.15625q-1.65625 0.75 -3.875 0.75q-2.078125 0 -3.65625 -0.6875q-1.5625 -0.703125 -2.4375 -2.03125q-0.859375 -1.34375 -0.859375 -3.15625q0 -1.359375 0.46875 -2.359375q0.46875 -1.0 1.21875 -1.640625q0.765625 -0.65625 1.921875 -1.1875l-0.03125 -0.203125q-3.359375 -1.453125 -3.359375 -4.984375q0 -1.609375 0.875 -2.875q0.890625 -1.265625 2.515625 -1.984375q1.640625 -0.71875 3.625 -0.71875q2.25 0 3.78125 0.640625q1.53125 0.625 2.296875 1.828125q0.78125 1.1875 0.78125 2.859375q0 1.71875 -0.84375 2.96875q-0.84375 1.234375 -2.609375 2.015625zm-7.484375 -4.875q0 0.921875 0.21875 1.734375q0.21875 0.8125 0.703125 1.40625q0.484375 0.59375 1.25 0.953125q0.78125 0.34375 1.90625 0.34375q1.296875 0 2.171875 -0.5q0.890625 -0.515625 1.3125 -1.484375q0.4375 -0.984375 0.4375 -2.265625q0 -1.40625 -0.515625 -2.375q-0.5 -0.984375 -1.390625 -1.453125q-0.890625 -0.46875 -2.046875 -0.46875q-1.96875 0 -3.015625 1.078125q-1.03125 1.0625 -1.03125 3.03125zm-0.171875 10.25q0 1.015625 0.234375 1.90625q0.234375 0.875 0.734375 1.515625q0.515625 0.640625 1.3125 1.015625q0.796875 0.375 1.9375 0.375q1.28125 0 2.1875 -0.515625q0.921875 -0.53125 1.390625 -1.5625q0.484375 -1.03125 0.484375 -2.4375q0 -1.5 -0.515625 -2.578125q-0.515625 -1.09375 -1.453125 -1.65625q-0.9375 -0.578125 -2.171875 -0.578125q-1.15625 0 -1.953125 0.359375q-0.78125 0.359375 -1.28125 0.96875q-0.484375 0.609375 -0.703125 1.4375q-0.203125 0.8125 -0.203125 1.75z" fill-rule="nonzero"/><path fill="#f4cccc" d="m727.30707 307.2756l105.44885 0l0 105.44879l-105.44885 0z" fill-rule="evenodd"/><path stroke="#ff0000" stroke-width="2.0" stroke-linejoin="round" stroke-linecap="butt" d="m727.30707 307.2756l105.44885 0l0 105.44879l-105.44885 0z" fill-rule="evenodd"/><path fill="#000000" d="m761.37524 370.86063l0 -3.3125l1.890625 0q0.46875 1.59375 1.40625 2.34375q0.953125 0.75 2.453125 0.75q2.078125 0 3.140625 -1.25q1.0625 -1.25 1.0625 -3.734375q0 -1.65625 -0.5625 -2.734375q-0.5625 -1.09375 -1.515625 -1.578125q-0.953125 -0.484375 -2.21875 -0.484375q-1.0625 0 -1.828125 0.140625q-0.765625 0.125 -1.640625 0.40625l-1.25 -0.734375l0 -10.28125l8.609375 0q0.53125 0 0.765625 -0.078125q0.234375 -0.09375 0.375 -0.265625q0.140625 -0.1875 0.328125 -0.6875l1.21875 0l-0.234375 3.625l-8.984375 0l0 6.859375q0.8125 -0.34375 1.765625 -0.515625q0.953125 -0.171875 1.90625 -0.171875q1.859375 0 3.296875 0.765625q1.4375 0.75 2.21875 2.15625q0.78125 1.390625 0.78125 3.234375q0 2.09375 -0.875 3.59375q-0.875 1.5 -2.53125 2.28125q-1.65625 0.78125 -3.921875 0.78125q-2.703125 0 -5.65625 -1.109375zm20.234375 -2.765625l0 3.625l-3.15625 0l0 -3.625l3.15625 0zm14.078125 -7.640625l0.03125 0.203125q1.765625 0.6875 2.671875 2.015625q0.90625 1.3125 0.90625 3.171875q0 1.828125 -0.875 3.21875q-0.875 1.390625 -2.546875 2.15625q-1.65625 0.75 -3.875 0.75q-2.078125 0 -3.65625 -0.6875q-1.5625 -0.703125 -2.4375 -2.03125q-0.859375 -1.34375 -0.859375 -3.15625q0 -1.359375 0.46875 -2.359375q0.46875 -1.0 1.21875 -1.640625q0.765625 -0.65625 1.921875 -1.1875l-0.03125 -0.203125q-3.359375 -1.453125 -3.359375 -4.984375q0 -1.609375 0.875 -2.875q0.890625 -1.265625 2.515625 -1.984375q1.640625 -0.71875 3.625 -0.71875q2.25 0 3.78125 0.640625q1.53125 0.625 2.296875 1.828125q0.78125 1.1875 0.78125 2.859375q0 1.71875 -0.84375 2.96875q-0.84375 1.234375 -2.609375 2.015625zm-7.484375 -4.875q0 0.921875 0.21875 1.734375q0.21875 0.8125 0.703125 1.40625q0.484375 0.59375 1.25 0.953125q0.78125 0.34375 1.90625 0.34375q1.296875 0 2.171875 -0.5q0.890625 -0.515625 1.3125 -1.484375q0.4375 -0.984375 0.4375 -2.265625q0 -1.40625 -0.515625 -2.375q-0.5 -0.984375 -1.390625 -1.453125q-0.890625 -0.46875 -2.046875 -0.46875q-1.96875 0 -3.015625 1.078125q-1.03125 1.0625 -1.03125 3.03125zm-0.171875 10.25q0 1.015625 0.234375 1.90625q0.234375 0.875 0.734375 1.515625q0.515625 0.640625 1.3125 1.015625q0.796875 0.375 1.9375 0.375q1.28125 0 2.1875 -0.515625q0.921875 -0.53125 1.390625 -1.5625q0.484375 -1.03125 0.484375 -2.4375q0 -1.5 -0.515625 -2.578125q-0.515625 -1.09375 -1.453125 -1.65625q-0.9375 -0.578125 -2.171875 -0.578125q-1.15625 0 -1.953125 0.359375q-0.78125 0.359375 -1.28125 0.96875q-0.484375 0.609375 -0.703125 1.4375q-0.203125 0.8125 -0.203125 1.75z" fill-rule="nonzero"/></g></svg>