<svg version="1.1" viewBox="0.0 0.0 390.01837270341207 199.25459317585302" fill="none" stroke="none" stroke-linecap="square" stroke-miterlimit="10" xmlns:xlink="http://www.w3.org/1999/xlink" xmlns="http://www.w3.org/2000/svg"><clipPath id="p.0"><path d="m0 0l390.01837 0l0 199.2546l-390.01837 0l0 -199.2546z" clip-rule="nonzero"/></clipPath><g clip-path="url(#p.0)"><path fill="#000000" fill-opacity="0.0" d="m0 0l390.01837 0l0 199.2546l-390.01837 0z" fill-rule="evenodd"/><path fill="#c9daf8" d="m47.08399 27.44643l0 0c0 -13.794072 11.182308 -24.976377 24.976376 -24.976377l0 0c6.624153 0 12.97699 2.6314323 17.660973 7.3154116c4.683975 4.68398 7.315407 11.0368185 7.315407 17.660965l0 0c0 13.794075 -11.182304 24.97638 -24.97638 24.97638l0 0c-13.794067 0 -24.976376 -11.182304 -24.976376 -24.97638z" fill-rule="evenodd"/><path stroke="#4a86e8" stroke-width="1.0" stroke-linejoin="round" stroke-linecap="butt" d="m47.08399 27.44643l0 0c0 -13.794072 11.182308 -24.976377 24.976376 -24.976377l0 0c6.624153 0 12.97699 2.6314323 17.660973 7.3154116c4.683975 4.68398 7.315407 11.0368185 7.315407 17.660965l0 0c0 13.794075 -11.182304 24.97638 -24.97638 24.97638l0 0c-13.794067 0 -24.976376 -11.182304 -24.976376 -24.97638z" fill-rule="evenodd"/><path fill="#000000" d="m74.10357 32.02018q0 0.609375 0.0625 0.921875q0.0625 0.296875 0.234375 0.5q0.171875 0.1875 0.5 0.296875q0.328125 0.109375 0.8125 0.171875q0.484375 0.046875 1.28125 0.0625l0 0.953125l-8.984375 0l0 -0.953125q1.15625 -0.046875 1.65625 -0.125q0.5 -0.09375 0.75 -0.265625q0.265625 -0.1875 0.375 -0.5q0.125 -0.328125 0.125 -1.0625l0 -7.531248q0 -0.421875 -0.15625 -0.609375q-0.15625 -0.1875 -0.4375 -0.1875q-0.265625 0 -0.75 0.25q-0.46875 0.234375 -1.546875 0.96875l-0.640625 -1.109375l5.4375 -3.25l1.34375 0q-0.0625 1.0 -0.0625 2.765625l0 8.703123z" fill-rule="nonzero"/><path fill="#000000" fill-opacity="0.0" d="m-8.060368 -5.430446l46.645668 0l0 48.472443l-46.645668 0z" fill-rule="evenodd"/><path fill="#000000" d="m23.470882 21.31268q0.3125 0 0.421875 0.296875q0.125 0.296875 0.03125 0.75q-0.125 0.546875 -0.359375 0.859375q-0.21875 0.3125 -0.640625 0.5625q-1.609375 0.9375 -5.15625 3.0625q-2.0 4.96875 -4.109375 7.828125q-2.09375 2.859375 -4.359375 2.859375q-1.234375 0 -1.84375 -0.765625q-0.59375 -0.75 -0.328125 -1.96875q0.234375 -1.125 0.96875 -2.28125q0.75 -1.15625 2.453125 -2.671875q1.703125 -1.5 4.640625 -3.453125l0.171875 -0.453125q-2.0625 0.796875 -3.890625 0.796875q-2.6875 0 -4.5 -1.046875q-1.8125 -1.046875 -2.546875 -2.96875q-0.71874976 -1.921875 -0.171875 -4.46875q0.75 -3.546875 2.671875 -6.265625q1.921875 -2.734375 4.609375 -4.2343745q2.6875 -1.5 5.609375 -1.5q2.8125 0 3.9375 1.3125q1.125 1.3124995 0.671875 3.4687495q-0.296875 1.421875 -1.0 2.28125q-0.703125 0.84375 -1.671875 0.84375q-0.640625 0 -0.96875 -0.3125q-0.328125 -0.3125 -0.21875 -0.859375q0.0625 -0.25 0.28125 -0.828125q0.28125 -0.671875 0.359375 -1.046875q0.21875 -1.015625 -0.28125 -1.5625q-0.484375 -0.546875 -1.921875 -0.546875q-1.75 0 -3.46875 1.015625q-1.71875 1.0 -3.0625 3.0q-1.328125 2.0 -1.9375 4.8125q-0.609375 2.875 0.625 4.453125q1.25 1.5625 4.234375 1.5625q1.65625 0 3.609375 -0.734375l0.953125 -2.9375l-2.4375 0q-0.671875 0 -0.96875 -0.3125q-0.296875 -0.328125 -0.140625 -1.078125q0.15625 -0.671875 0.59375 -1.046875q0.4375 -0.390625 1.03125 -0.390625l4.484375 0q0.53125 0 0.796875 0.359375q0.28125 0.34375 0.078125 0.984375q-0.234375 0.765625 -1.234375 3.484375l-0.640625 1.828125q2.21875 -1.453125 4.046875 -2.5q0.34375 -0.1875 0.578125 -0.1875zm-13.421875 13.890625q0.625 0 1.671875 -1.421875q1.0625 -1.40625 2.375 -4.5625q-2.171875 1.5625 -3.25 2.828125q-1.0625 1.265625 -1.265625 2.21875q-0.203125 0.9375 0.46875 0.9375z" fill-rule="nonzero"/><path fill="#000000" d="m23.528576 35.68768q-0.40625 0 -0.65625 -0.234375q-0.25 -0.25 -0.15625 -0.75l0.0625 -0.1875q0.515625 -1.640625 1.140625 -3.421875q0.640625 -1.78125 1.015625 -2.75l-1.3125 0.359375l-0.203125 0.03125q-0.296875 0 -0.4375 -0.234375q-0.125 -0.25 -0.0625 -0.546875l0.046875 -0.15625q0.09375 -0.296875 0.296875 -0.484375q0.21875 -0.203125 0.703125 -0.390625q0.5 -0.1875 1.46875 -0.421875l0.703125 -0.15625q0.375 -0.078125 0.625 -0.078125q0.453125 0 0.640625 0.25q0.1875 0.234375 0.09375 0.65625q-0.046875 0.203125 -0.140625 0.421875q-0.53125 1.25 -2.5 7.109375q-0.328125 0.984375 -1.328125 0.984375z" fill-rule="nonzero"/><path fill="#c9daf8" d="m47.08399 171.44643l0 0c0 -13.794067 11.182308 -24.97638 24.976376 -24.97638l0 0c6.624153 0 12.97699 2.6314392 17.660973 7.3154144c4.683975 4.683975 7.315407 11.036819 7.315407 17.660965l0 0c0 13.794083 -11.182304 24.97638 -24.97638 24.97638l0 0c-13.794067 0 -24.976376 -11.182297 -24.976376 -24.97638z" fill-rule="evenodd"/><path stroke="#4a86e8" stroke-width="1.0" stroke-linejoin="round" stroke-linecap="butt" d="m47.08399 171.44643l0 0c0 -13.794067 11.182308 -24.97638 24.976376 -24.97638l0 0c6.624153 0 12.97699 2.6314392 17.660973 7.3154144c4.683975 4.683975 7.315407 11.036819 7.315407 17.660965l0 0c0 13.794083 -11.182304 24.97638 -24.97638 24.97638l0 0c-13.794067 0 -24.976376 -11.182297 -24.976376 -24.97638z" fill-rule="evenodd"/><path fill="#000000" d="m67.25982 168.14519l0 -2.46875q2.640625 -1.125 4.78125 -1.125q1.28125 0 2.265625 0.359375q0.984375 0.34375 1.515625 1.03125q0.546875 0.671875 0.546875 1.640625q0 0.890625 -0.359375 1.5625q-0.34375 0.671875 -0.984375 1.171875q-0.640625 0.5 -1.671875 0.96875l0 0.09375q0.90625 0.15625 1.65625 0.609375q0.75 0.453125 1.1875 1.203125q0.4375 0.75 0.4375 1.734375q0 1.203125 -0.59375 2.15625q-0.578125 0.9375 -1.78125 1.484375q-1.1875 0.53125 -2.90625 0.53125q-1.171875 0 -2.3125 -0.21875q-1.125 -0.21875 -1.96875 -0.59375l0 -2.625l1.875 0q0.296875 1.1875 0.84375 1.734375q0.5625 0.53125 1.453125 0.53125q2.203125 0 2.203125 -2.734375q0 -1.46875 -0.78125 -2.1875q-0.765625 -0.71875 -2.34375 -0.71875l-0.828125 0l0 -1.1875q1.8125 -0.0625 2.75 -0.84375q0.9375 -0.78125 0.9375 -2.234375q0 -1.15625 -0.46875 -1.75q-0.46875 -0.59375 -1.359375 -0.59375q-0.515625 0 -0.953125 0.234375q-0.421875 0.21875 -0.765625 0.78125q-0.34375 0.546875 -0.5 1.453125l-1.875 0z" fill-rule="nonzero"/><path fill="#c9daf8" d="m119.08399 99.446434l0 0c0 -13.794075 11.182304 -24.97638 24.976372 -24.97638l0 0c6.6241455 0 12.97699 2.6314316 17.660965 7.315407c4.6839905 4.683983 7.3154144 11.036819 7.3154144 17.660973l0 0c0 13.794067 -11.182297 24.976372 -24.97638 24.976372l0 0c-13.794067 0 -24.976372 -11.182304 -24.976372 -24.976372z" fill-rule="evenodd"/><path stroke="#4a86e8" stroke-width="1.0" stroke-linejoin="round" stroke-linecap="butt" d="m119.08399 99.446434l0 0c0 -13.794075 11.182304 -24.97638 24.976372 -24.97638l0 0c6.6241455 0 12.97699 2.6314316 17.660965 7.315407c4.6839905 4.683983 7.3154144 11.036819 7.3154144 17.660973l0 0c0 13.794067 -11.182297 24.976372 -24.97638 24.976372l0 0c-13.794067 0 -24.976372 -11.182304 -24.976372 -24.976372z" fill-rule="evenodd"/><path fill="#000000" d="m145.60358 104.379555q0.671875 0 1.0 -0.09375q0.34375 -0.109375 0.53125 -0.34375q0.1875 -0.25 0.3125 -0.75l1.203125 0l-0.234375 3.734375l-9.546875 0l0 -0.6875q0.4375 -1.0 1.265625 -2.171875q0.828125 -1.1875 2.015625 -2.578125q1.125 -1.328125 1.703125 -2.171875q0.59375 -0.859375 0.890625 -1.609375q0.296875 -0.765625 0.296875 -1.578125q0 -1.140625 -0.515625 -1.796875q-0.515625 -0.65625 -1.390625 -0.65625q-0.84375 0 -1.390625 0.59375q-0.546875 0.59375 -0.796875 1.859375l-1.875 0l0 -2.453125q1.28125 -0.515625 2.0 -0.71875q0.71875 -0.203125 1.421875 -0.296875q0.703125 -0.109375 1.515625 -0.109375q1.53125 0 2.5 0.40625q0.96875 0.40625 1.40625 1.109375q0.4375 0.703125 0.4375 1.640625q0 0.828125 -0.3125 1.53125q-0.3125 0.703125 -1.0625 1.609375q-0.75 0.90625 -2.546875 2.59375q-0.796875 0.78125 -1.5 1.578125q-0.703125 0.796875 -1.03125 1.25l0 0.109375l3.703125 0z" fill-rule="nonzero"/><path fill="#c9daf8" d="m191.08398 27.44643l0 0c0 -13.794072 11.182312 -24.976377 24.97638 -24.976377l0 0c6.6241455 0 12.97699 2.6314323 17.660965 7.3154116c4.6839905 4.68398 7.3154144 11.0368185 7.3154144 17.660965l0 0c0 13.794075 -11.182297 24.97638 -24.97638 24.97638l0 0c-13.794067 0 -24.97638 -11.182304 -24.97638 -24.97638z" fill-rule="evenodd"/><path stroke="#4a86e8" stroke-width="1.0" stroke-linejoin="round" stroke-linecap="butt" d="m191.08398 27.44643l0 0c0 -13.794072 11.182312 -24.976377 24.97638 -24.976377l0 0c6.6241455 0 12.97699 2.6314323 17.660965 7.3154116c4.6839905 4.68398 7.3154144 11.0368185 7.3154144 17.660965l0 0c0 13.794075 -11.182297 24.97638 -24.97638 24.97638l0 0c-13.794067 0 -24.97638 -11.182304 -24.97638 -24.97638z" fill-rule="evenodd"/><path fill="#000000" d="m214.75983 34.23893q0.375 -0.109375 0.59375 -0.21875q0.21875 -0.125 0.328125 -0.328125q0.125 -0.203125 0.15625 -0.515625q0.03125 -0.328125 0.03125 -0.828125l0 -1.5468731l-5.578125 0l0 -1.125l6.3125 -9.03125l2.34375 0l0 8.84375l0.328125 0q0.515625 0 0.71875 -0.0625q0.203125 -0.078125 0.34375 -0.265625q0.15625 -0.1875 0.296875 -0.65625l1.09375 0l-0.125 2.296875l-2.65625 0l0 1.5468731q0 0.5625 0.046875 0.890625q0.0625 0.328125 0.1875 0.515625q0.125 0.1875 0.34375 0.296875q0.21875 0.09375 0.546875 0.1875l0 0.6875l-5.3125 0l0 -0.6875zm-2.453125 -4.749998l3.5625 0l0 -2.390625q0 -1.5 0.109375 -3.140625l-0.109375 0l-3.5625 5.359375l0 0.171875z" fill-rule="nonzero"/><path fill="#000000" fill-opacity="0.0" d="m72.06036 52.42281l0 94.04724" fill-rule="evenodd"/><path stroke="#ff0000" stroke-width="3.0" stroke-linejoin="round" stroke-linecap="butt" d="m72.06036 52.42281l0 94.04724" fill-rule="evenodd"/><path fill="#000000" fill-opacity="0.0" d="m89.72134 45.1074l36.69291 36.69291" fill-rule="evenodd"/><path stroke="#ff0000" stroke-width="3.0" stroke-linejoin="round" stroke-linecap="butt" d="m89.72134 45.1074l36.69291 36.69291" fill-rule="evenodd"/><path fill="#000000" fill-opacity="0.0" d="m89.72134 153.78546l36.69291 -36.69291" fill-rule="evenodd"/><path stroke="#ff0000" stroke-width="3.0" stroke-linejoin="round" stroke-linecap="butt" d="m89.72134 153.78546l36.69291 -36.69291" fill-rule="evenodd"/><path fill="#c9daf8" d="m191.08398 171.44643l0 0c0 -13.794067 11.182312 -24.97638 24.97638 -24.97638l0 0c6.6241455 0 12.97699 2.6314392 17.660965 7.3154144c4.6839905 4.683975 7.3154144 11.036819 7.3154144 17.660965l0 0c0 13.794083 -11.182297 24.97638 -24.97638 24.97638l0 0c-13.794067 0 -24.97638 -11.182297 -24.97638 -24.97638z" fill-rule="evenodd"/><path stroke="#4a86e8" stroke-width="1.0" stroke-linejoin="round" stroke-linecap="butt" d="m191.08398 171.44643l0 0c0 -13.794067 11.182312 -24.97638 24.97638 -24.97638l0 0c6.6241455 0 12.97699 2.6314392 17.660965 7.3154144c4.6839905 4.683975 7.3154144 11.036819 7.3154144 17.660965l0 0c0 13.794083 -11.182297 24.97638 -24.97638 24.97638l0 0c-13.794067 0 -24.97638 -11.182297 -24.97638 -24.97638z" fill-rule="evenodd"/><path fill="#000000" d="m221.3067 165.39519l-5.78125 13.5625l-2.140625 0l0 -0.71875l5.234375 -10.59375l0 -0.15625l-4.640625 0q-0.453125 0 -0.734375 0.078125q-0.28125 0.078125 -0.46875 0.234375q-0.171875 0.15625 -0.28125 0.421875q-0.109375 0.25 -0.234375 0.8125l-1.203125 0l0.265625 -4.328125l9.984375 0l0 0.6875z" fill-rule="nonzero"/><path fill="#c9daf8" d="m335.08398 171.44643l0 0c0 -13.794067 11.182312 -24.97638 24.97638 -24.97638l0 0c6.6241455 0 12.97699 2.6314392 17.66098 7.3154144c4.68396 4.683975 7.315399 11.036819 7.315399 17.660965l0 0c0 13.794083 -11.182312 24.97638 -24.97638 24.97638l0 0c-13.794067 0 -24.97638 -11.182297 -24.97638 -24.97638z" fill-rule="evenodd"/><path stroke="#4a86e8" stroke-width="1.0" stroke-linejoin="round" stroke-linecap="butt" d="m335.08398 171.44643l0 0c0 -13.794067 11.182312 -24.97638 24.97638 -24.97638l0 0c6.6241455 0 12.97699 2.6314392 17.66098 7.3154144c4.68396 4.683975 7.315399 11.036819 7.315399 17.660965l0 0c0 13.794083 -11.182312 24.97638 -24.97638 24.97638l0 0c-13.794067 0 -24.97638 -11.182297 -24.97638 -24.97638z" fill-rule="evenodd"/><path fill="#000000" d="m363.66608 165.27019l0 0.640625q-2.28125 0.046875 -3.703125 1.40625q-1.421875 1.359375 -1.890625 3.890625l0.109375 0.046875q0.8125 -0.5625 1.625 -0.828125q0.828125 -0.265625 1.8125 -0.265625q1.203125 0 2.046875 0.53125q0.859375 0.53125 1.296875 1.484375q0.4375 0.953125 0.4375 2.234375q0 1.375 -0.578125 2.4375q-0.578125 1.0625 -1.796875 1.65625q-1.203125 0.59375 -2.96875 0.59375q-1.609375 0 -2.78125 -0.640625q-1.15625 -0.65625 -1.78125 -1.90625q-0.609375 -1.265625 -0.609375 -3.078125q0 -2.4375 1.03125 -4.390625q1.03125 -1.96875 2.90625 -3.171875q1.890625 -1.203125 4.28125 -1.359375l0.5625 0.71875zm-3.28125 6.328125q-0.5 0 -0.953125 0.15625q-0.453125 0.15625 -0.796875 0.40625q-0.34375 0.25 -0.46875 0.421875q-0.109375 0.15625 -0.171875 0.46875q-0.046875 0.296875 -0.046875 1.046875q0 1.90625 0.53125 2.875q0.53125 0.953125 1.625 0.953125q0.625 0 1.046875 -0.234375q0.421875 -0.25 0.6875 -0.671875q0.265625 -0.4375 0.375 -1.046875q0.109375 -0.609375 0.109375 -1.34375q0 -1.5 -0.5 -2.265625q-0.484375 -0.765625 -1.4375 -0.765625z" fill-rule="nonzero"/><path fill="#c9daf8" d="m335.08398 27.44643l0 0c0 -13.794072 11.182312 -24.976377 24.97638 -24.976377l0 0c6.6241455 0 12.97699 2.6314323 17.66098 7.3154116c4.68396 4.68398 7.315399 11.0368185 7.315399 17.660965l0 0c0 13.794075 -11.182312 24.97638 -24.97638 24.97638l0 0c-13.794067 0 -24.97638 -11.182304 -24.97638 -24.97638z" fill-rule="evenodd"/><path stroke="#4a86e8" stroke-width="1.0" stroke-linejoin="round" stroke-linecap="butt" d="m335.08398 27.44643l0 0c0 -13.794072 11.182312 -24.976377 24.97638 -24.976377l0 0c6.6241455 0 12.97699 2.6314323 17.66098 7.3154116c4.68396 4.68398 7.315399 11.0368185 7.315399 17.660965l0 0c0 13.794075 -11.182312 24.97638 -24.97638 24.97638l0 0c-13.794067 0 -24.97638 -11.182304 -24.97638 -24.97638z" fill-rule="evenodd"/><path fill="#000000" d="m355.38483 34.285805l0 -2.609373l1.875 0q0.265625 1.1406231 0.828125 1.7031231q0.578125 0.546875 1.484375 0.546875q1.140625 0 1.671875 -0.703125q0.546875 -0.703125 0.546875 -2.171873q0 -1.453125 -0.703125 -2.203125q-0.6875 -0.765625 -2.015625 -0.765625q-0.5 0 -1.09375 0.09375q-0.59375 0.09375 -1.046875 0.234375l-0.9375 -0.59375l0 -7.109375l6.15625 0q0.390625 0 0.5625 -0.046875q0.171875 -0.046875 0.28125 -0.171875q0.125 -0.125 0.265625 -0.46875l1.140625 0l-0.203125 3.328125l-6.40625 0l0 3.75q0.625 -0.1875 1.28125 -0.28125q0.65625 -0.09375 1.59375 -0.09375q1.296875 0 2.265625 0.484375q0.984375 0.484375 1.515625 1.390625q0.53125 0.90625 0.53125 2.140625q0 1.4374981 -0.640625 2.421873q-0.640625 0.96875 -1.859375 1.453125q-1.21875 0.484375 -2.921875 0.484375q-1.09375 0 -2.234375 -0.21875q-1.125 -0.21875 -1.9375 -0.59375z" fill-rule="nonzero"/><path fill="#000000" fill-opacity="0.0" d="m216.06036 52.42281l0 94.04724" fill-rule="evenodd"/><path stroke="#ff0000" stroke-width="3.0" stroke-linejoin="round" stroke-linecap="butt" d="m216.06036 52.42281l0 94.04724" fill-rule="evenodd"/><path fill="#000000" fill-opacity="0.0" d="m241.03674 27.44643l94.04724 0" fill-rule="evenodd"/><path stroke="#ff0000" stroke-width="3.0" stroke-linejoin="round" stroke-linecap="butt" d="m241.03674 27.44643l94.04724 0" fill-rule="evenodd"/><path fill="#000000" fill-opacity="0.0" d="m233.72133 45.1074l108.69292 108.69291" fill-rule="evenodd"/><path stroke="#ff0000" stroke-width="3.0" stroke-linejoin="round" stroke-linecap="butt" d="m233.72133 45.1074l108.69292 108.69291" fill-rule="evenodd"/><path fill="#000000" fill-opacity="0.0" d="m241.03674 171.44643l94.04724 0" fill-rule="evenodd"/><path stroke="#ff0000" stroke-width="3.0" stroke-linejoin="round" stroke-linecap="butt" d="m241.03674 171.44643l94.04724 0" fill-rule="evenodd"/><path fill="#000000" fill-opacity="0.0" d="m233.72133 153.78546l108.69292 -108.69291" fill-rule="evenodd"/><path stroke="#ff0000" stroke-width="3.0" stroke-linejoin="round" stroke-linecap="butt" d="m233.72133 153.78546l108.69292 -108.69291" fill-rule="evenodd"/><path fill="#000000" fill-opacity="0.0" d="m360.06036 52.42281l0 94.04724" fill-rule="evenodd"/><path stroke="#ff0000" stroke-width="3.0" stroke-linejoin="round" stroke-linecap="butt" d="m360.06036 52.42281l0 94.04724" fill-rule="evenodd"/></g></svg>