<svg version="1.1" viewBox="0.0 0.0 570.1863517060367 501.98687664041995" fill="none" stroke="none" stroke-linecap="square" stroke-miterlimit="10" xmlns:xlink="http://www.w3.org/1999/xlink" xmlns="http://www.w3.org/2000/svg"><clipPath id="p.0"><path d="m0 0l570.18634 0l0 501.98688l-570.18634 0l0 -501.98688z" clip-rule="nonzero"/></clipPath><g clip-path="url(#p.0)"><path fill="#000000" fill-opacity="0.0" d="m0 0l570.18634 0l0 501.98688l-570.18634 0z" fill-rule="evenodd"/><path fill="#666666" d="m100.850395 114.33071l0 0c0 -6.444771 5.224518 -11.669296 11.669289 -11.669296l0 0c3.0948868 0 6.063019 1.2294388 8.251434 3.417862c2.1884155 2.1884155 3.417862 5.15654 3.417862 8.251434l0 0c0 6.444771 -5.2245255 11.669289 -11.669296 11.669289l0 0c-6.444771 0 -11.669289 -5.224518 -11.669289 -11.669289z" fill-rule="evenodd"/><path stroke="#666666" stroke-width="1.0" stroke-linejoin="round" stroke-linecap="butt" d="m100.850395 114.33071l0 0c0 -6.444771 5.224518 -11.669296 11.669289 -11.669296l0 0c3.0948868 0 6.063019 1.2294388 8.251434 3.417862c2.1884155 2.1884155 3.417862 5.15654 3.417862 8.251434l0 0c0 6.444771 -5.2245255 11.669289 -11.669296 11.669289l0 0c-6.444771 0 -11.669289 -5.224518 -11.669289 -11.669289z" fill-rule="evenodd"/><path fill="#000000" d="m257.86353 114.33071l0 0c0 -6.444771 5.224518 -11.669296 11.669281 -11.669296l0 0c3.0948792 0 6.063019 1.2294388 8.251434 3.417862c2.1884155 2.1884155 3.4178467 5.15654 3.4178467 8.251434l0 0c0 6.444771 -5.224518 11.669289 -11.669281 11.669289l0 0c-6.444763 0 -11.669281 -5.224518 -11.669281 -11.669289z" fill-rule="evenodd"/><path stroke="#000000" stroke-width="1.0" stroke-linejoin="round" stroke-linecap="butt" d="m257.86353 114.33071l0 0c0 -6.444771 5.224518 -11.669296 11.669281 -11.669296l0 0c3.0948792 0 6.063019 1.2294388 8.251434 3.417862c2.1884155 2.1884155 3.4178467 5.15654 3.4178467 8.251434l0 0c0 6.444771 -5.224518 11.669289 -11.669281 11.669289l0 0c-6.444763 0 -11.669281 -5.224518 -11.669281 -11.669289z" fill-rule="evenodd"/><path fill="#666666" d="m422.34384 114.33071l0 0c0 -6.444771 5.224518 -11.669296 11.669281 -11.669296l0 0c3.0948792 0 6.063019 1.2294388 8.251434 3.417862c2.1884155 2.1884155 3.4178467 5.15654 3.4178467 8.251434l0 0c0 6.444771 -5.224518 11.669289 -11.669281 11.669289l0 0c-6.444763 0 -11.669281 -5.224518 -11.669281 -11.669289z" fill-rule="evenodd"/><path stroke="#666666" stroke-width="1.0" stroke-linejoin="round" stroke-linecap="butt" d="m422.34384 114.33071l0 0c0 -6.444771 5.224518 -11.669296 11.669281 -11.669296l0 0c3.0948792 0 6.063019 1.2294388 8.251434 3.417862c2.1884155 2.1884155 3.4178467 5.15654 3.4178467 8.251434l0 0c0 6.444771 -5.224518 11.669289 -11.669281 11.669289l0 0c-6.444763 0 -11.669281 -5.224518 -11.669281 -11.669289z" fill-rule="evenodd"/><path fill="#000000" fill-opacity="0.0" d="m124.18898 114.33071l133.6693 0" fill-rule="evenodd"/><path stroke="#666666" stroke-width="3.0" stroke-linejoin="round" stroke-linecap="butt" stroke-dasharray="24.0,9.0" d="m124.18898 114.33071l133.6693 0" fill-rule="evenodd"/><path fill="#000000" fill-opacity="0.0" d="m281.2021 114.33071l141.13388 0" fill-rule="evenodd"/><path stroke="#666666" stroke-width="3.0" stroke-linejoin="round" stroke-linecap="butt" stroke-dasharray="24.0,9.0" d="m281.2021 114.33071l141.13388 0" fill-rule="evenodd"/><path fill="#000000" fill-opacity="0.0" d="m445.6824 114.33071l125.82681 0" fill-rule="evenodd"/><path stroke="#666666" stroke-width="3.0" stroke-linejoin="round" stroke-linecap="butt" stroke-dasharray="12.0,9.0" d="m445.6824 114.33071l125.82681 0" fill-rule="evenodd"/><path fill="#000000" fill-opacity="0.0" d="m100.850395 114.33071l-100.850395 0" fill-rule="evenodd"/><path stroke="#666666" stroke-width="3.0" stroke-linejoin="round" stroke-linecap="butt" stroke-dasharray="12.0,9.0" d="m100.850395 114.33071l-100.850395 0" fill-rule="evenodd"/><path fill="#000000" d="m100.850395 240.3307l0 0c0 -6.444763 5.224518 -11.669281 11.669289 -11.669281l0 0c3.0948868 0 6.063019 1.2294312 8.251434 3.4178467c2.1884155 2.1884155 3.417862 5.156555 3.417862 8.251434l0 0c0 6.4447784 -5.2245255 11.669296 -11.669296 11.669296l0 0c-6.444771 0 -11.669289 -5.224518 -11.669289 -11.669296z" fill-rule="evenodd"/><path stroke="#000000" stroke-width="1.0" stroke-linejoin="round" stroke-linecap="butt" d="m100.850395 240.3307l0 0c0 -6.444763 5.224518 -11.669281 11.669289 -11.669281l0 0c3.0948868 0 6.063019 1.2294312 8.251434 3.4178467c2.1884155 2.1884155 3.417862 5.156555 3.417862 8.251434l0 0c0 6.4447784 -5.2245255 11.669296 -11.669296 11.669296l0 0c-6.444771 0 -11.669289 -5.224518 -11.669289 -11.669296z" fill-rule="evenodd"/><path fill="#000000" d="m257.86353 240.3307l0 0c0 -6.444763 5.224518 -11.669281 11.669281 -11.669281l0 0c3.0948792 0 6.063019 1.2294312 8.251434 3.4178467c2.1884155 2.1884155 3.4178467 5.156555 3.4178467 8.251434l0 0c0 6.4447784 -5.224518 11.669296 -11.669281 11.669296l0 0c-6.444763 0 -11.669281 -5.224518 -11.669281 -11.669296z" fill-rule="evenodd"/><path stroke="#000000" stroke-width="1.0" stroke-linejoin="round" stroke-linecap="butt" d="m257.86353 240.3307l0 0c0 -6.444763 5.224518 -11.669281 11.669281 -11.669281l0 0c3.0948792 0 6.063019 1.2294312 8.251434 3.4178467c2.1884155 2.1884155 3.4178467 5.156555 3.4178467 8.251434l0 0c0 6.4447784 -5.224518 11.669296 -11.669281 11.669296l0 0c-6.444763 0 -11.669281 -5.224518 -11.669281 -11.669296z" fill-rule="evenodd"/><path fill="#000000" d="m422.34384 240.3307l0 0c0 -6.444763 5.224518 -11.669281 11.669281 -11.669281l0 0c3.0948792 0 6.063019 1.2294312 8.251434 3.4178467c2.1884155 2.1884155 3.4178467 5.156555 3.4178467 8.251434l0 0c0 6.4447784 -5.224518 11.669296 -11.669281 11.669296l0 0c-6.444763 0 -11.669281 -5.224518 -11.669281 -11.669296z" fill-rule="evenodd"/><path stroke="#000000" stroke-width="1.0" stroke-linejoin="round" stroke-linecap="butt" d="m422.34384 240.3307l0 0c0 -6.444763 5.224518 -11.669281 11.669281 -11.669281l0 0c3.0948792 0 6.063019 1.2294312 8.251434 3.4178467c2.1884155 2.1884155 3.4178467 5.156555 3.4178467 8.251434l0 0c0 6.4447784 -5.224518 11.669296 -11.669281 11.669296l0 0c-6.444763 0 -11.669281 -5.224518 -11.669281 -11.669296z" fill-rule="evenodd"/><path fill="#000000" fill-opacity="0.0" d="m124.18898 240.3307l133.6693 0" fill-rule="evenodd"/><path stroke="#000000" stroke-width="3.0" stroke-linejoin="round" stroke-linecap="butt" d="m124.18898 240.3307l133.6693 0" fill-rule="evenodd"/><path fill="#000000" fill-opacity="0.0" d="m281.2021 240.3307l141.13388 0" fill-rule="evenodd"/><path stroke="#000000" stroke-width="3.0" stroke-linejoin="round" stroke-linecap="butt" d="m281.2021 240.3307l141.13388 0" fill-rule="evenodd"/><path fill="#000000" fill-opacity="0.0" d="m445.6824 240.3307l125.82681 0" fill-rule="evenodd"/><path stroke="#666666" stroke-width="3.0" stroke-linejoin="round" stroke-linecap="butt" stroke-dasharray="12.0,9.0" d="m445.6824 240.3307l125.82681 0" fill-rule="evenodd"/><path fill="#000000" fill-opacity="0.0" d="m100.850395 240.3307l-100.850395 0" fill-rule="evenodd"/><path stroke="#666666" stroke-width="3.0" stroke-linejoin="round" stroke-linecap="butt" stroke-dasharray="12.0,9.0" d="m100.850395 240.3307l-100.850395 0" fill-rule="evenodd"/><path fill="#666666" d="m100.850395 366.33072l0 0c0 -6.4447937 5.224518 -11.669312 11.669289 -11.669312l0 0c3.0948868 0 6.063019 1.2294617 8.251434 3.4178772c2.1884155 2.1884155 3.417862 5.1565247 3.417862 8.251434l0 0c0 6.444763 -5.2245255 11.669281 -11.669296 11.669281l0 0c-6.444771 0 -11.669289 -5.224518 -11.669289 -11.669281z" fill-rule="evenodd"/><path stroke="#666666" stroke-width="1.0" stroke-linejoin="round" stroke-linecap="butt" d="m100.850395 366.33072l0 0c0 -6.4447937 5.224518 -11.669312 11.669289 -11.669312l0 0c3.0948868 0 6.063019 1.2294617 8.251434 3.4178772c2.1884155 2.1884155 3.417862 5.1565247 3.417862 8.251434l0 0c0 6.444763 -5.2245255 11.669281 -11.669296 11.669281l0 0c-6.444771 0 -11.669289 -5.224518 -11.669289 -11.669281z" fill-rule="evenodd"/><path fill="#000000" d="m257.86353 366.33072l0 0c0 -6.4447937 5.224518 -11.669312 11.669281 -11.669312l0 0c3.0948792 0 6.063019 1.2294617 8.251434 3.4178772c2.1884155 2.1884155 3.4178467 5.1565247 3.4178467 8.251434l0 0c0 6.444763 -5.224518 11.669281 -11.669281 11.669281l0 0c-6.444763 0 -11.669281 -5.224518 -11.669281 -11.669281z" fill-rule="evenodd"/><path stroke="#000000" stroke-width="1.0" stroke-linejoin="round" stroke-linecap="butt" d="m257.86353 366.33072l0 0c0 -6.4447937 5.224518 -11.669312 11.669281 -11.669312l0 0c3.0948792 0 6.063019 1.2294617 8.251434 3.4178772c2.1884155 2.1884155 3.4178467 5.1565247 3.4178467 8.251434l0 0c0 6.444763 -5.224518 11.669281 -11.669281 11.669281l0 0c-6.444763 0 -11.669281 -5.224518 -11.669281 -11.669281z" fill-rule="evenodd"/><path fill="#666666" d="m422.34384 366.33072l0 0c0 -6.4447937 5.224518 -11.669312 11.669281 -11.669312l0 0c3.0948792 0 6.063019 1.2294617 8.251434 3.4178772c2.1884155 2.1884155 3.4178467 5.1565247 3.4178467 8.251434l0 0c0 6.444763 -5.224518 11.669281 -11.669281 11.669281l0 0c-6.444763 0 -11.669281 -5.224518 -11.669281 -11.669281z" fill-rule="evenodd"/><path stroke="#666666" stroke-width="1.0" stroke-linejoin="round" stroke-linecap="butt" d="m422.34384 366.33072l0 0c0 -6.4447937 5.224518 -11.669312 11.669281 -11.669312l0 0c3.0948792 0 6.063019 1.2294617 8.251434 3.4178772c2.1884155 2.1884155 3.4178467 5.1565247 3.4178467 8.251434l0 0c0 6.444763 -5.224518 11.669281 -11.669281 11.669281l0 0c-6.444763 0 -11.669281 -5.224518 -11.669281 -11.669281z" fill-rule="evenodd"/><path fill="#000000" fill-opacity="0.0" d="m124.18898 366.33072l133.6693 0" fill-rule="evenodd"/><path stroke="#666666" stroke-width="3.0" stroke-linejoin="round" stroke-linecap="butt" stroke-dasharray="24.0,9.0" d="m124.18898 366.33072l133.6693 0" fill-rule="evenodd"/><path fill="#000000" fill-opacity="0.0" d="m281.2021 366.33072l141.13388 0" fill-rule="evenodd"/><path stroke="#666666" stroke-width="3.0" stroke-linejoin="round" stroke-linecap="butt" stroke-dasharray="24.0,9.0" d="m281.2021 366.33072l141.13388 0" fill-rule="evenodd"/><path fill="#000000" fill-opacity="0.0" d="m445.6824 366.33072l125.82681 0" fill-rule="evenodd"/><path stroke="#666666" stroke-width="3.0" stroke-linejoin="round" stroke-linecap="butt" stroke-dasharray="12.0,9.0" d="m445.6824 366.33072l125.82681 0" fill-rule="evenodd"/><path fill="#000000" fill-opacity="0.0" d="m100.850395 366.33072l-100.850395 0" fill-rule="evenodd"/><path stroke="#666666" stroke-width="3.0" stroke-linejoin="round" stroke-linecap="butt" stroke-dasharray="12.0,9.0" d="m100.850395 366.33072l-100.850395 0" fill-rule="evenodd"/><path fill="#000000" fill-opacity="0.0" d="m112.519684 126.0l0 102.67717" fill-rule="evenodd"/><path stroke="#666666" stroke-width="3.0" stroke-linejoin="round" stroke-linecap="butt" stroke-dasharray="24.0,9.0" d="m112.519684 126.0l0 102.67717" fill-rule="evenodd"/><path fill="#000000" fill-opacity="0.0" d="m112.519684 252.0l0 102.677155" fill-rule="evenodd"/><path stroke="#666666" stroke-width="3.0" stroke-linejoin="round" stroke-linecap="butt" stroke-dasharray="24.0,9.0" d="m112.519684 252.0l0 102.677155" fill-rule="evenodd"/><path fill="#000000" fill-opacity="0.0" d="m269.5328 252.0l0 102.677155" fill-rule="evenodd"/><path stroke="#000000" stroke-width="3.0" stroke-linejoin="round" stroke-linecap="butt" d="m269.5328 252.0l0 102.677155" fill-rule="evenodd"/><path fill="#000000" fill-opacity="0.0" d="m269.5328 126.0l0 102.67717" fill-rule="evenodd"/><path stroke="#000000" stroke-width="3.0" stroke-linejoin="round" stroke-linecap="butt" d="m269.5328 126.0l0 102.67717" fill-rule="evenodd"/><path fill="#000000" fill-opacity="0.0" d="m434.01312 126.0l0 102.67717" fill-rule="evenodd"/><path stroke="#666666" stroke-width="3.0" stroke-linejoin="round" stroke-linecap="butt" stroke-dasharray="24.0,9.0" d="m434.01312 126.0l0 102.67717" fill-rule="evenodd"/><path fill="#000000" fill-opacity="0.0" d="m434.01312 252.0l0 102.677155" fill-rule="evenodd"/><path stroke="#666666" stroke-width="3.0" stroke-linejoin="round" stroke-linecap="butt" stroke-dasharray="24.0,9.0" d="m434.01312 252.0l0 102.677155" fill-rule="evenodd"/><path fill="#000000" fill-opacity="0.0" d="m112.519684 378.0l0 114.33072" fill-rule="evenodd"/><path stroke="#666666" stroke-width="3.0" stroke-linejoin="round" stroke-linecap="butt" stroke-dasharray="12.0,9.0" d="m112.519684 378.0l0 114.33072" fill-rule="evenodd"/><path fill="#000000" fill-opacity="0.0" d="m269.5328 378.0l0 114.33072" fill-rule="evenodd"/><path stroke="#666666" stroke-width="3.0" stroke-linejoin="round" stroke-linecap="butt" stroke-dasharray="12.0,9.0" d="m269.5328 378.0l0 114.33072" fill-rule="evenodd"/><path fill="#000000" fill-opacity="0.0" d="m434.01312 378.0l0 114.33072" fill-rule="evenodd"/><path stroke="#666666" stroke-width="3.0" stroke-linejoin="round" stroke-linecap="butt" stroke-dasharray="12.0,9.0" d="m434.01312 378.0l0 114.33072" fill-rule="evenodd"/><path fill="#000000" fill-opacity="0.0" d="m434.01312 -0.015748031l0 102.67716" fill-rule="evenodd"/><path stroke="#666666" stroke-width="3.0" stroke-linejoin="round" stroke-linecap="butt" stroke-dasharray="12.0,9.0" d="m434.01312 -0.015748031l0 102.67716" fill-rule="evenodd"/><path fill="#000000" fill-opacity="0.0" d="m269.5328 -0.015748031l0 102.67716" fill-rule="evenodd"/><path stroke="#666666" stroke-width="3.0" stroke-linejoin="round" stroke-linecap="butt" stroke-dasharray="12.0,9.0" d="m269.5328 -0.015748031l0 102.67716" fill-rule="evenodd"/><path fill="#000000" fill-opacity="0.0" d="m112.519684 -0.015748031l0 102.67716" fill-rule="evenodd"/><path stroke="#666666" stroke-width="3.0" stroke-linejoin="round" stroke-linecap="butt" stroke-dasharray="12.0,9.0" d="m112.519684 -0.015748031l0 102.67716" fill-rule="evenodd"/><path fill="#000000" fill-opacity="0.0" d="m272.55103 190.30379l72.88187 0l0 45.259842l-72.88187 0z" fill-rule="evenodd"/><path fill="#ff0000" d="m282.9729 210.75255l0.140625 -0.6875q0.421875 -0.046875 0.640625 -0.109375q0.21875 -0.0625 0.375 -0.171875q0.15625 -0.125 0.28125 -0.390625q0.140625 -0.28125 0.296875 -0.859375q0.265625 -0.984375 0.65625 -1.625q0.390625 -0.65625 1.03125 -1.140625q0.640625 -0.484375 1.484375 -0.703125q0.84375 -0.234375 1.875 -0.234375q0.40625 0 0.875 0.03125q0.46875 0.03125 1.078125 0.15625l-0.46875 2.078125l-1.34375 0q-0.046875 -0.640625 -0.21875 -0.90625q-0.15625 -0.28125 -0.515625 -0.28125q-0.234375 0 -0.421875 0.09375q-0.1875 0.09375 -0.375 0.34375q-0.171875 0.234375 -0.328125 0.6875q-0.15625 0.453125 -0.34375 1.28125l-0.25 1.140625l1.96875 0l-0.28125 1.296875l-1.984375 0l-1.890625 8.703125q-0.359375 1.6875 -1.03125 2.78125q-0.65625 1.09375 -1.703125 1.640625q-1.046875 0.5625 -2.578125 0.5625q-0.484375 0 -0.984375 -0.140625l0.28125 -1.125q0.296875 0.078125 0.6875 0.078125q0.46875 0 0.765625 -0.140625q0.296875 -0.125 0.546875 -0.4375q0.234375 -0.3125 0.4375 -0.9375q0.203125 -0.609375 0.453125 -1.71875l2.09375 -9.265625l-1.25 0z" fill-rule="nonzero"/><path fill="#ff0000" d="m295.92957 222.2213q0.59375 -0.75 1.171875 -1.09375q0.59375 -0.34375 1.328125 -0.34375q0.71875 0 1.109375 0.40625q0.40625 0.390625 0.40625 1.09375q0 0.453125 -0.140625 1.078125l-0.5625 2.5625q-0.078125 0.328125 -0.109375 0.5q-0.015625 0.171875 -0.015625 0.296875q0 0.3125 0.15625 0.4375q0.15625 0.125 0.546875 0.171875l-0.09375 0.453125l-2.875 0l0.953125 -4.171875q0.078125 -0.328125 0.109375 -0.53125q0.046875 -0.21875 0.0625 -0.359375q0.015625 -0.15625 0.015625 -0.28125q0 -0.3125 -0.125 -0.46875q-0.125 -0.171875 -0.375 -0.171875q-0.21875 0 -0.484375 0.1875q-0.265625 0.171875 -0.59375 0.515625q-0.3125 0.34375 -0.515625 0.734375q-0.1875 0.390625 -0.296875 0.984375l-0.765625 3.5625l-2.0 0l1.0 -4.359375q0.0625 -0.265625 0.09375 -0.4375q0.03125 -0.171875 0.03125 -0.28125q0.015625 -0.125 0.015625 -0.21875q0 -0.359375 -0.125 -0.515625q-0.125 -0.171875 -0.390625 -0.171875q-0.328125 0 -0.78125 0.421875q-0.453125 0.421875 -0.71875 0.875q-0.25 0.4375 -0.390625 1.125l-0.75 3.5625l-2.0 0l1.09375 -4.90625q0.03125 -0.15625 0.09375 -0.46875q0.0625 -0.3125 0.0625 -0.515625q0 -0.296875 -0.171875 -0.40625q-0.15625 -0.109375 -0.515625 -0.125l0.109375 -0.46875l1.90625 -0.078125l0.734375 0l-0.390625 1.5l0.078125 0.03125q0.484375 -0.59375 0.890625 -0.921875q0.40625 -0.34375 0.8125 -0.484375q0.40625 -0.15625 0.890625 -0.15625q0.703125 0 1.09375 0.390625q0.40625 0.375 0.421875 1.046875zm15.259857 5.5625l-2.875 0l0.859375 -3.78125q0.1875 -0.796875 0.21875 -1.09375q0.046875 -0.3125 0.046875 -0.484375q0 -0.3125 -0.125 -0.46875q-0.125 -0.15625 -0.375 -0.15625q-0.234375 0 -0.5 0.171875q-0.25 0.15625 -0.578125 0.515625q-0.328125 0.359375 -0.53125 0.75q-0.1875 0.390625 -0.3125 0.984375l-0.75 3.5625l-2.0 0l1.09375 -4.90625q0.03125 -0.15625 0.09375 -0.46875q0.0625 -0.3125 0.0625 -0.515625q0 -0.296875 -0.171875 -0.40625q-0.15625 -0.109375 -0.515625 -0.125l0.109375 -0.46875l1.90625 -0.078125l0.734375 0l-0.390625 1.5l0.078125 0.03125q0.484375 -0.59375 0.890625 -0.921875q0.40625 -0.34375 0.8125 -0.484375q0.40625 -0.15625 0.90625 -0.15625q0.703125 0 1.109375 0.40625q0.421875 0.390625 0.421875 1.09375q0 0.453125 -0.140625 1.078125l-0.578125 2.5625q-0.0625 0.328125 -0.09375 0.5q-0.015625 0.171875 -0.015625 0.296875q0 0.3125 0.15625 0.4375q0.15625 0.125 0.53125 0.171875l-0.078125 0.453125z" fill-rule="nonzero"/><path fill="#000000" fill-opacity="0.0" d="m272.27435 316.33792l82.17325 0l0 45.259827l-82.17325 0z" fill-rule="evenodd"/><path fill="#000000" d="m282.69623 336.78665l0.140625 -0.6875q0.421875 -0.046875 0.640625 -0.109375q0.21875 -0.0625 0.375 -0.171875q0.15625 -0.125 0.28125 -0.390625q0.140625 -0.28125 0.296875 -0.859375q0.265625 -0.984375 0.65625 -1.625q0.390625 -0.65625 1.03125 -1.140625q0.640625 -0.484375 1.484375 -0.703125q0.84375 -0.234375 1.875 -0.234375q0.40625 0 0.875 0.03125q0.46875 0.03125 1.078125 0.15625l-0.46875 2.078125l-1.34375 0q-0.046875 -0.640625 -0.21875 -0.90625q-0.15625 -0.28125 -0.515625 -0.28125q-0.234375 0 -0.421875 0.09375q-0.1875 0.09375 -0.375 0.34375q-0.171875 0.234375 -0.328125 0.6875q-0.15625 0.453125 -0.34375 1.28125l-0.25 1.140625l1.96875 0l-0.28125 1.296875l-1.984375 0l-1.890625 8.703125q-0.359375 1.6875 -1.03125 2.78125q-0.65625 1.09375 -1.703125 1.640625q-1.046875 0.5625 -2.578125 0.5625q-0.484375 0 -0.984375 -0.140625l0.28125 -1.125q0.296875 0.078125 0.6875 0.078125q0.46875 0 0.765625 -0.140625q0.296875 -0.125 0.546875 -0.4375q0.234375 -0.3125 0.4375 -0.9375q0.203125 -0.609375 0.453125 -1.71875l2.09375 -9.265625l-1.25 0z" fill-rule="nonzero"/><path fill="#000000" d="m295.6529 348.2554q0.59375 -0.75 1.171875 -1.09375q0.59375 -0.34375 1.328125 -0.34375q0.71875 0 1.109375 0.40625q0.40625 0.390625 0.40625 1.09375q0 0.453125 -0.140625 1.078125l-0.5625 2.5625q-0.078125 0.328125 -0.109375 0.5q-0.015625 0.171875 -0.015625 0.296875q0 0.3125 0.15625 0.4375q0.15625 0.125 0.546875 0.171875l-0.09375 0.453125l-2.875 0l0.953125 -4.171875q0.078125 -0.328125 0.109375 -0.53125q0.046875 -0.21875 0.0625 -0.359375q0.015625 -0.15625 0.015625 -0.28125q0 -0.3125 -0.125 -0.46875q-0.125 -0.171875 -0.375 -0.171875q-0.21875 0 -0.484375 0.1875q-0.265625 0.171875 -0.59375 0.515625q-0.3125 0.34375 -0.515625 0.734375q-0.1875 0.390625 -0.296875 0.984375l-0.765625 3.5625l-2.0 0l1.0 -4.359375q0.0625 -0.265625 0.09375 -0.4375q0.03125 -0.171875 0.03125 -0.28125q0.015625 -0.125 0.015625 -0.21875q0 -0.359375 -0.125 -0.515625q-0.125 -0.171875 -0.390625 -0.171875q-0.328125 0 -0.78125 0.421875q-0.453125 0.421875 -0.71875 0.875q-0.25 0.4375 -0.390625 1.125l-0.75 3.5625l-2.0 0l1.09375 -4.90625q0.03125 -0.15625 0.09375 -0.46875q0.0625 -0.3125 0.0625 -0.515625q0 -0.296875 -0.171875 -0.40625q-0.15625 -0.109375 -0.515625 -0.125l0.109375 -0.46875l1.90625 -0.078125l0.734375 0l-0.390625 1.5l0.078125 0.03125q0.484375 -0.59375 0.890625 -0.921875q0.40625 -0.34375 0.8125 -0.484375q0.40625 -0.15625 0.890625 -0.15625q0.703125 0 1.09375 0.390625q0.40625 0.375 0.421875 1.046875zm9.581879 2.1875l-0.59375 2.6875l-1.453125 0l0.59375 -2.6875l-2.484375 0l0.296875 -1.359375l2.484375 0l0.59375 -2.703125l1.453125 0l-0.59375 2.703125l2.484375 0l-0.3125 1.359375l-2.46875 0zm8.378082 1.203125q-0.125 0.609375 -0.125 0.859375q0 0.265625 0.15625 0.421875q0.15625 0.140625 0.5 0.203125q0.34375 0.046875 1.015625 0.0625l-0.125 0.625l-5.71875 0l0.140625 -0.625q0.75 -0.046875 1.078125 -0.109375q0.34375 -0.0625 0.515625 -0.1875q0.1875 -0.140625 0.296875 -0.359375q0.109375 -0.21875 0.234375 -0.78125l1.0 -4.53125q0.078125 -0.34375 0.078125 -0.5625q0 -0.203125 -0.09375 -0.296875q-0.078125 -0.09375 -0.21875 -0.09375q-0.140625 0 -0.3125 0.0625q-0.15625 0.046875 -0.40625 0.171875q-0.234375 0.125 -0.9375 0.515625l-0.34375 -0.71875l3.984375 -2.078125l0.953125 0q-0.203125 0.734375 -0.4375 1.859375l-1.234375 5.5625zm13.587311 2.171875l-2.875 0l0.859375 -3.78125q0.1875 -0.796875 0.21875 -1.09375q0.046875 -0.3125 0.046875 -0.484375q0 -0.3125 -0.125 -0.46875q-0.125 -0.15625 -0.375 -0.15625q-0.234375 0 -0.5 0.171875q-0.25 0.15625 -0.578125 0.515625q-0.328125 0.359375 -0.53125 0.75q-0.1875 0.390625 -0.3125 0.984375l-0.75 3.5625l-2.0 0l1.09375 -4.90625q0.03125 -0.15625 0.09375 -0.46875q0.0625 -0.3125 0.0625 -0.515625q0 -0.296875 -0.171875 -0.40625q-0.15625 -0.109375 -0.515625 -0.125l0.109375 -0.46875l1.90625 -0.078125l0.734375 0l-0.390625 1.5l0.078125 0.03125q0.484375 -0.59375 0.890625 -0.921875q0.40625 -0.34375 0.8125 -0.484375q0.40625 -0.15625 0.90625 -0.15625q0.703125 0 1.109375 0.40625q0.421875 0.390625 0.421875 1.09375q0 0.453125 -0.140625 1.078125l-0.578125 2.5625q-0.0625 0.328125 -0.09375 0.5q-0.015625 0.171875 -0.015625 0.296875q0 0.3125 0.15625 0.4375q0.15625 0.125 0.53125 0.171875l-0.078125 0.453125z" fill-rule="nonzero"/><path fill="#000000" fill-opacity="0.0" d="m270.13364 62.14615l72.8819 0l0 45.259842l-72.8819 0z" fill-rule="evenodd"/><path fill="#000000" d="m280.5555 82.594894l0.140625 -0.6875q0.421875 -0.046875 0.640625 -0.109375q0.21875 -0.0625 0.375 -0.171875q0.15625 -0.125 0.28125 -0.390625q0.140625 -0.28125 0.296875 -0.859375q0.265625 -0.984375 0.65625 -1.625q0.390625 -0.65625 1.03125 -1.140625q0.640625 -0.484375 1.484375 -0.703125q0.84375 -0.234375 1.875 -0.234375q0.40625 0 0.875 0.03125q0.46875 0.03125 1.078125 0.15625l-0.46875 2.078125l-1.34375 0q-0.046875 -0.640625 -0.21875 -0.90625q-0.15625 -0.28125 -0.515625 -0.28125q-0.234375 0 -0.421875 0.09375q-0.1875 0.09375 -0.375 0.34375q-0.171875 0.234375 -0.328125 0.6875q-0.15625 0.453125 -0.34375 1.28125l-0.25 1.140625l1.96875 0l-0.28125 1.296875l-1.984375 0l-1.890625 8.703125q-0.359375 1.6875 -1.03125 2.78125q-0.65625 1.09375 -1.703125 1.640625q-1.046875 0.5625 -2.578125 0.5625q-0.484375 0 -0.984375 -0.140625l0.28125 -1.125q0.296875 0.078125 0.6875 0.078125q0.46875 0 0.765625 -0.140625q0.296875 -0.125 0.546875 -0.4375q0.234375 -0.3125 0.4375 -0.9375q0.203125 -0.609375 0.453125 -1.71875l2.09375 -9.265625l-1.25 0z" fill-rule="nonzero"/><path fill="#000000" d="m293.51218 94.063644q0.59375 -0.75 1.171875 -1.09375q0.59375 -0.34375 1.328125 -0.34375q0.71875 0 1.109375 0.40625q0.40625 0.390625 0.40625 1.09375q0 0.453125 -0.140625 1.078125l-0.5625 2.5625q-0.078125 0.328125 -0.109375 0.5q-0.015625 0.171875 -0.015625 0.296875q0 0.3125 0.15625 0.4375q0.15625 0.125 0.546875 0.171875l-0.09375 0.453125l-2.875 0l0.953125 -4.171875q0.078125 -0.328125 0.109375 -0.53125q0.046875 -0.21875 0.0625 -0.359375q0.015625 -0.15625 0.015625 -0.28125q0 -0.3125 -0.125 -0.46875q-0.125 -0.171875 -0.375 -0.171875q-0.21875 0 -0.484375 0.1875q-0.265625 0.171875 -0.59375 0.515625q-0.3125 0.34375 -0.515625 0.734375q-0.1875 0.390625 -0.296875 0.984375l-0.765625 3.5625l-2.0 0l1.0 -4.359375q0.0625 -0.265625 0.09375 -0.4375q0.03125 -0.171875 0.03125 -0.28125q0.015625 -0.125 0.015625 -0.21875q0 -0.359375 -0.125 -0.515625q-0.125 -0.171875 -0.390625 -0.171875q-0.328125 0 -0.78125 0.421875q-0.453125 0.421875 -0.71875 0.875q-0.25 0.4375 -0.390625 1.125l-0.75 3.5625l-2.0 0l1.09375 -4.90625q0.03125 -0.15625 0.09375 -0.46875q0.0625 -0.3125 0.0625 -0.515625q0 -0.296875 -0.171875 -0.40625q-0.15625 -0.109375 -0.515625 -0.125l0.109375 -0.46875l1.90625 -0.078125l0.734375 0l-0.390625 1.5l0.078125 0.03125q0.484375 -0.59375 0.890625 -0.921875q0.40625 -0.34375 0.8125 -0.484375q0.40625 -0.15625 0.890625 -0.15625q0.703125 0 1.09375 0.390625q0.40625 0.375 0.421875 1.046875zm8.597504 2.453125l-3.125 0l0.3125 -1.453125l3.125 0l-0.3125 1.453125zm5.8425293 0.9375q-0.125 0.609375 -0.125 0.859375q0 0.265625 0.15625 0.421875q0.15625 0.140625 0.5 0.203125q0.34375 0.046875 1.015625 0.0625l-0.125 0.625l-5.71875 0l0.140625 -0.625q0.75 -0.046875 1.078125 -0.109375q0.34375 -0.0625 0.515625 -0.1875q0.1875 -0.140625 0.296875 -0.359375q0.109375 -0.21875 0.234375 -0.78125l1.0 -4.53125q0.078125 -0.34375 0.078125 -0.5625q0 -0.203125 -0.09375 -0.296875q-0.078125 -0.09375 -0.21875 -0.09375q-0.140625 0 -0.3125 0.0625q-0.15625 0.046875 -0.40625 0.171875q-0.234375 0.125 -0.9375 0.515625l-0.34375 -0.71875l3.984375 -2.078125l0.953125 0q-0.203125 0.734375 -0.4375 1.859375l-1.234375 5.5625zm13.587341 2.171875l-2.875 0l0.859375 -3.78125q0.1875 -0.796875 0.21875 -1.09375q0.046875 -0.3125 0.046875 -0.484375q0 -0.3125 -0.125 -0.46875q-0.125 -0.15625 -0.375 -0.15625q-0.234375 0 -0.5 0.171875q-0.25 0.15625 -0.578125 0.515625q-0.328125 0.359375 -0.53125 0.75q-0.1875 0.390625 -0.3125 0.984375l-0.75 3.5625l-2.0 0l1.09375 -4.90625q0.03125 -0.15625 0.09375 -0.46875q0.0625 -0.3125 0.0625 -0.515625q0 -0.296875 -0.171875 -0.40625q-0.15625 -0.109375 -0.515625 -0.125l0.109375 -0.46875l1.90625 -0.078125l0.734375 0l-0.390625 1.5l0.078125 0.03125q0.484375 -0.59375 0.890625 -0.921875q0.40625 -0.34375 0.8125 -0.484375q0.40625 -0.15625 0.90625 -0.15625q0.703125 0 1.109375 0.40625q0.421875 0.390625 0.421875 1.09375q0 0.453125 -0.140625 1.078125l-0.578125 2.5625q-0.0625 0.328125 -0.09375 0.5q-0.015625 0.171875 -0.015625 0.296875q0 0.3125 0.15625 0.4375q0.15625 0.125 0.53125 0.171875l-0.078125 0.453125z" fill-rule="nonzero"/><path fill="#000000" fill-opacity="0.0" d="m435.07806 190.28755l77.322815 0l0 45.259842l-77.322815 0z" fill-rule="evenodd"/><path fill="#000000" d="m445.49994 210.7363l0.140625 -0.6875q0.421875 -0.046875 0.640625 -0.109375q0.21875 -0.0625 0.375 -0.171875q0.15625 -0.125 0.28125 -0.390625q0.140625 -0.28125 0.296875 -0.859375q0.265625 -0.984375 0.65625 -1.625q0.390625 -0.65625 1.03125 -1.140625q0.640625 -0.484375 1.484375 -0.703125q0.84375 -0.234375 1.875 -0.234375q0.40625 0 0.875 0.03125q0.46875 0.03125 1.078125 0.15625l-0.46875 2.078125l-1.34375 0q-0.046875 -0.640625 -0.21875 -0.90625q-0.15625 -0.28125 -0.515625 -0.28125q-0.234375 0 -0.421875 0.09375q-0.1875 0.09375 -0.375 0.34375q-0.171875 0.234375 -0.328125 0.6875q-0.15625 0.453125 -0.34375 1.28125l-0.25 1.140625l1.96875 0l-0.28125 1.296875l-1.984375 0l-1.890625 8.703125q-0.359375 1.6875 -1.03125 2.78125q-0.65625 1.09375 -1.703125 1.640625q-1.046875 0.5625 -2.578125 0.5625q-0.484375 0 -0.984375 -0.140625l0.28125 -1.125q0.296875 0.078125 0.6875 0.078125q0.46875 0 0.765625 -0.140625q0.296875 -0.125 0.546875 -0.4375q0.234375 -0.3125 0.4375 -0.9375q0.203125 -0.609375 0.453125 -1.71875l2.09375 -9.265625l-1.25 0z" fill-rule="nonzero"/><path fill="#000000" d="m458.4566 222.20505q0.59375 -0.75 1.171875 -1.09375q0.59375 -0.34375 1.328125 -0.34375q0.71875 0 1.109375 0.40625q0.40625 0.390625 0.40625 1.09375q0 0.453125 -0.140625 1.078125l-0.5625 2.5625q-0.078125 0.328125 -0.109375 0.5q-0.015625 0.171875 -0.015625 0.296875q0 0.3125 0.15625 0.4375q0.15625 0.125 0.546875 0.171875l-0.09375 0.453125l-2.875 0l0.953125 -4.171875q0.078125 -0.328125 0.109375 -0.53125q0.046875 -0.21875 0.0625 -0.359375q0.015625 -0.15625 0.015625 -0.28125q0 -0.3125 -0.125 -0.46875q-0.125 -0.171875 -0.375 -0.171875q-0.21875 0 -0.484375 0.1875q-0.265625 0.171875 -0.59375 0.515625q-0.3125 0.34375 -0.515625 0.734375q-0.1875 0.390625 -0.296875 0.984375l-0.765625 3.5625l-2.0 0l1.0 -4.359375q0.0625 -0.265625 0.09375 -0.4375q0.03125 -0.171875 0.03125 -0.28125q0.015625 -0.125 0.015625 -0.21875q0 -0.359375 -0.125 -0.515625q-0.125 -0.171875 -0.390625 -0.171875q-0.328125 0 -0.78125 0.421875q-0.453125 0.421875 -0.71875 0.875q-0.25 0.4375 -0.390625 1.125l-0.75 3.5625l-2.0 0l1.09375 -4.90625q0.03125 -0.15625 0.09375 -0.46875q0.0625 -0.3125 0.0625 -0.515625q0 -0.296875 -0.171875 -0.40625q-0.15625 -0.109375 -0.515625 -0.125l0.109375 -0.46875l1.90625 -0.078125l0.734375 0l-0.390625 1.5l0.078125 0.03125q0.484375 -0.59375 0.890625 -0.921875q0.40625 -0.34375 0.8125 -0.484375q0.40625 -0.15625 0.890625 -0.15625q0.703125 0 1.09375 0.390625q0.40625 0.375 0.421875 1.046875zm15.259857 5.5625l-2.875 0l0.859375 -3.78125q0.1875 -0.796875 0.21875 -1.09375q0.046875 -0.3125 0.046875 -0.484375q0 -0.3125 -0.125 -0.46875q-0.125 -0.15625 -0.375 -0.15625q-0.234375 0 -0.5 0.171875q-0.25 0.15625 -0.578125 0.515625q-0.328125 0.359375 -0.53125 0.75q-0.1875 0.390625 -0.3125 0.984375l-0.75 3.5625l-2.0 0l1.09375 -4.90625q0.03125 -0.15625 0.09375 -0.46875q0.0625 -0.3125 0.0625 -0.515625q0 -0.296875 -0.171875 -0.40625q-0.15625 -0.109375 -0.515625 -0.125l0.109375 -0.46875l1.90625 -0.078125l0.734375 0l-0.390625 1.5l0.078125 0.03125q0.484375 -0.59375 0.890625 -0.921875q0.40625 -0.34375 0.8125 -0.484375q0.40625 -0.15625 0.90625 -0.15625q0.703125 0 1.109375 0.40625q0.421875 0.390625 0.421875 1.09375q0 0.453125 -0.140625 1.078125l-0.578125 2.5625q-0.0625 0.328125 -0.09375 0.5q-0.015625 0.171875 -0.015625 0.296875q0 0.3125 0.15625 0.4375q0.15625 0.125 0.53125 0.171875l-0.078125 0.453125zm5.7773438 -3.375l-0.59375 2.6875l-1.453125 0l0.59375 -2.6875l-2.484375 0l0.296875 -1.359375l2.484375 0l0.59375 -2.703125l1.453125 0l-0.59375 2.703125l2.484375 0l-0.3125 1.359375l-2.46875 0zm8.378082 1.203125q-0.125 0.609375 -0.125 0.859375q0 0.265625 0.15625 0.421875q0.15625 0.140625 0.5 0.203125q0.34375 0.046875 1.015625 0.0625l-0.125 0.625l-5.71875 0l0.140625 -0.625q0.75 -0.046875 1.078125 -0.109375q0.34375 -0.0625 0.515625 -0.1875q0.1875 -0.140625 0.296875 -0.359375q0.109375 -0.21875 0.234375 -0.78125l1.0 -4.53125q0.078125 -0.34375 0.078125 -0.5625q0 -0.203125 -0.09375 -0.296875q-0.078125 -0.09375 -0.21875 -0.09375q-0.140625 0 -0.3125 0.0625q-0.15625 0.046875 -0.40625 0.171875q-0.234375 0.125 -0.9375 0.515625l-0.34375 -0.71875l3.984375 -2.078125l0.953125 0q-0.203125 0.734375 -0.4375 1.859375l-1.234375 5.5625z" fill-rule="nonzero"/><path fill="#000000" fill-opacity="0.0" d="m114.27916 186.00525l82.17323 0l0 45.259842l-82.17323 0z" fill-rule="evenodd"/><path fill="#000000" d="m124.701035 206.454l0.140625 -0.6875q0.421875 -0.046875 0.640625 -0.109375q0.21875 -0.0625 0.375 -0.171875q0.15625 -0.125 0.28125 -0.390625q0.140625 -0.28125 0.296875 -0.859375q0.265625 -0.984375 0.65625 -1.625q0.390625 -0.65625 1.03125 -1.140625q0.640625 -0.484375 1.484375 -0.703125q0.84375 -0.234375 1.875 -0.234375q0.40625 0 0.875 0.03125q0.46875 0.03125 1.078125 0.15625l-0.46875 2.078125l-1.34375 0q-0.046875 -0.640625 -0.21875 -0.90625q-0.15625 -0.28125 -0.515625 -0.28125q-0.234375 0 -0.421875 0.09375q-0.1875 0.09375 -0.375 0.34375q-0.171875 0.234375 -0.328125 0.6875q-0.15625 0.453125 -0.34375 1.28125l-0.25 1.140625l1.96875 0l-0.28125 1.296875l-1.984375 0l-1.890625 8.703125q-0.359375 1.6875 -1.03125 2.78125q-0.65625 1.09375 -1.703125 1.640625q-1.046875 0.5625 -2.578125 0.5625q-0.484375 0 -0.984375 -0.140625l0.28125 -1.125q0.296875 0.078125 0.6875 0.078125q0.46875 0 0.765625 -0.140625q0.296875 -0.125 0.546875 -0.4375q0.234375 -0.3125 0.4375 -0.9375q0.203125 -0.609375 0.453125 -1.71875l2.09375 -9.265625l-1.25 0z" fill-rule="nonzero"/><path fill="#000000" d="m137.6577 217.92274q0.59375 -0.75 1.171875 -1.09375q0.59375 -0.34375 1.328125 -0.34375q0.71875 0 1.109375 0.40625q0.40625 0.390625 0.40625 1.09375q0 0.453125 -0.140625 1.078125l-0.5625 2.5625q-0.078125 0.328125 -0.109375 0.5q-0.015625 0.171875 -0.015625 0.296875q0 0.3125 0.15625 0.4375q0.15625 0.125 0.546875 0.171875l-0.09375 0.453125l-2.875 0l0.953125 -4.171875q0.078125 -0.328125 0.109375 -0.53125q0.046875 -0.21875 0.0625 -0.359375q0.015625 -0.15625 0.015625 -0.28125q0 -0.3125 -0.125 -0.46875q-0.125 -0.171875 -0.375 -0.171875q-0.21875 0 -0.484375 0.1875q-0.265625 0.171875 -0.59375 0.515625q-0.3125 0.34375 -0.515625 0.734375q-0.1875 0.390625 -0.296875 0.984375l-0.765625 3.5625l-2.0 0l1.0 -4.359375q0.0625 -0.265625 0.09375 -0.4375q0.03125 -0.171875 0.03125 -0.28125q0.015625 -0.125 0.015625 -0.21875q0 -0.359375 -0.125 -0.515625q-0.125 -0.171875 -0.390625 -0.171875q-0.328125 0 -0.78125 0.421875q-0.453125 0.421875 -0.71875 0.875q-0.25 0.4375 -0.390625 1.125l-0.75 3.5625l-2.0 0l1.09375 -4.90625q0.03125 -0.15625 0.09375 -0.46875q0.0625 -0.3125 0.0625 -0.515625q0 -0.296875 -0.171875 -0.40625q-0.15625 -0.109375 -0.515625 -0.125l0.109375 -0.46875l1.90625 -0.078125l0.734375 0l-0.390625 1.5l0.078125 0.03125q0.484375 -0.59375 0.890625 -0.921875q0.40625 -0.34375 0.8125 -0.484375q0.40625 -0.15625 0.890625 -0.15625q0.703125 0 1.09375 0.390625q0.40625 0.375 0.421875 1.046875zm15.259857 5.5625l-2.875 0l0.859375 -3.78125q0.1875 -0.796875 0.21875 -1.09375q0.046875 -0.3125 0.046875 -0.484375q0 -0.3125 -0.125 -0.46875q-0.125 -0.15625 -0.375 -0.15625q-0.234375 0 -0.5 0.171875q-0.25 0.15625 -0.578125 0.515625q-0.328125 0.359375 -0.53125 0.75q-0.1875 0.390625 -0.3125 0.984375l-0.75 3.5625l-2.0 0l1.09375 -4.90625q0.03125 -0.15625 0.09375 -0.46875q0.0625 -0.3125 0.0625 -0.515625q0 -0.296875 -0.171875 -0.40625q-0.15625 -0.109375 -0.515625 -0.125l0.109375 -0.46875l1.90625 -0.078125l0.734375 0l-0.390625 1.5l0.078125 0.03125q0.484375 -0.59375 0.890625 -0.921875q0.40625 -0.34375 0.8125 -0.484375q0.40625 -0.15625 0.90625 -0.15625q0.703125 0 1.109375 0.40625q0.421875 0.390625 0.421875 1.09375q0 0.453125 -0.140625 1.078125l-0.578125 2.5625q-0.0625 0.328125 -0.09375 0.5q-0.015625 0.171875 -0.015625 0.296875q0 0.3125 0.15625 0.4375q0.15625 0.125 0.53125 0.171875l-0.078125 0.453125zm4.7929688 -3.109375l-3.125 0l0.3125 -1.453125l3.125 0l-0.3125 1.453125zm5.8425446 0.9375q-0.125 0.609375 -0.125 0.859375q0 0.265625 0.15625 0.421875q0.15625 0.140625 0.5 0.203125q0.34375 0.046875 1.015625 0.0625l-0.125 0.625l-5.71875 0l0.140625 -0.625q0.75 -0.046875 1.078125 -0.109375q0.34375 -0.0625 0.515625 -0.1875q0.1875 -0.140625 0.296875 -0.359375q0.109375 -0.21875 0.234375 -0.78125l1.0 -4.53125q0.078125 -0.34375 0.078125 -0.5625q0 -0.203125 -0.09375 -0.296875q-0.078125 -0.09375 -0.21875 -0.09375q-0.140625 0 -0.3125 0.0625q-0.15625 0.046875 -0.40625 0.171875q-0.234375 0.125 -0.9375 0.515625l-0.34375 -0.71875l3.984375 -2.078125l0.953125 0q-0.203125 0.734375 -0.4375 1.859375l-1.234375 5.5625z" fill-rule="nonzero"/><path fill="#000000" fill-opacity="0.0" d="m242.87401 280.70078l28.661423 0l0 45.259857l-28.661423 0z" fill-rule="evenodd"/><path fill="#000000" d="m260.93652 298.22766q0.078125 -0.34375 0.140625 -0.75q0.0625 -0.421875 0.0625 -0.734375q0 -0.3125 -0.109375 -0.46875q-0.109375 -0.171875 -0.328125 -0.234375q-0.21875 -0.078125 -0.765625 -0.109375l0.125 -0.546875l2.609375 -0.09375l0.609375 0l-2.6875 12.0q-0.140625 0.65625 -0.203125 0.984375q-0.046875 0.3125 -0.046875 0.53125q0 0.421875 0.234375 0.625q0.25 0.1875 0.921875 0.234375l-0.09375 0.515625l-2.984375 0l0.65625 -2.609375l-0.125 -0.046875q-1.0 1.453125 -1.90625 2.140625q-0.890625 0.671875 -1.8906403 0.671875q-1.140625 0 -1.78125 -0.859375q-0.625 -0.875 -0.625 -2.4375q0 -1.0 0.21875 -2.0q0.234375 -1.0 0.703125 -1.90625q0.46875 -0.90625 1.109375 -1.59375q0.640625 -0.6875 1.4843903 -1.09375q0.859375 -0.40625 1.859375 -0.40625q0.640625 0 1.171875 0.140625q0.53125 0.125 1.09375 0.453125l0.546875 -2.40625zm-1.296875 5.609375q0.15625 -0.75 0.15625 -1.421875q0 -0.8125 -0.34375 -1.171875q-0.34375 -0.375 -1.140625 -0.375q-0.4375 0 -0.84375 0.140625q-0.390625 0.140625 -0.796875 0.46875q-0.40625 0.328125 -0.78126526 0.859375q-0.359375 0.53125 -0.671875 1.296875q-0.296875 0.75 -0.46875 1.625q-0.15625 0.875 -0.15625 1.6875q0 1.09375 0.296875 1.625q0.296875 0.53125 1.0 0.53125q0.31251526 0 0.65626526 -0.140625q0.359375 -0.140625 0.78125 -0.53125q0.4375 -0.390625 0.96875 -1.15625q0.5 -0.703125 0.78125 -1.375q0.28125 -0.6875 0.46875 -1.609375l0.09375 -0.453125z" fill-rule="nonzero"/><path fill="#000000" fill-opacity="0.0" d="m185.76048 202.84514l28.661423 0l0 45.259842l-28.661423 0z" fill-rule="evenodd"/><path fill="#000000" d="m203.82298 220.37202q0.078125 -0.34375 0.140625 -0.75q0.0625 -0.421875 0.0625 -0.734375q0 -0.3125 -0.109375 -0.46875q-0.109375 -0.171875 -0.328125 -0.234375q-0.21875 -0.078125 -0.765625 -0.109375l0.125 -0.546875l2.609375 -0.09375l0.609375 0l-2.6875 12.0q-0.140625 0.65625 -0.203125 0.984375q-0.046875 0.3125 -0.046875 0.53125q0 0.421875 0.234375 0.625q0.25 0.1875 0.921875 0.234375l-0.09375 0.515625l-2.984375 0l0.65625 -2.609375l-0.125 -0.046875q-1.0 1.453125 -1.90625 2.140625q-0.890625 0.671875 -1.890625 0.671875q-1.140625 0 -1.78125 -0.859375q-0.625 -0.875 -0.625 -2.4375q0 -1.0 0.21875 -2.0q0.234375 -1.0 0.703125 -1.90625q0.46875 -0.90625 1.109375 -1.59375q0.640625 -0.6875 1.484375 -1.09375q0.859375 -0.40625 1.859375 -0.40625q0.640625 0 1.171875 0.140625q0.53125 0.125 1.09375 0.453125l0.546875 -2.40625zm-1.296875 5.609375q0.15625 -0.75 0.15625 -1.421875q0 -0.8125 -0.34375 -1.171875q-0.34375 -0.375 -1.140625 -0.375q-0.4375 0 -0.84375 0.140625q-0.390625 0.140625 -0.796875 0.46875q-0.40625 0.328125 -0.78125 0.859375q-0.359375 0.53125 -0.671875 1.296875q-0.296875 0.75 -0.46875 1.625q-0.15625 0.875 -0.15625 1.6875q0 1.09375 0.296875 1.625q0.296875 0.53125 1.0 0.53125q0.3125 0 0.65625 -0.140625q0.359375 -0.140625 0.78125 -0.53125q0.4375 -0.390625 0.96875 -1.15625q0.5 -0.703125 0.78125 -1.375q0.28125 -0.6875 0.46875 -1.609375l0.09375 -0.453125z" fill-rule="nonzero"/><path fill="#000000" fill-opacity="0.0" d="m337.11154 204.14731l28.661438 0l0 45.259857l-28.661438 0z" fill-rule="evenodd"/><path fill="#000000" d="m355.17404 221.6742q0.078125 -0.34375 0.140625 -0.75q0.0625 -0.421875 0.0625 -0.734375q0 -0.3125 -0.109375 -0.46875q-0.109375 -0.171875 -0.328125 -0.234375q-0.21875 -0.078125 -0.765625 -0.109375l0.125 -0.546875l2.609375 -0.09375l0.609375 0l-2.6875 12.0q-0.140625 0.65625 -0.203125 0.984375q-0.046875 0.3125 -0.046875 0.53125q0 0.421875 0.234375 0.625q0.25 0.1875 0.921875 0.234375l-0.09375 0.515625l-2.984375 0l0.65625 -2.609375l-0.125 -0.046875q-1.0 1.453125 -1.90625 2.140625q-0.890625 0.671875 -1.890625 0.671875q-1.140625 0 -1.78125 -0.859375q-0.625 -0.875 -0.625 -2.4375q0 -1.0 0.21875 -2.0q0.234375 -1.0 0.703125 -1.90625q0.46875 -0.90625 1.109375 -1.59375q0.640625 -0.6875 1.484375 -1.09375q0.859375 -0.40625 1.859375 -0.40625q0.640625 0 1.171875 0.140625q0.53125 0.125 1.09375 0.453125l0.546875 -2.40625zm-1.296875 5.609375q0.15625 -0.75 0.15625 -1.421875q0 -0.8125 -0.34375 -1.171875q-0.34375 -0.375 -1.140625 -0.375q-0.4375 0 -0.84375 0.140625q-0.390625 0.140625 -0.796875 0.46875q-0.40625 0.328125 -0.78125 0.859375q-0.359375 0.53125 -0.671875 1.296875q-0.296875 0.75 -0.46875 1.625q-0.15625 0.875 -0.15625 1.6875q0 1.09375 0.296875 1.625q0.296875 0.53125 1.0 0.53125q0.3125 0 0.65625 -0.140625q0.359375 -0.140625 0.78125 -0.53125q0.4375 -0.390625 0.96875 -1.15625q0.5 -0.703125 0.78125 -1.375q0.28125 -0.6875 0.46875 -1.609375l0.09375 -0.453125z" fill-rule="nonzero"/><path fill="#000000" fill-opacity="0.0" d="m243.89993 154.4887l28.661407 0l0 45.259842l-28.661407 0z" fill-rule="evenodd"/><path fill="#000000" d="m261.96243 172.01556q0.078125 -0.34375 0.140625 -0.75q0.0625 -0.421875 0.0625 -0.734375q0 -0.3125 -0.109375 -0.46875q-0.109375 -0.171875 -0.328125 -0.234375q-0.21875 -0.078125 -0.765625 -0.109375l0.125 -0.546875l2.609375 -0.09375l0.609375 0l-2.6875 12.0q-0.140625 0.65625 -0.203125 0.984375q-0.046875 0.3125 -0.046875 0.53125q0 0.421875 0.234375 0.625q0.25 0.1875 0.921875 0.234375l-0.09375 0.515625l-2.984375 0l0.65625 -2.609375l-0.125 -0.046875q-1.0 1.453125 -1.90625 2.140625q-0.890625 0.671875 -1.890625 0.671875q-1.140625 0 -1.78125 -0.859375q-0.625 -0.875 -0.625 -2.4375q0 -1.0 0.21875 -2.0q0.234375 -1.0 0.703125 -1.90625q0.46875 -0.90625 1.109375 -1.59375q0.640625 -0.6875 1.484375 -1.09375q0.859375 -0.40625 1.859375 -0.40625q0.640625 0 1.171875 0.140625q0.53125 0.125 1.09375 0.453125l0.546875 -2.40625zm-1.296875 5.609375q0.15625 -0.75 0.15625 -1.421875q0 -0.8125 -0.34375 -1.171875q-0.34375 -0.375 -1.140625 -0.375q-0.4375 0 -0.84375 0.140625q-0.390625 0.140625 -0.796875 0.46875q-0.40625 0.328125 -0.78125 0.859375q-0.359375 0.53125 -0.671875 1.296875q-0.296875 0.75 -0.46875 1.625q-0.15625 0.875 -0.15625 1.6875q0 1.09375 0.296875 1.625q0.296875 0.53125 1.0 0.53125q0.3125 0 0.65625 -0.140625q0.359375 -0.140625 0.78125 -0.53125q0.4375 -0.390625 0.96875 -1.15625q0.5 -0.703125 0.78125 -1.375q0.28125 -0.6875 0.46875 -1.609375l0.09375 -0.453125z" fill-rule="nonzero"/></g></svg>