<svg version="1.1" viewBox="0.0 0.0 412.56167979002623 361.0498687664042" fill="none" stroke="none" stroke-linecap="square" stroke-miterlimit="10" xmlns:xlink="http://www.w3.org/1999/xlink" xmlns="http://www.w3.org/2000/svg"><clipPath id="p.0"><path d="m0 0l412.56168 0l0 361.04987l-412.56168 0l0 -361.04987z" clip-rule="nonzero"/></clipPath><g clip-path="url(#p.0)"><path fill="#000000" fill-opacity="0.0" d="m0 0l412.56168 0l0 361.04987l-412.56168 0z" fill-rule="evenodd"/><path fill="#000000" d="m183.80537 74.561676l0 0c0 -6.444771 5.224518 -11.669289 11.669281 -11.669289l0 0c3.0948944 0 6.063019 1.2294388 8.25145 3.4178543c2.1884155 2.1884232 3.4178467 5.1565475 3.4178467 8.251434l0 0c0 6.4447784 -5.224518 11.669296 -11.669296 11.669296l0 0c-6.444763 0 -11.669281 -5.224518 -11.669281 -11.669296z" fill-rule="evenodd"/><path stroke="#000000" stroke-width="1.0" stroke-linejoin="round" stroke-linecap="butt" d="m183.80537 74.561676l0 0c0 -6.444771 5.224518 -11.669289 11.669281 -11.669289l0 0c3.0948944 0 6.063019 1.2294388 8.25145 3.4178543c2.1884155 2.1884232 3.4178467 5.1565475 3.4178467 8.251434l0 0c0 6.4447784 -5.224518 11.669296 -11.669296 11.669296l0 0c-6.444763 0 -11.669281 -5.224518 -11.669281 -11.669296z" fill-rule="evenodd"/><path fill="#000000" d="m26.792248 200.56168l0 0c0 -6.444763 5.224518 -11.669281 11.669292 -11.669281l0 0c3.0948868 0 6.063019 1.2294312 8.251434 3.4178467c2.1884155 2.1884155 3.4178543 5.156555 3.4178543 8.251434l0 0c0 6.4447784 -5.224518 11.669296 -11.669289 11.669296l0 0c-6.4447746 0 -11.669292 -5.224518 -11.669292 -11.669296z" fill-rule="evenodd"/><path stroke="#000000" stroke-width="1.0" stroke-linejoin="round" stroke-linecap="butt" d="m26.792248 200.56168l0 0c0 -6.444763 5.224518 -11.669281 11.669292 -11.669281l0 0c3.0948868 0 6.063019 1.2294312 8.251434 3.4178467c2.1884155 2.1884155 3.4178543 5.156555 3.4178543 8.251434l0 0c0 6.4447784 -5.224518 11.669296 -11.669289 11.669296l0 0c-6.4447746 0 -11.669292 -5.224518 -11.669292 -11.669296z" fill-rule="evenodd"/><path fill="#000000" d="m183.80537 200.56168l0 0c0 -6.444763 5.224518 -11.669281 11.669281 -11.669281l0 0c3.0948944 0 6.063019 1.2294312 8.25145 3.4178467c2.1884155 2.1884155 3.4178467 5.156555 3.4178467 8.251434l0 0c0 6.4447784 -5.224518 11.669296 -11.669296 11.669296l0 0c-6.444763 0 -11.669281 -5.224518 -11.669281 -11.669296z" fill-rule="evenodd"/><path stroke="#000000" stroke-width="1.0" stroke-linejoin="round" stroke-linecap="butt" d="m183.80537 200.56168l0 0c0 -6.444763 5.224518 -11.669281 11.669281 -11.669281l0 0c3.0948944 0 6.063019 1.2294312 8.25145 3.4178467c2.1884155 2.1884155 3.4178467 5.156555 3.4178467 8.251434l0 0c0 6.4447784 -5.224518 11.669296 -11.669296 11.669296l0 0c-6.444763 0 -11.669281 -5.224518 -11.669281 -11.669296z" fill-rule="evenodd"/><path fill="#000000" d="m348.28568 200.56168l0 0c0 -6.444763 5.224518 -11.669281 11.669312 -11.669281l0 0c3.0948792 0 6.063019 1.2294312 8.251434 3.4178467c2.1884155 2.1884155 3.4178467 5.156555 3.4178467 8.251434l0 0c0 6.4447784 -5.224518 11.669296 -11.669281 11.669296l0 0c-6.4447937 0 -11.669312 -5.224518 -11.669312 -11.669296z" fill-rule="evenodd"/><path stroke="#000000" stroke-width="1.0" stroke-linejoin="round" stroke-linecap="butt" d="m348.28568 200.56168l0 0c0 -6.444763 5.224518 -11.669281 11.669312 -11.669281l0 0c3.0948792 0 6.063019 1.2294312 8.251434 3.4178467c2.1884155 2.1884155 3.4178467 5.156555 3.4178467 8.251434l0 0c0 6.4447784 -5.224518 11.669296 -11.669281 11.669296l0 0c-6.4447937 0 -11.669312 -5.224518 -11.669312 -11.669296z" fill-rule="evenodd"/><path fill="#000000" fill-opacity="0.0" d="m50.13083 200.56168l133.6693 0" fill-rule="evenodd"/><path stroke="#000000" stroke-width="3.0" stroke-linejoin="round" stroke-linecap="butt" d="m50.13083 200.56168l133.6693 0" fill-rule="evenodd"/><path fill="#000000" fill-opacity="0.0" d="m207.14395 200.56168l141.13385 0" fill-rule="evenodd"/><path stroke="#000000" stroke-width="3.0" stroke-linejoin="round" stroke-linecap="butt" d="m207.14395 200.56168l141.13385 0" fill-rule="evenodd"/><path fill="#000000" d="m183.80537 326.56168l0 0c0 -6.444763 5.224518 -11.669281 11.669281 -11.669281l0 0c3.0948944 0 6.063019 1.2294312 8.25145 3.4178467c2.1884155 2.1884155 3.4178467 5.156555 3.4178467 8.251434l0 0c0 6.444763 -5.224518 11.669281 -11.669296 11.669281l0 0c-6.444763 0 -11.669281 -5.224518 -11.669281 -11.669281z" fill-rule="evenodd"/><path stroke="#000000" stroke-width="1.0" stroke-linejoin="round" stroke-linecap="butt" d="m183.80537 326.56168l0 0c0 -6.444763 5.224518 -11.669281 11.669281 -11.669281l0 0c3.0948944 0 6.063019 1.2294312 8.25145 3.4178467c2.1884155 2.1884155 3.4178467 5.156555 3.4178467 8.251434l0 0c0 6.444763 -5.224518 11.669281 -11.669296 11.669281l0 0c-6.444763 0 -11.669281 -5.224518 -11.669281 -11.669281z" fill-rule="evenodd"/><path fill="#000000" fill-opacity="0.0" d="m195.47466 212.23097l0 102.67717" fill-rule="evenodd"/><path stroke="#000000" stroke-width="3.0" stroke-linejoin="round" stroke-linecap="butt" d="m195.47466 212.23097l0 102.67717" fill-rule="evenodd"/><path fill="#000000" fill-opacity="0.0" d="m195.47466 86.23097l0 102.67717" fill-rule="evenodd"/><path stroke="#000000" stroke-width="3.0" stroke-linejoin="round" stroke-linecap="butt" d="m195.47466 86.23097l0 102.67717" fill-rule="evenodd"/><path fill="#000000" fill-opacity="0.0" d="m199.14336 131.6517l72.88188 0l0 45.259842l-72.88188 0z" fill-rule="evenodd"/><path fill="#ff0000" d="m209.56523 152.10046l0.140625 -0.6875q0.421875 -0.046875 0.640625 -0.109375q0.21875 -0.0625 0.375 -0.171875q0.15625 -0.125 0.28125 -0.390625q0.140625 -0.28125 0.296875 -0.859375q0.265625 -0.984375 0.65625 -1.625q0.390625 -0.65625 1.03125 -1.140625q0.640625 -0.484375 1.484375 -0.703125q0.84375 -0.234375 1.875 -0.234375q0.40625 0 0.875 0.03125q0.46875 0.03125 1.078125 0.15625l-0.46875 2.078125l-1.34375 0q-0.046875 -0.640625 -0.21875 -0.90625q-0.15625 -0.28125 -0.515625 -0.28125q-0.234375 0 -0.421875 0.09375q-0.1875 0.09375 -0.375 0.34375q-0.171875 0.234375 -0.328125 0.6875q-0.15625 0.453125 -0.34375 1.28125l-0.25 1.140625l1.96875 0l-0.28125 1.296875l-1.984375 0l-1.890625 8.703125q-0.359375 1.6875 -1.03125 2.78125q-0.65625 1.09375 -1.703125 1.640625q-1.046875 0.5625 -2.578125 0.5625q-0.484375 0 -0.984375 -0.140625l0.28125 -1.125q0.296875 0.078125 0.6875 0.078125q0.46875 0 0.765625 -0.140625q0.296875 -0.125 0.546875 -0.4375q0.234375 -0.3125 0.4375 -0.9375q0.203125 -0.609375 0.453125 -1.71875l2.09375 -9.265625l-1.25 0z" fill-rule="nonzero"/><path fill="#ff0000" d="m222.5219 163.56921q0.59375 -0.75 1.171875 -1.09375q0.59375 -0.34375 1.328125 -0.34375q0.71875 0 1.109375 0.40625q0.40625 0.390625 0.40625 1.09375q0 0.453125 -0.140625 1.078125l-0.5625 2.5625q-0.078125 0.328125 -0.109375 0.5q-0.015625 0.171875 -0.015625 0.296875q0 0.3125 0.15625 0.4375q0.15625 0.125 0.546875 0.171875l-0.09375 0.453125l-2.875 0l0.953125 -4.171875q0.078125 -0.328125 0.109375 -0.53125q0.046875 -0.21875 0.0625 -0.359375q0.015625 -0.15625 0.015625 -0.28125q0 -0.3125 -0.125 -0.46875q-0.125 -0.171875 -0.375 -0.171875q-0.21875 0 -0.484375 0.1875q-0.265625 0.171875 -0.59375 0.515625q-0.3125 0.34375 -0.515625 0.734375q-0.1875 0.390625 -0.296875 0.984375l-0.765625 3.5625l-2.0 0l1.0 -4.359375q0.0625 -0.265625 0.09375 -0.4375q0.03125 -0.171875 0.03125 -0.28125q0.015625 -0.125 0.015625 -0.21875q0 -0.359375 -0.125 -0.515625q-0.125 -0.171875 -0.390625 -0.171875q-0.328125 0 -0.78125 0.421875q-0.453125 0.421875 -0.71875 0.875q-0.25 0.4375 -0.390625 1.125l-0.75 3.5625l-2.0 0l1.09375 -4.90625q0.03125 -0.15625 0.09375 -0.46875q0.0625 -0.3125 0.0625 -0.515625q0 -0.296875 -0.171875 -0.40625q-0.15625 -0.109375 -0.515625 -0.125l0.109375 -0.46875l1.90625 -0.078125l0.734375 0l-0.390625 1.5l0.078125 0.03125q0.484375 -0.59375 0.890625 -0.921875q0.40625 -0.34375 0.8125 -0.484375q0.40625 -0.15625 0.890625 -0.15625q0.703125 0 1.09375 0.390625q0.40625 0.375 0.421875 1.046875zm15.259857 5.5625l-2.875 0l0.859375 -3.78125q0.1875 -0.796875 0.21875 -1.09375q0.046875 -0.3125 0.046875 -0.484375q0 -0.3125 -0.125 -0.46875q-0.125 -0.15625 -0.375 -0.15625q-0.234375 0 -0.5 0.171875q-0.25 0.15625 -0.578125 0.515625q-0.328125 0.359375 -0.53125 0.75q-0.1875 0.390625 -0.3125 0.984375l-0.75 3.5625l-2.0 0l1.09375 -4.90625q0.03125 -0.15625 0.09375 -0.46875q0.0625 -0.3125 0.0625 -0.515625q0 -0.296875 -0.171875 -0.40625q-0.15625 -0.109375 -0.515625 -0.125l0.109375 -0.46875l1.90625 -0.078125l0.734375 0l-0.390625 1.5l0.078125 0.03125q0.484375 -0.59375 0.890625 -0.921875q0.40625 -0.34375 0.8125 -0.484375q0.40625 -0.15625 0.90625 -0.15625q0.703125 0 1.109375 0.40625q0.421875 0.390625 0.421875 1.09375q0 0.453125 -0.140625 1.078125l-0.578125 2.5625q-0.0625 0.328125 -0.09375 0.5q-0.015625 0.171875 -0.015625 0.296875q0 0.3125 0.15625 0.4375q0.15625 0.125 0.53125 0.171875l-0.078125 0.453125z" fill-rule="nonzero"/><path fill="#000000" fill-opacity="0.0" d="m197.94046 257.66605l82.17322 0l0 45.259827l-82.17322 0z" fill-rule="evenodd"/><path fill="#000000" d="m208.36234 278.1148l0.140625 -0.6875q0.421875 -0.046875 0.640625 -0.109375q0.21875 -0.0625 0.375 -0.171875q0.15625 -0.125 0.28125 -0.390625q0.140625 -0.28125 0.296875 -0.859375q0.265625 -0.984375 0.65625 -1.625q0.390625 -0.65625 1.03125 -1.140625q0.640625 -0.484375 1.484375 -0.703125q0.84375 -0.234375 1.875 -0.234375q0.40625 0 0.875 0.03125q0.46875 0.03125 1.078125 0.15625l-0.46875 2.078125l-1.34375 0q-0.046875 -0.640625 -0.21875 -0.90625q-0.15625 -0.28125 -0.515625 -0.28125q-0.234375 0 -0.421875 0.09375q-0.1875 0.09375 -0.375 0.34375q-0.171875 0.234375 -0.328125 0.6875q-0.15625 0.453125 -0.34375 1.28125l-0.25 1.140625l1.96875 0l-0.28125 1.296875l-1.984375 0l-1.890625 8.703125q-0.359375 1.6875 -1.03125 2.78125q-0.65625 1.09375 -1.703125 1.640625q-1.046875 0.5625 -2.578125 0.5625q-0.484375 0 -0.984375 -0.140625l0.28125 -1.125q0.296875 0.078125 0.6875 0.078125q0.46875 0 0.765625 -0.140625q0.296875 -0.125 0.546875 -0.4375q0.234375 -0.3125 0.4375 -0.9375q0.203125 -0.609375 0.453125 -1.71875l2.09375 -9.265625l-1.25 0z" fill-rule="nonzero"/><path fill="#000000" d="m221.319 289.58356q0.59375 -0.75 1.171875 -1.09375q0.59375 -0.34375 1.328125 -0.34375q0.71875 0 1.109375 0.40625q0.40625 0.390625 0.40625 1.09375q0 0.453125 -0.140625 1.078125l-0.5625 2.5625q-0.078125 0.328125 -0.109375 0.5q-0.015625 0.171875 -0.015625 0.296875q0 0.3125 0.15625 0.4375q0.15625 0.125 0.546875 0.171875l-0.09375 0.453125l-2.875 0l0.953125 -4.171875q0.078125 -0.328125 0.109375 -0.53125q0.046875 -0.21875 0.0625 -0.359375q0.015625 -0.15625 0.015625 -0.28125q0 -0.3125 -0.125 -0.46875q-0.125 -0.171875 -0.375 -0.171875q-0.21875 0 -0.484375 0.1875q-0.265625 0.171875 -0.59375 0.515625q-0.3125 0.34375 -0.515625 0.734375q-0.1875 0.390625 -0.296875 0.984375l-0.765625 3.5625l-2.0 0l1.0 -4.359375q0.0625 -0.265625 0.09375 -0.4375q0.03125 -0.171875 0.03125 -0.28125q0.015625 -0.125 0.015625 -0.21875q0 -0.359375 -0.125 -0.515625q-0.125 -0.171875 -0.390625 -0.171875q-0.328125 0 -0.78125 0.421875q-0.453125 0.421875 -0.71875 0.875q-0.25 0.4375 -0.390625 1.125l-0.75 3.5625l-2.0 0l1.09375 -4.90625q0.03125 -0.15625 0.09375 -0.46875q0.0625 -0.3125 0.0625 -0.515625q0 -0.296875 -0.171875 -0.40625q-0.15625 -0.109375 -0.515625 -0.125l0.109375 -0.46875l1.90625 -0.078125l0.734375 0l-0.390625 1.5l0.078125 0.03125q0.484375 -0.59375 0.890625 -0.921875q0.40625 -0.34375 0.8125 -0.484375q0.40625 -0.15625 0.890625 -0.15625q0.703125 0 1.09375 0.390625q0.40625 0.375 0.421875 1.046875zm9.581863 2.1875l-0.59375 2.6875l-1.453125 0l0.59375 -2.6875l-2.484375 0l0.296875 -1.359375l2.484375 0l0.59375 -2.703125l1.453125 0l-0.59375 2.703125l2.484375 0l-0.3125 1.359375l-2.46875 0zm8.378082 1.203125q-0.125 0.609375 -0.125 0.859375q0 0.265625 0.15625 0.421875q0.15625 0.140625 0.5 0.203125q0.34375 0.046875 1.015625 0.0625l-0.125 0.625l-5.71875 0l0.140625 -0.625q0.75 -0.046875 1.078125 -0.109375q0.34375 -0.0625 0.515625 -0.1875q0.1875 -0.140625 0.296875 -0.359375q0.109375 -0.21875 0.234375 -0.78125l1.0 -4.53125q0.078125 -0.34375 0.078125 -0.5625q0 -0.203125 -0.09375 -0.296875q-0.078125 -0.09375 -0.21875 -0.09375q-0.140625 0 -0.3125 0.0625q-0.15625 0.046875 -0.40625 0.171875q-0.234375 0.125 -0.9375 0.515625l-0.34375 -0.71875l3.984375 -2.078125l0.953125 0q-0.203125 0.734375 -0.4375 1.859375l-1.234375 5.5625zm13.587326 2.171875l-2.875 0l0.859375 -3.78125q0.1875 -0.796875 0.21875 -1.09375q0.046875 -0.3125 0.046875 -0.484375q0 -0.3125 -0.125 -0.46875q-0.125 -0.15625 -0.375 -0.15625q-0.234375 0 -0.5 0.171875q-0.25 0.15625 -0.578125 0.515625q-0.328125 0.359375 -0.53125 0.75q-0.1875 0.390625 -0.3125 0.984375l-0.75 3.5625l-2.0 0l1.09375 -4.90625q0.03125 -0.15625 0.09375 -0.46875q0.0625 -0.3125 0.0625 -0.515625q0 -0.296875 -0.171875 -0.40625q-0.15625 -0.109375 -0.515625 -0.125l0.109375 -0.46875l1.90625 -0.078125l0.734375 0l-0.390625 1.5l0.078125 0.03125q0.484375 -0.59375 0.890625 -0.921875q0.40625 -0.34375 0.8125 -0.484375q0.40625 -0.15625 0.90625 -0.15625q0.703125 0 1.109375 0.40625q0.421875 0.390625 0.421875 1.09375q0 0.453125 -0.140625 1.078125l-0.578125 2.5625q-0.0625 0.328125 -0.09375 0.5q-0.015625 0.171875 -0.015625 0.296875q0 0.3125 0.15625 0.4375q0.15625 0.125 0.53125 0.171875l-0.078125 0.453125z" fill-rule="nonzero"/><path fill="#000000" fill-opacity="0.0" d="m179.47466 6.6771655E-4l72.8819 0l0 45.259842l-72.8819 0z" fill-rule="evenodd"/><path fill="#000000" d="m189.89653 20.449417l0.140625 -0.6875q0.421875 -0.046875 0.640625 -0.109375q0.21875 -0.0625 0.375 -0.171875q0.15625 -0.125 0.28125 -0.390625q0.140625 -0.28125 0.296875 -0.859375q0.265625 -0.984375 0.65625 -1.625q0.390625 -0.65625 1.03125 -1.140625q0.640625 -0.484375 1.484375 -0.703125q0.84375 -0.234375 1.875 -0.234375q0.40625 0 0.875 0.03125q0.46875 0.03125 1.078125 0.15625l-0.46875 2.078125l-1.34375 0q-0.046875 -0.640625 -0.21875 -0.90625q-0.15625 -0.28125 -0.515625 -0.28125q-0.234375 0 -0.421875 0.09375q-0.1875 0.09375 -0.375 0.34375q-0.171875 0.234375 -0.328125 0.6875q-0.15625 0.453125 -0.34375 1.28125l-0.25 1.140625l1.96875 0l-0.28125 1.296875l-1.984375 0l-1.890625 8.703125q-0.359375 1.6875 -1.03125 2.78125q-0.65625 1.09375 -1.703125 1.640625q-1.046875 0.5625 -2.578125 0.5625q-0.484375 0 -0.984375 -0.140625l0.28125 -1.125q0.296875 0.078125 0.6875 0.078125q0.46875 0 0.765625 -0.140625q0.296875 -0.125 0.546875 -0.4375q0.234375 -0.3125 0.4375 -0.9375q0.203125 -0.609375 0.453125 -1.71875l2.09375 -9.265625l-1.25 0z" fill-rule="nonzero"/><path fill="#000000" d="m202.8532 31.918167q0.59375 -0.75 1.171875 -1.09375q0.59375 -0.34375 1.328125 -0.34375q0.71875 0 1.109375 0.40625q0.40625 0.390625 0.40625 1.09375q0 0.453125 -0.140625 1.078125l-0.5625 2.5625q-0.078125 0.328125 -0.109375 0.5q-0.015625 0.171875 -0.015625 0.296875q0 0.3125 0.15625 0.4375q0.15625 0.125 0.546875 0.171875l-0.09375 0.453125l-2.875 0l0.953125 -4.171875q0.078125 -0.328125 0.109375 -0.53125q0.046875 -0.21875 0.0625 -0.359375q0.015625 -0.15625 0.015625 -0.28125q0 -0.3125 -0.125 -0.46875q-0.125 -0.171875 -0.375 -0.171875q-0.21875 0 -0.484375 0.1875q-0.265625 0.171875 -0.59375 0.515625q-0.3125 0.34375 -0.515625 0.734375q-0.1875 0.390625 -0.296875 0.984375l-0.765625 3.5625l-2.0 0l1.0 -4.359375q0.0625 -0.265625 0.09375 -0.4375q0.03125 -0.171875 0.03125 -0.28125q0.015625 -0.125 0.015625 -0.21875q0 -0.359375 -0.125 -0.515625q-0.125 -0.171875 -0.390625 -0.171875q-0.328125 0 -0.78125 0.421875q-0.453125 0.421875 -0.71875 0.875q-0.25 0.4375 -0.390625 1.125l-0.75 3.5625l-2.0 0l1.09375 -4.90625q0.03125 -0.15625 0.09375 -0.46875q0.0625 -0.3125 0.0625 -0.515625q0 -0.296875 -0.171875 -0.40625q-0.15625 -0.109375 -0.515625 -0.125l0.109375 -0.46875l1.90625 -0.078125l0.734375 0l-0.390625 1.5l0.078125 0.03125q0.484375 -0.59375 0.890625 -0.921875q0.40625 -0.34375 0.8125 -0.484375q0.40625 -0.15625 0.890625 -0.15625q0.703125 0 1.09375 0.390625q0.40625 0.375 0.421875 1.046875zm8.597488 2.453125l-3.125 0l0.3125 -1.453125l3.125 0l-0.3125 1.453125zm5.8425446 0.9375q-0.125 0.609375 -0.125 0.859375q0 0.265625 0.15625 0.421875q0.15625 0.140625 0.5 0.203125q0.34375 0.046875 1.015625 0.0625l-0.125 0.625l-5.71875 0l0.140625 -0.625q0.75 -0.046875 1.078125 -0.109375q0.34375 -0.0625 0.515625 -0.1875q0.1875 -0.140625 0.296875 -0.359375q0.109375 -0.21875 0.234375 -0.78125l1.0 -4.53125q0.078125 -0.34375 0.078125 -0.5625q0 -0.203125 -0.09375 -0.296875q-0.078125 -0.09375 -0.21875 -0.09375q-0.140625 0 -0.3125 0.0625q-0.15625 0.046875 -0.40625 0.171875q-0.234375 0.125 -0.9375 0.515625l-0.34375 -0.71875l3.984375 -2.078125l0.953125 0q-0.203125 0.734375 -0.4375 1.859375l-1.234375 5.5625zm13.587326 2.171875l-2.875 0l0.859375 -3.78125q0.1875 -0.796875 0.21875 -1.09375q0.046875 -0.3125 0.046875 -0.484375q0 -0.3125 -0.125 -0.46875q-0.125 -0.15625 -0.375 -0.15625q-0.234375 0 -0.5 0.171875q-0.25 0.15625 -0.578125 0.515625q-0.328125 0.359375 -0.53125 0.75q-0.1875 0.390625 -0.3125 0.984375l-0.75 3.5625l-2.0 0l1.09375 -4.90625q0.03125 -0.15625 0.09375 -0.46875q0.0625 -0.3125 0.0625 -0.515625q0 -0.296875 -0.171875 -0.40625q-0.15625 -0.109375 -0.515625 -0.125l0.109375 -0.46875l1.90625 -0.078125l0.734375 0l-0.390625 1.5l0.078125 0.03125q0.484375 -0.59375 0.890625 -0.921875q0.40625 -0.34375 0.8125 -0.484375q0.40625 -0.15625 0.90625 -0.15625q0.703125 0 1.109375 0.40625q0.421875 0.390625 0.421875 1.09375q0 0.453125 -0.140625 1.078125l-0.578125 2.5625q-0.0625 0.328125 -0.09375 0.5q-0.015625 0.171875 -0.015625 0.296875q0 0.3125 0.15625 0.4375q0.15625 0.125 0.53125 0.171875l-0.078125 0.453125z" fill-rule="nonzero"/><path fill="#000000" fill-opacity="0.0" d="m26.791857 124.844025l82.17323 0l0 45.259842l-82.17323 0z" fill-rule="evenodd"/><path fill="#000000" d="m37.21373 145.29277l0.140625 -0.6875q0.421875 -0.046875 0.640625 -0.109375q0.21875 -0.0625 0.375 -0.171875q0.15625 -0.125 0.28125 -0.390625q0.140625 -0.28125 0.296875 -0.859375q0.265625 -0.984375 0.65625 -1.625q0.390625 -0.65625 1.03125 -1.140625q0.640625 -0.484375 1.484375 -0.703125q0.84375 -0.234375 1.875 -0.234375q0.40625 0 0.875 0.03125q0.46875 0.03125 1.078125 0.15625l-0.46875 2.078125l-1.34375 0q-0.046875 -0.640625 -0.21875 -0.90625q-0.15625 -0.28125 -0.515625 -0.28125q-0.234375 0 -0.421875 0.09375q-0.1875 0.09375 -0.375 0.34375q-0.171875 0.234375 -0.328125 0.6875q-0.15625 0.453125 -0.34375 1.28125l-0.25 1.140625l1.96875 0l-0.28125 1.296875l-1.984375 0l-1.890625 8.703125q-0.359375 1.6875 -1.03125 2.78125q-0.65625 1.09375 -1.703125 1.640625q-1.046875 0.5625 -2.578125 0.5625q-0.484375 0 -0.984375 -0.140625l0.28125 -1.125q0.296875 0.078125 0.6875 0.078125q0.46875 0 0.765625 -0.140625q0.296875 -0.125 0.546875 -0.4375q0.234375 -0.3125 0.4375 -0.9375q0.203125 -0.609375 0.453125 -1.71875l2.09375 -9.265625l-1.25 0z" fill-rule="nonzero"/><path fill="#000000" d="m50.170395 156.76152q0.59375 -0.75 1.171875 -1.09375q0.59375 -0.34375 1.328125 -0.34375q0.71875 0 1.109375 0.40625q0.40625 0.390625 0.40625 1.09375q0 0.453125 -0.140625 1.078125l-0.5625 2.5625q-0.078125 0.328125 -0.109375 0.5q-0.015625 0.171875 -0.015625 0.296875q0 0.3125 0.15625 0.4375q0.15625 0.125 0.546875 0.171875l-0.09375 0.453125l-2.875 0l0.953125 -4.171875q0.078125 -0.328125 0.109375 -0.53125q0.046875 -0.21875 0.0625 -0.359375q0.015625 -0.15625 0.015625 -0.28125q0 -0.3125 -0.125 -0.46875q-0.125 -0.171875 -0.375 -0.171875q-0.21875 0 -0.484375 0.1875q-0.265625 0.171875 -0.59375 0.515625q-0.3125 0.34375 -0.515625 0.734375q-0.1875 0.390625 -0.296875 0.984375l-0.765625 3.5625l-2.0 0l1.0 -4.359375q0.0625 -0.265625 0.09375 -0.4375q0.03125 -0.171875 0.03125 -0.28125q0.015625 -0.125 0.015625 -0.21875q0 -0.359375 -0.125 -0.515625q-0.125 -0.171875 -0.390625 -0.171875q-0.328125 0 -0.78125 0.421875q-0.453125 0.421875 -0.71875 0.875q-0.25 0.4375 -0.390625 1.125l-0.75 3.5625l-2.0 0l1.09375 -4.90625q0.03125 -0.15625 0.09375 -0.46875q0.0625 -0.3125 0.0625 -0.515625q0 -0.296875 -0.171875 -0.40625q-0.15625 -0.109375 -0.515625 -0.125l0.109375 -0.46875l1.90625 -0.078125l0.734375 0l-0.390625 1.5l0.078125 0.03125q0.484375 -0.59375 0.890625 -0.921875q0.40625 -0.34375 0.8125 -0.484375q0.40625 -0.15625 0.890625 -0.15625q0.703125 0 1.09375 0.390625q0.40625 0.375 0.421875 1.046875zm15.259857 5.5625l-2.875 0l0.859375 -3.78125q0.1875 -0.796875 0.21875 -1.09375q0.046875 -0.3125 0.046875 -0.484375q0 -0.3125 -0.125 -0.46875q-0.125 -0.15625 -0.375 -0.15625q-0.234375 0 -0.5 0.171875q-0.25 0.15625 -0.578125 0.515625q-0.328125 0.359375 -0.53125 0.75q-0.1875 0.390625 -0.3125 0.984375l-0.75 3.5625l-2.0 0l1.09375 -4.90625q0.03125 -0.15625 0.09375 -0.46875q0.0625 -0.3125 0.0625 -0.515625q0 -0.296875 -0.171875 -0.40625q-0.15625 -0.109375 -0.515625 -0.125l0.109375 -0.46875l1.90625 -0.078125l0.734375 0l-0.390625 1.5l0.078125 0.03125q0.484375 -0.59375 0.890625 -0.921875q0.40625 -0.34375 0.8125 -0.484375q0.40625 -0.15625 0.90625 -0.15625q0.703125 0 1.109375 0.40625q0.421875 0.390625 0.421875 1.09375q0 0.453125 -0.140625 1.078125l-0.578125 2.5625q-0.0625 0.328125 -0.09375 0.5q-0.015625 0.171875 -0.015625 0.296875q0 0.3125 0.15625 0.4375q0.15625 0.125 0.53125 0.171875l-0.078125 0.453125zm4.7929688 -3.109375l-3.125 0l0.3125 -1.453125l3.125 0l-0.3125 1.453125zm5.8425446 0.9375q-0.125 0.609375 -0.125 0.859375q0 0.265625 0.15625 0.421875q0.15625 0.140625 0.5 0.203125q0.34375 0.046875 1.015625 0.0625l-0.125 0.625l-5.71875 0l0.140625 -0.625q0.75 -0.046875 1.078125 -0.109375q0.34375 -0.0625 0.515625 -0.1875q0.1875 -0.140625 0.296875 -0.359375q0.109375 -0.21875 0.234375 -0.78125l1.0 -4.53125q0.078125 -0.34375 0.078125 -0.5625q0 -0.203125 -0.09375 -0.296875q-0.078125 -0.09375 -0.21875 -0.09375q-0.140625 0 -0.3125 0.0625q-0.15625 0.046875 -0.40625 0.171875q-0.234375 0.125 -0.9375 0.515625l-0.34375 -0.71875l3.984375 -2.078125l0.953125 0q-0.203125 0.734375 -0.4375 1.859375l-1.234375 5.5625z" fill-rule="nonzero"/><path fill="#c9daf8" d="m163.56915 200.56168l0 0c0 -17.620926 14.284576 -31.905502 31.905502 -31.905502l0 0c8.461868 0 16.577164 3.3614655 22.560608 9.34491c5.983444 5.983444 9.34491 14.098724 9.34491 22.560593l0 0c0 17.620926 -14.284576 31.905518 -31.905518 31.905518l0 0c-17.620926 0 -31.905502 -14.284592 -31.905502 -31.905518z" fill-rule="evenodd"/><path stroke="#4a86e8" stroke-width="1.0" stroke-linejoin="round" stroke-linecap="butt" d="m163.56915 200.56168l0 0c0 -17.620926 14.284576 -31.905502 31.905502 -31.905502l0 0c8.461868 0 16.577164 3.3614655 22.560608 9.34491c5.983444 5.983444 9.34491 14.098724 9.34491 22.560593l0 0c0 17.620926 -14.284576 31.905518 -31.905518 31.905518l0 0c-17.620926 0 -31.905502 -14.284592 -31.905502 -31.905518z" fill-rule="evenodd"/><path fill="#000000" d="m194.37498 197.24481q0.15625 -0.4375 0.234375 -0.8125q0.09375 -0.390625 0.09375 -0.828125q0 -0.5 -0.265625 -0.765625q-0.265625 -0.28125 -0.8125 -0.328125l0 -0.6875l4.484375 0l0 0.6875q-0.390625 0.0625 -0.671875 0.265625q-0.28125 0.1875 -0.5 0.546875q-0.21875 0.359375 -0.53125 1.171875l-4.359375 11.625l-2.40625 0l-3.4375 -11.671875q-0.21875 -0.78125 -0.375 -1.109375q-0.15625 -0.328125 -0.40625 -0.53125q-0.25 -0.203125 -0.703125 -0.296875l0 -0.6875l5.765625 0l0 0.6875q-0.546875 0.0625 -0.8125 0.3125q-0.25 0.234375 -0.25 0.671875q0 0.34375 0.0625 0.671875q0.0625 0.328125 0.25 1.046875l2.0625 7.46875l2.578125 -7.4375z" fill-rule="nonzero"/><path fill="#000000" d="m203.59044 214.10419q0 0.40625 0.046875 0.609375q0.046875 0.203125 0.15625 0.328125q0.125 0.125 0.328125 0.203125q0.21875 0.078125 0.546875 0.125q0.328125 0.03125 0.859375 0.046875l0 0.625l-5.984375 0l0 -0.625q0.765625 -0.046875 1.09375 -0.09375q0.328125 -0.0625 0.5 -0.171875q0.1875 -0.125 0.265625 -0.34375q0.078125 -0.21875 0.078125 -0.703125l0 -5.015625q0 -0.28125 -0.109375 -0.40625q-0.109375 -0.125 -0.296875 -0.125q-0.171875 0 -0.484375 0.15625q-0.3125 0.15625 -1.046875 0.65625l-0.421875 -0.75l3.625 -2.171875l0.890625 0q-0.046875 0.671875 -0.046875 1.859375l0 5.796875z" fill-rule="nonzero"/><path fill="#c9daf8" d="m6.5560274 200.56168l0 0c0 -17.620926 14.284585 -31.905502 31.905514 -31.905502l0 0c8.461868 0 16.57716 3.3614655 22.560604 9.34491c5.9834404 5.983444 9.344906 14.098724 9.344906 22.560593l0 0c0 17.620926 -14.284584 31.905518 -31.90551 31.905518l0 0c-17.620928 0 -31.905514 -14.284592 -31.905514 -31.905518z" fill-rule="evenodd"/><path stroke="#4a86e8" stroke-width="1.0" stroke-linejoin="round" stroke-linecap="butt" d="m6.5560274 200.56168l0 0c0 -17.620926 14.284585 -31.905502 31.905514 -31.905502l0 0c8.461868 0 16.57716 3.3614655 22.560604 9.34491c5.9834404 5.983444 9.344906 14.098724 9.344906 22.560593l0 0c0 17.620926 -14.284584 31.905518 -31.90551 31.905518l0 0c-17.620928 0 -31.905514 -14.284592 -31.905514 -31.905518z" fill-rule="evenodd"/><path fill="#000000" d="m37.361855 197.24481q0.15625 -0.4375 0.234375 -0.8125q0.09375 -0.390625 0.09375 -0.828125q0 -0.5 -0.265625 -0.765625q-0.265625 -0.28125 -0.8125 -0.328125l0 -0.6875l4.484375 0l0 0.6875q-0.390625 0.0625 -0.671875 0.265625q-0.28125 0.1875 -0.5 0.546875q-0.21875 0.359375 -0.53125 1.171875l-4.359375 11.625l-2.40625 0l-3.4375 -11.671875q-0.21875 -0.78125 -0.375 -1.109375q-0.15625 -0.328125 -0.40625 -0.53125q-0.25 -0.203125 -0.703125 -0.296875l0 -0.6875l5.765625 0l0 0.6875q-0.546875 0.0625 -0.8125 0.3125q-0.25 0.234375 -0.25 0.671875q0 0.34375 0.0625 0.671875q0.0625 0.328125 0.25 1.046875l2.0625 7.46875l2.578125 -7.4375z" fill-rule="nonzero"/><path fill="#000000" d="m44.35856 215.58856q0.25 -0.078125 0.390625 -0.15625q0.15625 -0.078125 0.234375 -0.203125q0.078125 -0.140625 0.09375 -0.359375q0.015625 -0.21875 0.015625 -0.546875l0 -1.03125l-3.71875 0l0 -0.75l4.21875 -6.03125l1.5625 0l0 5.90625l0.21875 0q0.328125 0 0.46875 -0.046875q0.140625 -0.046875 0.234375 -0.171875q0.109375 -0.125 0.203125 -0.4375l0.71875 0l-0.078125 1.53125l-1.765625 0l0 1.03125q0 0.375 0.03125 0.59375q0.03125 0.21875 0.109375 0.34375q0.09375 0.125 0.234375 0.203125q0.15625 0.0625 0.375 0.125l0 0.453125l-3.546875 0l0 -0.453125zm-1.640625 -3.171875l2.375 0l0 -1.59375q0 -1.0 0.078125 -2.09375l-0.078125 0l-2.375 3.578125l0 0.109375z" fill-rule="nonzero"/><path fill="#c9daf8" d="m328.04947 200.56168l0 0c0 -17.620926 14.284576 -31.905502 31.905518 -31.905502l0 0c8.461853 0 16.577148 3.3614655 22.560608 9.34491c5.983429 5.983444 9.34491 14.098724 9.34491 22.560593l0 0c0 17.620926 -14.284607 31.905518 -31.905518 31.905518l0 0c-17.620941 0 -31.905518 -14.284592 -31.905518 -31.905518z" fill-rule="evenodd"/><path stroke="#4a86e8" stroke-width="1.0" stroke-linejoin="round" stroke-linecap="butt" d="m328.04947 200.56168l0 0c0 -17.620926 14.284576 -31.905502 31.905518 -31.905502l0 0c8.461853 0 16.577148 3.3614655 22.560608 9.34491c5.983429 5.983444 9.34491 14.098724 9.34491 22.560593l0 0c0 17.620926 -14.284607 31.905518 -31.905518 31.905518l0 0c-17.620941 0 -31.905518 -14.284592 -31.905518 -31.905518z" fill-rule="evenodd"/><path fill="#000000" d="m358.8553 197.24481q0.15625 -0.4375 0.234375 -0.8125q0.09375 -0.390625 0.09375 -0.828125q0 -0.5 -0.265625 -0.765625q-0.265625 -0.28125 -0.8125 -0.328125l0 -0.6875l4.484375 0l0 0.6875q-0.390625 0.0625 -0.671875 0.265625q-0.28125 0.1875 -0.5 0.546875q-0.21875 0.359375 -0.53125 1.171875l-4.359375 11.625l-2.40625 0l-3.4375 -11.671875q-0.21875 -0.78125 -0.375 -1.109375q-0.15625 -0.328125 -0.40625 -0.53125q-0.25 -0.203125 -0.703125 -0.296875l0 -0.6875l5.765625 0l0 0.6875q-0.546875 0.0625 -0.8125 0.3125q-0.25 0.234375 -0.25 0.671875q0 0.34375 0.0625 0.671875q0.0625 0.328125 0.25 1.046875l2.0625 7.46875l2.578125 -7.4375z" fill-rule="nonzero"/><path fill="#000000" d="m367.7426 214.33856q0.453125 0 0.671875 -0.0625q0.21875 -0.0625 0.34375 -0.21875q0.140625 -0.171875 0.21875 -0.5l0.796875 0l-0.15625 2.484375l-6.359375 0l0 -0.453125q0.296875 -0.671875 0.84375 -1.453125q0.546875 -0.78125 1.34375 -1.71875q0.75 -0.875 1.140625 -1.4375q0.390625 -0.578125 0.578125 -1.078125q0.203125 -0.515625 0.203125 -1.0625q0 -0.765625 -0.34375 -1.1875q-0.34375 -0.4375 -0.921875 -0.4375q-0.5625 0 -0.921875 0.390625q-0.359375 0.390625 -0.53125 1.234375l-1.25 0l0 -1.640625q0.84375 -0.328125 1.3125 -0.46875q0.484375 -0.140625 0.953125 -0.203125q0.46875 -0.078125 1.015625 -0.078125q1.03125 0 1.671875 0.28125q0.640625 0.265625 0.921875 0.734375q0.296875 0.46875 0.296875 1.09375q0 0.5625 -0.203125 1.03125q-0.203125 0.46875 -0.703125 1.078125q-0.5 0.59375 -1.703125 1.71875q-0.53125 0.53125 -1.0 1.0625q-0.453125 0.53125 -0.6875 0.828125l0 0.0625l2.46875 0z" fill-rule="nonzero"/><path fill="#c9daf8" d="m163.56915 74.561676l0 0c0 -17.620922 14.284576 -31.90551 31.905502 -31.90551l0 0c8.461868 0 16.577164 3.3614655 22.560608 9.34491c5.983444 5.983444 9.34491 14.09874 9.34491 22.5606l0 0c0 17.620934 -14.284576 31.905518 -31.905518 31.905518l0 0c-17.620926 0 -31.905502 -14.284584 -31.905502 -31.905518z" fill-rule="evenodd"/><path stroke="#4a86e8" stroke-width="1.0" stroke-linejoin="round" stroke-linecap="butt" d="m163.56915 74.561676l0 0c0 -17.620922 14.284576 -31.90551 31.905502 -31.90551l0 0c8.461868 0 16.577164 3.3614655 22.560608 9.34491c5.983444 5.983444 9.34491 14.09874 9.34491 22.5606l0 0c0 17.620934 -14.284576 31.905518 -31.905518 31.905518l0 0c-17.620926 0 -31.905502 -14.284584 -31.905502 -31.905518z" fill-rule="evenodd"/><path fill="#000000" d="m194.37498 71.244804q0.15625 -0.4375 0.234375 -0.8125q0.09375 -0.390625 0.09375 -0.828125q0 -0.5 -0.265625 -0.765625q-0.265625 -0.28125 -0.8125 -0.328125l0 -0.6875l4.484375 0l0 0.6875q-0.390625 0.0625 -0.671875 0.265625q-0.28125 0.1875 -0.5 0.546875q-0.21875 0.359375 -0.53125 1.171875l-4.359375 11.625l-2.40625 0l-3.4375 -11.671875q-0.21875 -0.78125 -0.375 -1.109375q-0.15625 -0.328125 -0.40625 -0.53125q-0.25 -0.203125 -0.703125 -0.296875l0 -0.6875l5.765625 0l0 0.6875q-0.546875 0.0625 -0.8125 0.3125q-0.25 0.234375 -0.25 0.671875q0 0.34375 0.0625 0.671875q0.0625 0.328125 0.25 1.046875l2.0625 7.46875l2.578125 -7.4375z" fill-rule="nonzero"/><path fill="#000000" d="m199.04356 82.85418l0 -1.65625q1.75 -0.75 3.1875 -0.75q0.84375 0 1.5 0.25q0.65625 0.234375 1.015625 0.6875q0.359375 0.453125 0.359375 1.09375q0 0.59375 -0.234375 1.046875q-0.234375 0.4375 -0.671875 0.78125q-0.421875 0.328125 -1.09375 0.640625l0 0.0625q0.59375 0.109375 1.09375 0.40625q0.5 0.296875 0.796875 0.796875q0.296875 0.5 0.296875 1.15625q0 0.8125 -0.390625 1.4375q-0.390625 0.625 -1.203125 0.984375q-0.796875 0.359375 -1.9375 0.359375q-0.78125 0 -1.546875 -0.140625q-0.75 -0.140625 -1.3125 -0.40625l0 -1.734375l1.25 0q0.203125 0.796875 0.5625 1.15625q0.375 0.34375 0.984375 0.34375q1.46875 0 1.46875 -1.8125q0 -0.984375 -0.515625 -1.453125q-0.515625 -0.484375 -1.578125 -0.484375l-0.546875 0l0 -0.796875q1.203125 -0.046875 1.828125 -0.5625q0.625 -0.515625 0.625 -1.5q0 -0.765625 -0.3125 -1.15625q-0.3125 -0.390625 -0.90625 -0.390625q-0.34375 0 -0.640625 0.15625q-0.28125 0.140625 -0.5 0.515625q-0.21875 0.359375 -0.328125 0.96875l-1.25 0z" fill-rule="nonzero"/><path fill="#c9daf8" d="m163.56915 326.56168l0 0c0 -17.62091 14.284576 -31.905518 31.905502 -31.905518l0 0c8.461868 0 16.577164 3.3614807 22.560608 9.34491c5.983444 5.9834595 9.34491 14.098755 9.34491 22.560608l0 0c0 17.620941 -14.284576 31.905518 -31.905518 31.905518l0 0c-17.620926 0 -31.905502 -14.284576 -31.905502 -31.905518z" fill-rule="evenodd"/><path stroke="#4a86e8" stroke-width="1.0" stroke-linejoin="round" stroke-linecap="butt" d="m163.56915 326.56168l0 0c0 -17.62091 14.284576 -31.905518 31.905502 -31.905518l0 0c8.461868 0 16.577164 3.3614807 22.560608 9.34491c5.983444 5.9834595 9.34491 14.098755 9.34491 22.560608l0 0c0 17.620941 -14.284576 31.905518 -31.905518 31.905518l0 0c-17.620926 0 -31.905502 -14.284576 -31.905502 -31.905518z" fill-rule="evenodd"/><path fill="#000000" d="m194.37498 323.2448q0.15625 -0.4375 0.234375 -0.8125q0.09375 -0.390625 0.09375 -0.828125q0 -0.5 -0.265625 -0.765625q-0.265625 -0.28125 -0.8125 -0.328125l0 -0.6875l4.484375 0l0 0.6875q-0.390625 0.0625 -0.671875 0.265625q-0.28125 0.1875 -0.5 0.546875q-0.21875 0.359375 -0.53125 1.171875l-4.359375 11.625l-2.40625 0l-3.4375 -11.671875q-0.21875 -0.78125 -0.375 -1.109375q-0.15625 -0.328125 -0.40625 -0.53125q-0.25 -0.203125 -0.703125 -0.296875l0 -0.6875l5.765625 0l0 0.6875q-0.546875 0.0625 -0.8125 0.3125q-0.25 0.234375 -0.25 0.671875q0 0.34375 0.0625 0.671875q0.0625 0.328125 0.25 1.046875l2.0625 7.46875l2.578125 -7.4375z" fill-rule="nonzero"/><path fill="#000000" d="m199.12169 341.6042l0 -1.734375l1.25 0q0.171875 0.765625 0.546875 1.140625q0.390625 0.359375 1.0 0.359375q0.75 0 1.109375 -0.46875q0.359375 -0.46875 0.359375 -1.4375q0 -0.96875 -0.46875 -1.46875q-0.453125 -0.515625 -1.328125 -0.515625q-0.34375 0 -0.734375 0.0625q-0.390625 0.0625 -0.703125 0.15625l-0.625 -0.390625l0 -4.75l4.109375 0q0.25 0 0.359375 -0.03125q0.125 -0.03125 0.203125 -0.109375q0.078125 -0.09375 0.171875 -0.3125l0.765625 0l-0.140625 2.21875l-4.265625 0l0 2.5q0.421875 -0.125 0.84375 -0.1875q0.4375 -0.0625 1.0625 -0.0625q0.875 0 1.515625 0.328125q0.65625 0.3125 1.0 0.921875q0.359375 0.609375 0.359375 1.421875q0 0.96875 -0.4375 1.625q-0.421875 0.640625 -1.234375 0.96875q-0.8125 0.3125 -1.9375 0.3125q-0.734375 0 -1.5 -0.140625q-0.75 -0.15625 -1.28125 -0.40625z" fill-rule="nonzero"/><path fill="#000000" fill-opacity="0.0" d="m347.68686 124.69737l82.17325 0l0 45.259842l-82.17325 0z" fill-rule="evenodd"/><path fill="#000000" d="m358.10873 145.14612l0.140625 -0.6875q0.421875 -0.046875 0.640625 -0.109375q0.21875 -0.0625 0.375 -0.171875q0.15625 -0.125 0.28125 -0.390625q0.140625 -0.28125 0.296875 -0.859375q0.265625 -0.984375 0.65625 -1.625q0.390625 -0.65625 1.03125 -1.140625q0.640625 -0.484375 1.484375 -0.703125q0.84375 -0.234375 1.875 -0.234375q0.40625 0 0.875 0.03125q0.46875 0.03125 1.078125 0.15625l-0.46875 2.078125l-1.34375 0q-0.046875 -0.640625 -0.21875 -0.90625q-0.15625 -0.28125 -0.515625 -0.28125q-0.234375 0 -0.421875 0.09375q-0.1875 0.09375 -0.375 0.34375q-0.171875 0.234375 -0.328125 0.6875q-0.15625 0.453125 -0.34375 1.28125l-0.25 1.140625l1.96875 0l-0.28125 1.296875l-1.984375 0l-1.890625 8.703125q-0.359375 1.6875 -1.03125 2.78125q-0.65625 1.09375 -1.703125 1.640625q-1.046875 0.5625 -2.578125 0.5625q-0.484375 0 -0.984375 -0.140625l0.28125 -1.125q0.296875 0.078125 0.6875 0.078125q0.46875 0 0.765625 -0.140625q0.296875 -0.125 0.546875 -0.4375q0.234375 -0.3125 0.4375 -0.9375q0.203125 -0.609375 0.453125 -1.71875l2.09375 -9.265625l-1.25 0z" fill-rule="nonzero"/><path fill="#000000" d="m371.0654 156.61487q0.59375 -0.75 1.171875 -1.09375q0.59375 -0.34375 1.328125 -0.34375q0.71875 0 1.109375 0.40625q0.40625 0.390625 0.40625 1.09375q0 0.453125 -0.140625 1.078125l-0.5625 2.5625q-0.078125 0.328125 -0.109375 0.5q-0.015625 0.171875 -0.015625 0.296875q0 0.3125 0.15625 0.4375q0.15625 0.125 0.546875 0.171875l-0.09375 0.453125l-2.875 0l0.953125 -4.171875q0.078125 -0.328125 0.109375 -0.53125q0.046875 -0.21875 0.0625 -0.359375q0.015625 -0.15625 0.015625 -0.28125q0 -0.3125 -0.125 -0.46875q-0.125 -0.171875 -0.375 -0.171875q-0.21875 0 -0.484375 0.1875q-0.265625 0.171875 -0.59375 0.515625q-0.3125 0.34375 -0.515625 0.734375q-0.1875 0.390625 -0.296875 0.984375l-0.765625 3.5625l-2.0 0l1.0 -4.359375q0.0625 -0.265625 0.09375 -0.4375q0.03125 -0.171875 0.03125 -0.28125q0.015625 -0.125 0.015625 -0.21875q0 -0.359375 -0.125 -0.515625q-0.125 -0.171875 -0.390625 -0.171875q-0.328125 0 -0.78125 0.421875q-0.453125 0.421875 -0.71875 0.875q-0.25 0.4375 -0.390625 1.125l-0.75 3.5625l-2.0 0l1.09375 -4.90625q0.03125 -0.15625 0.09375 -0.46875q0.0625 -0.3125 0.0625 -0.515625q0 -0.296875 -0.171875 -0.40625q-0.15625 -0.109375 -0.515625 -0.125l0.109375 -0.46875l1.90625 -0.078125l0.734375 0l-0.390625 1.5l0.078125 0.03125q0.484375 -0.59375 0.890625 -0.921875q0.40625 -0.34375 0.8125 -0.484375q0.40625 -0.15625 0.890625 -0.15625q0.703125 0 1.09375 0.390625q0.40625 0.375 0.421875 1.046875zm15.259857 5.5625l-2.875 0l0.859375 -3.78125q0.1875 -0.796875 0.21875 -1.09375q0.046875 -0.3125 0.046875 -0.484375q0 -0.3125 -0.125 -0.46875q-0.125 -0.15625 -0.375 -0.15625q-0.234375 0 -0.5 0.171875q-0.25 0.15625 -0.578125 0.515625q-0.328125 0.359375 -0.53125 0.75q-0.1875 0.390625 -0.3125 0.984375l-0.75 3.5625l-2.0 0l1.09375 -4.90625q0.03125 -0.15625 0.09375 -0.46875q0.0625 -0.3125 0.0625 -0.515625q0 -0.296875 -0.171875 -0.40625q-0.15625 -0.109375 -0.515625 -0.125l0.109375 -0.46875l1.90625 -0.078125l0.734375 0l-0.390625 1.5l0.078125 0.03125q0.484375 -0.59375 0.890625 -0.921875q0.40625 -0.34375 0.8125 -0.484375q0.40625 -0.15625 0.90625 -0.15625q0.703125 0 1.109375 0.40625q0.421875 0.390625 0.421875 1.09375q0 0.453125 -0.140625 1.078125l-0.578125 2.5625q-0.0625 0.328125 -0.09375 0.5q-0.015625 0.171875 -0.015625 0.296875q0 0.3125 0.15625 0.4375q0.15625 0.125 0.53125 0.171875l-0.078125 0.453125zm5.7773438 -3.375l-0.59375 2.6875l-1.453125 0l0.59375 -2.6875l-2.484375 0l0.296875 -1.359375l2.484375 0l0.59375 -2.703125l1.453125 0l-0.59375 2.703125l2.484375 0l-0.3125 1.359375l-2.46875 0zm8.378082 1.203125q-0.125 0.609375 -0.125 0.859375q0 0.265625 0.15625 0.421875q0.15625 0.140625 0.5 0.203125q0.34375 0.046875 1.015625 0.0625l-0.125 0.625l-5.71875 0l0.140625 -0.625q0.75 -0.046875 1.078125 -0.109375q0.34375 -0.0625 0.515625 -0.1875q0.1875 -0.140625 0.296875 -0.359375q0.109375 -0.21875 0.234375 -0.78125l1.0 -4.53125q0.078125 -0.34375 0.078125 -0.5625q0 -0.203125 -0.09375 -0.296875q-0.078125 -0.09375 -0.21875 -0.09375q-0.140625 0 -0.3125 0.0625q-0.15625 0.046875 -0.40625 0.171875q-0.234375 0.125 -0.9375 0.515625l-0.34375 -0.71875l3.984375 -2.078125l0.953125 0q-0.203125 0.734375 -0.4375 1.859375l-1.234375 5.5625z" fill-rule="nonzero"/></g></svg>