<?xml version="1.0" standalone="yes"?>

<svg version="1.1" viewBox="0.0 0.0 1190.4934383202099 715.3254593175853" fill="none" stroke="none" stroke-linecap="square" stroke-miterlimit="10" xmlns="http://www.w3.org/2000/svg" xmlns:xlink="http://www.w3.org/1999/xlink"><clipPath id="p.0"><path d="m0 0l1190.4934 0l0 715.32544l-1190.4934 0l0 -715.32544z" clip-rule="nonzero"></path></clipPath><g clip-path="url(#p.0)"><path fill="#000000" fill-opacity="0.0" d="m0 0l1190.4934 0l0 715.32544l-1190.4934 0z" fill-rule="evenodd"></path><path fill="#f3f3f3" d="m318.0866 14.734908l84.31497 0l0 677.3858l-84.31497 0z" fill-rule="evenodd"></path><path stroke="#000000" stroke-width="1.0" stroke-linejoin="round" stroke-linecap="butt" d="m318.0866 14.734908l84.31497 0l0 677.3858l-84.31497 0z" fill-rule="evenodd"></path><path fill="#cfe2f3" d="m323.52628 70.703415l0 0c0 -20.517162 16.632446 -37.14961 37.149597 -37.14961l0 0c9.852692 0 19.30185 3.9139633 26.268738 10.880867c6.966919 6.9669037 10.880859 16.41605 10.880859 26.268742l0 0c0 20.517159 -16.632446 37.149605 -37.149597 37.149605l0 0c-20.51715 0 -37.149597 -16.632446 -37.149597 -37.149605z" fill-rule="evenodd"></path><path stroke="#0000ff" stroke-width="1.0" stroke-linejoin="round" stroke-linecap="butt" d="m323.52628 70.703415l0 0c0 -20.517162 16.632446 -37.14961 37.149597 -37.14961l0 0c9.852692 0 19.30185 3.9139633 26.268738 10.880867c6.966919 6.9669037 10.880859 16.41605 10.880859 26.268742l0 0c0 20.517159 -16.632446 37.149605 -37.149597 37.149605l0 0c-20.51715 0 -37.149597 -16.632446 -37.149597 -37.149605z" fill-rule="evenodd"></path><path fill="#000000" d="m360.6666 77.77966q-1.453125 0 -2.4375 -0.640625q-0.96875 -0.640625 -1.5 -2.0625q-0.53125 -1.421875 -0.53125 -3.671875q0 -2.125 0.53125 -3.59375q0.546875 -1.46875 1.59375 -2.234375q1.046875 -0.765625 2.5 -0.765625q2.28125 0 3.40625 1.5625q1.125 1.546875 1.125 4.75q0 3.28125 -1.1875 4.96875q-1.1875 1.6875 -3.5 1.6875zm-1.640625 -6.640625q0 2.046875 0.171875 3.25q0.1875 1.203125 0.578125 1.78125q0.390625 0.5625 1.03125 0.5625q0.359375 0 0.625 -0.171875q0.265625 -0.171875 0.46875 -0.53125q0.203125 -0.375 0.34375 -0.984375q0.15625 -0.609375 0.21875 -1.5q0.078125 -0.90625 0.078125 -2.03125q0 -1.65625 -0.125 -2.78125q-0.125 -1.140625 -0.359375 -1.75q-0.234375 -0.609375 -0.546875 -0.859375q-0.3125 -0.265625 -0.734375 -0.265625q-0.5 0 -0.84375 0.328125q-0.328125 0.3125 -0.53125 0.96875q-0.203125 0.65625 -0.296875 1.65625q-0.078125 0.984375 -0.078125 2.328125z" fill-rule="nonzero"></path><path fill="#cfe2f3" d="m323.52628 160.67586l0 0c0 -20.517166 16.632446 -37.149612 37.149597 -37.149612l0 0c9.852692 0 19.30185 3.9139633 26.268738 10.880875c6.966919 6.9669037 10.880859 16.416046 10.880859 26.268738l0 0c0 20.51715 -16.632446 37.149597 -37.149597 37.149597l0 0c-20.51715 0 -37.149597 -16.632446 -37.149597 -37.149597z" fill-rule="evenodd"></path><path stroke="#0000ff" stroke-width="1.0" stroke-linejoin="round" stroke-linecap="butt" d="m323.52628 160.67586l0 0c0 -20.517166 16.632446 -37.149612 37.149597 -37.149612l0 0c9.852692 0 19.30185 3.9139633 26.268738 10.880875c6.966919 6.9669037 10.880859 16.416046 10.880859 26.268738l0 0c0 20.51715 -16.632446 37.149597 -37.149597 37.149597l0 0c-20.51715 0 -37.149597 -16.632446 -37.149597 -37.149597z" fill-rule="evenodd"></path><path fill="#000000" d="m362.58847 165.0021q0 0.546875 0.0625 0.828125q0.0625 0.265625 0.21875 0.4375q0.15625 0.171875 0.4375 0.265625q0.28125 0.09375 0.71875 0.15625q0.4375 0.046875 1.15625 0.0625l0 0.84375l-8.015625 0l0 -0.84375q1.03125 -0.046875 1.46875 -0.125q0.453125 -0.078125 0.671875 -0.234375q0.234375 -0.15625 0.34375 -0.4375q0.109375 -0.296875 0.109375 -0.953125l0 -6.703125q0 -0.375 -0.140625 -0.546875q-0.140625 -0.171875 -0.390625 -0.171875q-0.234375 0 -0.65625 0.21875q-0.421875 0.21875 -1.390625 0.875l-0.5625 -0.984375l4.84375 -2.90625l1.1875 0q-0.0625 0.890625 -0.0625 2.46875l0 7.75z" fill-rule="nonzero"></path><path fill="#cfe2f3" d="m323.52628 250.6483l0 0c0 -20.517166 16.632446 -37.149612 37.149597 -37.149612l0 0c9.852692 0 19.30185 3.913971 26.268738 10.880875c6.966919 6.9668884 10.880859 16.416046 10.880859 26.268738l0 0c0 20.517166 -16.632446 37.149612 -37.149597 37.149612l0 0c-20.51715 0 -37.149597 -16.632446 -37.149597 -37.149612z" fill-rule="evenodd"></path><path stroke="#0000ff" stroke-width="1.0" stroke-linejoin="round" stroke-linecap="butt" d="m323.52628 250.6483l0 0c0 -20.517166 16.632446 -37.149612 37.149597 -37.149612l0 0c9.852692 0 19.30185 3.913971 26.268738 10.880875c6.966919 6.9668884 10.880859 16.416046 10.880859 26.268738l0 0c0 20.517166 -16.632446 37.149612 -37.149597 37.149612l0 0c-20.51715 0 -37.149597 -16.632446 -37.149597 -37.149612z" fill-rule="evenodd"></path><path fill="#000000" d="m362.15097 255.30267q0.59375 0 0.890625 -0.09375q0.296875 -0.09375 0.46875 -0.3125q0.171875 -0.21875 0.28125 -0.65625l1.078125 0l-0.21875 3.328125l-8.5 0l0 -0.609375q0.390625 -0.890625 1.125 -1.9375q0.734375 -1.046875 1.796875 -2.296875q1.0 -1.171875 1.515625 -1.9375q0.53125 -0.765625 0.796875 -1.4375q0.265625 -0.671875 0.265625 -1.40625q0 -1.015625 -0.46875 -1.59375q-0.453125 -0.578125 -1.234375 -0.578125q-0.75 0 -1.234375 0.53125q-0.484375 0.515625 -0.703125 1.640625l-1.671875 0l0 -2.1875q1.125 -0.453125 1.765625 -0.625q0.640625 -0.1875 1.265625 -0.28125q0.640625 -0.09375 1.359375 -0.09375q1.375 0 2.234375 0.375q0.859375 0.359375 1.234375 0.984375q0.390625 0.625 0.390625 1.46875q0 0.71875 -0.28125 1.359375q-0.265625 0.625 -0.9375 1.4375q-0.671875 0.796875 -2.265625 2.3125q-0.71875 0.6875 -1.34375 1.40625q-0.609375 0.703125 -0.90625 1.109375l0 0.09375l3.296875 0z" fill-rule="nonzero"></path><path fill="#cfe2f3" d="m323.52628 642.147l0 0c0 -20.51715 16.632446 -37.149597 37.149597 -37.149597l0 0c9.852692 0 19.30185 3.9139404 26.268738 10.880859c6.966919 6.966919 10.880859 16.416077 10.880859 26.268738l0 0c0 20.51715 -16.632446 37.149597 -37.149597 37.149597l0 0c-20.51715 0 -37.149597 -16.632446 -37.149597 -37.149597z" fill-rule="evenodd"></path><path stroke="#0000ff" stroke-width="1.0" stroke-linejoin="round" stroke-linecap="butt" d="m323.52628 642.147l0 0c0 -20.51715 16.632446 -37.149597 37.149597 -37.149597l0 0c9.852692 0 19.30185 3.9139404 26.268738 10.880859c6.966919 6.966919 10.880859 16.416077 10.880859 26.268738l0 0c0 20.51715 -16.632446 37.149597 -37.149597 37.149597l0 0c-20.51715 0 -37.149597 -16.632446 -37.149597 -37.149597z" fill-rule="evenodd"></path><path fill="#000000" d="m353.704 637.0201l-5.140625 12.078125l-1.90625 0l0 -0.640625l4.65625 -9.4375l0 -0.140625l-4.125 0q-0.40625 0 -0.671875 0.0625q-0.25 0.0625 -0.40625 0.21875q-0.15625 0.140625 -0.25 0.375q-0.09375 0.21875 -0.203125 0.71875l-1.078125 0l0.234375 -3.84375l8.890625 0l0 0.609375zm8.924835 5.359375l0.015625 0.125q1.078125 0.40625 1.625 1.203125q0.5625 0.78125 0.5625 1.875q0 1.09375 -0.59375 1.921875q-0.578125 0.8125 -1.6875 1.265625q-1.09375 0.453125 -2.5625 0.453125q-1.40625 0 -2.453125 -0.40625q-1.03125 -0.421875 -1.609375 -1.203125q-0.578125 -0.796875 -0.578125 -1.875q0 -0.796875 0.28125 -1.390625q0.296875 -0.59375 0.78125 -0.984375q0.484375 -0.40625 1.15625 -0.71875l-0.015625 -0.125q-2.046875 -0.890625 -2.046875 -2.953125q0 -0.953125 0.578125 -1.703125q0.59375 -0.75 1.671875 -1.171875q1.09375 -0.4375 2.421875 -0.4375q2.265625 0 3.40625 0.828125q1.15625 0.828125 1.15625 2.328125q0 1.015625 -0.53125 1.765625q-0.515625 0.75 -1.578125 1.203125zm-4.34375 -2.890625q0 1.21875 0.46875 1.875q0.484375 0.640625 1.40625 0.640625q0.890625 0 1.34375 -0.609375q0.453125 -0.609375 0.453125 -1.734375q0 -1.15625 -0.46875 -1.75q-0.46875 -0.609375 -1.359375 -0.609375q-0.90625 0 -1.375 0.5625q-0.46875 0.546875 -0.46875 1.625zm-0.109375 6.03125q0 1.3125 0.484375 1.984375q0.484375 0.671875 1.453125 0.671875q0.59375 0 1.015625 -0.28125q0.421875 -0.28125 0.640625 -0.84375q0.234375 -0.578125 0.234375 -1.375q0 -0.828125 -0.234375 -1.421875q-0.21875 -0.59375 -0.65625 -0.921875q-0.4375 -0.328125 -1.03125 -0.328125q-0.6875 0 -1.125 0.328125q-0.421875 0.328125 -0.609375 0.890625q-0.171875 0.5625 -0.171875 1.296875zm8.69043 -6.0625l0 -2.203125q2.34375 -1.0 4.25 -1.0q1.140625 0 2.015625 0.3125q0.875 0.3125 1.359375 0.921875q0.484375 0.609375 0.484375 1.46875q0 0.796875 -0.328125 1.390625q-0.3125 0.59375 -0.890625 1.046875q-0.5625 0.4375 -1.46875 0.875l0 0.078125q0.8125 0.140625 1.46875 0.546875q0.671875 0.390625 1.0625 1.0625q0.390625 0.671875 0.390625 1.546875q0 1.078125 -0.53125 1.921875q-0.515625 0.828125 -1.59375 1.3125q-1.0625 0.484375 -2.578125 0.484375q-1.046875 0 -2.0625 -0.1875q-1.0 -0.203125 -1.765625 -0.546875l0 -2.328125l1.671875 0q0.28125 1.0625 0.765625 1.546875q0.484375 0.46875 1.296875 0.46875q1.953125 0 1.953125 -2.4375q0 -1.296875 -0.6875 -1.9375q-0.6875 -0.640625 -2.09375 -0.640625l-0.734375 0l0 -1.0625q1.609375 -0.0625 2.4375 -0.75q0.84375 -0.703125 0.84375 -2.0q0 -1.03125 -0.421875 -1.546875q-0.40625 -0.53125 -1.21875 -0.53125q-0.453125 0 -0.84375 0.203125q-0.375 0.1875 -0.6875 0.6875q-0.296875 0.5 -0.421875 1.296875l-1.671875 0z" fill-rule="nonzero"></path><path fill="#f3f3f3" d="m858.07184 82.073494l57.13385 0l0 542.7087l-57.13385 0z" fill-rule="evenodd"></path><path stroke="#000000" stroke-width="1.0" stroke-linejoin="round" stroke-linecap="butt" d="m858.07184 82.073494l57.13385 0l0 542.7087l-57.13385 0z" fill-rule="evenodd"></path><path fill="#d9ead3" d="m864.4183 116.08399l0 0c0 -12.272034 9.948486 -22.220474 22.22052 -22.220474l0 0c5.8931885 0 11.545044 2.3410797 15.712219 6.5082245c4.1671753 4.167145 6.5082397 9.819008 6.5082397 15.71225l0 0c0 12.272026 -9.948486 22.220467 -22.220459 22.220467l0 0c-12.272034 0 -22.22052 -9.948441 -22.22052 -22.220467z" fill-rule="evenodd"></path><path stroke="#6aa84f" stroke-width="1.0" stroke-linejoin="round" stroke-linecap="butt" d="m864.4183 116.08399l0 0c0 -12.272034 9.948486 -22.220474 22.22052 -22.220474l0 0c5.8931885 0 11.545044 2.3410797 15.712219 6.5082245c4.1671753 4.167145 6.5082397 9.819008 6.5082397 15.71225l0 0c0 12.272026 -9.948486 22.220467 -22.220459 22.220467l0 0c-12.272034 0 -22.22052 -9.948441 -22.22052 -22.220467z" fill-rule="evenodd"></path><path fill="#000000" d="m885.44214 123.16024q-1.453125 0 -2.4375 -0.640625q-0.96875 -0.640625 -1.5 -2.0625q-0.53125 -1.421875 -0.53125 -3.671875q0 -2.125 0.53125 -3.59375q0.546875 -1.46875 1.59375 -2.234375q1.046875 -0.765625 2.5 -0.765625q2.28125 0 3.40625 1.5625q1.125 1.546875 1.125 4.75q0 3.28125 -1.1875 4.96875q-1.1875 1.6875 -3.5 1.6875zm-1.640625 -6.640625q0 2.046875 0.171875 3.25q0.1875 1.203125 0.578125 1.78125q0.390625 0.5625 1.03125 0.5625q0.359375 0 0.625 -0.171875q0.265625 -0.171875 0.46875 -0.53125q0.203125 -0.375 0.34375 -0.984375q0.15625 -0.609375 0.21875 -1.5q0.078125 -0.90625 0.078125 -2.03125q0 -1.65625 -0.125 -2.78125q-0.125 -1.140625 -0.359375 -1.75q-0.234375 -0.609375 -0.546875 -0.859375q-0.3125 -0.265625 -0.734375 -0.265625q-0.5 0 -0.84375 0.328125q-0.328125 0.3125 -0.53125 0.96875q-0.203125 0.65625 -0.296875 1.65625q-0.078125 0.984375 -0.078125 2.328125z" fill-rule="nonzero"></path><path fill="#d9ead3" d="m864.4183 169.26247l0 0c0 -12.272034 9.948486 -22.220474 22.22052 -22.220474l0 0c5.8931885 0 11.545044 2.3410797 15.712219 6.5082245c4.1671753 4.167145 6.5082397 9.8190155 6.5082397 15.71225l0 0c0 12.272034 -9.948486 22.220474 -22.220459 22.220474l0 0c-12.272034 0 -22.22052 -9.948441 -22.22052 -22.220474z" fill-rule="evenodd"></path><path stroke="#6aa84f" stroke-width="1.0" stroke-linejoin="round" stroke-linecap="butt" d="m864.4183 169.26247l0 0c0 -12.272034 9.948486 -22.220474 22.22052 -22.220474l0 0c5.8931885 0 11.545044 2.3410797 15.712219 6.5082245c4.1671753 4.167145 6.5082397 9.8190155 6.5082397 15.71225l0 0c0 12.272034 -9.948486 22.220474 -22.220459 22.220474l0 0c-12.272034 0 -22.22052 -9.948441 -22.22052 -22.220474z" fill-rule="evenodd"></path><path fill="#000000" d="m887.364 173.58871q0 0.546875 0.0625 0.828125q0.0625 0.265625 0.21875 0.4375q0.15625 0.171875 0.4375 0.265625q0.28125 0.09375 0.71875 0.15625q0.4375 0.046875 1.15625 0.0625l0 0.84375l-8.015625 0l0 -0.84375q1.03125 -0.046875 1.46875 -0.125q0.453125 -0.078125 0.671875 -0.234375q0.234375 -0.15625 0.34375 -0.4375q0.109375 -0.296875 0.109375 -0.953125l0 -6.703125q0 -0.375 -0.140625 -0.546875q-0.140625 -0.171875 -0.390625 -0.171875q-0.234375 0 -0.65625 0.21875q-0.421875 0.21875 -1.390625 0.875l-0.5625 -0.984375l4.84375 -2.90625l1.1875 0q-0.0625 0.890625 -0.0625 2.46875l0 7.75z" fill-rule="nonzero"></path><path fill="#d9ead3" d="m864.4183 222.44095l0 0c0 -12.272034 9.948486 -22.220474 22.22052 -22.220474l0 0c5.8931885 0 11.545044 2.3410797 15.712219 6.5082245c4.1671753 4.167145 6.5082397 9.8190155 6.5082397 15.71225l0 0c0 12.272018 -9.948486 22.220474 -22.220459 22.220474l0 0c-12.272034 0 -22.22052 -9.948456 -22.22052 -22.220474z" fill-rule="evenodd"></path><path stroke="#6aa84f" stroke-width="1.0" stroke-linejoin="round" stroke-linecap="butt" d="m864.4183 222.44095l0 0c0 -12.272034 9.948486 -22.220474 22.22052 -22.220474l0 0c5.8931885 0 11.545044 2.3410797 15.712219 6.5082245c4.1671753 4.167145 6.5082397 9.8190155 6.5082397 15.71225l0 0c0 12.272018 -9.948486 22.220474 -22.220459 22.220474l0 0c-12.272034 0 -22.22052 -9.948456 -22.22052 -22.220474z" fill-rule="evenodd"></path><path fill="#000000" d="m886.9265 227.09532q0.59375 0 0.890625 -0.09375q0.296875 -0.09375 0.46875 -0.3125q0.171875 -0.21875 0.28125 -0.65625l1.078125 0l-0.21875 3.328125l-8.5 0l0 -0.609375q0.390625 -0.890625 1.125 -1.9375q0.734375 -1.046875 1.796875 -2.296875q1.0 -1.171875 1.515625 -1.9375q0.53125 -0.765625 0.796875 -1.4375q0.265625 -0.671875 0.265625 -1.40625q0 -1.015625 -0.46875 -1.59375q-0.453125 -0.578125 -1.234375 -0.578125q-0.75 0 -1.234375 0.53125q-0.484375 0.515625 -0.703125 1.640625l-1.671875 0l0 -2.1875q1.125 -0.453125 1.765625 -0.625q0.640625 -0.1875 1.265625 -0.28125q0.640625 -0.09375 1.359375 -0.09375q1.375 0 2.234375 0.375q0.859375 0.359375 1.234375 0.984375q0.390625 0.625 0.390625 1.46875q0 0.71875 -0.28125 1.359375q-0.265625 0.625 -0.9375 1.4375q-0.671875 0.796875 -2.265625 2.3125q-0.71875 0.6875 -1.34375 1.40625q-0.609375 0.703125 -0.90625 1.109375l0 0.09375l3.296875 0z" fill-rule="nonzero"></path><path fill="#d9ead3" d="m864.4183 275.61942l0 0c0 -12.272034 9.948486 -22.220459 22.22052 -22.220459l0 0c5.8931885 0 11.545044 2.3410797 15.712219 6.508209c4.1671753 4.167145 6.5082397 9.819031 6.5082397 15.71225l0 0c0 12.272034 -9.948486 22.22049 -22.220459 22.22049l0 0c-12.272034 0 -22.22052 -9.948456 -22.22052 -22.22049z" fill-rule="evenodd"></path><path stroke="#6aa84f" stroke-width="1.0" stroke-linejoin="round" stroke-linecap="butt" d="m864.4183 275.61942l0 0c0 -12.272034 9.948486 -22.220459 22.22052 -22.220459l0 0c5.8931885 0 11.545044 2.3410797 15.712219 6.508209c4.1671753 4.167145 6.5082397 9.819031 6.5082397 15.71225l0 0c0 12.272034 -9.948486 22.22049 -22.220459 22.22049l0 0c-12.272034 0 -22.22052 -9.948456 -22.22052 -22.22049z" fill-rule="evenodd"></path><path fill="#000000" d="m881.2859 272.93005l0 -2.203125q2.34375 -1.0 4.25 -1.0q1.140625 0 2.015625 0.3125q0.875 0.3125 1.359375 0.921875q0.484375 0.609375 0.484375 1.46875q0 0.796875 -0.328125 1.390625q-0.3125 0.59375 -0.890625 1.046875q-0.5625 0.4375 -1.46875 0.875l0 0.078125q0.8125 0.140625 1.46875 0.546875q0.671875 0.390625 1.0625 1.0625q0.390625 0.671875 0.390625 1.546875q0 1.078125 -0.53125 1.921875q-0.515625 0.828125 -1.59375 1.3125q-1.0625 0.484375 -2.578125 0.484375q-1.046875 0 -2.0625 -0.1875q-1.0 -0.203125 -1.765625 -0.546875l0 -2.328125l1.671875 0q0.28125 1.0625 0.765625 1.546875q0.484375 0.46875 1.296875 0.46875q1.953125 0 1.953125 -2.4375q0 -1.296875 -0.6875 -1.9375q-0.6875 -0.640625 -2.09375 -0.640625l-0.734375 0l0 -1.0625q1.609375 -0.0625 2.4375 -0.75q0.84375 -0.703125 0.84375 -2.0q0 -1.03125 -0.421875 -1.546875q-0.40625 -0.53125 -1.21875 -0.53125q-0.453125 0 -0.84375 0.203125q-0.375 0.1875 -0.6875 0.6875q-0.296875 0.5 -0.421875 1.296875l-1.671875 0z" fill-rule="nonzero"></path><path fill="#d9ead3" d="m864.4183 328.7979l0 0c0 -12.272034 9.948486 -22.22049 22.22052 -22.22049l0 0c5.8931885 0 11.545044 2.341095 15.712219 6.5082397c4.1671753 4.167145 6.5082397 9.819 6.5082397 15.71225l0 0c0 12.272003 -9.948486 22.220459 -22.220459 22.220459l0 0c-12.272034 0 -22.22052 -9.948456 -22.22052 -22.220459z" fill-rule="evenodd"></path><path stroke="#6aa84f" stroke-width="1.0" stroke-linejoin="round" stroke-linecap="butt" d="m864.4183 328.7979l0 0c0 -12.272034 9.948486 -22.22049 22.22052 -22.22049l0 0c5.8931885 0 11.545044 2.341095 15.712219 6.5082397c4.1671753 4.167145 6.5082397 9.819 6.5082397 15.71225l0 0c0 12.272003 -9.948486 22.220459 -22.220459 22.220459l0 0c-12.272034 0 -22.22052 -9.948456 -22.22052 -22.220459z" fill-rule="evenodd"></path><path fill="#000000" d="m884.39526 335.10852q0.328125 -0.09375 0.53125 -0.203125q0.203125 -0.109375 0.296875 -0.28125q0.109375 -0.1875 0.125 -0.46875q0.03125 -0.296875 0.03125 -0.734375l0 -1.375l-4.96875 0l0 -1.0l5.625 -8.0625l2.09375 0l0 7.890625l0.28125 0q0.453125 0 0.640625 -0.0625q0.1875 -0.0625 0.3125 -0.21875q0.140625 -0.171875 0.265625 -0.59375l0.96875 0l-0.109375 2.046875l-2.359375 0l0 1.375q0 0.5 0.046875 0.796875q0.046875 0.28125 0.15625 0.453125q0.109375 0.171875 0.296875 0.265625q0.203125 0.078125 0.5 0.171875l0 0.609375l-4.734375 0l0 -0.609375zm-2.1875 -4.234375l3.171875 0l0 -2.125q0 -1.328125 0.09375 -2.8125l-0.09375 0l-3.171875 4.78125l0 0.15625z" fill-rule="nonzero"></path><path fill="#d9ead3" d="m864.4183 381.97638l0 0c0 -12.272034 9.948486 -22.220459 22.22052 -22.220459l0 0c5.8931885 0 11.545044 2.3410645 15.712219 6.508209c4.1671753 4.167145 6.5082397 9.819 6.5082397 15.71225l0 0c0 12.272034 -9.948486 22.220459 -22.220459 22.220459l0 0c-12.272034 0 -22.22052 -9.948425 -22.22052 -22.220459z" fill-rule="evenodd"></path><path stroke="#6aa84f" stroke-width="1.0" stroke-linejoin="round" stroke-linecap="butt" d="m864.4183 381.97638l0 0c0 -12.272034 9.948486 -22.220459 22.22052 -22.220459l0 0c5.8931885 0 11.545044 2.3410645 15.712219 6.508209c4.1671753 4.167145 6.5082397 9.819 6.5082397 15.71225l0 0c0 12.272034 -9.948486 22.220459 -22.220459 22.220459l0 0c-12.272034 0 -22.22052 -9.948425 -22.22052 -22.220459z" fill-rule="evenodd"></path><path fill="#000000" d="m881.37964 388.31824l0 -2.3125l1.6875 0q0.234375 1.0 0.734375 1.5q0.515625 0.5 1.328125 0.5q1.0 0 1.484375 -0.625q0.484375 -0.625 0.484375 -1.9375q0 -1.28125 -0.625 -1.953125q-0.625 -0.6875 -1.796875 -0.6875q-0.453125 0 -0.984375 0.09375q-0.515625 0.078125 -0.921875 0.1875l-0.84375 -0.515625l0 -6.328125l5.484375 0q0.34375 0 0.5 -0.046875q0.15625 -0.046875 0.25 -0.15625q0.109375 -0.125 0.234375 -0.421875l1.015625 0l-0.171875 2.96875l-5.703125 0l0 3.328125q0.5625 -0.15625 1.140625 -0.234375q0.578125 -0.078125 1.421875 -0.078125q1.140625 0 2.015625 0.421875q0.875 0.421875 1.34375 1.234375q0.484375 0.8125 0.484375 1.90625q0 1.28125 -0.578125 2.15625q-0.578125 0.859375 -1.671875 1.296875q-1.078125 0.4375 -2.59375 0.4375q-0.96875 0 -1.984375 -0.1875q-1.0 -0.203125 -1.734375 -0.546875z" fill-rule="nonzero"></path><path fill="#d9ead3" d="m864.4183 435.15485l0 0c0 -12.272034 9.948486 -22.220459 22.22052 -22.220459l0 0c5.8931885 0 11.545044 2.3410645 15.712219 6.508209c4.1671753 4.167145 6.5082397 9.819031 6.5082397 15.71225l0 0c0 12.272034 -9.948486 22.22049 -22.220459 22.22049l0 0c-12.272034 0 -22.22052 -9.948456 -22.22052 -22.22049z" fill-rule="evenodd"></path><path stroke="#6aa84f" stroke-width="1.0" stroke-linejoin="round" stroke-linecap="butt" d="m864.4183 435.15485l0 0c0 -12.272034 9.948486 -22.220459 22.22052 -22.220459l0 0c5.8931885 0 11.545044 2.3410645 15.712219 6.508209c4.1671753 4.167145 6.5082397 9.819031 6.5082397 15.71225l0 0c0 12.272034 -9.948486 22.22049 -22.220459 22.22049l0 0c-12.272034 0 -22.22052 -9.948456 -22.22052 -22.22049z" fill-rule="evenodd"></path><path fill="#000000" d="m888.75464 429.90298l0 0.578125q-2.03125 0.046875 -3.296875 1.265625q-1.25 1.203125 -1.671875 3.453125l0.09375 0.03125q0.71875 -0.5 1.453125 -0.71875q0.734375 -0.234375 1.609375 -0.234375q1.0625 0 1.828125 0.46875q0.765625 0.46875 1.15625 1.328125q0.390625 0.84375 0.390625 1.96875q0 1.234375 -0.515625 2.1875q-0.515625 0.9375 -1.609375 1.46875q-1.078125 0.53125 -2.640625 0.53125q-1.4375 0 -2.484375 -0.578125q-1.03125 -0.578125 -1.578125 -1.703125q-0.546875 -1.125 -0.546875 -2.734375q0 -2.15625 0.90625 -3.90625q0.921875 -1.765625 2.59375 -2.828125q1.6875 -1.0625 3.8125 -1.21875l0.5 0.640625zm-2.90625 5.65625q-0.453125 0 -0.859375 0.140625q-0.390625 0.125 -0.703125 0.359375q-0.3125 0.21875 -0.421875 0.359375q-0.09375 0.140625 -0.140625 0.421875q-0.046875 0.265625 -0.046875 0.9375q0 1.703125 0.46875 2.5625q0.46875 0.84375 1.453125 0.84375q0.546875 0 0.921875 -0.203125q0.390625 -0.21875 0.609375 -0.609375q0.234375 -0.390625 0.328125 -0.921875q0.109375 -0.546875 0.109375 -1.203125q0 -1.328125 -0.4375 -2.0q-0.4375 -0.6875 -1.28125 -0.6875z" fill-rule="nonzero"></path><path fill="#d9ead3" d="m864.4183 488.33334l0 0c0 -12.272034 9.948486 -22.22049 22.22052 -22.22049l0 0c5.8931885 0 11.545044 2.341095 15.712219 6.5082397c4.1671753 4.167145 6.5082397 9.819 6.5082397 15.71225l0 0c0 12.272003 -9.948486 22.220459 -22.220459 22.220459l0 0c-12.272034 0 -22.22052 -9.948456 -22.22052 -22.220459z" fill-rule="evenodd"></path><path stroke="#6aa84f" stroke-width="1.0" stroke-linejoin="round" stroke-linecap="butt" d="m864.4183 488.33334l0 0c0 -12.272034 9.948486 -22.22049 22.22052 -22.22049l0 0c5.8931885 0 11.545044 2.341095 15.712219 6.5082397c4.1671753 4.167145 6.5082397 9.819 6.5082397 15.71225l0 0c0 12.272003 -9.948486 22.220459 -22.220459 22.220459l0 0c-12.272034 0 -22.22052 -9.948456 -22.22052 -22.220459z" fill-rule="evenodd"></path><path fill="#000000" d="m890.2234 483.20645l-5.140625 12.078125l-1.90625 0l0 -0.640625l4.65625 -9.4375l0 -0.140625l-4.125 0q-0.40625 0 -0.671875 0.0625q-0.25 0.0625 -0.40625 0.21875q-0.15625 0.140625 -0.25 0.375q-0.09375 0.21875 -0.203125 0.71875l-1.078125 0l0.234375 -3.84375l8.890625 0l0 0.609375z" fill-rule="nonzero"></path><path fill="#d9ead3" d="m864.4183 541.51184l0 0c0 -12.272034 9.948486 -22.22052 22.22052 -22.22052l0 0c5.8931885 0 11.545044 2.3411255 15.712219 6.5082397c4.1671753 4.1671753 6.5082397 9.819031 6.5082397 15.71228l0 0c0 12.271973 -9.948486 22.220459 -22.220459 22.220459l0 0c-12.272034 0 -22.22052 -9.948486 -22.22052 -22.220459z" fill-rule="evenodd"></path><path stroke="#6aa84f" stroke-width="1.0" stroke-linejoin="round" stroke-linecap="butt" d="m864.4183 541.51184l0 0c0 -12.272034 9.948486 -22.22052 22.22052 -22.22052l0 0c5.8931885 0 11.545044 2.3411255 15.712219 6.5082397c4.1671753 4.1671753 6.5082397 9.819031 6.5082397 15.71228l0 0c0 12.271973 -9.948486 22.220459 -22.220459 22.220459l0 0c-12.272034 0 -22.22052 -9.948486 -22.22052 -22.220459z" fill-rule="evenodd"></path><path fill="#000000" d="m888.0984 541.7443l0.015625 0.125q1.078125 0.40625 1.625 1.203125q0.5625 0.78125 0.5625 1.875q0 1.09375 -0.59375 1.921875q-0.578125 0.8125 -1.6875 1.265625q-1.09375 0.453125 -2.5625 0.453125q-1.40625 0 -2.453125 -0.40625q-1.03125 -0.421875 -1.609375 -1.203125q-0.578125 -0.796875 -0.578125 -1.875q0 -0.796875 0.28125 -1.390625q0.296875 -0.59375 0.78125 -0.984375q0.484375 -0.40625 1.15625 -0.71875l-0.015625 -0.125q-2.046875 -0.890625 -2.046875 -2.953125q0 -0.953125 0.578125 -1.703125q0.59375 -0.75 1.671875 -1.171875q1.09375 -0.4375 2.421875 -0.4375q2.265625 0 3.40625 0.828125q1.15625 0.828125 1.15625 2.328125q0 1.015625 -0.53125 1.765625q-0.515625 0.75 -1.578125 1.203125zm-4.34375 -2.890625q0 1.21875 0.46875 1.875q0.484375 0.640625 1.40625 0.640625q0.890625 0 1.34375 -0.609375q0.453125 -0.609375 0.453125 -1.734375q0 -1.15625 -0.46875 -1.75q-0.46875 -0.609375 -1.359375 -0.609375q-0.90625 0 -1.375 0.5625q-0.46875 0.546875 -0.46875 1.625zm-0.109375 6.03125q0 1.3125 0.484375 1.984375q0.484375 0.671875 1.453125 0.671875q0.59375 0 1.015625 -0.28125q0.421875 -0.28125 0.640625 -0.84375q0.234375 -0.578125 0.234375 -1.375q0 -0.828125 -0.234375 -1.421875q-0.21875 -0.59375 -0.65625 -0.921875q-0.4375 -0.328125 -1.03125 -0.328125q-0.6875 0 -1.125 0.328125q-0.421875 0.328125 -0.609375 0.890625q-0.171875 0.5625 -0.171875 1.296875z" fill-rule="nonzero"></path><path fill="#d9ead3" d="m864.4183 594.6903l0 0c0 -12.272034 9.948486 -22.22052 22.22052 -22.22052l0 0c5.8931885 0 11.545044 2.3411255 15.712219 6.5082397c4.1671753 4.1671753 6.5082397 9.819031 6.5082397 15.71228l0 0c0 12.272034 -9.948486 22.220459 -22.220459 22.220459l0 0c-12.272034 0 -22.22052 -9.948425 -22.22052 -22.220459z" fill-rule="evenodd"></path><path stroke="#6aa84f" stroke-width="1.0" stroke-linejoin="round" stroke-linecap="butt" d="m864.4183 594.6903l0 0c0 -12.272034 9.948486 -22.22052 22.22052 -22.22052l0 0c5.8931885 0 11.545044 2.3411255 15.712219 6.5082397c4.1671753 4.1671753 6.5082397 9.819031 6.5082397 15.71228l0 0c0 12.272034 -9.948486 22.220459 -22.220459 22.220459l0 0c-12.272034 0 -22.22052 -9.948425 -22.22052 -22.220459z" fill-rule="evenodd"></path><path fill="#000000" d="m882.95776 601.20404l0 -0.65625q0.59375 -0.015625 1.046875 -0.109375q0.546875 -0.125 1.015625 -0.359375q0.484375 -0.25 0.84375 -0.609375q0.453125 -0.4375 0.75 -1.0q0.296875 -0.5625 0.453125 -1.21875q0.171875 -0.671875 0.265625 -1.40625l-0.09375 -0.03125q-0.71875 0.484375 -1.40625 0.71875q-0.6875 0.21875 -1.65625 0.21875q-1.09375 0 -1.859375 -0.46875q-0.765625 -0.46875 -1.15625 -1.3125q-0.375 -0.84375 -0.375 -1.953125q0 -1.234375 0.578125 -2.203125q0.578125 -0.96875 1.65625 -1.484375q1.09375 -0.53125 2.578125 -0.53125q1.5 0 2.515625 0.625q1.03125 0.609375 1.53125 1.796875q0.515625 1.171875 0.515625 2.84375q0 2.328125 -0.796875 4.0q-0.78125 1.65625 -2.296875 2.59375q-1.5 0.9375 -3.640625 1.109375l-0.46875 -0.5625zm2.296875 -5.71875q0.34375 0 0.640625 -0.0625q0.296875 -0.078125 0.5625 -0.203125q0.265625 -0.140625 0.484375 -0.328125q0.234375 -0.1875 0.296875 -0.3125q0.078125 -0.125 0.125 -0.34375q0.0625 -0.234375 0.0625 -0.640625q0 -1.8125 -0.5 -2.78125q-0.484375 -0.96875 -1.421875 -0.96875q-0.546875 0 -0.921875 0.21875q-0.375 0.203125 -0.609375 0.59375q-0.234375 0.390625 -0.34375 0.9375q-0.09375 0.53125 -0.09375 1.1875q0 2.703125 1.71875 2.703125z" fill-rule="nonzero"></path><path fill="#f3f3f3" d="m9.9763775 265.85303l192.25197 0l0 175.1496l-192.25197 0z" fill-rule="evenodd"></path><path stroke="#000000" stroke-width="1.0" stroke-linejoin="round" stroke-linecap="butt" d="m9.9763775 265.85303l192.25197 0l0 175.1496l-192.25197 0z" fill-rule="evenodd"></path><path fill="#000000" d="m58.493057 334.5953q-0.546875 0.140625 -0.75 0.328125q-0.1875 0.171875 -0.265625 0.484375q-0.078125 0.296875 -0.078125 1.0625l0 8.875q0 0.625 0.0625 1.0q0.0625 0.359375 0.25 0.546875q0.1875 0.1875 0.78125 0.34375l0 0.671875l-5.265625 0l0 -0.671875q0.453125 -0.125 0.625 -0.21875q0.171875 -0.09375 0.265625 -0.234375q0.109375 -0.15625 0.15625 -0.453125q0.046875 -0.3125 0.046875 -1.0l0 -5.03125q0 -0.828125 0.015625 -1.953125q0.03125 -1.125 0.0625 -1.609375l-0.203125 0q-0.125 0.421875 -0.265625 0.8125q-0.140625 0.390625 -0.515625 1.40625l-2.75 7.40625l-1.8125 0l-2.890625 -8.3125q-0.25 -0.71875 -0.453125 -1.40625l-0.171875 0q0.09375 1.6875 0.09375 4.0l0 4.71875q0 0.75 0.0625 1.046875q0.078125 0.296875 0.296875 0.5q0.21875 0.1875 0.75 0.328125l0 0.671875l-3.875 0l0 -0.671875q0.375 -0.109375 0.59375 -0.234375q0.234375 -0.125 0.34375 -0.328125q0.109375 -0.203125 0.125 -0.515625q0.03125 -0.328125 0.03125 -0.8125l0 -8.875q0 -0.78125 -0.0625 -1.0625q-0.0625 -0.28125 -0.265625 -0.46875q-0.1875 -0.1875 -0.765625 -0.34375l0 -0.6875l5.09375 0l2.84375 8.421875l3.078125 -8.421875l4.8125 0l0 0.6875zm14.672684 -0.6875l0 0.6875q-0.40625 0.125 -0.578125 0.21875q-0.171875 0.09375 -0.296875 0.25q-0.109375 0.15625 -0.171875 0.46875q-0.046875 0.3125 -0.046875 0.953125l0 11.421875l-2.609375 0l-4.609375 -7.984375q-0.9375 -1.609375 -1.375 -2.53125l-0.09375 0q0.09375 2.203125 0.09375 4.65625l0 3.296875q0 0.765625 0.078125 1.078125q0.078125 0.3125 0.28125 0.484375q0.203125 0.171875 0.75 0.328125l0 0.671875l-3.875 0l0 -0.671875q0.375 -0.109375 0.59375 -0.234375q0.234375 -0.125 0.328125 -0.328125q0.109375 -0.21875 0.140625 -0.53125q0.03125 -0.3125 0.03125 -0.796875l0 -8.875q0 -0.765625 -0.0625 -1.046875q-0.0625 -0.296875 -0.28125 -0.484375q-0.203125 -0.203125 -0.75 -0.34375l0 -0.6875l4.15625 0l3.625 6.3125q0.34375 0.59375 0.875 1.609375q0.546875 1.015625 0.96875 1.921875l0.171875 0q-0.109375 -2.453125 -0.109375 -5.359375l0 -1.90625q0 -0.671875 -0.0625 -0.96875q-0.046875 -0.296875 -0.15625 -0.4375q-0.109375 -0.15625 -0.296875 -0.265625q-0.171875 -0.109375 -0.59375 -0.21875l0 -0.6875l3.875 0zm6.3454285 11.421875q0 0.359375 0.015625 0.671875q0.015625 0.3125 0.078125 0.515625q0.0625 0.1875 0.171875 0.328125q0.125 0.125 0.328125 0.21875q0.21875 0.09375 0.515625 0.171875l0 0.671875l-5.390625 0l0 -0.671875q0.375 -0.109375 0.59375 -0.21875q0.234375 -0.125 0.328125 -0.328125q0.109375 -0.21875 0.140625 -0.53125q0.03125 -0.328125 0.03125 -0.828125l0 -8.84375q0 -0.5 -0.03125 -0.8125q-0.015625 -0.3125 -0.125 -0.515625q-0.109375 -0.21875 -0.328125 -0.34375q-0.21875 -0.125 -0.609375 -0.21875l0 -0.6875l5.390625 0l0 0.6875q-0.421875 0.109375 -0.625 0.234375q-0.203125 0.125 -0.3125 0.3125q-0.09375 0.1875 -0.140625 0.484375q-0.03125 0.296875 -0.03125 0.875l0 8.828125zm4.4565125 -0.875q0.25 1.21875 0.84375 1.828125q0.609375 0.59375 1.765625 0.59375q0.609375 0 1.09375 -0.203125q0.484375 -0.21875 0.765625 -0.671875q0.296875 -0.453125 0.296875 -1.140625q0 -0.640625 -0.234375 -1.09375q-0.234375 -0.46875 -0.765625 -0.890625q-0.515625 -0.421875 -1.453125 -0.890625q-0.796875 -0.40625 -1.453125 -0.828125q-0.640625 -0.4375 -1.09375 -0.953125q-0.453125 -0.515625 -0.703125 -1.125q-0.25 -0.625 -0.25 -1.390625q0 -1.265625 0.625 -2.140625q0.625 -0.890625 1.8125 -1.34375q1.1875 -0.453125 2.734375 -0.453125q0.921875 0 1.75 0.09375q0.828125 0.09375 1.890625 0.34375l0 2.96875l-1.40625 0q-0.1875 -0.8125 -0.5 -1.28125q-0.296875 -0.484375 -0.75 -0.703125q-0.453125 -0.234375 -1.140625 -0.234375q-0.578125 0 -1.046875 0.21875q-0.453125 0.203125 -0.71875 0.609375q-0.265625 0.40625 -0.265625 0.96875q0 0.59375 0.21875 1.03125q0.234375 0.4375 0.78125 0.859375q0.546875 0.40625 1.578125 0.9375q1.265625 0.65625 1.984375 1.296875q0.734375 0.625 1.0625 1.375q0.34375 0.734375 0.34375 1.71875q0 1.265625 -0.578125 2.203125q-0.578125 0.921875 -1.703125 1.421875q-1.109375 0.5 -2.578125 0.5q-1.046875 0 -2.1875 -0.125q-1.125 -0.125 -2.125 -0.34375l0 -3.15625l1.40625 0zm12.570251 3.453125l0 -0.671875q0.421875 -0.078125 0.671875 -0.1875q0.25 -0.125 0.375 -0.34375q0.125 -0.21875 0.15625 -0.546875q0.03125 -0.328125 0.03125 -0.828125l0 -10.21875l-0.828125 0q-0.609375 0 -0.9375 0.140625q-0.328125 0.140625 -0.578125 0.453125q-0.234375 0.3125 -0.421875 0.828125q-0.171875 0.515625 -0.28125 0.984375l-1.40625 0l0 -3.609375l12.078125 0l0 3.609375l-1.40625 0q-0.203125 -0.703125 -0.3125 -1.03125q-0.109375 -0.328125 -0.25 -0.5625q-0.140625 -0.234375 -0.296875 -0.375q-0.140625 -0.15625 -0.328125 -0.25q-0.171875 -0.09375 -0.4375 -0.140625q-0.25 -0.046875 -0.671875 -0.046875l-0.734375 0l0 10.21875q0 0.546875 0.03125 0.828125q0.03125 0.28125 0.109375 0.453125q0.078125 0.171875 0.1875 0.28125q0.125 0.109375 0.328125 0.203125q0.21875 0.078125 0.578125 0.140625l0 0.671875l-5.65625 0zm19.203873 -14.265625l0 2.515625l-2.8125 0l0 -2.515625l2.8125 0zm-3.890625 13.59375q0.5 -0.140625 0.6875 -0.34375q0.1875 -0.21875 0.25 -0.59375q0.078125 -0.375 0.078125 -1.34375l0 -4.765625q0 -0.5 -0.046875 -0.8125q-0.046875 -0.3125 -0.1875 -0.484375q-0.125 -0.1875 -0.34375 -0.28125q-0.21875 -0.109375 -0.5625 -0.171875l0 -0.703125l2.8125 -0.078125l1.28125 0l0 7.28125q0 0.578125 0.015625 0.890625q0.015625 0.3125 0.046875 0.484375q0.03125 0.171875 0.09375 0.3125q0.0625 0.125 0.140625 0.234375q0.09375 0.109375 0.265625 0.203125q0.1875 0.09375 0.46875 0.171875l0 0.671875l-5.0 0l0 -0.671875zm10.534821 -8.109375l0.109375 0.03125q0.9375 -0.875 1.6875 -1.234375q0.75 -0.359375 1.53125 -0.359375q0.75 0 1.25 0.203125q0.515625 0.1875 0.859375 0.5625q0.34375 0.375 0.5625 0.984375q1.03125 -0.96875 1.796875 -1.359375q0.765625 -0.390625 1.59375 -0.390625q0.828125 0 1.359375 0.21875q0.546875 0.21875 0.890625 0.671875q0.34375 0.453125 0.5 1.125q0.171875 0.671875 0.171875 1.625l0 3.734375q0 0.453125 0.015625 0.859375q0.015625 0.390625 0.078125 0.625q0.0625 0.234375 0.15625 0.390625q0.109375 0.140625 0.296875 0.25q0.203125 0.09375 0.484375 0.171875l0 0.671875l-4.9375 0l0 -0.671875q0.453125 -0.125 0.625 -0.328125q0.1875 -0.21875 0.25 -0.59375q0.0625 -0.390625 0.0625 -1.359375l0 -2.75q0 -0.921875 -0.0625 -1.5q-0.0625 -0.578125 -0.234375 -0.90625q-0.171875 -0.328125 -0.421875 -0.46875q-0.234375 -0.140625 -0.625 -0.140625q-0.265625 0 -0.5 0.078125q-0.21875 0.078125 -0.453125 0.25q-0.21875 0.171875 -0.390625 0.34375q-0.15625 0.171875 -0.265625 0.390625q-0.09375 0.21875 -0.125 0.484375q-0.03125 0.265625 -0.03125 0.859375l0 3.34375q0 0.703125 0.015625 1.078125q0.03125 0.359375 0.109375 0.59375q0.078125 0.21875 0.25 0.375q0.1875 0.140625 0.578125 0.25l0 0.671875l-4.890625 0l0 -0.671875q0.46875 -0.125 0.640625 -0.328125q0.1875 -0.21875 0.25 -0.59375q0.0625 -0.375 0.0625 -1.359375l0 -2.75q0 -0.671875 -0.03125 -1.140625q-0.015625 -0.46875 -0.078125 -0.75q-0.0625 -0.296875 -0.171875 -0.5q-0.109375 -0.21875 -0.25 -0.34375q-0.125 -0.140625 -0.328125 -0.203125q-0.1875 -0.078125 -0.46875 -0.078125q-0.375 0 -0.796875 0.234375q-0.40625 0.234375 -0.703125 0.65625q-0.28125 0.421875 -0.28125 0.890625l0 3.96875q0 0.96875 0.0625 1.359375q0.0625 0.375 0.234375 0.59375q0.1875 0.21875 0.65625 0.34375l0 0.671875l-4.921875 0l0 -0.671875q0.5 -0.140625 0.6875 -0.34375q0.1875 -0.21875 0.25 -0.59375q0.078125 -0.375 0.078125 -1.34375l0 -4.21875q0 -0.75 -0.03125 -1.109375q-0.03125 -0.375 -0.125 -0.59375q-0.09375 -0.21875 -0.296875 -0.359375q-0.203125 -0.140625 -0.6875 -0.234375l0 -0.703125l2.8125 -0.078125l1.28125 0l-0.140625 1.46875zm21.21933 7.4375l-0.15625 -0.046875q-0.828125 0.8125 -1.625 1.1875q-0.796875 0.375 -1.6875 0.375q-0.890625 0 -1.546875 -0.328125q-0.640625 -0.328125 -0.984375 -0.890625q-0.328125 -0.578125 -0.328125 -1.328125q0 -1.515625 1.484375 -2.375q1.484375 -0.875 4.5 -1.09375l0 -0.96875q0 -0.953125 -0.21875 -1.46875q-0.21875 -0.53125 -0.5625 -0.734375q-0.328125 -0.21875 -0.796875 -0.21875q-0.46875 0 -0.8125 0.171875q-0.34375 0.15625 -0.625 0.625q-0.28125 0.453125 -0.40625 1.265625l-1.9375 0l0 -1.875q0.9375 -0.421875 1.5625 -0.640625q0.625 -0.234375 1.234375 -0.375q0.609375 -0.15625 1.09375 -0.21875q0.484375 -0.0625 0.96875 -0.0625q1.234375 0 1.96875 0.328125q0.75 0.328125 1.125 1.078125q0.375 0.734375 0.375 2.03125l0 4.0q0 0.6875 0.03125 1.0625q0.03125 0.359375 0.09375 0.546875q0.0625 0.171875 0.15625 0.28125q0.109375 0.109375 0.25 0.171875q0.15625 0.0625 0.578125 0.171875l0 0.671875l-3.828125 0l0.09375 -1.34375zm-0.328125 -3.5q-1.59375 0.046875 -2.359375 0.609375q-0.765625 0.546875 -0.765625 1.609375q0 0.640625 0.34375 0.96875q0.359375 0.328125 0.96875 0.328125q0.46875 0 0.890625 -0.25q0.421875 -0.25 0.671875 -0.671875q0.25 -0.421875 0.25 -0.890625l0 -1.703125zm15.601379 -3.953125l-1.75 -0.203125l-0.046875 0.125q0.296875 0.28125 0.484375 0.78125q0.1875 0.5 0.1875 1.1875q0 1.796875 -1.09375 2.71875q-1.078125 0.921875 -3.171875 0.921875q-1.015625 0 -1.65625 -0.1875q-0.515625 0.453125 -0.515625 0.984375q0 0.3125 0.125 0.484375q0.125 0.15625 0.4375 0.25q0.3125 0.078125 0.875 0.078125l2.53125 0q1.71875 0 2.5625 0.671875q0.859375 0.671875 0.859375 2.078125q0 1.09375 -0.625 1.875q-0.625 0.796875 -1.78125 1.203125q-1.15625 0.421875 -2.75 0.421875q-1.15625 0 -2.09375 -0.109375q-0.9375 -0.09375 -1.609375 -0.375q-0.671875 -0.265625 -1.03125 -0.734375q-0.359375 -0.46875 -0.359375 -1.203125q0 -0.578125 0.359375 -1.078125q0.375 -0.484375 1.046875 -0.84375q-0.4375 -0.296875 -0.640625 -0.6875q-0.1875 -0.40625 -0.1875 -1.0q0 -0.484375 0.203125 -0.90625q0.203125 -0.421875 0.53125 -0.765625q0.328125 -0.34375 0.859375 -0.75q-0.796875 -0.453125 -1.203125 -1.171875q-0.40625 -0.734375 -0.40625 -1.71875q0 -0.96875 0.34375 -1.640625q0.34375 -0.6875 0.9375 -1.109375q0.59375 -0.4375 1.40625 -0.640625q0.828125 -0.203125 1.765625 -0.203125q0.53125 0 0.921875 0.0625q0.40625 0.046875 0.78125 0.109375l3.703125 0l0 1.375zm-6.921875 1.921875q0 1.28125 0.359375 1.921875q0.375 0.625 1.15625 0.625q0.703125 0 1.078125 -0.578125q0.375 -0.59375 0.375 -1.796875q0 -1.25 -0.375 -1.90625q-0.359375 -0.671875 -1.109375 -0.671875q-0.75 0 -1.125 0.59375q-0.359375 0.59375 -0.359375 1.8125zm-0.375 7.53125q-0.359375 0.28125 -0.546875 0.625q-0.1875 0.34375 -0.1875 0.78125q0 0.734375 0.640625 1.078125q0.640625 0.359375 2.015625 0.359375q1.296875 0 1.96875 -0.4375q0.671875 -0.421875 0.671875 -1.203125q0 -0.34375 -0.125 -0.59375q-0.125 -0.234375 -0.484375 -0.40625q-0.359375 -0.15625 -1.015625 -0.15625l-1.765625 0q-0.75 0 -1.171875 -0.046875zm17.7473 -2.515625q-1.046875 1.09375 -2.078125 1.5625q-1.015625 0.46875 -2.34375 0.46875q-2.390625 0 -3.59375 -1.3125q-1.203125 -1.3125 -1.203125 -3.890625q0 -1.65625 0.609375 -2.859375q0.625 -1.203125 1.765625 -1.828125q1.140625 -0.625 2.640625 -0.625q0.9375 0 1.640625 0.21875q0.703125 0.21875 1.203125 0.609375q0.5 0.375 0.828125 0.921875q0.390625 0.640625 0.59375 1.484375q0.203125 0.84375 0.203125 2.046875l-6.5 0q0.015625 1.859375 0.65625 2.734375q0.65625 0.875 2.0 0.875q0.78125 0 1.40625 -0.28125q0.625 -0.296875 1.34375 -1.03125l0.828125 0.90625zm-2.765625 -4.296875q-0.03125 -1.578125 -0.40625 -2.34375q-0.375 -0.765625 -1.1875 -0.765625q-0.796875 0 -1.265625 0.796875q-0.453125 0.796875 -0.546875 2.3125l3.40625 0z" fill-rule="nonzero"></path><path fill="#000000" d="m33.9916 371.39218q0.65625 0 0.984375 -0.09375q0.328125 -0.09375 0.515625 -0.328125q0.203125 -0.25 0.328125 -0.734375l1.171875 0l-0.234375 3.671875l-9.390627 0l0 -0.671875q0.421875 -0.984375 1.234375 -2.140625q0.828125 -1.171875 2.0 -2.546875q1.09375 -1.296875 1.6718769 -2.140625q0.59375 -0.84375 0.875 -1.578125q0.28125 -0.75 0.28125 -1.5625q0 -1.125 -0.5 -1.765625q-0.5 -0.640625 -1.3750019 -0.640625q-0.8125 0 -1.359375 0.578125q-0.53125 0.578125 -0.78125 1.828125l-1.84375 0l0 -2.40625q1.25 -0.515625 1.953125 -0.703125q0.71875 -0.203125 1.40625 -0.296875q0.6875 -0.109375 1.5000019 -0.109375q1.515625 0 2.46875 0.40625q0.953125 0.40625 1.375 1.09375q0.421875 0.6875 0.421875 1.609375q0 0.8125 -0.3125 1.515625q-0.296875 0.6875 -1.046875 1.578125q-0.734375 0.890625 -2.5 2.5625q-0.78125 0.765625 -1.4687519 1.546875q-0.6875 0.78125 -1.015625 1.234375l0 0.09375l3.640627 0zm13.9292145 -4.875l0.015625 0.125q1.203125 0.46875 1.8125 1.34375q0.609375 0.859375 0.609375 2.078125q0 1.203125 -0.65625 2.109375q-0.640625 0.90625 -1.859375 1.40625q-1.21875 0.5 -2.84375 0.5q-1.546875 0 -2.703125 -0.453125q-1.15625 -0.453125 -1.796875 -1.328125q-0.625 -0.875 -0.625 -2.078125q0 -0.859375 0.3125 -1.515625q0.328125 -0.671875 0.859375 -1.109375q0.53125 -0.4375 1.28125 -0.78125l-0.015625 -0.140625q-2.265625 -0.984375 -2.265625 -3.265625q0 -1.046875 0.640625 -1.875q0.65625 -0.84375 1.84375 -1.3125q1.203125 -0.46875 2.6875 -0.46875q2.484375 0 3.75 0.921875q1.28125 0.90625 1.28125 2.5625q0 1.109375 -0.578125 1.953125q-0.578125 0.828125 -1.75 1.328125zm-4.8125 -3.1875q0 1.34375 0.53125 2.0625q0.53125 0.703125 1.546875 0.703125q1.0 0 1.484375 -0.671875q0.5 -0.671875 0.5 -1.90625q0 -1.28125 -0.515625 -1.953125q-0.515625 -0.671875 -1.484375 -0.671875q-1.015625 0 -1.546875 0.625q-0.515625 0.609375 -0.515625 1.8125zm-0.109375 6.65625q0 1.453125 0.53125 2.203125q0.53125 0.734375 1.609375 0.734375q0.65625 0 1.125 -0.296875q0.46875 -0.3125 0.71875 -0.953125q0.25 -0.640625 0.25 -1.515625q0 -0.90625 -0.265625 -1.5625q-0.25 -0.671875 -0.734375 -1.03125q-0.46875 -0.359375 -1.125 -0.359375q-0.765625 0 -1.234375 0.375q-0.46875 0.359375 -0.671875 0.984375q-0.203125 0.609375 -0.203125 1.421875zm19.985367 -1.703125l2.40625 3.40625q0.328125 0.484375 0.59375 0.796875q0.265625 0.3125 0.515625 0.484375q0.25 0.171875 0.546875 0.265625l0 0.671875l-5.0 0l0 -0.671875q0.640625 -0.078125 0.640625 -0.53125q0 -0.125 -0.03125 -0.234375q-0.03125 -0.109375 -0.09375 -0.21875q-0.0625 -0.109375 -0.25 -0.375l-1.15625 -1.65625l-1.078125 1.3125q-0.34375 0.421875 -0.4375 0.625q-0.078125 0.1875 -0.078125 0.4375q0 0.25 0.1875 0.421875q0.1875 0.171875 0.578125 0.21875l0 0.671875l-3.9375 0l0 -0.671875q0.4375 -0.09375 0.875 -0.453125q0.453125 -0.359375 1.09375 -1.09375l2.140625 -2.421875l-2.421875 -3.40625q-0.21875 -0.328125 -0.390625 -0.53125q-0.15625 -0.21875 -0.328125 -0.40625q-0.171875 -0.1875 -0.3125 -0.296875q-0.140625 -0.109375 -0.265625 -0.15625q-0.109375 -0.046875 -0.21875 -0.0625l0 -0.671875l4.953125 0l0 0.671875q-0.640625 0.140625 -0.640625 0.578125q0 0.171875 0.09375 0.359375q0.09375 0.1875 0.296875 0.484375l1.046875 1.5l1.046875 -1.296875q0.25 -0.3125 0.34375 -0.515625q0.109375 -0.21875 0.109375 -0.4375q0 -0.28125 -0.21875 -0.453125q-0.203125 -0.1875 -0.5625 -0.21875l0 -0.671875l3.90625 0l0 0.671875q-0.46875 0.125 -0.859375 0.453125q-0.390625 0.3125 -1.125 1.203125l-1.96875 2.21875zm16.871124 3.109375q0.65625 0 0.984375 -0.09375q0.328125 -0.09375 0.515625 -0.328125q0.203125 -0.25 0.328125 -0.734375l1.171875 0l-0.234375 3.671875l-9.390625 0l0 -0.671875q0.421875 -0.984375 1.234375 -2.140625q0.828125 -1.171875 2.0 -2.546875q1.09375 -1.296875 1.671875 -2.140625q0.59375 -0.84375 0.875 -1.578125q0.28125 -0.75 0.28125 -1.5625q0 -1.125 -0.5 -1.765625q-0.5 -0.640625 -1.375 -0.640625q-0.8125 0 -1.359375 0.578125q-0.53125 0.578125 -0.78125 1.828125l-1.84375 0l0 -2.40625q1.25 -0.515625 1.953125 -0.703125q0.71875 -0.203125 1.40625 -0.296875q0.6875 -0.109375 1.5 -0.109375q1.515625 0 2.46875 0.40625q0.953125 0.40625 1.375 1.09375q0.421875 0.6875 0.421875 1.609375q0 0.8125 -0.3125 1.515625q-0.296875 0.6875 -1.046875 1.578125q-0.734375 0.890625 -2.5 2.5625q-0.78125 0.765625 -1.46875 1.546875q-0.6875 0.78125 -1.015625 1.234375l0 0.09375l3.640625 0zm13.9292145 -4.875l0.015625 0.125q1.203125 0.46875 1.8125 1.34375q0.609375 0.859375 0.609375 2.078125q0 1.203125 -0.65625 2.109375q-0.640625 0.90625 -1.859375 1.40625q-1.21875 0.5 -2.84375 0.5q-1.546875 0 -2.703125 -0.453125q-1.15625 -0.453125 -1.796875 -1.328125q-0.625 -0.875 -0.625 -2.078125q0 -0.859375 0.3125 -1.515625q0.328125 -0.671875 0.859375 -1.109375q0.53125 -0.4375 1.28125 -0.78125l-0.015625 -0.140625q-2.265625 -0.984375 -2.265625 -3.265625q0 -1.046875 0.640625 -1.875q0.65625 -0.84375 1.84375 -1.3125q1.203125 -0.46875 2.6875 -0.46875q2.484375 0 3.75 0.921875q1.28125 0.90625 1.28125 2.5625q0 1.109375 -0.578125 1.953125q-0.578125 0.828125 -1.75 1.328125zm-4.8125 -3.1875q0 1.34375 0.53125 2.0625q0.53125 0.703125 1.546875 0.703125q1.0 0 1.484375 -0.671875q0.5 -0.671875 0.5 -1.90625q0 -1.28125 -0.515625 -1.953125q-0.515625 -0.671875 -1.484375 -0.671875q-1.015625 0 -1.546875 0.625q-0.515625 0.609375 -0.515625 1.8125zm-0.109375 6.65625q0 1.453125 0.53125 2.203125q0.53125 0.734375 1.609375 0.734375q0.65625 0 1.125 -0.296875q0.46875 -0.3125 0.71875 -0.953125q0.25 -0.640625 0.25 -1.515625q0 -0.90625 -0.265625 -1.5625q-0.25 -0.671875 -0.734375 -1.03125q-0.46875 -0.359375 -1.125 -0.359375q-0.765625 0 -1.234375 0.375q-0.46875 0.359375 -0.671875 0.984375q-0.203125 0.609375 -0.203125 1.421875zm14.625992 -3.28125l0 -2.140625l9.625 0l0 2.140625l-9.625 0zm0 4.546875l0 -2.125l9.625 0l0 2.125l-9.625 0zm27.29786 -10.65625l-5.6874924 13.34375l-2.09375 0l0 -0.703125l5.1406174 -10.4375l0 -0.15625l-4.5624924 0q-0.453125 0 -0.734375 0.078125q-0.265625 0.078125 -0.453125 0.234375q-0.171875 0.15625 -0.28125 0.421875q-0.09375 0.25 -0.21875 0.796875l-1.1875 0l0.265625 -4.265625l9.812492 0l0 0.6875zm10.288605 5.921875l0.015625 0.125q1.203125 0.46875 1.8125 1.34375q0.609375 0.859375 0.609375 2.078125q0 1.203125 -0.65625 2.109375q-0.640625 0.90625 -1.859375 1.40625q-1.21875 0.5 -2.84375 0.5q-1.5468903 0 -2.7031403 -0.453125q-1.15625 -0.453125 -1.796875 -1.328125q-0.625 -0.875 -0.625 -2.078125q0 -0.859375 0.3125 -1.515625q0.328125 -0.671875 0.859375 -1.109375q0.53125 -0.4375 1.28125 -0.78125l-0.015625 -0.140625q-2.265625 -0.984375 -2.265625 -3.265625q0 -1.046875 0.640625 -1.875q0.65625 -0.84375 1.84375 -1.3125q1.203125 -0.46875 2.6875153 -0.46875q2.484375 0 3.75 0.921875q1.28125 0.90625 1.28125 2.5625q0 1.109375 -0.578125 1.953125q-0.578125 0.828125 -1.75 1.328125zm-4.8125153 -3.1875q0 1.34375 0.53125 2.0625q0.53125 0.703125 1.5468903 0.703125q1.0 0 1.484375 -0.671875q0.5 -0.671875 0.5 -1.90625q0 -1.28125 -0.515625 -1.953125q-0.515625 -0.671875 -1.484375 -0.671875q-1.0156403 0 -1.5468903 0.625q-0.515625 0.609375 -0.515625 1.8125zm-0.109375 6.65625q0 1.453125 0.53125 2.203125q0.53125 0.734375 1.6093903 0.734375q0.65625 0 1.125 -0.296875q0.46875 -0.3125 0.71875 -0.953125q0.25 -0.640625 0.25 -1.515625q0 -0.90625 -0.265625 -1.5625q-0.25 -0.671875 -0.734375 -1.03125q-0.46875 -0.359375 -1.125 -0.359375q-0.76564026 0 -1.2343903 0.375q-0.46875 0.359375 -0.671875 0.984375q-0.203125 0.609375 -0.203125 1.421875zm13.4604645 3.25q0.359375 -0.109375 0.578125 -0.21875q0.234375 -0.125 0.34375 -0.328125q0.109375 -0.203125 0.140625 -0.515625q0.03125 -0.3125 0.03125 -0.796875l0 -1.53125l-5.5 0l0 -1.109375l6.21875 -8.890625l2.3125 0l0 8.703125l0.3125 0q0.515625 0 0.71875 -0.0625q0.203125 -0.0625 0.34375 -0.25q0.15625 -0.1875 0.28125 -0.65625l1.078125 0l-0.125 2.265625l-2.609375 0l0 1.53125q0 0.546875 0.046875 0.875q0.0625 0.3125 0.171875 0.5q0.125 0.1875 0.34375 0.296875q0.21875 0.09375 0.546875 0.1875l0 0.671875l-5.234375 0l0 -0.671875zm-2.421875 -4.6875l3.515625 0l0 -2.34375q0 -1.46875 0.09375 -3.109375l-0.09375 0l-3.515625 5.28125l0 0.171875zm19.532257 7.1875q0 0.78125 0.078125 1.09375q0.078125 0.3125 0.28125 0.5q0.21875 0.1875 0.75 0.3125l0 0.671875l-5.09375 0l0 -0.671875q0.46875 -0.140625 0.65625 -0.328125q0.203125 -0.171875 0.28125 -0.484375q0.078125 -0.3125 0.078125 -1.09375l0 -8.96875q0 -0.71875 -0.015625 -1.03125q-0.015625 -0.3125 -0.078125 -0.515625q-0.046875 -0.21875 -0.15625 -0.359375q-0.09375 -0.140625 -0.296875 -0.234375q-0.203125 -0.109375 -0.59375 -0.1875l0 -0.703125l2.84375 -0.078125l1.265625 0l-0.15625 1.484375l0.125 0.03125q0.875 -0.859375 1.640625 -1.234375q0.765625 -0.375 1.578125 -0.375q1.828125 0 2.734375 1.296875q0.921875 1.28125 0.921875 3.84375q0 1.78125 -0.546875 2.984375q-0.53125 1.1875 -1.609375 1.796875q-1.0625 0.59375 -2.625 0.59375q-1.046875 0 -2.0625 -0.28125l0 1.9375zm0 -5.1875q0 1.25 0.4375 1.859375q0.4375 0.59375 1.34375 0.59375q0.9375 0 1.4375 -0.984375q0.5 -0.984375 0.5 -2.828125q0 -2.03125 -0.453125 -3.015625q-0.4375 -0.984375 -1.375 -0.984375q-0.46875 0 -0.90625 0.234375q-0.4375 0.234375 -0.71875 0.671875q-0.265625 0.421875 -0.265625 0.96875l0 3.484375zm14.783356 -2.265625l2.40625 3.40625q0.328125 0.484375 0.59375 0.796875q0.265625 0.3125 0.515625 0.484375q0.25 0.171875 0.546875 0.265625l0 0.671875l-5.0 0l0 -0.671875q0.640625 -0.078125 0.640625 -0.53125q0 -0.125 -0.03125 -0.234375q-0.03125 -0.109375 -0.09375 -0.21875q-0.0625 -0.109375 -0.25 -0.375l-1.15625 -1.65625l-1.078125 1.3125q-0.34375 0.421875 -0.4375 0.625q-0.078125 0.1875 -0.078125 0.4375q0 0.25 0.1875 0.421875q0.1875 0.171875 0.578125 0.21875l0 0.671875l-3.9375 0l0 -0.671875q0.4375 -0.09375 0.875 -0.453125q0.453125 -0.359375 1.09375 -1.09375l2.140625 -2.421875l-2.421875 -3.40625q-0.21875 -0.328125 -0.390625 -0.53125q-0.15625 -0.21875 -0.328125 -0.40625q-0.171875 -0.1875 -0.3125 -0.296875q-0.140625 -0.109375 -0.265625 -0.15625q-0.109375 -0.046875 -0.21875 -0.0625l0 -0.671875l4.953125 0l0 0.671875q-0.640625 0.140625 -0.640625 0.578125q0 0.171875 0.09375 0.359375q0.09375 0.1875 0.296875 0.484375l1.046875 1.5l1.046875 -1.296875q0.25 -0.3125 0.34375 -0.515625q0.109375 -0.21875 0.109375 -0.4375q0 -0.28125 -0.21875 -0.453125q-0.203125 -0.1875 -0.5625 -0.21875l0 -0.671875l3.90625 0l0 0.671875q-0.46875 0.125 -0.859375 0.453125q-0.390625 0.3125 -1.125 1.203125l-1.96875 2.21875z" fill-rule="nonzero"></path><path fill="#000000" fill-opacity="0.0" d="m202.22835 353.42783l121.291336 -282.70868" fill-rule="evenodd"></path><path stroke="#000000" stroke-width="1.0" stroke-linejoin="round" stroke-linecap="butt" d="m202.22835 353.42783l118.925674 -277.1947" fill-rule="evenodd"></path><path fill="#000000" stroke="#000000" stroke-width="1.0" stroke-linecap="butt" d="m322.67194 76.884346l0.2713623 -4.8217087l-3.3072205 3.519226z" fill-rule="evenodd"></path><path fill="#000000" fill-opacity="0.0" d="m202.22835 353.42783l121.291336 -192.7559" fill-rule="evenodd"></path><path stroke="#000000" stroke-width="1.0" stroke-linejoin="round" stroke-linecap="butt" d="m202.22835 353.42783l118.09584 -187.67764" fill-rule="evenodd"></path><path fill="#000000" stroke="#000000" stroke-width="1.0" stroke-linecap="butt" d="m321.72217 166.62987l1.0189209 -4.720627l-3.8148804 2.961258z" fill-rule="evenodd"></path><path fill="#000000" fill-opacity="0.0" d="m202.22835 353.42783l121.291336 -102.77165" fill-rule="evenodd"></path><path stroke="#000000" stroke-width="1.0" stroke-linejoin="round" stroke-linecap="butt" d="m202.22835 353.42783l116.71364 -98.8929" fill-rule="evenodd"></path><path fill="#000000" stroke="#000000" stroke-width="1.0" stroke-linecap="butt" d="m320.00977 255.7951l2.3945618 -4.193878l-4.530121 1.6734924z" fill-rule="evenodd"></path><path fill="#000000" fill-opacity="0.0" d="m202.22835 353.42783l121.291336 288.7244" fill-rule="evenodd"></path><path stroke="#000000" stroke-width="1.0" stroke-linejoin="round" stroke-linecap="butt" d="m202.22835 353.42783l118.96748 283.19272" fill-rule="evenodd"></path><path fill="#000000" stroke="#000000" stroke-width="1.0" stroke-linecap="butt" d="m319.67303 637.26025l3.2804565 3.5441895l-0.23483276 -4.8236694z" fill-rule="evenodd"></path><path fill="#f4cccc" d="m1016.3858 296.75067l151.43304 0l0 113.35431l-151.43304 0z" fill-rule="evenodd"></path><path stroke="#cc0000" stroke-width="1.0" stroke-linejoin="round" stroke-linecap="butt" d="m1016.3858 296.75067l151.43304 0l0 113.35431l-151.43304 0z" fill-rule="evenodd"></path><path fill="#000000" d="m1061.6161 361.96783l0 -0.578125q0.59375 -0.109375 0.875 -0.25q0.28125 -0.140625 0.421875 -0.390625q0.140625 -0.265625 0.140625 -0.6875q0 -0.390625 -0.09375 -0.84375q-0.09375 -0.46875 -0.265625 -1.046875l-0.4375 -1.515625l-5.453125 0l-0.40625 1.15625q-0.296875 0.859375 -0.390625 1.3125q-0.09375 0.4375 -0.09375 0.796875q0 0.703125 0.359375 1.03125q0.359375 0.328125 1.09375 0.4375l0 0.578125l-5.0 0l0 -0.578125q0.65625 -0.109375 1.140625 -0.765625q0.484375 -0.65625 0.9375 -1.875l4.890625 -12.96875l1.84375 0l3.984375 13.0625q0.28125 0.921875 0.5 1.40625q0.21875 0.46875 0.515625 0.75q0.3125 0.265625 0.84375 0.390625l0 0.578125l-5.40625 0zm-4.5 -6.328125l4.90625 0l-2.234375 -7.5625l-2.671875 7.5625zm14.421875 -2.9375l0.171875 0.046875q0.640625 -0.796875 1.1875 -1.234375q0.5625 -0.453125 1.1875 -0.703125q0.640625 -0.25 1.453125 -0.25q0.6875 0 1.234375 0.078125l0 2.6875l-1.328125 0q-0.28125 -0.625 -0.59375 -0.90625q-0.3125 -0.296875 -0.875 -0.296875q-0.421875 0 -0.84375 0.25q-0.40625 0.234375 -0.796875 0.703125q-0.375 0.46875 -0.53125 0.890625q-0.140625 0.40625 -0.140625 0.96875l0 4.09375q0 1.078125 0.125 1.484375q0.125 0.390625 0.421875 0.578125q0.3125 0.1875 0.90625 0.296875l0 0.578125l-4.71875 0l0 -0.578125q0.4375 -0.140625 0.625 -0.234375q0.203125 -0.109375 0.34375 -0.296875q0.140625 -0.1875 0.203125 -0.578125q0.078125 -0.390625 0.078125 -1.203125l0 -5.109375q0 -0.75 -0.03125 -1.203125q-0.015625 -0.46875 -0.15625 -0.734375q-0.140625 -0.28125 -0.4375 -0.40625q-0.28125 -0.140625 -0.8125 -0.234375l0 -0.609375l2.75 -0.125l0.71875 0l-0.140625 2.046875zm17.285156 -0.75l-2.171875 -0.09375l-0.109375 0.140625q0.359375 0.359375 0.5625 0.984375q0.21875 0.625 0.21875 1.359375q0 1.90625 -1.171875 2.953125q-1.171875 1.03125 -3.34375 1.03125q-0.96875 0 -1.671875 -0.25q-0.890625 0.671875 -0.890625 1.328125q0 0.4375 0.15625 0.671875q0.171875 0.21875 0.5625 0.3125q0.40625 0.09375 1.203125 0.09375l2.8125 0q1.234375 0 2.015625 0.390625q0.796875 0.375 1.125 1.03125q0.328125 0.65625 0.328125 1.515625q0 1.109375 -0.640625 1.96875q-0.625 0.859375 -1.828125 1.328125q-1.1875 0.484375 -2.78125 0.484375q-1.171875 0 -2.15625 -0.140625q-0.984375 -0.140625 -1.6875 -0.46875q-0.6875 -0.328125 -1.078125 -0.875q-0.375 -0.546875 -0.375 -1.375q0 -0.734375 0.484375 -1.34375q0.5 -0.59375 1.40625 -1.0625q-0.546875 -0.21875 -0.875 -0.640625q-0.3125 -0.4375 -0.3125 -1.03125q0 -0.671875 0.375 -1.21875q0.375 -0.5625 1.328125 -1.28125q-0.84375 -0.484375 -1.28125 -1.328125q-0.4375 -0.84375 -0.4375 -1.921875q0 -1.015625 0.328125 -1.75q0.34375 -0.75 0.921875 -1.234375q0.59375 -0.484375 1.40625 -0.71875q0.8125 -0.25 1.75 -0.25q0.84375 0 1.671875 0.203125l4.15625 0l0 1.1875zm-8.140625 2.375q0 1.46875 0.59375 2.265625q0.609375 0.796875 1.734375 0.796875q0.59375 0 1.015625 -0.234375q0.421875 -0.234375 0.6875 -0.625q0.265625 -0.40625 0.375 -0.921875q0.125 -0.515625 0.125 -1.09375q0 -1.03125 -0.296875 -1.71875q-0.28125 -0.703125 -0.796875 -1.015625q-0.5 -0.328125 -1.15625 -0.328125q-1.109375 0 -1.703125 0.75q-0.578125 0.734375 -0.578125 2.125zm0.296875 7.828125q-0.59375 0.453125 -0.90625 0.9375q-0.296875 0.5 -0.296875 1.140625q0 1.046875 0.84375 1.546875q0.84375 0.5 2.5625 0.5q1.046875 0 1.796875 -0.28125q0.765625 -0.28125 1.15625 -0.8125q0.40625 -0.515625 0.40625 -1.21875q0 -0.328125 -0.078125 -0.640625q-0.078125 -0.3125 -0.3125 -0.5625q-0.234375 -0.25 -0.65625 -0.390625q-0.421875 -0.140625 -1.09375 -0.140625l-1.75 0q-0.953125 0 -1.671875 -0.078125zm26.203125 -15.609375q-0.515625 0.125 -0.75 0.265625q-0.21875 0.125 -0.359375 0.3125q-0.140625 0.1875 -0.203125 0.578125q-0.0625 0.390625 -0.0625 1.203125l0 10.125q0 0.796875 0.046875 1.15625q0.0625 0.359375 0.1875 0.578125q0.125 0.203125 0.359375 0.34375q0.234375 0.140625 0.78125 0.28125l0 0.578125l-4.890625 0l0 -0.578125q0.671875 -0.15625 0.921875 -0.359375q0.265625 -0.21875 0.359375 -0.625q0.09375 -0.421875 0.09375 -1.375l0 -4.484375q0 -1.765625 0.046875 -3.578125q0.0625 -1.8125 0.125 -2.484375l-0.203125 0l-4.640625 11.625l-1.34375 0l-4.3125 -11.8125l-0.203125 0q0.0625 0.71875 0.109375 2.59375q0.0625 1.875 0.0625 3.859375l0 4.28125q0 0.796875 0.046875 1.15625q0.0625 0.359375 0.171875 0.578125q0.125 0.203125 0.359375 0.34375q0.25 0.140625 0.796875 0.28125l0 0.578125l-4.28125 0l0 -0.578125q0.71875 -0.1875 0.96875 -0.40625q0.25 -0.234375 0.328125 -0.65625q0.078125 -0.421875 0.078125 -1.296875l0 -10.125q0 -0.8125 -0.0625 -1.171875q-0.0625 -0.375 -0.203125 -0.578125q-0.125 -0.21875 -0.359375 -0.328125q-0.21875 -0.125 -0.75 -0.28125l0 -0.578125l4.1875 0l4.109375 11.40625l4.515625 -11.40625l3.96875 0l0 0.578125zm9.3203125 13.75l-0.171875 -0.046875q-1.015625 1.03125 -1.921875 1.46875q-0.890625 0.4375 -1.890625 0.4375q-0.890625 0 -1.578125 -0.34375q-0.671875 -0.34375 -1.046875 -0.96875q-0.359375 -0.640625 -0.359375 -1.453125q0 -1.71875 1.6875 -2.640625q1.703125 -0.9375 5.09375 -1.09375l0 -0.75q0 -1.21875 -0.234375 -1.921875q-0.234375 -0.703125 -0.75 -1.03125q-0.5 -0.328125 -1.34375 -0.328125q-0.90625 0 -1.46875 0.484375q-0.5625 0.46875 -0.84375 1.4375l-1.53125 0l0 -1.53125q1.125 -0.578125 1.875 -0.859375q0.75 -0.28125 1.5 -0.4375q0.75 -0.15625 1.53125 -0.15625q1.15625 0 1.859375 0.375q0.703125 0.359375 1.046875 1.125q0.359375 0.765625 0.359375 2.296875l0 4.078125q0 0.875 0 1.234375q0.015625 0.34375 0.078125 0.65625q0.0625 0.296875 0.171875 0.484375q0.125 0.1875 0.34375 0.3125q0.234375 0.125 0.75 0.265625l0 0.578125l-3.203125 0l0.046875 -1.671875zm-0.1875 -3.671875q-2.390625 0.015625 -3.578125 0.625q-1.171875 0.609375 -1.171875 1.84375q0 0.671875 0.265625 1.0625q0.265625 0.375 0.671875 0.53125q0.421875 0.140625 0.984375 0.140625q0.796875 0 1.4375 -0.375q0.65625 -0.390625 1.015625 -0.984375q0.375 -0.609375 0.375 -1.1875l0 -1.65625zm10.09375 -1.421875l1.53125 -1.9375q0.234375 -0.3125 0.390625 -0.609375q0.15625 -0.296875 0.15625 -0.609375q0 -0.28125 -0.203125 -0.453125q-0.203125 -0.171875 -0.625 -0.25l0 -0.578125l3.84375 0l0 0.578125q-0.453125 0.125 -0.921875 0.5q-0.453125 0.375 -1.125 1.203125l-2.421875 2.984375l2.671875 3.59375q0.578125 0.765625 1.03125 1.1875q0.453125 0.40625 0.90625 0.578125l0 0.578125l-4.703125 0l0 -0.578125q0.96875 -0.109375 0.96875 -0.71875q0 -0.25 -0.078125 -0.46875q-0.078125 -0.234375 -0.3125 -0.515625l-1.6875 -2.375l-1.8125 2.34375q-0.203125 0.265625 -0.3125 0.484375q-0.109375 0.203125 -0.109375 0.484375q0 0.3125 0.21875 0.515625q0.21875 0.203125 0.6875 0.25l0 0.578125l-3.921875 0l0 -0.578125q0.390625 -0.140625 0.703125 -0.34375q0.3125 -0.21875 0.625 -0.546875q0.328125 -0.34375 0.859375 -0.984375l2.4375 -3.015625l-2.5 -3.421875q-0.515625 -0.703125 -0.828125 -1.015625q-0.296875 -0.328125 -0.5625 -0.484375q-0.25 -0.171875 -0.5 -0.234375l0 -0.578125l4.59375 0l0 0.578125q-0.9375 0.140625 -0.9375 0.71875q0 0.265625 0.125 0.546875q0.125 0.265625 0.390625 0.59375l1.421875 2.0z" fill-rule="nonzero"></path><path fill="#000000" fill-opacity="0.0" d="m908.85925 116.08399l107.52753 237.35434" fill-rule="evenodd"></path><path stroke="#000000" stroke-width="1.0" stroke-linejoin="round" stroke-linecap="butt" d="m908.85925 116.08399l105.051575 231.88904" fill-rule="evenodd"></path><path fill="#000000" stroke="#000000" stroke-width="1.0" stroke-linecap="butt" d="m1012.4063 348.6546l3.3772583 3.4520874l-0.36816406 -4.815277z" fill-rule="evenodd"></path><path fill="#000000" fill-opacity="0.0" d="m908.85925 169.26247l107.52753 184.15749" fill-rule="evenodd"></path><path stroke="#000000" stroke-width="1.0" stroke-linejoin="round" stroke-linecap="butt" d="m908.85925 169.26247l104.5022 178.97606" fill-rule="evenodd"></path><path fill="#000000" stroke="#000000" stroke-width="1.0" stroke-linecap="butt" d="m1011.93506 349.07138l3.7145996 3.0861206l-0.8618164 -4.751831z" fill-rule="evenodd"></path><path fill="#000000" fill-opacity="0.0" d="m908.85925 222.44095l107.52753 130.99213" fill-rule="evenodd"></path><path stroke="#000000" stroke-width="1.0" stroke-linejoin="round" stroke-linecap="butt" d="m908.85925 222.44095l103.72064 126.35449" fill-rule="evenodd"></path><path fill="#000000" stroke="#000000" stroke-width="1.0" stroke-linecap="butt" d="m1011.3032 349.84344l4.156067 2.4596558l-1.6026611 -4.555664z" fill-rule="evenodd"></path><path fill="#000000" fill-opacity="0.0" d="m908.85925 275.61942l107.52753 77.79529" fill-rule="evenodd"></path><path stroke="#000000" stroke-width="1.0" stroke-linejoin="round" stroke-linecap="butt" d="m908.85925 275.61942l102.66644 74.27829" fill-rule="evenodd"></path><path fill="#000000" stroke="#000000" stroke-width="1.0" stroke-linecap="butt" d="m1010.5575 351.23593l4.6448975 1.3218384l-2.7085571 -3.998291z" fill-rule="evenodd"></path><path fill="#000000" fill-opacity="0.0" d="m908.85925 328.7979l107.52753 24.629913" fill-rule="evenodd"></path><path stroke="#000000" stroke-width="1.0" stroke-linejoin="round" stroke-linecap="butt" d="m908.85925 328.7979l101.67908 23.290253" fill-rule="evenodd"></path><path fill="#000000" stroke="#000000" stroke-width="1.0" stroke-linecap="butt" d="m1010.1695 353.6982l4.7922974 -0.59680176l-4.0547485 -2.6232605z" fill-rule="evenodd"></path><path fill="#000000" fill-opacity="0.0" d="m908.85925 381.97638l107.52753 -28.53543" fill-rule="evenodd"></path><path stroke="#000000" stroke-width="1.0" stroke-linejoin="round" stroke-linecap="butt" d="m908.85925 381.97638l101.72827 -26.99643" fill-rule="evenodd"></path><path fill="#000000" stroke="#000000" stroke-width="1.0" stroke-linecap="butt" d="m1011.0112 356.57642l3.9625854 -2.760498l-4.8099365 -0.43243408z" fill-rule="evenodd"></path><path fill="#000000" fill-opacity="0.0" d="m908.85925 435.15485l107.52753 -81.73227" fill-rule="evenodd"></path><path stroke="#000000" stroke-width="1.0" stroke-linejoin="round" stroke-linecap="butt" d="m908.85925 435.15485l102.75079 -78.10144" fill-rule="evenodd"></path><path fill="#000000" stroke="#000000" stroke-width="1.0" stroke-linecap="butt" d="m1012.6096 358.36838l2.6133423 -4.061157l-4.6124268 1.4311829z" fill-rule="evenodd"></path><path fill="#000000" fill-opacity="0.0" d="m908.85925 488.33334l107.52753 -134.89764" fill-rule="evenodd"></path><path stroke="#000000" stroke-width="1.0" stroke-linejoin="round" stroke-linecap="butt" d="m908.85925 488.33334l103.78766 -130.20581" fill-rule="evenodd"></path><path fill="#000000" stroke="#000000" stroke-width="1.0" stroke-linecap="butt" d="m1013.93854 359.15707l1.5370483 -4.5782166l-4.1202393 2.5191345z" fill-rule="evenodd"></path><path fill="#000000" fill-opacity="0.0" d="m908.85925 541.51184l107.52753 -188.09451" fill-rule="evenodd"></path><path stroke="#000000" stroke-width="1.0" stroke-linejoin="round" stroke-linecap="butt" d="m908.85925 541.51184l104.549805 -182.88562" fill-rule="evenodd"></path><path fill="#000000" stroke="#000000" stroke-width="1.0" stroke-linecap="butt" d="m1014.843 359.44598l0.8182373 -4.759491l-3.6861572 3.119995z" fill-rule="evenodd"></path><path fill="#000000" fill-opacity="0.0" d="m908.85925 594.6903l107.52753 -241.25986" fill-rule="evenodd"></path><path stroke="#000000" stroke-width="1.0" stroke-linejoin="round" stroke-linecap="butt" d="m908.85925 594.6903l105.08508 -235.77954" fill-rule="evenodd"></path><path fill="#000000" stroke="#000000" stroke-width="1.0" stroke-linecap="butt" d="m1015.45294 359.5832l0.33874512 -4.8174744l-3.356079 3.4726562z" fill-rule="evenodd"></path><path fill="#f3f3f3" d="m585.58356 14.734908l57.13385 0l0 677.3858l-57.13385 0z" fill-rule="evenodd"></path><path stroke="#000000" stroke-width="1.0" stroke-linejoin="round" stroke-linecap="butt" d="m585.58356 14.734908l57.13385 0l0 677.3858l-57.13385 0z" fill-rule="evenodd"></path><path fill="#fff2cc" d="m591.9314 46.59055l0 0c0 -12.272026 9.948486 -22.22047 22.22052 -22.22047l0 0c5.8931885 0 11.545044 2.3410778 15.712219 6.5082245c4.1671753 4.1671486 6.5082397 9.819012 6.5082397 15.712246l0 0c0 12.27203 -9.948486 22.22047 -22.220459 22.22047l0 0c-12.272034 0 -22.22052 -9.948441 -22.22052 -22.22047z" fill-rule="evenodd"></path><path stroke="#bf9000" stroke-width="1.0" stroke-linejoin="round" stroke-linecap="butt" d="m591.9314 46.59055l0 0c0 -12.272026 9.948486 -22.22047 22.22052 -22.22047l0 0c5.8931885 0 11.545044 2.3410778 15.712219 6.5082245c4.1671753 4.1671486 6.5082397 9.819012 6.5082397 15.712246l0 0c0 12.27203 -9.948486 22.22047 -22.220459 22.22047l0 0c-12.272034 0 -22.22052 -9.948441 -22.22052 -22.22047z" fill-rule="evenodd"></path><path fill="#000000" d="m612.95526 53.666798q-1.453125 0 -2.4375 -0.640625q-0.96875 -0.640625 -1.5 -2.0625q-0.53125 -1.421875 -0.53125 -3.671875q0 -2.125 0.53125 -3.59375q0.546875 -1.46875 1.59375 -2.234375q1.046875 -0.765625 2.5 -0.765625q2.28125 0 3.40625 1.5625q1.125 1.546875 1.125 4.75q0 3.28125 -1.1875 4.96875q-1.1875 1.6875 -3.5 1.6875zm-1.640625 -6.640625q0 2.046875 0.171875 3.25q0.1875 1.203125 0.578125 1.78125q0.390625 0.5625 1.03125 0.5625q0.359375 0 0.625 -0.171875q0.265625 -0.171875 0.46875 -0.53125q0.203125 -0.375 0.34375 -0.984375q0.15625 -0.609375 0.21875 -1.5q0.078125 -0.90625 0.078125 -2.03125q0 -1.65625 -0.125 -2.78125q-0.125 -1.140625 -0.359375 -1.75q-0.234375 -0.609375 -0.546875 -0.859375q-0.3125 -0.265625 -0.734375 -0.265625q-0.5 0 -0.84375 0.328125q-0.328125 0.3125 -0.53125 0.96875q-0.203125 0.65625 -0.296875 1.65625q-0.078125 0.984375 -0.078125 2.328125z" fill-rule="nonzero"></path><path fill="#fff2cc" d="m591.9314 102.13911l0 0c0 -12.272026 9.948486 -22.220474 22.22052 -22.220474l0 0c5.8931885 0 11.545044 2.3410797 15.712219 6.508232c4.1671753 4.167145 6.5082397 9.819008 6.5082397 15.712242l0 0c0 12.272026 -9.948486 22.220474 -22.220459 22.220474l0 0c-12.272034 0 -22.22052 -9.948448 -22.22052 -22.220474z" fill-rule="evenodd"></path><path stroke="#bf9000" stroke-width="1.0" stroke-linejoin="round" stroke-linecap="butt" d="m591.9314 102.13911l0 0c0 -12.272026 9.948486 -22.220474 22.22052 -22.220474l0 0c5.8931885 0 11.545044 2.3410797 15.712219 6.508232c4.1671753 4.167145 6.5082397 9.819008 6.5082397 15.712242l0 0c0 12.272026 -9.948486 22.220474 -22.220459 22.220474l0 0c-12.272034 0 -22.22052 -9.948448 -22.22052 -22.220474z" fill-rule="evenodd"></path><path fill="#000000" d="m614.87714 106.465355q0 0.546875 0.0625 0.828125q0.0625 0.265625 0.21875 0.4375q0.15625 0.171875 0.4375 0.265625q0.28125 0.09375 0.71875 0.15625q0.4375 0.046875 1.15625 0.0625l0 0.84375l-8.015625 0l0 -0.84375q1.03125 -0.046875 1.46875 -0.125q0.453125 -0.078125 0.671875 -0.234375q0.234375 -0.15625 0.34375 -0.4375q0.109375 -0.296875 0.109375 -0.953125l0 -6.703125q0 -0.375 -0.140625 -0.546875q-0.140625 -0.171875 -0.390625 -0.171875q-0.234375 0 -0.65625 0.21875q-0.421875 0.21875 -1.390625 0.875l-0.5625 -0.984375l4.84375 -2.90625l1.1875 0q-0.0625 0.890625 -0.0625 2.46875l0 7.75z" fill-rule="nonzero"></path><path fill="#fff2cc" d="m591.9314 155.1378l0 0c0 -12.272034 9.948486 -22.220474 22.22052 -22.220474l0 0c5.8931885 0 11.545044 2.3410797 15.712219 6.5082245c4.1671753 4.167145 6.5082397 9.819 6.5082397 15.71225l0 0c0 12.272018 -9.948486 22.220459 -22.220459 22.220459l0 0c-12.272034 0 -22.22052 -9.948441 -22.22052 -22.220459z" fill-rule="evenodd"></path><path stroke="#bf9000" stroke-width="1.0" stroke-linejoin="round" stroke-linecap="butt" d="m591.9314 155.1378l0 0c0 -12.272034 9.948486 -22.220474 22.22052 -22.220474l0 0c5.8931885 0 11.545044 2.3410797 15.712219 6.5082245c4.1671753 4.167145 6.5082397 9.819 6.5082397 15.71225l0 0c0 12.272018 -9.948486 22.220459 -22.220459 22.220459l0 0c-12.272034 0 -22.22052 -9.948441 -22.22052 -22.220459z" fill-rule="evenodd"></path><path fill="#000000" d="m614.43964 159.79216q0.59375 0 0.890625 -0.09375q0.296875 -0.09375 0.46875 -0.3125q0.171875 -0.21875 0.28125 -0.65625l1.078125 0l-0.21875 3.328125l-8.5 0l0 -0.609375q0.390625 -0.890625 1.125 -1.9375q0.734375 -1.046875 1.796875 -2.296875q1.0 -1.171875 1.515625 -1.9375q0.53125 -0.765625 0.796875 -1.4375q0.265625 -0.671875 0.265625 -1.40625q0 -1.015625 -0.46875 -1.59375q-0.453125 -0.578125 -1.234375 -0.578125q-0.75 0 -1.234375 0.53125q-0.484375 0.515625 -0.703125 1.640625l-1.671875 0l0 -2.1875q1.125 -0.453125 1.765625 -0.625q0.640625 -0.1875 1.265625 -0.28125q0.640625 -0.09375 1.359375 -0.09375q1.375 0 2.234375 0.375q0.859375 0.359375 1.234375 0.984375q0.390625 0.625 0.390625 1.46875q0 0.71875 -0.28125 1.359375q-0.265625 0.625 -0.9375 1.4375q-0.671875 0.796875 -2.265625 2.3125q-0.71875 0.6875 -1.34375 1.40625q-0.609375 0.703125 -0.90625 1.109375l0 0.09375l3.296875 0z" fill-rule="nonzero"></path><path fill="#fff2cc" d="m591.9314 663.1732l0 0c0 -12.272034 9.948486 -22.220459 22.22052 -22.220459l0 0c5.8931885 0 11.545044 2.3410645 15.712219 6.5082397c4.1671753 4.1671143 6.5082397 9.81897 6.5082397 15.712219l0 0c0 12.272034 -9.948486 22.220459 -22.220459 22.220459l0 0c-12.272034 0 -22.22052 -9.948425 -22.22052 -22.220459z" fill-rule="evenodd"></path><path stroke="#bf9000" stroke-width="1.0" stroke-linejoin="round" stroke-linecap="butt" d="m591.9314 663.1732l0 0c0 -12.272034 9.948486 -22.220459 22.22052 -22.220459l0 0c5.8931885 0 11.545044 2.3410645 15.712219 6.5082397c4.1671753 4.1671143 6.5082397 9.81897 6.5082397 15.712219l0 0c0 12.272034 -9.948486 22.220459 -22.220459 22.220459l0 0c-12.272034 0 -22.22052 -9.948425 -22.22052 -22.220459z" fill-rule="evenodd"></path><path fill="#000000" d="m619.26776 667.7651q0 0.71875 0.0625 0.984375q0.0625 0.265625 0.25 0.4375q0.1875 0.171875 0.671875 0.296875l0 0.609375l-4.84375 0l0 -0.609375q0.53125 -0.140625 0.6875 -0.28125q0.171875 -0.140625 0.234375 -0.390625q0.0625 -0.265625 0.0625 -1.046875l0 -3.71875l-4.1875 0l0 3.71875q0 0.328125 0.015625 0.609375q0.015625 0.265625 0.0625 0.453125q0.0625 0.171875 0.171875 0.296875q0.109375 0.109375 0.296875 0.203125q0.1875 0.09375 0.453125 0.15625l0 0.609375l-4.875 0l0 -0.609375q0.34375 -0.09375 0.546875 -0.203125q0.203125 -0.109375 0.296875 -0.296875q0.09375 -0.1875 0.125 -0.484375q0.03125 -0.296875 0.03125 -0.734375l0 -8.0q0 -0.4375 -0.03125 -0.734375q-0.015625 -0.296875 -0.125 -0.484375q-0.09375 -0.1875 -0.296875 -0.296875q-0.1875 -0.109375 -0.546875 -0.203125l0 -0.609375l4.875 0l0 0.609375q-0.5 0.140625 -0.6875 0.3125q-0.171875 0.15625 -0.25 0.4375q-0.0625 0.265625 -0.0625 0.984375l0 3.09375l4.1875 0l0 -3.09375q0 -0.703125 -0.0625 -0.96875q-0.0625 -0.28125 -0.25 -0.453125q-0.171875 -0.171875 -0.671875 -0.3125l0 -0.609375l4.84375 0l0 0.609375q-0.40625 0.109375 -0.59375 0.234375q-0.1875 0.125 -0.265625 0.328125q-0.078125 0.1875 -0.109375 0.4375q-0.015625 0.234375 -0.015625 0.734375l0 7.984375z" fill-rule="nonzero"></path><path fill="#000000" fill-opacity="0.0" d="m636.3724 46.59055l228.0315 69.480316" fill-rule="evenodd"></path><path stroke="#000000" stroke-width="1.0" stroke-linejoin="round" stroke-linecap="butt" d="m636.3724 46.59055l222.29199 67.73152" fill-rule="evenodd"></path><path fill="#000000" stroke="#000000" stroke-width="1.0" stroke-linecap="butt" d="m858.183 115.902084l4.8224487 -0.2573166l-3.8596191 -2.9027176z" fill-rule="evenodd"></path><path fill="#000000" fill-opacity="0.0" d="m636.3724 46.59055l228.0315 122.67717" fill-rule="evenodd"></path><path stroke="#000000" stroke-width="1.0" stroke-linejoin="round" stroke-linecap="butt" d="m636.3724 46.59055l222.74762 119.83453" fill-rule="evenodd"></path><path fill="#000000" stroke="#000000" stroke-width="1.0" stroke-linecap="butt" d="m858.33746 167.87967l4.7789917 0.6954346l-3.2139282 -3.6046143z" fill-rule="evenodd"></path><path fill="#000000" fill-opacity="0.0" d="m636.3724 46.59055l228.0315 175.84253" fill-rule="evenodd"></path><path stroke="#000000" stroke-width="1.0" stroke-linejoin="round" stroke-linecap="butt" d="m636.3724 46.59055l223.28009 172.17859" fill-rule="evenodd"></path><path fill="#000000" stroke="#000000" stroke-width="1.0" stroke-linecap="butt" d="m858.64386 220.07713l4.602356 1.463211l-2.585083 -4.0792084z" fill-rule="evenodd"></path><path fill="#000000" fill-opacity="0.0" d="m636.3724 46.59055l228.0315 229.03937" fill-rule="evenodd"></path><path stroke="#000000" stroke-width="1.0" stroke-linejoin="round" stroke-linecap="butt" d="m636.3724 46.59055l223.79822 224.78738" fill-rule="evenodd"></path><path fill="#000000" stroke="#000000" stroke-width="1.0" stroke-linecap="butt" d="m859.00006 272.5433l4.3723755 2.0506287l-2.031311 -4.381378z" fill-rule="evenodd"></path><path fill="#000000" fill-opacity="0.0" d="m636.3724 46.59055l228.0315 282.20474" fill-rule="evenodd"></path><path stroke="#000000" stroke-width="1.0" stroke-linejoin="round" stroke-linecap="butt" d="m636.3724 46.59055l224.2605 277.53787" fill-rule="evenodd"></path><path fill="#000000" stroke="#000000" stroke-width="1.0" stroke-linecap="butt" d="m859.34814 325.16653l4.136902 2.4916687l-1.5674438 -4.5679016z" fill-rule="evenodd"></path><path fill="#000000" fill-opacity="0.0" d="m636.3724 46.59055l228.0315 335.40158" fill-rule="evenodd"></path><path stroke="#000000" stroke-width="1.0" stroke-linejoin="round" stroke-linecap="butt" d="m636.3724 46.59055l224.65808 330.43973" fill-rule="evenodd"></path><path fill="#000000" stroke="#000000" stroke-width="1.0" stroke-linecap="butt" d="m859.6645 377.95895l3.9174194 2.8242188l-1.1855469 -4.681549z" fill-rule="evenodd"></path><path fill="#000000" fill-opacity="0.0" d="m636.3724 46.59055l228.0315 388.56693" fill-rule="evenodd"></path><path stroke="#000000" stroke-width="1.0" stroke-linejoin="round" stroke-linecap="butt" d="m636.3724 46.59055l224.99469 383.39218" fill-rule="evenodd"></path><path fill="#000000" stroke="#000000" stroke-width="1.0" stroke-linecap="butt" d="m859.9425 430.81876l3.7214355 3.0779114l-0.87231445 -4.7499084z" fill-rule="evenodd"></path><path fill="#000000" fill-opacity="0.0" d="m636.3724 46.59055l228.0315 441.7323" fill-rule="evenodd"></path><path stroke="#000000" stroke-width="1.0" stroke-linejoin="round" stroke-linecap="butt" d="m636.3724 46.59055l225.2793 436.40076" fill-rule="evenodd"></path><path fill="#000000" stroke="#000000" stroke-width="1.0" stroke-linecap="butt" d="m860.1839 483.74896l3.5493774 3.2748413l-0.61395264 -4.790161z" fill-rule="evenodd"></path><path fill="#000000" fill-opacity="0.0" d="m636.3724 46.59055l228.0315 494.92917" fill-rule="evenodd"></path><path stroke="#000000" stroke-width="1.0" stroke-linejoin="round" stroke-linecap="butt" d="m636.3724 46.59055l225.52075 489.4797" fill-rule="evenodd"></path><path fill="#000000" stroke="#000000" stroke-width="1.0" stroke-linecap="butt" d="m860.39294 536.7615l3.39917 3.430481l-0.3988037 -4.812866z" fill-rule="evenodd"></path><path fill="#000000" fill-opacity="0.0" d="m636.3724 46.59055l228.0315 548.0945" fill-rule="evenodd"></path><path stroke="#000000" stroke-width="1.0" stroke-linejoin="round" stroke-linecap="butt" d="m636.3724 46.59055l225.72668 542.55475" fill-rule="evenodd"></path><path fill="#000000" stroke="#000000" stroke-width="1.0" stroke-linecap="butt" d="m860.5741 589.77985l3.2682495 3.55542l-0.21820068 -4.824402z" fill-rule="evenodd"></path><path fill="#000000" fill-opacity="0.0" d="m636.3724 102.13911l228.0315 13.952759" fill-rule="evenodd"></path><path stroke="#000000" stroke-width="1.0" stroke-linejoin="round" stroke-linecap="butt" d="m636.3724 102.13911l222.04272 13.586319" fill-rule="evenodd"></path><path fill="#000000" stroke="#000000" stroke-width="1.0" stroke-linecap="butt" d="m858.3142 117.37407l4.630493 -1.3714905l-4.428772 -1.9258041z" fill-rule="evenodd"></path><path fill="#000000" fill-opacity="0.0" d="m636.3724 102.13911l228.0315 67.11811" fill-rule="evenodd"></path><path stroke="#000000" stroke-width="1.0" stroke-linejoin="round" stroke-linecap="butt" d="m636.3724 102.13911l222.2757 65.42394" fill-rule="evenodd"></path><path fill="#000000" stroke="#000000" stroke-width="1.0" stroke-linecap="butt" d="m858.18164 169.14758l4.819824 -0.30314636l-3.887085 -2.8659058z" fill-rule="evenodd"></path><path fill="#000000" fill-opacity="0.0" d="m636.3724 102.13911l228.0315 120.314964" fill-rule="evenodd"></path><path stroke="#000000" stroke-width="1.0" stroke-linejoin="round" stroke-linecap="butt" d="m636.3724 102.13911l222.7248 117.51505" fill-rule="evenodd"></path><path fill="#000000" stroke="#000000" stroke-width="1.0" stroke-linecap="butt" d="m858.3264 221.11502l4.784485 0.6568451l-3.242859 -3.5785675z" fill-rule="evenodd"></path><path fill="#000000" fill-opacity="0.0" d="m636.3724 102.13911l228.0315 173.48032" fill-rule="evenodd"></path><path stroke="#000000" stroke-width="1.0" stroke-linejoin="round" stroke-linecap="butt" d="m636.3724 102.13911l223.25629 169.8475" fill-rule="evenodd"></path><path fill="#000000" stroke="#000000" stroke-width="1.0" stroke-linecap="butt" d="m858.6286 273.30115l4.6118164 1.433136l-2.6116333 -4.062256z" fill-rule="evenodd"></path><path fill="#000000" fill-opacity="0.0" d="m636.3724 102.13911l228.0315 226.64569" fill-rule="evenodd"></path><path stroke="#000000" stroke-width="1.0" stroke-linejoin="round" stroke-linecap="butt" d="m636.3724 102.13911l223.77594 222.41599" fill-rule="evenodd"></path><path fill="#000000" stroke="#000000" stroke-width="1.0" stroke-linecap="butt" d="m858.98395 325.7266l4.3830566 2.0276184l-2.0543213 -4.370636z" fill-rule="evenodd"></path><path fill="#000000" fill-opacity="0.0" d="m636.3724 102.13911l228.0315 333.00787" fill-rule="evenodd"></path><path stroke="#000000" stroke-width="1.0" stroke-linejoin="round" stroke-linecap="butt" d="m636.3724 102.13911l224.64154 328.0573" fill-rule="evenodd"></path><path fill="#000000" stroke="#000000" stroke-width="1.0" stroke-linecap="butt" d="m859.65106 431.12964l3.9268188 2.8111267l-1.2011108 -4.677582z" fill-rule="evenodd"></path><path fill="#000000" fill-opacity="0.0" d="m636.3724 102.13911l228.0315 386.20474" fill-rule="evenodd"></path><path stroke="#000000" stroke-width="1.0" stroke-linejoin="round" stroke-linecap="butt" d="m636.3724 102.13911l224.9809 381.03812" fill-rule="evenodd"></path><path fill="#000000" stroke="#000000" stroke-width="1.0" stroke-linecap="butt" d="m859.93097 484.017l3.7296143 3.0679932l-0.88500977 -4.7475586z" fill-rule="evenodd"></path><path fill="#000000" fill-opacity="0.0" d="m636.3724 102.13911l228.0315 439.37012" fill-rule="evenodd"></path><path stroke="#000000" stroke-width="1.0" stroke-linejoin="round" stroke-linecap="butt" d="m636.3724 102.13911l225.26758 434.04462" fill-rule="evenodd"></path><path fill="#000000" stroke="#000000" stroke-width="1.0" stroke-linecap="butt" d="m860.1739 536.9446l3.5565796 3.2670288l-0.6244507 -4.7887573z" fill-rule="evenodd"></path><path fill="#000000" fill-opacity="0.0" d="m636.3724 102.13911l228.0315 492.56696" fill-rule="evenodd"></path><path stroke="#000000" stroke-width="1.0" stroke-linejoin="round" stroke-linecap="butt" d="m636.3724 102.13911l225.5108 487.12207" fill-rule="evenodd"></path><path fill="#000000" stroke="#000000" stroke-width="1.0" stroke-linecap="butt" d="m860.3843 589.9551l3.4054565 3.4243164l-0.40759277 -4.812134z" fill-rule="evenodd"></path><path fill="#000000" fill-opacity="0.0" d="m636.3724 663.1732l228.0315 -547.0866" fill-rule="evenodd"></path><path stroke="#000000" stroke-width="1.0" stroke-linejoin="round" stroke-linecap="butt" d="m636.3724 663.1732l225.72308 -541.5484" fill-rule="evenodd"></path><path fill="#000000" stroke="#000000" stroke-width="1.0" stroke-linecap="butt" d="m863.6201 122.26026l0.22131348 -4.8242645l-3.2705078 3.5533295z" fill-rule="evenodd"></path><path fill="#000000" fill-opacity="0.0" d="m636.3724 663.1732l228.0315 -493.92126" fill-rule="evenodd"></path><path stroke="#000000" stroke-width="1.0" stroke-linejoin="round" stroke-linecap="butt" d="m636.3724 663.1732l225.51654 -488.4738" fill-rule="evenodd"></path><path fill="#000000" stroke="#000000" stroke-width="1.0" stroke-linecap="butt" d="m863.38855 175.39178l0.40252686 -4.8125305l-3.4017944 3.4278412z" fill-rule="evenodd"></path><path fill="#000000" fill-opacity="0.0" d="m636.3724 663.1732l228.0315 -440.7244" fill-rule="evenodd"></path><path stroke="#000000" stroke-width="1.0" stroke-linejoin="round" stroke-linecap="butt" d="m636.3724 663.1732l225.27429 -435.39545" fill-rule="evenodd"></path><path fill="#000000" stroke="#000000" stroke-width="1.0" stroke-linecap="butt" d="m863.11365 228.5368l0.6184082 -4.7895813l-3.5523682 3.2715302z" fill-rule="evenodd"></path><path fill="#000000" fill-opacity="0.0" d="m636.3724 663.1732l228.0315 -387.55905" fill-rule="evenodd"></path><path stroke="#000000" stroke-width="1.0" stroke-linejoin="round" stroke-linecap="butt" d="m636.3724 663.1732l224.98883 -382.38776" fill-rule="evenodd"></path><path fill="#000000" stroke="#000000" stroke-width="1.0" stroke-linecap="butt" d="m862.7848 281.62308l0.8777466 -4.748932l-3.7249146 3.0737z" fill-rule="evenodd"></path><path fill="#000000" fill-opacity="0.0" d="m636.3724 663.1732l228.0315 -334.36218" fill-rule="evenodd"></path><path stroke="#000000" stroke-width="1.0" stroke-linejoin="round" stroke-linecap="butt" d="m636.3724 663.1732l224.65094 -329.40524" fill-rule="evenodd"></path><path fill="#000000" stroke="#000000" stroke-width="1.0" stroke-linecap="butt" d="m862.3879 334.69864l1.1923218 -4.67984l-3.9215088 2.8185425z" fill-rule="evenodd"></path><path fill="#000000" fill-opacity="0.0" d="m636.3724 663.1732l228.0315 -281.19684" fill-rule="evenodd"></path><path stroke="#000000" stroke-width="1.0" stroke-linejoin="round" stroke-linecap="butt" d="m636.3724 663.1732l224.25238 -276.53656" fill-rule="evenodd"></path><path fill="#000000" stroke="#000000" stroke-width="1.0" stroke-linecap="butt" d="m861.90765 387.677l1.5754395 -4.565155l-4.1412964 2.484436z" fill-rule="evenodd"></path><path fill="#000000" fill-opacity="0.0" d="m636.3724 663.1732l228.0315 -228.0315" fill-rule="evenodd"></path><path stroke="#000000" stroke-width="1.0" stroke-linejoin="round" stroke-linecap="butt" d="m636.3724 663.1732l223.78888 -223.78882" fill-rule="evenodd"></path><path fill="#000000" stroke="#000000" stroke-width="1.0" stroke-linecap="butt" d="m861.32916 440.55234l2.0410156 -4.376892l-4.376892 2.040985z" fill-rule="evenodd"></path><path fill="#000000" fill-opacity="0.0" d="m636.3724 663.1732l228.0315 -174.83463" fill-rule="evenodd"></path><path stroke="#000000" stroke-width="1.0" stroke-linejoin="round" stroke-linecap="butt" d="m636.3724 663.1732l223.26996 -171.18393" fill-rule="evenodd"></path><path fill="#000000" stroke="#000000" stroke-width="1.0" stroke-linecap="butt" d="m860.64734 493.3001l2.5963745 -4.0720215l-4.6063843 1.4504395z" fill-rule="evenodd"></path><path fill="#000000" fill-opacity="0.0" d="m636.3724 663.1732l228.0315 -121.66925" fill-rule="evenodd"></path><path stroke="#000000" stroke-width="1.0" stroke-linejoin="round" stroke-linecap="butt" d="m636.3724 663.1732l222.73785 -118.84479" fill-rule="evenodd"></path><path fill="#000000" stroke="#000000" stroke-width="1.0" stroke-linecap="butt" d="m859.8878 545.7857l3.2262573 -3.593567l-4.781372 0.6790161z" fill-rule="evenodd"></path><path fill="#000000" fill-opacity="0.0" d="m636.3724 663.1732l228.0315 -68.47241" fill-rule="evenodd"></path><path stroke="#000000" stroke-width="1.0" stroke-linejoin="round" stroke-linecap="butt" d="m636.3724 663.1732l222.28491 -66.74689" fill-rule="evenodd"></path><path fill="#000000" stroke="#000000" stroke-width="1.0" stroke-linecap="butt" d="m859.1324 598.0083l3.871338 -2.887085l-4.821411 -0.27685547z" fill-rule="evenodd"></path><path fill="#000000" fill-opacity="0.0" d="m636.3724 155.1378l228.0315 -39.055122" fill-rule="evenodd"></path><path stroke="#000000" stroke-width="1.0" stroke-linejoin="round" stroke-linecap="butt" d="m636.3724 155.1378l222.11761 -38.042244" fill-rule="evenodd"></path><path fill="#000000" stroke="#000000" stroke-width="1.0" stroke-linecap="butt" d="m858.7688 118.72358l4.194153 -2.3941116l-4.751831 -0.8619385z" fill-rule="evenodd"></path><path fill="#000000" fill-opacity="0.0" d="m636.3724 155.1378l228.0315 14.1102295" fill-rule="evenodd"></path><path stroke="#000000" stroke-width="1.0" stroke-linejoin="round" stroke-linecap="butt" d="m636.3724 155.1378l222.04297 13.73967" fill-rule="evenodd"></path><path fill="#000000" stroke="#000000" stroke-width="1.0" stroke-linecap="butt" d="m858.3133 170.52605l4.6314697 -1.3683014l-4.427429 -1.9288483z" fill-rule="evenodd"></path><path fill="#000000" fill-opacity="0.0" d="m636.3724 155.1378l228.0315 67.30708" fill-rule="evenodd"></path><path stroke="#000000" stroke-width="1.0" stroke-linejoin="round" stroke-linecap="butt" d="m636.3724 155.1378l222.27692 65.60852" fill-rule="evenodd"></path><path fill="#000000" stroke="#000000" stroke-width="1.0" stroke-linecap="butt" d="m858.1817 222.3305l4.8200684 -0.299469l-3.8848877 -2.868866z" fill-rule="evenodd"></path><path fill="#000000" fill-opacity="0.0" d="m636.3724 155.1378l228.0315 120.47243" fill-rule="evenodd"></path><path stroke="#000000" stroke-width="1.0" stroke-linejoin="round" stroke-linecap="butt" d="m636.3724 155.1378l222.72638 117.66966" fill-rule="evenodd"></path><path fill="#000000" stroke="#000000" stroke-width="1.0" stroke-linecap="butt" d="m858.32715 274.2679l4.7841187 0.6594238l-3.2409668 -3.5803223z" fill-rule="evenodd"></path><path fill="#000000" fill-opacity="0.0" d="m636.3724 155.1378l228.0315 173.6693" fill-rule="evenodd"></path><path stroke="#000000" stroke-width="1.0" stroke-linejoin="round" stroke-linecap="butt" d="m636.3724 155.1378l223.25818 170.03392" fill-rule="evenodd"></path><path fill="#000000" stroke="#000000" stroke-width="1.0" stroke-linecap="butt" d="m858.6298 326.48578l4.611023 1.4355469l-2.609497 -4.063629z" fill-rule="evenodd"></path><path fill="#000000" fill-opacity="0.0" d="m636.3724 155.1378l228.0315 226.83464" fill-rule="evenodd"></path><path stroke="#000000" stroke-width="1.0" stroke-linejoin="round" stroke-linecap="butt" d="m636.3724 155.1378l223.77771 222.60316" fill-rule="evenodd"></path><path fill="#000000" stroke="#000000" stroke-width="1.0" stroke-linecap="butt" d="m858.9852 378.912l4.382202 2.0294495l-2.0524902 -4.3714905z" fill-rule="evenodd"></path><path fill="#000000" fill-opacity="0.0" d="m636.3724 155.1378l228.0315 280.0315" fill-rule="evenodd"></path><path stroke="#000000" stroke-width="1.0" stroke-linejoin="round" stroke-linecap="butt" d="m636.3724 155.1378l224.24286 275.3789" fill-rule="evenodd"></path><path fill="#000000" stroke="#000000" stroke-width="1.0" stroke-linecap="butt" d="m859.3345 431.5597l4.1463013 2.4760132l-1.5847168 -4.5619507z" fill-rule="evenodd"></path><path fill="#000000" fill-opacity="0.0" d="m636.3724 155.1378l228.0315 333.19684" fill-rule="evenodd"></path><path stroke="#000000" stroke-width="1.0" stroke-linejoin="round" stroke-linecap="butt" d="m636.3724 155.1378l224.64282 328.24536" fill-rule="evenodd"></path><path fill="#000000" stroke="#000000" stroke-width="1.0" stroke-linecap="butt" d="m859.65216 484.31604l3.9260864 2.8121643l-1.1999512 -4.677887z" fill-rule="evenodd"></path><path fill="#000000" fill-opacity="0.0" d="m636.3724 155.1378l228.0315 386.36218" fill-rule="evenodd"></path><path stroke="#000000" stroke-width="1.0" stroke-linejoin="round" stroke-linecap="butt" d="m636.3724 155.1378l224.98181 381.195" fill-rule="evenodd"></path><path fill="#000000" stroke="#000000" stroke-width="1.0" stroke-linecap="butt" d="m859.93176 537.17236l3.729065 3.0686646l-0.8841553 -4.7477417z" fill-rule="evenodd"></path><path fill="#000000" fill-opacity="0.0" d="m636.3724 155.1378l228.0315 439.55902" fill-rule="evenodd"></path><path stroke="#000000" stroke-width="1.0" stroke-linejoin="round" stroke-linecap="butt" d="m636.3724 155.1378l225.26855 434.23303" fill-rule="evenodd"></path><path fill="#000000" stroke="#000000" stroke-width="1.0" stroke-linecap="butt" d="m860.17474 590.1315l3.5559082 3.2677002l-0.6235962 -4.7888794z" fill-rule="evenodd"></path><path fill="#000000" fill-opacity="0.0" d="m636.3724 46.59055l228.0315 335.40158" fill-rule="evenodd"></path><path stroke="#000000" stroke-width="1.0" stroke-linejoin="round" stroke-linecap="butt" d="m636.3724 46.59055l224.65808 330.43973" fill-rule="evenodd"></path><path fill="#000000" stroke="#000000" stroke-width="1.0" stroke-linecap="butt" d="m859.6645 377.95895l3.9174194 2.8242188l-1.1855469 -4.681549z" fill-rule="evenodd"></path><path fill="#000000" fill-opacity="0.0" d="m397.82547 70.703415l194.11026 -24.125988" fill-rule="evenodd"></path><path stroke="#000000" stroke-width="1.0" stroke-linejoin="round" stroke-linecap="butt" d="m397.8255 70.703415l188.15607 -23.38594" fill-rule="evenodd"></path><path fill="#000000" stroke="#000000" stroke-width="1.0" stroke-linecap="butt" d="m586.1853 48.956596l4.2996826 -2.1988564l-4.7071533 -1.0793877z" fill-rule="evenodd"></path><path fill="#000000" fill-opacity="0.0" d="m397.82547 70.703415l194.11026 31.433067" fill-rule="evenodd"></path><path stroke="#000000" stroke-width="1.0" stroke-linejoin="round" stroke-linecap="butt" d="m397.8255 70.703415l188.18738 30.473953" fill-rule="evenodd"></path><path fill="#000000" stroke="#000000" stroke-width="1.0" stroke-linecap="butt" d="m585.74884 102.80786l4.7437744 -0.90506744l-4.2156982 -2.3559113z" fill-rule="evenodd"></path><path fill="#000000" fill-opacity="0.0" d="m397.82547 70.703415l194.11026 84.44095" fill-rule="evenodd"></path><path stroke="#000000" stroke-width="1.0" stroke-linejoin="round" stroke-linecap="butt" d="m397.8255 70.703415l188.60828 82.0475" fill-rule="evenodd"></path><path fill="#000000" stroke="#000000" stroke-width="1.0" stroke-linecap="butt" d="m585.7749 154.26555l4.8202515 0.2956543l-3.5025024 -3.3249054z" fill-rule="evenodd"></path><path fill="#000000" fill-opacity="0.0" d="m397.82547 70.703415l194.11026 592.4724" fill-rule="evenodd"></path><path stroke="#000000" stroke-width="1.0" stroke-linejoin="round" stroke-linecap="butt" d="m397.8255 70.703415l192.24219 586.7706" fill-rule="evenodd"></path><path fill="#000000" stroke="#000000" stroke-width="1.0" stroke-linecap="butt" d="m588.49805 657.98834l2.982544 3.7982788l0.15673828 -4.826782z" fill-rule="evenodd"></path><path fill="#000000" fill-opacity="0.0" d="m397.82547 160.67586l194.11026 -114.07874" fill-rule="evenodd"></path><path stroke="#000000" stroke-width="1.0" stroke-linejoin="round" stroke-linecap="butt" d="m397.8255 160.67586l188.93744 -111.03868" fill-rule="evenodd"></path><path fill="#000000" stroke="#000000" stroke-width="1.0" stroke-linecap="butt" d="m587.5998 51.061195l3.0755615 -3.7233696l-4.7493286 0.8753357z" fill-rule="evenodd"></path><path fill="#000000" fill-opacity="0.0" d="m397.82547 160.67586l194.11026 -58.551186" fill-rule="evenodd"></path><path stroke="#000000" stroke-width="1.0" stroke-linejoin="round" stroke-linecap="butt" d="m397.8255 160.67586l188.3659 -56.81846" fill-rule="evenodd"></path><path fill="#000000" stroke="#000000" stroke-width="1.0" stroke-linecap="butt" d="m586.6684 105.43875l3.8677368 -2.891899l-4.8217773 -0.270813z" fill-rule="evenodd"></path><path fill="#000000" fill-opacity="0.0" d="m397.82547 160.67586l194.11026 -5.5433044" fill-rule="evenodd"></path><path stroke="#000000" stroke-width="1.0" stroke-linejoin="round" stroke-linecap="butt" d="m397.8255 160.67586l188.11267 -5.3720245" fill-rule="evenodd"></path><path fill="#000000" stroke="#000000" stroke-width="1.0" stroke-linecap="butt" d="m585.98535 156.95488l4.4890747 -1.7806091l-4.583374 -1.5215149z" fill-rule="evenodd"></path><path fill="#000000" fill-opacity="0.0" d="m397.82547 160.67586l194.11026 502.48822" fill-rule="evenodd"></path><path stroke="#000000" stroke-width="1.0" stroke-linejoin="round" stroke-linecap="butt" d="m397.8255 160.67586l191.94818 496.8913" fill-rule="evenodd"></path><path fill="#000000" stroke="#000000" stroke-width="1.0" stroke-linecap="butt" d="m588.2329 658.16235l3.1760254 3.6380005l-0.09448242 -4.82843z" fill-rule="evenodd"></path><path fill="#000000" fill-opacity="0.0" d="m397.82547 250.6483l194.11026 -204.063" fill-rule="evenodd"></path><path stroke="#000000" stroke-width="1.0" stroke-linejoin="round" stroke-linecap="butt" d="m397.8255 250.6483l189.97491 -199.71567" fill-rule="evenodd"></path><path fill="#000000" stroke="#000000" stroke-width="1.0" stroke-linecap="butt" d="m588.9972 52.071033l1.9309692 -4.426502l-4.324524 2.1497002z" fill-rule="evenodd"></path><path fill="#000000" fill-opacity="0.0" d="m397.82547 250.6483l194.11026 -148.50394" fill-rule="evenodd"></path><path stroke="#000000" stroke-width="1.0" stroke-linejoin="round" stroke-linecap="butt" d="m397.8255 250.6483l189.34491 -144.85822" fill-rule="evenodd"></path><path fill="#000000" stroke="#000000" stroke-width="1.0" stroke-linecap="butt" d="m588.174 107.10194l2.600647 -4.069298l-4.60791 1.4456024z" fill-rule="evenodd"></path><path fill="#000000" fill-opacity="0.0" d="m397.82547 250.6483l194.11026 -95.49606" fill-rule="evenodd"></path><path stroke="#000000" stroke-width="1.0" stroke-linejoin="round" stroke-linecap="butt" d="m397.8255 250.6483l188.7265 -92.84744" fill-rule="evenodd"></path><path fill="#000000" stroke="#000000" stroke-width="1.0" stroke-linecap="butt" d="m587.2811 159.28294l3.3428345 -3.4853668l-4.8010864 0.52119446z" fill-rule="evenodd"></path><path fill="#000000" fill-opacity="0.0" d="m397.82547 250.6483l194.11026 412.5354" fill-rule="evenodd"></path><path stroke="#000000" stroke-width="1.0" stroke-linejoin="round" stroke-linecap="butt" d="m397.8255 250.6483l191.55573 407.10638" fill-rule="evenodd"></path><path fill="#000000" stroke="#000000" stroke-width="1.0" stroke-linecap="butt" d="m587.88666 658.45795l3.4266968 3.4030151l-0.43756104 -4.8095093z" fill-rule="evenodd"></path><path fill="#000000" fill-opacity="0.0" d="m397.82547 642.147l194.11026 -595.559" fill-rule="evenodd"></path><path stroke="#000000" stroke-width="1.0" stroke-linejoin="round" stroke-linecap="butt" d="m397.8255 642.147l192.25092 -589.85443" fill-rule="evenodd"></path><path fill="#000000" stroke="#000000" stroke-width="1.0" stroke-linecap="butt" d="m591.64685 52.804417l-0.16412354 -4.8265533l-2.9767456 3.8028603z" fill-rule="evenodd"></path><path fill="#000000" fill-opacity="0.0" d="m397.82547 642.147l194.11026 -540.0" fill-rule="evenodd"></path><path stroke="#000000" stroke-width="1.0" stroke-linejoin="round" stroke-linecap="butt" d="m397.8255 642.147l192.08057 -534.3537" fill-rule="evenodd"></path><path fill="#000000" stroke="#000000" stroke-width="1.0" stroke-linecap="butt" d="m591.46045 108.352005l-0.019226074 -4.8293l-3.0894775 3.7118301z" fill-rule="evenodd"></path><path fill="#000000" fill-opacity="0.0" d="m397.82547 642.147l194.11026 -487.02362" fill-rule="evenodd"></path><path stroke="#000000" stroke-width="1.0" stroke-linejoin="round" stroke-linecap="butt" d="m397.8255 642.147l191.8888 -481.45" fill-rule="evenodd"></path><path fill="#000000" stroke="#000000" stroke-width="1.0" stroke-linecap="butt" d="m591.24866 161.30852l0.14581299 -4.8271484l-3.2145386 3.604065z" fill-rule="evenodd"></path><path fill="#000000" fill-opacity="0.0" d="m397.82547 642.147l194.11026 21.039368" fill-rule="evenodd"></path><path stroke="#000000" stroke-width="1.0" stroke-linejoin="round" stroke-linecap="butt" d="m397.8255 642.147l188.1452 20.392822" fill-rule="evenodd"></path><path fill="#000000" stroke="#000000" stroke-width="1.0" stroke-linecap="butt" d="m585.79266 664.18195l4.6896973 -1.1531372l-4.333679 -2.1311035z" fill-rule="evenodd"></path></g></svg>

