<?xml version="1.0" standalone="yes"?>

<svg version="1.1" viewBox="0.0 0.0 960.0 720.0" fill="none" stroke="none" stroke-linecap="square" stroke-miterlimit="10" xmlns="http://www.w3.org/2000/svg" xmlns:xlink="http://www.w3.org/1999/xlink"><clipPath id="p.0"><path d="m0 0l960.0 0l0 720.0l-960.0 0l0 -720.0z" clip-rule="nonzero"></path></clipPath><g clip-path="url(#p.0)"><path fill="#000000" fill-opacity="0.0" d="m0 0l960.0 0l0 720.0l-960.0 0z" fill-rule="evenodd"></path><path fill="#f3f3f3" d="m326.0866 21.763779l84.31497 0l0 677.3858l-84.31497 0z" fill-rule="evenodd"></path><path stroke="#000000" stroke-width="1.0" stroke-linejoin="round" stroke-linecap="butt" d="m326.0866 21.763779l84.31497 0l0 677.3858l-84.31497 0z" fill-rule="evenodd"></path><path fill="#cfe2f3" d="m331.52628 70.703415l0 0c0 -20.517162 16.632446 -37.14961 37.149597 -37.14961l0 0c9.852692 0 19.30185 3.9139633 26.268738 10.880867c6.966919 6.9669037 10.880859 16.41605 10.880859 26.268742l0 0c0 20.517159 -16.632446 37.149605 -37.149597 37.149605l0 0c-20.51715 0 -37.149597 -16.632446 -37.149597 -37.149605z" fill-rule="evenodd"></path><path stroke="#0000ff" stroke-width="1.0" stroke-linejoin="round" stroke-linecap="butt" d="m331.52628 70.703415l0 0c0 -20.517162 16.632446 -37.14961 37.149597 -37.14961l0 0c9.852692 0 19.30185 3.9139633 26.268738 10.880867c6.966919 6.9669037 10.880859 16.41605 10.880859 26.268742l0 0c0 20.517159 -16.632446 37.149605 -37.149597 37.149605l0 0c-20.51715 0 -37.149597 -16.632446 -37.149597 -37.149605z" fill-rule="evenodd"></path><path fill="#000000" d="m368.6666 77.77966q-1.453125 0 -2.4375 -0.640625q-0.96875 -0.640625 -1.5 -2.0625q-0.53125 -1.421875 -0.53125 -3.671875q0 -2.125 0.53125 -3.59375q0.546875 -1.46875 1.59375 -2.234375q1.046875 -0.765625 2.5 -0.765625q2.28125 0 3.40625 1.5625q1.125 1.546875 1.125 4.75q0 3.28125 -1.1875 4.96875q-1.1875 1.6875 -3.5 1.6875zm-1.640625 -6.640625q0 2.046875 0.171875 3.25q0.1875 1.203125 0.578125 1.78125q0.390625 0.5625 1.03125 0.5625q0.359375 0 0.625 -0.171875q0.265625 -0.171875 0.46875 -0.53125q0.203125 -0.375 0.34375 -0.984375q0.15625 -0.609375 0.21875 -1.5q0.078125 -0.90625 0.078125 -2.03125q0 -1.65625 -0.125 -2.78125q-0.125 -1.140625 -0.359375 -1.75q-0.234375 -0.609375 -0.546875 -0.859375q-0.3125 -0.265625 -0.734375 -0.265625q-0.5 0 -0.84375 0.328125q-0.328125 0.3125 -0.53125 0.96875q-0.203125 0.65625 -0.296875 1.65625q-0.078125 0.984375 -0.078125 2.328125z" fill-rule="nonzero"></path><path fill="#cfe2f3" d="m331.52628 160.67586l0 0c0 -20.517166 16.632446 -37.149612 37.149597 -37.149612l0 0c9.852692 0 19.30185 3.9139633 26.268738 10.880875c6.966919 6.9669037 10.880859 16.416046 10.880859 26.268738l0 0c0 20.51715 -16.632446 37.149597 -37.149597 37.149597l0 0c-20.51715 0 -37.149597 -16.632446 -37.149597 -37.149597z" fill-rule="evenodd"></path><path stroke="#0000ff" stroke-width="1.0" stroke-linejoin="round" stroke-linecap="butt" d="m331.52628 160.67586l0 0c0 -20.517166 16.632446 -37.149612 37.149597 -37.149612l0 0c9.852692 0 19.30185 3.9139633 26.268738 10.880875c6.966919 6.9669037 10.880859 16.416046 10.880859 26.268738l0 0c0 20.51715 -16.632446 37.149597 -37.149597 37.149597l0 0c-20.51715 0 -37.149597 -16.632446 -37.149597 -37.149597z" fill-rule="evenodd"></path><path fill="#000000" d="m370.58847 165.0021q0 0.546875 0.0625 0.828125q0.0625 0.265625 0.21875 0.4375q0.15625 0.171875 0.4375 0.265625q0.28125 0.09375 0.71875 0.15625q0.4375 0.046875 1.15625 0.0625l0 0.84375l-8.015625 0l0 -0.84375q1.03125 -0.046875 1.46875 -0.125q0.453125 -0.078125 0.671875 -0.234375q0.234375 -0.15625 0.34375 -0.4375q0.109375 -0.296875 0.109375 -0.953125l0 -6.703125q0 -0.375 -0.140625 -0.546875q-0.140625 -0.171875 -0.390625 -0.171875q-0.234375 0 -0.65625 0.21875q-0.421875 0.21875 -1.390625 0.875l-0.5625 -0.984375l4.84375 -2.90625l1.1875 0q-0.0625 0.890625 -0.0625 2.46875l0 7.75z" fill-rule="nonzero"></path><path fill="#cfe2f3" d="m331.52628 250.6483l0 0c0 -20.517166 16.632446 -37.149612 37.149597 -37.149612l0 0c9.852692 0 19.30185 3.913971 26.268738 10.880875c6.966919 6.9668884 10.880859 16.416046 10.880859 26.268738l0 0c0 20.517166 -16.632446 37.149612 -37.149597 37.149612l0 0c-20.51715 0 -37.149597 -16.632446 -37.149597 -37.149612z" fill-rule="evenodd"></path><path stroke="#0000ff" stroke-width="1.0" stroke-linejoin="round" stroke-linecap="butt" d="m331.52628 250.6483l0 0c0 -20.517166 16.632446 -37.149612 37.149597 -37.149612l0 0c9.852692 0 19.30185 3.913971 26.268738 10.880875c6.966919 6.9668884 10.880859 16.416046 10.880859 26.268738l0 0c0 20.517166 -16.632446 37.149612 -37.149597 37.149612l0 0c-20.51715 0 -37.149597 -16.632446 -37.149597 -37.149612z" fill-rule="evenodd"></path><path fill="#000000" d="m370.15097 255.30267q0.59375 0 0.890625 -0.09375q0.296875 -0.09375 0.46875 -0.3125q0.171875 -0.21875 0.28125 -0.65625l1.078125 0l-0.21875 3.328125l-8.5 0l0 -0.609375q0.390625 -0.890625 1.125 -1.9375q0.734375 -1.046875 1.796875 -2.296875q1.0 -1.171875 1.515625 -1.9375q0.53125 -0.765625 0.796875 -1.4375q0.265625 -0.671875 0.265625 -1.40625q0 -1.015625 -0.46875 -1.59375q-0.453125 -0.578125 -1.234375 -0.578125q-0.75 0 -1.234375 0.53125q-0.484375 0.515625 -0.703125 1.640625l-1.671875 0l0 -2.1875q1.125 -0.453125 1.765625 -0.625q0.640625 -0.1875 1.265625 -0.28125q0.640625 -0.09375 1.359375 -0.09375q1.375 0 2.234375 0.375q0.859375 0.359375 1.234375 0.984375q0.390625 0.625 0.390625 1.46875q0 0.71875 -0.28125 1.359375q-0.265625 0.625 -0.9375 1.4375q-0.671875 0.796875 -2.265625 2.3125q-0.71875 0.6875 -1.34375 1.40625q-0.609375 0.703125 -0.90625 1.109375l0 0.09375l3.296875 0z" fill-rule="nonzero"></path><path fill="#cfe2f3" d="m331.52628 650.147l0 0c0 -20.51715 16.632446 -37.149597 37.149597 -37.149597l0 0c9.852692 0 19.30185 3.9139404 26.268738 10.880859c6.966919 6.966919 10.880859 16.416077 10.880859 26.268738l0 0c0 20.51715 -16.632446 37.149597 -37.149597 37.149597l0 0c-20.51715 0 -37.149597 -16.632446 -37.149597 -37.149597z" fill-rule="evenodd"></path><path stroke="#0000ff" stroke-width="1.0" stroke-linejoin="round" stroke-linecap="butt" d="m331.52628 650.147l0 0c0 -20.51715 16.632446 -37.149597 37.149597 -37.149597l0 0c9.852692 0 19.30185 3.9139404 26.268738 10.880859c6.966919 6.966919 10.880859 16.416077 10.880859 26.268738l0 0c0 20.51715 -16.632446 37.149597 -37.149597 37.149597l0 0c-20.51715 0 -37.149597 -16.632446 -37.149597 -37.149597z" fill-rule="evenodd"></path><path fill="#000000" d="m361.704 645.0201l-5.140625 12.078125l-1.90625 0l0 -0.640625l4.65625 -9.4375l0 -0.140625l-4.125 0q-0.40625 0 -0.671875 0.0625q-0.25 0.0625 -0.40625 0.21875q-0.15625 0.140625 -0.25 0.375q-0.09375 0.21875 -0.203125 0.71875l-1.078125 0l0.234375 -3.84375l8.890625 0l0 0.609375zm8.924835 5.359375l0.015625 0.125q1.078125 0.40625 1.625 1.203125q0.5625 0.78125 0.5625 1.875q0 1.09375 -0.59375 1.921875q-0.578125 0.8125 -1.6875 1.265625q-1.09375 0.453125 -2.5625 0.453125q-1.40625 0 -2.453125 -0.40625q-1.03125 -0.421875 -1.609375 -1.203125q-0.578125 -0.796875 -0.578125 -1.875q0 -0.796875 0.28125 -1.390625q0.296875 -0.59375 0.78125 -0.984375q0.484375 -0.40625 1.15625 -0.71875l-0.015625 -0.125q-2.046875 -0.890625 -2.046875 -2.953125q0 -0.953125 0.578125 -1.703125q0.59375 -0.75 1.671875 -1.171875q1.09375 -0.4375 2.421875 -0.4375q2.265625 0 3.40625 0.828125q1.15625 0.828125 1.15625 2.328125q0 1.015625 -0.53125 1.765625q-0.515625 0.75 -1.578125 1.203125zm-4.34375 -2.890625q0 1.21875 0.46875 1.875q0.484375 0.640625 1.40625 0.640625q0.890625 0 1.34375 -0.609375q0.453125 -0.609375 0.453125 -1.734375q0 -1.15625 -0.46875 -1.75q-0.46875 -0.609375 -1.359375 -0.609375q-0.90625 0 -1.375 0.5625q-0.46875 0.546875 -0.46875 1.625zm-0.109375 6.03125q0 1.3125 0.484375 1.984375q0.484375 0.671875 1.453125 0.671875q0.59375 0 1.015625 -0.28125q0.421875 -0.28125 0.640625 -0.84375q0.234375 -0.578125 0.234375 -1.375q0 -0.828125 -0.234375 -1.421875q-0.21875 -0.59375 -0.65625 -0.921875q-0.4375 -0.328125 -1.03125 -0.328125q-0.6875 0 -1.125 0.328125q-0.421875 0.328125 -0.609375 0.890625q-0.171875 0.5625 -0.171875 1.296875zm8.69043 -6.0625l0 -2.203125q2.34375 -1.0 4.25 -1.0q1.140625 0 2.015625 0.3125q0.875 0.3125 1.359375 0.921875q0.484375 0.609375 0.484375 1.46875q0 0.796875 -0.328125 1.390625q-0.3125 0.59375 -0.890625 1.046875q-0.5625 0.4375 -1.46875 0.875l0 0.078125q0.8125 0.140625 1.46875 0.546875q0.671875 0.390625 1.0625 1.0625q0.390625 0.671875 0.390625 1.546875q0 1.078125 -0.53125 1.921875q-0.515625 0.828125 -1.59375 1.3125q-1.0625 0.484375 -2.578125 0.484375q-1.046875 0 -2.0625 -0.1875q-1.0 -0.203125 -1.765625 -0.546875l0 -2.328125l1.671875 0q0.28125 1.0625 0.765625 1.546875q0.484375 0.46875 1.296875 0.46875q1.953125 0 1.953125 -2.4375q0 -1.296875 -0.6875 -1.9375q-0.6875 -0.640625 -2.09375 -0.640625l-0.734375 0l0 -1.0625q1.609375 -0.0625 2.4375 -0.75q0.84375 -0.703125 0.84375 -2.0q0 -1.03125 -0.421875 -1.546875q-0.40625 -0.53125 -1.21875 -0.53125q-0.453125 0 -0.84375 0.203125q-0.375 0.1875 -0.6875 0.6875q-0.296875 0.5 -0.421875 1.296875l-1.671875 0z" fill-rule="nonzero"></path><path fill="#f3f3f3" d="m626.07446 89.10236l57.13385 0l0 542.7087l-57.13385 0z" fill-rule="evenodd"></path><path stroke="#000000" stroke-width="1.0" stroke-linejoin="round" stroke-linecap="butt" d="m626.07446 89.10236l57.13385 0l0 542.7087l-57.13385 0z" fill-rule="evenodd"></path><path fill="#d9ead3" d="m632.4209 123.11286l0 0c0 -12.272026 9.948486 -22.220474 22.22052 -22.220474l0 0c5.8931885 0 11.545044 2.3410797 15.712219 6.5082245c4.1671753 4.1671524 6.5082397 9.8190155 6.5082397 15.71225l0 0c0 12.272026 -9.948486 22.220467 -22.220459 22.220467l0 0c-12.272034 0 -22.22052 -9.948441 -22.22052 -22.220467z" fill-rule="evenodd"></path><path stroke="#6aa84f" stroke-width="1.0" stroke-linejoin="round" stroke-linecap="butt" d="m632.4209 123.11286l0 0c0 -12.272026 9.948486 -22.220474 22.22052 -22.220474l0 0c5.8931885 0 11.545044 2.3410797 15.712219 6.5082245c4.1671753 4.1671524 6.5082397 9.8190155 6.5082397 15.71225l0 0c0 12.272026 -9.948486 22.220467 -22.220459 22.220467l0 0c-12.272034 0 -22.22052 -9.948441 -22.22052 -22.220467z" fill-rule="evenodd"></path><path fill="#000000" d="m653.44476 130.1891q-1.453125 0 -2.4375 -0.640625q-0.96875 -0.640625 -1.5 -2.0624924q-0.53125 -1.421875 -0.53125 -3.671875q0 -2.125 0.53125 -3.59375q0.546875 -1.46875 1.59375 -2.234375q1.046875 -0.765625 2.5 -0.765625q2.28125 0 3.40625 1.5625q1.125 1.546875 1.125 4.75q0 3.28125 -1.1875 4.9687424q-1.1875 1.6875 -3.5 1.6875zm-1.640625 -6.6406174q0 2.046875 0.171875 3.25q0.1875 1.2031174 0.578125 1.7812424q0.390625 0.5625 1.03125 0.5625q0.359375 0 0.625 -0.171875q0.265625 -0.171875 0.46875 -0.53125q0.203125 -0.375 0.34375 -0.9843674q0.15625 -0.609375 0.21875 -1.5q0.078125 -0.90625 0.078125 -2.03125q0 -1.65625 -0.125 -2.78125q-0.125 -1.140625 -0.359375 -1.75q-0.234375 -0.609375 -0.546875 -0.859375q-0.3125 -0.265625 -0.734375 -0.265625q-0.5 0 -0.84375 0.328125q-0.328125 0.3125 -0.53125 0.96875q-0.203125 0.65625 -0.296875 1.65625q-0.078125 0.984375 -0.078125 2.328125z" fill-rule="nonzero"></path><path fill="#d9ead3" d="m632.4209 176.29134l0 0c0 -12.272018 9.948486 -22.220474 22.22052 -22.220474l0 0c5.8931885 0 11.545044 2.3410797 15.712219 6.5082245c4.1671753 4.16716 6.5082397 9.8190155 6.5082397 15.71225l0 0c0 12.272034 -9.948486 22.220474 -22.220459 22.220474l0 0c-12.272034 0 -22.22052 -9.948441 -22.22052 -22.220474z" fill-rule="evenodd"></path><path stroke="#6aa84f" stroke-width="1.0" stroke-linejoin="round" stroke-linecap="butt" d="m632.4209 176.29134l0 0c0 -12.272018 9.948486 -22.220474 22.22052 -22.220474l0 0c5.8931885 0 11.545044 2.3410797 15.712219 6.5082245c4.1671753 4.16716 6.5082397 9.8190155 6.5082397 15.71225l0 0c0 12.272034 -9.948486 22.220474 -22.220459 22.220474l0 0c-12.272034 0 -22.22052 -9.948441 -22.22052 -22.220474z" fill-rule="evenodd"></path><path fill="#000000" d="m655.36664 180.61758q0 0.546875 0.0625 0.828125q0.0625 0.265625 0.21875 0.4375q0.15625 0.171875 0.4375 0.265625q0.28125 0.09375 0.71875 0.15625q0.4375 0.046875 1.15625 0.0625l0 0.84375l-8.015625 0l0 -0.84375q1.03125 -0.046875 1.46875 -0.125q0.453125 -0.078125 0.671875 -0.234375q0.234375 -0.15625 0.34375 -0.4375q0.109375 -0.296875 0.109375 -0.953125l0 -6.703125q0 -0.375 -0.140625 -0.546875q-0.140625 -0.171875 -0.390625 -0.171875q-0.234375 0 -0.65625 0.21875q-0.421875 0.21875 -1.390625 0.875l-0.5625 -0.984375l4.84375 -2.90625l1.1875 0q-0.0625 0.890625 -0.0625 2.46875l0 7.75z" fill-rule="nonzero"></path><path fill="#d9ead3" d="m632.4209 229.46982l0 0c0 -12.272034 9.948486 -22.220474 22.22052 -22.220474l0 0c5.8931885 0 11.545044 2.3410797 15.712219 6.5082245c4.1671753 4.167145 6.5082397 9.8190155 6.5082397 15.71225l0 0c0 12.272034 -9.948486 22.220474 -22.220459 22.220474l0 0c-12.272034 0 -22.22052 -9.948441 -22.22052 -22.220474z" fill-rule="evenodd"></path><path stroke="#6aa84f" stroke-width="1.0" stroke-linejoin="round" stroke-linecap="butt" d="m632.4209 229.46982l0 0c0 -12.272034 9.948486 -22.220474 22.22052 -22.220474l0 0c5.8931885 0 11.545044 2.3410797 15.712219 6.5082245c4.1671753 4.167145 6.5082397 9.8190155 6.5082397 15.71225l0 0c0 12.272034 -9.948486 22.220474 -22.220459 22.220474l0 0c-12.272034 0 -22.22052 -9.948441 -22.22052 -22.220474z" fill-rule="evenodd"></path><path fill="#000000" d="m654.92914 234.12419q0.59375 0 0.890625 -0.09375q0.296875 -0.09375 0.46875 -0.3125q0.171875 -0.21875 0.28125 -0.65625l1.078125 0l-0.21875 3.328125l-8.5 0l0 -0.609375q0.390625 -0.890625 1.125 -1.9375q0.734375 -1.046875 1.796875 -2.296875q1.0 -1.171875 1.515625 -1.9375q0.53125 -0.765625 0.796875 -1.4375q0.265625 -0.671875 0.265625 -1.40625q0 -1.015625 -0.46875 -1.59375q-0.453125 -0.578125 -1.234375 -0.578125q-0.75 0 -1.234375 0.53125q-0.484375 0.515625 -0.703125 1.640625l-1.671875 0l0 -2.1875q1.125 -0.453125 1.765625 -0.625q0.640625 -0.1875 1.265625 -0.28125q0.640625 -0.09375 1.359375 -0.09375q1.375 0 2.234375 0.375q0.859375 0.359375 1.234375 0.984375q0.390625 0.625 0.390625 1.46875q0 0.71875 -0.28125 1.359375q-0.265625 0.625 -0.9375 1.4375q-0.671875 0.796875 -2.265625 2.3125q-0.71875 0.6875 -1.34375 1.40625q-0.609375 0.703125 -0.90625 1.109375l0 0.09375l3.296875 0z" fill-rule="nonzero"></path><path fill="#d9ead3" d="m632.4209 282.6483l0 0c0 -12.272034 9.948486 -22.220459 22.22052 -22.220459l0 0c5.8931885 0 11.545044 2.3410645 15.712219 6.508209c4.1671753 4.167145 6.5082397 9.819031 6.5082397 15.71225l0 0c0 12.272034 -9.948486 22.22049 -22.220459 22.22049l0 0c-12.272034 0 -22.22052 -9.948456 -22.22052 -22.22049z" fill-rule="evenodd"></path><path stroke="#6aa84f" stroke-width="1.0" stroke-linejoin="round" stroke-linecap="butt" d="m632.4209 282.6483l0 0c0 -12.272034 9.948486 -22.220459 22.22052 -22.220459l0 0c5.8931885 0 11.545044 2.3410645 15.712219 6.508209c4.1671753 4.167145 6.5082397 9.819031 6.5082397 15.71225l0 0c0 12.272034 -9.948486 22.22049 -22.220459 22.22049l0 0c-12.272034 0 -22.22052 -9.948456 -22.22052 -22.22049z" fill-rule="evenodd"></path><path fill="#000000" d="m649.2885 279.95892l0 -2.203125q2.34375 -1.0 4.25 -1.0q1.140625 0 2.015625 0.3125q0.875 0.3125 1.359375 0.921875q0.484375 0.609375 0.484375 1.46875q0 0.796875 -0.328125 1.390625q-0.3125 0.59375 -0.890625 1.046875q-0.5625 0.4375 -1.46875 0.875l0 0.078125q0.8125 0.140625 1.46875 0.546875q0.671875 0.390625 1.0625 1.0625q0.390625 0.671875 0.390625 1.546875q0 1.078125 -0.53125 1.921875q-0.515625 0.828125 -1.59375 1.3125q-1.0625 0.484375 -2.578125 0.484375q-1.046875 0 -2.0625 -0.1875q-1.0 -0.203125 -1.765625 -0.546875l0 -2.328125l1.671875 0q0.28125 1.0625 0.765625 1.546875q0.484375 0.46875 1.296875 0.46875q1.953125 0 1.953125 -2.4375q0 -1.296875 -0.6875 -1.9375q-0.6875 -0.640625 -2.09375 -0.640625l-0.734375 0l0 -1.0625q1.609375 -0.0625 2.4375 -0.75q0.84375 -0.703125 0.84375 -2.0q0 -1.03125 -0.421875 -1.546875q-0.40625 -0.53125 -1.21875 -0.53125q-0.453125 0 -0.84375 0.203125q-0.375 0.1875 -0.6875 0.6875q-0.296875 0.5 -0.421875 1.296875l-1.671875 0z" fill-rule="nonzero"></path><path fill="#d9ead3" d="m632.4209 335.82678l0 0c0 -12.272034 9.948486 -22.22049 22.22052 -22.22049l0 0c5.8931885 0 11.545044 2.341095 15.712219 6.5082397c4.1671753 4.167145 6.5082397 9.819 6.5082397 15.71225l0 0c0 12.272003 -9.948486 22.220459 -22.220459 22.220459l0 0c-12.272034 0 -22.22052 -9.948456 -22.22052 -22.220459z" fill-rule="evenodd"></path><path stroke="#6aa84f" stroke-width="1.0" stroke-linejoin="round" stroke-linecap="butt" d="m632.4209 335.82678l0 0c0 -12.272034 9.948486 -22.22049 22.22052 -22.22049l0 0c5.8931885 0 11.545044 2.341095 15.712219 6.5082397c4.1671753 4.167145 6.5082397 9.819 6.5082397 15.71225l0 0c0 12.272003 -9.948486 22.220459 -22.220459 22.220459l0 0c-12.272034 0 -22.22052 -9.948456 -22.22052 -22.220459z" fill-rule="evenodd"></path><path fill="#000000" d="m652.3979 342.1374q0.328125 -0.09375 0.53125 -0.203125q0.203125 -0.109375 0.296875 -0.28125q0.109375 -0.1875 0.125 -0.46875q0.03125 -0.296875 0.03125 -0.734375l0 -1.375l-4.96875 0l0 -1.0l5.625 -8.0625l2.09375 0l0 7.890625l0.28125 0q0.453125 0 0.640625 -0.0625q0.1875 -0.0625 0.3125 -0.21875q0.140625 -0.171875 0.265625 -0.59375l0.96875 0l-0.109375 2.046875l-2.359375 0l0 1.375q0 0.5 0.046875 0.796875q0.046875 0.28125 0.15625 0.453125q0.109375 0.171875 0.296875 0.265625q0.203125 0.078125 0.5 0.171875l0 0.609375l-4.734375 0l0 -0.609375zm-2.1875 -4.234375l3.171875 0l0 -2.125q0 -1.328125 0.09375 -2.8125l-0.09375 0l-3.171875 4.78125l0 0.15625z" fill-rule="nonzero"></path><path fill="#d9ead3" d="m632.4209 389.00525l0 0c0 -12.272034 9.948486 -22.220459 22.22052 -22.220459l0 0c5.8931885 0 11.545044 2.3410645 15.712219 6.508209c4.1671753 4.167145 6.5082397 9.819 6.5082397 15.71225l0 0c0 12.272034 -9.948486 22.220459 -22.220459 22.220459l0 0c-12.272034 0 -22.22052 -9.948425 -22.22052 -22.220459z" fill-rule="evenodd"></path><path stroke="#6aa84f" stroke-width="1.0" stroke-linejoin="round" stroke-linecap="butt" d="m632.4209 389.00525l0 0c0 -12.272034 9.948486 -22.220459 22.22052 -22.220459l0 0c5.8931885 0 11.545044 2.3410645 15.712219 6.508209c4.1671753 4.167145 6.5082397 9.819 6.5082397 15.71225l0 0c0 12.272034 -9.948486 22.220459 -22.220459 22.220459l0 0c-12.272034 0 -22.22052 -9.948425 -22.22052 -22.220459z" fill-rule="evenodd"></path><path fill="#000000" d="m649.38226 395.3471l0 -2.3125l1.6875 0q0.234375 1.0 0.734375 1.5q0.515625 0.5 1.328125 0.5q1.0 0 1.484375 -0.625q0.484375 -0.625 0.484375 -1.9375q0 -1.28125 -0.625 -1.953125q-0.625 -0.6875 -1.796875 -0.6875q-0.453125 0 -0.984375 0.09375q-0.515625 0.078125 -0.921875 0.1875l-0.84375 -0.515625l0 -6.328125l5.484375 0q0.34375 0 0.5 -0.046875q0.15625 -0.046875 0.25 -0.15625q0.109375 -0.125 0.234375 -0.421875l1.015625 0l-0.171875 2.96875l-5.703125 0l0 3.328125q0.5625 -0.15625 1.140625 -0.234375q0.578125 -0.078125 1.421875 -0.078125q1.140625 0 2.015625 0.421875q0.875 0.421875 1.34375 1.234375q0.484375 0.8125 0.484375 1.90625q0 1.28125 -0.578125 2.15625q-0.578125 0.859375 -1.671875 1.296875q-1.078125 0.4375 -2.59375 0.4375q-0.96875 0 -1.984375 -0.1875q-1.0 -0.203125 -1.734375 -0.546875z" fill-rule="nonzero"></path><path fill="#d9ead3" d="m632.4209 442.18372l0 0c0 -12.272003 9.948486 -22.220459 22.22052 -22.220459l0 0c5.8931885 0 11.545044 2.3410645 15.712219 6.508209c4.1671753 4.1671753 6.5082397 9.819031 6.5082397 15.71225l0 0c0 12.272034 -9.948486 22.22049 -22.220459 22.22049l0 0c-12.272034 0 -22.22052 -9.948456 -22.22052 -22.22049z" fill-rule="evenodd"></path><path stroke="#6aa84f" stroke-width="1.0" stroke-linejoin="round" stroke-linecap="butt" d="m632.4209 442.18372l0 0c0 -12.272003 9.948486 -22.220459 22.22052 -22.220459l0 0c5.8931885 0 11.545044 2.3410645 15.712219 6.508209c4.1671753 4.1671753 6.5082397 9.819031 6.5082397 15.71225l0 0c0 12.272034 -9.948486 22.22049 -22.220459 22.22049l0 0c-12.272034 0 -22.22052 -9.948456 -22.22052 -22.22049z" fill-rule="evenodd"></path><path fill="#000000" d="m656.75726 436.93185l0 0.578125q-2.03125 0.046875 -3.296875 1.265625q-1.25 1.203125 -1.671875 3.453125l0.09375 0.03125q0.71875 -0.5 1.453125 -0.71875q0.734375 -0.234375 1.609375 -0.234375q1.0625 0 1.828125 0.46875q0.765625 0.46875 1.15625 1.328125q0.390625 0.84375 0.390625 1.96875q0 1.234375 -0.515625 2.1875q-0.515625 0.9375 -1.609375 1.46875q-1.078125 0.53125 -2.640625 0.53125q-1.4375 0 -2.484375 -0.578125q-1.03125 -0.578125 -1.578125 -1.703125q-0.546875 -1.125 -0.546875 -2.734375q0 -2.15625 0.90625 -3.90625q0.921875 -1.765625 2.59375 -2.828125q1.6875 -1.0625 3.8125 -1.21875l0.5 0.640625zm-2.90625 5.65625q-0.453125 0 -0.859375 0.140625q-0.390625 0.125 -0.703125 0.359375q-0.3125 0.21875 -0.421875 0.359375q-0.09375 0.140625 -0.140625 0.421875q-0.046875 0.265625 -0.046875 0.9375q0 1.703125 0.46875 2.5625q0.46875 0.84375 1.453125 0.84375q0.546875 0 0.921875 -0.203125q0.390625 -0.21875 0.609375 -0.609375q0.234375 -0.390625 0.328125 -0.921875q0.109375 -0.546875 0.109375 -1.203125q0 -1.328125 -0.4375 -2.0q-0.4375 -0.6875 -1.28125 -0.6875z" fill-rule="nonzero"></path><path fill="#d9ead3" d="m632.4209 495.3622l0 0c0 -12.272034 9.948486 -22.22049 22.22052 -22.22049l0 0c5.8931885 0 11.545044 2.341095 15.712219 6.5082397c4.1671753 4.167145 6.5082397 9.819 6.5082397 15.71225l0 0c0 12.272034 -9.948486 22.22049 -22.220459 22.22049l0 0c-12.272034 0 -22.22052 -9.948456 -22.22052 -22.22049z" fill-rule="evenodd"></path><path stroke="#6aa84f" stroke-width="1.0" stroke-linejoin="round" stroke-linecap="butt" d="m632.4209 495.3622l0 0c0 -12.272034 9.948486 -22.22049 22.22052 -22.22049l0 0c5.8931885 0 11.545044 2.341095 15.712219 6.5082397c4.1671753 4.167145 6.5082397 9.819 6.5082397 15.71225l0 0c0 12.272034 -9.948486 22.22049 -22.220459 22.22049l0 0c-12.272034 0 -22.22052 -9.948456 -22.22052 -22.22049z" fill-rule="evenodd"></path><path fill="#000000" d="m658.226 490.23532l-5.140625 12.078125l-1.90625 0l0 -0.640625l4.65625 -9.4375l0 -0.140625l-4.125 0q-0.40625 0 -0.671875 0.0625q-0.25 0.0625 -0.40625 0.21875q-0.15625 0.140625 -0.25 0.375q-0.09375 0.21875 -0.203125 0.71875l-1.078125 0l0.234375 -3.84375l8.890625 0l0 0.609375z" fill-rule="nonzero"></path><path fill="#d9ead3" d="m632.4209 548.5407l0 0c0 -12.272034 9.948486 -22.22052 22.22052 -22.22052l0 0c5.8931885 0 11.545044 2.3411255 15.712219 6.5082397c4.1671753 4.1671753 6.5082397 9.819031 6.5082397 15.71228l0 0c0 12.271973 -9.948486 22.220459 -22.220459 22.220459l0 0c-12.272034 0 -22.22052 -9.948486 -22.22052 -22.220459z" fill-rule="evenodd"></path><path stroke="#6aa84f" stroke-width="1.0" stroke-linejoin="round" stroke-linecap="butt" d="m632.4209 548.5407l0 0c0 -12.272034 9.948486 -22.22052 22.22052 -22.22052l0 0c5.8931885 0 11.545044 2.3411255 15.712219 6.5082397c4.1671753 4.1671753 6.5082397 9.819031 6.5082397 15.71228l0 0c0 12.271973 -9.948486 22.220459 -22.220459 22.220459l0 0c-12.272034 0 -22.22052 -9.948486 -22.22052 -22.220459z" fill-rule="evenodd"></path><path fill="#000000" d="m656.101 548.7732l0.015625 0.125q1.078125 0.40625 1.625 1.203125q0.5625 0.78125 0.5625 1.875q0 1.09375 -0.59375 1.921875q-0.578125 0.8125 -1.6875 1.265625q-1.09375 0.453125 -2.5625 0.453125q-1.40625 0 -2.453125 -0.40625q-1.03125 -0.421875 -1.609375 -1.203125q-0.578125 -0.796875 -0.578125 -1.875q0 -0.796875 0.28125 -1.390625q0.296875 -0.59375 0.78125 -0.984375q0.484375 -0.40625 1.15625 -0.71875l-0.015625 -0.125q-2.046875 -0.890625 -2.046875 -2.953125q0 -0.953125 0.578125 -1.703125q0.59375 -0.75 1.671875 -1.171875q1.09375 -0.4375 2.421875 -0.4375q2.265625 0 3.40625 0.828125q1.15625 0.828125 1.15625 2.328125q0 1.015625 -0.53125 1.765625q-0.515625 0.75 -1.578125 1.203125zm-4.34375 -2.890625q0 1.21875 0.46875 1.875q0.484375 0.640625 1.40625 0.640625q0.890625 0 1.34375 -0.609375q0.453125 -0.609375 0.453125 -1.734375q0 -1.15625 -0.46875 -1.75q-0.46875 -0.609375 -1.359375 -0.609375q-0.90625 0 -1.375 0.5625q-0.46875 0.546875 -0.46875 1.625zm-0.109375 6.03125q0 1.3125 0.484375 1.984375q0.484375 0.671875 1.453125 0.671875q0.59375 0 1.015625 -0.28125q0.421875 -0.28125 0.640625 -0.84375q0.234375 -0.578125 0.234375 -1.375q0 -0.828125 -0.234375 -1.421875q-0.21875 -0.59375 -0.65625 -0.921875q-0.4375 -0.328125 -1.03125 -0.328125q-0.6875 0 -1.125 0.328125q-0.421875 0.328125 -0.609375 0.890625q-0.171875 0.5625 -0.171875 1.296875z" fill-rule="nonzero"></path><path fill="#d9ead3" d="m632.4209 601.7192l0 0c0 -12.272034 9.948486 -22.22052 22.22052 -22.22052l0 0c5.8931885 0 11.545044 2.3411255 15.712219 6.5082397c4.1671753 4.1671753 6.5082397 9.819031 6.5082397 15.71228l0 0c0 12.272034 -9.948486 22.220459 -22.220459 22.220459l0 0c-12.272034 0 -22.22052 -9.948425 -22.22052 -22.220459z" fill-rule="evenodd"></path><path stroke="#6aa84f" stroke-width="1.0" stroke-linejoin="round" stroke-linecap="butt" d="m632.4209 601.7192l0 0c0 -12.272034 9.948486 -22.22052 22.22052 -22.22052l0 0c5.8931885 0 11.545044 2.3411255 15.712219 6.5082397c4.1671753 4.1671753 6.5082397 9.819031 6.5082397 15.71228l0 0c0 12.272034 -9.948486 22.220459 -22.220459 22.220459l0 0c-12.272034 0 -22.22052 -9.948425 -22.22052 -22.220459z" fill-rule="evenodd"></path><path fill="#000000" d="m650.9604 608.2329l0 -0.65625q0.59375 -0.015625 1.046875 -0.109375q0.546875 -0.125 1.015625 -0.359375q0.484375 -0.25 0.84375 -0.609375q0.453125 -0.4375 0.75 -1.0q0.296875 -0.5625 0.453125 -1.21875q0.171875 -0.671875 0.265625 -1.40625l-0.09375 -0.03125q-0.71875 0.484375 -1.40625 0.71875q-0.6875 0.21875 -1.65625 0.21875q-1.09375 0 -1.859375 -0.46875q-0.765625 -0.46875 -1.15625 -1.3125q-0.375 -0.84375 -0.375 -1.953125q0 -1.234375 0.578125 -2.203125q0.578125 -0.96875 1.65625 -1.484375q1.09375 -0.53125 2.578125 -0.53125q1.5 0 2.515625 0.625q1.03125 0.609375 1.53125 1.796875q0.515625 1.171875 0.515625 2.84375q0 2.328125 -0.796875 4.0q-0.78125 1.65625 -2.296875 2.59375q-1.5 0.9375 -3.640625 1.109375l-0.46875 -0.5625zm2.296875 -5.71875q0.34375 0 0.640625 -0.0625q0.296875 -0.078125 0.5625 -0.203125q0.265625 -0.140625 0.484375 -0.328125q0.234375 -0.1875 0.296875 -0.3125q0.078125 -0.125 0.125 -0.34375q0.0625 -0.234375 0.0625 -0.640625q0 -1.8125 -0.5 -2.78125q-0.484375 -0.96875 -1.421875 -0.96875q-0.546875 0 -0.921875 0.21875q-0.375 0.203125 -0.609375 0.59375q-0.234375 0.390625 -0.34375 0.9375q-0.09375 0.53125 -0.09375 1.1875q0 2.703125 1.71875 2.703125z" fill-rule="nonzero"></path><path fill="#000000" fill-opacity="0.0" d="m405.82547 70.703415l226.58267 52.409447" fill-rule="evenodd"></path><path stroke="#000000" stroke-width="1.0" stroke-linejoin="round" stroke-linecap="butt" d="m405.8255 70.703415l220.737 51.05732" fill-rule="evenodd"></path><path fill="#000000" stroke="#000000" stroke-width="1.0" stroke-linecap="butt" d="m626.1903 123.36998l4.793579 -0.5865631l-4.0491333 -2.6319275z" fill-rule="evenodd"></path><path fill="#000000" fill-opacity="0.0" d="m405.82547 70.703415l226.58267 105.5748" fill-rule="evenodd"></path><path stroke="#000000" stroke-width="1.0" stroke-linejoin="round" stroke-linecap="butt" d="m405.8255 70.703415l221.14404 103.040726" fill-rule="evenodd"></path><path fill="#000000" stroke="#000000" stroke-width="1.0" stroke-linecap="butt" d="m626.272 175.24132l4.811096 0.4194641l-3.4158936 -3.4138336z" fill-rule="evenodd"></path><path fill="#000000" fill-opacity="0.0" d="m405.82547 70.703415l226.58267 158.77165" fill-rule="evenodd"></path><path stroke="#000000" stroke-width="1.0" stroke-linejoin="round" stroke-linecap="butt" d="m405.8255 70.703415l221.66895 155.32849" fill-rule="evenodd"></path><path fill="#000000" stroke="#000000" stroke-width="1.0" stroke-linecap="butt" d="m626.5466 227.3846l4.6643677 1.2515411l-2.7686157 -3.9569244z" fill-rule="evenodd"></path><path fill="#000000" fill-opacity="0.0" d="m405.82547 70.703415l226.58267 211.937" fill-rule="evenodd"></path><path stroke="#000000" stroke-width="1.0" stroke-linejoin="round" stroke-linecap="butt" d="m405.8255 70.703415l222.2008 207.83836" fill-rule="evenodd"></path><path fill="#000000" stroke="#000000" stroke-width="1.0" stroke-linecap="butt" d="m626.89795 279.74805l4.442566 1.8937378l-2.185913 -4.306305z" fill-rule="evenodd"></path><path fill="#000000" fill-opacity="0.0" d="m405.82547 70.703415l226.58267 265.13385" fill-rule="evenodd"></path><path stroke="#000000" stroke-width="1.0" stroke-linejoin="round" stroke-linecap="butt" d="m405.8255 70.703415l222.68463 260.57257" fill-rule="evenodd"></path><path fill="#000000" stroke="#000000" stroke-width="1.0" stroke-linecap="butt" d="m627.25446 332.3491l4.2039795 2.376831l-1.692627 -4.5230103z" fill-rule="evenodd"></path><path fill="#000000" fill-opacity="0.0" d="m405.82547 70.703415l226.58267 318.2992" fill-rule="evenodd"></path><path stroke="#000000" stroke-width="1.0" stroke-linejoin="round" stroke-linecap="butt" d="m405.8255 70.703415l223.10315 313.4112" fill-rule="evenodd"></path><path fill="#000000" stroke="#000000" stroke-width="1.0" stroke-linecap="butt" d="m627.583 385.07248l3.977356 2.7391663l-1.2861328 -4.654907z" fill-rule="evenodd"></path><path fill="#000000" fill-opacity="0.0" d="m405.82547 70.703415l226.58267 371.49603" fill-rule="evenodd"></path><path stroke="#000000" stroke-width="1.0" stroke-linejoin="round" stroke-linecap="butt" d="m405.8255 70.703415l223.45844 366.37366" fill-rule="evenodd"></path><path fill="#000000" stroke="#000000" stroke-width="1.0" stroke-linecap="butt" d="m627.8738 437.93713l3.7731934 3.0142517l-0.95288086 -4.734375z" fill-rule="evenodd"></path><path fill="#000000" fill-opacity="0.0" d="m405.82547 70.703415l226.58267 424.66144" fill-rule="evenodd"></path><path stroke="#000000" stroke-width="1.0" stroke-linejoin="round" stroke-linecap="butt" d="m405.8255 70.703415l223.75818 419.3678" fill-rule="evenodd"></path><path fill="#000000" stroke="#000000" stroke-width="1.0" stroke-linecap="butt" d="m628.12646 490.84875l3.5935059 3.2262878l-0.6790161 -4.781372z" fill-rule="evenodd"></path><path fill="#000000" fill-opacity="0.0" d="m405.82547 70.703415l226.58267 477.82678" fill-rule="evenodd"></path><path stroke="#000000" stroke-width="1.0" stroke-linejoin="round" stroke-linecap="butt" d="m405.8255 70.703415l224.0119 472.4054" fill-rule="evenodd"></path><path fill="#000000" stroke="#000000" stroke-width="1.0" stroke-linecap="butt" d="m628.345 543.8165l3.4368286 3.3927612l-0.45196533 -4.8081665z" fill-rule="evenodd"></path><path fill="#000000" fill-opacity="0.0" d="m405.82547 70.703415l226.58267 531.0236" fill-rule="evenodd"></path><path stroke="#000000" stroke-width="1.0" stroke-linejoin="round" stroke-linecap="butt" d="m405.8255 70.703415l224.22797 525.505" fill-rule="evenodd"></path><path fill="#000000" stroke="#000000" stroke-width="1.0" stroke-linecap="butt" d="m628.53424 596.8566l3.300232 3.5258179l-0.26184082 -4.8222656z" fill-rule="evenodd"></path><path fill="#000000" fill-opacity="0.0" d="m405.82547 160.67586l226.58267 -37.574806" fill-rule="evenodd"></path><path stroke="#000000" stroke-width="1.0" stroke-linejoin="round" stroke-linecap="butt" d="m405.8255 160.67586l220.66351 -36.593224" fill-rule="evenodd"></path><path fill="#000000" stroke="#000000" stroke-width="1.0" stroke-linecap="butt" d="m626.7592 125.71212l4.206726 -2.3719025l-4.7471313 -0.88705444z" fill-rule="evenodd"></path><path fill="#000000" fill-opacity="0.0" d="m405.82547 160.67586l226.58267 15.62204" fill-rule="evenodd"></path><path stroke="#000000" stroke-width="1.0" stroke-linejoin="round" stroke-linecap="butt" d="m405.8255 160.67586l220.59692 15.209351" fill-rule="evenodd"></path><path fill="#000000" stroke="#000000" stroke-width="1.0" stroke-linecap="butt" d="m626.3088 177.53302l4.64093 -1.3356781l-4.4136963 -1.9599609z" fill-rule="evenodd"></path><path fill="#000000" fill-opacity="0.0" d="m405.82547 160.67586l226.58267 68.7874" fill-rule="evenodd"></path><path stroke="#000000" stroke-width="1.0" stroke-linejoin="round" stroke-linecap="butt" d="m405.8255 160.67586l220.84143 67.04443" fill-rule="evenodd"></path><path fill="#000000" stroke="#000000" stroke-width="1.0" stroke-linecap="butt" d="m626.1871 229.3008l4.8222656 -0.2622223l-3.8626099 -2.8987885z" fill-rule="evenodd"></path><path fill="#000000" fill-opacity="0.0" d="m405.82547 160.67586l226.58267 121.98424" fill-rule="evenodd"></path><path stroke="#000000" stroke-width="1.0" stroke-linejoin="round" stroke-linecap="butt" d="m405.8255 160.67586l221.29962 119.14006" fill-rule="evenodd"></path><path fill="#000000" stroke="#000000" stroke-width="1.0" stroke-linecap="butt" d="m626.34216 281.27026l4.7788086 0.6968384l-3.2128296 -3.6055603z" fill-rule="evenodd"></path><path fill="#000000" fill-opacity="0.0" d="m405.82547 160.67586l226.58267 175.14961" fill-rule="evenodd"></path><path stroke="#000000" stroke-width="1.0" stroke-linejoin="round" stroke-linecap="butt" d="m405.8255 160.67586l221.83557 171.48009" fill-rule="evenodd"></path><path fill="#000000" stroke="#000000" stroke-width="1.0" stroke-linecap="butt" d="m626.65094 333.46277l4.600586 1.4686279l-2.5802612 -4.0822754z" fill-rule="evenodd"></path><path fill="#000000" fill-opacity="0.0" d="m405.82547 160.67586l226.58267 281.51178" fill-rule="evenodd"></path><path stroke="#000000" stroke-width="1.0" stroke-linejoin="round" stroke-linecap="butt" d="m405.8255 160.67586l222.82062 276.8377" fill-rule="evenodd"></path><path fill="#000000" stroke="#000000" stroke-width="1.0" stroke-linecap="butt" d="m627.3594 438.54926l4.132202 2.4995728l-1.5587158 -4.5708923z" fill-rule="evenodd"></path><path fill="#000000" fill-opacity="0.0" d="m405.82547 160.67586l226.58267 334.6772" fill-rule="evenodd"></path><path stroke="#000000" stroke-width="1.0" stroke-linejoin="round" stroke-linecap="butt" d="m405.8255 160.67586l223.21893 329.70874" fill-rule="evenodd"></path><path fill="#000000" stroke="#000000" stroke-width="1.0" stroke-linecap="butt" d="m627.6767 491.31058l3.9119263 2.8318787l-1.1763916 -4.6838684z" fill-rule="evenodd"></path><path fill="#000000" fill-opacity="0.0" d="m405.82547 160.67586l226.58267 387.87402" fill-rule="evenodd"></path><path stroke="#000000" stroke-width="1.0" stroke-linejoin="round" stroke-linecap="butt" d="m405.8255 160.67586l223.55621 382.69324" fill-rule="evenodd"></path><path fill="#000000" stroke="#000000" stroke-width="1.0" stroke-linecap="butt" d="m627.9555 544.2022l3.715271 3.0853271l-0.862854 -4.751587z" fill-rule="evenodd"></path><path fill="#000000" fill-opacity="0.0" d="m405.82547 160.67586l226.58267 441.03937" fill-rule="evenodd"></path><path stroke="#000000" stroke-width="1.0" stroke-linejoin="round" stroke-linecap="butt" d="m405.8255 160.67586l223.84088 435.70245" fill-rule="evenodd"></path><path fill="#000000" stroke="#000000" stroke-width="1.0" stroke-linecap="butt" d="m628.1972 597.1331l3.5429077 3.2817383l-0.6045532 -4.791321z" fill-rule="evenodd"></path><path fill="#000000" fill-opacity="0.0" d="m405.82547 650.147l226.58267 -527.0236" fill-rule="evenodd"></path><path stroke="#000000" stroke-width="1.0" stroke-linejoin="round" stroke-linecap="butt" d="m405.8255 650.147l224.21283 -521.5115" fill-rule="evenodd"></path><path fill="#000000" stroke="#000000" stroke-width="1.0" stroke-linecap="butt" d="m631.5558 129.2879l0.27496338 -4.8215027l-3.3098145 3.5167313z" fill-rule="evenodd"></path><path fill="#000000" fill-opacity="0.0" d="m405.82547 650.147l226.58267 -473.85828" fill-rule="evenodd"></path><path stroke="#000000" stroke-width="1.0" stroke-linejoin="round" stroke-linecap="butt" d="m405.8255 650.147l223.99438 -468.44525" fill-rule="evenodd"></path><path fill="#000000" stroke="#000000" stroke-width="1.0" stroke-linecap="butt" d="m631.31 182.41426l0.4675293 -4.806671l-3.447815 3.3815918z" fill-rule="evenodd"></path><path fill="#000000" fill-opacity="0.0" d="m405.82547 650.147l226.58267 -420.6614" fill-rule="evenodd"></path><path stroke="#000000" stroke-width="1.0" stroke-linejoin="round" stroke-linecap="butt" d="m405.8255 650.147l223.73737 -415.37897" fill-rule="evenodd"></path><path fill="#000000" stroke="#000000" stroke-width="1.0" stroke-linecap="butt" d="m631.0171 235.55128l0.69781494 -4.778656l-3.6062012 3.2120972z" fill-rule="evenodd"></path><path fill="#000000" fill-opacity="0.0" d="m405.82547 650.147l226.58267 -367.49606" fill-rule="evenodd"></path><path stroke="#000000" stroke-width="1.0" stroke-linejoin="round" stroke-linecap="butt" d="m405.8255 650.147l223.43372 -362.3888" fill-rule="evenodd"></path><path fill="#000000" stroke="#000000" stroke-width="1.0" stroke-linecap="butt" d="m630.6652 288.62506l0.975708 -4.729767l-3.7876587 2.9960327z" fill-rule="evenodd"></path><path fill="#000000" fill-opacity="0.0" d="m405.82547 650.147l226.58267 -314.3307" fill-rule="evenodd"></path><path stroke="#000000" stroke-width="1.0" stroke-linejoin="round" stroke-linecap="butt" d="m405.8255 650.147l223.07416 -309.46344" fill-rule="evenodd"></path><path fill="#000000" stroke="#000000" stroke-width="1.0" stroke-linecap="butt" d="m630.23956 341.64938l1.3137817 -4.6471863l-3.9935913 2.7154846z" fill-rule="evenodd"></path><path fill="#000000" fill-opacity="0.0" d="m405.82547 650.147l226.58267 -261.13385" fill-rule="evenodd"></path><path stroke="#000000" stroke-width="1.0" stroke-linejoin="round" stroke-linecap="butt" d="m405.8255 650.147l222.65045 -256.60202" fill-rule="evenodd"></path><path fill="#000000" stroke="#000000" stroke-width="1.0" stroke-linecap="butt" d="m629.7235 394.62747l1.7265625 -4.5101624l-4.2216797 2.3451538z" fill-rule="evenodd"></path><path fill="#000000" fill-opacity="0.0" d="m405.82547 650.147l226.58267 -207.9685" fill-rule="evenodd"></path><path stroke="#000000" stroke-width="1.0" stroke-linejoin="round" stroke-linecap="butt" d="m405.8255 650.147l222.16235 -203.91132" fill-rule="evenodd"></path><path fill="#000000" stroke="#000000" stroke-width="1.0" stroke-linecap="butt" d="m629.10474 447.4525l2.2264404 -4.285492l-4.460205 1.8517761z" fill-rule="evenodd"></path><path fill="#000000" fill-opacity="0.0" d="m405.82547 650.147l226.58267 -154.77164" fill-rule="evenodd"></path><path stroke="#000000" stroke-width="1.0" stroke-linejoin="round" stroke-linecap="butt" d="m405.8255 650.147l221.62817 -151.38739" fill-rule="evenodd"></path><path fill="#000000" stroke="#000000" stroke-width="1.0" stroke-linecap="butt" d="m628.3854 500.1235l2.8156128 -3.9236145l-4.678955 1.1957703z" fill-rule="evenodd"></path><path fill="#000000" fill-opacity="0.0" d="m405.82547 650.147l226.58267 -101.60626" fill-rule="evenodd"></path><path stroke="#000000" stroke-width="1.0" stroke-linejoin="round" stroke-linecap="butt" d="m405.8255 650.147l221.10791 -99.151245" fill-rule="evenodd"></path><path fill="#000000" stroke="#000000" stroke-width="1.0" stroke-linecap="butt" d="m627.60925 552.50287l3.4650269 -3.3640137l-4.8167114 0.34973145z" fill-rule="evenodd"></path><path fill="#000000" fill-opacity="0.0" d="m405.82547 650.147l226.58267 -48.440918" fill-rule="evenodd"></path><path stroke="#000000" stroke-width="1.0" stroke-linejoin="round" stroke-linecap="butt" d="m405.8255 650.147l220.71527 -47.186523" fill-rule="evenodd"></path><path fill="#000000" stroke="#000000" stroke-width="1.0" stroke-linecap="butt" d="m626.8861 604.5757l4.0924683 -2.5640259l-4.783142 -0.6664429z" fill-rule="evenodd"></path><path fill="#000000" fill-opacity="0.0" d="m405.82547 250.6483l226.58267 -127.527565" fill-rule="evenodd"></path><path stroke="#000000" stroke-width="1.0" stroke-linejoin="round" stroke-linecap="butt" d="m405.8255 250.6483l221.35394 -124.58469" fill-rule="evenodd"></path><path fill="#000000" stroke="#000000" stroke-width="1.0" stroke-linecap="butt" d="m627.9896 127.50302l3.1445923 -3.6652527l-4.7648926 0.786438z" fill-rule="evenodd"></path><path fill="#000000" fill-opacity="0.0" d="m405.82547 250.6483l226.58267 -74.36221" fill-rule="evenodd"></path><path stroke="#000000" stroke-width="1.0" stroke-linejoin="round" stroke-linecap="butt" d="m405.8255 250.6483l220.88184 -72.49126" fill-rule="evenodd"></path><path fill="#000000" stroke="#000000" stroke-width="1.0" stroke-linecap="butt" d="m627.2224 179.72643l3.796753 -2.9844818l-4.8269043 -0.15426636z" fill-rule="evenodd"></path><path fill="#000000" fill-opacity="0.0" d="m405.82547 250.6483l226.58267 -21.16536" fill-rule="evenodd"></path><path stroke="#000000" stroke-width="1.0" stroke-linejoin="round" stroke-linecap="butt" d="m405.8255 250.6483l220.6087 -20.60733" fill-rule="evenodd"></path><path fill="#000000" stroke="#000000" stroke-width="1.0" stroke-linecap="butt" d="m626.5878 231.68555l4.364807 -2.0666351l-4.672058 -1.2225037z" fill-rule="evenodd"></path><path fill="#000000" fill-opacity="0.0" d="m405.82547 250.6483l226.58267 31.999985" fill-rule="evenodd"></path><path stroke="#000000" stroke-width="1.0" stroke-linejoin="round" stroke-linecap="butt" d="m405.8255 250.6483l220.64166 31.160934" fill-rule="evenodd"></path><path fill="#000000" stroke="#000000" stroke-width="1.0" stroke-linecap="butt" d="m626.23615 283.44476l4.7244873 -1.0009155l-4.262512 -2.270111z" fill-rule="evenodd"></path><path fill="#000000" fill-opacity="0.0" d="m405.82547 250.6483l226.58267 85.16536" fill-rule="evenodd"></path><path stroke="#000000" stroke-width="1.0" stroke-linejoin="round" stroke-linecap="butt" d="m405.8255 250.6483l220.96631 83.05434" fill-rule="evenodd"></path><path fill="#000000" stroke="#000000" stroke-width="1.0" stroke-linecap="butt" d="m626.2107 335.24875l4.8290405 0.05053711l-3.666809 -3.1427917z" fill-rule="evenodd"></path><path fill="#000000" fill-opacity="0.0" d="m405.82547 250.6483l226.58267 138.3622" fill-rule="evenodd"></path><path stroke="#000000" stroke-width="1.0" stroke-linejoin="round" stroke-linecap="butt" d="m405.8255 250.6483l221.46191 135.23524" fill-rule="evenodd"></path><path fill="#000000" stroke="#000000" stroke-width="1.0" stroke-linecap="butt" d="m626.42664 387.2932l4.7338867 0.9553833l-3.012268 -3.7747498z" fill-rule="evenodd"></path><path fill="#000000" fill-opacity="0.0" d="m405.82547 250.6483l226.58267 191.52754" fill-rule="evenodd"></path><path stroke="#000000" stroke-width="1.0" stroke-linejoin="round" stroke-linecap="butt" d="m405.8255 250.6483l222.00043 187.65419" fill-rule="evenodd"></path><path fill="#000000" stroke="#000000" stroke-width="1.0" stroke-linecap="butt" d="m626.75964 439.56396l4.5320435 1.6681519l-2.399475 -4.19104z" fill-rule="evenodd"></path><path fill="#000000" fill-opacity="0.0" d="m405.82547 250.6483l226.58267 244.72441" fill-rule="evenodd"></path><path stroke="#000000" stroke-width="1.0" stroke-linejoin="round" stroke-linecap="butt" d="m405.8255 250.6483l222.50635 240.32173" fill-rule="evenodd"></path><path fill="#000000" stroke="#000000" stroke-width="1.0" stroke-linecap="butt" d="m627.1199 492.09216l4.295105 2.2078247l-1.8710938 -4.4521484z" fill-rule="evenodd"></path><path fill="#000000" fill-opacity="0.0" d="m405.82547 250.6483l226.58267 297.88977" fill-rule="evenodd"></path><path stroke="#000000" stroke-width="1.0" stroke-linejoin="round" stroke-linecap="butt" d="m405.8255 250.6483l222.95032 293.1142" fill-rule="evenodd"></path><path fill="#000000" stroke="#000000" stroke-width="1.0" stroke-linecap="butt" d="m627.4611 544.7625l4.0620117 2.6119995l-1.4326782 -4.6119385z" fill-rule="evenodd"></path><path fill="#000000" fill-opacity="0.0" d="m405.82547 250.6483l226.58267 351.0866" fill-rule="evenodd"></path><path stroke="#000000" stroke-width="1.0" stroke-linejoin="round" stroke-linecap="butt" d="m405.8255 250.6483l223.32916 346.0453" fill-rule="evenodd"></path><path fill="#000000" stroke="#000000" stroke-width="1.0" stroke-linecap="butt" d="m627.76685 597.5893l3.8486328 2.9172974l-1.072998 -4.708618z" fill-rule="evenodd"></path><path fill="#000000" fill-opacity="0.0" d="m405.82547 70.703415l226.58267 318.2992" fill-rule="evenodd"></path><path stroke="#000000" stroke-width="1.0" stroke-linejoin="round" stroke-linecap="butt" d="m405.8255 70.703415l223.10315 313.4112" fill-rule="evenodd"></path><path fill="#000000" stroke="#000000" stroke-width="1.0" stroke-linecap="butt" d="m627.583 385.07248l3.977356 2.7391663l-1.2861328 -4.654907z" fill-rule="evenodd"></path><path fill="#f3f3f3" d="m9.9763775 248.64043l192.25197 0l0 175.14961l-192.25197 0z" fill-rule="evenodd"></path><path stroke="#000000" stroke-width="1.0" stroke-linejoin="round" stroke-linecap="butt" d="m9.9763775 248.64043l192.25197 0l0 175.14961l-192.25197 0z" fill-rule="evenodd"></path><path fill="#000000" d="m58.493057 317.38272q-0.546875 0.140625 -0.75 0.328125q-0.1875 0.171875 -0.265625 0.484375q-0.078125 0.296875 -0.078125 1.0625l0 8.875q0 0.625 0.0625 1.0q0.0625 0.359375 0.25 0.546875q0.1875 0.1875 0.78125 0.34375l0 0.671875l-5.265625 0l0 -0.671875q0.453125 -0.125 0.625 -0.21875q0.171875 -0.09375 0.265625 -0.234375q0.109375 -0.15625 0.15625 -0.453125q0.046875 -0.3125 0.046875 -1.0l0 -5.03125q0 -0.828125 0.015625 -1.953125q0.03125 -1.125 0.0625 -1.609375l-0.203125 0q-0.125 0.421875 -0.265625 0.8125q-0.140625 0.390625 -0.515625 1.40625l-2.75 7.40625l-1.8125 0l-2.890625 -8.3125q-0.25 -0.71875 -0.453125 -1.40625l-0.171875 0q0.09375 1.6875 0.09375 4.0l0 4.71875q0 0.75 0.0625 1.046875q0.078125 0.296875 0.296875 0.5q0.21875 0.1875 0.75 0.328125l0 0.671875l-3.875 0l0 -0.671875q0.375 -0.109375 0.59375 -0.234375q0.234375 -0.125 0.34375 -0.328125q0.109375 -0.203125 0.125 -0.515625q0.03125 -0.328125 0.03125 -0.8125l0 -8.875q0 -0.78125 -0.0625 -1.0625q-0.0625 -0.28125 -0.265625 -0.46875q-0.1875 -0.1875 -0.765625 -0.34375l0 -0.6875l5.09375 0l2.84375 8.421875l3.078125 -8.421875l4.8125 0l0 0.6875zm14.672684 -0.6875l0 0.6875q-0.40625 0.125 -0.578125 0.21875q-0.171875 0.09375 -0.296875 0.25q-0.109375 0.15625 -0.171875 0.46875q-0.046875 0.3125 -0.046875 0.953125l0 11.421875l-2.609375 0l-4.609375 -7.984375q-0.9375 -1.609375 -1.375 -2.53125l-0.09375 0q0.09375 2.203125 0.09375 4.65625l0 3.296875q0 0.765625 0.078125 1.078125q0.078125 0.3125 0.28125 0.484375q0.203125 0.171875 0.75 0.328125l0 0.671875l-3.875 0l0 -0.671875q0.375 -0.109375 0.59375 -0.234375q0.234375 -0.125 0.328125 -0.328125q0.109375 -0.21875 0.140625 -0.53125q0.03125 -0.3125 0.03125 -0.796875l0 -8.875q0 -0.765625 -0.0625 -1.046875q-0.0625 -0.296875 -0.28125 -0.484375q-0.203125 -0.203125 -0.75 -0.34375l0 -0.6875l4.15625 0l3.625 6.3125q0.34375 0.59375 0.875 1.609375q0.546875 1.015625 0.96875 1.921875l0.171875 0q-0.109375 -2.453125 -0.109375 -5.359375l0 -1.90625q0 -0.671875 -0.0625 -0.96875q-0.046875 -0.296875 -0.15625 -0.4375q-0.109375 -0.15625 -0.296875 -0.265625q-0.171875 -0.109375 -0.59375 -0.21875l0 -0.6875l3.875 0zm6.3454285 11.421875q0 0.359375 0.015625 0.671875q0.015625 0.3125 0.078125 0.515625q0.0625 0.1875 0.171875 0.328125q0.125 0.125 0.328125 0.21875q0.21875 0.09375 0.515625 0.171875l0 0.671875l-5.390625 0l0 -0.671875q0.375 -0.109375 0.59375 -0.21875q0.234375 -0.125 0.328125 -0.328125q0.109375 -0.21875 0.140625 -0.53125q0.03125 -0.328125 0.03125 -0.828125l0 -8.84375q0 -0.5 -0.03125 -0.8125q-0.015625 -0.3125 -0.125 -0.515625q-0.109375 -0.21875 -0.328125 -0.34375q-0.21875 -0.125 -0.609375 -0.21875l0 -0.6875l5.390625 0l0 0.6875q-0.421875 0.109375 -0.625 0.234375q-0.203125 0.125 -0.3125 0.3125q-0.09375 0.1875 -0.140625 0.484375q-0.03125 0.296875 -0.03125 0.875l0 8.828125zm4.4565125 -0.875q0.25 1.21875 0.84375 1.828125q0.609375 0.59375 1.765625 0.59375q0.609375 0 1.09375 -0.203125q0.484375 -0.21875 0.765625 -0.671875q0.296875 -0.453125 0.296875 -1.140625q0 -0.640625 -0.234375 -1.09375q-0.234375 -0.46875 -0.765625 -0.890625q-0.515625 -0.421875 -1.453125 -0.890625q-0.796875 -0.40625 -1.453125 -0.828125q-0.640625 -0.4375 -1.09375 -0.953125q-0.453125 -0.515625 -0.703125 -1.125q-0.25 -0.625 -0.25 -1.390625q0 -1.265625 0.625 -2.140625q0.625 -0.890625 1.8125 -1.34375q1.1875 -0.453125 2.734375 -0.453125q0.921875 0 1.75 0.09375q0.828125 0.09375 1.890625 0.34375l0 2.96875l-1.40625 0q-0.1875 -0.8125 -0.5 -1.28125q-0.296875 -0.484375 -0.75 -0.703125q-0.453125 -0.234375 -1.140625 -0.234375q-0.578125 0 -1.046875 0.21875q-0.453125 0.203125 -0.71875 0.609375q-0.265625 0.40625 -0.265625 0.96875q0 0.59375 0.21875 1.03125q0.234375 0.4375 0.78125 0.859375q0.546875 0.40625 1.578125 0.9375q1.265625 0.65625 1.984375 1.296875q0.734375 0.625 1.0625 1.375q0.34375 0.734375 0.34375 1.71875q0 1.265625 -0.578125 2.203125q-0.578125 0.921875 -1.703125 1.421875q-1.109375 0.5 -2.578125 0.5q-1.046875 0 -2.1875 -0.125q-1.125 -0.125 -2.125 -0.34375l0 -3.15625l1.40625 0zm12.570251 3.453125l0 -0.671875q0.421875 -0.078125 0.671875 -0.1875q0.25 -0.125 0.375 -0.34375q0.125 -0.21875 0.15625 -0.546875q0.03125 -0.328125 0.03125 -0.828125l0 -10.21875l-0.828125 0q-0.609375 0 -0.9375 0.140625q-0.328125 0.140625 -0.578125 0.453125q-0.234375 0.3125 -0.421875 0.828125q-0.171875 0.515625 -0.28125 0.984375l-1.40625 0l0 -3.609375l12.078125 0l0 3.609375l-1.40625 0q-0.203125 -0.703125 -0.3125 -1.03125q-0.109375 -0.328125 -0.25 -0.5625q-0.140625 -0.234375 -0.296875 -0.375q-0.140625 -0.15625 -0.328125 -0.25q-0.171875 -0.09375 -0.4375 -0.140625q-0.25 -0.046875 -0.671875 -0.046875l-0.734375 0l0 10.21875q0 0.546875 0.03125 0.828125q0.03125 0.28125 0.109375 0.453125q0.078125 0.171875 0.1875 0.28125q0.125 0.109375 0.328125 0.203125q0.21875 0.078125 0.578125 0.140625l0 0.671875l-5.65625 0zm19.203873 -14.265625l0 2.515625l-2.8125 0l0 -2.515625l2.8125 0zm-3.890625 13.59375q0.5 -0.140625 0.6875 -0.34375q0.1875 -0.21875 0.25 -0.59375q0.078125 -0.375 0.078125 -1.34375l0 -4.765625q0 -0.5 -0.046875 -0.8125q-0.046875 -0.3125 -0.1875 -0.484375q-0.125 -0.1875 -0.34375 -0.28125q-0.21875 -0.109375 -0.5625 -0.171875l0 -0.703125l2.8125 -0.078125l1.28125 0l0 7.28125q0 0.578125 0.015625 0.890625q0.015625 0.3125 0.046875 0.484375q0.03125 0.171875 0.09375 0.3125q0.0625 0.125 0.140625 0.234375q0.09375 0.109375 0.265625 0.203125q0.1875 0.09375 0.46875 0.171875l0 0.671875l-5.0 0l0 -0.671875zm10.534821 -8.109375l0.109375 0.03125q0.9375 -0.875 1.6875 -1.234375q0.75 -0.359375 1.53125 -0.359375q0.75 0 1.25 0.203125q0.515625 0.1875 0.859375 0.5625q0.34375 0.375 0.5625 0.984375q1.03125 -0.96875 1.796875 -1.359375q0.765625 -0.390625 1.59375 -0.390625q0.828125 0 1.359375 0.21875q0.546875 0.21875 0.890625 0.671875q0.34375 0.453125 0.5 1.125q0.171875 0.671875 0.171875 1.625l0 3.734375q0 0.453125 0.015625 0.859375q0.015625 0.390625 0.078125 0.625q0.0625 0.234375 0.15625 0.390625q0.109375 0.140625 0.296875 0.25q0.203125 0.09375 0.484375 0.171875l0 0.671875l-4.9375 0l0 -0.671875q0.453125 -0.125 0.625 -0.328125q0.1875 -0.21875 0.25 -0.59375q0.0625 -0.390625 0.0625 -1.359375l0 -2.75q0 -0.921875 -0.0625 -1.5q-0.0625 -0.578125 -0.234375 -0.90625q-0.171875 -0.328125 -0.421875 -0.46875q-0.234375 -0.140625 -0.625 -0.140625q-0.265625 0 -0.5 0.078125q-0.21875 0.078125 -0.453125 0.25q-0.21875 0.171875 -0.390625 0.34375q-0.15625 0.171875 -0.265625 0.390625q-0.09375 0.21875 -0.125 0.484375q-0.03125 0.265625 -0.03125 0.859375l0 3.34375q0 0.703125 0.015625 1.078125q0.03125 0.359375 0.109375 0.59375q0.078125 0.21875 0.25 0.375q0.1875 0.140625 0.578125 0.25l0 0.671875l-4.890625 0l0 -0.671875q0.46875 -0.125 0.640625 -0.328125q0.1875 -0.21875 0.25 -0.59375q0.0625 -0.375 0.0625 -1.359375l0 -2.75q0 -0.671875 -0.03125 -1.140625q-0.015625 -0.46875 -0.078125 -0.75q-0.0625 -0.296875 -0.171875 -0.5q-0.109375 -0.21875 -0.25 -0.34375q-0.125 -0.140625 -0.328125 -0.203125q-0.1875 -0.078125 -0.46875 -0.078125q-0.375 0 -0.796875 0.234375q-0.40625 0.234375 -0.703125 0.65625q-0.28125 0.421875 -0.28125 0.890625l0 3.96875q0 0.96875 0.0625 1.359375q0.0625 0.375 0.234375 0.59375q0.1875 0.21875 0.65625 0.34375l0 0.671875l-4.921875 0l0 -0.671875q0.5 -0.140625 0.6875 -0.34375q0.1875 -0.21875 0.25 -0.59375q0.078125 -0.375 0.078125 -1.34375l0 -4.21875q0 -0.75 -0.03125 -1.109375q-0.03125 -0.375 -0.125 -0.59375q-0.09375 -0.21875 -0.296875 -0.359375q-0.203125 -0.140625 -0.6875 -0.234375l0 -0.703125l2.8125 -0.078125l1.28125 0l-0.140625 1.46875zm21.21933 7.4375l-0.15625 -0.046875q-0.828125 0.8125 -1.625 1.1875q-0.796875 0.375 -1.6875 0.375q-0.890625 0 -1.546875 -0.328125q-0.640625 -0.328125 -0.984375 -0.890625q-0.328125 -0.578125 -0.328125 -1.328125q0 -1.515625 1.484375 -2.375q1.484375 -0.875 4.5 -1.09375l0 -0.96875q0 -0.953125 -0.21875 -1.46875q-0.21875 -0.53125 -0.5625 -0.734375q-0.328125 -0.21875 -0.796875 -0.21875q-0.46875 0 -0.8125 0.171875q-0.34375 0.15625 -0.625 0.625q-0.28125 0.453125 -0.40625 1.265625l-1.9375 0l0 -1.875q0.9375 -0.421875 1.5625 -0.640625q0.625 -0.234375 1.234375 -0.375q0.609375 -0.15625 1.09375 -0.21875q0.484375 -0.0625 0.96875 -0.0625q1.234375 0 1.96875 0.328125q0.75 0.328125 1.125 1.078125q0.375 0.734375 0.375 2.03125l0 4.0q0 0.6875 0.03125 1.0625q0.03125 0.359375 0.09375 0.546875q0.0625 0.171875 0.15625 0.28125q0.109375 0.109375 0.25 0.171875q0.15625 0.0625 0.578125 0.171875l0 0.671875l-3.828125 0l0.09375 -1.34375zm-0.328125 -3.5q-1.59375 0.046875 -2.359375 0.609375q-0.765625 0.546875 -0.765625 1.609375q0 0.640625 0.34375 0.96875q0.359375 0.328125 0.96875 0.328125q0.46875 0 0.890625 -0.25q0.421875 -0.25 0.671875 -0.671875q0.25 -0.421875 0.25 -0.890625l0 -1.703125zm15.601379 -3.953125l-1.75 -0.203125l-0.046875 0.125q0.296875 0.28125 0.484375 0.78125q0.1875 0.5 0.1875 1.1875q0 1.796875 -1.09375 2.71875q-1.078125 0.921875 -3.171875 0.921875q-1.015625 0 -1.65625 -0.1875q-0.515625 0.453125 -0.515625 0.984375q0 0.3125 0.125 0.484375q0.125 0.15625 0.4375 0.25q0.3125 0.078125 0.875 0.078125l2.53125 0q1.71875 0 2.5625 0.671875q0.859375 0.671875 0.859375 2.078125q0 1.09375 -0.625 1.875q-0.625 0.796875 -1.78125 1.203125q-1.15625 0.421875 -2.75 0.421875q-1.15625 0 -2.09375 -0.109375q-0.9375 -0.09375 -1.609375 -0.375q-0.671875 -0.265625 -1.03125 -0.734375q-0.359375 -0.46875 -0.359375 -1.203125q0 -0.578125 0.359375 -1.078125q0.375 -0.484375 1.046875 -0.84375q-0.4375 -0.296875 -0.640625 -0.6875q-0.1875 -0.40625 -0.1875 -1.0q0 -0.484375 0.203125 -0.90625q0.203125 -0.421875 0.53125 -0.765625q0.328125 -0.34375 0.859375 -0.75q-0.796875 -0.453125 -1.203125 -1.171875q-0.40625 -0.734375 -0.40625 -1.71875q0 -0.96875 0.34375 -1.640625q0.34375 -0.6875 0.9375 -1.109375q0.59375 -0.4375 1.40625 -0.640625q0.828125 -0.203125 1.765625 -0.203125q0.53125 0 0.921875 0.0625q0.40625 0.046875 0.78125 0.109375l3.703125 0l0 1.375zm-6.921875 1.921875q0 1.28125 0.359375 1.921875q0.375 0.625 1.15625 0.625q0.703125 0 1.078125 -0.578125q0.375 -0.59375 0.375 -1.796875q0 -1.25 -0.375 -1.90625q-0.359375 -0.671875 -1.109375 -0.671875q-0.75 0 -1.125 0.59375q-0.359375 0.59375 -0.359375 1.8125zm-0.375 7.53125q-0.359375 0.28125 -0.546875 0.625q-0.1875 0.34375 -0.1875 0.78125q0 0.734375 0.640625 1.078125q0.640625 0.359375 2.015625 0.359375q1.296875 0 1.96875 -0.4375q0.671875 -0.421875 0.671875 -1.203125q0 -0.34375 -0.125 -0.59375q-0.125 -0.234375 -0.484375 -0.40625q-0.359375 -0.15625 -1.015625 -0.15625l-1.765625 0q-0.75 0 -1.171875 -0.046875zm17.7473 -2.515625q-1.046875 1.09375 -2.078125 1.5625q-1.015625 0.46875 -2.34375 0.46875q-2.390625 0 -3.59375 -1.3125q-1.203125 -1.3125 -1.203125 -3.890625q0 -1.65625 0.609375 -2.859375q0.625 -1.203125 1.765625 -1.828125q1.140625 -0.625 2.640625 -0.625q0.9375 0 1.640625 0.21875q0.703125 0.21875 1.203125 0.609375q0.5 0.375 0.828125 0.921875q0.390625 0.640625 0.59375 1.484375q0.203125 0.84375 0.203125 2.046875l-6.5 0q0.015625 1.859375 0.65625 2.734375q0.65625 0.875 2.0 0.875q0.78125 0 1.40625 -0.28125q0.625 -0.296875 1.34375 -1.03125l0.828125 0.90625zm-2.765625 -4.296875q-0.03125 -1.578125 -0.40625 -2.34375q-0.375 -0.765625 -1.1875 -0.765625q-0.796875 0 -1.265625 0.796875q-0.453125 0.796875 -0.546875 2.3125l3.40625 0z" fill-rule="nonzero"></path><path fill="#000000" d="m33.9916 354.1796q0.65625 0 0.984375 -0.09375q0.328125 -0.09375 0.515625 -0.328125q0.203125 -0.25 0.328125 -0.734375l1.171875 0l-0.234375 3.671875l-9.390627 0l0 -0.671875q0.421875 -0.984375 1.234375 -2.140625q0.828125 -1.171875 2.0 -2.546875q1.09375 -1.296875 1.6718769 -2.140625q0.59375 -0.84375 0.875 -1.578125q0.28125 -0.75 0.28125 -1.5625q0 -1.125 -0.5 -1.765625q-0.5 -0.640625 -1.3750019 -0.640625q-0.8125 0 -1.359375 0.578125q-0.53125 0.578125 -0.78125 1.828125l-1.84375 0l0 -2.40625q1.25 -0.515625 1.953125 -0.703125q0.71875 -0.203125 1.40625 -0.296875q0.6875 -0.109375 1.5000019 -0.109375q1.515625 0 2.46875 0.40625q0.953125 0.40625 1.375 1.09375q0.421875 0.6875 0.421875 1.609375q0 0.8125 -0.3125 1.515625q-0.296875 0.6875 -1.046875 1.578125q-0.734375 0.890625 -2.5 2.5625q-0.78125 0.765625 -1.4687519 1.546875q-0.6875 0.78125 -1.015625 1.234375l0 0.09375l3.640627 0zm13.9292145 -4.875l0.015625 0.125q1.203125 0.46875 1.8125 1.34375q0.609375 0.859375 0.609375 2.078125q0 1.203125 -0.65625 2.109375q-0.640625 0.90625 -1.859375 1.40625q-1.21875 0.5 -2.84375 0.5q-1.546875 0 -2.703125 -0.453125q-1.15625 -0.453125 -1.796875 -1.328125q-0.625 -0.875 -0.625 -2.078125q0 -0.859375 0.3125 -1.515625q0.328125 -0.671875 0.859375 -1.109375q0.53125 -0.4375 1.28125 -0.78125l-0.015625 -0.140625q-2.265625 -0.984375 -2.265625 -3.265625q0 -1.046875 0.640625 -1.875q0.65625 -0.84375 1.84375 -1.3125q1.203125 -0.46875 2.6875 -0.46875q2.484375 0 3.75 0.921875q1.28125 0.90625 1.28125 2.5625q0 1.109375 -0.578125 1.953125q-0.578125 0.828125 -1.75 1.328125zm-4.8125 -3.1875q0 1.34375 0.53125 2.0625q0.53125 0.703125 1.546875 0.703125q1.0 0 1.484375 -0.671875q0.5 -0.671875 0.5 -1.90625q0 -1.28125 -0.515625 -1.953125q-0.515625 -0.671875 -1.484375 -0.671875q-1.015625 0 -1.546875 0.625q-0.515625 0.609375 -0.515625 1.8125zm-0.109375 6.65625q0 1.453125 0.53125 2.203125q0.53125 0.734375 1.609375 0.734375q0.65625 0 1.125 -0.296875q0.46875 -0.3125 0.71875 -0.953125q0.25 -0.640625 0.25 -1.515625q0 -0.90625 -0.265625 -1.5625q-0.25 -0.671875 -0.734375 -1.03125q-0.46875 -0.359375 -1.125 -0.359375q-0.765625 0 -1.234375 0.375q-0.46875 0.359375 -0.671875 0.984375q-0.203125 0.609375 -0.203125 1.421875zm19.985367 -1.703125l2.40625 3.40625q0.328125 0.484375 0.59375 0.796875q0.265625 0.3125 0.515625 0.484375q0.25 0.171875 0.546875 0.265625l0 0.671875l-5.0 0l0 -0.671875q0.640625 -0.078125 0.640625 -0.53125q0 -0.125 -0.03125 -0.234375q-0.03125 -0.109375 -0.09375 -0.21875q-0.0625 -0.109375 -0.25 -0.375l-1.15625 -1.65625l-1.078125 1.3125q-0.34375 0.421875 -0.4375 0.625q-0.078125 0.1875 -0.078125 0.4375q0 0.25 0.1875 0.421875q0.1875 0.171875 0.578125 0.21875l0 0.671875l-3.9375 0l0 -0.671875q0.4375 -0.09375 0.875 -0.453125q0.453125 -0.359375 1.09375 -1.09375l2.140625 -2.421875l-2.421875 -3.40625q-0.21875 -0.328125 -0.390625 -0.53125q-0.15625 -0.21875 -0.328125 -0.40625q-0.171875 -0.1875 -0.3125 -0.296875q-0.140625 -0.109375 -0.265625 -0.15625q-0.109375 -0.046875 -0.21875 -0.0625l0 -0.671875l4.953125 0l0 0.671875q-0.640625 0.140625 -0.640625 0.578125q0 0.171875 0.09375 0.359375q0.09375 0.1875 0.296875 0.484375l1.046875 1.5l1.046875 -1.296875q0.25 -0.3125 0.34375 -0.515625q0.109375 -0.21875 0.109375 -0.4375q0 -0.28125 -0.21875 -0.453125q-0.203125 -0.1875 -0.5625 -0.21875l0 -0.671875l3.90625 0l0 0.671875q-0.46875 0.125 -0.859375 0.453125q-0.390625 0.3125 -1.125 1.203125l-1.96875 2.21875zm16.871124 3.109375q0.65625 0 0.984375 -0.09375q0.328125 -0.09375 0.515625 -0.328125q0.203125 -0.25 0.328125 -0.734375l1.171875 0l-0.234375 3.671875l-9.390625 0l0 -0.671875q0.421875 -0.984375 1.234375 -2.140625q0.828125 -1.171875 2.0 -2.546875q1.09375 -1.296875 1.671875 -2.140625q0.59375 -0.84375 0.875 -1.578125q0.28125 -0.75 0.28125 -1.5625q0 -1.125 -0.5 -1.765625q-0.5 -0.640625 -1.375 -0.640625q-0.8125 0 -1.359375 0.578125q-0.53125 0.578125 -0.78125 1.828125l-1.84375 0l0 -2.40625q1.25 -0.515625 1.953125 -0.703125q0.71875 -0.203125 1.40625 -0.296875q0.6875 -0.109375 1.5 -0.109375q1.515625 0 2.46875 0.40625q0.953125 0.40625 1.375 1.09375q0.421875 0.6875 0.421875 1.609375q0 0.8125 -0.3125 1.515625q-0.296875 0.6875 -1.046875 1.578125q-0.734375 0.890625 -2.5 2.5625q-0.78125 0.765625 -1.46875 1.546875q-0.6875 0.78125 -1.015625 1.234375l0 0.09375l3.640625 0zm13.9292145 -4.875l0.015625 0.125q1.203125 0.46875 1.8125 1.34375q0.609375 0.859375 0.609375 2.078125q0 1.203125 -0.65625 2.109375q-0.640625 0.90625 -1.859375 1.40625q-1.21875 0.5 -2.84375 0.5q-1.546875 0 -2.703125 -0.453125q-1.15625 -0.453125 -1.796875 -1.328125q-0.625 -0.875 -0.625 -2.078125q0 -0.859375 0.3125 -1.515625q0.328125 -0.671875 0.859375 -1.109375q0.53125 -0.4375 1.28125 -0.78125l-0.015625 -0.140625q-2.265625 -0.984375 -2.265625 -3.265625q0 -1.046875 0.640625 -1.875q0.65625 -0.84375 1.84375 -1.3125q1.203125 -0.46875 2.6875 -0.46875q2.484375 0 3.75 0.921875q1.28125 0.90625 1.28125 2.5625q0 1.109375 -0.578125 1.953125q-0.578125 0.828125 -1.75 1.328125zm-4.8125 -3.1875q0 1.34375 0.53125 2.0625q0.53125 0.703125 1.546875 0.703125q1.0 0 1.484375 -0.671875q0.5 -0.671875 0.5 -1.90625q0 -1.28125 -0.515625 -1.953125q-0.515625 -0.671875 -1.484375 -0.671875q-1.015625 0 -1.546875 0.625q-0.515625 0.609375 -0.515625 1.8125zm-0.109375 6.65625q0 1.453125 0.53125 2.203125q0.53125 0.734375 1.609375 0.734375q0.65625 0 1.125 -0.296875q0.46875 -0.3125 0.71875 -0.953125q0.25 -0.640625 0.25 -1.515625q0 -0.90625 -0.265625 -1.5625q-0.25 -0.671875 -0.734375 -1.03125q-0.46875 -0.359375 -1.125 -0.359375q-0.765625 0 -1.234375 0.375q-0.46875 0.359375 -0.671875 0.984375q-0.203125 0.609375 -0.203125 1.421875zm14.625992 -3.28125l0 -2.140625l9.625 0l0 2.140625l-9.625 0zm0 4.546875l0 -2.125l9.625 0l0 2.125l-9.625 0zm27.29786 -10.65625l-5.6874924 13.34375l-2.09375 0l0 -0.703125l5.1406174 -10.4375l0 -0.15625l-4.5624924 0q-0.453125 0 -0.734375 0.078125q-0.265625 0.078125 -0.453125 0.234375q-0.171875 0.15625 -0.28125 0.421875q-0.09375 0.25 -0.21875 0.796875l-1.1875 0l0.265625 -4.265625l9.812492 0l0 0.6875zm10.288605 5.921875l0.015625 0.125q1.203125 0.46875 1.8125 1.34375q0.609375 0.859375 0.609375 2.078125q0 1.203125 -0.65625 2.109375q-0.640625 0.90625 -1.859375 1.40625q-1.21875 0.5 -2.84375 0.5q-1.5468903 0 -2.7031403 -0.453125q-1.15625 -0.453125 -1.796875 -1.328125q-0.625 -0.875 -0.625 -2.078125q0 -0.859375 0.3125 -1.515625q0.328125 -0.671875 0.859375 -1.109375q0.53125 -0.4375 1.28125 -0.78125l-0.015625 -0.140625q-2.265625 -0.984375 -2.265625 -3.265625q0 -1.046875 0.640625 -1.875q0.65625 -0.84375 1.84375 -1.3125q1.203125 -0.46875 2.6875153 -0.46875q2.484375 0 3.75 0.921875q1.28125 0.90625 1.28125 2.5625q0 1.109375 -0.578125 1.953125q-0.578125 0.828125 -1.75 1.328125zm-4.8125153 -3.1875q0 1.34375 0.53125 2.0625q0.53125 0.703125 1.5468903 0.703125q1.0 0 1.484375 -0.671875q0.5 -0.671875 0.5 -1.90625q0 -1.28125 -0.515625 -1.953125q-0.515625 -0.671875 -1.484375 -0.671875q-1.0156403 0 -1.5468903 0.625q-0.515625 0.609375 -0.515625 1.8125zm-0.109375 6.65625q0 1.453125 0.53125 2.203125q0.53125 0.734375 1.6093903 0.734375q0.65625 0 1.125 -0.296875q0.46875 -0.3125 0.71875 -0.953125q0.25 -0.640625 0.25 -1.515625q0 -0.90625 -0.265625 -1.5625q-0.25 -0.671875 -0.734375 -1.03125q-0.46875 -0.359375 -1.125 -0.359375q-0.76564026 0 -1.2343903 0.375q-0.46875 0.359375 -0.671875 0.984375q-0.203125 0.609375 -0.203125 1.421875zm13.4604645 3.25q0.359375 -0.109375 0.578125 -0.21875q0.234375 -0.125 0.34375 -0.328125q0.109375 -0.203125 0.140625 -0.515625q0.03125 -0.3125 0.03125 -0.796875l0 -1.53125l-5.5 0l0 -1.109375l6.21875 -8.890625l2.3125 0l0 8.703125l0.3125 0q0.515625 0 0.71875 -0.0625q0.203125 -0.0625 0.34375 -0.25q0.15625 -0.1875 0.28125 -0.65625l1.078125 0l-0.125 2.265625l-2.609375 0l0 1.53125q0 0.546875 0.046875 0.875q0.0625 0.3125 0.171875 0.5q0.125 0.1875 0.34375 0.296875q0.21875 0.09375 0.546875 0.1875l0 0.671875l-5.234375 0l0 -0.671875zm-2.421875 -4.6875l3.515625 0l0 -2.34375q0 -1.46875 0.09375 -3.109375l-0.09375 0l-3.515625 5.28125l0 0.171875zm19.532257 7.1875q0 0.78125 0.078125 1.09375q0.078125 0.3125 0.28125 0.5q0.21875 0.1875 0.75 0.3125l0 0.671875l-5.09375 0l0 -0.671875q0.46875 -0.140625 0.65625 -0.328125q0.203125 -0.171875 0.28125 -0.484375q0.078125 -0.3125 0.078125 -1.09375l0 -8.96875q0 -0.71875 -0.015625 -1.03125q-0.015625 -0.3125 -0.078125 -0.515625q-0.046875 -0.21875 -0.15625 -0.359375q-0.09375 -0.140625 -0.296875 -0.234375q-0.203125 -0.109375 -0.59375 -0.1875l0 -0.703125l2.84375 -0.078125l1.265625 0l-0.15625 1.484375l0.125 0.03125q0.875 -0.859375 1.640625 -1.234375q0.765625 -0.375 1.578125 -0.375q1.828125 0 2.734375 1.296875q0.921875 1.28125 0.921875 3.84375q0 1.78125 -0.546875 2.984375q-0.53125 1.1875 -1.609375 1.796875q-1.0625 0.59375 -2.625 0.59375q-1.046875 0 -2.0625 -0.28125l0 1.9375zm0 -5.1875q0 1.25 0.4375 1.859375q0.4375 0.59375 1.34375 0.59375q0.9375 0 1.4375 -0.984375q0.5 -0.984375 0.5 -2.828125q0 -2.03125 -0.453125 -3.015625q-0.4375 -0.984375 -1.375 -0.984375q-0.46875 0 -0.90625 0.234375q-0.4375 0.234375 -0.71875 0.671875q-0.265625 0.421875 -0.265625 0.96875l0 3.484375zm14.783356 -2.265625l2.40625 3.40625q0.328125 0.484375 0.59375 0.796875q0.265625 0.3125 0.515625 0.484375q0.25 0.171875 0.546875 0.265625l0 0.671875l-5.0 0l0 -0.671875q0.640625 -0.078125 0.640625 -0.53125q0 -0.125 -0.03125 -0.234375q-0.03125 -0.109375 -0.09375 -0.21875q-0.0625 -0.109375 -0.25 -0.375l-1.15625 -1.65625l-1.078125 1.3125q-0.34375 0.421875 -0.4375 0.625q-0.078125 0.1875 -0.078125 0.4375q0 0.25 0.1875 0.421875q0.1875 0.171875 0.578125 0.21875l0 0.671875l-3.9375 0l0 -0.671875q0.4375 -0.09375 0.875 -0.453125q0.453125 -0.359375 1.09375 -1.09375l2.140625 -2.421875l-2.421875 -3.40625q-0.21875 -0.328125 -0.390625 -0.53125q-0.15625 -0.21875 -0.328125 -0.40625q-0.171875 -0.1875 -0.3125 -0.296875q-0.140625 -0.109375 -0.265625 -0.15625q-0.109375 -0.046875 -0.21875 -0.0625l0 -0.671875l4.953125 0l0 0.671875q-0.640625 0.140625 -0.640625 0.578125q0 0.171875 0.09375 0.359375q0.09375 0.1875 0.296875 0.484375l1.046875 1.5l1.046875 -1.296875q0.25 -0.3125 0.34375 -0.515625q0.109375 -0.21875 0.109375 -0.4375q0 -0.28125 -0.21875 -0.453125q-0.203125 -0.1875 -0.5625 -0.21875l0 -0.671875l3.90625 0l0 0.671875q-0.46875 0.125 -0.859375 0.453125q-0.390625 0.3125 -1.125 1.203125l-1.96875 2.21875z" fill-rule="nonzero"></path><path fill="#000000" fill-opacity="0.0" d="m202.22835 336.2152l129.29134 -265.51178" fill-rule="evenodd"></path><path stroke="#000000" stroke-width="1.0" stroke-linejoin="round" stroke-linecap="butt" d="m202.22835 336.2152l126.664505 -260.11737" fill-rule="evenodd"></path><path fill="#000000" stroke="#000000" stroke-width="1.0" stroke-linecap="butt" d="m330.3779 76.82097l0.50177 -4.8032l-3.4718323 3.3569336z" fill-rule="evenodd"></path><path fill="#000000" fill-opacity="0.0" d="m202.22835 336.2152l129.29134 -175.52754" fill-rule="evenodd"></path><path stroke="#000000" stroke-width="1.0" stroke-linejoin="round" stroke-linecap="butt" d="m202.22835 336.2152l125.732925 -170.69662" fill-rule="evenodd"></path><path fill="#000000" stroke="#000000" stroke-width="1.0" stroke-linecap="butt" d="m329.2912 166.49817l1.3614807 -4.6334534l-4.0213013 2.674286z" fill-rule="evenodd"></path><path fill="#000000" fill-opacity="0.0" d="m202.22835 336.2152l129.29134 -85.57478" fill-rule="evenodd"></path><path stroke="#000000" stroke-width="1.0" stroke-linejoin="round" stroke-linecap="butt" d="m202.22835 336.2152l124.28801 -82.2632" fill-rule="evenodd"></path><path fill="#000000" stroke="#000000" stroke-width="1.0" stroke-linecap="butt" d="m327.42798 255.32938l2.8726501 -3.88208l-4.695923 1.1273499z" fill-rule="evenodd"></path><path fill="#000000" fill-opacity="0.0" d="m202.22835 336.2152l129.29134 313.92126" fill-rule="evenodd"></path><path stroke="#000000" stroke-width="1.0" stroke-linejoin="round" stroke-linecap="butt" d="m202.22835 336.2152l127.00639 308.37335" fill-rule="evenodd"></path><path fill="#000000" stroke="#000000" stroke-width="1.0" stroke-linecap="butt" d="m327.70746 645.2176l3.2554932 3.5671387l-0.20095825 -4.8251343z" fill-rule="evenodd"></path><path fill="#f4cccc" d="m784.3832 279.53806l151.4331 0l0 113.35434l-151.4331 0z" fill-rule="evenodd"></path><path stroke="#cc0000" stroke-width="1.0" stroke-linejoin="round" stroke-linecap="butt" d="m784.3832 279.53806l151.4331 0l0 113.35434l-151.4331 0z" fill-rule="evenodd"></path><path fill="#000000" d="m829.6134 344.75522l0 -0.578125q0.59375 -0.109375 0.875 -0.25q0.28125 -0.140625 0.421875 -0.390625q0.140625 -0.265625 0.140625 -0.6875q0 -0.390625 -0.09375 -0.84375q-0.09375 -0.46875 -0.265625 -1.046875l-0.4375 -1.515625l-5.453125 0l-0.40625 1.15625q-0.296875 0.859375 -0.390625 1.3125q-0.09375 0.4375 -0.09375 0.796875q0 0.703125 0.359375 1.03125q0.359375 0.328125 1.09375 0.4375l0 0.578125l-5.0 0l0 -0.578125q0.65625 -0.109375 1.140625 -0.765625q0.484375 -0.65625 0.9375 -1.875l4.890625 -12.96875l1.84375 0l3.984375 13.0625q0.28125 0.921875 0.5 1.40625q0.21875 0.46875 0.515625 0.75q0.3125 0.265625 0.84375 0.390625l0 0.578125l-5.40625 0zm-4.5 -6.328125l4.90625 0l-2.234375 -7.5625l-2.671875 7.5625zm14.421875 -2.9375l0.171875 0.046875q0.640625 -0.796875 1.1875 -1.234375q0.5625 -0.453125 1.1875 -0.703125q0.640625 -0.25 1.453125 -0.25q0.6875 0 1.234375 0.078125l0 2.6875l-1.328125 0q-0.28125 -0.625 -0.59375 -0.90625q-0.3125 -0.296875 -0.875 -0.296875q-0.421875 0 -0.84375 0.25q-0.40625 0.234375 -0.796875 0.703125q-0.375 0.46875 -0.53125 0.890625q-0.140625 0.40625 -0.140625 0.96875l0 4.09375q0 1.078125 0.125 1.484375q0.125 0.390625 0.421875 0.578125q0.3125 0.1875 0.90625 0.296875l0 0.578125l-4.71875 0l0 -0.578125q0.4375 -0.140625 0.625 -0.234375q0.203125 -0.109375 0.34375 -0.296875q0.140625 -0.1875 0.203125 -0.578125q0.078125 -0.390625 0.078125 -1.203125l0 -5.109375q0 -0.75 -0.03125 -1.203125q-0.015625 -0.46875 -0.15625 -0.734375q-0.140625 -0.28125 -0.4375 -0.40625q-0.28125 -0.140625 -0.8125 -0.234375l0 -0.609375l2.75 -0.125l0.71875 0l-0.140625 2.046875zm17.285156 -0.75l-2.171875 -0.09375l-0.109375 0.140625q0.359375 0.359375 0.5625 0.984375q0.21875 0.625 0.21875 1.359375q0 1.90625 -1.171875 2.953125q-1.171875 1.03125 -3.34375 1.03125q-0.96875 0 -1.671875 -0.25q-0.890625 0.671875 -0.890625 1.328125q0 0.4375 0.15625 0.671875q0.171875 0.21875 0.5625 0.3125q0.40625 0.09375 1.203125 0.09375l2.8125 0q1.234375 0 2.015625 0.390625q0.796875 0.375 1.125 1.03125q0.328125 0.65625 0.328125 1.515625q0 1.109375 -0.640625 1.96875q-0.625 0.859375 -1.828125 1.328125q-1.1875 0.484375 -2.78125 0.484375q-1.171875 0 -2.15625 -0.140625q-0.984375 -0.140625 -1.6875 -0.46875q-0.6875 -0.328125 -1.078125 -0.875q-0.375 -0.546875 -0.375 -1.375q0 -0.734375 0.484375 -1.34375q0.5 -0.59375 1.40625 -1.0625q-0.546875 -0.21875 -0.875 -0.640625q-0.3125 -0.4375 -0.3125 -1.03125q0 -0.671875 0.375 -1.21875q0.375 -0.5625 1.328125 -1.28125q-0.84375 -0.484375 -1.28125 -1.328125q-0.4375 -0.84375 -0.4375 -1.921875q0 -1.015625 0.328125 -1.75q0.34375 -0.75 0.921875 -1.234375q0.59375 -0.484375 1.40625 -0.71875q0.8125 -0.25 1.75 -0.25q0.84375 0 1.671875 0.203125l4.15625 0l0 1.1875zm-8.140625 2.375q0 1.46875 0.59375 2.265625q0.609375 0.796875 1.734375 0.796875q0.59375 0 1.015625 -0.234375q0.421875 -0.234375 0.6875 -0.625q0.265625 -0.40625 0.375 -0.921875q0.125 -0.515625 0.125 -1.09375q0 -1.03125 -0.296875 -1.71875q-0.28125 -0.703125 -0.796875 -1.015625q-0.5 -0.328125 -1.15625 -0.328125q-1.109375 0 -1.703125 0.75q-0.578125 0.734375 -0.578125 2.125zm0.296875 7.828125q-0.59375 0.453125 -0.90625 0.9375q-0.296875 0.5 -0.296875 1.140625q0 1.046875 0.84375 1.546875q0.84375 0.5 2.5625 0.5q1.046875 0 1.796875 -0.28125q0.765625 -0.28125 1.15625 -0.8125q0.40625 -0.515625 0.40625 -1.21875q0 -0.328125 -0.078125 -0.640625q-0.078125 -0.3125 -0.3125 -0.5625q-0.234375 -0.25 -0.65625 -0.390625q-0.421875 -0.140625 -1.09375 -0.140625l-1.75 0q-0.953125 0 -1.671875 -0.078125zm26.203125 -15.609375q-0.515625 0.125 -0.75 0.265625q-0.21875 0.125 -0.359375 0.3125q-0.140625 0.1875 -0.203125 0.578125q-0.0625 0.390625 -0.0625 1.203125l0 10.125q0 0.796875 0.046875 1.15625q0.0625 0.359375 0.1875 0.578125q0.125 0.203125 0.359375 0.34375q0.234375 0.140625 0.78125 0.28125l0 0.578125l-4.890625 0l0 -0.578125q0.671875 -0.15625 0.921875 -0.359375q0.265625 -0.21875 0.359375 -0.625q0.09375 -0.421875 0.09375 -1.375l0 -4.484375q0 -1.765625 0.046875 -3.578125q0.0625 -1.8125 0.125 -2.484375l-0.203125 0l-4.640625 11.625l-1.34375 0l-4.3125 -11.8125l-0.203125 0q0.0625 0.71875 0.109375 2.59375q0.0625 1.875 0.0625 3.859375l0 4.28125q0 0.796875 0.046875 1.15625q0.0625 0.359375 0.171875 0.578125q0.125 0.203125 0.359375 0.34375q0.25 0.140625 0.796875 0.28125l0 0.578125l-4.28125 0l0 -0.578125q0.71875 -0.1875 0.96875 -0.40625q0.25 -0.234375 0.328125 -0.65625q0.078125 -0.421875 0.078125 -1.296875l0 -10.125q0 -0.8125 -0.0625 -1.171875q-0.0625 -0.375 -0.203125 -0.578125q-0.125 -0.21875 -0.359375 -0.328125q-0.21875 -0.125 -0.75 -0.28125l0 -0.578125l4.1875 0l4.109375 11.40625l4.515625 -11.40625l3.96875 0l0 0.578125zm9.3203125 13.75l-0.171875 -0.046875q-1.015625 1.03125 -1.921875 1.46875q-0.890625 0.4375 -1.890625 0.4375q-0.890625 0 -1.578125 -0.34375q-0.671875 -0.34375 -1.046875 -0.96875q-0.359375 -0.640625 -0.359375 -1.453125q0 -1.71875 1.6875 -2.640625q1.703125 -0.9375 5.09375 -1.09375l0 -0.75q0 -1.21875 -0.234375 -1.921875q-0.234375 -0.703125 -0.75 -1.03125q-0.5 -0.328125 -1.34375 -0.328125q-0.90625 0 -1.46875 0.484375q-0.5625 0.46875 -0.84375 1.4375l-1.53125 0l0 -1.53125q1.125 -0.578125 1.875 -0.859375q0.75 -0.28125 1.5 -0.4375q0.75 -0.15625 1.53125 -0.15625q1.15625 0 1.859375 0.375q0.703125 0.359375 1.046875 1.125q0.359375 0.765625 0.359375 2.296875l0 4.078125q0 0.875 0 1.234375q0.015625 0.34375 0.078125 0.65625q0.0625 0.296875 0.171875 0.484375q0.125 0.1875 0.34375 0.3125q0.234375 0.125 0.75 0.265625l0 0.578125l-3.203125 0l0.046875 -1.671875zm-0.1875 -3.671875q-2.390625 0.015625 -3.578125 0.625q-1.171875 0.609375 -1.171875 1.84375q0 0.671875 0.265625 1.0625q0.265625 0.375 0.671875 0.53125q0.421875 0.140625 0.984375 0.140625q0.796875 0 1.4375 -0.375q0.65625 -0.390625 1.015625 -0.984375q0.375 -0.609375 0.375 -1.1875l0 -1.65625zm10.09375 -1.421875l1.53125 -1.9375q0.234375 -0.3125 0.390625 -0.609375q0.15625 -0.296875 0.15625 -0.609375q0 -0.28125 -0.203125 -0.453125q-0.203125 -0.171875 -0.625 -0.25l0 -0.578125l3.84375 0l0 0.578125q-0.453125 0.125 -0.921875 0.5q-0.453125 0.375 -1.125 1.203125l-2.421875 2.984375l2.671875 3.59375q0.578125 0.765625 1.03125 1.1875q0.453125 0.40625 0.90625 0.578125l0 0.578125l-4.703125 0l0 -0.578125q0.96875 -0.109375 0.96875 -0.71875q0 -0.25 -0.078125 -0.46875q-0.078125 -0.234375 -0.3125 -0.515625l-1.6875 -2.375l-1.8125 2.34375q-0.203125 0.265625 -0.3125 0.484375q-0.109375 0.203125 -0.109375 0.484375q0 0.3125 0.21875 0.515625q0.21875 0.203125 0.6875 0.25l0 0.578125l-3.921875 0l0 -0.578125q0.390625 -0.140625 0.703125 -0.34375q0.3125 -0.21875 0.625 -0.546875q0.328125 -0.34375 0.859375 -0.984375l2.4375 -3.015625l-2.5 -3.421875q-0.515625 -0.703125 -0.828125 -1.015625q-0.296875 -0.328125 -0.5625 -0.484375q-0.25 -0.171875 -0.5 -0.234375l0 -0.578125l4.59375 0l0 0.578125q-0.9375 0.140625 -0.9375 0.71875q0 0.265625 0.125 0.546875q0.125 0.265625 0.390625 0.59375l1.421875 2.0z" fill-rule="nonzero"></path><path fill="#000000" fill-opacity="0.0" d="m676.8619 123.11286l107.52753 213.10236" fill-rule="evenodd"></path><path stroke="#000000" stroke-width="1.0" stroke-linejoin="round" stroke-linecap="butt" d="m676.8619 123.11286l104.824646 207.74567" fill-rule="evenodd"></path><path fill="#000000" stroke="#000000" stroke-width="1.0" stroke-linecap="butt" d="m780.2119 331.6026l3.518982 3.3074646l-0.56970215 -4.795624z" fill-rule="evenodd"></path><path fill="#000000" fill-opacity="0.0" d="m676.8619 176.29134l107.52753 159.937" fill-rule="evenodd"></path><path stroke="#000000" stroke-width="1.0" stroke-linejoin="round" stroke-linecap="butt" d="m676.8619 176.29134l104.17993 154.95772" fill-rule="evenodd"></path><path fill="#000000" stroke="#000000" stroke-width="1.0" stroke-linecap="butt" d="m779.6711 332.17062l3.90271 2.844513l-1.1612549 -4.6876526z" fill-rule="evenodd"></path><path fill="#000000" fill-opacity="0.0" d="m676.8619 229.46982l107.52753 106.74014" fill-rule="evenodd"></path><path stroke="#000000" stroke-width="1.0" stroke-linejoin="round" stroke-linecap="butt" d="m676.8619 229.46982l103.26935 102.51315" fill-rule="evenodd"></path><path fill="#000000" stroke="#000000" stroke-width="1.0" stroke-linecap="butt" d="m778.9676 333.15518l4.3843384 2.0248718l-2.0570679 -4.3693237z" fill-rule="evenodd"></path><path fill="#000000" fill-opacity="0.0" d="m676.8619 282.6483l107.52753 53.5748" fill-rule="evenodd"></path><path stroke="#000000" stroke-width="1.0" stroke-linejoin="round" stroke-linecap="butt" d="m676.8619 282.6483l102.15723 50.89908" fill-rule="evenodd"></path><path fill="#000000" stroke="#000000" stroke-width="1.0" stroke-linecap="butt" d="m778.28253 335.02576l4.798401 0.54541016l-3.3252563 -3.5021973z" fill-rule="evenodd"></path><path fill="#000000" fill-opacity="0.0" d="m676.8619 335.82678l107.52753 0.3779297" fill-rule="evenodd"></path><path stroke="#000000" stroke-width="1.0" stroke-linejoin="round" stroke-linecap="butt" d="m676.8619 335.82678l101.52759 0.35687256" fill-rule="evenodd"></path><path fill="#000000" stroke="#000000" stroke-width="1.0" stroke-linecap="butt" d="m778.38367 337.83536l4.5438843 -1.6357727l-4.5322876 -1.6676636z" fill-rule="evenodd"></path><path fill="#000000" fill-opacity="0.0" d="m676.8619 389.00525l107.52753 -52.787415" fill-rule="evenodd"></path><path stroke="#000000" stroke-width="1.0" stroke-linejoin="round" stroke-linecap="butt" d="m676.8619 389.00525l102.14154 -50.14331" fill-rule="evenodd"></path><path fill="#000000" stroke="#000000" stroke-width="1.0" stroke-linecap="butt" d="m779.7313 340.34464l3.3458252 -3.482544l-4.8015747 0.5171509z" fill-rule="evenodd"></path><path fill="#000000" fill-opacity="0.0" d="m676.8619 442.18372l107.52753 -105.98425" fill-rule="evenodd"></path><path stroke="#000000" stroke-width="1.0" stroke-linejoin="round" stroke-linecap="butt" d="m676.8619 442.18372l103.25433 -101.77237" fill-rule="evenodd"></path><path fill="#000000" stroke="#000000" stroke-width="1.0" stroke-linecap="butt" d="m781.2757 341.5877l2.0725708 -4.3619995l-4.3914795 2.0092773z" fill-rule="evenodd"></path><path fill="#000000" fill-opacity="0.0" d="m676.8619 495.3622l107.52753 -159.14963" fill-rule="evenodd"></path><path stroke="#000000" stroke-width="1.0" stroke-linejoin="round" stroke-linecap="butt" d="m676.8619 495.3622l104.16858 -154.17801" fill-rule="evenodd"></path><path fill="#000000" stroke="#000000" stroke-width="1.0" stroke-linecap="butt" d="m782.39905 342.10892l1.171936 -4.684967l-3.9091797 2.8355713z" fill-rule="evenodd"></path><path fill="#000000" fill-opacity="0.0" d="m676.8619 548.5407l107.52753 -212.315" fill-rule="evenodd"></path><path stroke="#000000" stroke-width="1.0" stroke-linejoin="round" stroke-linecap="butt" d="m676.8619 548.5407l104.81671 -206.96231" fill-rule="evenodd"></path><path fill="#000000" stroke="#000000" stroke-width="1.0" stroke-linecap="butt" d="m783.1521 342.32468l0.57684326 -4.7947693l-3.5239258 3.3022156z" fill-rule="evenodd"></path><path fill="#000000" fill-opacity="0.0" d="m676.8619 601.7192l107.52753 -265.51184" fill-rule="evenodd"></path><path stroke="#000000" stroke-width="1.0" stroke-linejoin="round" stroke-linecap="butt" d="m676.8619 601.7192l105.27533 -259.9506" fill-rule="evenodd"></path><path fill="#000000" stroke="#000000" stroke-width="1.0" stroke-linecap="butt" d="m783.66815 342.3886l0.17254639 -4.8262634l-3.234436 3.5862427z" fill-rule="evenodd"></path></g></svg>

