<svg version="1.1" viewBox="0.0 0.0 1533.3333333333333 234.66666666666666" fill="none" stroke="none" stroke-linecap="square" stroke-miterlimit="10" xmlns:xlink="http://www.w3.org/1999/xlink" xmlns="http://www.w3.org/2000/svg"><clipPath id="p.0"><path d="m0 0l1533.3334 0l0 234.66667l-1533.3334 0l0 -234.66667z" clip-rule="nonzero"/></clipPath><g clip-path="url(#p.0)"><path fill="#000000" fill-opacity="0.0" d="m0 0l1533.3334 0l0 234.66667l-1533.3334 0z" fill-rule="evenodd"/><path fill="#d9ead3" d="m63.357704 76.41646l0 0c0 -12.289673 9.962746 -22.252415 22.25241 -22.252415l145.57391 0c5.901703 0 11.561691 2.3444443 15.734833 6.517578c4.173126 4.1731377 6.517578 9.833126 6.517578 15.734837l0 89.00699c0 12.289658 -9.962753 22.25241 -22.25241 22.25241l-145.57391 0l0 0c-12.289665 0 -22.25241 -9.962753 -22.25241 -22.25241z" fill-rule="evenodd"/><path stroke="#000000" stroke-width="3.0" stroke-linejoin="round" stroke-linecap="butt" d="m63.357704 76.41646l0 0c0 -12.289673 9.962746 -22.252415 22.25241 -22.252415l145.57391 0c5.901703 0 11.561691 2.3444443 15.734833 6.517578c4.173126 4.1731377 6.517578 9.833126 6.517578 15.734837l0 89.00699c0 12.289658 -9.962753 22.25241 -22.25241 22.25241l-145.57391 0l0 0c-12.289665 0 -22.25241 -9.962753 -22.25241 -22.25241z" fill-rule="evenodd"/><path fill="#000000" d="m145.66512 112.470566l0 4.15625l-1.953125 0q-0.34375 -1.609375 -1.09375 -2.375q-0.734375 -0.765625 -1.9375 -0.765625q-2.265625 0 -3.421875 2.171875q-1.15625 2.15625 -1.15625 6.421875q0 3.96875 1.046875 6.015625q1.0625 2.03125 3.125 2.03125q1.03125 0 1.6875 -0.34375q0.671875 -0.34375 1.0625 -1.046875q0.390625 -0.703125 0.6875 -1.984375l1.953125 0l0 4.34375q-1.578125 0.375 -2.890625 0.546875q-1.296875 0.171875 -2.6875 0.171875q-2.984375 0 -4.875 -1.078125q-1.875 -1.078125 -2.78125 -3.25q-0.890625 -2.171875 -0.890625 -5.484375q0 -3.109375 1.046875 -5.40625q1.0625 -2.296875 3.109375 -3.546875q2.046875 -1.25 4.90625 -1.25q1.4375 0 2.609375 0.15625q1.1875 0.15625 2.453125 0.515625zm19.952744 -0.4375l0 0.9375q-0.578125 0.1875 -0.8125 0.328125q-0.234375 0.125 -0.40625 0.34375q-0.15625 0.203125 -0.25 0.640625q-0.078125 0.4375 -0.078125 1.34375l0 15.953125l-3.640625 0l-6.4375 -11.140625q-1.3125 -2.265625 -1.921875 -3.546875l-0.125 0q0.140625 3.078125 0.140625 6.5l0 4.609375q0 1.078125 0.09375 1.515625q0.109375 0.421875 0.390625 0.671875q0.28125 0.25 1.0625 0.453125l0 0.9375l-5.421875 0l0 -0.9375q0.53125 -0.15625 0.84375 -0.328125q0.3125 -0.171875 0.453125 -0.453125q0.15625 -0.296875 0.1875 -0.734375q0.046875 -0.453125 0.046875 -1.125l0 -12.390625q0 -1.078125 -0.09375 -1.484375q-0.09375 -0.40625 -0.390625 -0.671875q-0.28125 -0.28125 -1.046875 -0.484375l0 -0.9375l5.796875 0l5.078125 8.8125q0.46875 0.828125 1.21875 2.25q0.765625 1.40625 1.359375 2.671875l0.21875 0q-0.15625 -3.421875 -0.15625 -7.484375l0 -2.65625q0 -0.9375 -0.078125 -1.34375q-0.0625 -0.421875 -0.21875 -0.625q-0.140625 -0.21875 -0.390625 -0.359375q-0.25 -0.15625 -0.84375 -0.328125l0 -0.9375l5.421875 0zm19.919647 0l0 0.9375q-0.578125 0.1875 -0.8125 0.328125q-0.234375 0.125 -0.40625 0.34375q-0.15625 0.203125 -0.25 0.640625q-0.078125 0.4375 -0.078125 1.34375l0 15.953125l-3.640625 0l-6.4375 -11.140625q-1.3125 -2.265625 -1.921875 -3.546875l-0.125 0q0.140625 3.078125 0.140625 6.5l0 4.609375q0 1.078125 0.09375 1.515625q0.109375 0.421875 0.390625 0.671875q0.28125 0.25 1.0625 0.453125l0 0.9375l-5.421875 0l0 -0.9375q0.53125 -0.15625 0.84375 -0.328125q0.3125 -0.171875 0.453125 -0.453125q0.15625 -0.296875 0.1875 -0.734375q0.046875 -0.453125 0.046875 -1.125l0 -12.390625q0 -1.078125 -0.09375 -1.484375q-0.09375 -0.40625 -0.390625 -0.671875q-0.28125 -0.28125 -1.046875 -0.484375l0 -0.9375l5.796875 0l5.078125 8.8125q0.46875 0.828125 1.21875 2.25q0.765625 1.40625 1.359375 2.671875l0.21875 0q-0.15625 -3.421875 -0.15625 -7.484375l0 -2.65625q0 -0.9375 -0.078125 -1.34375q-0.0625 -0.421875 -0.21875 -0.625q-0.140625 -0.21875 -0.390625 -0.359375q-0.25 -0.15625 -0.84375 -0.328125l0 -0.9375l5.421875 0z" fill-rule="nonzero"/><path fill="#f4cccc" d="m305.6524 76.41646l0 0c0 -12.289673 9.962769 -22.252415 22.252441 -22.252415l145.57391 0c5.901703 0 11.561676 2.3444443 15.734833 6.517578c4.173126 4.1731377 6.517578 9.833126 6.517578 15.734837l0 89.00699c0 12.289658 -9.962769 22.25241 -22.25241 22.25241l-145.57391 0l0 0c-12.289673 0 -22.252441 -9.962753 -22.252441 -22.25241z" fill-rule="evenodd"/><path stroke="#000000" stroke-width="3.0" stroke-linejoin="round" stroke-linecap="butt" d="m305.6524 76.41646l0 0c0 -12.289673 9.962769 -22.252415 22.252441 -22.252415l145.57391 0c5.901703 0 11.561676 2.3444443 15.734833 6.517578c4.173126 4.1731377 6.517578 9.833126 6.517578 15.734837l0 89.00699c0 12.289658 -9.962769 22.25241 -22.25241 22.25241l-145.57391 0l0 0c-12.289673 0 -22.252441 -9.962753 -22.252441 -22.25241z" fill-rule="evenodd"/><path fill="#000000" d="m338.08884 121.345566q2.0 0.625 3.046875 1.828125q1.0625 1.1875 1.0625 2.859375q0 1.4375 -0.484375 2.5q-0.46875 1.0625 -1.453125 1.75q-0.984375 0.671875 -2.3125 0.984375q-1.3125 0.3125 -3.359375 0.3125l-8.828125 0l0 -0.9375q0.53125 -0.15625 0.828125 -0.3125q0.3125 -0.171875 0.46875 -0.453125q0.15625 -0.296875 0.1875 -0.75q0.046875 -0.453125 0.046875 -1.140625l0 -12.34375q0 -0.671875 -0.046875 -1.125q-0.03125 -0.46875 -0.1875 -0.75q-0.140625 -0.28125 -0.453125 -0.453125q-0.296875 -0.1875 -0.84375 -0.34375l0 -0.9375l9.375 0q1.609375 0 2.625 0.15625q1.34375 0.21875 2.328125 0.75q0.890625 0.46875 1.390625 1.34375q0.5 0.875 0.5 2.078125q0 3.234375 -3.890625 4.84375l0 0.140625zm-4.453125 -0.75q1.4375 0 2.25 -0.40625q0.8125 -0.421875 1.234375 -1.1875q0.421875 -0.765625 0.421875 -2.109375q0 -1.1875 -0.453125 -1.875q-0.453125 -0.703125 -1.3125 -1.0q-0.84375 -0.3125 -2.09375 -0.3125q-1.0 0 -1.953125 0.078125l0 6.8125l1.90625 0zm-1.90625 9.265625q0.84375 0.046875 1.953125 0.046875q1.359375 0 2.234375 -0.328125q0.890625 -0.34375 1.375 -1.1875q0.484375 -0.84375 0.484375 -2.296875q0 -1.03125 -0.265625 -1.765625q-0.25 -0.734375 -0.765625 -1.1875q-0.515625 -0.453125 -1.234375 -0.65625q-0.71875 -0.21875 -1.78125 -0.21875l-2.0 0l0 7.59375zm21.447113 -0.15625l-0.203125 -0.078125q-1.171875 1.15625 -2.28125 1.671875q-1.109375 0.515625 -2.359375 0.515625q-1.234375 0 -2.140625 -0.453125q-0.90625 -0.453125 -1.375 -1.25q-0.46875 -0.8125 -0.46875 -1.859375q0 -2.09375 2.0625 -3.296875q2.078125 -1.21875 6.28125 -1.53125l0 -1.359375q0 -1.34375 -0.296875 -2.0625q-0.296875 -0.71875 -0.78125 -1.015625q-0.46875 -0.296875 -1.125 -0.296875q-0.65625 0 -1.140625 0.234375q-0.46875 0.21875 -0.859375 0.859375q-0.390625 0.640625 -0.578125 1.765625l-2.703125 0l0 -2.59375q1.3125 -0.59375 2.1875 -0.90625q0.875 -0.3125 1.71875 -0.515625q0.859375 -0.21875 1.53125 -0.296875q0.671875 -0.09375 1.34375 -0.09375q1.734375 0 2.765625 0.46875q1.046875 0.453125 1.5625 1.484375q0.515625 1.03125 0.515625 2.84375l0 5.59375q0 0.9375 0.046875 1.453125q0.046875 0.515625 0.140625 0.765625q0.09375 0.25 0.234375 0.40625q0.140625 0.140625 0.34375 0.234375q0.21875 0.09375 0.78125 0.25l0 0.9375l-5.328125 0l0.125 -1.875zm-0.46875 -4.890625q-2.21875 0.0625 -3.28125 0.84375q-1.0625 0.765625 -1.0625 2.25q0 0.890625 0.484375 1.359375q0.484375 0.46875 1.34375 0.46875q0.65625 0 1.234375 -0.34375q0.59375 -0.359375 0.9375 -0.9375q0.34375 -0.59375 0.34375 -1.25l0 -2.390625zm17.50763 5.046875q-1.265625 1.078125 -2.296875 1.515625q-1.03125 0.4375 -2.171875 0.4375q-2.140625 0 -3.203125 -1.15625q-1.046875 -1.15625 -1.046875 -3.484375l0 -8.015625l-1.78125 0l0 -0.984375q0.875 -0.140625 1.28125 -0.421875q0.421875 -0.296875 0.640625 -0.765625q0.234375 -0.484375 0.375 -1.25q0.140625 -0.78125 0.203125 -1.9375l3.421875 0l0 3.578125l4.09375 0l0 1.78125l-4.09375 0l0 6.46875q0 1.609375 0.15625 2.390625q0.15625 0.765625 0.5 1.140625q0.359375 0.359375 0.890625 0.359375q0.40625 0 0.71875 -0.0625q0.3125 -0.078125 0.65625 -0.265625q0.359375 -0.1875 0.75 -0.53125l0.90625 1.203125zm11.419983 -1.953125l1.109375 1.34375q-1.40625 1.375 -2.71875 1.96875q-1.3125 0.59375 -2.859375 0.59375q-3.109375 0 -4.75 -1.828125q-1.625 -1.828125 -1.625 -5.3125q0 -2.34375 0.890625 -4.046875q0.90625 -1.71875 2.578125 -2.59375q1.671875 -0.890625 3.84375 -0.890625q1.15625 0 2.3125 0.171875q1.15625 0.15625 2.09375 0.453125l0 3.4375l-2.828125 0q-0.21875 -1.34375 -0.65625 -1.953125q-0.421875 -0.625 -1.21875 -0.625q-0.53125 0 -1.015625 0.265625q-0.484375 0.265625 -0.84375 0.921875q-0.359375 0.65625 -0.578125 1.75q-0.21875 1.09375 -0.21875 2.765625q0 1.671875 0.3125 2.828125q0.3125 1.15625 1.015625 1.78125q0.703125 0.625 1.84375 0.625q0.84375 0 1.578125 -0.359375q0.734375 -0.359375 1.734375 -1.296875zm8.247559 -8.640625q1.3125 -1.15625 2.328125 -1.640625q1.03125 -0.484375 2.09375 -0.484375q1.578125 0 2.4375 0.578125q0.859375 0.578125 1.25 1.671875q0.40625 1.09375 0.40625 2.828125l0 5.21875q0 0.625 0.015625 1.1875q0.015625 0.546875 0.09375 0.875q0.09375 0.328125 0.25 0.546875q0.15625 0.203125 0.421875 0.34375q0.265625 0.140625 0.65625 0.25l0 0.9375l-6.9375 0l0 -0.9375q0.671875 -0.171875 0.921875 -0.46875q0.25 -0.296875 0.34375 -0.828125q0.09375 -0.53125 0.09375 -1.890625l0 -3.734375q0 -1.4375 -0.09375 -2.234375q-0.09375 -0.796875 -0.328125 -1.21875q-0.21875 -0.4375 -0.5625 -0.65625q-0.34375 -0.21875 -0.921875 -0.21875q-0.546875 0 -1.140625 0.34375q-0.59375 0.328125 -0.984375 0.90625q-0.390625 0.578125 -0.390625 1.25l0 5.546875q0 0.796875 0.015625 1.234375q0.015625 0.4375 0.0625 0.6875q0.046875 0.234375 0.125 0.421875q0.078125 0.171875 0.203125 0.34375q0.125 0.15625 0.375 0.28125q0.25 0.125 0.640625 0.234375l0 0.9375l-7.015625 0l0 -0.9375q0.4375 -0.109375 0.671875 -0.234375q0.25 -0.140625 0.375 -0.3125q0.140625 -0.1875 0.234375 -0.46875q0.109375 -0.28125 0.140625 -0.765625q0.03125 -0.5 0.03125 -1.421875l0 -11.171875q0 -1.234375 -0.03125 -1.8125q-0.015625 -0.578125 -0.09375 -0.96875q-0.0625 -0.390625 -0.21875 -0.625q-0.140625 -0.234375 -0.40625 -0.375q-0.265625 -0.15625 -0.875 -0.265625l0 -0.953125l3.96875 -0.1875l1.796875 0l0 8.171875l0.046875 0.015625zm29.593231 -7.234375l0 0.9375q-0.578125 0.1875 -0.8125 0.328125q-0.234375 0.125 -0.40625 0.34375q-0.15625 0.203125 -0.25 0.640625q-0.078125 0.4375 -0.078125 1.34375l0 15.953125l-3.640625 0l-6.4375 -11.140625q-1.3125 -2.265625 -1.921875 -3.546875l-0.125 0q0.140625 3.078125 0.140625 6.5l0 4.609375q0 1.078125 0.09375 1.515625q0.109375 0.421875 0.390625 0.671875q0.28125 0.25 1.0625 0.453125l0 0.9375l-5.421875 0l0 -0.9375q0.53125 -0.15625 0.84375 -0.328125q0.3125 -0.171875 0.453125 -0.453125q0.15625 -0.296875 0.1875 -0.734375q0.046875 -0.453125 0.046875 -1.125l0 -12.390625q0 -1.078125 -0.09375 -1.484375q-0.09375 -0.40625 -0.390625 -0.671875q-0.28125 -0.28125 -1.046875 -0.484375l0 -0.9375l5.796875 0l5.078125 8.8125q0.46875 0.828125 1.21875 2.25q0.765625 1.40625 1.359375 2.671875l0.21875 0q-0.15625 -3.421875 -0.15625 -7.484375l0 -2.65625q0 -0.9375 -0.078125 -1.34375q-0.0625 -0.421875 -0.21875 -0.625q-0.140625 -0.21875 -0.390625 -0.359375q-0.25 -0.15625 -0.84375 -0.328125l0 -0.9375l5.421875 0zm9.357147 19.78125q-2.09375 0 -3.625 -0.734375q-1.53125 -0.75 -2.390625 -2.375q-0.859375 -1.625 -0.859375 -4.125q0 -1.921875 0.53125 -3.328125q0.53125 -1.40625 1.46875 -2.3125q0.953125 -0.921875 2.265625 -1.359375q1.3125 -0.4375 2.84375 -0.4375q3.46875 0 5.21875 1.828125q1.765625 1.828125 1.765625 5.34375q0 2.5 -0.875 4.1875q-0.875 1.671875 -2.5 2.5q-1.609375 0.8125 -3.84375 0.8125zm-2.515625 -7.546875q0 3.03125 0.671875 4.546875q0.6875 1.5 2.0625 1.5q0.765625 0 1.265625 -0.375q0.515625 -0.390625 0.8125 -1.125q0.3125 -0.734375 0.4375 -1.75q0.140625 -1.03125 0.140625 -2.296875q0 -3.078125 -0.6875 -4.609375q-0.671875 -1.53125 -2.015625 -1.53125q-0.96875 0 -1.5625 0.625q-0.578125 0.609375 -0.859375 1.84375q-0.265625 1.234375 -0.265625 3.171875zm17.619446 -4.84375l0.1875 0.046875q1.03125 -1.234375 2.140625 -1.78125q1.109375 -0.546875 2.390625 -0.546875q0.875 0 1.828125 0.1875l0 3.953125l-2.578125 0q-0.25 -0.828125 -0.640625 -1.265625q-0.390625 -0.453125 -1.0625 -0.453125q-0.3125 0 -0.6875 0.203125q-0.375 0.1875 -0.703125 0.546875q-0.328125 0.34375 -0.46875 0.703125q-0.125 0.359375 -0.171875 0.734375q-0.03125 0.375 -0.03125 1.125l0 4.5625q0 1.359375 0.09375 1.90625q0.09375 0.546875 0.390625 0.859375q0.3125 0.296875 1.03125 0.4375l0 0.9375l-7.0625 0l0 -0.9375q0.6875 -0.1875 0.953125 -0.484375q0.265625 -0.3125 0.359375 -0.828125q0.09375 -0.515625 0.09375 -1.875l0 -5.890625q0 -1.046875 -0.046875 -1.5625q-0.03125 -0.515625 -0.171875 -0.8125q-0.125 -0.3125 -0.40625 -0.5q-0.28125 -0.203125 -0.96875 -0.34375l0 -0.96875l3.921875 -0.125l1.8125 0l-0.203125 2.171875zm13.51712 -0.109375l0.171875 0.046875q1.296875 -1.21875 2.34375 -1.71875q1.046875 -0.5 2.140625 -0.5q1.046875 0 1.75 0.28125q0.703125 0.265625 1.1875 0.796875q0.5 0.515625 0.796875 1.359375q1.4375 -1.34375 2.5 -1.890625q1.078125 -0.546875 2.234375 -0.546875q1.15625 0 1.90625 0.3125q0.75 0.296875 1.234375 0.921875q0.484375 0.625 0.703125 1.578125q0.21875 0.9375 0.21875 2.265625l0 5.21875q0 0.625 0.015625 1.1875q0.03125 0.546875 0.109375 0.875q0.09375 0.328125 0.234375 0.546875q0.15625 0.203125 0.421875 0.34375q0.28125 0.140625 0.671875 0.25l0 0.9375l-6.90625 0l0 -0.9375q0.65625 -0.171875 0.890625 -0.46875q0.25 -0.296875 0.34375 -0.828125q0.09375 -0.53125 0.09375 -1.890625l0 -3.84375q0 -1.28125 -0.09375 -2.09375q-0.078125 -0.8125 -0.328125 -1.265625q-0.25 -0.453125 -0.59375 -0.65625q-0.328125 -0.203125 -0.859375 -0.203125q-0.375 0 -0.703125 0.125q-0.3125 0.109375 -0.640625 0.34375q-0.3125 0.234375 -0.546875 0.484375q-0.21875 0.234375 -0.359375 0.546875q-0.140625 0.296875 -0.1875 0.671875q-0.046875 0.359375 -0.046875 1.203125l0 4.671875q0 0.96875 0.03125 1.484375q0.046875 0.515625 0.15625 0.84375q0.109375 0.3125 0.359375 0.515625q0.25 0.203125 0.78125 0.359375l0 0.9375l-6.8125 0l0 -0.9375q0.65625 -0.171875 0.90625 -0.46875q0.25 -0.296875 0.328125 -0.8125q0.09375 -0.53125 0.09375 -1.90625l0 -3.84375q0 -0.9375 -0.03125 -1.578125q-0.03125 -0.65625 -0.125 -1.0625q-0.078125 -0.40625 -0.234375 -0.703125q-0.15625 -0.296875 -0.34375 -0.484375q-0.1875 -0.1875 -0.453125 -0.28125q-0.265625 -0.109375 -0.671875 -0.109375q-0.53125 0 -1.109375 0.328125q-0.578125 0.328125 -0.96875 0.921875q-0.390625 0.578125 -0.390625 1.25l0 5.546875q0 1.34375 0.078125 1.890625q0.078125 0.53125 0.328125 0.84375q0.265625 0.296875 0.90625 0.46875l0 0.9375l-6.859375 0l0 -0.9375q0.6875 -0.1875 0.953125 -0.484375q0.265625 -0.3125 0.359375 -0.828125q0.09375 -0.515625 0.09375 -1.875l0 -5.890625q0 -1.046875 -0.046875 -1.5625q-0.03125 -0.515625 -0.171875 -0.8125q-0.125 -0.3125 -0.40625 -0.5q-0.28125 -0.203125 -0.96875 -0.34375l0 -0.96875l3.921875 -0.125l1.8125 0l-0.21875 2.0625z" fill-rule="nonzero"/><path fill="#c9daf8" d="m547.94714 76.41646l0 0c0 -12.289673 9.9627075 -22.252415 22.25238 -22.252415l145.57391 0c5.9017334 0 11.561707 2.3444443 15.734863 6.517578c4.1731567 4.1731377 6.517578 9.833126 6.517578 15.734837l0 89.00699c0 12.289658 -9.962769 22.25241 -22.252441 22.25241l-145.57391 0l0 0c-12.289673 0 -22.25238 -9.962753 -22.25238 -22.25241z" fill-rule="evenodd"/><path stroke="#000000" stroke-width="3.0" stroke-linejoin="round" stroke-linecap="butt" d="m547.94714 76.41646l0 0c0 -12.289673 9.9627075 -22.252415 22.25238 -22.252415l145.57391 0c5.9017334 0 11.561707 2.3444443 15.734863 6.517578c4.1731567 4.1731377 6.517578 9.833126 6.517578 15.734837l0 89.00699c0 12.289658 -9.962769 22.25241 -22.252441 22.25241l-145.57391 0l0 0c-12.289673 0 -22.25238 -9.962753 -22.25238 -22.25241z" fill-rule="evenodd"/><path fill="#000000" d="m617.0501 131.57994l-7.515625 0l0 -0.9375q0.53125 -0.15625 0.828125 -0.3125q0.3125 -0.171875 0.46875 -0.453125q0.15625 -0.296875 0.1875 -0.75q0.046875 -0.453125 0.046875 -1.140625l0 -12.34375q0 -0.671875 -0.046875 -1.125q-0.03125 -0.46875 -0.1875 -0.75q-0.140625 -0.28125 -0.453125 -0.453125q-0.296875 -0.1875 -0.84375 -0.34375l0 -0.9375l8.34375 0q1.6875 0 2.875 0.234375q1.1875 0.234375 2.078125 0.71875q0.734375 0.40625 1.25 1.015625q0.515625 0.609375 0.796875 1.421875q0.28125 0.8125 0.28125 1.875q0 1.40625 -0.5 2.40625q-0.484375 1.0 -1.328125 1.671875q-0.84375 0.671875 -2.234375 1.25l0 0.140625q1.046875 0.46875 1.734375 1.234375q0.703125 0.765625 1.265625 1.9375l0.90625 1.953125q0.59375 1.296875 1.1875 1.953125q0.59375 0.640625 1.421875 0.796875l0 0.9375l-5.515625 0q-0.828125 -1.140625 -1.875 -3.40625l-1.125 -2.453125q-0.5 -1.09375 -0.859375 -1.546875q-0.359375 -0.453125 -0.734375 -0.625q-0.375 -0.171875 -1.171875 -0.171875l-0.828125 0l0 4.609375q0 1.078125 0.09375 1.515625q0.109375 0.421875 0.390625 0.6875q0.296875 0.25 1.0625 0.453125l0 0.9375zm-1.546875 -17.84375l0 7.96875l1.421875 0q1.140625 0 1.890625 -0.3125q0.75 -0.3125 1.171875 -0.859375q0.4375 -0.546875 0.609375 -1.296875q0.171875 -0.75 0.171875 -1.640625q0 -1.9375 -0.921875 -2.90625q-0.921875 -0.984375 -2.71875 -0.984375q-1.234375 0 -1.625 0.03125zm25.717896 15.234375q-1.453125 1.546875 -2.890625 2.203125q-1.4375 0.640625 -3.296875 0.640625q-3.328125 0 -5.015625 -1.828125q-1.6875 -1.828125 -1.6875 -5.421875q0 -2.328125 0.859375 -4.0q0.875 -1.6875 2.46875 -2.546875q1.59375 -0.875 3.6875 -0.875q1.3125 0 2.28125 0.3125q0.984375 0.296875 1.6875 0.828125q0.703125 0.53125 1.171875 1.296875q0.53125 0.90625 0.8125 2.0625q0.28125 1.1875 0.296875 2.875l-9.078125 0q0.015625 2.59375 0.921875 3.828125q0.90625 1.21875 2.765625 1.21875q1.09375 0 1.96875 -0.40625q0.875 -0.40625 1.890625 -1.4375l1.15625 1.25zm-3.859375 -6.0q-0.0625 -2.1875 -0.578125 -3.265625q-0.515625 -1.078125 -1.65625 -1.078125q-1.109375 0 -1.765625 1.125q-0.640625 1.109375 -0.765625 3.21875l4.765625 0zm14.128723 -10.9375l0 0.9375q-0.515625 0.15625 -0.8125 0.328125q-0.296875 0.15625 -0.46875 0.4375q-0.15625 0.28125 -0.21875 0.734375q-0.046875 0.453125 -0.046875 1.140625l0 14.265625l2.78125 0q0.828125 0 1.328125 -0.25q0.5 -0.265625 0.859375 -0.796875q0.375 -0.546875 0.640625 -1.40625q0.265625 -0.875 0.421875 -1.625l1.96875 0l-0.328125 5.78125l-13.640625 0l0 -0.9375q0.53125 -0.15625 0.828125 -0.328125q0.3125 -0.171875 0.46875 -0.453125q0.15625 -0.296875 0.1875 -0.75q0.046875 -0.453125 0.046875 -1.140625l0 -12.328125q0 -0.671875 -0.046875 -1.125q-0.03125 -0.46875 -0.1875 -0.75q-0.140625 -0.28125 -0.453125 -0.453125q-0.296875 -0.1875 -0.84375 -0.34375l0 -0.9375l7.515625 0zm20.473694 3.59375q0 -1.078125 -0.09375 -1.5q-0.078125 -0.421875 -0.359375 -0.671875q-0.265625 -0.265625 -1.0625 -0.484375l0 -0.9375l6.3125 0l0 0.9375q-0.515625 0.15625 -0.828125 0.328125q-0.296875 0.15625 -0.453125 0.453125q-0.15625 0.28125 -0.203125 0.734375q-0.046875 0.453125 -0.046875 1.140625l0 8.953125q0 1.765625 -0.28125 2.96875q-0.28125 1.203125 -0.890625 2.015625q-0.59375 0.8125 -1.5 1.3125q-0.890625 0.5 -2.015625 0.71875q-1.109375 0.21875 -2.5 0.21875q-2.03125 0 -3.4375 -0.421875q-1.390625 -0.421875 -2.28125 -1.265625q-0.875 -0.859375 -1.296875 -2.078125q-0.421875 -1.21875 -0.421875 -3.140625l0 -9.265625q0 -0.671875 -0.046875 -1.125q-0.03125 -0.46875 -0.1875 -0.75q-0.140625 -0.28125 -0.453125 -0.453125q-0.3125 -0.1875 -0.84375 -0.34375l0 -0.9375l7.515625 0l0 0.9375q-0.59375 0.171875 -0.875 0.34375q-0.28125 0.171875 -0.421875 0.4375q-0.140625 0.25 -0.203125 0.671875q-0.046875 0.421875 -0.046875 1.21875l0 9.453125q0 1.125 0.140625 2.0625q0.140625 0.921875 0.515625 1.59375q0.390625 0.671875 1.0625 1.03125q0.671875 0.34375 1.734375 0.34375q1.453125 0 2.171875 -0.578125q0.71875 -0.59375 1.0 -1.640625q0.296875 -1.046875 0.296875 -3.140625l0 -9.140625z" fill-rule="nonzero"/><path fill="#fce5cd" d="m790.2418 76.41646l0 0c0 -12.289673 9.962769 -22.252415 22.252441 -22.252415l145.57391 0c5.9016724 0 11.561707 2.3444443 15.734802 6.517578c4.1731567 4.1731377 6.517578 9.833126 6.517578 15.734837l0 89.00699c0 12.289658 -9.9627075 22.25241 -22.25238 22.25241l-145.57391 0l0 0c-12.289673 0 -22.252441 -9.962753 -22.252441 -22.25241z" fill-rule="evenodd"/><path stroke="#000000" stroke-width="3.0" stroke-linejoin="round" stroke-linecap="butt" d="m790.2418 76.41646l0 0c0 -12.289673 9.962769 -22.252415 22.252441 -22.252415l145.57391 0c5.9016724 0 11.561707 2.3444443 15.734802 6.517578c4.1731567 4.1731377 6.517578 9.833126 6.517578 15.734837l0 89.00699c0 12.289658 -9.9627075 22.25241 -22.25238 22.25241l-145.57391 0l0 0c-12.289673 0 -22.252441 -9.962753 -22.252441 -22.25241z" fill-rule="evenodd"/><path fill="#000000" d="m837.65845 112.033066q2.390625 0 3.984375 0.375q1.609375 0.375 2.84375 1.171875q1.25 0.796875 2.015625 1.90625q0.765625 1.109375 1.140625 2.578125q0.375 1.46875 0.375 3.3125q0 2.234375 -0.53125 4.015625q-0.515625 1.78125 -1.5625 3.03125q-0.921875 1.140625 -2.28125 1.875q-1.34375 0.71875 -3.109375 1.03125q-1.515625 0.25 -3.828125 0.25l-6.5 0l0 -0.9375q0.53125 -0.15625 0.828125 -0.3125q0.3125 -0.171875 0.46875 -0.453125q0.15625 -0.296875 0.1875 -0.75q0.046875 -0.453125 0.046875 -1.140625l0 -12.34375q0 -0.671875 -0.046875 -1.125q-0.03125 -0.46875 -0.1875 -0.75q-0.140625 -0.28125 -0.453125 -0.453125q-0.296875 -0.1875 -0.84375 -0.34375l0 -0.9375l7.453125 0zm-1.484375 17.8125q0.265625 0.046875 1.3125 0.046875q1.5625 0 2.640625 -0.453125q0.796875 -0.34375 1.359375 -0.953125q0.9375 -0.984375 1.40625 -2.5625q0.515625 -1.71875 0.515625 -4.203125q0 -2.71875 -0.734375 -4.515625q-0.71875 -1.796875 -2.046875 -2.640625q-1.328125 -0.859375 -3.171875 -0.859375q-0.890625 0 -1.28125 0.03125l0 16.109375zm19.898682 -10.421875l0.1875 0.046875q1.03125 -1.234375 2.140625 -1.78125q1.109375 -0.546875 2.390625 -0.546875q0.875 0 1.828125 0.1875l0 3.953125l-2.578125 0q-0.25 -0.828125 -0.640625 -1.265625q-0.390625 -0.453125 -1.0625 -0.453125q-0.3125 0 -0.6875 0.203125q-0.375 0.1875 -0.703125 0.546875q-0.328125 0.34375 -0.46875 0.703125q-0.125 0.359375 -0.171875 0.734375q-0.03125 0.375 -0.03125 1.125l0 4.5625q0 1.359375 0.09375 1.90625q0.09375 0.546875 0.390625 0.859375q0.3125 0.296875 1.03125 0.4375l0 0.9375l-7.0625 0l0 -0.9375q0.6875 -0.1875 0.953125 -0.484375q0.265625 -0.3125 0.359375 -0.828125q0.09375 -0.515625 0.09375 -1.875l0 -5.890625q0 -1.046875 -0.046875 -1.5625q-0.03125 -0.515625 -0.171875 -0.8125q-0.125 -0.3125 -0.40625 -0.5q-0.28125 -0.203125 -0.96875 -0.34375l0 -0.96875l3.921875 -0.125l1.8125 0l-0.203125 2.171875zm14.696838 12.390625q-2.09375 0 -3.625 -0.734375q-1.53125 -0.75 -2.390625 -2.375q-0.859375 -1.625 -0.859375 -4.125q0 -1.921875 0.53125 -3.328125q0.53125 -1.40625 1.46875 -2.3125q0.953125 -0.921875 2.265625 -1.359375q1.3125 -0.4375 2.84375 -0.4375q3.46875 0 5.21875 1.828125q1.765625 1.828125 1.765625 5.34375q0 2.5 -0.875 4.1875q-0.875 1.671875 -2.5 2.5q-1.609375 0.8125 -3.84375 0.8125zm-2.515625 -7.546875q0 3.03125 0.671875 4.546875q0.6875 1.5 2.0625 1.5q0.765625 0 1.265625 -0.375q0.515625 -0.390625 0.8125 -1.125q0.3125 -0.734375 0.4375 -1.75q0.140625 -1.03125 0.140625 -2.296875q0 -3.078125 -0.6875 -4.609375q-0.671875 -1.53125 -2.015625 -1.53125q-0.96875 0 -1.5625 0.625q-0.578125 0.609375 -0.859375 1.84375q-0.265625 1.234375 -0.265625 3.171875zm17.63507 9.875q0 1.078125 0.109375 1.515625q0.109375 0.453125 0.40625 0.703125q0.296875 0.265625 1.03125 0.4375l0 0.9375l-7.125 0l0 -0.9375q0.671875 -0.203125 0.9375 -0.453125q0.265625 -0.234375 0.375 -0.671875q0.125 -0.4375 0.125 -1.53125l0 -12.53125q0 -1.015625 -0.03125 -1.4375q-0.015625 -0.4375 -0.09375 -0.734375q-0.078125 -0.296875 -0.21875 -0.484375q-0.140625 -0.203125 -0.421875 -0.34375q-0.28125 -0.15625 -0.828125 -0.265625l0 -0.96875l3.96875 -0.125l1.765625 0l-0.21875 2.078125l0.171875 0.046875q1.234375 -1.1875 2.296875 -1.703125q1.0625 -0.53125 2.203125 -0.53125q2.546875 0 3.8125 1.796875q1.28125 1.796875 1.28125 5.375q0 2.484375 -0.75 4.15625q-0.75 1.65625 -2.25 2.5q-1.484375 0.84375 -3.65625 0.84375q-1.484375 0 -2.890625 -0.375l0 2.703125zm0 -7.265625q0 1.765625 0.59375 2.609375q0.609375 0.828125 1.890625 0.828125q1.3125 0 2.0 -1.375q0.703125 -1.390625 0.703125 -3.953125q0 -2.84375 -0.625 -4.21875q-0.609375 -1.375 -1.9375 -1.375q-0.640625 0 -1.25 0.328125q-0.609375 0.328125 -1.0 0.9375q-0.375 0.609375 -0.375 1.375l0 4.84375zm19.091919 4.9375q-2.09375 0 -3.625 -0.734375q-1.53125 -0.75 -2.390625 -2.375q-0.859375 -1.625 -0.859375 -4.125q0 -1.921875 0.53125 -3.328125q0.53125 -1.40625 1.46875 -2.3125q0.953125 -0.921875 2.265625 -1.359375q1.3125 -0.4375 2.84375 -0.4375q3.46875 0 5.21875 1.828125q1.765625 1.828125 1.765625 5.34375q0 2.5 -0.875 4.1875q-0.875 1.671875 -2.5 2.5q-1.609375 0.8125 -3.84375 0.8125zm-2.515625 -7.546875q0 3.03125 0.671875 4.546875q0.6875 1.5 2.0625 1.5q0.765625 0 1.265625 -0.375q0.515625 -0.390625 0.8125 -1.125q0.3125 -0.734375 0.4375 -1.75q0.140625 -1.03125 0.140625 -2.296875q0 -3.078125 -0.6875 -4.609375q-0.671875 -1.53125 -2.015625 -1.53125q-0.96875 0 -1.5625 0.625q-0.578125 0.609375 -0.859375 1.84375q-0.265625 1.234375 -0.265625 3.171875zm11.963196 -6.890625l5.5625 0l0 7.9375q0 1.375 0.078125 2.15625q0.09375 0.765625 0.328125 1.21875q0.25 0.453125 0.59375 0.671875q0.359375 0.203125 0.90625 0.203125q0.53125 0 1.109375 -0.328125q0.59375 -0.328125 1.0 -0.921875q0.40625 -0.59375 0.40625 -1.28125l0 -5.515625q0 -1.046875 -0.046875 -1.546875q-0.03125 -0.515625 -0.15625 -0.796875q-0.125 -0.296875 -0.390625 -0.484375q-0.25 -0.203125 -0.828125 -0.375l0 -0.9375l5.578125 0l0 10.015625q0 1.09375 0.03125 1.59375q0.046875 0.5 0.171875 0.8125q0.125 0.296875 0.40625 0.484375q0.296875 0.1875 0.96875 0.34375l0 0.953125l-3.890625 0.125l-1.734375 0l0.125 -2.0625l-0.171875 -0.03125q-1.328125 1.21875 -2.375 1.71875q-1.046875 0.484375 -2.109375 0.484375q-1.515625 0 -2.421875 -0.5625q-0.90625 -0.578125 -1.3125 -1.671875q-0.40625 -1.09375 -0.40625 -2.828125l0 -5.234375q0 -0.8125 -0.015625 -1.234375q-0.015625 -0.4375 -0.0625 -0.671875q-0.046875 -0.234375 -0.125 -0.421875q-0.078125 -0.203125 -0.21875 -0.359375q-0.125 -0.15625 -0.375 -0.28125q-0.234375 -0.125 -0.625 -0.234375l0 -0.9375zm27.623169 12.484375q-1.265625 1.078125 -2.296875 1.515625q-1.03125 0.4375 -2.171875 0.4375q-2.140625 0 -3.203125 -1.15625q-1.046875 -1.15625 -1.046875 -3.484375l0 -8.015625l-1.78125 0l0 -0.984375q0.875 -0.140625 1.28125 -0.421875q0.421875 -0.296875 0.640625 -0.765625q0.234375 -0.484375 0.375 -1.25q0.140625 -0.78125 0.203125 -1.9375l3.421875 0l0 3.578125l4.09375 0l0 1.78125l-4.09375 0l0 6.46875q0 1.609375 0.15625 2.390625q0.15625 0.765625 0.5 1.140625q0.359375 0.359375 0.890625 0.359375q0.40625 0 0.71875 -0.0625q0.3125 -0.078125 0.65625 -0.265625q0.359375 -0.1875 0.75 -0.53125l0.90625 1.203125z" fill-rule="nonzero"/><path fill="#d9ead3" d="m1032.5365 76.41646l0 0c0 -12.289673 9.962769 -22.252415 22.252441 -22.252415l145.57397 0c5.9017334 0 11.5616455 2.3444443 15.734741 6.517578c4.173218 4.1731377 6.5177 9.833126 6.5177 15.734837l0 89.00699c0 12.289658 -9.962769 22.25241 -22.252441 22.25241l-145.57397 0l0 0c-12.289673 0 -22.252441 -9.962753 -22.252441 -22.25241z" fill-rule="evenodd"/><path stroke="#000000" stroke-width="3.0" stroke-linejoin="round" stroke-linecap="butt" d="m1032.5365 76.41646l0 0c0 -12.289673 9.962769 -22.252415 22.252441 -22.252415l145.57397 0c5.9017334 0 11.5616455 2.3444443 15.734741 6.517578c4.173218 4.1731377 6.5177 9.833126 6.5177 15.734837l0 89.00699c0 12.289658 -9.962769 22.25241 -22.252441 22.25241l-145.57397 0l0 0c-12.289673 0 -22.252441 -9.962753 -22.252441 -22.25241z" fill-rule="evenodd"/><path fill="#000000" d="m1114.844 112.470566l0 4.15625l-1.953125 0q-0.34375 -1.609375 -1.09375 -2.375q-0.734375 -0.765625 -1.9375 -0.765625q-2.265625 0 -3.421875 2.171875q-1.15625 2.15625 -1.15625 6.421875q0 3.96875 1.046875 6.015625q1.0625 2.03125 3.125 2.03125q1.03125 0 1.6875 -0.34375q0.671875 -0.34375 1.0625 -1.046875q0.390625 -0.703125 0.6875 -1.984375l1.953125 0l0 4.34375q-1.578125 0.375 -2.890625 0.546875q-1.296875 0.171875 -2.6875 0.171875q-2.984375 0 -4.875 -1.078125q-1.875 -1.078125 -2.78125 -3.25q-0.890625 -2.171875 -0.890625 -5.484375q0 -3.109375 1.046875 -5.40625q1.0625 -2.296875 3.109375 -3.546875q2.046875 -1.25 4.90625 -1.25q1.4375 0 2.609375 0.15625q1.1875 0.15625 2.453125 0.515625zm19.952759 -0.4375l0 0.9375q-0.578125 0.1875 -0.8125 0.328125q-0.234375 0.125 -0.40625 0.34375q-0.15625 0.203125 -0.25 0.640625q-0.078125 0.4375 -0.078125 1.34375l0 15.953125l-3.640625 0l-6.4375 -11.140625q-1.3125 -2.265625 -1.921875 -3.546875l-0.125 0q0.140625 3.078125 0.140625 6.5l0 4.609375q0 1.078125 0.09375 1.515625q0.109375 0.421875 0.390625 0.671875q0.28125 0.25 1.0625 0.453125l0 0.9375l-5.421875 0l0 -0.9375q0.53125 -0.15625 0.84375 -0.328125q0.3125 -0.171875 0.453125 -0.453125q0.15625 -0.296875 0.1875 -0.734375q0.046875 -0.453125 0.046875 -1.125l0 -12.390625q0 -1.078125 -0.09375 -1.484375q-0.09375 -0.40625 -0.390625 -0.671875q-0.28125 -0.28125 -1.046875 -0.484375l0 -0.9375l5.796875 0l5.078125 8.8125q0.46875 0.828125 1.21875 2.25q0.765625 1.40625 1.359375 2.671875l0.21875 0q-0.15625 -3.421875 -0.15625 -7.484375l0 -2.65625q0 -0.9375 -0.078125 -1.34375q-0.0625 -0.421875 -0.21875 -0.625q-0.140625 -0.21875 -0.390625 -0.359375q-0.25 -0.15625 -0.84375 -0.328125l0 -0.9375l5.421875 0zm19.919556 0l0 0.9375q-0.578125 0.1875 -0.8125 0.328125q-0.234375 0.125 -0.40625 0.34375q-0.15625 0.203125 -0.25 0.640625q-0.078125 0.4375 -0.078125 1.34375l0 15.953125l-3.640625 0l-6.4375 -11.140625q-1.3125 -2.265625 -1.921875 -3.546875l-0.125 0q0.140625 3.078125 0.140625 6.5l0 4.609375q0 1.078125 0.09375 1.515625q0.109375 0.421875 0.390625 0.671875q0.28125 0.25 1.0625 0.453125l0 0.9375l-5.421875 0l0 -0.9375q0.53125 -0.15625 0.84375 -0.328125q0.3125 -0.171875 0.453125 -0.453125q0.15625 -0.296875 0.1875 -0.734375q0.046875 -0.453125 0.046875 -1.125l0 -12.390625q0 -1.078125 -0.09375 -1.484375q-0.09375 -0.40625 -0.390625 -0.671875q-0.28125 -0.28125 -1.046875 -0.484375l0 -0.9375l5.796875 0l5.078125 8.8125q0.46875 0.828125 1.21875 2.25q0.765625 1.40625 1.359375 2.671875l0.21875 0q-0.15625 -3.421875 -0.15625 -7.484375l0 -2.65625q0 -0.9375 -0.078125 -1.34375q-0.0625 -0.421875 -0.21875 -0.625q-0.140625 -0.21875 -0.390625 -0.359375q-0.25 -0.15625 -0.84375 -0.328125l0 -0.9375l5.421875 0z" fill-rule="nonzero"/><path fill="#f4cccc" d="m1274.8313 76.41646l0 0c0 -12.289673 9.962769 -22.252415 22.252441 -22.252415l145.57385 0c5.9017334 0 11.5616455 2.3444443 15.734863 6.517578c4.1730957 4.1731377 6.517578 9.833126 6.517578 15.734837l0 89.00699c0 12.289658 -9.962769 22.25241 -22.252441 22.25241l-145.57385 0l0 0c-12.289673 0 -22.252441 -9.962753 -22.252441 -22.25241z" fill-rule="evenodd"/><path stroke="#000000" stroke-width="3.0" stroke-linejoin="round" stroke-linecap="butt" d="m1274.8313 76.41646l0 0c0 -12.289673 9.962769 -22.252415 22.252441 -22.252415l145.57385 0c5.9017334 0 11.5616455 2.3444443 15.734863 6.517578c4.1730957 4.1731377 6.517578 9.833126 6.517578 15.734837l0 89.00699c0 12.289658 -9.962769 22.25241 -22.252441 22.25241l-145.57385 0l0 0c-12.289673 0 -22.252441 -9.962753 -22.252441 -22.25241z" fill-rule="evenodd"/><path fill="#000000" d="m1307.2677 121.345566q2.0 0.625 3.046875 1.828125q1.0625 1.1875 1.0625 2.859375q0 1.4375 -0.484375 2.5q-0.46875 1.0625 -1.453125 1.75q-0.984375 0.671875 -2.3125 0.984375q-1.3125 0.3125 -3.359375 0.3125l-8.828125 0l0 -0.9375q0.53125 -0.15625 0.828125 -0.3125q0.3125 -0.171875 0.46875 -0.453125q0.15625 -0.296875 0.1875 -0.75q0.046875 -0.453125 0.046875 -1.140625l0 -12.34375q0 -0.671875 -0.046875 -1.125q-0.03125 -0.46875 -0.1875 -0.75q-0.140625 -0.28125 -0.453125 -0.453125q-0.296875 -0.1875 -0.84375 -0.34375l0 -0.9375l9.375 0q1.609375 0 2.625 0.15625q1.34375 0.21875 2.328125 0.75q0.890625 0.46875 1.390625 1.34375q0.5 0.875 0.5 2.078125q0 3.234375 -3.890625 4.84375l0 0.140625zm-4.453125 -0.75q1.4375 0 2.25 -0.40625q0.8125 -0.421875 1.234375 -1.1875q0.421875 -0.765625 0.421875 -2.109375q0 -1.1875 -0.453125 -1.875q-0.453125 -0.703125 -1.3125 -1.0q-0.84375 -0.3125 -2.09375 -0.3125q-1.0 0 -1.953125 0.078125l0 6.8125l1.90625 0zm-1.90625 9.265625q0.84375 0.046875 1.953125 0.046875q1.359375 0 2.234375 -0.328125q0.890625 -0.34375 1.375 -1.1875q0.484375 -0.84375 0.484375 -2.296875q0 -1.03125 -0.265625 -1.765625q-0.25 -0.734375 -0.765625 -1.1875q-0.515625 -0.453125 -1.234375 -0.65625q-0.71875 -0.21875 -1.78125 -0.21875l-2.0 0l0 7.59375zm21.447144 -0.15625l-0.203125 -0.078125q-1.171875 1.15625 -2.28125 1.671875q-1.109375 0.515625 -2.359375 0.515625q-1.234375 0 -2.140625 -0.453125q-0.90625 -0.453125 -1.375 -1.25q-0.46875 -0.8125 -0.46875 -1.859375q0 -2.09375 2.0625 -3.296875q2.078125 -1.21875 6.28125 -1.53125l0 -1.359375q0 -1.34375 -0.296875 -2.0625q-0.296875 -0.71875 -0.78125 -1.015625q-0.46875 -0.296875 -1.125 -0.296875q-0.65625 0 -1.140625 0.234375q-0.46875 0.21875 -0.859375 0.859375q-0.390625 0.640625 -0.578125 1.765625l-2.703125 0l0 -2.59375q1.3125 -0.59375 2.1875 -0.90625q0.875 -0.3125 1.71875 -0.515625q0.859375 -0.21875 1.53125 -0.296875q0.671875 -0.09375 1.34375 -0.09375q1.734375 0 2.765625 0.46875q1.046875 0.453125 1.5625 1.484375q0.515625 1.03125 0.515625 2.84375l0 5.59375q0 0.9375 0.046875 1.453125q0.046875 0.515625 0.140625 0.765625q0.09375 0.25 0.234375 0.40625q0.140625 0.140625 0.34375 0.234375q0.21875 0.09375 0.78125 0.25l0 0.9375l-5.328125 0l0.125 -1.875zm-0.46875 -4.890625q-2.21875 0.0625 -3.28125 0.84375q-1.0625 0.765625 -1.0625 2.25q0 0.890625 0.484375 1.359375q0.484375 0.46875 1.34375 0.46875q0.65625 0 1.234375 -0.34375q0.59375 -0.359375 0.9375 -0.9375q0.34375 -0.59375 0.34375 -1.25l0 -2.390625zm17.507568 5.046875q-1.265625 1.078125 -2.296875 1.515625q-1.03125 0.4375 -2.171875 0.4375q-2.140625 0 -3.203125 -1.15625q-1.046875 -1.15625 -1.046875 -3.484375l0 -8.015625l-1.78125 0l0 -0.984375q0.875 -0.140625 1.28125 -0.421875q0.421875 -0.296875 0.640625 -0.765625q0.234375 -0.484375 0.375 -1.25q0.140625 -0.78125 0.203125 -1.9375l3.421875 0l0 3.578125l4.09375 0l0 1.78125l-4.09375 0l0 6.46875q0 1.609375 0.15625 2.390625q0.15625 0.765625 0.5 1.140625q0.359375 0.359375 0.890625 0.359375q0.40625 0 0.71875 -0.0625q0.3125 -0.078125 0.65625 -0.265625q0.359375 -0.1875 0.75 -0.53125l0.90625 1.203125zm11.420044 -1.953125l1.109375 1.34375q-1.40625 1.375 -2.71875 1.96875q-1.3125 0.59375 -2.859375 0.59375q-3.109375 0 -4.75 -1.828125q-1.625 -1.828125 -1.625 -5.3125q0 -2.34375 0.890625 -4.046875q0.90625 -1.71875 2.578125 -2.59375q1.671875 -0.890625 3.84375 -0.890625q1.15625 0 2.3125 0.171875q1.15625 0.15625 2.09375 0.453125l0 3.4375l-2.828125 0q-0.21875 -1.34375 -0.65625 -1.953125q-0.421875 -0.625 -1.21875 -0.625q-0.53125 0 -1.015625 0.265625q-0.484375 0.265625 -0.84375 0.921875q-0.359375 0.65625 -0.578125 1.75q-0.21875 1.09375 -0.21875 2.765625q0 1.671875 0.3125 2.828125q0.3125 1.15625 1.015625 1.78125q0.703125 0.625 1.84375 0.625q0.84375 0 1.578125 -0.359375q0.734375 -0.359375 1.734375 -1.296875zm8.247559 -8.640625q1.3125 -1.15625 2.328125 -1.640625q1.03125 -0.484375 2.09375 -0.484375q1.578125 0 2.4375 0.578125q0.859375 0.578125 1.25 1.671875q0.40625 1.09375 0.40625 2.828125l0 5.21875q0 0.625 0.015625 1.1875q0.015625 0.546875 0.09375 0.875q0.09375 0.328125 0.25 0.546875q0.15625 0.203125 0.421875 0.34375q0.265625 0.140625 0.65625 0.25l0 0.9375l-6.9375 0l0 -0.9375q0.671875 -0.171875 0.921875 -0.46875q0.25 -0.296875 0.34375 -0.828125q0.09375 -0.53125 0.09375 -1.890625l0 -3.734375q0 -1.4375 -0.09375 -2.234375q-0.09375 -0.796875 -0.328125 -1.21875q-0.21875 -0.4375 -0.5625 -0.65625q-0.34375 -0.21875 -0.921875 -0.21875q-0.546875 0 -1.140625 0.34375q-0.59375 0.328125 -0.984375 0.90625q-0.390625 0.578125 -0.390625 1.25l0 5.546875q0 0.796875 0.015625 1.234375q0.015625 0.4375 0.0625 0.6875q0.046875 0.234375 0.125 0.421875q0.078125 0.171875 0.203125 0.34375q0.125 0.15625 0.375 0.28125q0.25 0.125 0.640625 0.234375l0 0.9375l-7.015625 0l0 -0.9375q0.4375 -0.109375 0.671875 -0.234375q0.25 -0.140625 0.375 -0.3125q0.140625 -0.1875 0.234375 -0.46875q0.109375 -0.28125 0.140625 -0.765625q0.03125 -0.5 0.03125 -1.421875l0 -11.171875q0 -1.234375 -0.03125 -1.8125q-0.015625 -0.578125 -0.09375 -0.96875q-0.0625 -0.390625 -0.21875 -0.625q-0.140625 -0.234375 -0.40625 -0.375q-0.265625 -0.15625 -0.875 -0.265625l0 -0.953125l3.96875 -0.1875l1.796875 0l0 8.171875l0.046875 0.015625zm29.59314 -7.234375l0 0.9375q-0.578125 0.1875 -0.8125 0.328125q-0.234375 0.125 -0.40625 0.34375q-0.15625 0.203125 -0.25 0.640625q-0.078125 0.4375 -0.078125 1.34375l0 15.953125l-3.640625 0l-6.4375 -11.140625q-1.3125 -2.265625 -1.921875 -3.546875l-0.125 0q0.140625 3.078125 0.140625 6.5l0 4.609375q0 1.078125 0.09375 1.515625q0.109375 0.421875 0.390625 0.671875q0.28125 0.25 1.0625 0.453125l0 0.9375l-5.421875 0l0 -0.9375q0.53125 -0.15625 0.84375 -0.328125q0.3125 -0.171875 0.453125 -0.453125q0.15625 -0.296875 0.1875 -0.734375q0.046875 -0.453125 0.046875 -1.125l0 -12.390625q0 -1.078125 -0.09375 -1.484375q-0.09375 -0.40625 -0.390625 -0.671875q-0.28125 -0.28125 -1.046875 -0.484375l0 -0.9375l5.796875 0l5.078125 8.8125q0.46875 0.828125 1.21875 2.25q0.765625 1.40625 1.359375 2.671875l0.21875 0q-0.15625 -3.421875 -0.15625 -7.484375l0 -2.65625q0 -0.9375 -0.078125 -1.34375q-0.0625 -0.421875 -0.21875 -0.625q-0.140625 -0.21875 -0.390625 -0.359375q-0.25 -0.15625 -0.84375 -0.328125l0 -0.9375l5.421875 0zm9.357178 19.78125q-2.09375 0 -3.625 -0.734375q-1.53125 -0.75 -2.390625 -2.375q-0.859375 -1.625 -0.859375 -4.125q0 -1.921875 0.53125 -3.328125q0.53125 -1.40625 1.46875 -2.3125q0.953125 -0.921875 2.265625 -1.359375q1.3125 -0.4375 2.84375 -0.4375q3.46875 0 5.21875 1.828125q1.765625 1.828125 1.765625 5.34375q0 2.5 -0.875 4.1875q-0.875 1.671875 -2.5 2.5q-1.609375 0.8125 -3.84375 0.8125zm-2.515625 -7.546875q0 3.03125 0.671875 4.546875q0.6875 1.5 2.0625 1.5q0.765625 0 1.265625 -0.375q0.515625 -0.390625 0.8125 -1.125q0.3125 -0.734375 0.4375 -1.75q0.140625 -1.03125 0.140625 -2.296875q0 -3.078125 -0.6875 -4.609375q-0.671875 -1.53125 -2.015625 -1.53125q-0.96875 0 -1.5625 0.625q-0.578125 0.609375 -0.859375 1.84375q-0.265625 1.234375 -0.265625 3.171875zm17.619507 -4.84375l0.1875 0.046875q1.03125 -1.234375 2.140625 -1.78125q1.109375 -0.546875 2.390625 -0.546875q0.875 0 1.828125 0.1875l0 3.953125l-2.578125 0q-0.25 -0.828125 -0.640625 -1.265625q-0.390625 -0.453125 -1.0625 -0.453125q-0.3125 0 -0.6875 0.203125q-0.375 0.1875 -0.703125 0.546875q-0.328125 0.34375 -0.46875 0.703125q-0.125 0.359375 -0.171875 0.734375q-0.03125 0.375 -0.03125 1.125l0 4.5625q0 1.359375 0.09375 1.90625q0.09375 0.546875 0.390625 0.859375q0.3125 0.296875 1.03125 0.4375l0 0.9375l-7.0625 0l0 -0.9375q0.6875 -0.1875 0.953125 -0.484375q0.265625 -0.3125 0.359375 -0.828125q0.09375 -0.515625 0.09375 -1.875l0 -5.890625q0 -1.046875 -0.046875 -1.5625q-0.03125 -0.515625 -0.171875 -0.8125q-0.125 -0.3125 -0.40625 -0.5q-0.28125 -0.203125 -0.96875 -0.34375l0 -0.96875l3.921875 -0.125l1.8125 0l-0.203125 2.171875zm13.51709 -0.109375l0.171875 0.046875q1.296875 -1.21875 2.34375 -1.71875q1.046875 -0.5 2.140625 -0.5q1.046875 0 1.75 0.28125q0.703125 0.265625 1.1875 0.796875q0.5 0.515625 0.796875 1.359375q1.4375 -1.34375 2.5 -1.890625q1.078125 -0.546875 2.234375 -0.546875q1.15625 0 1.90625 0.3125q0.75 0.296875 1.234375 0.921875q0.484375 0.625 0.703125 1.578125q0.21875 0.9375 0.21875 2.265625l0 5.21875q0 0.625 0.015625 1.1875q0.03125 0.546875 0.109375 0.875q0.09375 0.328125 0.234375 0.546875q0.15625 0.203125 0.421875 0.34375q0.28125 0.140625 0.671875 0.25l0 0.9375l-6.90625 0l0 -0.9375q0.65625 -0.171875 0.890625 -0.46875q0.25 -0.296875 0.34375 -0.828125q0.09375 -0.53125 0.09375 -1.890625l0 -3.84375q0 -1.28125 -0.09375 -2.09375q-0.078125 -0.8125 -0.328125 -1.265625q-0.25 -0.453125 -0.59375 -0.65625q-0.328125 -0.203125 -0.859375 -0.203125q-0.375 0 -0.703125 0.125q-0.3125 0.109375 -0.640625 0.34375q-0.3125 0.234375 -0.546875 0.484375q-0.21875 0.234375 -0.359375 0.546875q-0.140625 0.296875 -0.1875 0.671875q-0.046875 0.359375 -0.046875 1.203125l0 4.671875q0 0.96875 0.03125 1.484375q0.046875 0.515625 0.15625 0.84375q0.109375 0.3125 0.359375 0.515625q0.25 0.203125 0.78125 0.359375l0 0.9375l-6.8125 0l0 -0.9375q0.65625 -0.171875 0.90625 -0.46875q0.25 -0.296875 0.328125 -0.8125q0.09375 -0.53125 0.09375 -1.90625l0 -3.84375q0 -0.9375 -0.03125 -1.578125q-0.03125 -0.65625 -0.125 -1.0625q-0.078125 -0.40625 -0.234375 -0.703125q-0.15625 -0.296875 -0.34375 -0.484375q-0.1875 -0.1875 -0.453125 -0.28125q-0.265625 -0.109375 -0.671875 -0.109375q-0.53125 0 -1.109375 0.328125q-0.578125 0.328125 -0.96875 0.921875q-0.390625 0.578125 -0.390625 1.25l0 5.546875q0 1.34375 0.078125 1.890625q0.078125 0.53125 0.328125 0.84375q0.265625 0.296875 0.90625 0.46875l0 0.9375l-6.859375 0l0 -0.9375q0.6875 -0.1875 0.953125 -0.484375q0.265625 -0.3125 0.359375 -0.828125q0.09375 -0.515625 0.09375 -1.875l0 -5.890625q0 -1.046875 -0.046875 -1.5625q-0.03125 -0.515625 -0.171875 -0.8125q-0.125 -0.3125 -0.40625 -0.5q-0.28125 -0.203125 -0.96875 -0.34375l0 -0.96875l3.921875 -0.125l1.8125 0l-0.21875 2.0625z" fill-rule="nonzero"/><path fill="#000000" fill-opacity="0.0" d="m253.43645 120.919945l52.220474 0" fill-rule="evenodd"/><path stroke="#000000" stroke-width="1.0" stroke-linejoin="round" stroke-linecap="butt" d="m253.43645 120.919945l46.220474 0" fill-rule="evenodd"/><path fill="#000000" stroke="#000000" stroke-width="1.0" stroke-linecap="butt" d="m299.65692 122.57168l4.5381165 -1.6517334l-4.5381165 -1.6517334z" fill-rule="evenodd"/><path fill="#000000" fill-opacity="0.0" d="m495.73117 120.919945l52.22049 0" fill-rule="evenodd"/><path stroke="#000000" stroke-width="1.0" stroke-linejoin="round" stroke-linecap="butt" d="m495.73117 120.919945l46.22049 0" fill-rule="evenodd"/><path fill="#000000" stroke="#000000" stroke-width="1.0" stroke-linecap="butt" d="m541.95166 122.57168l4.538086 -1.6517334l-4.538086 -1.6517334z" fill-rule="evenodd"/><path fill="#000000" fill-opacity="0.0" d="m738.0259 120.919945l52.22046 0" fill-rule="evenodd"/><path stroke="#000000" stroke-width="1.0" stroke-linejoin="round" stroke-linecap="butt" d="m738.0258 120.919945l46.22052 0" fill-rule="evenodd"/><path fill="#000000" stroke="#000000" stroke-width="1.0" stroke-linecap="butt" d="m784.24634 122.57168l4.538086 -1.6517334l-4.538086 -1.6517334z" fill-rule="evenodd"/><path fill="#000000" fill-opacity="0.0" d="m980.32056 120.919945l52.22046 0" fill-rule="evenodd"/><path stroke="#000000" stroke-width="1.0" stroke-linejoin="round" stroke-linecap="butt" d="m980.3206 120.919945l46.22052 0" fill-rule="evenodd"/><path fill="#000000" stroke="#000000" stroke-width="1.0" stroke-linecap="butt" d="m1026.5411 122.57168l4.538086 -1.6517334l-4.538086 -1.6517334z" fill-rule="evenodd"/><path fill="#000000" fill-opacity="0.0" d="m1222.6154 120.919945l52.22046 0" fill-rule="evenodd"/><path stroke="#000000" stroke-width="1.0" stroke-linejoin="round" stroke-linecap="butt" d="m1222.6154 120.919945l46.22046 0" fill-rule="evenodd"/><path fill="#000000" stroke="#000000" stroke-width="1.0" stroke-linecap="butt" d="m1268.8358 122.57168l4.538086 -1.6517334l-4.538086 -1.6517334z" fill-rule="evenodd"/><path fill="#000000" fill-opacity="0.0" d="m1464.91 120.919945l52.22046 0" fill-rule="evenodd"/><path stroke="#000000" stroke-width="1.0" stroke-linejoin="round" stroke-linecap="butt" d="m1464.9099 120.919945l46.22046 0" fill-rule="evenodd"/><path fill="#000000" stroke="#000000" stroke-width="1.0" stroke-linecap="butt" d="m1511.1304 122.57168l4.538086 -1.6517334l-4.538086 -1.6517334z" fill-rule="evenodd"/><path fill="#000000" fill-opacity="0.0" d="m11.141732 120.919945l52.220474 0" fill-rule="evenodd"/><path stroke="#000000" stroke-width="1.0" stroke-linejoin="round" stroke-linecap="butt" d="m11.141732 120.919945l46.220474 0" fill-rule="evenodd"/><path fill="#000000" stroke="#000000" stroke-width="1.0" stroke-linecap="butt" d="m57.362206 122.57168l4.5380974 -1.6517334l-4.5380974 -1.6517334z" fill-rule="evenodd"/><path fill="#000000" d="m5.125984 120.919945l0 0c0 -1.6612015 1.3466711 -3.0078735 3.0078745 -3.0078735l0 0c0.7977371 0 1.5628023 0.31690216 2.1268873 0.8809891c0.56408596 0.5640869 0.8809862 1.3291473 0.8809862 2.1268845l0 0c0 1.6612091 -1.3466711 3.0078735 -3.0078735 3.0078735l0 0c-1.6612034 0 -3.0078745 -1.3466644 -3.0078745 -3.0078735z" fill-rule="evenodd"/><path stroke="#000000" stroke-width="1.0" stroke-linejoin="round" stroke-linecap="butt" d="m5.125984 120.919945l0 0c0 -1.6612015 1.3466711 -3.0078735 3.0078745 -3.0078735l0 0c0.7977371 0 1.5628023 0.31690216 2.1268873 0.8809891c0.56408596 0.5640869 0.8809862 1.3291473 0.8809862 2.1268845l0 0c0 1.6612091 -1.3466711 3.0078735 -3.0078735 3.0078735l0 0c-1.6612034 0 -3.0078745 -1.3466644 -3.0078745 -3.0078735z" fill-rule="evenodd"/><path fill="#000000" d="m1517.126 120.919945l0 0c0 -1.6612015 1.3466797 -3.0078735 3.0079346 -3.0078735l0 0c0.7977295 0 1.5627441 0.31690216 2.126831 0.8809891c0.5640869 0.5640869 0.88098145 1.3291473 0.88098145 2.1268845l0 0c0 1.6612091 -1.3466797 3.0078735 -3.0078125 3.0078735l0 0c-1.6612549 0 -3.0079346 -1.3466644 -3.0079346 -3.0078735z" fill-rule="evenodd"/><path stroke="#000000" stroke-width="1.0" stroke-linejoin="round" stroke-linecap="butt" d="m1517.126 120.919945l0 0c0 -1.6612015 1.3466797 -3.0078735 3.0079346 -3.0078735l0 0c0.7977295 0 1.5627441 0.31690216 2.126831 0.8809891c0.5640869 0.5640869 0.88098145 1.3291473 0.88098145 2.1268845l0 0c0 1.6612091 -1.3466797 3.0078735 -3.0078125 3.0078735l0 0c-1.6612549 0 -3.0079346 -1.3466644 -3.0079346 -3.0078735z" fill-rule="evenodd"/></g></svg>