<?xml version="1.0" standalone="yes"?>

<svg version="1.1" viewBox="0.0 0.0 491.005249343832 152.33333333333334" fill="none" stroke="none" stroke-linecap="square" stroke-miterlimit="10" xmlns="http://www.w3.org/2000/svg" xmlns:xlink="http://www.w3.org/1999/xlink"><clipPath id="p.0"><path d="m0 0l491.00525 0l0 152.33333l-491.00525 0l0 -152.33333z" clip-rule="nonzero"></path></clipPath><g clip-path="url(#p.0)"><path fill="#000000" fill-opacity="0.0" d="m0 0l491.00525 0l0 152.33333l-491.00525 0z" fill-rule="evenodd"></path><path fill="#000000" fill-opacity="0.0" d="m75.367455 95.81628l54.58268 -83.84252" fill-rule="evenodd"></path><path stroke="#4a86e8" stroke-width="3.0" stroke-linejoin="round" stroke-linecap="butt" d="m75.367455 95.81628l44.76213 -68.75754" fill-rule="evenodd"></path><path fill="#4a86e8" stroke="#4a86e8" stroke-width="3.0" stroke-linecap="butt" d="m124.28232 29.762228l3.275032 -14.113011l-11.58049 8.70604z" fill-rule="evenodd"></path><path fill="#000000" fill-opacity="0.0" d="m78.9895 99.438324l321.6378 0" fill-rule="evenodd"></path><path stroke="#00ff00" stroke-width="3.0" stroke-linejoin="round" stroke-linecap="butt" d="m78.9895 99.438324l303.6378 0" fill-rule="evenodd"></path><path fill="#00ff00" stroke="#00ff00" stroke-width="3.0" stroke-linecap="butt" d="m382.6273 104.39352l13.614288 -4.9551926l-13.614288 -4.9552z" fill-rule="evenodd"></path><path fill="#000000" fill-opacity="0.0" d="m130.09865 11.981627l317.63782 0" fill-rule="evenodd"></path><path stroke="#b7b7b7" stroke-width="1.0" stroke-linejoin="round" stroke-linecap="butt" stroke-dasharray="4.0,3.0" d="m130.09865 11.981627l317.63782 0" fill-rule="evenodd"></path><path fill="#000000" fill-opacity="0.0" d="m77.92863 96.877144l369.19687 -84.37795" fill-rule="evenodd"></path><path stroke="#ff0000" stroke-width="3.0" stroke-linejoin="round" stroke-linecap="butt" d="m77.92863 96.877144l351.6493 -80.36755" fill-rule="evenodd"></path><path fill="#ff0000" stroke="#ff0000" stroke-width="3.0" stroke-linecap="butt" d="m430.68195 21.340237l12.168091 -7.863909l-14.376129 -1.7973804z" fill-rule="evenodd"></path><path fill="#d9d2e9" d="m71.74541 99.438324l0 0c0 -2.0004044 1.6216431 -3.6220474 3.6220474 -3.6220474l0 0c0.9606247 0 1.8819046 0.38160706 2.5611725 1.0608673c0.6792679 0.6792679 1.0608749 1.6005478 1.0608749 2.56118l0 0c0 2.0003967 -1.6216431 3.6220398 -3.6220474 3.6220398l0 0c-2.0004044 0 -3.6220474 -1.6216431 -3.6220474 -3.6220398z" fill-rule="evenodd"></path><path stroke="#d9d2e9" stroke-width="1.0" stroke-linejoin="round" stroke-linecap="butt" d="m71.74541 99.438324l0 0c0 -2.0004044 1.6216431 -3.6220474 3.6220474 -3.6220474l0 0c0.9606247 0 1.8819046 0.38160706 2.5611725 1.0608673c0.6792679 0.6792679 1.0608749 1.6005478 1.0608749 2.56118l0 0c0 2.0003967 -1.6216431 3.6220398 -3.6220474 3.6220398l0 0c-2.0004044 0 -3.6220474 -1.6216431 -3.6220474 -3.6220398z" fill-rule="evenodd"></path><path fill="#000000" fill-opacity="0.0" d="m39.650917 83.66404l44.62992 0l0 42.173233l-44.62992 0z" fill-rule="evenodd"></path><path fill="#000000" d="m57.572792 109.06841q1.421875 -2.015625 2.15625 -3.515625q0.75 -1.515625 0.75 -2.46875q0 -0.421875 -0.1875 -0.578125q-0.1875 -0.15625 -0.625 -0.1875l0.09375 -0.4375l2.359375 0l0.234375 0.453125q-0.3125 0.8125 -0.5 1.25q-0.1875 0.4375 -0.5 1.046875q-0.3125 0.609375 -0.65625 1.21875q-0.34375 0.609375 -0.8125 1.34375q-0.46875 0.734375 -1.0625 1.609375q-0.578125 0.859375 -1.375 1.921875l-1.078125 0l-0.375 -3.796875q-0.046875 -0.453125 -0.09375 -1.171875q-0.046875 -0.71875 -0.078125 -1.109375l-0.09375 -0.015625q-0.484375 1.21875 -1.34375 2.703125q-0.84375 1.484375 -2.09375 3.390625l-1.21875 0l-0.6875 -6.859375q-0.0625 -0.515625 -0.140625 -0.84375q-0.078125 -0.328125 -0.28125 -0.484375q-0.1875 -0.171875 -0.625 -0.21875l0.109375 -0.4375l2.375 0l0.546875 7.1875q1.296875 -2.09375 1.859375 -3.1875q0.578125 -1.09375 0.84375 -1.890625q0.28125 -0.796875 0.421875 -1.671875l0.09375 -0.4375l1.3125 0l0.671875 7.1875z" fill-rule="nonzero"></path><path fill="#000000" d="m63.520943 118.66216q-0.0625 0.28125 -0.078125 0.4375q-0.015625 0.171875 -0.015625 0.265625q0 0.1875 0.0625 0.28125q0.0625 0.109375 0.1875 0.15625q0.125 0.0625 0.421875 0.09375l-0.046875 0.296875l-1.875 0l1.53125 -6.75q0.125 -0.515625 0.125 -0.875q0 -0.171875 -0.0625 -0.265625q-0.046875 -0.09375 -0.171875 -0.140625q-0.125 -0.046875 -0.421875 -0.0625l0.078125 -0.328125l1.375 -0.046875l0.34375 0l-0.40625 1.578125l0.078125 0.03125q1.125 -1.65625 2.234375 -1.65625q0.65625 0 1.015625 0.515625q0.375 0.5 0.375 1.40625q0 0.65625 -0.1875 1.328125q-0.171875 0.65625 -0.5 1.203125q-0.3125 0.53125 -0.703125 0.875q-0.390625 0.328125 -0.828125 0.5q-0.421875 0.171875 -0.90625 0.171875q-0.8125 0 -1.34375 -0.34375l-0.28125 1.328125zm0.734375 -3.1875q-0.0625 0.3125 -0.078125 0.484375q-0.015625 0.171875 -0.015625 0.34375q0 0.46875 0.203125 0.6875q0.203125 0.21875 0.703125 0.21875q0.3125 0 0.5625 -0.125q0.265625 -0.125 0.5 -0.359375q0.234375 -0.234375 0.421875 -0.5625q0.1875 -0.328125 0.328125 -0.75q0.15625 -0.4375 0.234375 -0.890625q0.078125 -0.46875 0.078125 -0.859375q0 -0.640625 -0.1875 -0.953125q-0.171875 -0.3125 -0.5625 -0.3125q-0.3125 0 -0.609375 0.21875q-0.296875 0.203125 -0.65625 0.671875q-0.359375 0.453125 -0.5625 0.90625q-0.203125 0.4375 -0.3125 1.015625l-0.046875 0.265625z" fill-rule="nonzero"></path><path fill="#000000" fill-opacity="0.0" d="m367.2756 95.81628l98.456665 0l0 42.173225l-98.456665 0z" fill-rule="evenodd"></path><path fill="#000000" d="m385.19748 121.22065q1.421875 -2.015625 2.15625 -3.515625q0.75 -1.515625 0.75 -2.46875q0 -0.421875 -0.1875 -0.578125q-0.1875 -0.15625 -0.625 -0.1875l0.09375 -0.4375l2.359375 0l0.234375 0.453125q-0.3125 0.8125 -0.5 1.25q-0.1875 0.4375 -0.5 1.046875q-0.3125 0.609375 -0.65625 1.21875q-0.34375 0.609375 -0.8125 1.34375q-0.46875 0.734375 -1.0625 1.609375q-0.578125 0.859375 -1.375 1.921875l-1.078125 0l-0.375 -3.796875q-0.046875 -0.453125 -0.09375 -1.171875q-0.046875 -0.71875 -0.078125 -1.109375l-0.09375 -0.015625q-0.484375 1.21875 -1.34375 2.703125q-0.84375 1.484375 -2.09375 3.390625l-1.21875 0l-0.6875 -6.859375q-0.0625 -0.515625 -0.140625 -0.84375q-0.078125 -0.328125 -0.28125 -0.484375q-0.1875 -0.171875 -0.625 -0.21875l0.109375 -0.4375l2.375 0l0.546875 7.1875q1.296875 -2.09375 1.859375 -3.1875q0.578125 -1.09375 0.84375 -1.890625q0.28125 -0.796875 0.421875 -1.671875l0.09375 -0.4375l1.3125 0l0.671875 7.1875z" fill-rule="nonzero"></path><path fill="#000000" d="m391.14563 130.81439q-0.0625 0.28125 -0.078125 0.4375q-0.015625 0.171875 -0.015625 0.265625q0 0.1875 0.0625 0.28125q0.0625 0.109375 0.1875 0.15625q0.125 0.0625 0.421875 0.09375l-0.046875 0.296875l-1.875 0l1.53125 -6.7499924q0.125 -0.515625 0.125 -0.875q0 -0.171875 -0.0625 -0.265625q-0.046875 -0.09375 -0.171875 -0.140625q-0.125 -0.046875 -0.421875 -0.0625l0.078125 -0.328125l1.375 -0.046875l0.34375 0l-0.40625 1.578125l0.078125 0.03125q1.125 -1.65625 2.234375 -1.65625q0.65625 0 1.015625 0.515625q0.375 0.5 0.375 1.40625q0 0.65625 -0.1875 1.328125q-0.171875 0.65625 -0.5 1.2031174q-0.3125 0.53125 -0.703125 0.875q-0.390625 0.328125 -0.828125 0.5q-0.421875 0.171875 -0.90625 0.171875q-0.8125 0 -1.34375 -0.34375l-0.28125 1.328125zm0.734375 -3.1874924q-0.0625 0.3125 -0.078125 0.48436737q-0.015625 0.171875 -0.015625 0.34375q0 0.46875 0.203125 0.6875q0.203125 0.21875 0.703125 0.21875q0.3125 0 0.5625 -0.125q0.265625 -0.125 0.5 -0.359375q0.234375 -0.234375 0.421875 -0.5625q0.1875 -0.32811737 0.328125 -0.7499924q0.15625 -0.4375 0.234375 -0.890625q0.078125 -0.46875 0.078125 -0.859375q0 -0.640625 -0.1875 -0.953125q-0.171875 -0.3125 -0.5625 -0.3125q-0.3125 0 -0.609375 0.21875q-0.296875 0.203125 -0.65625 0.671875q-0.359375 0.453125 -0.5625 0.90625q-0.203125 0.4375 -0.3125 1.015625l-0.046875 0.265625z" fill-rule="nonzero"></path><path fill="#000000" d="m401.30765 118.642525l-3.984375 0l0.3125 -1.40625l3.96875 0l-0.296875 1.40625z" fill-rule="nonzero"></path><path fill="#000000" d="m407.23953 117.0019l-0.328125 -0.09375q0.078125 -1.046875 0.484375 -1.734375q0.421875 -0.6875 1.078125 -0.6875q0.578125 0 1.0 0.546875q0.421875 0.53125 0.484375 2.015625q0.0625 1.46875 0.0625 3.1875q0 0.421875 -0.046875 1.28125q2.28125 -2.71875 2.28125 -4.1875q0 -0.3125 -0.15625 -0.875q-0.140625 -0.5625 -0.140625 -1.0q0 -0.46875 0.265625 -0.71875q0.28125 -0.25 0.640625 -0.25q0.796875 0 0.796875 1.140625q0 1.140625 -0.75 2.59375q-0.734375 1.4375 -2.875 3.84375q-1.015625 4.703125 -2.125 4.703125q-0.515625 0 -0.515625 -0.71875q0 -1.03125 2.09375 -3.953125q0.046875 -1.0625 0.046875 -1.5625q0 -0.9375 -0.140625 -2.46875q-0.125 -1.546875 -0.40625 -1.9375q-0.265625 -0.40625 -0.625 -0.40625q-0.75 0 -1.125 1.28125z" fill-rule="nonzero"></path><path fill="#000000" d="m414.2628 122.736275l5.546875 -12.640625l0.296875 0l5.234375 12.640625l-11.078125 0zm8.90625 -0.78125l-3.6875 -9.0625l-4.0 9.0625l7.6875 0z" fill-rule="nonzero"></path><path fill="#000000" d="m427.10373 130.81439q-0.0625 0.28125 -0.078125 0.4375q-0.015625 0.171875 -0.015625 0.265625q0 0.1875 0.0625 0.28125q0.0625 0.109375 0.1875 0.15625q0.125 0.0625 0.421875 0.09375l-0.046875 0.296875l-1.875 0l1.53125 -6.7499924q0.125 -0.515625 0.125 -0.875q0 -0.171875 -0.0625 -0.265625q-0.046875 -0.09375 -0.171875 -0.140625q-0.125 -0.046875 -0.421875 -0.0625l0.078125 -0.328125l1.375 -0.046875l0.34375 0l-0.40625 1.578125l0.078125 0.03125q1.125 -1.65625 2.234375 -1.65625q0.65625 0 1.015625 0.515625q0.375 0.5 0.375 1.40625q0 0.65625 -0.1875 1.328125q-0.171875 0.65625 -0.5 1.2031174q-0.3125 0.53125 -0.703125 0.875q-0.390625 0.328125 -0.828125 0.5q-0.421875 0.171875 -0.90625 0.171875q-0.8125 0 -1.34375 -0.34375l-0.28125 1.328125zm0.734375 -3.1874924q-0.0625 0.3125 -0.078125 0.48436737q-0.015625 0.171875 -0.015625 0.34375q0 0.46875 0.203125 0.6875q0.203125 0.21875 0.703125 0.21875q0.3125 0 0.5625 -0.125q0.265625 -0.125 0.5 -0.359375q0.234375 -0.234375 0.421875 -0.5625q0.1875 -0.32811737 0.328125 -0.7499924q0.15625 -0.4375 0.234375 -0.890625q0.078125 -0.46875 0.078125 -0.859375q0 -0.640625 -0.1875 -0.953125q-0.171875 -0.3125 -0.5625 -0.3125q-0.3125 0 -0.609375 0.21875q-0.296875 0.203125 -0.65625 0.671875q-0.359375 0.453125 -0.5625 0.90625q-0.203125 0.4375 -0.3125 1.015625l-0.046875 0.265625z" fill-rule="nonzero"></path><path fill="#000000" fill-opacity="0.0" d="m0.15223098 32.107613l98.456696 0l0 42.173225l-98.456696 0z" fill-rule="evenodd"></path><path fill="#000000" d="m14.355356 54.93386l-4.21875 0l0 -1.40625l4.21875 0l0 1.40625z" fill-rule="nonzero"></path><path fill="#000000" d="m16.22169 52.90261l-0.21875 -0.265625q1.65625 -1.859375 2.5 -1.859375q0.8125 0 0.8125 0.90625q0 0.265625 -0.25 1.046875l-0.65625 2.265625q1.5625 -2.34375 2.53125 -3.28125q0.984375 -0.9375 1.828125 -0.9375q1.046875 0 1.046875 1.1875q0 0.390625 -0.203125 1.125l-1.640625 5.984375q-0.59375 2.15625 -0.59375 3.421875q0 0.25 0.03125 0.515625l-1.359375 0q-0.046875 -0.359375 -0.046875 -0.671875q0 -1.203125 0.578125 -3.28125l1.640625 -5.875q0.140625 -0.546875 0.140625 -0.828125q0 -0.53125 -0.40625 -0.53125q-0.59375 0 -1.890625 1.546875q-1.28125 1.546875 -2.3125 3.984375l-0.515625 1.671875l-1.359375 0l1.890625 -6.453125q0.09375 -0.296875 0.09375 -0.4375q0 -0.375 -0.28125 -0.375q-0.328125 0 -1.359375 1.140625z" fill-rule="nonzero"></path><path fill="#000000" d="m41.08631 45.37136l-6.984375 13.875l-7.421873 -13.875l14.406248 0zm-6.609375 12.015625l5.34375 -10.828125l-11.140623 0l5.796873 10.828125z" fill-rule="nonzero"></path><path fill="#000000" d="m44.08631 58.574486q0.34375 -0.046875 0.515625 -0.171875q0.171875 -0.125 0.28125 -0.34375q0.125 -0.21875 0.21875 -0.53125q0.109375 -0.3125 0.3125 -1.21875l1.546875 -7.015625q0.09375 -0.40625 0.140625 -0.796875q0.0625 -0.390625 0.0625 -0.671875q0 -0.421875 -0.21875 -0.578125q-0.21875 -0.171875 -0.671875 -0.203125l0.09375 -0.453125l3.640625 0l-0.09375 0.453125q-0.34375 0.0625 -0.5 0.15625q-0.140625 0.09375 -0.265625 0.28125q-0.125 0.171875 -0.25 0.5625q-0.125 0.390625 -0.3125 1.265625l-1.953125 8.875l2.25 0q0.609375 0 0.953125 -0.109375q0.359375 -0.125 0.671875 -0.4375q0.3125 -0.3125 0.609375 -0.84375q0.296875 -0.546875 0.609375 -1.34375l0.890625 0l-0.921875 3.578125l-7.71875 0l0.109375 -0.453125z" fill-rule="nonzero"></path><path fill="#000000" d="m60.092583 62.99636q-1.546875 0 -2.53125 -0.46875q-0.984375 -0.46875 -1.53125 -1.421875q-0.546875 -0.953125 -0.796875 -2.46875q-0.234375 -1.515625 -0.234375 -4.125q0 -2.59375 0.234375 -4.125q0.25 -1.53125 0.796875 -2.5q0.546875 -0.96875 1.53125 -1.453125q0.984375 -0.484375 2.53125 -0.484375l0 0.75q-0.640625 0 -1.125 0.109375q-0.5625 0.125 -0.953125 0.5q-0.4375 0.390625 -0.71875 1.109375q-0.3125 0.84375 -0.46875 2.234375q-0.15625 1.453125 -0.15625 3.78125q0 2.046875 0.125 3.484375q0.140625 1.4375 0.46875 2.34375q0.25 0.765625 0.625 1.203125q0.34375 0.375 0.8125 0.5625q0.53125 0.21875 1.390625 0.21875l0 0.75z" fill-rule="nonzero"></path><path fill="#000000" d="m69.40371 57.511986q1.421875 -2.015625 2.15625 -3.515625q0.75 -1.515625 0.75 -2.46875q0 -0.421875 -0.1875 -0.578125q-0.1875 -0.15625 -0.625 -0.1875l0.09375 -0.4375l2.359375 0l0.234375 0.453125q-0.3125 0.8125 -0.5 1.25q-0.1875 0.4375 -0.5 1.046875q-0.3125 0.609375 -0.65625 1.21875q-0.34375 0.609375 -0.8125 1.34375q-0.46875 0.734375 -1.0625 1.609375q-0.578125 0.859375 -1.375 1.921875l-1.078125 0l-0.375 -3.796875q-0.046875 -0.453125 -0.09375 -1.171875q-0.046875 -0.71875 -0.078125 -1.109375l-0.09375 -0.015625q-0.484375 1.21875 -1.34375 2.703125q-0.84375 1.484375 -2.09375 3.390625l-1.21875 0l-0.6875 -6.859375q-0.0625 -0.515625 -0.140625 -0.84375q-0.078125 -0.328125 -0.28125 -0.484375q-0.1875 -0.171875 -0.625 -0.21875l0.109375 -0.4375l2.375 0l0.546875 7.1875q1.296875 -2.09375 1.859375 -3.1875q0.578125 -1.09375 0.84375 -1.890625q0.28125 -0.796875 0.421875 -1.671875l0.09375 -0.4375l1.3125 0l0.671875 7.1875z" fill-rule="nonzero"></path><path fill="#000000" d="m75.35186 67.105736q-0.0625 0.28125 -0.078125 0.4375q-0.015625 0.171875 -0.015625 0.265625q0 0.1875 0.0625 0.28125q0.0625 0.109375 0.1875 0.15625q0.125 0.0625 0.421875 0.09375l-0.046875 0.296875l-1.875 0l1.53125 -6.75q0.125 -0.515625 0.125 -0.875q0 -0.171875 -0.0625 -0.265625q-0.046875 -0.09375 -0.171875 -0.140625q-0.125 -0.046875 -0.421875 -0.0625l0.078125 -0.328125l1.375 -0.046875l0.34375 0l-0.40625 1.578125l0.078125 0.03125q1.125 -1.65625 2.234375 -1.65625q0.65625 0 1.015625 0.515625q0.375 0.5 0.375 1.40625q0 0.65625 -0.1875 1.328125q-0.171875 0.65625 -0.5 1.203125q-0.3125 0.53125 -0.703125 0.875q-0.390625 0.328125 -0.828125 0.5q-0.421875 0.171875 -0.90625 0.171875q-0.8125 0 -1.34375 -0.34375l-0.28125 1.328125zm0.734375 -3.1875q-0.0625 0.3125 -0.078125 0.484375q-0.015625 0.171875 -0.015625 0.34375q0 0.46875 0.203125 0.6875q0.203125 0.21875 0.703125 0.21875q0.3125 0 0.5625 -0.125q0.265625 -0.125 0.5 -0.359375q0.234375 -0.234375 0.421875 -0.5625q0.1875 -0.328125 0.328125 -0.75q0.15625 -0.4375 0.234375 -0.890625q0.078125 -0.46875 0.078125 -0.859375q0 -0.640625 -0.1875 -0.953125q-0.171875 -0.3125 -0.5625 -0.3125q-0.3125 0 -0.609375 0.21875q-0.296875 0.203125 -0.65625 0.671875q-0.359375 0.453125 -0.5625 0.90625q-0.203125 0.4375 -0.3125 1.015625l-0.046875 0.265625z" fill-rule="nonzero"></path><path fill="#000000" d="m80.998276 45.949486q1.546875 0 2.53125 0.46875q0.984375 0.46875 1.515625 1.421875q0.546875 0.953125 0.796875 2.46875q0.25 1.515625 0.25 4.125q0 2.59375 -0.25 4.125q-0.234375 1.53125 -0.78125 2.5q-0.546875 0.96875 -1.53125 1.453125q-0.984375 0.484375 -2.53125 0.484375l0 -0.75q0.640625 0 1.125 -0.109375q0.5625 -0.125 0.953125 -0.5q0.4375 -0.390625 0.703125 -1.109375q0.328125 -0.84375 0.484375 -2.234375q0.15625 -1.46875 0.15625 -3.78125q0 -2.046875 -0.140625 -3.484375q-0.125 -1.4375 -0.453125 -2.34375q-0.25 -0.765625 -0.625 -1.203125q-0.34375 -0.375 -0.8125 -0.5625q-0.53125 -0.21875 -1.390625 -0.21875l0 -0.75z" fill-rule="nonzero"></path><path fill="#000000" fill-opacity="0.0" d="m442.25592 -9.255923l54.582672 0l0 42.17323l-54.582672 0z" fill-rule="evenodd"></path><path fill="#000000" d="m460.1778 16.148449q1.421875 -2.015624 2.15625 -3.515624q0.75 -1.515625 0.75 -2.46875q0 -0.421875 -0.1875 -0.578125q-0.1875 -0.15625 -0.625 -0.1875l0.09375 -0.4375l2.359375 0l0.234375 0.453125q-0.3125 0.8125 -0.5 1.25q-0.1875 0.4375 -0.5 1.046875q-0.3125 0.609375 -0.65625 1.21875q-0.34375 0.609375 -0.8125 1.34375q-0.46875 0.734375 -1.0625 1.609375q-0.578125 0.85937405 -1.375 1.921874l-1.078125 0l-0.375 -3.796874q-0.046875 -0.453125 -0.09375 -1.171875q-0.046875 -0.71875 -0.078125 -1.109375l-0.09375 -0.015625q-0.484375 1.21875 -1.34375 2.703125q-0.84375 1.484375 -2.09375 3.390624l-1.21875 0l-0.6875 -6.859374q-0.0625 -0.515625 -0.140625 -0.84375q-0.078125 -0.328125 -0.28125 -0.484375q-0.1875 -0.171875 -0.625 -0.21875l0.109375 -0.4375l2.375 0l0.546875 7.187499q1.296875 -2.093749 1.859375 -3.187499q0.578125 -1.09375 0.84375 -1.890625q0.28125 -0.796875 0.421875 -1.671875l0.09375 -0.4375l1.3125 0l0.671875 7.187499z" fill-rule="nonzero"></path><path fill="#000000" d="m466.12595 25.742199q-0.0625 0.28125 -0.078125 0.4375q-0.015625 0.171875 -0.015625 0.265625q0 0.1875 0.0625 0.28125q0.0625 0.109375 0.1875 0.15625q0.125 0.0625 0.421875 0.09375l-0.046875 0.296875l-1.875 0l1.53125 -6.75q0.125 -0.515625 0.125 -0.875q0 -0.171875 -0.0625 -0.265625q-0.046875 -0.09375 -0.171875 -0.140625q-0.125 -0.046875 -0.421875 -0.0625l0.078125 -0.328125l1.375 -0.046875l0.34375 0l-0.40625 1.578125l0.078125 0.03125q1.125 -1.65625 2.234375 -1.65625q0.65625 0 1.015625 0.515625q0.375 0.5 0.375 1.40625q0 0.65625 -0.1875 1.328125q-0.171875 0.65625 -0.5 1.203125q-0.3125 0.53125 -0.703125 0.875q-0.390625 0.328125 -0.828125 0.5q-0.421875 0.171875 -0.90625 0.171875q-0.8125 0 -1.34375 -0.34375l-0.28125 1.328125zm0.734375 -3.1875q-0.0625 0.3125 -0.078125 0.484375q-0.015625 0.171875 -0.015625 0.34375q0 0.46875 0.203125 0.6875q0.203125 0.21875 0.703125 0.21875q0.3125 0 0.5625 -0.125q0.265625 -0.125 0.5 -0.359375q0.234375 -0.234375 0.421875 -0.5625q0.1875 -0.328125 0.328125 -0.75q0.15625 -0.4375 0.234375 -0.890625q0.078125 -0.46875 0.078125 -0.859375q0 -0.640625 -0.1875 -0.953125q-0.171875 -0.3125 -0.5625 -0.3125q-0.3125 0 -0.609375 0.21875q-0.296875 0.203125 -0.65625 0.671875q-0.359375 0.453125 -0.5625 0.90625q-0.203125 0.4375 -0.3125 1.015625l-0.046875 0.265625zm8.318298 -1.03125l-0.515625 2.3125l-0.90625 0l0.5 -2.3125l-2.0625 0l0.171875 -0.828125l2.078125 0l0.5 -2.296875l0.90625 0l-0.5 2.296875l2.09375 0l-0.1875 0.828125l-2.078125 0zm6.4771423 1.390625q-0.109375 0.5 -0.109375 0.703125q0 0.25 0.125 0.375q0.125 0.109375 0.421875 0.15625q0.296875 0.046875 0.90625 0.078125l-0.078125 0.4375l-4.296875 0l0.09375 -0.4375q0.515625 -0.03125 0.78125 -0.0625q0.28125 -0.046875 0.4375 -0.125q0.171875 -0.078125 0.265625 -0.171875q0.109375 -0.109375 0.1875 -0.28125q0.078125 -0.171875 0.15625 -0.5l0.96875 -4.40625q0.0625 -0.265625 0.078125 -0.40625q0.03125 -0.15625 0.03125 -0.25q0 -0.1875 -0.09375 -0.265625q-0.09375 -0.078125 -0.21875 -0.078125q-0.15625 0 -0.484375 0.15625q-0.3125 0.15625 -0.953125 0.53125l-0.234375 -0.484375l3.078125 -1.609375l0.421875 0l-0.171875 0.71875q-0.109375 0.390625 -0.21875 0.90625l-1.09375 5.015625z" fill-rule="nonzero"></path></g></svg>

