<?xml version="1.0" standalone="yes"?>

<svg version="1.1" viewBox="0.0 0.0 568.0 192.0" fill="none" stroke="none" stroke-linecap="square" stroke-miterlimit="10" xmlns="http://www.w3.org/2000/svg" xmlns:xlink="http://www.w3.org/1999/xlink"><clipPath id="p.0"><path d="m0 0l568.0 0l0 192.0l-568.0 0l0 -192.0z" clip-rule="nonzero"></path></clipPath><g clip-path="url(#p.0)"><path fill="#000000" fill-opacity="0.0" d="m0 0l568.0 0l0 192.0l-568.0 0z" fill-rule="evenodd"></path><path fill="#000000" fill-opacity="0.0" d="m359.72134 75.72179l78.17325 79.87401" fill-rule="evenodd"></path><path stroke="#4a86e8" stroke-width="3.0" stroke-linejoin="round" stroke-linecap="butt" d="m359.72134 75.72179l65.58301 67.00987" fill-rule="evenodd"></path><path fill="#4a86e8" stroke="#4a86e8" stroke-width="3.0" stroke-linecap="butt" d="m421.76297 146.1976l13.063965 6.2638397l-5.9812317 -13.19574z" fill-rule="evenodd"></path><path fill="#000000" fill-opacity="0.0" d="m39.33858 75.72179l321.6378 0" fill-rule="evenodd"></path><path stroke="#00ff00" stroke-width="3.0" stroke-linejoin="round" stroke-linecap="butt" d="m39.33858 75.72179l303.6378 0" fill-rule="evenodd"></path><path fill="#00ff00" stroke="#00ff00" stroke-width="3.0" stroke-linecap="butt" d="m342.97638 80.67698l13.614288 -4.9551926l-13.614288 -4.9552z" fill-rule="evenodd"></path><path fill="#000000" fill-opacity="0.0" d="m38.27771 78.28296l398.64566 77.291336" fill-rule="evenodd"></path><path stroke="#ff0000" stroke-width="3.0" stroke-linejoin="round" stroke-linecap="butt" d="m38.27771 78.28296l380.97476 73.86522" fill-rule="evenodd"></path><path fill="#ff0000" stroke="#ff0000" stroke-width="3.0" stroke-linecap="butt" d="m418.3093 157.01279l14.308563 -2.2732697l-12.422211 -7.455948z" fill-rule="evenodd"></path><path fill="#d9d2e9" d="m32.09449 75.72179l0 0c0 -2.0004044 1.6216431 -3.6220474 3.6220436 -3.6220474l0 0c0.9606285 0 1.8819084 0.38160706 2.5611763 1.0608749c0.67926407 0.67926025 1.0608711 1.6005478 1.0608711 2.5611725l0 0c0 2.0003967 -1.6216431 3.6220474 -3.6220474 3.6220474l0 0c-2.0004005 0 -3.6220436 -1.6216507 -3.6220436 -3.6220474z" fill-rule="evenodd"></path><path stroke="#d9d2e9" stroke-width="1.0" stroke-linejoin="round" stroke-linecap="butt" d="m32.09449 75.72179l0 0c0 -2.0004044 1.6216431 -3.6220474 3.6220436 -3.6220474l0 0c0.9606285 0 1.8819084 0.38160706 2.5611763 1.0608749c0.67926407 0.67926025 1.0608711 1.6005478 1.0608711 2.5611725l0 0c0 2.0003967 -1.6216431 3.6220474 -3.6220474 3.6220474l0 0c-2.0004005 0 -3.6220436 -1.6216507 -3.6220436 -3.6220474z" fill-rule="evenodd"></path><path fill="#000000" fill-opacity="0.0" d="m0.87139106 33.548557l44.62992 0l0 42.17323l-44.62992 0z" fill-rule="evenodd"></path><path fill="#000000" d="m18.793266 58.95293q1.421875 -2.015625 2.15625 -3.515625q0.75 -1.515625 0.75 -2.46875q0 -0.421875 -0.1875 -0.578125q-0.1875 -0.15625 -0.625 -0.1875l0.09375 -0.4375l2.359375 0l0.234375 0.453125q-0.3125 0.8125 -0.5 1.25q-0.1875 0.4375 -0.5 1.046875q-0.3125 0.609375 -0.65625 1.21875q-0.34375 0.609375 -0.8125 1.34375q-0.46875 0.734375 -1.0625 1.609375q-0.578125 0.859375 -1.375 1.921875l-1.078125 0l-0.375 -3.796875q-0.046875 -0.453125 -0.09375 -1.171875q-0.046875 -0.71875 -0.078125 -1.109375l-0.09375 -0.015625q-0.484375 1.21875 -1.34375 2.703125q-0.84375 1.484375 -2.09375 3.390625l-1.21875 0l-0.6875 -6.859375q-0.0625 -0.515625 -0.140625 -0.84375q-0.078125 -0.328125 -0.28125 -0.484375q-0.1875 -0.171875 -0.625 -0.21875l0.109375 -0.4375l2.375 0l0.546875 7.1875q1.296875 -2.09375 1.859375 -3.1875q0.578125 -1.09375 0.84375 -1.890625q0.28125 -0.796875 0.421875 -1.671875l0.09375 -0.4375l1.3125 0l0.671875 7.1875z" fill-rule="nonzero"></path><path fill="#000000" d="m24.741417 68.54668q-0.0625 0.28125 -0.078125 0.4375q-0.015625 0.171875 -0.015625 0.265625q0 0.1875 0.0625 0.28125q0.0625 0.109375 0.1875 0.15625q0.125 0.0625 0.421875 0.09375l-0.046875 0.296875l-1.875 0l1.53125 -6.749996q0.125 -0.515625 0.125 -0.875q0 -0.171875 -0.0625 -0.265625q-0.046875 -0.09375 -0.171875 -0.140625q-0.125 -0.046875 -0.421875 -0.0625l0.078125 -0.328125l1.375 -0.046875l0.34375 0l-0.40625 1.578125l0.078125 0.03125q1.125 -1.65625 2.234375 -1.65625q0.65625 0 1.015625 0.515625q0.375 0.5 0.375 1.40625q0 0.6562462 -0.1875 1.3281212q-0.171875 0.65625 -0.5 1.203125q-0.3125 0.53125 -0.703125 0.875q-0.390625 0.328125 -0.828125 0.5q-0.421875 0.171875 -0.90625 0.171875q-0.8125 0 -1.34375 -0.34375l-0.28125 1.328125zm0.734375 -3.1875q-0.0625 0.3125 -0.078125 0.484375q-0.015625 0.171875 -0.015625 0.34375q0 0.46875 0.203125 0.6875q0.203125 0.21875 0.703125 0.21875q0.3125 0 0.5625 -0.125q0.265625 -0.125 0.5 -0.359375q0.234375 -0.234375 0.421875 -0.5625q0.1875 -0.328125 0.328125 -0.75q0.15625 -0.4375 0.234375 -0.890625q0.078125 -0.4687462 0.078125 -0.8593712q0 -0.640625 -0.1875 -0.953125q-0.171875 -0.3125 -0.5625 -0.3125q-0.3125 0 -0.609375 0.21875q-0.296875 0.203125 -0.65625 0.671875q-0.359375 0.453125 -0.5625 0.9062462q-0.203125 0.4375 -0.3125 1.015625l-0.046875 0.265625z" fill-rule="nonzero"></path><path fill="#000000" fill-opacity="0.0" d="m343.6063 35.947506l98.456696 0l0 42.17323l-98.456696 0z" fill-rule="evenodd"></path><path fill="#000000" d="m361.52817 61.35188q1.421875 -2.015625 2.15625 -3.515625q0.75 -1.515625 0.75 -2.46875q0 -0.421875 -0.1875 -0.578125q-0.1875 -0.15625 -0.625 -0.1875l0.09375 -0.4375l2.359375 0l0.234375 0.453125q-0.3125 0.8125 -0.5 1.25q-0.1875 0.4375 -0.5 1.046875q-0.3125 0.609375 -0.65625 1.21875q-0.34375 0.609375 -0.8125 1.34375q-0.46875 0.734375 -1.0625 1.609375q-0.578125 0.859375 -1.375 1.921875l-1.078125 0l-0.375 -3.796875q-0.046875 -0.453125 -0.09375 -1.171875q-0.046875 -0.71875 -0.078125 -1.109375l-0.09375 -0.015625q-0.484375 1.21875 -1.34375 2.703125q-0.84375 1.484375 -2.09375 3.390625l-1.21875 0l-0.6875 -6.859375q-0.0625 -0.515625 -0.140625 -0.84375q-0.078125 -0.328125 -0.28125 -0.484375q-0.1875 -0.171875 -0.625 -0.21875l0.109375 -0.4375l2.375 0l0.546875 7.1875q1.296875 -2.09375 1.859375 -3.1875q0.578125 -1.09375 0.84375 -1.890625q0.28125 -0.796875 0.421875 -1.671875l0.09375 -0.4375l1.3125 0l0.671875 7.1875z" fill-rule="nonzero"></path><path fill="#000000" d="m367.47632 70.94563q-0.0625 0.28125 -0.078125 0.4375q-0.015625 0.171875 -0.015625 0.265625q0 0.1875 0.0625 0.28125q0.0625 0.109375 0.1875 0.15625q0.125 0.0625 0.421875 0.09375l-0.046875 0.296875l-1.875 0l1.53125 -6.75q0.125 -0.515625 0.125 -0.875q0 -0.171875 -0.0625 -0.265625q-0.046875 -0.09375 -0.171875 -0.140625q-0.125 -0.046875 -0.421875 -0.0625l0.078125 -0.328125l1.375 -0.046875l0.34375 0l-0.40625 1.578125l0.078125 0.03125q1.125 -1.6562538 2.234375 -1.6562538q0.65625 0 1.015625 0.5156288q0.375 0.5 0.375 1.40625q0 0.65625 -0.1875 1.328125q-0.171875 0.65625 -0.5 1.203125q-0.3125 0.53125 -0.703125 0.875q-0.390625 0.328125 -0.828125 0.5q-0.421875 0.171875 -0.90625 0.171875q-0.8125 0 -1.34375 -0.34375l-0.28125 1.328125zm0.734375 -3.1875q-0.0625 0.3125 -0.078125 0.484375q-0.015625 0.171875 -0.015625 0.34375q0 0.46875 0.203125 0.6875q0.203125 0.21875 0.703125 0.21875q0.3125 0 0.5625 -0.125q0.265625 -0.125 0.5 -0.359375q0.234375 -0.234375 0.421875 -0.5625q0.1875 -0.328125 0.328125 -0.75q0.15625 -0.4375 0.234375 -0.890625q0.078125 -0.46875 0.078125 -0.859375q0 -0.640625 -0.1875 -0.953125q-0.171875 -0.3125 -0.5625 -0.3125q-0.3125 0 -0.609375 0.21875q-0.296875 0.203125 -0.65625 0.671875q-0.359375 0.453125 -0.5625 0.90625q-0.203125 0.4375 -0.3125 1.015625l-0.046875 0.265625z" fill-rule="nonzero"></path><path fill="#000000" d="m377.63837 58.773754l-3.984375 0l0.3125 -1.40625l3.96875 0l-0.296875 1.40625z" fill-rule="nonzero"></path><path fill="#000000" d="m383.57025 57.13313l-0.328125 -0.09375q0.078125 -1.046875 0.484375 -1.734375q0.421875 -0.6875 1.078125 -0.6875q0.578125 0 1.0 0.546875q0.421875 0.53125 0.484375 2.015625q0.0625 1.46875 0.0625 3.1875q0 0.421875 -0.046875 1.28125q2.28125 -2.71875 2.28125 -4.1875q0 -0.3125 -0.15625 -0.875q-0.140625 -0.5625 -0.140625 -1.0q0 -0.46875 0.265625 -0.71875q0.28125 -0.25 0.640625 -0.25q0.796875 0 0.796875 1.140625q0 1.140625 -0.75 2.59375q-0.734375 1.4375 -2.875 3.84375q-1.015625 4.703129 -2.125 4.703129q-0.515625 0 -0.515625 -0.71875q0 -1.03125 2.09375 -3.9531288q0.046875 -1.0625 0.046875 -1.5625q0 -0.9375 -0.140625 -2.46875q-0.125 -1.546875 -0.40625 -1.9375q-0.265625 -0.40625 -0.625 -0.40625q-0.75 0 -1.125 1.28125z" fill-rule="nonzero"></path><path fill="#000000" d="m390.59348 62.867504l5.546875 -12.640625l0.296875 0l5.234375 12.640625l-11.078125 0zm8.90625 -0.78125l-3.6875 -9.0625l-4.0 9.0625l7.6875 0z" fill-rule="nonzero"></path><path fill="#000000" d="m403.43445 70.94563q-0.0625 0.28125 -0.078125 0.4375q-0.015625 0.171875 -0.015625 0.265625q0 0.1875 0.0625 0.28125q0.0625 0.109375 0.1875 0.15625q0.125 0.0625 0.421875 0.09375l-0.046875 0.296875l-1.875 0l1.53125 -6.75q0.125 -0.515625 0.125 -0.875q0 -0.171875 -0.0625 -0.265625q-0.046875 -0.09375 -0.171875 -0.140625q-0.125 -0.046875 -0.421875 -0.0625l0.078125 -0.328125l1.375 -0.046875l0.34375 0l-0.40625 1.578125l0.078125 0.03125q1.125 -1.6562538 2.234375 -1.6562538q0.65625 0 1.015625 0.5156288q0.375 0.5 0.375 1.40625q0 0.65625 -0.1875 1.328125q-0.171875 0.65625 -0.5 1.203125q-0.3125 0.53125 -0.703125 0.875q-0.390625 0.328125 -0.828125 0.5q-0.421875 0.171875 -0.90625 0.171875q-0.8125 0 -1.34375 -0.34375l-0.28125 1.328125zm0.734375 -3.1875q-0.0625 0.3125 -0.078125 0.484375q-0.015625 0.171875 -0.015625 0.34375q0 0.46875 0.203125 0.6875q0.203125 0.21875 0.703125 0.21875q0.3125 0 0.5625 -0.125q0.265625 -0.125 0.5 -0.359375q0.234375 -0.234375 0.421875 -0.5625q0.1875 -0.328125 0.328125 -0.75q0.15625 -0.4375 0.234375 -0.890625q0.078125 -0.46875 0.078125 -0.859375q0 -0.640625 -0.1875 -0.953125q-0.171875 -0.3125 -0.5625 -0.3125q-0.3125 0 -0.609375 0.21875q-0.296875 0.203125 -0.65625 0.671875q-0.359375 0.453125 -0.5625 0.90625q-0.203125 0.4375 -0.3125 1.015625l-0.046875 0.265625z" fill-rule="nonzero"></path><path fill="#000000" fill-opacity="0.0" d="m410.75067 84.097115l177.25983 0l0 42.173225l-177.25983 0z" fill-rule="evenodd"></path><path fill="#000000" d="m424.9538 106.92336l-4.21875 0l0 -1.40625l4.21875 0l0 1.40625z" fill-rule="nonzero"></path><path fill="#000000" d="m426.82013 104.89211l-0.21875 -0.265625q1.65625 -1.859375 2.5 -1.859375q0.8125 0 0.8125 0.90625q0 0.265625 -0.25 1.046875l-0.65625 2.265625q1.5625 -2.34375 2.53125 -3.28125q0.984375 -0.9375 1.828125 -0.9375q1.046875 0 1.046875 1.1875q0 0.390625 -0.203125 1.125l-1.640625 5.984375q-0.59375 2.15625 -0.59375 3.421875q0 0.25 0.03125 0.515625l-1.359375 0q-0.046875 -0.359375 -0.046875 -0.671875q0 -1.203125 0.578125 -3.28125l1.640625 -5.875q0.140625 -0.546875 0.140625 -0.828125q0 -0.53125 -0.40625 -0.53125q-0.59375 0 -1.890625 1.546875q-1.28125 1.546875 -2.3125 3.984375l-0.515625 1.671875l-1.359375 0l1.890625 -6.453125q0.09375 -0.296875 0.09375 -0.4375q0 -0.375 -0.28125 -0.375q-0.328125 0 -1.359375 1.140625z" fill-rule="nonzero"></path><path fill="#000000" d="m451.68475 97.36086l-6.984375 13.875l-7.421875 -13.875l14.40625 0zm-6.609375 12.015625l5.34375 -10.828125l-11.140625 0l5.796875 10.828125z" fill-rule="nonzero"></path><path fill="#000000" d="m454.68475 110.56399q0.34375 -0.046875 0.515625 -0.171875q0.171875 -0.125 0.28125 -0.34375q0.125 -0.21875 0.21875 -0.53125q0.109375 -0.3125 0.3125 -1.21875l1.546875 -7.015625q0.09375 -0.40625 0.140625 -0.796875q0.0625 -0.390625 0.0625 -0.671875q0 -0.421875 -0.21875 -0.578125q-0.21875 -0.171875 -0.671875 -0.203125l0.09375 -0.453125l3.640625 0l-0.09375 0.453125q-0.34375 0.0625 -0.5 0.15625q-0.140625 0.09375 -0.265625 0.28125q-0.125 0.171875 -0.25 0.5625q-0.125 0.390625 -0.3125 1.265625l-1.953125 8.875l2.25 0q0.609375 0 0.953125 -0.109375q0.359375 -0.125 0.671875 -0.4375q0.3125 -0.3125 0.609375 -0.84375q0.296875 -0.546875 0.609375 -1.34375l0.890625 0l-0.921875 3.578125l-7.71875 0l0.109375 -0.453125z" fill-rule="nonzero"></path><path fill="#000000" d="m470.691 114.98586q-1.546875 0 -2.53125 -0.46875q-0.984375 -0.46875 -1.53125 -1.421875q-0.546875 -0.953125 -0.796875 -2.46875q-0.234375 -1.515625 -0.234375 -4.125q0 -2.59375 0.234375 -4.125q0.25 -1.53125 0.796875 -2.5q0.546875 -0.96875 1.53125 -1.453125q0.984375 -0.484375 2.53125 -0.484375l0 0.75q-0.640625 0 -1.125 0.109375q-0.5625 0.125 -0.953125 0.5q-0.4375 0.390625 -0.71875 1.109375q-0.3125 0.84375 -0.46875 2.234375q-0.15625 1.453125 -0.15625 3.78125q0 2.046875 0.125 3.484375q0.140625 1.4375 0.46875 2.34375q0.25 0.765625 0.625 1.203125q0.34375 0.375 0.8125 0.5625q0.53125 0.21875 1.390625 0.21875l0 0.75z" fill-rule="nonzero"></path><path fill="#000000" d="m480.00214 109.50149q1.421875 -2.015625 2.15625 -3.515625q0.75 -1.515625 0.75 -2.46875q0 -0.421875 -0.1875 -0.578125q-0.1875 -0.15625 -0.625 -0.1875l0.09375 -0.4375l2.359375 0l0.234375 0.453125q-0.3125 0.8125 -0.5 1.25q-0.1875 0.4375 -0.5 1.046875q-0.3125 0.609375 -0.65625 1.21875q-0.34375 0.609375 -0.8125 1.34375q-0.46875 0.734375 -1.0625 1.609375q-0.578125 0.859375 -1.375 1.921875l-1.078125 0l-0.375 -3.796875q-0.046875 -0.453125 -0.09375 -1.171875q-0.046875 -0.71875 -0.078125 -1.109375l-0.09375 -0.015625q-0.484375 1.21875 -1.34375 2.703125q-0.84375 1.484375 -2.09375 3.390625l-1.21875 0l-0.6875 -6.859375q-0.0625 -0.515625 -0.140625 -0.84375q-0.078125 -0.328125 -0.28125 -0.484375q-0.1875 -0.171875 -0.625 -0.21875l0.109375 -0.4375l2.375 0l0.546875 7.1875q1.296875 -2.09375 1.859375 -3.1875q0.578125 -1.09375 0.84375 -1.890625q0.28125 -0.796875 0.421875 -1.671875l0.09375 -0.4375l1.3125 0l0.671875 7.1875z" fill-rule="nonzero"></path><path fill="#000000" d="m485.9503 119.09524q-0.0625 0.28125 -0.078125 0.4375q-0.015625 0.171875 -0.015625 0.265625q0 0.1875 0.0625 0.28125q0.0625 0.109375 0.1875 0.15625q0.125 0.0625 0.421875 0.09375l-0.046875 0.296875l-1.875 0l1.53125 -6.75q0.125 -0.515625 0.125 -0.875q0 -0.171875 -0.0625 -0.265625q-0.046875 -0.09375 -0.171875 -0.140625q-0.125 -0.046875 -0.421875 -0.0625l0.078125 -0.328125l1.375 -0.046875l0.34375 0l-0.40625 1.578125l0.078125 0.03125q1.125 -1.65625 2.234375 -1.65625q0.65625 0 1.015625 0.515625q0.375 0.5 0.375 1.40625q0 0.65625 -0.1875 1.328125q-0.171875 0.65625 -0.5 1.203125q-0.3125 0.53125 -0.703125 0.875q-0.390625 0.328125 -0.828125 0.5q-0.421875 0.171875 -0.90625 0.171875q-0.8125 0 -1.34375 -0.34375l-0.28125 1.328125zm0.734375 -3.1875q-0.0625 0.3125 -0.078125 0.484375q-0.015625 0.171875 -0.015625 0.34375q0 0.46875 0.203125 0.6875q0.203125 0.21875 0.703125 0.21875q0.3125 0 0.5625 -0.125q0.265625 -0.125 0.5 -0.359375q0.234375 -0.234375 0.421875 -0.5625q0.1875 -0.328125 0.328125 -0.75q0.15625 -0.4375 0.234375 -0.890625q0.078125 -0.46875 0.078125 -0.859375q0 -0.640625 -0.1875 -0.953125q-0.171875 -0.3125 -0.5625 -0.3125q-0.3125 0 -0.609375 0.21875q-0.296875 0.203125 -0.65625 0.671875q-0.359375 0.453125 -0.5625 0.90625q-0.203125 0.4375 -0.3125 1.015625l-0.046875 0.265625z" fill-rule="nonzero"></path><path fill="#000000" d="m496.11234 106.92336l-3.984375 0l0.3125 -1.40625l3.96875 0l-0.296875 1.40625z" fill-rule="nonzero"></path><path fill="#000000" d="m502.04422 105.28274l-0.328125 -0.09375q0.078125 -1.046875 0.484375 -1.734375q0.421875 -0.6875 1.078125 -0.6875q0.578125 0 1.0 0.546875q0.421875 0.53125 0.484375 2.015625q0.0625 1.46875 0.0625 3.1875q0 0.421875 -0.046875 1.28125q2.28125 -2.71875 2.28125 -4.1875q0 -0.3125 -0.15625 -0.875q-0.140625 -0.5625 -0.140625 -1.0q0 -0.46875 0.265625 -0.71875q0.28125 -0.25 0.640625 -0.25q0.796875 0 0.796875 1.140625q0 1.140625 -0.75 2.59375q-0.734375 1.4375 -2.875 3.84375q-1.015625 4.703125 -2.125 4.703125q-0.515625 0 -0.515625 -0.71875q0 -1.03125 2.09375 -3.953125q0.046875 -1.0625 0.046875 -1.5625q0 -0.9375 -0.140625 -2.46875q-0.125 -1.546875 -0.40625 -1.9375q-0.265625 -0.40625 -0.625 -0.40625q-0.75 0 -1.125 1.28125z" fill-rule="nonzero"></path><path fill="#000000" d="m509.06744 111.01711l5.546875 -12.640625l0.296875 0l5.234375 12.640625l-11.078125 0zm8.90625 -0.78125l-3.6875 -9.0625l-4.0 9.0625l7.6875 0z" fill-rule="nonzero"></path><path fill="#000000" d="m521.9084 119.09524q-0.0625 0.28125 -0.078125 0.4375q-0.015625 0.171875 -0.015625 0.265625q0 0.1875 0.0625 0.28125q0.0625 0.109375 0.1875 0.15625q0.125 0.0625 0.421875 0.09375l-0.046875 0.296875l-1.875 0l1.53125 -6.75q0.125 -0.515625 0.125 -0.875q0 -0.171875 -0.0625 -0.265625q-0.046875 -0.09375 -0.171875 -0.140625q-0.125 -0.046875 -0.421875 -0.0625l0.078125 -0.328125l1.375 -0.046875l0.34375 0l-0.40625 1.578125l0.078125 0.03125q1.125 -1.65625 2.234375 -1.65625q0.65625 0 1.015625 0.515625q0.375 0.5 0.375 1.40625q0 0.65625 -0.1875 1.328125q-0.171875 0.65625 -0.5 1.203125q-0.3125 0.53125 -0.703125 0.875q-0.390625 0.328125 -0.828125 0.5q-0.421875 0.171875 -0.90625 0.171875q-0.8125 0 -1.34375 -0.34375l-0.28125 1.328125zm0.734375 -3.1875q-0.0625 0.3125 -0.078125 0.484375q-0.015625 0.171875 -0.015625 0.34375q0 0.46875 0.203125 0.6875q0.203125 0.21875 0.703125 0.21875q0.3125 0 0.5625 -0.125q0.265625 -0.125 0.5 -0.359375q0.234375 -0.234375 0.421875 -0.5625q0.1875 -0.328125 0.328125 -0.75q0.15625 -0.4375 0.234375 -0.890625q0.078125 -0.46875 0.078125 -0.859375q0 -0.640625 -0.1875 -0.953125q-0.171875 -0.3125 -0.5625 -0.3125q-0.3125 0 -0.609375 0.21875q-0.296875 0.203125 -0.65625 0.671875q-0.359375 0.453125 -0.5625 0.90625q-0.203125 0.4375 -0.3125 1.015625l-0.046875 0.265625z" fill-rule="nonzero"></path><path fill="#000000" d="m527.5548 97.93899q1.546875 0 2.53125 0.46875q0.984375 0.46875 1.515625 1.421875q0.546875 0.953125 0.796875 2.46875q0.25 1.515625 0.25 4.125q0 2.59375 -0.25 4.125q-0.234375 1.53125 -0.78125 2.5q-0.546875 0.96875 -1.53125 1.453125q-0.984375 0.484375 -2.53125 0.484375l0 -0.75q0.640625 0 1.125 -0.109375q0.5625 -0.125 0.953125 -0.5q0.4375 -0.390625 0.703125 -1.109375q0.328125 -0.84375 0.484375 -2.234375q0.15625 -1.46875 0.15625 -3.78125q0 -2.046875 -0.140625 -3.484375q-0.125 -1.4375 -0.453125 -2.34375q-0.25 -0.765625 -0.625 -1.203125q-0.34375 -0.375 -0.8125 -0.5625q-0.53125 -0.21875 -1.390625 -0.21875l0 -0.75z" fill-rule="nonzero"></path><path fill="#000000" fill-opacity="0.0" d="m423.97638 145.8084l54.582672 0l0 42.173233l-54.582672 0z" fill-rule="evenodd"></path><path fill="#000000" d="m441.89825 171.21277q1.421875 -2.015625 2.15625 -3.515625q0.75 -1.515625 0.75 -2.46875q0 -0.421875 -0.1875 -0.578125q-0.1875 -0.15625 -0.625 -0.1875l0.09375 -0.4375l2.359375 0l0.234375 0.453125q-0.3125 0.8125 -0.5 1.25q-0.1875 0.4375 -0.5 1.046875q-0.3125 0.609375 -0.65625 1.21875q-0.34375 0.609375 -0.8125 1.34375q-0.46875 0.734375 -1.0625 1.609375q-0.578125 0.859375 -1.375 1.921875l-1.078125 0l-0.375 -3.796875q-0.046875 -0.453125 -0.09375 -1.171875q-0.046875 -0.71875 -0.078125 -1.109375l-0.09375 -0.015625q-0.484375 1.21875 -1.34375 2.703125q-0.84375 1.484375 -2.09375 3.390625l-1.21875 0l-0.6875 -6.859375q-0.0625 -0.515625 -0.140625 -0.84375q-0.078125 -0.328125 -0.28125 -0.484375q-0.1875 -0.171875 -0.625 -0.21875l0.109375 -0.4375l2.375 0l0.546875 7.1875q1.296875 -2.09375 1.859375 -3.1875q0.578125 -1.09375 0.84375 -1.890625q0.28125 -0.796875 0.421875 -1.671875l0.09375 -0.4375l1.3125 0l0.671875 7.1875z" fill-rule="nonzero"></path><path fill="#000000" d="m447.8464 180.80652q-0.0625 0.28125 -0.078125 0.4375q-0.015625 0.171875 -0.015625 0.265625q0 0.1875 0.0625 0.28125q0.0625 0.109375 0.1875 0.15625q0.125 0.0625 0.421875 0.09375l-0.046875 0.296875l-1.875 0l1.53125 -6.75q0.125 -0.515625 0.125 -0.875q0 -0.171875 -0.0625 -0.265625q-0.046875 -0.09375 -0.171875 -0.140625q-0.125 -0.046875 -0.421875 -0.0625l0.078125 -0.328125l1.375 -0.046875l0.34375 0l-0.40625 1.578125l0.078125 0.03125q1.125 -1.65625 2.234375 -1.65625q0.65625 0 1.015625 0.515625q0.375 0.5 0.375 1.40625q0 0.65625 -0.1875 1.328125q-0.171875 0.65625 -0.5 1.203125q-0.3125 0.53125 -0.703125 0.875q-0.390625 0.328125 -0.828125 0.5q-0.421875 0.171875 -0.90625 0.171875q-0.8125 0 -1.34375 -0.34375l-0.28125 1.328125zm0.734375 -3.1875q-0.0625 0.3125 -0.078125 0.484375q-0.015625 0.171875 -0.015625 0.34375q0 0.46875 0.203125 0.6875q0.203125 0.21875 0.703125 0.21875q0.3125 0 0.5625 -0.125q0.265625 -0.125 0.5 -0.359375q0.234375 -0.234375 0.421875 -0.5625q0.1875 -0.328125 0.328125 -0.75q0.15625 -0.4375 0.234375 -0.890625q0.078125 -0.46875 0.078125 -0.859375q0 -0.640625 -0.1875 -0.953125q-0.171875 -0.3125 -0.5625 -0.3125q-0.3125 0 -0.609375 0.21875q-0.296875 0.203125 -0.65625 0.671875q-0.359375 0.453125 -0.5625 0.90625q-0.203125 0.4375 -0.3125 1.015625l-0.046875 0.265625zm8.318298 -1.03125l-0.515625 2.3125l-0.90625 0l0.5 -2.3125l-2.0625 0l0.171875 -0.828125l2.078125 0l0.5 -2.296875l0.90625 0l-0.5 2.296875l2.09375 0l-0.1875 0.828125l-2.078125 0zm6.477112 1.390625q-0.109375 0.5 -0.109375 0.703125q0 0.25 0.125 0.375q0.125 0.109375 0.421875 0.15625q0.296875 0.046875 0.90625 0.078125l-0.078125 0.4375l-4.296875 0l0.09375 -0.4375q0.515625 -0.03125 0.78125 -0.0625q0.28125 -0.046875 0.4375 -0.125q0.171875 -0.078125 0.265625 -0.171875q0.109375 -0.109375 0.1875 -0.28125q0.078125 -0.171875 0.15625 -0.5l0.96875 -4.40625q0.0625 -0.265625 0.078125 -0.40625q0.03125 -0.15625 0.03125 -0.25q0 -0.1875 -0.09375 -0.265625q-0.09375 -0.078125 -0.21875 -0.078125q-0.15625 0 -0.484375 0.15625q-0.3125 0.15625 -0.953125 0.53125l-0.234375 -0.484375l3.078125 -1.609375l0.421875 0l-0.171875 0.71875q-0.109375 0.390625 -0.21875 0.90625l-1.09375 5.015625z" fill-rule="nonzero"></path></g></svg>

