<svg version="1.1" viewBox="0.0 0.0 930.4278215223097 187.4488188976378" fill="none" stroke="none" stroke-linecap="square" stroke-miterlimit="10" xmlns:xlink="http://www.w3.org/1999/xlink" xmlns="http://www.w3.org/2000/svg"><clipPath id="p.0"><path d="m0 0l930.4278 0l0 187.44882l-930.4278 0l0 -187.44882z" clip-rule="nonzero"/></clipPath><g clip-path="url(#p.0)"><path fill="#000000" fill-opacity="0.0" d="m0 0l930.4278 0l0 187.44882l-930.4278 0z" fill-rule="evenodd"/><path fill="#c9daf8" d="m17.75328 43.252205l0 0c0 -13.794073 11.182304 -24.976377 24.97638 -24.976377l0 0c6.6241455 0 12.976986 2.6314316 17.660965 7.3154125c4.683983 4.683979 7.3154144 11.036819 7.3154144 17.660965l0 0c0 13.794071 -11.182308 24.97638 -24.97638 24.97638l0 0c-13.794075 0 -24.97638 -11.182308 -24.97638 -24.97638z" fill-rule="evenodd"/><path stroke="#4a86e8" stroke-width="1.0" stroke-linejoin="round" stroke-linecap="butt" d="m17.75328 43.252205l0 0c0 -13.794073 11.182304 -24.976377 24.97638 -24.976377l0 0c6.6241455 0 12.976986 2.6314316 17.660965 7.3154125c4.683983 4.683979 7.3154144 11.036819 7.3154144 17.660965l0 0c0 13.794071 -11.182308 24.97638 -24.97638 24.97638l0 0c-13.794075 0 -24.97638 -11.182308 -24.97638 -24.97638z" fill-rule="evenodd"/><path fill="#000000" d="m44.517246 47.625328q0 0.53125 0.046875 0.8125q0.0625 0.265625 0.203125 0.4375q0.15625 0.15625 0.4375 0.25q0.296875 0.09375 0.71875 0.15625q0.421875 0.046875 1.125 0.0625l0 0.828125l-7.859371 0l0 -0.828125q1.015625 -0.046875 1.4375 -0.125q0.4375 -0.078125 0.6562462 -0.234375q0.234375 -0.15625 0.34375 -0.4375q0.109375 -0.28125 0.109375 -0.921875l0 -6.578125q0 -0.375 -0.140625 -0.53125q-0.140625 -0.171875 -0.390625 -0.171875q-0.23437119 0 -0.6562462 0.21875q-0.40625 0.203125 -1.34375 0.84375l-0.5625 -0.96875l4.749996 -2.84375l1.171875 0q-0.046875 0.875 -0.046875 2.421875l0 7.609375z" fill-rule="nonzero"/><path fill="#c9daf8" d="m112.60417 43.252205l0 0c0 -13.794073 11.182312 -24.976377 24.97638 -24.976377l0 0c6.6241455 0 12.97699 2.6314316 17.660965 7.3154125c4.683975 4.683979 7.3154144 11.036819 7.3154144 17.660965l0 0c0 13.794071 -11.182312 24.97638 -24.97638 24.97638l0 0c-13.794067 0 -24.97638 -11.182308 -24.97638 -24.97638z" fill-rule="evenodd"/><path stroke="#4a86e8" stroke-width="1.0" stroke-linejoin="round" stroke-linecap="butt" d="m112.60417 43.252205l0 0c0 -13.794073 11.182312 -24.976377 24.97638 -24.976377l0 0c6.6241455 0 12.97699 2.6314316 17.660965 7.3154125c4.683975 4.683979 7.3154144 11.036819 7.3154144 17.660965l0 0c0 13.794071 -11.182312 24.97638 -24.97638 24.97638l0 0c-13.794067 0 -24.97638 -11.182308 -24.97638 -24.97638z" fill-rule="evenodd"/><path fill="#000000" fill-opacity="0.0" d="m67.70604 43.252205l44.913383 0" fill-rule="evenodd"/><path stroke="#666666" stroke-width="1.0" stroke-linejoin="round" stroke-linecap="butt" d="m67.70604 43.252205l44.913383 0" fill-rule="evenodd"/><path fill="#c9daf8" d="m207.45506 43.252205l0 0c0 -13.794073 11.182312 -24.976377 24.97638 -24.976377l0 0c6.6241455 0 12.97699 2.6314316 17.660965 7.3154125c4.6839905 4.683979 7.3154297 11.036819 7.3154297 17.660965l0 0c0 13.794071 -11.182312 24.97638 -24.976395 24.97638l0 0c-13.794067 0 -24.97638 -11.182308 -24.97638 -24.97638z" fill-rule="evenodd"/><path stroke="#4a86e8" stroke-width="1.0" stroke-linejoin="round" stroke-linecap="butt" d="m207.45506 43.252205l0 0c0 -13.794073 11.182312 -24.976377 24.97638 -24.976377l0 0c6.6241455 0 12.97699 2.6314316 17.660965 7.3154125c4.6839905 4.683979 7.3154297 11.036819 7.3154297 17.660965l0 0c0 13.794071 -11.182312 24.97638 -24.976395 24.97638l0 0c-13.794067 0 -24.97638 -11.182308 -24.97638 -24.97638z" fill-rule="evenodd"/><path fill="#c9daf8" d="m302.30597 43.252205l0 0c0 -13.794073 11.182312 -24.976377 24.97638 -24.976377l0 0c6.6241455 0 12.97699 2.6314316 17.66095 7.3154125c4.6839905 4.683979 7.3154297 11.036819 7.3154297 17.660965l0 0c0 13.794071 -11.182312 24.97638 -24.97638 24.97638l0 0c-13.794067 0 -24.97638 -11.182308 -24.97638 -24.97638z" fill-rule="evenodd"/><path stroke="#4a86e8" stroke-width="1.0" stroke-linejoin="round" stroke-linecap="butt" d="m302.30597 43.252205l0 0c0 -13.794073 11.182312 -24.976377 24.97638 -24.976377l0 0c6.6241455 0 12.97699 2.6314316 17.66095 7.3154125c4.6839905 4.683979 7.3154297 11.036819 7.3154297 17.660965l0 0c0 13.794071 -11.182312 24.97638 -24.97638 24.97638l0 0c-13.794067 0 -24.97638 -11.182308 -24.97638 -24.97638z" fill-rule="evenodd"/><path fill="#c9daf8" d="m586.85864 43.252205l0 0c0 -13.794073 11.182312 -24.976377 24.97638 -24.976377l0 0c6.6241455 0 12.97699 2.6314316 17.66095 7.3154125c4.684021 4.683979 7.3154297 11.036819 7.3154297 17.660965l0 0c0 13.794071 -11.182312 24.97638 -24.97638 24.97638l0 0c-13.794067 0 -24.97638 -11.182308 -24.97638 -24.97638z" fill-rule="evenodd"/><path stroke="#4a86e8" stroke-width="1.0" stroke-linejoin="round" stroke-linecap="butt" d="m586.85864 43.252205l0 0c0 -13.794073 11.182312 -24.976377 24.97638 -24.976377l0 0c6.6241455 0 12.97699 2.6314316 17.66095 7.3154125c4.684021 4.683979 7.3154297 11.036819 7.3154297 17.660965l0 0c0 13.794071 -11.182312 24.97638 -24.97638 24.97638l0 0c-13.794067 0 -24.97638 -11.182308 -24.97638 -24.97638z" fill-rule="evenodd"/><path fill="#c9daf8" d="m492.00775 43.252205l0 0c0 -13.794073 11.182312 -24.976377 24.97638 -24.976377l0 0c6.6241455 0 12.97699 2.6314316 17.66095 7.3154125c4.684021 4.683979 7.3154297 11.036819 7.3154297 17.660965l0 0c0 13.794071 -11.182312 24.97638 -24.97638 24.97638l0 0c-13.794067 0 -24.97638 -11.182308 -24.97638 -24.97638z" fill-rule="evenodd"/><path stroke="#4a86e8" stroke-width="1.0" stroke-linejoin="round" stroke-linecap="butt" d="m492.00775 43.252205l0 0c0 -13.794073 11.182312 -24.976377 24.97638 -24.976377l0 0c6.6241455 0 12.97699 2.6314316 17.66095 7.3154125c4.684021 4.683979 7.3154297 11.036819 7.3154297 17.660965l0 0c0 13.794071 -11.182312 24.97638 -24.97638 24.97638l0 0c-13.794067 0 -24.97638 -11.182308 -24.97638 -24.97638z" fill-rule="evenodd"/><path fill="#000000" d="m511.49194 47.03408q0.3125 0.46875 0.515625 0.75q0.203125 0.265625 0.359375 0.421875q0.15625 0.15625 0.3125 0.25q0.15625 0.078125 0.40625 0.140625l0 0.515625l-4.234375 0l0 -0.515625q0.265625 -0.046875 0.359375 -0.125q0.09375 -0.09375 0.09375 -0.25q0 -0.125 -0.046875 -0.234375q-0.03125 -0.125 -0.171875 -0.359375q-0.125 -0.234375 -0.53125 -0.859375l-1.1875 -1.84375q-0.21875 -0.34375 -0.390625 -0.53125q-0.15625 -0.1875 -0.3125 -0.265625q-0.15625 -0.078125 -0.4375 -0.078125l-0.15625 0l0 3.09375q0 0.28125 0.015625 0.515625q0.015625 0.234375 0.0625 0.390625q0.046875 0.140625 0.125 0.25q0.09375 0.09375 0.25 0.171875q0.15625 0.0625 0.390625 0.125l0 0.515625l-4.109375 0l0 -0.515625q0.296875 -0.078125 0.453125 -0.171875q0.171875 -0.09375 0.25 -0.25q0.09375 -0.15625 0.109375 -0.40625q0.03125 -0.25 0.03125 -0.625l0 -6.734375q0 -0.359375 -0.03125 -0.609375q-0.015625 -0.25 -0.09375 -0.40625q-0.078125 -0.15625 -0.25 -0.25q-0.171875 -0.109375 -0.46875 -0.1875l0 -0.515625l4.109375 0l0 0.515625q-0.328125 0.09375 -0.484375 0.203125q-0.15625 0.09375 -0.234375 0.234375q-0.0625 0.140625 -0.09375 0.359375q-0.03125 0.21875 -0.03125 0.65625l0 2.78125l0.15625 0q0.359375 0 0.5625 -0.078125q0.21875 -0.078125 0.4375 -0.28125q0.234375 -0.203125 0.859375 -0.9375q0.640625 -0.75 0.921875 -1.15625q0.296875 -0.40625 0.390625 -0.65625q0.109375 -0.265625 0.109375 -0.53125q0 -0.265625 -0.1875 -0.421875q-0.171875 -0.15625 -0.515625 -0.171875l0 -0.515625l4.0 0l0 0.53125q-0.296875 0.0625 -0.515625 0.171875q-0.203125 0.109375 -0.484375 0.359375q-0.265625 0.234375 -0.6875 0.71875l-2.34375 2.625l2.71875 4.1875zm7.046875 -1.703125l0 3.0l-1.671875 0l0 -3.0l-2.96875 0l0 -1.59375l2.96875 0l0 -3.0l1.671875 0l0 3.0l2.96875 0l0 1.59375l-2.96875 0zm10.1640625 1.59375q0 0.453125 0.046875 0.6875q0.0625 0.234375 0.1875 0.375q0.125 0.140625 0.359375 0.234375q0.25 0.078125 0.609375 0.125q0.375 0.03125 0.984375 0.046875l0 0.71875l-6.75 0l0 -0.71875q0.875 -0.03125 1.234375 -0.09375q0.375 -0.078125 0.5625 -0.203125q0.203125 -0.140625 0.296875 -0.375q0.09375 -0.25 0.09375 -0.796875l0 -5.640625q0 -0.328125 -0.125 -0.46875q-0.125 -0.140625 -0.328125 -0.140625q-0.203125 0 -0.5625 0.1875q-0.34375 0.171875 -1.15625 0.734375l-0.484375 -0.828125l4.078125 -2.453125l1.0 0q-0.046875 0.75 -0.046875 2.078125l0 6.53125z" fill-rule="nonzero"/><path fill="#c9daf8" d="m397.15686 43.252205l0 0c0 -13.794073 11.182312 -24.976377 24.97638 -24.976377l0 0c6.6241455 0 12.97699 2.6314316 17.66095 7.3154125c4.6839905 4.683979 7.3154297 11.036819 7.3154297 17.660965l0 0c0 13.794071 -11.182312 24.97638 -24.97638 24.97638l0 0c-13.794067 0 -24.97638 -11.182308 -24.97638 -24.97638z" fill-rule="evenodd"/><path stroke="#4a86e8" stroke-width="1.0" stroke-linejoin="round" stroke-linecap="butt" d="m397.15686 43.252205l0 0c0 -13.794073 11.182312 -24.976377 24.97638 -24.976377l0 0c6.6241455 0 12.97699 2.6314316 17.66095 7.3154125c4.6839905 4.683979 7.3154297 11.036819 7.3154297 17.660965l0 0c0 13.794071 -11.182312 24.97638 -24.97638 24.97638l0 0c-13.794067 0 -24.97638 -11.182308 -24.97638 -24.97638z" fill-rule="evenodd"/><path fill="#000000" d="m426.1176 47.03408q0.3125 0.46875 0.515625 0.75q0.203125 0.265625 0.359375 0.421875q0.15625 0.15625 0.3125 0.25q0.15625 0.078125 0.40625 0.140625l0 0.515625l-4.234375 0l0 -0.515625q0.265625 -0.046875 0.359375 -0.125q0.09375 -0.09375 0.09375 -0.25q0 -0.125 -0.046875 -0.234375q-0.03125 -0.125 -0.171875 -0.359375q-0.125 -0.234375 -0.53125 -0.859375l-1.1875 -1.84375q-0.21875 -0.34375 -0.390625 -0.53125q-0.15625 -0.1875 -0.3125 -0.265625q-0.15625 -0.078125 -0.4375 -0.078125l-0.15625 0l0 3.09375q0 0.28125 0.015625 0.515625q0.015625 0.234375 0.0625 0.390625q0.046875 0.140625 0.125 0.25q0.09375 0.09375 0.25 0.171875q0.15625 0.0625 0.390625 0.125l0 0.515625l-4.109375 0l0 -0.515625q0.296875 -0.078125 0.453125 -0.171875q0.171875 -0.09375 0.25 -0.25q0.09375 -0.15625 0.109375 -0.40625q0.03125 -0.25 0.03125 -0.625l0 -6.734375q0 -0.359375 -0.03125 -0.609375q-0.015625 -0.25 -0.09375 -0.40625q-0.078125 -0.15625 -0.25 -0.25q-0.171875 -0.109375 -0.46875 -0.1875l0 -0.515625l4.109375 0l0 0.515625q-0.328125 0.09375 -0.484375 0.203125q-0.15625 0.09375 -0.234375 0.234375q-0.0625 0.140625 -0.09375 0.359375q-0.03125 0.21875 -0.03125 0.65625l0 2.78125l0.15625 0q0.359375 0 0.5625 -0.078125q0.21875 -0.078125 0.4375 -0.28125q0.234375 -0.203125 0.859375 -0.9375q0.640625 -0.75 0.921875 -1.15625q0.296875 -0.40625 0.390625 -0.65625q0.109375 -0.265625 0.109375 -0.53125q0 -0.265625 -0.1875 -0.421875q-0.171875 -0.15625 -0.515625 -0.171875l0 -0.515625l4.0 0l0 0.53125q-0.296875 0.0625 -0.515625 0.171875q-0.203125 0.109375 -0.484375 0.359375q-0.265625 0.234375 -0.6875 0.71875l-2.34375 2.625l2.71875 4.1875z" fill-rule="nonzero"/><path fill="#c9daf8" d="m776.5604 43.252205l0 0c0 -13.794073 11.182312 -24.976377 24.97638 -24.976377l0 0c6.6241455 0 12.97699 2.6314316 17.66095 7.3154125c4.684021 4.683979 7.3154297 11.036819 7.3154297 17.660965l0 0c0 13.794071 -11.182312 24.97638 -24.97638 24.97638l0 0c-13.794067 0 -24.97638 -11.182308 -24.97638 -24.97638z" fill-rule="evenodd"/><path stroke="#4a86e8" stroke-width="1.0" stroke-linejoin="round" stroke-linecap="butt" d="m776.5604 43.252205l0 0c0 -13.794073 11.182312 -24.976377 24.97638 -24.976377l0 0c6.6241455 0 12.97699 2.6314316 17.66095 7.3154125c4.684021 4.683979 7.3154297 11.036819 7.3154297 17.660965l0 0c0 13.794071 -11.182312 24.97638 -24.97638 24.97638l0 0c-13.794067 0 -24.97638 -11.182308 -24.97638 -24.97638z" fill-rule="evenodd"/><path fill="#c9daf8" d="m681.70953 43.252205l0 0c0 -13.794073 11.182312 -24.976377 24.97638 -24.976377l0 0c6.6241455 0 12.97699 2.6314316 17.66095 7.3154125c4.684021 4.683979 7.3154297 11.036819 7.3154297 17.660965l0 0c0 13.794071 -11.182312 24.97638 -24.97638 24.97638l0 0c-13.794067 0 -24.97638 -11.182308 -24.97638 -24.97638z" fill-rule="evenodd"/><path stroke="#4a86e8" stroke-width="1.0" stroke-linejoin="round" stroke-linecap="butt" d="m681.70953 43.252205l0 0c0 -13.794073 11.182312 -24.976377 24.97638 -24.976377l0 0c6.6241455 0 12.97699 2.6314316 17.66095 7.3154125c4.684021 4.683979 7.3154297 11.036819 7.3154297 17.660965l0 0c0 13.794071 -11.182312 24.97638 -24.97638 24.97638l0 0c-13.794067 0 -24.97638 -11.182308 -24.97638 -24.97638z" fill-rule="evenodd"/><path fill="#000000" fill-opacity="0.0" d="m162.55693 43.252205l44.91339 0" fill-rule="evenodd"/><path stroke="#000000" stroke-width="1.0" stroke-linejoin="round" stroke-linecap="butt" d="m162.55693 43.252205l44.91339 0" fill-rule="evenodd"/><path fill="#000000" fill-opacity="0.0" d="m257.40784 43.252205l44.91336 0" fill-rule="evenodd"/><path stroke="#000000" stroke-width="1.0" stroke-linejoin="round" stroke-linecap="butt" d="m257.40784 43.252205l44.91336 0" fill-rule="evenodd"/><path fill="#000000" fill-opacity="0.0" d="m352.25873 43.252205l44.91339 0" fill-rule="evenodd"/><path stroke="#000000" stroke-width="1.0" stroke-linejoin="round" stroke-linecap="butt" d="m352.25873 43.252205l44.91339 0" fill-rule="evenodd"/><path fill="#000000" fill-opacity="0.0" d="m447.10962 43.252205l44.91339 0" fill-rule="evenodd"/><path stroke="#000000" stroke-width="1.0" stroke-linejoin="round" stroke-linecap="butt" d="m447.10962 43.252205l44.91339 0" fill-rule="evenodd"/><path fill="#000000" fill-opacity="0.0" d="m541.9605 43.252205l44.91339 0" fill-rule="evenodd"/><path stroke="#000000" stroke-width="1.0" stroke-linejoin="round" stroke-linecap="butt" d="m541.9605 43.252205l44.91339 0" fill-rule="evenodd"/><path fill="#000000" fill-opacity="0.0" d="m636.8114 43.252205l44.91339 0" fill-rule="evenodd"/><path stroke="#000000" stroke-width="1.0" stroke-linejoin="round" stroke-linecap="butt" d="m636.8114 43.252205l44.91339 0" fill-rule="evenodd"/><path fill="#000000" fill-opacity="0.0" d="m731.6623 43.252205l44.91339 0" fill-rule="evenodd"/><path stroke="#000000" stroke-width="1.0" stroke-linejoin="round" stroke-linecap="butt" d="m731.6623 43.252205l44.91339 0" fill-rule="evenodd"/><path fill="#c9daf8" d="m17.75328 153.82964l0 0c0 -13.794083 11.182304 -24.97638 24.97638 -24.97638l0 0c6.6241455 0 12.976986 2.631424 17.660965 7.3154144c4.683983 4.683975 7.3154144 11.036819 7.3154144 17.660965l0 0c0 13.794067 -11.182308 24.97638 -24.97638 24.97638l0 0c-13.794075 0 -24.97638 -11.182312 -24.97638 -24.97638z" fill-rule="evenodd"/><path stroke="#4a86e8" stroke-width="1.0" stroke-linejoin="round" stroke-linecap="butt" d="m17.75328 153.82964l0 0c0 -13.794083 11.182304 -24.97638 24.97638 -24.97638l0 0c6.6241455 0 12.976986 2.631424 17.660965 7.3154144c4.683983 4.683975 7.3154144 11.036819 7.3154144 17.660965l0 0c0 13.794067 -11.182308 24.97638 -24.97638 24.97638l0 0c-13.794075 0 -24.97638 -11.182312 -24.97638 -24.97638z" fill-rule="evenodd"/><path fill="#000000" d="m31.252327 157.03589q0.421875 0 0.625 -0.0625q0.21875 -0.0625 0.328125 -0.21875q0.125 -0.15625 0.203125 -0.453125l0.75 0l-0.140625 2.328125l-5.96875 0l0 -0.421875q0.265625 -0.625 0.78125 -1.359375q0.53125 -0.75 1.265625 -1.609375q0.703125 -0.828125 1.0625 -1.359375q0.375 -0.546875 0.5625 -1.015625q0.1875 -0.46875 0.1875 -0.984375q0 -0.71875 -0.328125 -1.125q-0.3125 -0.40625 -0.875 -0.40625q-0.515625 0 -0.859375 0.375q-0.34375 0.359375 -0.5 1.15625l-1.171875 0l0 -1.53125q0.796875 -0.328125 1.25 -0.453125q0.453125 -0.125 0.890625 -0.1875q0.4375 -0.0625 0.953125 -0.0625q0.953125 0 1.546875 0.265625q0.609375 0.25 0.875 0.6875q0.28125 0.4375 0.28125 1.015625q0 0.515625 -0.203125 0.96875q-0.1875 0.4375 -0.65625 1.0q-0.46875 0.5625 -1.59375 1.625q-0.5 0.484375 -0.9375 0.984375q-0.421875 0.5 -0.640625 0.78125l0 0.0625l2.3125 0zm10.847183 -0.140625q0.25 0.390625 0.421875 0.625q0.171875 0.234375 0.296875 0.359375q0.140625 0.125 0.265625 0.203125q0.125 0.0625 0.34375 0.125l0 0.421875l-3.53125 0l0 -0.421875q0.21875 -0.046875 0.296875 -0.109375q0.078125 -0.078125 0.078125 -0.203125q0 -0.109375 -0.03125 -0.203125q-0.03125 -0.109375 -0.140625 -0.296875q-0.109375 -0.203125 -0.4375 -0.71875l-1.0 -1.53125q-0.1875 -0.28125 -0.328125 -0.4375q-0.125 -0.15625 -0.265625 -0.21875q-0.125 -0.078125 -0.359375 -0.078125l-0.125 0l0 2.578125q0 0.234375 0 0.4375q0.015625 0.1875 0.046875 0.3125q0.046875 0.125 0.125 0.21875q0.078125 0.078125 0.203125 0.140625q0.140625 0.0625 0.328125 0.109375l0 0.421875l-3.421875 0l0 -0.421875q0.234375 -0.078125 0.375 -0.140625q0.140625 -0.078125 0.203125 -0.203125q0.078125 -0.140625 0.09375 -0.34375q0.03125 -0.21875 0.03125 -0.53125l0 -5.609375q0 -0.296875 -0.03125 -0.5q-0.015625 -0.21875 -0.078125 -0.34375q-0.0625 -0.125 -0.203125 -0.203125q-0.140625 -0.09375 -0.390625 -0.15625l0 -0.4375l3.421875 0l0 0.4375q-0.28125 0.078125 -0.40625 0.15625q-0.125 0.078125 -0.1875 0.203125q-0.0625 0.109375 -0.09375 0.296875q-0.015625 0.1875 -0.015625 0.546875l0 2.328125l0.125 0q0.3125 0 0.484375 -0.0625q0.171875 -0.078125 0.359375 -0.234375q0.1875 -0.171875 0.71875 -0.796875q0.53125 -0.625 0.765625 -0.953125q0.234375 -0.34375 0.3125 -0.5625q0.09375 -0.21875 0.09375 -0.421875q0 -0.234375 -0.15625 -0.359375q-0.140625 -0.140625 -0.421875 -0.140625l0 -0.4375l3.328125 0l0 0.453125q-0.25 0.046875 -0.4375 0.140625q-0.171875 0.078125 -0.40625 0.296875q-0.21875 0.203125 -0.5625 0.59375l-1.953125 2.1875l2.265625 3.484375zm5.8662415 -1.40625l0 2.5l-1.390625 0l0 -2.5l-2.46875 0l0 -1.328125l2.46875 0l0 -2.5l1.390625 0l0 2.5l2.46875 0l0 1.328125l-2.46875 0zm8.472183 1.328125q0 0.375 0.03125 0.578125q0.046875 0.1875 0.15625 0.3125q0.109375 0.109375 0.3125 0.1875q0.20312119 0.0625 0.4999962 0.09375q0.3125 0.03125 0.8125 0.046875l0 0.59375l-5.609371 0l0 -0.59375q0.71875 -0.03125 1.03125 -0.078125q0.3125 -0.0625 0.46875 -0.171875q0.15625 -0.109375 0.234375 -0.3125q0.078125 -0.203125 0.078125 -0.65625l0 -4.703125q0 -0.265625 -0.109375 -0.375q-0.09375 -0.125 -0.265625 -0.125q-0.171875 0 -0.46875 0.15625q-0.28125 0.140625 -0.96875 0.59375l-0.390625 -0.6875l3.390625 -2.03125l0.84375 0q-0.046875 0.625 -0.046875 1.734375l0 5.4375z" fill-rule="nonzero"/><path fill="#c9daf8" d="m112.60417 153.82964l0 0c0 -13.794083 11.182312 -24.97638 24.97638 -24.97638l0 0c6.6241455 0 12.97699 2.631424 17.660965 7.3154144c4.683975 4.683975 7.3154144 11.036819 7.3154144 17.660965l0 0c0 13.794067 -11.182312 24.97638 -24.97638 24.97638l0 0c-13.794067 0 -24.97638 -11.182312 -24.97638 -24.97638z" fill-rule="evenodd"/><path stroke="#4a86e8" stroke-width="1.0" stroke-linejoin="round" stroke-linecap="butt" d="m112.60417 153.82964l0 0c0 -13.794083 11.182312 -24.97638 24.97638 -24.97638l0 0c6.6241455 0 12.97699 2.631424 17.660965 7.3154144c4.683975 4.683975 7.3154144 11.036819 7.3154144 17.660965l0 0c0 13.794067 -11.182312 24.97638 -24.97638 24.97638l0 0c-13.794067 0 -24.97638 -11.182312 -24.97638 -24.97638z" fill-rule="evenodd"/><path fill="#000000" fill-opacity="0.0" d="m67.70604 153.82964l44.913383 0" fill-rule="evenodd"/><path stroke="#666666" stroke-width="1.0" stroke-linejoin="round" stroke-linecap="butt" d="m67.70604 153.82964l44.913383 0" fill-rule="evenodd"/><path fill="#c9daf8" d="m207.45506 153.82964l0 0c0 -13.794083 11.182312 -24.97638 24.97638 -24.97638l0 0c6.6241455 0 12.97699 2.631424 17.660965 7.3154144c4.6839905 4.683975 7.3154297 11.036819 7.3154297 17.660965l0 0c0 13.794067 -11.182312 24.97638 -24.976395 24.97638l0 0c-13.794067 0 -24.97638 -11.182312 -24.97638 -24.97638z" fill-rule="evenodd"/><path stroke="#4a86e8" stroke-width="1.0" stroke-linejoin="round" stroke-linecap="butt" d="m207.45506 153.82964l0 0c0 -13.794083 11.182312 -24.97638 24.97638 -24.97638l0 0c6.6241455 0 12.97699 2.631424 17.660965 7.3154144c4.6839905 4.683975 7.3154297 11.036819 7.3154297 17.660965l0 0c0 13.794067 -11.182312 24.97638 -24.976395 24.97638l0 0c-13.794067 0 -24.97638 -11.182312 -24.97638 -24.97638z" fill-rule="evenodd"/><path fill="#c9daf8" d="m302.30597 153.82964l0 0c0 -13.794083 11.182312 -24.97638 24.97638 -24.97638l0 0c6.6241455 0 12.97699 2.631424 17.66095 7.3154144c4.6839905 4.683975 7.3154297 11.036819 7.3154297 17.660965l0 0c0 13.794067 -11.182312 24.97638 -24.97638 24.97638l0 0c-13.794067 0 -24.97638 -11.182312 -24.97638 -24.97638z" fill-rule="evenodd"/><path stroke="#4a86e8" stroke-width="1.0" stroke-linejoin="round" stroke-linecap="butt" d="m302.30597 153.82964l0 0c0 -13.794083 11.182312 -24.97638 24.97638 -24.97638l0 0c6.6241455 0 12.97699 2.631424 17.66095 7.3154144c4.6839905 4.683975 7.3154297 11.036819 7.3154297 17.660965l0 0c0 13.794067 -11.182312 24.97638 -24.97638 24.97638l0 0c-13.794067 0 -24.97638 -11.182312 -24.97638 -24.97638z" fill-rule="evenodd"/><path fill="#c9daf8" d="m586.85864 153.82964l0 0c0 -13.794083 11.182312 -24.97638 24.97638 -24.97638l0 0c6.6241455 0 12.97699 2.631424 17.66095 7.3154144c4.684021 4.683975 7.3154297 11.036819 7.3154297 17.660965l0 0c0 13.794067 -11.182312 24.97638 -24.97638 24.97638l0 0c-13.794067 0 -24.97638 -11.182312 -24.97638 -24.97638z" fill-rule="evenodd"/><path stroke="#4a86e8" stroke-width="1.0" stroke-linejoin="round" stroke-linecap="butt" d="m586.85864 153.82964l0 0c0 -13.794083 11.182312 -24.97638 24.97638 -24.97638l0 0c6.6241455 0 12.97699 2.631424 17.66095 7.3154144c4.684021 4.683975 7.3154297 11.036819 7.3154297 17.660965l0 0c0 13.794067 -11.182312 24.97638 -24.97638 24.97638l0 0c-13.794067 0 -24.97638 -11.182312 -24.97638 -24.97638z" fill-rule="evenodd"/><path fill="#c9daf8" d="m492.00775 153.82964l0 0c0 -13.794083 11.182312 -24.97638 24.97638 -24.97638l0 0c6.6241455 0 12.97699 2.631424 17.66095 7.3154144c4.684021 4.683975 7.3154297 11.036819 7.3154297 17.660965l0 0c0 13.794067 -11.182312 24.97638 -24.97638 24.97638l0 0c-13.794067 0 -24.97638 -11.182312 -24.97638 -24.97638z" fill-rule="evenodd"/><path stroke="#4a86e8" stroke-width="1.0" stroke-linejoin="round" stroke-linecap="butt" d="m492.00775 153.82964l0 0c0 -13.794083 11.182312 -24.97638 24.97638 -24.97638l0 0c6.6241455 0 12.97699 2.631424 17.66095 7.3154144c4.684021 4.683975 7.3154297 11.036819 7.3154297 17.660965l0 0c0 13.794067 -11.182312 24.97638 -24.97638 24.97638l0 0c-13.794067 0 -24.97638 -11.182312 -24.97638 -24.97638z" fill-rule="evenodd"/><path fill="#000000" d="m501.55368 151.89526l0 -1.546875q1.640625 -0.703125 2.984375 -0.703125q0.796875 0 1.40625 0.21875q0.625 0.21875 0.953125 0.65625q0.34375 0.421875 0.34375 1.015625q0 0.5625 -0.21875 0.984375q-0.21875 0.421875 -0.625 0.734375q-0.40625 0.3125 -1.046875 0.609375l0 0.046875q0.578125 0.109375 1.03125 0.390625q0.46875 0.28125 0.75 0.75q0.28125 0.453125 0.28125 1.078125q0 0.75 -0.375 1.34375q-0.359375 0.59375 -1.109375 0.9375q-0.75 0.328125 -1.828125 0.328125q-0.734375 0 -1.4375 -0.125q-0.703125 -0.140625 -1.234375 -0.390625l0 -1.625l1.171875 0q0.1875 0.734375 0.53125 1.078125q0.34375 0.328125 0.90625 0.328125q1.375 0 1.375 -1.703125q0 -0.921875 -0.484375 -1.359375q-0.484375 -0.453125 -1.46875 -0.453125l-0.515625 0l0 -0.75q1.125 -0.046875 1.703125 -0.53125q0.59375 -0.484375 0.59375 -1.390625q0 -0.734375 -0.296875 -1.09375q-0.28125 -0.375 -0.84375 -0.375q-0.3125 0 -0.59375 0.140625q-0.265625 0.140625 -0.484375 0.5q-0.203125 0.34375 -0.296875 0.90625l-1.171875 0zm14.8003235 5.0q0.25 0.390625 0.421875 0.625q0.171875 0.234375 0.296875 0.359375q0.140625 0.125 0.265625 0.203125q0.125 0.0625 0.34375 0.125l0 0.421875l-3.53125 0l0 -0.421875q0.21875 -0.046875 0.296875 -0.109375q0.078125 -0.078125 0.078125 -0.203125q0 -0.109375 -0.03125 -0.203125q-0.03125 -0.109375 -0.140625 -0.296875q-0.109375 -0.203125 -0.4375 -0.71875l-1.0 -1.53125q-0.1875 -0.28125 -0.328125 -0.4375q-0.125 -0.15625 -0.265625 -0.21875q-0.125 -0.078125 -0.35940552 -0.078125l-0.125 0l0 2.578125q0 0.234375 0 0.4375q0.015625 0.1875 0.046875 0.3125q0.046875 0.125 0.12503052 0.21875q0.078125 0.078125 0.203125 0.140625q0.140625 0.0625 0.328125 0.109375l0 0.421875l-3.4219055 0l0 -0.421875q0.234375 -0.078125 0.375 -0.140625q0.140625 -0.078125 0.203125 -0.203125q0.078125 -0.140625 0.09375 -0.34375q0.03125 -0.21875 0.03125 -0.53125l0 -5.609375q0 -0.296875 -0.03125 -0.5q-0.015625 -0.21875 -0.078125 -0.34375q-0.0625 -0.125 -0.203125 -0.203125q-0.140625 -0.09375 -0.390625 -0.15625l0 -0.4375l3.4219055 0l0 0.4375q-0.28125 0.078125 -0.40625 0.15625q-0.125 0.078125 -0.18753052 0.203125q-0.0625 0.109375 -0.09375 0.296875q-0.015625 0.1875 -0.015625 0.546875l0 2.328125l0.125 0q0.31253052 0 0.48440552 -0.0625q0.171875 -0.078125 0.359375 -0.234375q0.1875 -0.171875 0.71875 -0.796875q0.53125 -0.625 0.765625 -0.953125q0.234375 -0.34375 0.3125 -0.5625q0.09375 -0.21875 0.09375 -0.421875q0 -0.234375 -0.15625 -0.359375q-0.140625 -0.140625 -0.421875 -0.140625l0 -0.4375l3.328125 0l0 0.453125q-0.25 0.046875 -0.4375 0.140625q-0.171875 0.078125 -0.40625 0.296875q-0.21875 0.203125 -0.5625 0.59375l-1.953125 2.1875l2.265625 3.484375zm5.866211 -1.40625l0 2.5l-1.390625 0l0 -2.5l-2.46875 0l0 -1.328125l2.46875 0l0 -2.5l1.390625 0l0 2.5l2.46875 0l0 1.328125l-2.46875 0zm8.472168 1.328125q0 0.375 0.03125 0.578125q0.046875 0.1875 0.15625 0.3125q0.109375 0.109375 0.3125 0.1875q0.203125 0.0625 0.5 0.09375q0.3125 0.03125 0.8125 0.046875l0 0.59375l-5.609375 0l0 -0.59375q0.71875 -0.03125 1.03125 -0.078125q0.3125 -0.0625 0.46875 -0.171875q0.15625 -0.109375 0.234375 -0.3125q0.078125 -0.203125 0.078125 -0.65625l0 -4.703125q0 -0.265625 -0.109375 -0.375q-0.09375 -0.125 -0.265625 -0.125q-0.171875 0 -0.46875 0.15625q-0.28125 0.140625 -0.96875 0.59375l-0.390625 -0.6875l3.390625 -2.03125l0.84375 0q-0.046875 0.625 -0.046875 1.734375l0 5.4375z" fill-rule="nonzero"/><path fill="#c9daf8" d="m397.15686 153.82964l0 0c0 -13.794083 11.182312 -24.97638 24.97638 -24.97638l0 0c6.6241455 0 12.97699 2.631424 17.66095 7.3154144c4.6839905 4.683975 7.3154297 11.036819 7.3154297 17.660965l0 0c0 13.794067 -11.182312 24.97638 -24.97638 24.97638l0 0c-13.794067 0 -24.97638 -11.182312 -24.97638 -24.97638z" fill-rule="evenodd"/><path stroke="#4a86e8" stroke-width="1.0" stroke-linejoin="round" stroke-linecap="butt" d="m397.15686 153.82964l0 0c0 -13.794083 11.182312 -24.97638 24.97638 -24.97638l0 0c6.6241455 0 12.97699 2.631424 17.66095 7.3154144c4.6839905 4.683975 7.3154297 11.036819 7.3154297 17.660965l0 0c0 13.794067 -11.182312 24.97638 -24.97638 24.97638l0 0c-13.794067 0 -24.97638 -11.182312 -24.97638 -24.97638z" fill-rule="evenodd"/><path fill="#000000" d="m413.08246 151.59589l0 -1.859375q1.984375 -0.84375 3.59375 -0.84375q0.953125 0 1.6875 0.265625q0.75 0.265625 1.140625 0.78125q0.40625 0.515625 0.40625 1.234375q0 0.671875 -0.265625 1.171875q-0.265625 0.5 -0.75 0.875q-0.46875 0.375 -1.234375 0.734375l0 0.078125q0.671875 0.109375 1.234375 0.453125q0.5625 0.328125 0.890625 0.890625q0.328125 0.5625 0.328125 1.3125q0 0.90625 -0.4375 1.609375q-0.4375 0.703125 -1.34375 1.109375q-0.890625 0.40625 -2.171875 0.40625q-0.890625 0 -1.75 -0.15625q-0.84375 -0.171875 -1.46875 -0.453125l0 -1.96875l1.40625 0q0.21875 0.890625 0.625 1.296875q0.421875 0.40625 1.09375 0.40625q1.65625 0 1.65625 -2.046875q0 -1.109375 -0.578125 -1.640625q-0.578125 -0.546875 -1.765625 -0.546875l-0.625 0l0 -0.890625q1.359375 -0.046875 2.0625 -0.625q0.703125 -0.59375 0.703125 -1.6875q0 -0.875 -0.359375 -1.3125q-0.34375 -0.4375 -1.015625 -0.4375q-0.375 0 -0.703125 0.171875q-0.328125 0.15625 -0.578125 0.578125q-0.25 0.421875 -0.375 1.09375l-1.40625 0zm17.773438 6.015625q0.3125 0.46875 0.515625 0.75q0.203125 0.265625 0.359375 0.421875q0.15625 0.15625 0.3125 0.25q0.15625 0.078125 0.40625 0.140625l0 0.515625l-4.234375 0l0 -0.515625q0.265625 -0.046875 0.359375 -0.125q0.09375 -0.09375 0.09375 -0.25q0 -0.125 -0.046875 -0.234375q-0.03125 -0.125 -0.171875 -0.359375q-0.125 -0.234375 -0.53125 -0.859375l-1.1875 -1.84375q-0.21875 -0.34375 -0.390625 -0.53125q-0.15625 -0.1875 -0.3125 -0.265625q-0.15625 -0.078125 -0.4375 -0.078125l-0.15625 0l0 3.09375q0 0.28125 0.015625 0.515625q0.015625 0.234375 0.0625 0.390625q0.046875 0.140625 0.125 0.25q0.09375 0.09375 0.25 0.171875q0.15625 0.0625 0.390625 0.125l0 0.515625l-4.109375 0l0 -0.515625q0.296875 -0.078125 0.453125 -0.171875q0.171875 -0.09375 0.25 -0.25q0.09375 -0.15625 0.109375 -0.40625q0.03125 -0.25 0.03125 -0.625l0 -6.734375q0 -0.359375 -0.03125 -0.609375q-0.015625 -0.25 -0.09375 -0.40625q-0.078125 -0.15625 -0.25 -0.25q-0.171875 -0.109375 -0.46875 -0.1875l0 -0.515625l4.109375 0l0 0.515625q-0.328125 0.09375 -0.484375 0.203125q-0.15625 0.09375 -0.234375 0.234375q-0.0625 0.140625 -0.09375 0.359375q-0.03125 0.21875 -0.03125 0.65625l0 2.78125l0.15625 0q0.359375 0 0.5625 -0.078125q0.21875 -0.078125 0.4375 -0.28125q0.234375 -0.203125 0.859375 -0.9375q0.640625 -0.75 0.921875 -1.15625q0.296875 -0.40625 0.390625 -0.65625q0.109375 -0.265625 0.109375 -0.53125q0 -0.265625 -0.1875 -0.421875q-0.171875 -0.15625 -0.515625 -0.171875l0 -0.515625l4.0 0l0 0.53125q-0.296875 0.0625 -0.515625 0.171875q-0.203125 0.109375 -0.484375 0.359375q-0.265625 0.234375 -0.6875 0.71875l-2.34375 2.625l2.71875 4.1875z" fill-rule="nonzero"/><path fill="#c9daf8" d="m776.5604 153.82964l0 0c0 -13.794083 11.182312 -24.97638 24.97638 -24.97638l0 0c6.6241455 0 12.97699 2.631424 17.66095 7.3154144c4.684021 4.683975 7.3154297 11.036819 7.3154297 17.660965l0 0c0 13.794067 -11.182312 24.97638 -24.97638 24.97638l0 0c-13.794067 0 -24.97638 -11.182312 -24.97638 -24.97638z" fill-rule="evenodd"/><path stroke="#4a86e8" stroke-width="1.0" stroke-linejoin="round" stroke-linecap="butt" d="m776.5604 153.82964l0 0c0 -13.794083 11.182312 -24.97638 24.97638 -24.97638l0 0c6.6241455 0 12.97699 2.631424 17.66095 7.3154144c4.684021 4.683975 7.3154297 11.036819 7.3154297 17.660965l0 0c0 13.794067 -11.182312 24.97638 -24.97638 24.97638l0 0c-13.794067 0 -24.97638 -11.182312 -24.97638 -24.97638z" fill-rule="evenodd"/><path fill="#c9daf8" d="m681.70953 153.82964l0 0c0 -13.794083 11.182312 -24.97638 24.97638 -24.97638l0 0c6.6241455 0 12.97699 2.631424 17.66095 7.3154144c4.684021 4.683975 7.3154297 11.036819 7.3154297 17.660965l0 0c0 13.794067 -11.182312 24.97638 -24.97638 24.97638l0 0c-13.794067 0 -24.97638 -11.182312 -24.97638 -24.97638z" fill-rule="evenodd"/><path stroke="#4a86e8" stroke-width="1.0" stroke-linejoin="round" stroke-linecap="butt" d="m681.70953 153.82964l0 0c0 -13.794083 11.182312 -24.97638 24.97638 -24.97638l0 0c6.6241455 0 12.97699 2.631424 17.66095 7.3154144c4.684021 4.683975 7.3154297 11.036819 7.3154297 17.660965l0 0c0 13.794067 -11.182312 24.97638 -24.97638 24.97638l0 0c-13.794067 0 -24.97638 -11.182312 -24.97638 -24.97638z" fill-rule="evenodd"/><path fill="#000000" fill-opacity="0.0" d="m162.55693 153.82964l44.91339 0" fill-rule="evenodd"/><path stroke="#000000" stroke-width="1.0" stroke-linejoin="round" stroke-linecap="butt" d="m162.55693 153.82964l44.91339 0" fill-rule="evenodd"/><path fill="#000000" fill-opacity="0.0" d="m257.40784 153.82964l44.91336 0" fill-rule="evenodd"/><path stroke="#000000" stroke-width="1.0" stroke-linejoin="round" stroke-linecap="butt" d="m257.40784 153.82964l44.91336 0" fill-rule="evenodd"/><path fill="#000000" fill-opacity="0.0" d="m352.25873 153.82964l44.91339 0" fill-rule="evenodd"/><path stroke="#000000" stroke-width="1.0" stroke-linejoin="round" stroke-linecap="butt" d="m352.25873 153.82964l44.91339 0" fill-rule="evenodd"/><path fill="#000000" fill-opacity="0.0" d="m447.10962 153.82964l44.91339 0" fill-rule="evenodd"/><path stroke="#000000" stroke-width="1.0" stroke-linejoin="round" stroke-linecap="butt" d="m447.10962 153.82964l44.91339 0" fill-rule="evenodd"/><path fill="#000000" fill-opacity="0.0" d="m541.9605 153.82964l44.91339 0" fill-rule="evenodd"/><path stroke="#000000" stroke-width="1.0" stroke-linejoin="round" stroke-linecap="butt" d="m541.9605 153.82964l44.91339 0" fill-rule="evenodd"/><path fill="#000000" fill-opacity="0.0" d="m636.8114 153.82964l44.91339 0" fill-rule="evenodd"/><path stroke="#000000" stroke-width="1.0" stroke-linejoin="round" stroke-linecap="butt" d="m636.8114 153.82964l44.91339 0" fill-rule="evenodd"/><path fill="#000000" fill-opacity="0.0" d="m731.6623 153.82964l44.91339 0" fill-rule="evenodd"/><path stroke="#000000" stroke-width="1.0" stroke-linejoin="round" stroke-linecap="butt" d="m731.6623 153.82964l44.91339 0" fill-rule="evenodd"/><path fill="#000000" fill-opacity="0.0" d="m611.835 68.228584l0 60.62992" fill-rule="evenodd"/><path stroke="#000000" stroke-width="1.0" stroke-linejoin="round" stroke-linecap="butt" d="m611.835 68.228584l0 60.62992" fill-rule="evenodd"/><path fill="#000000" fill-opacity="0.0" d="m516.98413 68.228584l0 60.62992" fill-rule="evenodd"/><path stroke="#000000" stroke-width="1.0" stroke-linejoin="round" stroke-linecap="butt" d="m516.98413 68.228584l0 60.62992" fill-rule="evenodd"/><path fill="#000000" fill-opacity="0.0" d="m706.6859 68.228584l0 60.62992" fill-rule="evenodd"/><path stroke="#000000" stroke-width="1.0" stroke-linejoin="round" stroke-linecap="butt" d="m706.6859 68.228584l0 60.62992" fill-rule="evenodd"/><path fill="#000000" fill-opacity="0.0" d="m801.5368 68.228584l0 60.62992" fill-rule="evenodd"/><path stroke="#000000" stroke-width="1.0" stroke-linejoin="round" stroke-linecap="butt" d="m801.5368 68.228584l0 60.62992" fill-rule="evenodd"/><path fill="#c9daf8" d="m871.41345 43.25483l0 0c0 -13.794071 11.182312 -24.976377 24.97638 -24.976377l0 0c6.6241455 0 12.97699 2.6314316 17.66095 7.3154125c4.684021 4.683979 7.3154297 11.036819 7.3154297 17.660965l0 0c0 13.794075 -11.182312 24.97638 -24.97638 24.97638l0 0c-13.794067 0 -24.97638 -11.182304 -24.97638 -24.97638z" fill-rule="evenodd"/><path stroke="#4a86e8" stroke-width="1.0" stroke-linejoin="round" stroke-linecap="butt" d="m871.41345 43.25483l0 0c0 -13.794071 11.182312 -24.976377 24.97638 -24.976377l0 0c6.6241455 0 12.97699 2.6314316 17.66095 7.3154125c4.684021 4.683979 7.3154297 11.036819 7.3154297 17.660965l0 0c0 13.794075 -11.182312 24.97638 -24.97638 24.97638l0 0c-13.794067 0 -24.97638 -11.182304 -24.97638 -24.97638z" fill-rule="evenodd"/><path fill="#000000" d="m892.08905 47.192955q0.515625 0 0.765625 -0.0625q0.25 -0.078125 0.390625 -0.265625q0.140625 -0.1875 0.234375 -0.546875l0.90625 0l-0.1875 2.796875l-7.15625 0l0 -0.515625q0.328125 -0.75 0.953125 -1.625q0.625 -0.890625 1.515625 -1.9375q0.84375 -1.0 1.28125 -1.640625q0.4375 -0.640625 0.65625 -1.203125q0.21875 -0.578125 0.21875 -1.1875q0 -0.859375 -0.390625 -1.34375q-0.375 -0.484375 -1.03125 -0.484375q-0.625 0 -1.046875 0.4375q-0.40625 0.4375 -0.59375 1.390625l-1.40625 0l0 -1.84375q0.953125 -0.375 1.484375 -0.53125q0.546875 -0.15625 1.078125 -0.234375q0.53125 -0.078125 1.140625 -0.078125q1.15625 0 1.875 0.3125q0.734375 0.3125 1.046875 0.84375q0.328125 0.515625 0.328125 1.21875q0 0.625 -0.234375 1.15625q-0.21875 0.53125 -0.796875 1.21875q-0.5625 0.671875 -1.90625 1.9375q-0.59375 0.578125 -1.125 1.1875q-0.515625 0.59375 -0.765625 0.921875l0 0.078125l2.765625 0zm13.0234375 -0.15625q0.3125 0.46875 0.515625 0.75q0.203125 0.265625 0.359375 0.421875q0.15625 0.15625 0.3125 0.25q0.15625 0.078125 0.40625 0.140625l0 0.515625l-4.234375 0l0 -0.515625q0.265625 -0.046875 0.359375 -0.125q0.09375 -0.09375 0.09375 -0.25q0 -0.125 -0.046875 -0.234375q-0.03125 -0.125 -0.171875 -0.359375q-0.125 -0.234375 -0.53125 -0.859375l-1.1875 -1.84375q-0.21875 -0.34375 -0.390625 -0.53125q-0.15625 -0.1875 -0.3125 -0.265625q-0.15625 -0.078125 -0.4375 -0.078125l-0.15625 0l0 3.09375q0 0.28125 0.015625 0.515625q0.015625 0.234375 0.0625 0.390625q0.046875 0.140625 0.125 0.25q0.09375 0.09375 0.25 0.171875q0.15625 0.0625 0.390625 0.125l0 0.515625l-4.109375 0l0 -0.515625q0.296875 -0.078125 0.453125 -0.171875q0.171875 -0.09375 0.25 -0.25q0.09375 -0.15625 0.109375 -0.40625q0.03125 -0.25 0.03125 -0.625l0 -6.734375q0 -0.359375 -0.03125 -0.609375q-0.015625 -0.25 -0.09375 -0.40625q-0.078125 -0.15625 -0.25 -0.25q-0.171875 -0.109375 -0.46875 -0.1875l0 -0.515625l4.109375 0l0 0.515625q-0.328125 0.09375 -0.484375 0.203125q-0.15625 0.09375 -0.234375 0.234375q-0.0625 0.140625 -0.09375 0.359375q-0.03125 0.21875 -0.03125 0.65625l0 2.78125l0.15625 0q0.359375 0 0.5625 -0.078125q0.21875 -0.078125 0.4375 -0.28125q0.234375 -0.203125 0.859375 -0.9375q0.640625 -0.75 0.921875 -1.15625q0.296875 -0.40625 0.390625 -0.65625q0.109375 -0.265625 0.109375 -0.53125q0 -0.265625 -0.1875 -0.421875q-0.171875 -0.15625 -0.515625 -0.171875l0 -0.515625l4.0 0l0 0.53125q-0.296875 0.0625 -0.515625 0.171875q-0.203125 0.109375 -0.484375 0.359375q-0.265625 0.234375 -0.6875 0.71875l-2.34375 2.625l2.71875 4.1875z" fill-rule="nonzero"/><path fill="#c9daf8" d="m871.41345 153.83226l0 0c0 -13.794083 11.182312 -24.97638 24.97638 -24.97638l0 0c6.6241455 0 12.97699 2.631424 17.66095 7.3154144c4.684021 4.683975 7.3154297 11.036819 7.3154297 17.660965l0 0c0 13.794067 -11.182312 24.97638 -24.97638 24.97638l0 0c-13.794067 0 -24.97638 -11.182312 -24.97638 -24.97638z" fill-rule="evenodd"/><path stroke="#4a86e8" stroke-width="1.0" stroke-linejoin="round" stroke-linecap="butt" d="m871.41345 153.83226l0 0c0 -13.794083 11.182312 -24.97638 24.97638 -24.97638l0 0c6.6241455 0 12.97699 2.631424 17.66095 7.3154144c4.684021 4.683975 7.3154297 11.036819 7.3154297 17.660965l0 0c0 13.794067 -11.182312 24.97638 -24.97638 24.97638l0 0c-13.794067 0 -24.97638 -11.182312 -24.97638 -24.97638z" fill-rule="evenodd"/><path fill="#000000" d="m889.96405 159.17664q0.28125 -0.078125 0.4375 -0.171875q0.171875 -0.09375 0.25 -0.234375q0.09375 -0.15625 0.109375 -0.390625q0.03125 -0.25 0.03125 -0.625l0 -1.15625l-4.1875 0l0 -0.84375l4.75 -6.78125l1.75 0l0 6.640625l0.25 0q0.375 0 0.53125 -0.046875q0.15625 -0.0625 0.265625 -0.203125q0.125 -0.140625 0.21875 -0.5l0.828125 0l-0.09375 1.734375l-2.0 0l0 1.15625q0 0.421875 0.03125 0.671875q0.046875 0.234375 0.140625 0.390625q0.09375 0.140625 0.25 0.21875q0.171875 0.0625 0.421875 0.140625l0 0.515625l-3.984375 0l0 -0.515625zm-1.84375 -3.5625l2.671875 0l0 -1.796875q0 -1.125 0.078125 -2.359375l-0.078125 0l-2.671875 4.015625l0 0.140625zm16.992188 2.0q0.3125 0.46875 0.515625 0.75q0.203125 0.265625 0.359375 0.421875q0.15625 0.15625 0.3125 0.25q0.15625 0.078125 0.40625 0.140625l0 0.515625l-4.234375 0l0 -0.515625q0.265625 -0.046875 0.359375 -0.125q0.09375 -0.09375 0.09375 -0.25q0 -0.125 -0.046875 -0.234375q-0.03125 -0.125 -0.171875 -0.359375q-0.125 -0.234375 -0.53125 -0.859375l-1.1875 -1.84375q-0.21875 -0.34375 -0.390625 -0.53125q-0.15625 -0.1875 -0.3125 -0.265625q-0.15625 -0.078125 -0.4375 -0.078125l-0.15625 0l0 3.09375q0 0.28125 0.015625 0.515625q0.015625 0.234375 0.0625 0.390625q0.046875 0.140625 0.125 0.25q0.09375 0.09375 0.25 0.171875q0.15625 0.0625 0.390625 0.125l0 0.515625l-4.109375 0l0 -0.515625q0.296875 -0.078125 0.453125 -0.171875q0.171875 -0.09375 0.25 -0.25q0.09375 -0.15625 0.109375 -0.40625q0.03125 -0.25 0.03125 -0.625l0 -6.734375q0 -0.359375 -0.03125 -0.609375q-0.015625 -0.25 -0.09375 -0.40625q-0.078125 -0.15625 -0.25 -0.25q-0.171875 -0.109375 -0.46875 -0.1875l0 -0.515625l4.109375 0l0 0.515625q-0.328125 0.09375 -0.484375 0.203125q-0.15625 0.09375 -0.234375 0.234375q-0.0625 0.140625 -0.09375 0.359375q-0.03125 0.21875 -0.03125 0.65625l0 2.78125l0.15625 0q0.359375 0 0.5625 -0.078125q0.21875 -0.078125 0.4375 -0.28125q0.234375 -0.203125 0.859375 -0.9375q0.640625 -0.75 0.921875 -1.15625q0.296875 -0.40625 0.390625 -0.65625q0.109375 -0.265625 0.109375 -0.53125q0 -0.265625 -0.1875 -0.421875q-0.171875 -0.15625 -0.515625 -0.171875l0 -0.515625l4.0 0l0 0.53125q-0.296875 0.0625 -0.515625 0.171875q-0.203125 0.109375 -0.484375 0.359375q-0.265625 0.234375 -0.6875 0.71875l-2.34375 2.625l2.71875 4.1875z" fill-rule="nonzero"/><path fill="#000000" fill-opacity="0.0" d="m896.38983 68.23121l0 60.62992" fill-rule="evenodd"/><path stroke="#000000" stroke-width="1.0" stroke-linejoin="round" stroke-linecap="butt" d="m896.38983 68.23121l0 60.62992" fill-rule="evenodd"/><path fill="#000000" fill-opacity="0.0" d="m826.5132 43.252205l44.91339 0" fill-rule="evenodd"/><path stroke="#000000" stroke-width="1.0" stroke-linejoin="round" stroke-linecap="butt" d="m826.5132 43.252205l44.91339 0" fill-rule="evenodd"/><path fill="#000000" fill-opacity="0.0" d="m826.5132 153.82964l44.91339 0" fill-rule="evenodd"/><path stroke="#000000" stroke-width="1.0" stroke-linejoin="round" stroke-linecap="butt" d="m826.5132 153.82964l44.91339 0" fill-rule="evenodd"/></g></svg>