<svg version="1.1" viewBox="0.0 0.0 582.2572178477691 187.246719160105" fill="none" stroke="none" stroke-linecap="square" stroke-miterlimit="10" xmlns:xlink="http://www.w3.org/1999/xlink" xmlns="http://www.w3.org/2000/svg"><clipPath id="p.0"><path d="m0 0l582.2572 0l0 187.24672l-582.2572 0l0 -187.24672z" clip-rule="nonzero"/></clipPath><g clip-path="url(#p.0)"><path fill="#000000" fill-opacity="0.0" d="m0 0l582.2572 0l0 187.24672l-582.2572 0z" fill-rule="evenodd"/><path fill="#f3f3f3" d="m4.855592 7.7795277l174.48819 0l0 170.64568l-174.48819 0z" fill-rule="evenodd"/><path stroke="#666666" stroke-width="1.0" stroke-linejoin="round" stroke-linecap="butt" d="m4.855592 7.7795277l174.48819 0l0 170.64568l-174.48819 0z" fill-rule="evenodd"/><path fill="#c9daf8" d="m9.753281 147.9648l0 0c0 -13.794067 11.182304 -24.976372 24.97638 -24.976372l0 0c6.6241455 0 12.976986 2.6314316 17.660965 7.315407c4.683979 4.6839905 7.3154106 11.036819 7.3154106 17.660965l0 0c0 13.794083 -11.182304 24.97638 -24.976376 24.97638l0 0c-13.794075 0 -24.97638 -11.182297 -24.97638 -24.97638z" fill-rule="evenodd"/><path stroke="#4a86e8" stroke-width="1.0" stroke-linejoin="round" stroke-linecap="butt" d="m9.753281 147.9648l0 0c0 -13.794067 11.182304 -24.976372 24.97638 -24.976372l0 0c6.6241455 0 12.976986 2.6314316 17.660965 7.315407c4.683979 4.6839905 7.3154106 11.036819 7.3154106 17.660965l0 0c0 13.794083 -11.182304 24.97638 -24.976376 24.97638l0 0c-13.794075 0 -24.97638 -11.182297 -24.97638 -24.97638z" fill-rule="evenodd"/><path fill="#000000" d="m29.929113 144.66356l0 -2.46875q2.640627 -1.125 4.781248 -1.125q1.28125 0 2.265625 0.359375q0.984375 0.34375 1.515625 1.03125q0.546875 0.671875 0.546875 1.640625q0 0.890625 -0.359375 1.5625q-0.34375 0.671875 -0.984375 1.171875q-0.640625 0.5 -1.671875 0.96875l0 0.09375q0.90625 0.15625 1.65625 0.609375q0.75 0.453125 1.1875 1.203125q0.4375 0.75 0.4375 1.734375q0 1.203125 -0.59375 2.15625q-0.578125 0.9375 -1.78125 1.484375q-1.1875 0.53125 -2.90625 0.53125q-1.1718712 0 -2.312498 -0.21875q-1.125 -0.21875 -1.96875 -0.59375l0 -2.625l1.875 0q0.296875 1.1875 0.8437519 1.734375q0.5625 0.53125 1.4531212 0.53125q2.203125 0 2.203125 -2.734375q0 -1.46875 -0.78125 -2.1875q-0.765625 -0.71875 -2.3437462 -0.71875l-0.828125 0l0 -1.1875q1.8124962 -0.0625 2.7499962 -0.84375q0.9375 -0.78125 0.9375 -2.234375q0 -1.15625 -0.46875 -1.75q-0.46875 -0.59375 -1.359375 -0.59375q-0.515625 0 -0.953125 0.234375q-0.4218712 0.21875 -0.7656212 0.78125q-0.3437519 0.546875 -0.5000019 1.453125l-1.875 0z" fill-rule="nonzero"/><path fill="#c9daf8" d="m121.81765 147.9648l0 0c0 -13.794067 11.182304 -24.976372 24.976387 -24.976372l0 0c6.6241455 0 12.9769745 2.6314316 17.660965 7.315407c4.683975 4.6839905 7.315399 11.036819 7.315399 17.660965l0 0c0 13.794083 -11.182297 24.97638 -24.976364 24.97638l0 0c-13.794083 0 -24.976387 -11.182297 -24.976387 -24.97638z" fill-rule="evenodd"/><path stroke="#4a86e8" stroke-width="1.0" stroke-linejoin="round" stroke-linecap="butt" d="m121.81765 147.9648l0 0c0 -13.794067 11.182304 -24.976372 24.976387 -24.976372l0 0c6.6241455 0 12.9769745 2.6314316 17.660965 7.315407c4.683975 4.6839905 7.315399 11.036819 7.315399 17.660965l0 0c0 13.794083 -11.182297 24.97638 -24.976364 24.97638l0 0c-13.794083 0 -24.976387 -11.182297 -24.976387 -24.97638z" fill-rule="evenodd"/><path fill="#000000" d="m145.49348 154.75731q0.375 -0.109375 0.59375 -0.21875q0.21875 -0.125 0.328125 -0.328125q0.125 -0.203125 0.15625 -0.515625q0.03125 -0.328125 0.03125 -0.828125l0 -1.546875l-5.578125 0l0 -1.125l6.3125 -9.03125l2.34375 0l0 8.84375l0.328125 0q0.515625 0 0.71875 -0.0625q0.203125 -0.078125 0.34375 -0.265625q0.15625 -0.1875 0.296875 -0.65625l1.09375 0l-0.125 2.296875l-2.65625 0l0 1.546875q0 0.5625 0.046875 0.890625q0.0625 0.328125 0.1875 0.515625q0.125 0.1875 0.34375 0.296875q0.21875 0.09375 0.546875 0.1875l0 0.6875l-5.3125 0l0 -0.6875zm-2.453125 -4.75l3.5625 0l0 -2.390625q0 -1.5 0.109375 -3.140625l-0.109375 0l-3.5625 5.359375l0 0.171875z" fill-rule="nonzero"/><path fill="#c9daf8" d="m9.753281 38.27189l0 0c0 -13.794071 11.182304 -24.976376 24.97638 -24.976376l0 0c6.6241455 0 12.976986 2.6314325 17.660965 7.3154116c4.683979 4.683979 7.3154106 11.036819 7.3154106 17.660965l0 0c0 13.794075 -11.182304 24.97638 -24.976376 24.97638l0 0c-13.794075 0 -24.97638 -11.182304 -24.97638 -24.97638z" fill-rule="evenodd"/><path stroke="#4a86e8" stroke-width="1.0" stroke-linejoin="round" stroke-linecap="butt" d="m9.753281 38.27189l0 0c0 -13.794071 11.182304 -24.976376 24.97638 -24.976376l0 0c6.6241455 0 12.976986 2.6314325 17.660965 7.3154116c4.683979 4.683979 7.3154106 11.036819 7.3154106 17.660965l0 0c0 13.794075 -11.182304 24.97638 -24.976376 24.97638l0 0c-13.794075 0 -24.97638 -11.182304 -24.97638 -24.97638z" fill-rule="evenodd"/><path fill="#000000" d="m36.77286 42.845642q0 0.609375 0.0625 0.921875q0.0625 0.296875 0.234375 0.5q0.171875 0.1875 0.5 0.296875q0.328125 0.109375 0.8125 0.171875q0.484375 0.046875 1.28125 0.0625l0 0.953125l-8.984373 0l0 -0.953125q1.15625 -0.046875 1.6562519 -0.125q0.5 -0.09375 0.7499962 -0.265625q0.265625 -0.1875 0.375 -0.5q0.125 -0.328125 0.125 -1.0625l0 -7.53125q0 -0.421875 -0.15625 -0.609375q-0.15625 -0.1875 -0.4374962 -0.1875q-0.265625 0 -0.75 0.25q-0.4687519 0.234375 -1.5468769 0.96875l-0.640625 -1.109375l5.437498 -3.250002l1.34375 0q-0.0625 1.0000019 -0.0625 2.765627l0 8.703125z" fill-rule="nonzero"/><path fill="#c9daf8" d="m121.81765 38.27189l0 0c0 -13.794071 11.182304 -24.976376 24.976387 -24.976376l0 0c6.6241455 0 12.9769745 2.6314325 17.660965 7.3154116c4.683975 4.683979 7.315399 11.036819 7.315399 17.660965l0 0c0 13.794075 -11.182297 24.97638 -24.976364 24.97638l0 0c-13.794083 0 -24.976387 -11.182304 -24.976387 -24.97638z" fill-rule="evenodd"/><path stroke="#4a86e8" stroke-width="1.0" stroke-linejoin="round" stroke-linecap="butt" d="m121.81765 38.27189l0 0c0 -13.794071 11.182304 -24.976376 24.976387 -24.976376l0 0c6.6241455 0 12.9769745 2.6314325 17.660965 7.3154116c4.683975 4.683979 7.315399 11.036819 7.315399 17.660965l0 0c0 13.794075 -11.182297 24.97638 -24.976364 24.97638l0 0c-13.794083 0 -24.976387 -11.182304 -24.976387 -24.97638z" fill-rule="evenodd"/><path fill="#000000" d="m148.33723 43.205017q0.671875 0 1.0 -0.09375q0.34375 -0.109375 0.53125 -0.34375q0.1875 -0.25 0.3125 -0.75l1.203125 0l-0.234375 3.734375l-9.546875 0l0 -0.6875q0.4375 -1.0 1.265625 -2.171875q0.828125 -1.1875 2.015625 -2.578125q1.125 -1.328125 1.703125 -2.171875q0.59375 -0.859375 0.890625 -1.609375q0.296875 -0.765625 0.296875 -1.578125q0 -1.140625 -0.515625 -1.796875q-0.515625 -0.65625 -1.390625 -0.65625q-0.84375 0 -1.390625 0.59375q-0.546875 0.59375 -0.796875 1.859375l-1.875 0l0 -2.453125q1.28125 -0.5156269 2.0 -0.7187519q0.71875 -0.203125 1.421875 -0.296875q0.703125 -0.109375 1.515625 -0.109375q1.53125 0 2.5 0.40625q0.96875 0.4062519 1.40625 1.1093769q0.4375 0.703125 0.4375 1.640625q0 0.828125 -0.3125 1.53125q-0.3125 0.703125 -1.0625 1.609375q-0.75 0.90625 -2.546875 2.59375q-0.796875 0.78125 -1.5 1.578125q-0.703125 0.796875 -1.03125 1.25l0 0.109375l3.703125 0z" fill-rule="nonzero"/><path fill="#000000" fill-opacity="0.0" d="m34.72966 63.24827l0 59.74803" fill-rule="evenodd"/><path stroke="#38761d" stroke-width="2.0" stroke-linejoin="round" stroke-linecap="butt" d="m34.72966 63.24827l0 59.74803" fill-rule="evenodd"/><path fill="#000000" fill-opacity="0.0" d="m59.706036 38.27189l62.110233 0" fill-rule="evenodd"/><path stroke="#38761d" stroke-width="2.0" stroke-linejoin="round" stroke-linecap="butt" d="m59.706036 38.27189l62.110233 0" fill-rule="evenodd"/><path fill="#000000" fill-opacity="0.0" d="m146.79404 63.24827l0 59.74803" fill-rule="evenodd"/><path stroke="#38761d" stroke-width="2.0" stroke-linejoin="round" stroke-linecap="butt" d="m146.79404 63.24827l0 59.74803" fill-rule="evenodd"/><path fill="#000000" fill-opacity="0.0" d="m59.706036 147.9648l62.110233 0" fill-rule="evenodd"/><path stroke="#38761d" stroke-width="2.0" stroke-linejoin="round" stroke-linecap="butt" d="m59.706036 147.9648l62.110233 0" fill-rule="evenodd"/><path fill="#000000" fill-opacity="0.0" d="m52.390625 130.30383l76.755905 -74.3622" fill-rule="evenodd"/><path stroke="#ff0000" stroke-width="4.0" stroke-linejoin="round" stroke-linecap="butt" d="m52.390625 130.30383l76.755905 -74.3622" fill-rule="evenodd"/><path fill="#f3f3f3" d="m201.38708 7.7795277l174.48819 0l0 170.64568l-174.48819 0z" fill-rule="evenodd"/><path stroke="#434343" stroke-width="1.0" stroke-linejoin="round" stroke-linecap="butt" d="m201.38708 7.7795277l174.48819 0l0 170.64568l-174.48819 0z" fill-rule="evenodd"/><path fill="#c9daf8" d="m207.62204 147.96611l0 0c0 -13.794067 11.182312 -24.976372 24.97638 -24.976372l0 0c6.6241455 0 12.97699 2.6314316 17.660965 7.315407c4.6839905 4.6839905 7.3154144 11.036819 7.3154144 17.660965l0 0c0 13.794083 -11.182297 24.97638 -24.97638 24.97638l0 0c-13.794067 0 -24.97638 -11.182297 -24.97638 -24.97638z" fill-rule="evenodd"/><path stroke="#4a86e8" stroke-width="1.0" stroke-linejoin="round" stroke-linecap="butt" d="m207.62204 147.96611l0 0c0 -13.794067 11.182312 -24.976372 24.97638 -24.976372l0 0c6.6241455 0 12.97699 2.6314316 17.660965 7.315407c4.6839905 4.6839905 7.3154144 11.036819 7.3154144 17.660965l0 0c0 13.794083 -11.182297 24.97638 -24.97638 24.97638l0 0c-13.794067 0 -24.97638 -11.182297 -24.97638 -24.97638z" fill-rule="evenodd"/><path fill="#000000" d="m227.79788 144.66487l0 -2.46875q2.640625 -1.125 4.78125 -1.125q1.28125 0 2.265625 0.359375q0.984375 0.34375 1.515625 1.03125q0.546875 0.671875 0.546875 1.640625q0 0.890625 -0.359375 1.5625q-0.34375 0.671875 -0.984375 1.171875q-0.640625 0.5 -1.671875 0.96875l0 0.09375q0.90625 0.15625 1.65625 0.609375q0.75 0.453125 1.1875 1.203125q0.4375 0.75 0.4375 1.734375q0 1.203125 -0.59375 2.15625q-0.578125 0.9375 -1.78125 1.484375q-1.1875 0.53125 -2.90625 0.53125q-1.171875 0 -2.3125 -0.21875q-1.125 -0.21875 -1.96875 -0.59375l0 -2.625l1.875 0q0.296875 1.1875 0.84375 1.734375q0.5625 0.53125 1.453125 0.53125q2.203125 0 2.203125 -2.734375q0 -1.46875 -0.78125 -2.1875q-0.765625 -0.71875 -2.34375 -0.71875l-0.828125 0l0 -1.1875q1.8125 -0.0625 2.75 -0.84375q0.9375 -0.78125 0.9375 -2.234375q0 -1.15625 -0.46875 -1.75q-0.46875 -0.59375 -1.359375 -0.59375q-0.515625 0 -0.953125 0.234375q-0.421875 0.21875 -0.765625 0.78125q-0.34375 0.546875 -0.5 1.453125l-1.875 0z" fill-rule="nonzero"/><path fill="#c9daf8" d="m319.68643 147.96611l0 0c0 -13.794067 11.1822815 -24.976372 24.97638 -24.976372l0 0c6.6241455 0 12.976959 2.6314316 17.66095 7.315407c4.6839905 4.6839905 7.315399 11.036819 7.315399 17.660965l0 0c0 13.794083 -11.1822815 24.97638 -24.976349 24.97638l0 0c-13.794098 0 -24.97638 -11.182297 -24.97638 -24.97638z" fill-rule="evenodd"/><path stroke="#4a86e8" stroke-width="1.0" stroke-linejoin="round" stroke-linecap="butt" d="m319.68643 147.96611l0 0c0 -13.794067 11.1822815 -24.976372 24.97638 -24.976372l0 0c6.6241455 0 12.976959 2.6314316 17.66095 7.315407c4.6839905 4.6839905 7.315399 11.036819 7.315399 17.660965l0 0c0 13.794083 -11.1822815 24.97638 -24.976349 24.97638l0 0c-13.794098 0 -24.97638 -11.182297 -24.97638 -24.97638z" fill-rule="evenodd"/><path fill="#000000" d="m343.36224 154.75862q0.375 -0.109375 0.59375 -0.21875q0.21875 -0.125 0.328125 -0.328125q0.125 -0.203125 0.15625 -0.515625q0.03125 -0.328125 0.03125 -0.828125l0 -1.546875l-5.578125 0l0 -1.125l6.3125 -9.03125l2.34375 0l0 8.84375l0.328125 0q0.515625 0 0.71875 -0.0625q0.203125 -0.078125 0.34375 -0.265625q0.15625 -0.1875 0.296875 -0.65625l1.09375 0l-0.125 2.296875l-2.65625 0l0 1.546875q0 0.5625 0.046875 0.890625q0.0625 0.328125 0.1875 0.515625q0.125 0.1875 0.34375 0.296875q0.21875 0.09375 0.546875 0.1875l0 0.6875l-5.3125 0l0 -0.6875zm-2.453125 -4.75l3.5625 0l0 -2.390625q0 -1.5 0.109375 -3.140625l-0.109375 0l-3.5625 5.359375l0 0.171875z" fill-rule="nonzero"/><path fill="#c9daf8" d="m207.62204 38.2732l0 0c0 -13.794071 11.182312 -24.976376 24.97638 -24.976376l0 0c6.6241455 0 12.97699 2.6314325 17.660965 7.3154116c4.6839905 4.683979 7.3154144 11.036819 7.3154144 17.660965l0 0c0 13.794075 -11.182297 24.97638 -24.97638 24.97638l0 0c-13.794067 0 -24.97638 -11.182304 -24.97638 -24.97638z" fill-rule="evenodd"/><path stroke="#4a86e8" stroke-width="1.0" stroke-linejoin="round" stroke-linecap="butt" d="m207.62204 38.2732l0 0c0 -13.794071 11.182312 -24.976376 24.97638 -24.976376l0 0c6.6241455 0 12.97699 2.6314325 17.660965 7.3154116c4.6839905 4.683979 7.3154144 11.036819 7.3154144 17.660965l0 0c0 13.794075 -11.182297 24.97638 -24.97638 24.97638l0 0c-13.794067 0 -24.97638 -11.182304 -24.97638 -24.97638z" fill-rule="evenodd"/><path fill="#000000" d="m234.64163 42.846954q0 0.609375 0.0625 0.921875q0.0625 0.296875 0.234375 0.5q0.171875 0.1875 0.5 0.296875q0.328125 0.109375 0.8125 0.171875q0.484375 0.046875 1.28125 0.0625l0 0.953125l-8.984375 0l0 -0.953125q1.15625 -0.046875 1.65625 -0.125q0.5 -0.09375 0.75 -0.265625q0.265625 -0.1875 0.375 -0.5q0.125 -0.328125 0.125 -1.0625l0 -7.53125q0 -0.421875 -0.15625 -0.609375q-0.15625 -0.1875 -0.4375 -0.1875q-0.265625 0 -0.75 0.25q-0.46875 0.234375 -1.546875 0.96875l-0.640625 -1.109375l5.4375 -3.250002l1.34375 0q-0.0625 1.0000019 -0.0625 2.765627l0 8.703125z" fill-rule="nonzero"/><path fill="#c9daf8" d="m319.68643 38.2732l0 0c0 -13.794071 11.1822815 -24.976376 24.97638 -24.976376l0 0c6.6241455 0 12.976959 2.6314325 17.66095 7.3154116c4.6839905 4.683979 7.315399 11.036819 7.315399 17.660965l0 0c0 13.794075 -11.1822815 24.97638 -24.976349 24.97638l0 0c-13.794098 0 -24.97638 -11.182304 -24.97638 -24.97638z" fill-rule="evenodd"/><path stroke="#4a86e8" stroke-width="1.0" stroke-linejoin="round" stroke-linecap="butt" d="m319.68643 38.2732l0 0c0 -13.794071 11.1822815 -24.976376 24.97638 -24.976376l0 0c6.6241455 0 12.976959 2.6314325 17.66095 7.3154116c4.6839905 4.683979 7.315399 11.036819 7.315399 17.660965l0 0c0 13.794075 -11.1822815 24.97638 -24.976349 24.97638l0 0c-13.794098 0 -24.97638 -11.182304 -24.97638 -24.97638z" fill-rule="evenodd"/><path fill="#000000" d="m346.206 43.20633q0.671875 0 1.0 -0.09375q0.34375 -0.109375 0.53125 -0.34375q0.1875 -0.25 0.3125 -0.75l1.203125 0l-0.234375 3.734375l-9.546875 0l0 -0.6875q0.4375 -1.0 1.265625 -2.171875q0.828125 -1.1875 2.015625 -2.578125q1.125 -1.328125 1.703125 -2.171875q0.59375 -0.859375 0.890625 -1.609375q0.296875 -0.765625 0.296875 -1.578125q0 -1.140625 -0.515625 -1.796875q-0.515625 -0.65625 -1.390625 -0.65625q-0.84375 0 -1.390625 0.59375q-0.546875 0.59375 -0.796875 1.859375l-1.875 0l0 -2.453125q1.28125 -0.5156269 2.0 -0.7187519q0.71875 -0.203125 1.421875 -0.296875q0.703125 -0.109375 1.515625 -0.109375q1.53125 0 2.5 0.40625q0.96875 0.4062519 1.40625 1.1093769q0.4375 0.703125 0.4375 1.640625q0 0.828125 -0.3125 1.53125q-0.3125 0.703125 -1.0625 1.609375q-0.75 0.90625 -2.546875 2.59375q-0.796875 0.78125 -1.5 1.578125q-0.703125 0.796875 -1.03125 1.25l0 0.109375l3.703125 0z" fill-rule="nonzero"/><path fill="#000000" fill-opacity="0.0" d="m232.59842 63.24958l0 59.74803" fill-rule="evenodd"/><path stroke="#38761d" stroke-width="2.0" stroke-linejoin="round" stroke-linecap="butt" d="m232.59842 63.24958l0 59.74803" fill-rule="evenodd"/><path fill="#000000" fill-opacity="0.0" d="m257.5748 38.2732l62.11023 0" fill-rule="evenodd"/><path stroke="#ff0000" stroke-width="4.0" stroke-linejoin="round" stroke-linecap="butt" d="m257.5748 38.2732l62.11023 0" fill-rule="evenodd"/><path fill="#000000" fill-opacity="0.0" d="m344.6628 63.24958l0 59.74803" fill-rule="evenodd"/><path stroke="#38761d" stroke-width="2.0" stroke-linejoin="round" stroke-linecap="butt" d="m344.6628 63.24958l0 59.74803" fill-rule="evenodd"/><path fill="#000000" fill-opacity="0.0" d="m257.5748 147.96611l62.11023 0" fill-rule="evenodd"/><path stroke="#ff0000" stroke-width="4.0" stroke-linejoin="round" stroke-linecap="butt" d="m257.5748 147.96611l62.11023 0" fill-rule="evenodd"/><path fill="#000000" fill-opacity="0.0" d="m250.25938 130.30515l76.755905 -74.3622" fill-rule="evenodd"/><path stroke="#38761d" stroke-width="2.0" stroke-linejoin="round" stroke-linecap="butt" d="m250.25938 130.30515l76.755905 -74.3622" fill-rule="evenodd"/><path fill="#f3f3f3" d="m397.91595 7.7795277l174.48822 0l0 170.64568l-174.48822 0z" fill-rule="evenodd"/><path stroke="#434343" stroke-width="1.0" stroke-linejoin="round" stroke-linecap="butt" d="m397.91595 7.7795277l174.48822 0l0 170.64568l-174.48822 0z" fill-rule="evenodd"/><path fill="#c9daf8" d="m405.4908 147.9648l0 0c0 -13.794067 11.182312 -24.976372 24.97638 -24.976372l0 0c6.6241455 0 12.97699 2.6314316 17.66095 7.315407c4.6839905 4.6839905 7.3154297 11.036819 7.3154297 17.660965l0 0c0 13.794083 -11.182312 24.97638 -24.97638 24.97638l0 0c-13.794067 0 -24.97638 -11.182297 -24.97638 -24.97638z" fill-rule="evenodd"/><path stroke="#4a86e8" stroke-width="1.0" stroke-linejoin="round" stroke-linecap="butt" d="m405.4908 147.9648l0 0c0 -13.794067 11.182312 -24.976372 24.97638 -24.976372l0 0c6.6241455 0 12.97699 2.6314316 17.66095 7.315407c4.6839905 4.6839905 7.3154297 11.036819 7.3154297 17.660965l0 0c0 13.794083 -11.182312 24.97638 -24.97638 24.97638l0 0c-13.794067 0 -24.97638 -11.182297 -24.97638 -24.97638z" fill-rule="evenodd"/><path fill="#000000" d="m425.66666 144.66356l0 -2.46875q2.640625 -1.125 4.78125 -1.125q1.28125 0 2.265625 0.359375q0.984375 0.34375 1.515625 1.03125q0.546875 0.671875 0.546875 1.640625q0 0.890625 -0.359375 1.5625q-0.34375 0.671875 -0.984375 1.171875q-0.640625 0.5 -1.671875 0.96875l0 0.09375q0.90625 0.15625 1.65625 0.609375q0.75 0.453125 1.1875 1.203125q0.4375 0.75 0.4375 1.734375q0 1.203125 -0.59375 2.15625q-0.578125 0.9375 -1.78125 1.484375q-1.1875 0.53125 -2.90625 0.53125q-1.171875 0 -2.3125 -0.21875q-1.125 -0.21875 -1.96875 -0.59375l0 -2.625l1.875 0q0.296875 1.1875 0.84375 1.734375q0.5625 0.53125 1.453125 0.53125q2.203125 0 2.203125 -2.734375q0 -1.46875 -0.78125 -2.1875q-0.765625 -0.71875 -2.34375 -0.71875l-0.828125 0l0 -1.1875q1.8125 -0.0625 2.75 -0.84375q0.9375 -0.78125 0.9375 -2.234375q0 -1.15625 -0.46875 -1.75q-0.46875 -0.59375 -1.359375 -0.59375q-0.515625 0 -0.953125 0.234375q-0.421875 0.21875 -0.765625 0.78125q-0.34375 0.546875 -0.5 1.453125l-1.875 0z" fill-rule="nonzero"/><path fill="#c9daf8" d="m517.5552 147.9648l0 0c0 -13.794067 11.182312 -24.976372 24.97638 -24.976372l0 0c6.6241455 0 12.97699 2.6314316 17.66095 7.315407c4.684021 4.6839905 7.3154297 11.036819 7.3154297 17.660965l0 0c0 13.794083 -11.182312 24.97638 -24.97638 24.97638l0 0c-13.794067 0 -24.97638 -11.182297 -24.97638 -24.97638z" fill-rule="evenodd"/><path stroke="#4a86e8" stroke-width="1.0" stroke-linejoin="round" stroke-linecap="butt" d="m517.5552 147.9648l0 0c0 -13.794067 11.182312 -24.976372 24.97638 -24.976372l0 0c6.6241455 0 12.97699 2.6314316 17.66095 7.315407c4.684021 4.6839905 7.3154297 11.036819 7.3154297 17.660965l0 0c0 13.794083 -11.182312 24.97638 -24.97638 24.97638l0 0c-13.794067 0 -24.97638 -11.182297 -24.97638 -24.97638z" fill-rule="evenodd"/><path fill="#000000" d="m541.231 154.75731q0.375 -0.109375 0.59375 -0.21875q0.21875 -0.125 0.328125 -0.328125q0.125 -0.203125 0.15625 -0.515625q0.03125 -0.328125 0.03125 -0.828125l0 -1.546875l-5.578125 0l0 -1.125l6.3125 -9.03125l2.34375 0l0 8.84375l0.328125 0q0.515625 0 0.71875 -0.0625q0.203125 -0.078125 0.34375 -0.265625q0.15625 -0.1875 0.296875 -0.65625l1.09375 0l-0.125 2.296875l-2.65625 0l0 1.546875q0 0.5625 0.046875 0.890625q0.0625 0.328125 0.1875 0.515625q0.125 0.1875 0.34375 0.296875q0.21875 0.09375 0.546875 0.1875l0 0.6875l-5.3125 0l0 -0.6875zm-2.453125 -4.75l3.5625 0l0 -2.390625q0 -1.5 0.109375 -3.140625l-0.109375 0l-3.5625 5.359375l0 0.171875z" fill-rule="nonzero"/><path fill="#c9daf8" d="m405.4908 38.27189l0 0c0 -13.794071 11.182312 -24.976376 24.97638 -24.976376l0 0c6.6241455 0 12.97699 2.6314325 17.66095 7.3154116c4.6839905 4.683979 7.3154297 11.036819 7.3154297 17.660965l0 0c0 13.794075 -11.182312 24.97638 -24.97638 24.97638l0 0c-13.794067 0 -24.97638 -11.182304 -24.97638 -24.97638z" fill-rule="evenodd"/><path stroke="#4a86e8" stroke-width="1.0" stroke-linejoin="round" stroke-linecap="butt" d="m405.4908 38.27189l0 0c0 -13.794071 11.182312 -24.976376 24.97638 -24.976376l0 0c6.6241455 0 12.97699 2.6314325 17.66095 7.3154116c4.6839905 4.683979 7.3154297 11.036819 7.3154297 17.660965l0 0c0 13.794075 -11.182312 24.97638 -24.97638 24.97638l0 0c-13.794067 0 -24.97638 -11.182304 -24.97638 -24.97638z" fill-rule="evenodd"/><path fill="#000000" d="m432.5104 42.845642q0 0.609375 0.0625 0.921875q0.0625 0.296875 0.234375 0.5q0.171875 0.1875 0.5 0.296875q0.328125 0.109375 0.8125 0.171875q0.484375 0.046875 1.28125 0.0625l0 0.953125l-8.984375 0l0 -0.953125q1.15625 -0.046875 1.65625 -0.125q0.5 -0.09375 0.75 -0.265625q0.265625 -0.1875 0.375 -0.5q0.125 -0.328125 0.125 -1.0625l0 -7.53125q0 -0.421875 -0.15625 -0.609375q-0.15625 -0.1875 -0.4375 -0.1875q-0.265625 0 -0.75 0.25q-0.46875 0.234375 -1.546875 0.96875l-0.640625 -1.109375l5.4375 -3.250002l1.34375 0q-0.0625 1.0000019 -0.0625 2.765627l0 8.703125z" fill-rule="nonzero"/><path fill="#c9daf8" d="m517.5552 38.27189l0 0c0 -13.794071 11.182312 -24.976376 24.97638 -24.976376l0 0c6.6241455 0 12.97699 2.6314325 17.66095 7.3154116c4.684021 4.683979 7.3154297 11.036819 7.3154297 17.660965l0 0c0 13.794075 -11.182312 24.97638 -24.97638 24.97638l0 0c-13.794067 0 -24.97638 -11.182304 -24.97638 -24.97638z" fill-rule="evenodd"/><path stroke="#4a86e8" stroke-width="1.0" stroke-linejoin="round" stroke-linecap="butt" d="m517.5552 38.27189l0 0c0 -13.794071 11.182312 -24.976376 24.97638 -24.976376l0 0c6.6241455 0 12.97699 2.6314325 17.66095 7.3154116c4.684021 4.683979 7.3154297 11.036819 7.3154297 17.660965l0 0c0 13.794075 -11.182312 24.97638 -24.97638 24.97638l0 0c-13.794067 0 -24.97638 -11.182304 -24.97638 -24.97638z" fill-rule="evenodd"/><path fill="#000000" d="m544.07477 43.205017q0.671875 0 1.0 -0.09375q0.34375 -0.109375 0.53125 -0.34375q0.1875 -0.25 0.3125 -0.75l1.203125 0l-0.234375 3.734375l-9.546875 0l0 -0.6875q0.4375 -1.0 1.265625 -2.171875q0.828125 -1.1875 2.015625 -2.578125q1.125 -1.328125 1.703125 -2.171875q0.59375 -0.859375 0.890625 -1.609375q0.296875 -0.765625 0.296875 -1.578125q0 -1.140625 -0.515625 -1.796875q-0.515625 -0.65625 -1.390625 -0.65625q-0.84375 0 -1.390625 0.59375q-0.546875 0.59375 -0.796875 1.859375l-1.875 0l0 -2.453125q1.28125 -0.5156269 2.0 -0.7187519q0.71875 -0.203125 1.421875 -0.296875q0.703125 -0.109375 1.515625 -0.109375q1.53125 0 2.5 0.40625q0.96875 0.4062519 1.40625 1.1093769q0.4375 0.703125 0.4375 1.640625q0 0.828125 -0.3125 1.53125q-0.3125 0.703125 -1.0625 1.609375q-0.75 0.90625 -2.546875 2.59375q-0.796875 0.78125 -1.5 1.578125q-0.703125 0.796875 -1.03125 1.25l0 0.109375l3.703125 0z" fill-rule="nonzero"/><path fill="#000000" fill-opacity="0.0" d="m430.4672 63.24827l0 59.74803" fill-rule="evenodd"/><path stroke="#ff0000" stroke-width="4.0" stroke-linejoin="round" stroke-linecap="butt" d="m430.4672 63.24827l0 59.74803" fill-rule="evenodd"/><path fill="#000000" fill-opacity="0.0" d="m455.44357 38.27189l62.11026 0" fill-rule="evenodd"/><path stroke="#38761d" stroke-width="2.0" stroke-linejoin="round" stroke-linecap="butt" d="m455.44357 38.27189l62.11026 0" fill-rule="evenodd"/><path fill="#000000" fill-opacity="0.0" d="m542.53156 63.24827l0 59.74803" fill-rule="evenodd"/><path stroke="#ff0000" stroke-width="4.0" stroke-linejoin="round" stroke-linecap="butt" d="m542.53156 63.24827l0 59.74803" fill-rule="evenodd"/><path fill="#000000" fill-opacity="0.0" d="m455.44357 147.9648l62.11026 0" fill-rule="evenodd"/><path stroke="#38761d" stroke-width="2.0" stroke-linejoin="round" stroke-linecap="butt" d="m455.44357 147.9648l62.11026 0" fill-rule="evenodd"/><path fill="#000000" fill-opacity="0.0" d="m448.12814 130.30383l76.75589 -74.3622" fill-rule="evenodd"/><path stroke="#38761d" stroke-width="2.0" stroke-linejoin="round" stroke-linecap="butt" d="m448.12814 130.30383l76.75589 -74.3622" fill-rule="evenodd"/></g></svg>