<svg version="1.1" viewBox="0.0 0.0 792.0 380.0" fill="none" stroke="none" stroke-linecap="square" stroke-miterlimit="10" xmlns:xlink="http://www.w3.org/1999/xlink" xmlns="http://www.w3.org/2000/svg"><clipPath id="p.0"><path d="m0 0l792.0 0l0 380.0l-792.0 0l0 -380.0z" clip-rule="nonzero"/></clipPath><g clip-path="url(#p.0)"><path fill="#000000" fill-opacity="0.0" d="m0 0l792.0 0l0 380.0l-792.0 0z" fill-rule="evenodd"/><path fill="#f3f3f3" d="m4.5879264 4.094488l407.40158 0l0 372.50394l-407.40158 0z" fill-rule="evenodd"/><path stroke="#666666" stroke-width="1.0" stroke-linejoin="round" stroke-linecap="butt" d="m4.5879264 4.094488l407.40158 0l0 372.50394l-407.40158 0z" fill-rule="evenodd"/><path fill="#f3f3f3" d="m236.11623 207.89766l0 0c0 -5.717209 4.6347046 -10.351913 10.351913 -10.351913l41.406403 0l0 0c2.745514 0 5.37854 1.0906525 7.319916 3.032013c1.9413452 1.9413605 3.032013 4.574402 3.032013 7.3199005l0 151.20168c0 5.717224 -4.634735 10.351929 -10.351929 10.351929l-41.406403 0c-5.717209 0 -10.351913 -4.6347046 -10.351913 -10.351929z" fill-rule="evenodd"/><path stroke="#000000" stroke-width="3.0" stroke-linejoin="round" stroke-linecap="butt" d="m236.11623 207.89766l0 0c0 -5.717209 4.6347046 -10.351913 10.351913 -10.351913l41.406403 0l0 0c2.745514 0 5.37854 1.0906525 7.319916 3.032013c1.9413452 1.9413605 3.032013 4.574402 3.032013 7.3199005l0 151.20168c0 5.717224 -4.634735 10.351929 -10.351929 10.351929l-41.406403 0c-5.717209 0 -10.351913 -4.6347046 -10.351913 -10.351929z" fill-rule="evenodd"/><path fill="#f3f3f3" d="m123.74016 97.858475l0 0c0 -5.717201 4.6347046 -10.351913 10.351913 -10.351913l41.406403 0l0 0c2.7454987 0 5.3785553 1.0906448 7.319916 3.0320053c1.9413605 1.9413605 3.0319977 4.5744095 3.0319977 7.319908l0 151.20169c0 5.7171936 -4.6347046 10.351913 -10.351913 10.351913l-41.406403 0c-5.717209 0 -10.351913 -4.63472 -10.351913 -10.351913z" fill-rule="evenodd"/><path stroke="#000000" stroke-width="3.0" stroke-linejoin="round" stroke-linecap="butt" d="m123.74016 97.858475l0 0c0 -5.717201 4.6347046 -10.351913 10.351913 -10.351913l41.406403 0l0 0c2.7454987 0 5.3785553 1.0906448 7.319916 3.0320053c1.9413605 1.9413605 3.0319977 4.5744095 3.0319977 7.319908l0 151.20169c0 5.7171936 -4.6347046 10.351913 -10.351913 10.351913l-41.406403 0c-5.717209 0 -10.351913 -4.63472 -10.351913 -10.351913z" fill-rule="evenodd"/><path fill="#f3f3f3" d="m12.091864 97.858475l0 0c0 -5.717201 4.6347084 -10.351913 10.351913 -10.351913l41.40641 0l0 0c2.7455025 0 5.3785515 1.0906448 7.319912 3.0320053c1.9413605 1.9413605 3.0320053 4.5744095 3.0320053 7.319908l0 151.20169c0 5.7171936 -4.634712 10.351913 -10.351917 10.351913l-41.40641 0c-5.717205 0 -10.351913 -4.63472 -10.351913 -10.351913z" fill-rule="evenodd"/><path stroke="#000000" stroke-width="3.0" stroke-linejoin="round" stroke-linecap="butt" d="m12.091864 97.858475l0 0c0 -5.717201 4.6347084 -10.351913 10.351913 -10.351913l41.40641 0l0 0c2.7455025 0 5.3785515 1.0906448 7.319912 3.0320053c1.9413605 1.9413605 3.0320053 4.5744095 3.0320053 7.319908l0 151.20169c0 5.7171936 -4.634712 10.351913 -10.351917 10.351913l-41.40641 0c-5.717205 0 -10.351913 -4.63472 -10.351913 -10.351913z" fill-rule="evenodd"/><path fill="#c9daf8" d="m17.75328 227.9648l0 0c0 -13.794067 11.182304 -24.97638 24.97638 -24.97638l0 0c6.6241455 0 12.976986 2.6314392 17.660965 7.3154144c4.683983 4.6839905 7.3154144 11.036819 7.3154144 17.660965l0 0c0 13.794083 -11.182308 24.97638 -24.97638 24.97638l0 0c-13.794075 0 -24.97638 -11.182297 -24.97638 -24.97638z" fill-rule="evenodd"/><path stroke="#4a86e8" stroke-width="1.0" stroke-linejoin="round" stroke-linecap="butt" d="m17.75328 227.9648l0 0c0 -13.794067 11.182304 -24.97638 24.97638 -24.97638l0 0c6.6241455 0 12.976986 2.6314392 17.660965 7.3154144c4.683983 4.6839905 7.3154144 11.036819 7.3154144 17.660965l0 0c0 13.794083 -11.182308 24.97638 -24.97638 24.97638l0 0c-13.794075 0 -24.97638 -11.182297 -24.97638 -24.97638z" fill-rule="evenodd"/><path fill="#000000" d="m37.929115 224.66356l0 -2.46875q2.640625 -1.125 4.781246 -1.125q1.28125 0 2.265625 0.359375q0.984375 0.34375 1.515625 1.03125q0.546875 0.671875 0.546875 1.640625q0 0.890625 -0.359375 1.5625q-0.34375 0.671875 -0.984375 1.171875q-0.640625 0.5 -1.671875 0.96875l0 0.09375q0.90625 0.15625 1.65625 0.609375q0.75 0.453125 1.1875 1.203125q0.4375 0.75 0.4375 1.734375q0 1.203125 -0.59375 2.15625q-0.578125 0.9375 -1.78125 1.484375q-1.1875 0.53125 -2.90625 0.53125q-1.1718712 0 -2.3124962 -0.21875q-1.125 -0.21875 -1.96875 -0.59375l0 -2.625l1.875 0q0.296875 1.1875 0.84375 1.734375q0.5625 0.53125 1.4531212 0.53125q2.203125 0 2.203125 -2.734375q0 -1.46875 -0.78125 -2.1875q-0.765625 -0.71875 -2.3437462 -0.71875l-0.828125 0l0 -1.1875q1.8124962 -0.0625 2.7499962 -0.84375q0.9375 -0.78125 0.9375 -2.234375q0 -1.15625 -0.46875 -1.75q-0.46875 -0.59375 -1.359375 -0.59375q-0.515625 0 -0.953125 0.234375q-0.4218712 0.21875 -0.7656212 0.78125q-0.34375 0.546875 -0.5 1.453125l-1.875 0z" fill-rule="nonzero"/><path fill="#c9daf8" d="m129.81766 227.9648l0 0c0 -13.794067 11.182297 -24.97638 24.97638 -24.97638l0 0c6.6241455 0 12.9769745 2.6314392 17.660965 7.3154144c4.683975 4.6839905 7.315399 11.036819 7.315399 17.660965l0 0c0 13.794083 -11.182297 24.97638 -24.976364 24.97638l0 0c-13.794083 0 -24.97638 -11.182297 -24.97638 -24.97638z" fill-rule="evenodd"/><path stroke="#4a86e8" stroke-width="1.0" stroke-linejoin="round" stroke-linecap="butt" d="m129.81766 227.9648l0 0c0 -13.794067 11.182297 -24.97638 24.97638 -24.97638l0 0c6.6241455 0 12.9769745 2.6314392 17.660965 7.3154144c4.683975 4.6839905 7.315399 11.036819 7.315399 17.660965l0 0c0 13.794083 -11.182297 24.97638 -24.976364 24.97638l0 0c-13.794083 0 -24.97638 -11.182297 -24.97638 -24.97638z" fill-rule="evenodd"/><path fill="#000000" d="m153.49348 234.75731q0.375 -0.109375 0.59375 -0.21875q0.21875 -0.125 0.328125 -0.328125q0.125 -0.203125 0.15625 -0.515625q0.03125 -0.328125 0.03125 -0.828125l0 -1.546875l-5.578125 0l0 -1.125l6.3125 -9.03125l2.34375 0l0 8.84375l0.328125 0q0.515625 0 0.71875 -0.0625q0.203125 -0.078125 0.34375 -0.265625q0.15625 -0.1875 0.296875 -0.65625l1.09375 0l-0.125 2.296875l-2.65625 0l0 1.546875q0 0.5625 0.046875 0.890625q0.0625 0.328125 0.1875 0.515625q0.125 0.1875 0.34375 0.296875q0.21875 0.09375 0.546875 0.1875l0 0.6875l-5.3125 0l0 -0.6875zm-2.453125 -4.75l3.5625 0l0 -2.390625q0 -1.5 0.109375 -3.140625l-0.109375 0l-3.5625 5.359375l0 0.171875z" fill-rule="nonzero"/><path fill="#c9daf8" d="m17.75328 118.27189l0 0c0 -13.794067 11.182304 -24.97638 24.97638 -24.97638l0 0c6.6241455 0 12.976986 2.6314316 17.660965 7.3154144c4.683983 4.683983 7.3154144 11.036819 7.3154144 17.660965l0 0c0 13.794075 -11.182308 24.976387 -24.97638 24.976387l0 0c-13.794075 0 -24.97638 -11.182312 -24.97638 -24.976387z" fill-rule="evenodd"/><path stroke="#4a86e8" stroke-width="1.0" stroke-linejoin="round" stroke-linecap="butt" d="m17.75328 118.27189l0 0c0 -13.794067 11.182304 -24.97638 24.97638 -24.97638l0 0c6.6241455 0 12.976986 2.6314316 17.660965 7.3154144c4.683983 4.683983 7.3154144 11.036819 7.3154144 17.660965l0 0c0 13.794075 -11.182308 24.976387 -24.97638 24.976387l0 0c-13.794075 0 -24.97638 -11.182312 -24.97638 -24.976387z" fill-rule="evenodd"/><path fill="#000000" d="m44.77286 122.84564q0 0.609375 0.0625 0.921875q0.0625 0.296875 0.234375 0.5q0.171875 0.1875 0.5 0.296875q0.328125 0.109375 0.8125 0.171875q0.484375 0.046875 1.28125 0.0625l0 0.953125l-8.984371 0l0 -0.953125q1.15625 -0.046875 1.65625 -0.125q0.5 -0.09375 0.7499962 -0.265625q0.265625 -0.1875 0.375 -0.5q0.125 -0.328125 0.125 -1.0625l0 -7.53125q0 -0.421875 -0.15625 -0.609375q-0.15625 -0.1875 -0.4374962 -0.1875q-0.265625 0 -0.75 0.25q-0.46875 0.234375 -1.546875 0.96875l-0.640625 -1.109375l5.437496 -3.25l1.34375 0q-0.0625 1.0 -0.0625 2.765625l0 8.703125z" fill-rule="nonzero"/><path fill="#c9daf8" d="m129.81766 118.27189l0 0c0 -13.794067 11.182297 -24.97638 24.97638 -24.97638l0 0c6.6241455 0 12.9769745 2.6314316 17.660965 7.3154144c4.683975 4.683983 7.315399 11.036819 7.315399 17.660965l0 0c0 13.794075 -11.182297 24.976387 -24.976364 24.976387l0 0c-13.794083 0 -24.97638 -11.182312 -24.97638 -24.976387z" fill-rule="evenodd"/><path stroke="#4a86e8" stroke-width="1.0" stroke-linejoin="round" stroke-linecap="butt" d="m129.81766 118.27189l0 0c0 -13.794067 11.182297 -24.97638 24.97638 -24.97638l0 0c6.6241455 0 12.9769745 2.6314316 17.660965 7.3154144c4.683975 4.683983 7.315399 11.036819 7.315399 17.660965l0 0c0 13.794075 -11.182297 24.976387 -24.976364 24.976387l0 0c-13.794083 0 -24.97638 -11.182312 -24.97638 -24.976387z" fill-rule="evenodd"/><path fill="#000000" d="m156.33723 123.20502q0.671875 0 1.0 -0.09375q0.34375 -0.109375 0.53125 -0.34375q0.1875 -0.25 0.3125 -0.75l1.203125 0l-0.234375 3.734375l-9.546875 0l0 -0.6875q0.4375 -1.0 1.265625 -2.171875q0.828125 -1.1875 2.015625 -2.578125q1.125 -1.328125 1.703125 -2.171875q0.59375 -0.859375 0.890625 -1.609375q0.296875 -0.765625 0.296875 -1.578125q0 -1.140625 -0.515625 -1.796875q-0.515625 -0.65625 -1.390625 -0.65625q-0.84375 0 -1.390625 0.59375q-0.546875 0.59375 -0.796875 1.859375l-1.875 0l0 -2.453125q1.28125 -0.515625 2.0 -0.71875q0.71875 -0.203125 1.421875 -0.296875q0.703125 -0.109375 1.515625 -0.109375q1.53125 0 2.5 0.40625q0.96875 0.40625 1.40625 1.109375q0.4375 0.703125 0.4375 1.640625q0 0.828125 -0.3125 1.53125q-0.3125 0.703125 -1.0625 1.609375q-0.75 0.90625 -2.546875 2.59375q-0.796875 0.78125 -1.5 1.578125q-0.703125 0.796875 -1.03125 1.25l0 0.109375l3.703125 0z" fill-rule="nonzero"/><path fill="#000000" fill-opacity="0.0" d="m42.72966 143.24828l0 59.748016" fill-rule="evenodd"/><path stroke="#666666" stroke-width="3.0" stroke-linejoin="round" stroke-linecap="butt" d="m42.72966 143.24828l0 59.748016" fill-rule="evenodd"/><path fill="#000000" fill-opacity="0.0" d="m67.70604 118.27189l62.11023 0" fill-rule="evenodd"/><path stroke="#666666" stroke-width="1.0" stroke-linejoin="round" stroke-linecap="butt" d="m67.70604 118.27189l62.11023 0" fill-rule="evenodd"/><path fill="#000000" fill-opacity="0.0" d="m154.79404 143.24828l0 59.748016" fill-rule="evenodd"/><path stroke="#666666" stroke-width="3.0" stroke-linejoin="round" stroke-linecap="butt" d="m154.79404 143.24828l0 59.748016" fill-rule="evenodd"/><path fill="#000000" fill-opacity="0.0" d="m67.70604 227.9648l62.11023 0" fill-rule="evenodd"/><path stroke="#666666" stroke-width="1.0" stroke-linejoin="round" stroke-linecap="butt" d="m67.70604 227.9648l62.11023 0" fill-rule="evenodd"/><path fill="#000000" fill-opacity="0.0" d="m60.390625 210.30383l76.755905 -74.3622" fill-rule="evenodd"/><path stroke="#666666" stroke-width="1.0" stroke-linejoin="round" stroke-linecap="butt" d="m60.390625 210.30383l76.755905 -74.3622" fill-rule="evenodd"/><path fill="#000000" fill-opacity="0.0" d="m60.390625 135.93286l76.755905 74.3622" fill-rule="evenodd"/><path stroke="#666666" stroke-width="1.0" stroke-linejoin="round" stroke-linecap="butt" d="m60.390625 135.93286l76.755905 74.3622" fill-rule="evenodd"/><path fill="#c9daf8" d="m241.88327 227.9648l0 0c0 -13.794067 11.182297 -24.97638 24.97638 -24.97638l0 0c6.6241455 0 12.97699 2.6314392 17.66095 7.3154144c4.6839905 4.6839905 7.3154297 11.036819 7.3154297 17.660965l0 0c0 13.794083 -11.182312 24.97638 -24.97638 24.97638l0 0c-13.794083 0 -24.97638 -11.182297 -24.97638 -24.97638z" fill-rule="evenodd"/><path stroke="#4a86e8" stroke-width="1.0" stroke-linejoin="round" stroke-linecap="butt" d="m241.88327 227.9648l0 0c0 -13.794067 11.182297 -24.97638 24.97638 -24.97638l0 0c6.6241455 0 12.97699 2.6314392 17.66095 7.3154144c4.6839905 4.6839905 7.3154297 11.036819 7.3154297 17.660965l0 0c0 13.794083 -11.182312 24.97638 -24.97638 24.97638l0 0c-13.794083 0 -24.97638 -11.182297 -24.97638 -24.97638z" fill-rule="evenodd"/><path fill="#000000" d="m262.1841 234.80418l0 -2.609375l1.875 0q0.265625 1.140625 0.828125 1.703125q0.578125 0.546875 1.484375 0.546875q1.140625 0 1.671875 -0.703125q0.546875 -0.703125 0.546875 -2.171875q0 -1.453125 -0.703125 -2.203125q-0.6875 -0.765625 -2.015625 -0.765625q-0.5 0 -1.09375 0.09375q-0.59375 0.09375 -1.046875 0.234375l-0.9375 -0.59375l0 -7.109375l6.15625 0q0.390625 0 0.5625 -0.046875q0.171875 -0.046875 0.28125 -0.171875q0.125 -0.125 0.265625 -0.46875l1.140625 0l-0.203125 3.328125l-6.40625 0l0 3.75q0.625 -0.1875 1.28125 -0.28125q0.65625 -0.09375 1.59375 -0.09375q1.296875 0 2.265625 0.484375q0.984375 0.484375 1.515625 1.390625q0.53125 0.90625 0.53125 2.140625q0 1.4375 -0.640625 2.421875q-0.640625 0.96875 -1.859375 1.453125q-1.21875 0.484375 -2.921875 0.484375q-1.09375 0 -2.234375 -0.21875q-1.125 -0.21875 -1.9375 -0.59375z" fill-rule="nonzero"/><path fill="#c9daf8" d="m241.88327 337.6656l0 0c0 -13.794067 11.182297 -24.97638 24.97638 -24.97638l0 0c6.6241455 0 12.97699 2.6314392 17.66095 7.3154297c4.6839905 4.68396 7.3154297 11.036804 7.3154297 17.66095l0 0c0 13.794067 -11.182312 24.97638 -24.97638 24.97638l0 0c-13.794083 0 -24.97638 -11.182312 -24.97638 -24.97638z" fill-rule="evenodd"/><path stroke="#4a86e8" stroke-width="1.0" stroke-linejoin="round" stroke-linecap="butt" d="m241.88327 337.6656l0 0c0 -13.794067 11.182297 -24.97638 24.97638 -24.97638l0 0c6.6241455 0 12.97699 2.6314392 17.66095 7.3154297c4.6839905 4.68396 7.3154297 11.036804 7.3154297 17.66095l0 0c0 13.794067 -11.182312 24.97638 -24.97638 24.97638l0 0c-13.794083 0 -24.97638 -11.182312 -24.97638 -24.97638z" fill-rule="evenodd"/><path fill="#000000" d="m270.46536 331.48935l0 0.640625q-2.28125 0.046875 -3.703125 1.40625q-1.421875 1.359375 -1.890625 3.890625l0.109375 0.046875q0.8125 -0.5625 1.625 -0.828125q0.828125 -0.265625 1.8125 -0.265625q1.203125 0 2.046875 0.53125q0.859375 0.53125 1.296875 1.484375q0.4375 0.953125 0.4375 2.234375q0 1.375 -0.578125 2.4375q-0.578125 1.0625 -1.796875 1.65625q-1.203125 0.59375 -2.96875 0.59375q-1.609375 0 -2.78125 -0.640625q-1.15625 -0.65625 -1.78125 -1.90625q-0.609375 -1.265625 -0.609375 -3.078125q0 -2.4375 1.03125 -4.390625q1.03125 -1.96875 2.90625 -3.171875q1.890625 -1.203125 4.28125 -1.359375l0.5625 0.71875zm-3.28125 6.328125q-0.5 0 -0.953125 0.15625q-0.453125 0.15625 -0.796875 0.40625q-0.34375 0.25 -0.46875 0.421875q-0.109375 0.15625 -0.171875 0.46875q-0.046875 0.296875 -0.046875 1.046875q0 1.90625 0.53125 2.875q0.53125 0.953125 1.625 0.953125q0.625 0 1.046875 -0.234375q0.421875 -0.25 0.6875 -0.671875q0.265625 -0.4375 0.375 -1.046875q0.109375 -0.609375 0.109375 -1.34375q0 -1.5 -0.5 -2.265625q-0.484375 -0.765625 -1.4375 -0.765625z" fill-rule="nonzero"/><path fill="#000000" fill-opacity="0.0" d="m172.455 245.62576l76.755905 74.39371" fill-rule="evenodd"/><path stroke="#666666" stroke-width="1.0" stroke-linejoin="round" stroke-linecap="butt" d="m172.455 245.62576l76.755905 74.39371" fill-rule="evenodd"/><path fill="#000000" fill-opacity="0.0" d="m179.7704 227.9648l62.110245 0" fill-rule="evenodd"/><path stroke="#666666" stroke-width="1.0" stroke-linejoin="round" stroke-linecap="butt" d="m179.7704 227.9648l62.110245 0" fill-rule="evenodd"/><path fill="#000000" fill-opacity="0.0" d="m266.85965 252.94118l0 59.74803" fill-rule="evenodd"/><path stroke="#666666" stroke-width="3.0" stroke-linejoin="round" stroke-linecap="butt" d="m266.85965 252.94118l0 59.74803" fill-rule="evenodd"/><path fill="#c9daf8" d="m349.16806 118.27189l0 0c0 -13.794067 11.1822815 -24.97638 24.976349 -24.97638l0 0c6.624176 0 12.97699 2.6314316 17.66098 7.3154144c4.6839905 4.683983 7.315399 11.036819 7.315399 17.660965l0 0c0 13.794075 -11.1822815 24.976387 -24.97638 24.976387l0 0c-13.794067 0 -24.976349 -11.182312 -24.976349 -24.976387z" fill-rule="evenodd"/><path stroke="#4a86e8" stroke-width="1.0" stroke-linejoin="round" stroke-linecap="butt" d="m349.16806 118.27189l0 0c0 -13.794067 11.1822815 -24.97638 24.976349 -24.97638l0 0c6.624176 0 12.97699 2.6314316 17.66098 7.3154144c4.6839905 4.683983 7.315399 11.036819 7.315399 17.660965l0 0c0 13.794075 -11.1822815 24.976387 -24.97638 24.976387l0 0c-13.794067 0 -24.976349 -11.182312 -24.976349 -24.976387z" fill-rule="evenodd"/><path fill="#000000" d="m379.39075 112.22064l-5.78125 13.5625l-2.140625 0l0 -0.71875l5.234375 -10.59375l0 -0.15625l-4.640625 0q-0.453125 0 -0.734375 0.078125q-0.28125 0.078125 -0.46875 0.234375q-0.171875 0.15625 -0.28125 0.421875q-0.109375 0.25 -0.234375 0.8125l-1.203125 0l0.265625 -4.328125l9.984375 0l0 0.6875z" fill-rule="nonzero"/><path fill="#000000" fill-opacity="0.0" d="m284.5206 210.30383l71.968506 -74.3622" fill-rule="evenodd"/><path stroke="#666666" stroke-width="2.0" stroke-linejoin="round" stroke-linecap="butt" d="m284.5206 210.30383l71.968506 -74.3622" fill-rule="evenodd"/><path fill="#000000" fill-opacity="0.0" d="m4.5879264 4.094488l46.64567 0l0 48.472443l-46.64567 0z" fill-rule="evenodd"/><path fill="#000000" d="m36.119175 30.837614q0.3125 0 0.421875 0.296875q0.125 0.296875 0.03125 0.75q-0.125 0.5468769 -0.359375 0.8593769q-0.21875 0.3125 -0.640625 0.5625q-1.609375 0.9375 -5.156248 3.0625q-2.0 4.96875 -4.109375 7.828125q-2.09375 2.859375 -4.359375 2.859375q-1.234375 0 -1.84375 -0.765625q-0.59375 -0.75 -0.328125 -1.96875q0.234375 -1.125 0.96875 -2.28125q0.75 -1.15625 2.453125 -2.671875q1.703125 -1.5 4.640625 -3.453125l0.171875 -0.453125q-2.0625 0.796875 -3.890625 0.796875q-2.6875 0 -4.5 -1.046875q-1.8125 -1.046875 -2.546875 -2.96875q-0.71875 -1.9218769 -0.171875 -4.468752q0.75 -3.546875 2.671875 -6.265625q1.921875 -2.734375 4.609375 -4.234375q2.6875 -1.5 5.609375 -1.5q2.812498 0 3.937498 1.3125q1.125 1.3125 0.671875 3.46875q-0.296875 1.421875 -1.0 2.28125q-0.703125 0.84375 -1.6718731 0.84375q-0.640625 0 -0.96875 -0.3125q-0.328125 -0.3125 -0.21875 -0.859375q0.0625 -0.25 0.28125 -0.828125q0.28125 -0.671875 0.359375 -1.046875q0.21875 -1.015625 -0.28125 -1.5625q-0.484375 -0.546875 -1.921875 -0.546875q-1.75 0 -3.46875 1.015625q-1.71875 1.0 -3.0625 3.0q-1.328125 2.0 -1.9375 4.8125q-0.609375 2.875 0.625 4.453125q1.25 1.5625019 4.234375 1.5625019q1.65625 0 3.609375 -0.734375l0.953125 -2.937502l-2.4375 0q-0.671875 0 -0.96875 -0.3125q-0.296875 -0.328125 -0.140625 -1.078125q0.15625 -0.671875 0.59375 -1.046875q0.4375 -0.390625 1.03125 -0.390625l4.484373 0q0.53125 0 0.796875 0.359375q0.28125 0.34375 0.078125 0.984375q-0.234375 0.765625 -1.234375 3.484375l-0.6406231 1.8281269q2.218748 -1.453125 4.046873 -2.500002q0.34375 -0.1875 0.578125 -0.1875zm-13.421873 13.890627q0.625 0 1.671875 -1.421875q1.0625 -1.40625 2.375 -4.5625q-2.171875 1.5625 -3.25 2.828125q-1.0625 1.265625 -1.265625 2.21875q-0.203125 0.9375 0.46875 0.9375z" fill-rule="nonzero"/><path fill="#c9daf8" d="m348.49088 227.9648l0 0c0 -13.794067 11.182312 -24.97638 24.97638 -24.97638l0 0c6.6241455 0 12.97699 2.6314392 17.66098 7.3154144c4.68396 4.6839905 7.315399 11.036819 7.315399 17.660965l0 0c0 13.794083 -11.182312 24.97638 -24.97638 24.97638l0 0c-13.794067 0 -24.97638 -11.182297 -24.97638 -24.97638z" fill-rule="evenodd"/><path stroke="#4a86e8" stroke-width="1.0" stroke-linejoin="round" stroke-linecap="butt" d="m348.49088 227.9648l0 0c0 -13.794067 11.182312 -24.97638 24.97638 -24.97638l0 0c6.6241455 0 12.97699 2.6314392 17.66098 7.3154144c4.68396 4.6839905 7.315399 11.036819 7.315399 17.660965l0 0c0 13.794083 -11.182312 24.97638 -24.97638 24.97638l0 0c-13.794067 0 -24.97638 -11.182297 -24.97638 -24.97638z" fill-rule="evenodd"/><path fill="#000000" d="m376.32297 227.92918l0.03125 0.140625q1.203125 0.46875 1.8125 1.359375q0.625 0.875 0.625 2.109375q0 1.234375 -0.65625 2.15625q-0.65625 0.921875 -1.890625 1.421875q-1.234375 0.5 -2.890625 0.5q-1.5625 0 -2.734375 -0.453125q-1.171875 -0.46875 -1.828125 -1.359375q-0.640625 -0.890625 -0.640625 -2.09375q0 -0.890625 0.328125 -1.5625q0.328125 -0.671875 0.859375 -1.109375q0.546875 -0.453125 1.296875 -0.796875l-0.015625 -0.140625q-2.296875 -1.0 -2.296875 -3.328125q0 -1.046875 0.65625 -1.890625q0.65625 -0.859375 1.875 -1.328125q1.21875 -0.484375 2.71875 -0.484375q2.53125 0 3.8125 0.921875q1.296875 0.921875 1.296875 2.625q0 1.125 -0.59375 1.96875q-0.578125 0.84375 -1.765625 1.34375zm-4.875 -3.234375q0 1.359375 0.53125 2.09375q0.53125 0.71875 1.5625 0.71875q1.015625 0 1.515625 -0.671875q0.515625 -0.6875 0.515625 -1.953125q0 -1.28125 -0.53125 -1.96875q-0.53125 -0.6875 -1.515625 -0.6875q-1.03125 0 -1.5625 0.625q-0.515625 0.625 -0.515625 1.84375zm-0.125 6.765625q0 1.484375 0.546875 2.234375q0.546875 0.75 1.625 0.75q0.671875 0 1.140625 -0.3125q0.484375 -0.3125 0.734375 -0.953125q0.265625 -0.65625 0.265625 -1.546875q0 -0.921875 -0.265625 -1.59375q-0.265625 -0.671875 -0.75 -1.03125q-0.484375 -0.359375 -1.140625 -0.359375q-0.78125 0 -1.265625 0.375q-0.484375 0.359375 -0.6875 0.984375q-0.203125 0.625 -0.203125 1.453125z" fill-rule="nonzero"/><path fill="#000000" fill-opacity="0.0" d="m291.83603 227.9648l56.661407 0" fill-rule="evenodd"/><path stroke="#000000" stroke-width="1.0" stroke-linejoin="round" stroke-linecap="butt" d="m291.83603 227.9648l56.661407 0" fill-rule="evenodd"/><path fill="#f3f3f3" d="m419.78217 60.70341l366.2047 0l0 238.89763l-366.2047 0z" fill-rule="evenodd"/><path stroke="#666666" stroke-width="1.0" stroke-linejoin="round" stroke-linecap="butt" d="m419.78217 60.70341l366.2047 0l0 238.89763l-366.2047 0z" fill-rule="evenodd"/><path fill="#d9ead3" d="m467.08823 187.34355l0 0c0 -13.794083 11.182312 -24.97638 24.97638 -24.97638l0 0c6.624176 0 12.97699 2.631424 17.66098 7.3154144c4.68396 4.683975 7.3154297 11.036819 7.3154297 17.660965l0 0c0 13.794067 -11.182312 24.97638 -24.97641 24.97638l0 0c-13.794067 0 -24.97638 -11.182312 -24.97638 -24.97638z" fill-rule="evenodd"/><path stroke="#00ff00" stroke-width="1.0" stroke-linejoin="round" stroke-linecap="butt" d="m467.08823 187.34355l0 0c0 -13.794083 11.182312 -24.97638 24.97638 -24.97638l0 0c6.624176 0 12.97699 2.631424 17.66098 7.3154144c4.68396 4.683975 7.3154297 11.036819 7.3154297 17.660965l0 0c0 13.794067 -11.182312 24.97638 -24.97641 24.97638l0 0c-13.794067 0 -24.97638 -11.182312 -24.97638 -24.97638z" fill-rule="evenodd"/><path fill="#000000" d="m484.6779 191.8248q0 0.5625 0.0625 0.859375q0.0625 0.28125 0.21875 0.46875q0.171875 0.171875 0.46875 0.28125q0.3125 0.09375 0.765625 0.15625q0.46875 0.046875 1.21875 0.0625l0 0.890625l-8.4375 0l0 -0.890625q1.09375 -0.046875 1.546875 -0.125q0.46875 -0.09375 0.703125 -0.25q0.25 -0.171875 0.359375 -0.46875q0.125 -0.3125 0.125 -0.984375l0 -7.0625q0 -0.40625 -0.15625 -0.578125q-0.15625 -0.171875 -0.421875 -0.171875q-0.234375 0 -0.6875 0.21875q-0.4375 0.21875 -1.453125 0.921875l-0.59375 -1.046875l5.09375 -3.046875l1.25 0q-0.0625 0.9375 -0.0625 2.59375l0 8.171875zm9.705078 -1.59375l-4.625 0l0 -2.046875l4.625 0l0 2.046875zm2.4726562 -5.8125l0 -2.3125q2.46875 -1.046875 4.484375 -1.046875q1.203125 0 2.125 0.328125q0.921875 0.328125 1.421875 0.96875q0.515625 0.640625 0.515625 1.546875q0 0.828125 -0.34375 1.46875q-0.328125 0.625 -0.9375 1.09375q-0.59375 0.46875 -1.546875 0.921875l0 0.078125q0.84375 0.15625 1.546875 0.578125q0.703125 0.421875 1.109375 1.125q0.421875 0.703125 0.421875 1.625q0 1.125 -0.5625 2.015625q-0.546875 0.890625 -1.671875 1.390625q-1.125 0.5 -2.71875 0.5q-1.109375 0 -2.171875 -0.203125q-1.0625 -0.203125 -1.859375 -0.5625l0 -2.453125l1.765625 0q0.28125 1.125 0.796875 1.625q0.515625 0.5 1.359375 0.5q2.078125 0 2.078125 -2.5625q0 -1.375 -0.734375 -2.046875q-0.734375 -0.671875 -2.21875 -0.671875l-0.765625 0l0 -1.109375q1.703125 -0.078125 2.578125 -0.796875q0.875 -0.734375 0.875 -2.109375q0 -1.078125 -0.4375 -1.625q-0.4375 -0.5625 -1.28125 -0.5625q-0.46875 0 -0.875 0.21875q-0.40625 0.203125 -0.734375 0.734375q-0.3125 0.515625 -0.453125 1.34375l-1.765625 0z" fill-rule="nonzero"/><path fill="#d9ead3" d="m554.62695 187.34355l0 0c0 -13.794083 11.182312 -24.97638 24.97638 -24.97638l0 0c6.6241455 0 12.97699 2.631424 17.66095 7.3154144c4.684021 4.683975 7.3154297 11.036819 7.3154297 17.660965l0 0c0 13.794067 -11.182312 24.97638 -24.97638 24.97638l0 0c-13.794067 0 -24.97638 -11.182312 -24.97638 -24.97638z" fill-rule="evenodd"/><path stroke="#00ff00" stroke-width="1.0" stroke-linejoin="round" stroke-linecap="butt" d="m554.62695 187.34355l0 0c0 -13.794083 11.182312 -24.97638 24.97638 -24.97638l0 0c6.6241455 0 12.97699 2.631424 17.66095 7.3154144c4.684021 4.683975 7.3154297 11.036819 7.3154297 17.660965l0 0c0 13.794067 -11.182312 24.97638 -24.97638 24.97638l0 0c-13.794067 0 -24.97638 -11.182312 -24.97638 -24.97638z" fill-rule="evenodd"/><path fill="#000000" d="m571.74786 192.15292q0.640625 0 0.953125 -0.09375q0.3125 -0.09375 0.484375 -0.3125q0.1875 -0.234375 0.3125 -0.703125l1.109375 0l-0.21875 3.5l-8.9375 0l0 -0.640625q0.40625 -0.9375 1.171875 -2.046875q0.78125 -1.109375 1.890625 -2.40625q1.0625 -1.25 1.609375 -2.046875q0.5625 -0.796875 0.828125 -1.5q0.28125 -0.71875 0.28125 -1.484375q0 -1.078125 -0.484375 -1.6875q-0.484375 -0.609375 -1.3125 -0.609375q-0.78125 0 -1.296875 0.5625q-0.5 0.546875 -0.734375 1.734375l-1.765625 0l0 -2.3125q1.1875 -0.46875 1.859375 -0.65625q0.6875 -0.203125 1.34375 -0.296875q0.65625 -0.09375 1.421875 -0.09375q1.4375 0 2.34375 0.390625q0.90625 0.375 1.3125 1.046875q0.40625 0.65625 0.40625 1.53125q0 0.765625 -0.296875 1.4375q-0.28125 0.65625 -0.984375 1.515625q-0.703125 0.84375 -2.390625 2.421875q-0.75 0.734375 -1.40625 1.484375q-0.65625 0.75 -0.96875 1.171875l0 0.09375l3.46875 0zm10.173828 -1.921875l-4.625 0l0 -2.046875l4.625 0l0 2.046875zm5.7539062 3.671875q0.34375 -0.109375 0.546875 -0.21875q0.21875 -0.109375 0.328125 -0.296875q0.109375 -0.1875 0.140625 -0.484375q0.03125 -0.3125 0.03125 -0.765625l0 -1.46875l-5.234375 0l0 -1.046875l5.921875 -8.484375l2.203125 0l0 8.3125l0.296875 0q0.484375 0 0.671875 -0.0625q0.203125 -0.0625 0.34375 -0.234375q0.140625 -0.1875 0.265625 -0.640625l1.015625 0l-0.109375 2.15625l-2.484375 0l0 1.46875q0 0.515625 0.046875 0.828125q0.046875 0.296875 0.15625 0.484375q0.125 0.171875 0.328125 0.265625q0.203125 0.09375 0.515625 0.1875l0 0.640625l-4.984375 0l0 -0.640625zm-2.296875 -4.453125l3.34375 0l0 -2.234375q0 -1.40625 0.09375 -2.96875l-0.09375 0l-3.34375 5.03125l0 0.171875z" fill-rule="nonzero"/><path fill="#d9ead3" d="m641.7339 262.9551l0 0c0 -13.794083 11.182312 -24.976395 24.97638 -24.976395l0 0c6.6241455 0 12.97699 2.6314392 17.66101 7.3154144c4.68396 4.683975 7.3153687 11.036804 7.3153687 17.66098l0 0c0 13.794067 -11.182312 24.97638 -24.97638 24.97638l0 0c-13.794067 0 -24.97638 -11.182312 -24.97638 -24.97638z" fill-rule="evenodd"/><path stroke="#00ff00" stroke-width="1.0" stroke-linejoin="round" stroke-linecap="butt" d="m641.7339 262.9551l0 0c0 -13.794083 11.182312 -24.976395 24.97638 -24.976395l0 0c6.6241455 0 12.97699 2.6314392 17.66101 7.3154144c4.68396 4.683975 7.3153687 11.036804 7.3153687 17.66098l0 0c0 13.794067 -11.182312 24.97638 -24.97638 24.97638l0 0c-13.794067 0 -24.97638 -11.182312 -24.97638 -24.97638z" fill-rule="evenodd"/><path fill="#000000" d="m653.0267 269.54572l0 -2.4375l1.765625 0q0.25 1.0625 0.78125 1.59375q0.546875 0.515625 1.390625 0.515625q1.0625 0 1.5625 -0.65625q0.515625 -0.65625 0.515625 -2.046875q0 -1.34375 -0.65625 -2.0625q-0.65625 -0.71875 -1.890625 -0.71875q-0.484375 0 -1.03125 0.09375q-0.546875 0.09375 -0.984375 0.21875l-0.875 -0.546875l0 -6.671875l5.765625 0q0.375 0 0.53125 -0.046875q0.171875 -0.046875 0.28125 -0.15625q0.109375 -0.125 0.234375 -0.4375l1.0625 0l-0.1875 3.109375l-6.0 0l0 3.515625q0.59375 -0.171875 1.203125 -0.25q0.609375 -0.09375 1.5 -0.09375q1.203125 0 2.109375 0.453125q0.921875 0.453125 1.421875 1.3125q0.5 0.84375 0.5 2.0q0 1.34375 -0.609375 2.265625q-0.59375 0.90625 -1.734375 1.359375q-1.140625 0.453125 -2.734375 0.453125q-1.03125 0 -2.09375 -0.203125q-1.0625 -0.203125 -1.828125 -0.5625zm16.001953 -3.703125l-4.625 0l0 -2.046875l4.625 0l0 2.046875zm10.347656 -8.5l0 0.609375q-2.140625 0.046875 -3.46875 1.328125q-1.328125 1.265625 -1.765625 3.640625l0.09375 0.03125q0.765625 -0.515625 1.53125 -0.765625q0.78125 -0.25 1.703125 -0.25q1.109375 0 1.921875 0.5q0.8125 0.484375 1.21875 1.390625q0.40625 0.890625 0.40625 2.09375q0 1.296875 -0.546875 2.296875q-0.546875 0.984375 -1.6875 1.546875q-1.140625 0.546875 -2.78125 0.546875q-1.515625 0 -2.609375 -0.609375q-1.078125 -0.609375 -1.65625 -1.78125q-0.578125 -1.1875 -0.578125 -2.875q0 -2.28125 0.953125 -4.125q0.96875 -1.84375 2.734375 -2.96875q1.765625 -1.125 4.0 -1.28125l0.53125 0.671875zm-3.0625 5.953125q-0.484375 0 -0.90625 0.140625q-0.421875 0.140625 -0.75 0.375q-0.3125 0.234375 -0.421875 0.390625q-0.109375 0.15625 -0.15625 0.4375q-0.046875 0.28125 -0.046875 1.0q0 1.78125 0.484375 2.6875q0.5 0.890625 1.53125 0.890625q0.578125 0 0.96875 -0.21875q0.40625 -0.234375 0.640625 -0.640625q0.25 -0.40625 0.359375 -0.96875q0.109375 -0.578125 0.109375 -1.265625q0 -1.40625 -0.46875 -2.109375q-0.453125 -0.71875 -1.34375 -0.71875z" fill-rule="nonzero"/><path fill="#d9ead3" d="m723.7339 143.24905l0 0c0 -13.794067 11.182312 -24.976372 24.97638 -24.976372l0 0c6.6241455 0 12.97699 2.6314316 17.66101 7.315407c4.68396 4.683975 7.3153687 11.036819 7.3153687 17.660965l0 0c0 13.794083 -11.182312 24.97638 -24.97638 24.97638l0 0c-13.794067 0 -24.97638 -11.182297 -24.97638 -24.97638z" fill-rule="evenodd"/><path stroke="#00ff00" stroke-width="1.0" stroke-linejoin="round" stroke-linecap="butt" d="m723.7339 143.24905l0 0c0 -13.794067 11.182312 -24.976372 24.97638 -24.976372l0 0c6.6241455 0 12.97699 2.6314316 17.66101 7.315407c4.68396 4.683975 7.3153687 11.036819 7.3153687 17.660965l0 0c0 13.794083 -11.182312 24.97638 -24.97638 24.97638l0 0c-13.794067 0 -24.97638 -11.182297 -24.97638 -24.97638z" fill-rule="evenodd"/><path fill="#000000" d="m753.63116 137.76155l-5.421875 12.71875l-2.0 0l0 -0.671875l4.90625 -9.9375l0 -0.140625l-4.359375 0q-0.421875 0 -0.6875 0.0625q-0.265625 0.0625 -0.4375 0.21875q-0.15625 0.15625 -0.265625 0.40625q-0.09375 0.234375 -0.21875 0.75l-1.125 0l0.25 -4.046875l9.359375 0l0 0.640625z" fill-rule="nonzero"/><path fill="#000000" fill-opacity="0.0" d="m517.041 187.34355l37.574768 0" fill-rule="evenodd"/><path stroke="#000000" stroke-width="3.0" stroke-linejoin="round" stroke-linecap="butt" d="m517.041 187.34355l37.574768 0" fill-rule="evenodd"/><path fill="#000000" fill-opacity="0.0" d="m597.2643 205.00452l51.77954 40.283463" fill-rule="evenodd"/><path stroke="#000000" stroke-width="2.0" stroke-linejoin="round" stroke-linecap="butt" d="m597.2643 205.00452l51.77954 40.283463" fill-rule="evenodd"/><path fill="#000000" fill-opacity="0.0" d="m684.3713 245.29413l46.677124 -84.377945" fill-rule="evenodd"/><path stroke="#000000" stroke-width="1.0" stroke-linejoin="round" stroke-linecap="butt" d="m684.3713 245.29413l46.677124 -84.377945" fill-rule="evenodd"/><path fill="#000000" fill-opacity="0.0" d="m419.7822 60.70341l86.42517 0l0 48.47244l-86.42517 0z" fill-rule="evenodd"/><path fill="#000000" d="m451.31345 87.44654q0.3125 0 0.421875 0.296875q0.125 0.296875 0.03125 0.75q-0.125 0.546875 -0.359375 0.859375q-0.21875 0.3125 -0.640625 0.5625q-1.609375 0.9375 -5.15625 3.0625q-2.0 4.96875 -4.109375 7.828125q-2.09375 2.859375 -4.359375 2.859375q-1.234375 0 -1.84375 -0.765625q-0.59375 -0.75 -0.328125 -1.96875q0.234375 -1.125 0.96875 -2.28125q0.75 -1.15625 2.453125 -2.671875q1.703125 -1.5 4.640625 -3.453125l0.171875 -0.453125q-2.0625 0.796875 -3.890625 0.796875q-2.6875 0 -4.5 -1.046875q-1.8125 -1.046875 -2.546875 -2.96875q-0.71875 -1.921875 -0.171875 -4.46875q0.75 -3.546875 2.671875 -6.265625q1.921875 -2.734375 4.609375 -4.234375q2.6875 -1.5 5.609375 -1.5q2.8125 0 3.9375 1.3125q1.125 1.3125 0.671875 3.46875q-0.296875 1.421875 -1.0 2.28125q-0.703125 0.84375 -1.671875 0.84375q-0.640625 0 -0.96875 -0.3125q-0.328125 -0.3125 -0.21875 -0.859375q0.0625 -0.25 0.28125 -0.828125q0.28125 -0.671875 0.359375 -1.046875q0.21875 -1.015625 -0.28125 -1.5625q-0.484375 -0.546875 -1.921875 -0.546875q-1.75 0 -3.46875 1.015625q-1.71875 1.0 -3.0625 3.0q-1.328125 2.0 -1.9375 4.8125q-0.609375 2.875 0.625 4.453125q1.25 1.5625 4.234375 1.5625q1.65625 0 3.609375 -0.734375l0.953125 -2.9375l-2.4375 0q-0.671875 0 -0.96875 -0.3125q-0.296875 -0.328125 -0.140625 -1.078125q0.15625 -0.671875 0.59375 -1.046875q0.4375 -0.390625 1.03125 -0.390625l4.484375 0q0.53125 0 0.796875 0.359375q0.28125 0.34375 0.078125 0.984375q-0.234375 0.765625 -1.234375 3.484375l-0.640625 1.828125q2.21875 -1.453125 4.046875 -2.5q0.34375 -0.1875 0.578125 -0.1875zm-13.421875 13.890625q0.625 0 1.671875 -1.421875q1.0625 -1.40625 2.375 -4.5625q-2.171875 1.5625 -3.25 2.828125q-1.0625 1.265625 -1.265625 2.21875q-0.203125 0.9375 0.46875 0.9375z" fill-rule="nonzero"/><path fill="#000000" d="m449.62112 98.212166q0.140625 0.578125 0.359375 0.921875q0.21875 0.328125 0.5625 0.484375q0.359375 0.15625 0.90625 0.15625q0.765625 0 1.171875 -0.390625q0.40625 -0.40625 0.40625 -1.171875q0 -0.484375 -0.171875 -0.8125q-0.171875 -0.328125 -0.5625 -0.625q-0.375 -0.296875 -1.15625 -0.6875q-0.765625 -0.375 -1.203125 -0.734375q-0.4375 -0.359375 -0.65625 -0.78125q-0.21875 -0.421875 -0.21875 -0.921875q0 -0.734375 0.328125 -1.265625q0.34375 -0.546875 1.0 -0.828125q0.671875 -0.296875 1.515625 -0.296875q0.5 0 0.96875 0.046875q0.484375 0.046875 1.1875 0.234375l0 1.765625l-0.640625 0q-0.15625 -0.578125 -0.390625 -0.890625q-0.21875 -0.328125 -0.53125 -0.453125q-0.296875 -0.125 -0.78125 -0.125q-0.421875 0 -0.765625 0.15625q-0.328125 0.15625 -0.53125 0.46875q-0.1875 0.3125 -0.1875 0.75q0 0.46875 0.15625 0.796875q0.171875 0.3125 0.515625 0.59375q0.359375 0.265625 1.046875 0.59375q0.828125 0.421875 1.28125 0.78125q0.46875 0.359375 0.71875 0.8125q0.265625 0.453125 0.265625 1.078125q0 0.671875 -0.21875 1.15625q-0.21875 0.46875 -0.59375 0.765625q-0.375 0.296875 -0.90625 0.4375q-0.53125 0.125 -1.171875 0.125q-1.015625 0 -2.34375 -0.34375l0 -1.796875l0.640625 0zm10.248627 2.03125l0 -0.3125q0.3125 -0.078125 0.46875 -0.15625q0.171875 -0.078125 0.25 -0.203125q0.078125 -0.140625 0.078125 -0.375q0 -0.234375 -0.0625 -0.484375q-0.046875 -0.265625 -0.140625 -0.578125l-0.25 -0.84375l-3.03125 0l-0.21875 0.640625q-0.171875 0.484375 -0.21875 0.734375q-0.046875 0.25 -0.046875 0.453125q0 0.390625 0.1875 0.578125q0.203125 0.171875 0.609375 0.234375l0 0.3125l-2.78125 0l0 -0.3125q0.375 -0.0625 0.640625 -0.421875q0.265625 -0.375 0.53125 -1.046875l2.703125 -7.203125l1.03125 0l2.21875 7.25q0.15625 0.515625 0.265625 0.78125q0.125 0.265625 0.296875 0.421875q0.171875 0.140625 0.46875 0.21875l0 0.3125l-3.0 0zm-2.5 -3.515625l2.71875 0l-1.234375 -4.203125l-1.484375 4.203125zm12.309753 3.484375l-0.5 0.140625l-0.484375 -0.515625q-0.421875 0.265625 -0.890625 0.390625q-0.453125 0.125 -1.046875 0.125q-1.65625 0 -2.484375 -1.125q-0.828125 -1.140625 -0.828125 -3.359375q0 -1.390625 0.453125 -2.4375q0.453125 -1.046875 1.296875 -1.609375q0.859375 -0.5625 2.015625 -0.5625q0.59375 0 1.15625 0.078125q0.5625 0.0625 1.25 0.21875l0 1.796875l-0.640625 0q-0.1875 -0.59375 -0.421875 -0.921875q-0.234375 -0.328125 -0.578125 -0.46875q-0.328125 -0.140625 -0.84375 -0.140625q-0.71875 0 -1.25 0.46875q-0.53125 0.453125 -0.828125 1.34375q-0.296875 0.875 -0.296875 2.140625q0 1.265625 0.25 2.171875q0.25 0.90625 0.734375 1.375q0.5 0.453125 1.234375 0.453125q0.765625 0 1.125 -0.328125q0.375 -0.34375 0.375 -1.03125l0 -0.390625q0 -0.59375 -0.0625 -0.84375q-0.0625 -0.265625 -0.21875 -0.40625q-0.15625 -0.15625 -0.5 -0.234375l0 -0.328125l2.625 0l0 0.328125q-0.234375 0.078125 -0.359375 0.1875q-0.109375 0.09375 -0.171875 0.25q-0.0625 0.140625 -0.09375 0.359375q-0.015625 0.21875 -0.015625 0.609375l0 2.265625z" fill-rule="nonzero"/><path fill="#d9ead3" d="m731.05676 262.9551l0 0c0 -13.794083 11.182312 -24.976395 24.97638 -24.976395l0 0c6.6241455 0 12.97699 2.6314392 17.66095 7.3154144c4.68396 4.683975 7.3154297 11.036804 7.3154297 17.66098l0 0c0 13.794067 -11.182312 24.97638 -24.97638 24.97638l0 0c-13.794067 0 -24.97638 -11.182312 -24.97638 -24.97638z" fill-rule="evenodd"/><path stroke="#00ff00" stroke-width="1.0" stroke-linejoin="round" stroke-linecap="butt" d="m731.05676 262.9551l0 0c0 -13.794083 11.182312 -24.976395 24.97638 -24.976395l0 0c6.6241455 0 12.97699 2.6314392 17.66095 7.3154144c4.68396 4.683975 7.3154297 11.036804 7.3154297 17.66098l0 0c0 13.794067 -11.182312 24.97638 -24.97638 24.97638l0 0c-13.794067 0 -24.97638 -11.182312 -24.97638 -24.97638z" fill-rule="evenodd"/><path fill="#000000" d="m758.71967 263.10822l0.015625 0.125q1.125 0.453125 1.703125 1.28125q0.59375 0.828125 0.59375 1.984375q0 1.140625 -0.625 2.015625q-0.609375 0.859375 -1.765625 1.34375q-1.15625 0.46875 -2.703125 0.46875q-1.484375 0 -2.578125 -0.4375q-1.09375 -0.4375 -1.703125 -1.265625q-0.609375 -0.84375 -0.609375 -1.96875q0 -0.84375 0.296875 -1.46875q0.3125 -0.625 0.8125 -1.046875q0.515625 -0.421875 1.21875 -0.75l-0.015625 -0.125q-2.15625 -0.9375 -2.15625 -3.109375q0 -1.0 0.609375 -1.796875q0.625 -0.796875 1.765625 -1.234375q1.15625 -0.453125 2.5625 -0.453125q2.375 0 3.578125 0.875q1.21875 0.859375 1.21875 2.453125q0 1.046875 -0.5625 1.84375q-0.546875 0.796875 -1.65625 1.265625zm-4.578125 -3.03125q0 1.28125 0.5 1.96875q0.5 0.671875 1.46875 0.671875q0.9375 0 1.40625 -0.640625q0.484375 -0.640625 0.484375 -1.828125q0 -1.203125 -0.5 -1.84375q-0.484375 -0.640625 -1.40625 -0.640625q-0.96875 0 -1.46875 0.59375q-0.484375 0.578125 -0.484375 1.71875zm-0.125 6.34375q0 1.390625 0.515625 2.09375q0.515625 0.703125 1.53125 0.703125q0.625 0 1.0625 -0.296875q0.453125 -0.296875 0.6875 -0.890625q0.25 -0.609375 0.25 -1.453125q0 -0.859375 -0.25 -1.484375q-0.234375 -0.625 -0.703125 -0.96875q-0.453125 -0.34375 -1.078125 -0.34375q-0.71875 0 -1.171875 0.34375q-0.453125 0.34375 -0.65625 0.9375q-0.1875 0.578125 -0.1875 1.359375z" fill-rule="nonzero"/><path fill="#000000" fill-opacity="0.0" d="m691.68665 262.9551l39.370117 0" fill-rule="evenodd"/><path stroke="#000000" stroke-width="1.0" stroke-linejoin="round" stroke-linecap="butt" d="m691.68665 262.9551l39.370117 0" fill-rule="evenodd"/></g></svg>