<?xml version="1.0" standalone="yes"?>

<svg version="1.1" viewBox="0.0 0.0 679.0 498.0" fill="none" stroke="none" stroke-linecap="square" stroke-miterlimit="10" xmlns="http://www.w3.org/2000/svg" xmlns:xlink="http://www.w3.org/1999/xlink"><clipPath id="p.0"><path d="m0 0l679.0 0l0 498.0l-679.0 0l0 -498.0z" clip-rule="nonzero"></path></clipPath><g clip-path="url(#p.0)"><path fill="#000000" fill-opacity="0.0" d="m0 0l679.0 0l0 498.0l-679.0 0z" fill-rule="nonzero"></path><path fill="#6fa8dc" d="m186.06526 6.5984254l12.944885 0l0 28.283464l-12.944885 0z" fill-rule="nonzero"></path><path stroke="#4a86e8" stroke-width="1.0" stroke-linejoin="round" stroke-linecap="butt" d="m186.06526 6.5984254l12.944885 0l0 28.283464l-12.944885 0z" fill-rule="nonzero"></path><path fill="#6fa8dc" d="m186.06526 34.88189l12.944885 0l0 28.283466l-12.944885 0z" fill-rule="nonzero"></path><path stroke="#4a86e8" stroke-width="1.0" stroke-linejoin="round" stroke-linecap="butt" d="m186.06526 34.88189l12.944885 0l0 28.283466l-12.944885 0z" fill-rule="nonzero"></path><path fill="#6fa8dc" d="m186.06526 63.165356l12.944885 0l0 28.283466l-12.944885 0z" fill-rule="nonzero"></path><path stroke="#4a86e8" stroke-width="1.0" stroke-linejoin="round" stroke-linecap="butt" d="m186.06526 63.165356l12.944885 0l0 28.283466l-12.944885 0z" fill-rule="nonzero"></path><path fill="#6fa8dc" d="m186.06526 91.44882l12.944885 0l0 28.283463l-12.944885 0z" fill-rule="nonzero"></path><path stroke="#4a86e8" stroke-width="1.0" stroke-linejoin="round" stroke-linecap="butt" d="m186.06526 91.44882l12.944885 0l0 28.283463l-12.944885 0z" fill-rule="nonzero"></path><path fill="#6fa8dc" d="m186.06526 119.732285l12.944885 0l0 28.283463l-12.944885 0z" fill-rule="nonzero"></path><path stroke="#4a86e8" stroke-width="1.0" stroke-linejoin="round" stroke-linecap="butt" d="m186.06526 119.732285l12.944885 0l0 28.283463l-12.944885 0z" fill-rule="nonzero"></path><path fill="#6fa8dc" d="m186.06526 148.01575l12.944885 0l0 28.283463l-12.944885 0z" fill-rule="nonzero"></path><path stroke="#4a86e8" stroke-width="1.0" stroke-linejoin="round" stroke-linecap="butt" d="m186.06526 148.01575l12.944885 0l0 28.283463l-12.944885 0z" fill-rule="nonzero"></path><path fill="#6fa8dc" d="m186.06526 176.29921l12.944885 0l0 28.283463l-12.944885 0z" fill-rule="nonzero"></path><path stroke="#4a86e8" stroke-width="1.0" stroke-linejoin="round" stroke-linecap="butt" d="m186.06526 176.29921l12.944885 0l0 28.283463l-12.944885 0z" fill-rule="nonzero"></path><path fill="#6fa8dc" d="m186.06526 204.58267l12.944885 0l0 28.283463l-12.944885 0z" fill-rule="nonzero"></path><path stroke="#4a86e8" stroke-width="1.0" stroke-linejoin="round" stroke-linecap="butt" d="m186.06526 204.58267l12.944885 0l0 28.283463l-12.944885 0z" fill-rule="nonzero"></path><path fill="#6fa8dc" d="m186.06526 232.86613l12.944885 0l0 28.283463l-12.944885 0z" fill-rule="nonzero"></path><path stroke="#4a86e8" stroke-width="1.0" stroke-linejoin="round" stroke-linecap="butt" d="m186.06526 232.86613l12.944885 0l0 28.283463l-12.944885 0z" fill-rule="nonzero"></path><path fill="#6fa8dc" d="m186.06526 261.1496l12.944885 0l0 28.283478l-12.944885 0z" fill-rule="nonzero"></path><path stroke="#4a86e8" stroke-width="1.0" stroke-linejoin="round" stroke-linecap="butt" d="m186.06526 261.1496l12.944885 0l0 28.283478l-12.944885 0z" fill-rule="nonzero"></path><path fill="#6fa8dc" d="m186.06526 289.43307l12.944885 0l0 28.283447l-12.944885 0z" fill-rule="nonzero"></path><path stroke="#4a86e8" stroke-width="1.0" stroke-linejoin="round" stroke-linecap="butt" d="m186.06526 289.43307l12.944885 0l0 28.283447l-12.944885 0z" fill-rule="nonzero"></path><path fill="#6fa8dc" d="m186.06526 317.71652l12.944885 0l0 28.283478l-12.944885 0z" fill-rule="nonzero"></path><path stroke="#4a86e8" stroke-width="1.0" stroke-linejoin="round" stroke-linecap="butt" d="m186.06526 317.71652l12.944885 0l0 28.283478l-12.944885 0z" fill-rule="nonzero"></path><path fill="#6fa8dc" d="m186.06526 346.0l12.944885 0l0 28.283478l-12.944885 0z" fill-rule="nonzero"></path><path stroke="#4a86e8" stroke-width="1.0" stroke-linejoin="round" stroke-linecap="butt" d="m186.06526 346.0l12.944885 0l0 28.283478l-12.944885 0z" fill-rule="nonzero"></path><path fill="#6fa8dc" d="m186.06526 374.28348l12.944885 0l0 28.283447l-12.944885 0z" fill-rule="nonzero"></path><path stroke="#4a86e8" stroke-width="1.0" stroke-linejoin="round" stroke-linecap="butt" d="m186.06526 374.28348l12.944885 0l0 28.283447l-12.944885 0z" fill-rule="nonzero"></path><path fill="#6fa8dc" d="m186.06526 402.56693l12.944885 0l0 28.283478l-12.944885 0z" fill-rule="nonzero"></path><path stroke="#4a86e8" stroke-width="1.0" stroke-linejoin="round" stroke-linecap="butt" d="m186.06526 402.56693l12.944885 0l0 28.283478l-12.944885 0z" fill-rule="nonzero"></path><path fill="#cfe2f3" d="m186.06526 430.8504l12.944885 0l0 28.283447l-12.944885 0z" fill-rule="nonzero"></path><path stroke="#4a86e8" stroke-width="1.0" stroke-linejoin="round" stroke-linecap="butt" d="m186.06526 430.8504l12.944885 0l0 28.283447l-12.944885 0z" fill-rule="nonzero"></path><path fill="#cfe2f3" d="m186.06526 459.13385l12.944885 0l0 28.283478l-12.944885 0z" fill-rule="nonzero"></path><path stroke="#4a86e8" stroke-width="1.0" stroke-linejoin="round" stroke-linecap="butt" d="m186.06526 459.13385l12.944885 0l0 28.283478l-12.944885 0z" fill-rule="nonzero"></path><path fill="#d9ead3" d="m199.82591 6.5984254l12.944885 0l0 28.283464l-12.944885 0z" fill-rule="nonzero"></path><path stroke="#00ff00" stroke-width="1.0" stroke-linejoin="round" stroke-linecap="butt" d="m199.82591 6.5984254l12.944885 0l0 28.283464l-12.944885 0z" fill-rule="nonzero"></path><path fill="#93c47d" d="m199.82607 34.88189l12.944885 0l0 28.283466l-12.944885 0z" fill-rule="nonzero"></path><path stroke="#00ff00" stroke-width="1.0" stroke-linejoin="round" stroke-linecap="butt" d="m199.82607 34.88189l12.944885 0l0 28.283466l-12.944885 0z" fill-rule="nonzero"></path><path fill="#93c47d" d="m199.82607 63.165356l12.944885 0l0 28.283466l-12.944885 0z" fill-rule="nonzero"></path><path stroke="#00ff00" stroke-width="1.0" stroke-linejoin="round" stroke-linecap="butt" d="m199.82607 63.165356l12.944885 0l0 28.283466l-12.944885 0z" fill-rule="nonzero"></path><path fill="#93c47d" d="m199.82607 91.44882l12.944885 0l0 28.283463l-12.944885 0z" fill-rule="nonzero"></path><path stroke="#00ff00" stroke-width="1.0" stroke-linejoin="round" stroke-linecap="butt" d="m199.82607 91.44882l12.944885 0l0 28.283463l-12.944885 0z" fill-rule="nonzero"></path><path fill="#93c47d" d="m199.82607 119.732285l12.944885 0l0 28.283463l-12.944885 0z" fill-rule="nonzero"></path><path stroke="#00ff00" stroke-width="1.0" stroke-linejoin="round" stroke-linecap="butt" d="m199.82607 119.732285l12.944885 0l0 28.283463l-12.944885 0z" fill-rule="nonzero"></path><path fill="#93c47d" d="m199.82607 148.01575l12.944885 0l0 28.283463l-12.944885 0z" fill-rule="nonzero"></path><path stroke="#00ff00" stroke-width="1.0" stroke-linejoin="round" stroke-linecap="butt" d="m199.82607 148.01575l12.944885 0l0 28.283463l-12.944885 0z" fill-rule="nonzero"></path><path fill="#93c47d" d="m199.82607 176.29921l12.944885 0l0 28.283463l-12.944885 0z" fill-rule="nonzero"></path><path stroke="#00ff00" stroke-width="1.0" stroke-linejoin="round" stroke-linecap="butt" d="m199.82607 176.29921l12.944885 0l0 28.283463l-12.944885 0z" fill-rule="nonzero"></path><path fill="#93c47d" d="m199.82607 204.58267l12.944885 0l0 28.283463l-12.944885 0z" fill-rule="nonzero"></path><path stroke="#00ff00" stroke-width="1.0" stroke-linejoin="round" stroke-linecap="butt" d="m199.82607 204.58267l12.944885 0l0 28.283463l-12.944885 0z" fill-rule="nonzero"></path><path fill="#93c47d" d="m199.82607 232.86613l12.944885 0l0 28.283463l-12.944885 0z" fill-rule="nonzero"></path><path stroke="#00ff00" stroke-width="1.0" stroke-linejoin="round" stroke-linecap="butt" d="m199.82607 232.86613l12.944885 0l0 28.283463l-12.944885 0z" fill-rule="nonzero"></path><path fill="#93c47d" d="m199.82607 261.1496l12.944885 0l0 28.283478l-12.944885 0z" fill-rule="nonzero"></path><path stroke="#00ff00" stroke-width="1.0" stroke-linejoin="round" stroke-linecap="butt" d="m199.82607 261.1496l12.944885 0l0 28.283478l-12.944885 0z" fill-rule="nonzero"></path><path fill="#93c47d" d="m199.82607 289.43307l12.944885 0l0 28.283447l-12.944885 0z" fill-rule="nonzero"></path><path stroke="#00ff00" stroke-width="1.0" stroke-linejoin="round" stroke-linecap="butt" d="m199.82607 289.43307l12.944885 0l0 28.283447l-12.944885 0z" fill-rule="nonzero"></path><path fill="#93c47d" d="m199.82607 317.71652l12.944885 0l0 28.283478l-12.944885 0z" fill-rule="nonzero"></path><path stroke="#00ff00" stroke-width="1.0" stroke-linejoin="round" stroke-linecap="butt" d="m199.82607 317.71652l12.944885 0l0 28.283478l-12.944885 0z" fill-rule="nonzero"></path><path fill="#93c47d" d="m199.82607 346.0l12.944885 0l0 28.283478l-12.944885 0z" fill-rule="nonzero"></path><path stroke="#00ff00" stroke-width="1.0" stroke-linejoin="round" stroke-linecap="butt" d="m199.82607 346.0l12.944885 0l0 28.283478l-12.944885 0z" fill-rule="nonzero"></path><path fill="#93c47d" d="m199.82607 374.28348l12.944885 0l0 28.283447l-12.944885 0z" fill-rule="nonzero"></path><path stroke="#00ff00" stroke-width="1.0" stroke-linejoin="round" stroke-linecap="butt" d="m199.82607 374.28348l12.944885 0l0 28.283447l-12.944885 0z" fill-rule="nonzero"></path><path fill="#93c47d" d="m199.82607 402.56693l12.944885 0l0 28.283478l-12.944885 0z" fill-rule="nonzero"></path><path stroke="#00ff00" stroke-width="1.0" stroke-linejoin="round" stroke-linecap="butt" d="m199.82607 402.56693l12.944885 0l0 28.283478l-12.944885 0z" fill-rule="nonzero"></path><path fill="#93c47d" d="m199.82607 430.8504l12.944885 0l0 28.283447l-12.944885 0z" fill-rule="nonzero"></path><path stroke="#00ff00" stroke-width="1.0" stroke-linejoin="round" stroke-linecap="butt" d="m199.82607 430.8504l12.944885 0l0 28.283447l-12.944885 0z" fill-rule="nonzero"></path><path fill="#d9ead3" d="m199.82607 459.13385l12.944885 0l0 28.283478l-12.944885 0z" fill-rule="nonzero"></path><path stroke="#00ff00" stroke-width="1.0" stroke-linejoin="round" stroke-linecap="butt" d="m199.82607 459.13385l12.944885 0l0 28.283478l-12.944885 0z" fill-rule="nonzero"></path><path fill="#fce5cd" d="m213.70305 6.5984254l12.94487 0l0 28.283464l-12.94487 0z" fill-rule="nonzero"></path><path stroke="#ff9900" stroke-width="1.0" stroke-linejoin="round" stroke-linecap="butt" d="m213.70305 6.5984254l12.94487 0l0 28.283464l-12.94487 0z" fill-rule="nonzero"></path><path fill="#fce5cd" d="m213.70305 34.88189l12.94487 0l0 28.283466l-12.94487 0z" fill-rule="nonzero"></path><path stroke="#ff9900" stroke-width="1.0" stroke-linejoin="round" stroke-linecap="butt" d="m213.70305 34.88189l12.94487 0l0 28.283466l-12.94487 0z" fill-rule="nonzero"></path><path fill="#f6b26b" d="m213.70305 63.165356l12.94487 0l0 28.283466l-12.94487 0z" fill-rule="nonzero"></path><path stroke="#ff9900" stroke-width="1.0" stroke-linejoin="round" stroke-linecap="butt" d="m213.70305 63.165356l12.94487 0l0 28.283466l-12.94487 0z" fill-rule="nonzero"></path><path fill="#f6b26b" d="m213.70305 91.44882l12.94487 0l0 28.283463l-12.94487 0z" fill-rule="nonzero"></path><path stroke="#ff9900" stroke-width="1.0" stroke-linejoin="round" stroke-linecap="butt" d="m213.70305 91.44882l12.94487 0l0 28.283463l-12.94487 0z" fill-rule="nonzero"></path><path fill="#f6b26b" d="m213.70305 119.732285l12.94487 0l0 28.283463l-12.94487 0z" fill-rule="nonzero"></path><path stroke="#ff9900" stroke-width="1.0" stroke-linejoin="round" stroke-linecap="butt" d="m213.70305 119.732285l12.94487 0l0 28.283463l-12.94487 0z" fill-rule="nonzero"></path><path fill="#f6b26b" d="m213.70305 148.01575l12.94487 0l0 28.283463l-12.94487 0z" fill-rule="nonzero"></path><path stroke="#ff9900" stroke-width="1.0" stroke-linejoin="round" stroke-linecap="butt" d="m213.70305 148.01575l12.94487 0l0 28.283463l-12.94487 0z" fill-rule="nonzero"></path><path fill="#f6b26b" d="m213.70305 176.29921l12.94487 0l0 28.283463l-12.94487 0z" fill-rule="nonzero"></path><path stroke="#ff9900" stroke-width="1.0" stroke-linejoin="round" stroke-linecap="butt" d="m213.70305 176.29921l12.94487 0l0 28.283463l-12.94487 0z" fill-rule="nonzero"></path><path fill="#f6b26b" d="m213.70305 204.58267l12.94487 0l0 28.283463l-12.94487 0z" fill-rule="nonzero"></path><path stroke="#ff9900" stroke-width="1.0" stroke-linejoin="round" stroke-linecap="butt" d="m213.70305 204.58267l12.94487 0l0 28.283463l-12.94487 0z" fill-rule="nonzero"></path><path fill="#f6b26b" d="m213.70305 232.86613l12.94487 0l0 28.283463l-12.94487 0z" fill-rule="nonzero"></path><path stroke="#ff9900" stroke-width="1.0" stroke-linejoin="round" stroke-linecap="butt" d="m213.70305 232.86613l12.94487 0l0 28.283463l-12.94487 0z" fill-rule="nonzero"></path><path fill="#f6b26b" d="m213.70305 261.1496l12.94487 0l0 28.283478l-12.94487 0z" fill-rule="nonzero"></path><path stroke="#ff9900" stroke-width="1.0" stroke-linejoin="round" stroke-linecap="butt" d="m213.70305 261.1496l12.94487 0l0 28.283478l-12.94487 0z" fill-rule="nonzero"></path><path fill="#f6b26b" d="m213.70305 289.43307l12.94487 0l0 28.283447l-12.94487 0z" fill-rule="nonzero"></path><path stroke="#ff9900" stroke-width="1.0" stroke-linejoin="round" stroke-linecap="butt" d="m213.70305 289.43307l12.94487 0l0 28.283447l-12.94487 0z" fill-rule="nonzero"></path><path fill="#f6b26b" d="m213.70305 317.71652l12.94487 0l0 28.283478l-12.94487 0z" fill-rule="nonzero"></path><path stroke="#ff9900" stroke-width="1.0" stroke-linejoin="round" stroke-linecap="butt" d="m213.70305 317.71652l12.94487 0l0 28.283478l-12.94487 0z" fill-rule="nonzero"></path><path fill="#f6b26b" d="m213.70305 346.0l12.94487 0l0 28.283478l-12.94487 0z" fill-rule="nonzero"></path><path stroke="#ff9900" stroke-width="1.0" stroke-linejoin="round" stroke-linecap="butt" d="m213.70305 346.0l12.94487 0l0 28.283478l-12.94487 0z" fill-rule="nonzero"></path><path fill="#f6b26b" d="m213.70305 374.28348l12.94487 0l0 28.283447l-12.94487 0z" fill-rule="nonzero"></path><path stroke="#ff9900" stroke-width="1.0" stroke-linejoin="round" stroke-linecap="butt" d="m213.70305 374.28348l12.94487 0l0 28.283447l-12.94487 0z" fill-rule="nonzero"></path><path fill="#f6b26b" d="m213.70305 402.56693l12.94487 0l0 28.283478l-12.94487 0z" fill-rule="nonzero"></path><path stroke="#ff9900" stroke-width="1.0" stroke-linejoin="round" stroke-linecap="butt" d="m213.70305 402.56693l12.94487 0l0 28.283478l-12.94487 0z" fill-rule="nonzero"></path><path fill="#f6b26b" d="m213.70305 430.8504l12.94487 0l0 28.283447l-12.94487 0z" fill-rule="nonzero"></path><path stroke="#ff9900" stroke-width="1.0" stroke-linejoin="round" stroke-linecap="butt" d="m213.70305 430.8504l12.94487 0l0 28.283447l-12.94487 0z" fill-rule="nonzero"></path><path fill="#f6b26b" d="m213.70305 459.13385l12.94487 0l0 28.283478l-12.94487 0z" fill-rule="nonzero"></path><path stroke="#ff9900" stroke-width="1.0" stroke-linejoin="round" stroke-linecap="butt" d="m213.70305 459.13385l12.94487 0l0 28.283478l-12.94487 0z" fill-rule="nonzero"></path><path fill="#ffffff" d="m144.61417 6.5984254l40.220474 0l0 28.25197l-40.220474 0z" fill-rule="nonzero"></path><path stroke="#cccccc" stroke-width="1.0" stroke-linejoin="round" stroke-linecap="butt" d="m144.61417 6.5984254l40.220474 0l0 28.25197l-40.220474 0z" fill-rule="nonzero"></path><path fill="#000000" d="m165.44069 23.868158q0 0.375 0.046875 0.5625q0.046875 0.171875 0.140625 0.296875q0.109375 0.125 0.296875 0.1875q0.203125 0.0625 0.5 0.109375q0.296875 0.03125 0.796875 0.03125l0 0.46875l-4.703125 0l0 -0.46875q0.71875 -0.03125 1.015625 -0.078125q0.296875 -0.0625 0.453125 -0.15625q0.15625 -0.109375 0.234375 -0.3125q0.078125 -0.203125 0.078125 -0.640625l0 -5.15625q0 -0.25 -0.09375 -0.359375q-0.09375 -0.125 -0.265625 -0.125q-0.203125 0 -0.578125 0.21875q-0.359375 0.203125 -0.921875 0.578125l-0.28125 -0.5l2.96875 -1.765625l0.359375 0q-0.046875 0.609375 -0.046875 1.6875l0 5.421875z" fill-rule="nonzero"></path><path fill="#ffffff" d="m144.61417 34.855297l40.220474 0l0 28.251968l-40.220474 0z" fill-rule="nonzero"></path><path stroke="#cccccc" stroke-width="1.0" stroke-linejoin="round" stroke-linecap="butt" d="m144.61417 34.855297l40.220474 0l0 28.251968l-40.220474 0z" fill-rule="nonzero"></path><path fill="#000000" d="m165.48756 52.765656q0.3125 0 0.5 -0.03125q0.1875 -0.046875 0.296875 -0.125q0.125 -0.09375 0.1875 -0.234375q0.078125 -0.15625 0.171875 -0.453125l0.546875 0l-0.109375 1.859375l-5.234375 0l0 -0.3125q0.28125 -0.65625 0.734375 -1.359375q0.46875 -0.703125 1.328125 -1.640625q0.734375 -0.8125 1.046875 -1.234375q0.359375 -0.453125 0.53125 -0.78125q0.1875 -0.34375 0.25 -0.640625q0.078125 -0.296875 0.078125 -0.59375q0 -0.46875 -0.15625 -0.828125q-0.140625 -0.375 -0.453125 -0.578125q-0.3125 -0.21875 -0.796875 -0.21875q-1.1875 0 -1.59375 1.328125l-0.765625 0l0 -1.21875q0.765625 -0.359375 1.421875 -0.515625q0.671875 -0.171875 1.21875 -0.171875q1.171875 0 1.765625 0.515625q0.609375 0.515625 0.609375 1.5q0 0.34375 -0.0625 0.625q-0.0625 0.28125 -0.203125 0.5625q-0.140625 0.265625 -0.390625 0.59375q-0.234375 0.3125 -0.53125 0.640625q-0.296875 0.328125 -1.015625 1.078125q-1.203125 1.28125 -1.765625 2.234375l2.390625 0z" fill-rule="nonzero"></path><path fill="#ffffff" d="m144.61417 63.112167l40.220474 0l0 28.251968l-40.220474 0z" fill-rule="nonzero"></path><path stroke="#cccccc" stroke-width="1.0" stroke-linejoin="round" stroke-linecap="butt" d="m144.61417 63.112167l40.220474 0l0 28.251968l-40.220474 0z" fill-rule="nonzero"></path><path fill="#000000" d="m162.05006 75.16315l0 -1.203125q0.734375 -0.34375 1.375 -0.515625q0.640625 -0.171875 1.234375 -0.171875q0.71875 0 1.25 0.21875q0.546875 0.21875 0.828125 0.640625q0.296875 0.421875 0.296875 1.0q0 0.53125 -0.21875 0.953125q-0.21875 0.40625 -0.609375 0.71875q-0.390625 0.296875 -1.015625 0.578125l0 0.0625q0.390625 0.0625 0.75 0.234375q0.359375 0.171875 0.640625 0.4375q0.28125 0.265625 0.4375 0.640625q0.171875 0.375 0.171875 0.84375q0 0.734375 -0.328125 1.3125q-0.3125 0.5625 -0.96875 0.90625q-0.65625 0.328125 -1.609375 0.328125q-0.546875 0 -1.1875 -0.125q-0.625 -0.125 -1.140625 -0.328125l0 -1.34375l0.75 0q0.21875 0.65625 0.578125 0.953125q0.375 0.296875 1.0 0.296875q0.828125 0 1.25 -0.453125q0.421875 -0.453125 0.421875 -1.328125q0 -0.9375 -0.5625 -1.421875q-0.546875 -0.484375 -1.625 -0.484375l-0.578125 0l0 -0.5625q0.859375 -0.046875 1.4375 -0.328125q0.59375 -0.28125 0.875 -0.71875q0.296875 -0.4375 0.296875 -0.984375q0 -0.703125 -0.375 -1.078125q-0.375 -0.390625 -1.09375 -0.390625q-0.59375 0 -0.96875 0.328125q-0.375 0.328125 -0.5625 0.984375l-0.75 0z" fill-rule="nonzero"></path><path fill="#ffffff" d="m144.61417 91.36903l40.220474 0l0 28.251968l-40.220474 0z" fill-rule="nonzero"></path><path stroke="#cccccc" stroke-width="1.0" stroke-linejoin="round" stroke-linecap="butt" d="m144.61417 91.36903l40.220474 0l0 28.251968l-40.220474 0z" fill-rule="nonzero"></path><path fill="#000000" d="m164.31569 109.98252q0.390625 -0.09375 0.515625 -0.21875q0.140625 -0.125 0.171875 -0.359375q0.046875 -0.234375 0.046875 -0.703125l0 -1.03125l-3.53125 0l0 -0.484375l3.71875 -5.59375l0.90625 0l0 5.453125l0.140625 0q0.359375 0 0.515625 -0.046875q0.15625 -0.0625 0.265625 -0.1875q0.109375 -0.140625 0.203125 -0.453125l0.46875 0l-0.0625 1.3125l-1.53125 0l0 1.03125q0 0.4375 0.03125 0.640625q0.03125 0.1875 0.09375 0.296875q0.0625 0.109375 0.1875 0.1875q0.140625 0.078125 0.4375 0.15625l0 0.3125l-2.578125 0l0 -0.3125zm-1.75 -2.9375l2.484375 0l0 -1.578125q0 -0.59375 0.015625 -1.328125q0.03125 -0.75 0.046875 -1.125l-0.0625 0l-2.484375 3.953125l0 0.078125z" fill-rule="nonzero"></path><path fill="#ffffff" d="m144.61417 119.62591l40.220474 0l0 28.25196l-40.220474 0z" fill-rule="nonzero"></path><path stroke="#cccccc" stroke-width="1.0" stroke-linejoin="round" stroke-linecap="butt" d="m144.61417 119.62591l40.220474 0l0 28.25196l-40.220474 0z" fill-rule="nonzero"></path><path fill="#000000" d="m161.98756 138.20815l0 -1.34375l0.765625 0q0.1875 0.640625 0.5625 0.953125q0.390625 0.296875 1.0 0.296875q0.84375 0 1.28125 -0.5q0.4375 -0.515625 0.4375 -1.53125q0 -0.671875 -0.234375 -1.109375q-0.234375 -0.4375 -0.625 -0.625q-0.375 -0.203125 -0.890625 -0.203125q-0.4375 0 -0.75 0.0625q-0.296875 0.046875 -0.65625 0.15625l-0.515625 -0.296875l0 -4.1875l3.5 0q0.21875 0 0.3125 -0.03125q0.09375 -0.03125 0.140625 -0.09375q0.0625 -0.078125 0.140625 -0.28125l0.5 0l-0.09375 1.46875l-3.65625 0l0 2.78125q0.328125 -0.140625 0.71875 -0.203125q0.390625 -0.078125 0.78125 -0.078125q0.75 0 1.328125 0.3125q0.59375 0.3125 0.90625 0.875q0.328125 0.5625 0.328125 1.3125q0 0.859375 -0.359375 1.46875q-0.359375 0.609375 -1.03125 0.9375q-0.671875 0.3125 -1.59375 0.3125q-1.09375 0 -2.296875 -0.453125z" fill-rule="nonzero"></path><path fill="#ffffff" d="m144.61417 147.88278l40.220474 0l0 28.251968l-40.220474 0z" fill-rule="nonzero"></path><path stroke="#cccccc" stroke-width="1.0" stroke-linejoin="round" stroke-linecap="butt" d="m144.61417 147.88278l40.220474 0l0 28.251968l-40.220474 0z" fill-rule="nonzero"></path><path fill="#000000" d="m166.81569 158.38689l0 0.3125q-0.96875 0 -1.734375 0.421875q-0.75 0.421875 -1.25 1.234375q-0.5 0.8125 -0.703125 1.921875l0.0625 0.03125q0.53125 -0.375 1.046875 -0.546875q0.515625 -0.1875 1.125 -0.1875q0.71875 0 1.21875 0.3125q0.515625 0.3125 0.765625 0.890625q0.25 0.5625 0.25 1.328125q0 0.8125 -0.328125 1.453125q-0.3125 0.625 -0.96875 1.0q-0.65625 0.359375 -1.640625 0.359375q-1.390625 0 -2.09375 -0.859375q-0.703125 -0.875 -0.703125 -2.5625q0 -1.125 0.34375 -2.109375q0.359375 -0.984375 1.015625 -1.71875q0.65625 -0.734375 1.515625 -1.15625q0.875 -0.421875 1.8125 -0.46875l0.265625 0.34375zm-1.890625 3.84375q-0.3125 0 -0.609375 0.078125q-0.28125 0.0625 -0.53125 0.203125q-0.25 0.125 -0.5 0.328125q-0.078125 0.078125 -0.109375 0.15625q-0.0625 0.125 -0.09375 0.296875q-0.015625 0.171875 -0.015625 0.59375q0 1.21875 0.40625 1.859375q0.40625 0.625 1.234375 0.625q0.484375 0 0.796875 -0.15625q0.328125 -0.171875 0.53125 -0.453125q0.203125 -0.296875 0.28125 -0.6875q0.09375 -0.390625 0.09375 -0.84375q0 -0.9375 -0.390625 -1.46875q-0.390625 -0.53125 -1.09375 -0.53125z" fill-rule="nonzero"></path><path fill="#ffffff" d="m144.61417 176.13965l40.220474 0l0 28.251968l-40.220474 0z" fill-rule="nonzero"></path><path stroke="#cccccc" stroke-width="1.0" stroke-linejoin="round" stroke-linecap="butt" d="m144.61417 176.13965l40.220474 0l0 28.251968l-40.220474 0z" fill-rule="nonzero"></path><path fill="#000000" d="m167.55006 186.70625l-3.703125 8.40625l-0.921875 0l0 -0.3125l3.421875 -7.25l0 -0.09375l-2.78125 0q-0.265625 0 -0.421875 0.046875q-0.15625 0.046875 -0.265625 0.140625q-0.09375 0.09375 -0.171875 0.234375q-0.0625 0.140625 -0.1875 0.578125l-0.546875 0l0.125 -2.0625l5.453125 0l0 0.3125z" fill-rule="nonzero"></path><path fill="#ffffff" d="m144.61417 204.39651l40.220474 0l0 28.251968l-40.220474 0z" fill-rule="nonzero"></path><path stroke="#cccccc" stroke-width="1.0" stroke-linejoin="round" stroke-linecap="butt" d="m144.61417 204.39651l40.220474 0l0 28.251968l-40.220474 0z" fill-rule="nonzero"></path><path fill="#000000" d="m166.06569 218.74437l0.015625 0.078125q0.703125 0.28125 1.078125 0.828125q0.375 0.53125 0.375 1.28125q0 0.75 -0.359375 1.3125q-0.359375 0.5625 -1.03125 0.875q-0.671875 0.3125 -1.578125 0.3125q-0.84375 0 -1.484375 -0.28125q-0.640625 -0.296875 -1.0 -0.828125q-0.34375 -0.546875 -0.34375 -1.28125q0 -0.5625 0.1875 -0.96875q0.1875 -0.40625 0.5 -0.65625q0.3125 -0.265625 0.78125 -0.484375l-0.015625 -0.078125q-1.359375 -0.59375 -1.359375 -2.03125q0 -0.65625 0.359375 -1.171875q0.359375 -0.515625 1.015625 -0.796875q0.671875 -0.296875 1.46875 -0.296875q0.921875 0 1.53125 0.265625q0.625 0.25 0.9375 0.734375q0.328125 0.484375 0.328125 1.15625q0 0.703125 -0.34375 1.21875q-0.34375 0.5 -1.0625 0.8125zm-3.046875 -1.984375q0 0.375 0.09375 0.71875q0.09375 0.328125 0.28125 0.5625q0.203125 0.234375 0.515625 0.390625q0.3125 0.140625 0.765625 0.140625q0.53125 0 0.890625 -0.203125q0.359375 -0.21875 0.53125 -0.609375q0.171875 -0.390625 0.171875 -0.921875q0 -0.5625 -0.203125 -0.953125q-0.203125 -0.40625 -0.578125 -0.59375q-0.359375 -0.203125 -0.828125 -0.203125q-0.796875 0 -1.21875 0.4375q-0.421875 0.4375 -0.421875 1.234375zm-0.0625 4.171875q0 0.40625 0.09375 0.765625q0.09375 0.359375 0.296875 0.625q0.203125 0.25 0.53125 0.40625q0.328125 0.15625 0.78125 0.15625q0.53125 0 0.890625 -0.203125q0.375 -0.21875 0.5625 -0.640625q0.203125 -0.421875 0.203125 -0.984375q0 -0.609375 -0.21875 -1.046875q-0.203125 -0.453125 -0.59375 -0.6875q-0.375 -0.234375 -0.875 -0.234375q-0.46875 0 -0.796875 0.15625q-0.3125 0.140625 -0.515625 0.390625q-0.1875 0.25 -0.28125 0.578125q-0.078125 0.328125 -0.078125 0.71875z" fill-rule="nonzero"></path><path fill="#ffffff" d="m144.61417 232.65338l40.220474 0l0 28.251984l-40.220474 0z" fill-rule="nonzero"></path><path stroke="#cccccc" stroke-width="1.0" stroke-linejoin="round" stroke-linecap="butt" d="m144.61417 232.65338l40.220474 0l0 28.251984l-40.220474 0z" fill-rule="nonzero"></path><path fill="#000000" d="m163.01881 251.32938l0 -0.3125q0.890625 0 1.53125 -0.390625q0.65625 -0.390625 1.046875 -1.15625q0.40625 -0.78125 0.546875 -2.03125l-0.0625 -0.03125q-0.546875 0.390625 -1.0625 0.578125q-0.515625 0.171875 -1.109375 0.171875q-0.71875 0 -1.234375 -0.3125q-0.5 -0.328125 -0.75 -0.890625q-0.25 -0.5625 -0.25 -1.328125q0 -0.578125 0.1875 -1.078125q0.1875 -0.515625 0.5625 -0.890625q0.375 -0.390625 0.9375 -0.609375q0.5625 -0.234375 1.3125 -0.234375q1.328125 0 2.015625 0.921875q0.703125 0.921875 0.703125 2.640625q0 1.578125 -0.515625 2.75q-0.5 1.15625 -1.4375 1.796875q-0.921875 0.640625 -2.15625 0.765625l-0.265625 -0.359375zm1.328125 -3.84375q0.234375 0 0.453125 -0.03125q0.21875 -0.046875 0.421875 -0.125q0.21875 -0.078125 0.421875 -0.203125q0.203125 -0.125 0.359375 -0.265625q0.046875 -0.0625 0.09375 -0.140625q0.046875 -0.078125 0.0625 -0.203125q0.03125 -0.140625 0.03125 -0.421875q0 -0.875 -0.171875 -1.484375q-0.171875 -0.625 -0.53125 -0.9375q-0.359375 -0.328125 -0.890625 -0.328125q-0.46875 0 -0.796875 0.171875q-0.328125 0.171875 -0.546875 0.46875q-0.203125 0.28125 -0.296875 0.671875q-0.09375 0.390625 -0.09375 0.84375q0 0.9375 0.390625 1.46875q0.390625 0.515625 1.09375 0.515625z" fill-rule="nonzero"></path><path fill="#ffffff" d="m144.61417 260.91025l40.220474 0l0 28.251984l-40.220474 0z" fill-rule="nonzero"></path><path stroke="#cccccc" stroke-width="1.0" stroke-linejoin="round" stroke-linecap="butt" d="m144.61417 260.91025l40.220474 0l0 28.251984l-40.220474 0z" fill-rule="nonzero"></path><path fill="#000000" d="m161.75073 278.18q0 0.375 0.046875 0.5625q0.046875 0.171875 0.140625 0.296875q0.109375 0.125 0.296875 0.1875q0.203125 0.0625 0.5 0.109375q0.296875 0.03125 0.796875 0.03125l0 0.46875l-4.703125 0l0 -0.46875q0.71875 -0.03125 1.015625 -0.078125q0.296875 -0.0625 0.453125 -0.15625q0.15625 -0.109375 0.234375 -0.3125q0.078125 -0.203125 0.078125 -0.640625l0 -5.15625q0 -0.25 -0.09375 -0.359375q-0.09375 -0.125 -0.265625 -0.125q-0.203125 0 -0.578125 0.21875q-0.359375 0.203125 -0.921875 0.578125l-0.28125 -0.5l2.96875 -1.765625l0.359375 0q-0.046875 0.609375 -0.046875 1.6875l0 5.421875zm6.5049286 1.765625q-1.375 0 -2.046875 -1.078125q-0.671875 -1.09375 -0.671875 -3.28125q0 -1.171875 0.203125 -2.015625q0.21875 -0.859375 0.578125 -1.40625q0.375 -0.5625 0.890625 -0.828125q0.53125 -0.265625 1.140625 -0.265625q1.390625 0 2.0625 1.078125q0.6875 1.0625 0.6875 3.234375q0 2.25 -0.734375 3.40625q-0.71875 1.15625 -2.109375 1.15625zm-1.46875 -4.546875q0 2.0625 0.375 3.03125q0.390625 0.96875 1.1875 0.96875q0.78125 0 1.140625 -0.90625q0.375 -0.921875 0.375 -2.828125q0 -1.453125 -0.1875 -2.359375q-0.1875 -0.90625 -0.53125 -1.296875q-0.34375 -0.40625 -0.828125 -0.40625q-0.4375 0 -0.734375 0.265625q-0.28125 0.265625 -0.46875 0.75q-0.1875 0.484375 -0.265625 1.1875q-0.0625 0.703125 -0.0625 1.59375z" fill-rule="nonzero"></path><path fill="#ffffff" d="m144.61417 289.16714l40.220474 0l0 28.251953l-40.220474 0z" fill-rule="nonzero"></path><path stroke="#cccccc" stroke-width="1.0" stroke-linejoin="round" stroke-linecap="butt" d="m144.61417 289.16714l40.220474 0l0 28.251953l-40.220474 0z" fill-rule="nonzero"></path><path fill="#000000" d="m161.75073 306.43686q0 0.375 0.046875 0.5625q0.046875 0.171875 0.140625 0.296875q0.109375 0.125 0.296875 0.1875q0.203125 0.0625 0.5 0.109375q0.296875 0.03125 0.796875 0.03125l0 0.46875l-4.703125 0l0 -0.46875q0.71875 -0.03125 1.015625 -0.078125q0.296875 -0.0625 0.453125 -0.15625q0.15625 -0.109375 0.234375 -0.3125q0.078125 -0.203125 0.078125 -0.640625l0 -5.15625q0 -0.25 -0.09375 -0.359375q-0.09375 -0.125 -0.265625 -0.125q-0.203125 0 -0.578125 0.21875q-0.359375 0.203125 -0.921875 0.578125l-0.28125 -0.5l2.96875 -1.765625l0.359375 0q-0.046875 0.609375 -0.046875 1.6875l0 5.421875zm7.3799286 0q0 0.375 0.046875 0.5625q0.046875 0.171875 0.140625 0.296875q0.109375 0.125 0.296875 0.1875q0.203125 0.0625 0.5 0.109375q0.296875 0.03125 0.796875 0.03125l0 0.46875l-4.703125 0l0 -0.46875q0.71875 -0.03125 1.015625 -0.078125q0.296875 -0.0625 0.453125 -0.15625q0.15625 -0.109375 0.234375 -0.3125q0.078125 -0.203125 0.078125 -0.640625l0 -5.15625q0 -0.25 -0.09375 -0.359375q-0.09375 -0.125 -0.265625 -0.125q-0.203125 0 -0.578125 0.21875q-0.359375 0.203125 -0.921875 0.578125l-0.28125 -0.5l2.96875 -1.765625l0.359375 0q-0.046875 0.609375 -0.046875 1.6875l0 5.421875z" fill-rule="nonzero"></path><path fill="#ffffff" d="m144.61417 317.424l40.220474 0l0 28.251953l-40.220474 0z" fill-rule="nonzero"></path><path stroke="#cccccc" stroke-width="1.0" stroke-linejoin="round" stroke-linecap="butt" d="m144.61417 317.424l40.220474 0l0 28.251953l-40.220474 0z" fill-rule="nonzero"></path><path fill="#000000" d="m161.75073 334.69373q0 0.375 0.046875 0.5625q0.046875 0.171875 0.140625 0.296875q0.109375 0.125 0.296875 0.1875q0.203125 0.0625 0.5 0.109375q0.296875 0.03125 0.796875 0.03125l0 0.46875l-4.703125 0l0 -0.46875q0.71875 -0.03125 1.015625 -0.078125q0.296875 -0.0625 0.453125 -0.15625q0.15625 -0.109375 0.234375 -0.3125q0.078125 -0.203125 0.078125 -0.640625l0 -5.15625q0 -0.25 -0.09375 -0.359375q-0.09375 -0.125 -0.265625 -0.125q-0.203125 0 -0.578125 0.21875q-0.359375 0.203125 -0.921875 0.578125l-0.28125 -0.5l2.96875 -1.765625l0.359375 0q-0.046875 0.609375 -0.046875 1.6875l0 5.421875zm7.4268036 0.640625q0.3125 0 0.5 -0.03125q0.1875 -0.046875 0.296875 -0.125q0.125 -0.09375 0.1875 -0.234375q0.078125 -0.15625 0.171875 -0.453125l0.546875 0l-0.109375 1.859375l-5.234375 0l0 -0.3125q0.28125 -0.65625 0.734375 -1.359375q0.46875 -0.703125 1.328125 -1.640625q0.734375 -0.8125 1.046875 -1.234375q0.359375 -0.453125 0.53125 -0.78125q0.1875 -0.34375 0.25 -0.640625q0.078125 -0.296875 0.078125 -0.59375q0 -0.46875 -0.15625 -0.828125q-0.140625 -0.375 -0.453125 -0.578125q-0.3125 -0.21875 -0.796875 -0.21875q-1.1875 0 -1.59375 1.328125l-0.765625 0l0 -1.21875q0.765625 -0.359375 1.421875 -0.515625q0.671875 -0.171875 1.21875 -0.171875q1.171875 0 1.765625 0.515625q0.609375 0.515625 0.609375 1.5q0 0.34375 -0.0625 0.625q-0.0625 0.28125 -0.203125 0.5625q-0.140625 0.265625 -0.390625 0.59375q-0.234375 0.3125 -0.53125 0.640625q-0.296875 0.328125 -1.015625 1.078125q-1.203125 1.28125 -1.765625 2.234375l2.390625 0z" fill-rule="nonzero"></path><path fill="#ffffff" d="m144.61417 345.68088l40.220474 0l0 28.251953l-40.220474 0z" fill-rule="nonzero"></path><path stroke="#cccccc" stroke-width="1.0" stroke-linejoin="round" stroke-linecap="butt" d="m144.61417 345.68088l40.220474 0l0 28.251953l-40.220474 0z" fill-rule="nonzero"></path><path fill="#000000" d="m161.75073 362.9506q0 0.375 0.046875 0.5625q0.046875 0.171875 0.140625 0.296875q0.109375 0.125 0.296875 0.1875q0.203125 0.0625 0.5 0.109375q0.296875 0.03125 0.796875 0.03125l0 0.46875l-4.703125 0l0 -0.46875q0.71875 -0.03125 1.015625 -0.078125q0.296875 -0.0625 0.453125 -0.15625q0.15625 -0.109375 0.234375 -0.3125q0.078125 -0.203125 0.078125 -0.640625l0 -5.15625q0 -0.25 -0.09375 -0.359375q-0.09375 -0.125 -0.265625 -0.125q-0.203125 0 -0.578125 0.21875q-0.359375 0.203125 -0.921875 0.578125l-0.28125 -0.5l2.96875 -1.765625l0.359375 0q-0.046875 0.609375 -0.046875 1.6875l0 5.421875zm3.9893036 -5.21875l0 -1.203125q0.734375 -0.34375 1.375 -0.515625q0.640625 -0.171875 1.234375 -0.171875q0.71875 0 1.25 0.21875q0.546875 0.21875 0.828125 0.640625q0.296875 0.421875 0.296875 1.0q0 0.53125 -0.21875 0.953125q-0.21875 0.40625 -0.609375 0.71875q-0.390625 0.296875 -1.015625 0.578125l0 0.0625q0.390625 0.0625 0.75 0.234375q0.359375 0.171875 0.640625 0.4375q0.28125 0.265625 0.4375 0.640625q0.171875 0.375 0.171875 0.84375q0 0.734375 -0.328125 1.3125q-0.3125 0.5625 -0.96875 0.90625q-0.65625 0.328125 -1.609375 0.328125q-0.546875 0 -1.1875 -0.125q-0.625 -0.125 -1.140625 -0.328125l0 -1.34375l0.75 0q0.21875 0.65625 0.578125 0.953125q0.375 0.296875 1.0 0.296875q0.828125 0 1.25 -0.453125q0.421875 -0.453125 0.421875 -1.328125q0 -0.9375 -0.5625 -1.421875q-0.546875 -0.484375 -1.625 -0.484375l-0.578125 0l0 -0.5625q0.859375 -0.046875 1.4375 -0.328125q0.59375 -0.28125 0.875 -0.71875q0.296875 -0.4375 0.296875 -0.984375q0 -0.703125 -0.375 -1.078125q-0.375 -0.390625 -1.09375 -0.390625q-0.59375 0 -0.96875 0.328125q-0.375 0.328125 -0.5625 0.984375l-0.75 0z" fill-rule="nonzero"></path><path fill="#ffffff" d="m144.61417 373.93774l40.220474 0l0 28.251953l-40.220474 0z" fill-rule="nonzero"></path><path stroke="#cccccc" stroke-width="1.0" stroke-linejoin="round" stroke-linecap="butt" d="m144.61417 373.93774l40.220474 0l0 28.251953l-40.220474 0z" fill-rule="nonzero"></path><path fill="#000000" d="m161.75073 391.2075q0 0.375 0.046875 0.5625q0.046875 0.171875 0.140625 0.296875q0.109375 0.125 0.296875 0.1875q0.203125 0.0625 0.5 0.109375q0.296875 0.03125 0.796875 0.03125l0 0.46875l-4.703125 0l0 -0.46875q0.71875 -0.03125 1.015625 -0.078125q0.296875 -0.0625 0.453125 -0.15625q0.15625 -0.109375 0.234375 -0.3125q0.078125 -0.203125 0.078125 -0.640625l0 -5.15625q0 -0.25 -0.09375 -0.359375q-0.09375 -0.125 -0.265625 -0.125q-0.203125 0 -0.578125 0.21875q-0.359375 0.203125 -0.921875 0.578125l-0.28125 -0.5l2.96875 -1.765625l0.359375 0q-0.046875 0.609375 -0.046875 1.6875l0 5.421875zm6.2549286 1.34375q0.390625 -0.09375 0.515625 -0.21875q0.140625 -0.125 0.171875 -0.359375q0.046875 -0.234375 0.046875 -0.703125l0 -1.03125l-3.53125 0l0 -0.484375l3.71875 -5.59375l0.90625 0l0 5.453125l0.140625 0q0.359375 0 0.515625 -0.046875q0.15625 -0.0625 0.265625 -0.1875q0.109375 -0.140625 0.203125 -0.453125l0.46875 0l-0.0625 1.3125l-1.53125 0l0 1.03125q0 0.4375 0.03125 0.640625q0.03125 0.1875 0.09375 0.296875q0.0625 0.109375 0.1875 0.1875q0.140625 0.078125 0.4375 0.15625l0 0.3125l-2.578125 0l0 -0.3125zm-1.75 -2.9375l2.484375 0l0 -1.578125q0 -0.59375 0.015625 -1.328125q0.03125 -0.75 0.046875 -1.125l-0.0625 0l-2.484375 3.953125l0 0.078125z" fill-rule="nonzero"></path><path fill="#ffffff" d="m144.61417 402.1946l40.220474 0l0 28.251984l-40.220474 0z" fill-rule="nonzero"></path><path stroke="#cccccc" stroke-width="1.0" stroke-linejoin="round" stroke-linecap="butt" d="m144.61417 402.1946l40.220474 0l0 28.251984l-40.220474 0z" fill-rule="nonzero"></path><path fill="#000000" d="m161.75073 419.46436q0 0.375 0.046875 0.5625q0.046875 0.171875 0.140625 0.296875q0.109375 0.125 0.296875 0.1875q0.203125 0.0625 0.5 0.109375q0.296875 0.03125 0.796875 0.03125l0 0.46875l-4.703125 0l0 -0.46875q0.71875 -0.03125 1.015625 -0.078125q0.296875 -0.0625 0.453125 -0.15625q0.15625 -0.109375 0.234375 -0.3125q0.078125 -0.203125 0.078125 -0.640625l0 -5.15625q0 -0.25 -0.09375 -0.359375q-0.09375 -0.125 -0.265625 -0.125q-0.203125 0 -0.578125 0.21875q-0.359375 0.203125 -0.921875 0.578125l-0.28125 -0.5l2.96875 -1.765625l0.359375 0q-0.046875 0.609375 -0.046875 1.6875l0 5.421875zm3.9268036 1.3125l0 -1.34375l0.765625 0q0.1875 0.640625 0.5625 0.953125q0.390625 0.296875 1.0 0.296875q0.84375 0 1.28125 -0.5q0.4375 -0.515625 0.4375 -1.53125q0 -0.671875 -0.234375 -1.109375q-0.234375 -0.4375 -0.625 -0.625q-0.375 -0.203125 -0.890625 -0.203125q-0.4375 0 -0.75 0.0625q-0.296875 0.046875 -0.65625 0.15625l-0.515625 -0.296875l0 -4.1875l3.5 0q0.21875 0 0.3125 -0.03125q0.09375 -0.03125 0.140625 -0.09375q0.0625 -0.078125 0.140625 -0.28125l0.5 0l-0.09375 1.46875l-3.65625 0l0 2.78125q0.328125 -0.140625 0.71875 -0.203125q0.390625 -0.078125 0.78125 -0.078125q0.75 0 1.328125 0.3125q0.59375 0.3125 0.90625 0.875q0.328125 0.5625 0.328125 1.3125q0 0.859375 -0.359375 1.46875q-0.359375 0.609375 -1.03125 0.9375q-0.671875 0.3125 -1.59375 0.3125q-1.09375 0 -2.296875 -0.453125z" fill-rule="nonzero"></path><path fill="#ffffff" d="m144.61417 430.45148l40.220474 0l0 28.251984l-40.220474 0z" fill-rule="nonzero"></path><path stroke="#cccccc" stroke-width="1.0" stroke-linejoin="round" stroke-linecap="butt" d="m144.61417 430.45148l40.220474 0l0 28.251984l-40.220474 0z" fill-rule="nonzero"></path><path fill="#000000" d="m161.75073 447.72122q0 0.375 0.046875 0.5625q0.046875 0.171875 0.140625 0.296875q0.109375 0.125 0.296875 0.1875q0.203125 0.0625 0.5 0.109375q0.296875 0.03125 0.796875 0.03125l0 0.46875l-4.703125 0l0 -0.46875q0.71875 -0.03125 1.015625 -0.078125q0.296875 -0.0625 0.453125 -0.15625q0.15625 -0.109375 0.234375 -0.3125q0.078125 -0.203125 0.078125 -0.640625l0 -5.15625q0 -0.25 -0.09375 -0.359375q-0.09375 -0.125 -0.265625 -0.125q-0.203125 0 -0.578125 0.21875q-0.359375 0.203125 -0.921875 0.578125l-0.28125 -0.5l2.96875 -1.765625l0.359375 0q-0.046875 0.609375 -0.046875 1.6875l0 5.421875zm8.754929 -6.765625l0 0.3125q-0.96875 0 -1.734375 0.421875q-0.75 0.421875 -1.25 1.234375q-0.5 0.8125 -0.703125 1.921875l0.0625 0.03125q0.53125 -0.375 1.046875 -0.546875q0.515625 -0.1875 1.125 -0.1875q0.71875 0 1.21875 0.3125q0.515625 0.3125 0.765625 0.890625q0.25 0.5625 0.25 1.328125q0 0.8125 -0.328125 1.453125q-0.3125 0.625 -0.96875 1.0q-0.65625 0.359375 -1.640625 0.359375q-1.390625 0 -2.09375 -0.859375q-0.703125 -0.875 -0.703125 -2.5625q0 -1.125 0.34375 -2.109375q0.359375 -0.984375 1.015625 -1.71875q0.65625 -0.734375 1.515625 -1.15625q0.875 -0.421875 1.8125 -0.46875l0.265625 0.34375zm-1.890625 3.84375q-0.3125 0 -0.609375 0.078125q-0.28125 0.0625 -0.53125 0.203125q-0.25 0.125 -0.5 0.328125q-0.078125 0.078125 -0.109375 0.15625q-0.0625 0.125 -0.09375 0.296875q-0.015625 0.171875 -0.015625 0.59375q0 1.21875 0.40625 1.859375q0.40625 0.625 1.234375 0.625q0.484375 0 0.796875 -0.15625q0.328125 -0.171875 0.53125 -0.453125q0.203125 -0.296875 0.28125 -0.6875q0.09375 -0.390625 0.09375 -0.84375q0 -0.9375 -0.390625 -1.46875q-0.390625 -0.53125 -1.09375 -0.53125z" fill-rule="nonzero"></path><path fill="#ffffff" d="m144.61417 458.70834l40.220474 0l0 28.251984l-40.220474 0z" fill-rule="nonzero"></path><path stroke="#cccccc" stroke-width="1.0" stroke-linejoin="round" stroke-linecap="butt" d="m144.61417 458.70834l40.220474 0l0 28.251984l-40.220474 0z" fill-rule="nonzero"></path><path fill="#000000" d="m161.75073 475.9781q0 0.375 0.046875 0.5625q0.046875 0.171875 0.140625 0.296875q0.109375 0.125 0.296875 0.1875q0.203125 0.0625 0.5 0.109375q0.296875 0.03125 0.796875 0.03125l0 0.46875l-4.703125 0l0 -0.46875q0.71875 -0.03125 1.015625 -0.078125q0.296875 -0.0625 0.453125 -0.15625q0.15625 -0.109375 0.234375 -0.3125q0.078125 -0.203125 0.078125 -0.640625l0 -5.15625q0 -0.25 -0.09375 -0.359375q-0.09375 -0.125 -0.265625 -0.125q-0.203125 0 -0.578125 0.21875q-0.359375 0.203125 -0.921875 0.578125l-0.28125 -0.5l2.96875 -1.765625l0.359375 0q-0.046875 0.609375 -0.046875 1.6875l0 5.421875zm9.489304 -6.703125l-3.703125 8.40625l-0.921875 0l0 -0.3125l3.421875 -7.25l0 -0.09375l-2.78125 0q-0.265625 0 -0.421875 0.046875q-0.15625 0.046875 -0.265625 0.140625q-0.09375 0.09375 -0.171875 0.234375q-0.0625 0.140625 -0.1875 0.578125l-0.546875 0l0.125 -2.0625l5.453125 0l0 0.3125z" fill-rule="nonzero"></path><path fill="#f3f3f3" d="m386.8609 136.12599l70.4252 0l0 221.76378l-70.4252 0z" fill-rule="nonzero"></path><path fill="#3d85c6" d="m400.937 147.16798l12.944885 0l0 28.283463l-12.944885 0z" fill-rule="nonzero"></path><path stroke="#00ffff" stroke-width="1.0" stroke-linejoin="round" stroke-linecap="butt" d="m400.937 147.16798l12.944885 0l0 28.283463l-12.944885 0z" fill-rule="nonzero"></path><path fill="#3d85c6" d="m400.937 175.45145l12.944885 0l0 28.283463l-12.944885 0z" fill-rule="nonzero"></path><path stroke="#00ffff" stroke-width="1.0" stroke-linejoin="round" stroke-linecap="butt" d="m400.937 175.45145l12.944885 0l0 28.283463l-12.944885 0z" fill-rule="nonzero"></path><path fill="#3d85c6" d="m400.937 203.73491l12.944885 0l0 28.283463l-12.944885 0z" fill-rule="nonzero"></path><path stroke="#00ffff" stroke-width="1.0" stroke-linejoin="round" stroke-linecap="butt" d="m400.937 203.73491l12.944885 0l0 28.283463l-12.944885 0z" fill-rule="nonzero"></path><path fill="#3d85c6" d="m400.937 232.01837l12.944885 0l0 28.283478l-12.944885 0z" fill-rule="nonzero"></path><path stroke="#00ffff" stroke-width="1.0" stroke-linejoin="round" stroke-linecap="butt" d="m400.937 232.01837l12.944885 0l0 28.283478l-12.944885 0z" fill-rule="nonzero"></path><path fill="#3d85c6" d="m400.937 260.30185l12.944885 0l0 28.283447l-12.944885 0z" fill-rule="nonzero"></path><path stroke="#00ffff" stroke-width="1.0" stroke-linejoin="round" stroke-linecap="butt" d="m400.937 260.30185l12.944885 0l0 28.283447l-12.944885 0z" fill-rule="nonzero"></path><path fill="#6aa84f" d="m415.9463 174.46982l12.944855 0l0 28.283463l-12.944855 0z" fill-rule="nonzero"></path><path stroke="#00ff00" stroke-width="1.0" stroke-linejoin="round" stroke-linecap="butt" d="m415.9463 174.46982l12.944855 0l0 28.283463l-12.944855 0z" fill-rule="nonzero"></path><path fill="#6aa84f" d="m415.9463 202.75328l12.944855 0l0 28.283463l-12.944855 0z" fill-rule="nonzero"></path><path stroke="#00ff00" stroke-width="1.0" stroke-linejoin="round" stroke-linecap="butt" d="m415.9463 202.75328l12.944855 0l0 28.283463l-12.944855 0z" fill-rule="nonzero"></path><path fill="#6aa84f" d="m415.9463 231.03674l12.944855 0l0 28.283478l-12.944855 0z" fill-rule="nonzero"></path><path stroke="#00ff00" stroke-width="1.0" stroke-linejoin="round" stroke-linecap="butt" d="m415.9463 231.03674l12.944855 0l0 28.283478l-12.944855 0z" fill-rule="nonzero"></path><path fill="#6aa84f" d="m415.9463 259.32022l12.944855 0l0 28.283447l-12.944855 0z" fill-rule="nonzero"></path><path stroke="#00ff00" stroke-width="1.0" stroke-linejoin="round" stroke-linecap="butt" d="m415.9463 259.32022l12.944855 0l0 28.283447l-12.944855 0z" fill-rule="nonzero"></path><path fill="#6aa84f" d="m415.9463 287.60367l12.944855 0l0 28.283478l-12.944855 0z" fill-rule="nonzero"></path><path stroke="#00ff00" stroke-width="1.0" stroke-linejoin="round" stroke-linecap="butt" d="m415.9463 287.60367l12.944855 0l0 28.283478l-12.944855 0z" fill-rule="nonzero"></path><path fill="#e69138" d="m432.09995 203.73491l12.944885 0l0 28.283463l-12.944885 0z" fill-rule="nonzero"></path><path stroke="#ff9900" stroke-width="1.0" stroke-linejoin="round" stroke-linecap="butt" d="m432.09995 203.73491l12.944885 0l0 28.283463l-12.944885 0z" fill-rule="nonzero"></path><path fill="#e69138" d="m432.09995 232.01837l12.944885 0l0 28.283478l-12.944885 0z" fill-rule="nonzero"></path><path stroke="#ff9900" stroke-width="1.0" stroke-linejoin="round" stroke-linecap="butt" d="m432.09995 232.01837l12.944885 0l0 28.283478l-12.944885 0z" fill-rule="nonzero"></path><path fill="#e69138" d="m432.09995 260.30185l12.944885 0l0 28.283447l-12.944885 0z" fill-rule="nonzero"></path><path stroke="#ff9900" stroke-width="1.0" stroke-linejoin="round" stroke-linecap="butt" d="m432.09995 260.30185l12.944885 0l0 28.283447l-12.944885 0z" fill-rule="nonzero"></path><path fill="#e69138" d="m432.09995 288.5853l12.944885 0l0 28.283478l-12.944885 0z" fill-rule="nonzero"></path><path stroke="#ff9900" stroke-width="1.0" stroke-linejoin="round" stroke-linecap="butt" d="m432.09995 288.5853l12.944885 0l0 28.283478l-12.944885 0z" fill-rule="nonzero"></path><path fill="#e69138" d="m432.09995 316.86877l12.944885 0l0 28.283447l-12.944885 0z" fill-rule="nonzero"></path><path stroke="#ff9900" stroke-width="1.0" stroke-linejoin="round" stroke-linecap="butt" d="m432.09995 316.86877l12.944885 0l0 28.283447l-12.944885 0z" fill-rule="nonzero"></path><path fill="#f3f3f3" d="m616.1312 186.77959l58.015747 0l0 119.086624l-58.015747 0z" fill-rule="nonzero"></path><path fill="#3d85c6" d="m630.7068 205.21518l28.283447 0l0 28.283463l-28.283447 0z" fill-rule="nonzero"></path><path stroke="#000000" stroke-width="1.0" stroke-linejoin="round" stroke-linecap="butt" d="m630.7068 205.21518l28.283447 0l0 28.283463l-28.283447 0z" fill-rule="nonzero"></path><path fill="#6aa84f" d="m630.707 232.1207l28.283447 0l0 28.283447l-28.283447 0z" fill-rule="nonzero"></path><path stroke="#000000" stroke-width="1.0" stroke-linejoin="round" stroke-linecap="butt" d="m630.707 232.1207l28.283447 0l0 28.283447l-28.283447 0z" fill-rule="nonzero"></path><path fill="#e69138" d="m630.70715 260.4049l28.283508 0l0 28.283447l-28.283508 0z" fill-rule="nonzero"></path><path stroke="#000000" stroke-width="1.0" stroke-linejoin="round" stroke-linecap="butt" d="m630.70715 260.4049l28.283508 0l0 28.283447l-28.283508 0z" fill-rule="nonzero"></path><path fill="#c9daf8" d="m6.4750657 227.08914l120.59843 0l0 39.748016l-120.59843 0z" fill-rule="nonzero"></path><path stroke="#4a86e8" stroke-width="1.0" stroke-linejoin="round" stroke-linecap="butt" d="m6.4750657 227.08914l120.59843 0l0 39.748016l-120.59843 0z" fill-rule="nonzero"></path><path fill="#000000" d="m52.33678 241.02727l0 2.265625l-1.0625 0q-0.1875 -0.890625 -0.59375 -1.296875q-0.40625 -0.421875 -1.0625 -0.421875q-1.234375 0 -1.875 1.1875q-0.625 1.171875 -0.625 3.5q0 2.171875 0.578125 3.28125q0.578125 1.109375 1.6875 1.109375q0.578125 0 0.9375 -0.1875q0.359375 -0.1875 0.5625 -0.5625q0.21875 -0.390625 0.375 -1.09375l1.078125 0l0 2.375q-0.859375 0.203125 -1.578125 0.296875q-0.703125 0.09375 -1.46875 0.09375q-1.625 0 -2.65625 -0.578125q-1.03125 -0.59375 -1.515625 -1.78125q-0.484375 -1.1875 -0.484375 -3.0q0 -1.6875 0.5625 -2.9375q0.578125 -1.265625 1.6875 -1.9375q1.125 -0.6875 2.6875 -0.6875q0.78125 0 1.421875 0.09375q0.640625 0.078125 1.34375 0.28125zm5.125 10.546875q-1.15625 0 -1.984375 -0.40625q-0.828125 -0.40625 -1.296875 -1.28125q-0.46875 -0.890625 -0.46875 -2.265625q0 -1.046875 0.28125 -1.8125q0.296875 -0.765625 0.8125 -1.265625q0.515625 -0.5 1.21875 -0.734375q0.71875 -0.234375 1.5625 -0.234375q1.890625 0 2.84375 1.0q0.96875 0.984375 0.96875 2.90625q0 1.359375 -0.484375 2.28125q-0.46875 0.921875 -1.359375 1.375q-0.875 0.4375 -2.09375 0.4375zm-1.375 -4.125q0 1.65625 0.359375 2.484375q0.375 0.828125 1.125 0.828125q0.421875 0 0.6875 -0.203125q0.28125 -0.21875 0.453125 -0.609375q0.171875 -0.40625 0.234375 -0.96875q0.078125 -0.5625 0.078125 -1.25q0 -1.6875 -0.375 -2.515625q-0.375 -0.828125 -1.09375 -0.828125q-0.53125 0 -0.859375 0.34375q-0.3125 0.328125 -0.46875 1.0q-0.140625 0.671875 -0.140625 1.71875zm15.187496 4.0l-3.796875 0l0 -0.515625q0.359375 -0.09375 0.5 -0.25q0.140625 -0.171875 0.1875 -0.453125q0.0625 -0.296875 0.0625 -1.03125l0 -2.09375q0 -0.546875 -0.03125 -0.90625q-0.015625 -0.359375 -0.078125 -0.578125q-0.046875 -0.234375 -0.140625 -0.375q-0.078125 -0.15625 -0.1875 -0.25q-0.109375 -0.109375 -0.25 -0.15625q-0.140625 -0.046875 -0.359375 -0.046875q-0.296875 0 -0.625 0.1875q-0.3125 0.1875 -0.53125 0.515625q-0.21875 0.3125 -0.21875 0.6875l0 3.0q0 0.75 0.046875 1.046875q0.046875 0.28125 0.1875 0.453125q0.140625 0.15625 0.515625 0.25l0 0.515625l-3.7812462 0l0 -0.515625q0.375 -0.109375 0.515625 -0.265625q0.15625 -0.171875 0.203125 -0.453125q0.046875 -0.28125 0.046875 -1.015625l0 -3.21875q0 -0.578125 -0.015625 -0.84375q-0.015625 -0.28125 -0.09375 -0.453125q-0.078125 -0.171875 -0.234375 -0.265625q-0.140625 -0.109375 -0.515625 -0.1875l0 -0.53125l2.1406212 -0.0625l0.984375 0l-0.125 1.125l0.09375 0.015625q0.484375 -0.421875 0.84375 -0.671875q0.375 -0.25 0.78125 -0.390625q0.40625 -0.140625 0.84375 -0.140625q0.640625 0 1.0625 0.1875q0.421875 0.171875 0.6875 0.53125q0.265625 0.34375 0.375 0.859375q0.109375 0.5 0.109375 1.171875l0 2.859375q0 0.34375 0.015625 0.65625q0.015625 0.296875 0.0625 0.484375q0.046875 0.171875 0.125 0.28125q0.078125 0.109375 0.21875 0.1875q0.15625 0.078125 0.375 0.140625l0 0.515625zm4.53125 -7.75l0 0.515625q-0.359375 0.0625 -0.53125 0.203125q-0.171875 0.140625 -0.171875 0.421875q0 0.375 0.203125 0.984375l1.125 3.40625l1.234375 -2.984375q0.15625 -0.375 0.234375 -0.65625q0.078125 -0.296875 0.078125 -0.5625q0 -0.328125 -0.1875 -0.546875q-0.1875 -0.21875 -0.53125 -0.265625l0 -0.515625l3.046875 0l0 0.515625q-0.234375 0.078125 -0.375 0.1875q-0.125 0.09375 -0.25 0.265625q-0.125 0.15625 -0.296875 0.484375q-0.171875 0.3125 -0.46875 0.96875l-2.4375 5.40625l-1.46875 0l-2.0625 -5.953125q-0.21875 -0.609375 -0.359375 -0.84375q-0.125 -0.234375 -0.28125 -0.34375q-0.15625 -0.125 -0.390625 -0.171875l0 -0.515625l3.890625 0zm11.8828125 -2.5l0 0.484375q-1.703125 0.03125 -2.765625 1.0625q-1.0625 1.015625 -1.421875 2.90625l0.078125 0.03125q0.609375 -0.421875 1.21875 -0.609375q0.625 -0.203125 1.359375 -0.203125q0.90625 0 1.546875 0.40625q0.640625 0.390625 0.96875 1.109375q0.328125 0.71875 0.328125 1.671875q0 1.03125 -0.4375 1.828125q-0.4375 0.796875 -1.34375 1.25q-0.90625 0.4375 -2.234375 0.4375q-1.203125 0 -2.078125 -0.484375q-0.875 -0.484375 -1.34375 -1.421875q-0.453125 -0.953125 -0.453125 -2.3125q0 -1.828125 0.765625 -3.296875q0.78125 -1.484375 2.1875 -2.375q1.421875 -0.90625 3.203125 -1.03125l0.421875 0.546875zm-2.453125 4.75q-0.375 0 -0.71875 0.125q-0.328125 0.109375 -0.59375 0.296875q-0.25 0.1875 -0.34375 0.3125q-0.09375 0.125 -0.140625 0.359375q-0.03125 0.21875 -0.03125 0.78125q0 1.4375 0.390625 2.15625q0.40625 0.71875 1.234375 0.71875q0.46875 0 0.78125 -0.171875q0.3125 -0.1875 0.5 -0.515625q0.203125 -0.328125 0.28125 -0.78125q0.09375 -0.453125 0.09375 -1.015625q0 -1.109375 -0.375 -1.6875q-0.359375 -0.578125 -1.078125 -0.578125z" fill-rule="nonzero"></path><path fill="#000000" fill-opacity="0.0" d="m127.073494 246.96315l17.543297 -0.18896484" fill-rule="nonzero"></path><path stroke="#000000" stroke-width="1.0" stroke-linejoin="round" stroke-linecap="butt" d="m127.073494 246.96315l11.543648 -0.12434387" fill-rule="evenodd"></path><path fill="#000000" stroke="#000000" stroke-width="1.0" stroke-linecap="butt" d="m138.63493 248.49045l4.52005 -1.700531l-4.5556335 -1.6027527z" fill-rule="evenodd"></path><path fill="#c9daf8" d="m247.13968 226.90509l120.59842 0l0 39.748047l-120.59842 0z" fill-rule="nonzero"></path><path stroke="#4a86e8" stroke-width="1.0" stroke-linejoin="round" stroke-linecap="butt" d="m247.13968 226.90509l120.59842 0l0 39.748047l-120.59842 0z" fill-rule="nonzero"></path><path fill="#000000" d="m283.7436 241.10884q-0.40625 0.125 -0.5625 0.265625q-0.140625 0.125 -0.203125 0.359375q-0.0625 0.234375 -0.0625 0.8125l0 6.765625q0 0.46875 0.046875 0.75q0.046875 0.28125 0.1875 0.421875q0.15625 0.140625 0.59375 0.265625l0 0.515625l-4.0 0l0 -0.515625q0.34375 -0.09375 0.46875 -0.15625q0.140625 -0.078125 0.203125 -0.1875q0.078125 -0.125 0.109375 -0.34375q0.046875 -0.234375 0.046875 -0.765625l0 -3.828125q0 -0.640625 0.015625 -1.5q0.03125 -0.859375 0.046875 -1.21875l-0.15625 0q-0.09375 0.3125 -0.203125 0.625q-0.109375 0.296875 -0.390625 1.0625l-2.09375 5.640625l-1.375 0l-2.203125 -6.328125q-0.203125 -0.546875 -0.34375 -1.078125l-0.140625 0q0.078125 1.296875 0.078125 3.046875l0 3.59375q0 0.578125 0.046875 0.8125q0.0625 0.21875 0.21875 0.375q0.171875 0.140625 0.578125 0.25l0 0.515625l-2.953125 0l0 -0.515625q0.28125 -0.078125 0.453125 -0.171875q0.171875 -0.09375 0.25 -0.25q0.09375 -0.15625 0.109375 -0.390625q0.015625 -0.25 0.015625 -0.625l0 -6.765625q0 -0.59375 -0.046875 -0.8125q-0.046875 -0.21875 -0.203125 -0.359375q-0.140625 -0.140625 -0.578125 -0.265625l0 -0.515625l3.875 0l2.171875 6.421875l2.34375 -6.421875l3.65625 0l0 0.515625zm6.0546875 9.125l-0.125 -0.03125q-0.640625 0.625 -1.25 0.90625q-0.59375 0.28125 -1.28125 0.28125q-0.671875 0 -1.171875 -0.25q-0.484375 -0.25 -0.75 -0.6875q-0.25 -0.4375 -0.25 -1.0q0 -1.15625 1.125 -1.8125q1.140625 -0.65625 3.4375 -0.828125l0 -0.75q0 -0.71875 -0.171875 -1.109375q-0.15625 -0.40625 -0.421875 -0.5625q-0.25 -0.15625 -0.609375 -0.15625q-0.359375 0 -0.625 0.125q-0.265625 0.125 -0.484375 0.46875q-0.203125 0.34375 -0.296875 0.96875l-1.484375 0l0 -1.421875q0.71875 -0.328125 1.1875 -0.5q0.484375 -0.171875 0.953125 -0.28125q0.46875 -0.109375 0.828125 -0.15625q0.375 -0.046875 0.734375 -0.046875q0.953125 0 1.515625 0.25q0.5625 0.25 0.84375 0.8125q0.28125 0.5625 0.28125 1.546875l0 3.046875q0 0.515625 0.015625 0.796875q0.03125 0.28125 0.078125 0.421875q0.0625 0.140625 0.140625 0.21875q0.078125 0.078125 0.1875 0.140625q0.109375 0.046875 0.421875 0.125l0 0.515625l-2.90625 0l0.078125 -1.03125zm-0.265625 -2.65625q-1.203125 0.03125 -1.796875 0.453125q-0.578125 0.421875 -0.578125 1.234375q0 0.484375 0.265625 0.734375q0.265625 0.25 0.734375 0.25q0.359375 0 0.671875 -0.1875q0.328125 -0.1875 0.515625 -0.5q0.1875 -0.328125 0.1875 -0.6875l0 -1.296875zm8.6875 -0.59375l1.828125 2.59375q0.265625 0.359375 0.453125 0.609375q0.203125 0.234375 0.390625 0.375q0.203125 0.125 0.421875 0.1875l0 0.515625l-3.796875 0l0 -0.515625q0.484375 -0.0625 0.484375 -0.40625q0 -0.09375 -0.03125 -0.171875q-0.015625 -0.09375 -0.0625 -0.171875q-0.046875 -0.078125 -0.1875 -0.28125l-0.890625 -1.265625l-0.8125 1.0q-0.265625 0.328125 -0.34375 0.484375q-0.0625 0.140625 -0.0625 0.328125q0 0.1875 0.140625 0.328125q0.140625 0.125 0.453125 0.15625l0 0.515625l-3.015625 0l0 -0.515625q0.34375 -0.078125 0.671875 -0.34375q0.34375 -0.28125 0.828125 -0.828125l1.640625 -1.859375l-1.84375 -2.59375q-0.171875 -0.25 -0.296875 -0.40625q-0.125 -0.15625 -0.265625 -0.296875q-0.125 -0.15625 -0.234375 -0.234375q-0.09375 -0.078125 -0.1875 -0.109375q-0.09375 -0.046875 -0.171875 -0.046875l0 -0.515625l3.78125 0l0 0.515625q-0.5 0.09375 -0.5 0.4375q0 0.125 0.0625 0.28125q0.078125 0.140625 0.234375 0.359375l0.8125 1.140625l0.796875 -0.984375q0.1875 -0.234375 0.25 -0.390625q0.078125 -0.171875 0.078125 -0.34375q0 -0.21875 -0.15625 -0.34375q-0.15625 -0.140625 -0.4375 -0.15625l0 -0.515625l2.984375 0l0 0.515625q-0.359375 0.078125 -0.65625 0.328125q-0.296875 0.25 -0.859375 0.921875l-1.5 1.703125zm7.265625 2.328125q0 0.515625 0.03125 0.734375q0.046875 0.203125 0.125 0.34375q0.09375 0.125 0.265625 0.21875q0.171875 0.078125 0.515625 0.140625l0 0.515625l-4.203125 0l0 -0.515625q0.296875 -0.078125 0.453125 -0.171875q0.171875 -0.09375 0.25 -0.25q0.09375 -0.15625 0.109375 -0.40625q0.03125 -0.25 0.03125 -0.625l0 -6.734375q0 -0.359375 -0.03125 -0.609375q-0.015625 -0.25 -0.09375 -0.40625q-0.078125 -0.15625 -0.25 -0.25q-0.171875 -0.109375 -0.46875 -0.1875l0 -0.515625l4.546875 0q1.96875 0 2.953125 0.71875q0.984375 0.703125 0.984375 2.171875q0 1.03125 -0.46875 1.796875q-0.453125 0.765625 -1.328125 1.171875q-0.875 0.390625 -2.1875 0.390625q-0.75 0 -1.234375 -0.03125l0 2.5zm0 -3.390625l0.671875 0q0.78125 0 1.234375 -0.21875q0.46875 -0.21875 0.6875 -0.703125q0.21875 -0.484375 0.21875 -1.3125q0 -0.8125 -0.21875 -1.28125q-0.21875 -0.484375 -0.65625 -0.6875q-0.421875 -0.203125 -1.09375 -0.203125q-0.546875 0 -0.84375 0.015625l0 4.390625zm10.2734375 5.46875q-1.15625 0 -1.984375 -0.40625q-0.828125 -0.40625 -1.296875 -1.28125q-0.46875 -0.890625 -0.46875 -2.265625q0 -1.046875 0.28125 -1.8125q0.296875 -0.765625 0.8125 -1.265625q0.515625 -0.5 1.21875 -0.734375q0.71875 -0.234375 1.5625 -0.234375q1.890625 0 2.84375 1.0q0.96875 0.984375 0.96875 2.90625q0 1.359375 -0.484375 2.28125q-0.46875 0.921875 -1.359375 1.375q-0.875 0.4375 -2.09375 0.4375zm-1.375 -4.125q0 1.65625 0.359375 2.484375q0.375 0.828125 1.125 0.828125q0.421875 0 0.6875 -0.203125q0.28125 -0.21875 0.453125 -0.609375q0.171875 -0.40625 0.234375 -0.96875q0.078125 -0.5625 0.078125 -1.25q0 -1.6875 -0.375 -2.515625q-0.375 -0.828125 -1.09375 -0.828125q-0.53125 0 -0.859375 0.34375q-0.3125 0.328125 -0.46875 1.0q-0.140625 0.671875 -0.140625 1.71875zm10.484375 4.125q-1.15625 0 -1.984375 -0.40625q-0.828125 -0.40625 -1.296875 -1.28125q-0.46875 -0.890625 -0.46875 -2.265625q0 -1.046875 0.28125 -1.8125q0.296875 -0.765625 0.8125 -1.265625q0.515625 -0.5 1.21875 -0.734375q0.71875 -0.234375 1.5625 -0.234375q1.890625 0 2.84375 1.0q0.96875 0.984375 0.96875 2.90625q0 1.359375 -0.484375 2.28125q-0.46875 0.921875 -1.359375 1.375q-0.875 0.4375 -2.09375 0.4375zm-1.375 -4.125q0 1.65625 0.359375 2.484375q0.375 0.828125 1.125 0.828125q0.421875 0 0.6875 -0.203125q0.28125 -0.21875 0.453125 -0.609375q0.171875 -0.40625 0.234375 -0.96875q0.078125 -0.5625 0.078125 -1.25q0 -1.6875 -0.375 -2.515625q-0.375 -0.828125 -1.09375 -0.828125q-0.53125 0 -0.859375 0.34375q-0.3125 0.328125 -0.46875 1.0q-0.140625 0.671875 -0.140625 1.71875zm9.609375 1.734375q0 0.75 0.046875 1.03125q0.046875 0.28125 0.1875 0.453125q0.15625 0.15625 0.546875 0.265625l0 0.515625l-3.828125 0l0 -0.515625q0.234375 -0.0625 0.359375 -0.125q0.140625 -0.078125 0.21875 -0.171875q0.078125 -0.109375 0.125 -0.25q0.0625 -0.15625 0.078125 -0.421875q0.015625 -0.28125 0.015625 -0.78125l0 -6.09375q0 -0.671875 -0.015625 -0.984375q-0.015625 -0.3125 -0.046875 -0.53125q-0.03125 -0.21875 -0.125 -0.34375q-0.078125 -0.125 -0.234375 -0.203125q-0.140625 -0.078125 -0.46875 -0.140625l0 -0.515625l2.171875 -0.109375l0.96875 0l0 8.921875zm8.7734375 -7.984375l0 0.484375q-1.703125 0.03125 -2.765625 1.0625q-1.0625 1.015625 -1.421875 2.90625l0.078125 0.03125q0.609375 -0.421875 1.21875 -0.609375q0.625 -0.203125 1.359375 -0.203125q0.90625 0 1.546875 0.40625q0.640625 0.390625 0.96875 1.109375q0.328125 0.71875 0.328125 1.671875q0 1.03125 -0.4375 1.828125q-0.4375 0.796875 -1.34375 1.25q-0.90625 0.4375 -2.234375 0.4375q-1.203125 0 -2.078125 -0.484375q-0.875 -0.484375 -1.34375 -1.421875q-0.453125 -0.953125 -0.453125 -2.3125q0 -1.828125 0.765625 -3.296875q0.78125 -1.484375 2.1875 -2.375q1.421875 -0.90625 3.203125 -1.03125l0.421875 0.546875zm-2.453125 4.75q-0.375 0 -0.71875 0.125q-0.328125 0.109375 -0.59375 0.296875q-0.25 0.1875 -0.34375 0.3125q-0.09375 0.125 -0.140625 0.359375q-0.03125 0.21875 -0.03125 0.78125q0 1.4375 0.390625 2.15625q0.40625 0.71875 1.234375 0.71875q0.46875 0 0.78125 -0.171875q0.3125 -0.1875 0.5 -0.515625q0.203125 -0.328125 0.28125 -0.78125q0.09375 -0.453125 0.09375 -1.015625q0 -1.109375 -0.375 -1.6875q-0.359375 -0.578125 -1.078125 -0.578125z" fill-rule="nonzero"></path><path fill="#000000" fill-opacity="0.0" d="m226.64792 247.00787l20.503937 -0.22047424" fill-rule="nonzero"></path><path stroke="#000000" stroke-width="1.0" stroke-linejoin="round" stroke-linecap="butt" d="m226.64792 247.00787l14.504288 -0.15596008" fill-rule="evenodd"></path><path fill="#000000" stroke="#000000" stroke-width="1.0" stroke-linecap="butt" d="m241.16997 248.50356l4.5200806 -1.7004395l-4.555603 -1.6028442z" fill-rule="evenodd"></path><path fill="#000000" fill-opacity="0.0" d="m367.7381 246.77911l19.118134 0.22047424" fill-rule="nonzero"></path><path stroke="#000000" stroke-width="1.0" stroke-linejoin="round" stroke-linecap="butt" d="m367.7381 246.77911l13.11853 0.1512909" fill-rule="evenodd"></path><path fill="#000000" stroke="#000000" stroke-width="1.0" stroke-linecap="butt" d="m380.83755 248.58203l4.5568542 -1.5993042l-4.518738 -1.703949z" fill-rule="evenodd"></path><path fill="#c9daf8" d="m476.41003 226.87468l120.59839 0l0 39.74803l-120.59839 0z" fill-rule="nonzero"></path><path stroke="#4a86e8" stroke-width="1.0" stroke-linejoin="round" stroke-linecap="butt" d="m476.41003 226.87468l120.59839 0l0 39.74803l-120.59839 0z" fill-rule="nonzero"></path><path fill="#000000" d="m510.97095 240.8128l0 2.265625l-1.0625 0q-0.1875 -0.890625 -0.59375 -1.296875q-0.40625 -0.421875 -1.0625 -0.421875q-1.234375 0 -1.875 1.1875q-0.625 1.171875 -0.625 3.5q0 2.171875 0.578125 3.28125q0.578125 1.109375 1.6875 1.109375q0.578125 0 0.9375 -0.1875q0.359375 -0.1875 0.5625 -0.5625q0.21875 -0.390625 0.375 -1.09375l1.078125 0l0 2.375q-0.859375 0.203125 -1.578125 0.296875q-0.703125 0.09375 -1.46875 0.09375q-1.625 0 -2.65625 -0.578125q-1.03125 -0.59375 -1.515625 -1.78125q-0.484375 -1.1875 -0.484375 -3.0q0 -1.6875 0.5625 -2.9375q0.578125 -1.265625 1.6875 -1.9375q1.125 -0.6875 2.6875 -0.6875q0.78125 0 1.421875 0.09375q0.640625 0.078125 1.34375 0.28125zm4.25 8.15625q0 0.75 0.046875 1.03125q0.046875 0.28125 0.1875 0.453125q0.15625 0.15625 0.546875 0.265625l0 0.515625l-3.828125 0l0 -0.515625q0.234375 -0.0625 0.359375 -0.125q0.140625 -0.078125 0.21875 -0.171875q0.078125 -0.109375 0.125 -0.25q0.0625 -0.15625 0.078125 -0.421875q0.015625 -0.28125 0.015625 -0.78125l0 -6.09375q0 -0.671875 -0.015625 -0.984375q-0.015625 -0.3125 -0.046875 -0.53125q-0.03125 -0.21875 -0.125 -0.34375q-0.078125 -0.125 -0.234375 -0.203125q-0.140625 -0.078125 -0.46875 -0.140625l0 -0.515625l2.171875 -0.109375l0.96875 0l0 8.921875zm6.6328125 1.234375l-0.125 -0.03125q-0.640625 0.625 -1.25 0.90625q-0.59375 0.28125 -1.28125 0.28125q-0.671875 0 -1.171875 -0.25q-0.484375 -0.25 -0.75 -0.6875q-0.25 -0.4375 -0.25 -1.0q0 -1.15625 1.125 -1.8125q1.140625 -0.65625 3.4375 -0.828125l0 -0.75q0 -0.71875 -0.171875 -1.109375q-0.15625 -0.40625 -0.421875 -0.5625q-0.25 -0.15625 -0.609375 -0.15625q-0.359375 0 -0.625 0.125q-0.265625 0.125 -0.484375 0.46875q-0.203125 0.34375 -0.296875 0.96875l-1.484375 0l0 -1.421875q0.71875 -0.328125 1.1875 -0.5q0.484375 -0.171875 0.953125 -0.28125q0.46875 -0.109375 0.828125 -0.15625q0.375 -0.046875 0.734375 -0.046875q0.953125 0 1.515625 0.25q0.5625 0.25 0.84375 0.8125q0.28125 0.5625 0.28125 1.546875l0 3.046875q0 0.515625 0.015625 0.796875q0.03125 0.28125 0.078125 0.421875q0.0625 0.140625 0.140625 0.21875q0.078125 0.078125 0.1875 0.140625q0.109375 0.046875 0.421875 0.125l0 0.515625l-2.90625 0l0.078125 -1.03125zm-0.265625 -2.65625q-1.203125 0.03125 -1.796875 0.453125q-0.578125 0.421875 -0.578125 1.234375q0 0.484375 0.265625 0.734375q0.265625 0.25 0.734375 0.25q0.359375 0 0.671875 -0.1875q0.328125 -0.1875 0.515625 -0.5q0.1875 -0.328125 0.1875 -0.6875l0 -1.296875zm5.21875 1.578125q0.1875 0.703125 0.59375 1.0625q0.40625 0.359375 1.078125 0.359375q0.59375 0 0.890625 -0.265625q0.296875 -0.265625 0.296875 -0.78125q0 -0.3125 -0.140625 -0.53125q-0.125 -0.234375 -0.453125 -0.4375q-0.3125 -0.21875 -1.078125 -0.546875q-0.421875 -0.1875 -0.8125 -0.40625q-0.375 -0.234375 -0.65625 -0.515625q-0.28125 -0.296875 -0.453125 -0.640625q-0.15625 -0.359375 -0.15625 -0.78125q0 -0.703125 0.40625 -1.21875q0.40625 -0.515625 1.15625 -0.78125q0.765625 -0.28125 1.734375 -0.28125q0.5625 0 1.109375 0.046875q0.546875 0.046875 1.421875 0.203125l0 1.8125l-1.03125 0q-0.1875 -0.5 -0.40625 -0.765625q-0.203125 -0.28125 -0.46875 -0.375q-0.25 -0.109375 -0.609375 -0.109375q-0.515625 0 -0.828125 0.234375q-0.296875 0.234375 -0.296875 0.65625q0 0.296875 0.109375 0.515625q0.109375 0.203125 0.390625 0.40625q0.28125 0.1875 1.078125 0.53125q0.734375 0.296875 1.1875 0.640625q0.46875 0.328125 0.703125 0.765625q0.25 0.421875 0.25 1.0q0 0.640625 -0.234375 1.09375q-0.234375 0.453125 -0.65625 0.75q-0.421875 0.296875 -1.015625 0.453125q-0.578125 0.140625 -1.296875 0.140625q-1.28125 0 -2.859375 -0.375l0 -1.859375l1.046875 0zm7.34375 0q0.1875 0.703125 0.59375 1.0625q0.40625 0.359375 1.078125 0.359375q0.59375 0 0.890625 -0.265625q0.296875 -0.265625 0.296875 -0.78125q0 -0.3125 -0.140625 -0.53125q-0.125 -0.234375 -0.453125 -0.4375q-0.3125 -0.21875 -1.078125 -0.546875q-0.421875 -0.1875 -0.8125 -0.40625q-0.375 -0.234375 -0.65625 -0.515625q-0.28125 -0.296875 -0.453125 -0.640625q-0.15625 -0.359375 -0.15625 -0.78125q0 -0.703125 0.40625 -1.21875q0.40625 -0.515625 1.15625 -0.78125q0.765625 -0.28125 1.734375 -0.28125q0.5625 0 1.109375 0.046875q0.546875 0.046875 1.421875 0.203125l0 1.8125l-1.03125 0q-0.1875 -0.5 -0.40625 -0.765625q-0.203125 -0.28125 -0.46875 -0.375q-0.25 -0.109375 -0.609375 -0.109375q-0.515625 0 -0.828125 0.234375q-0.296875 0.234375 -0.296875 0.65625q0 0.296875 0.109375 0.515625q0.109375 0.203125 0.390625 0.40625q0.28125 0.1875 1.078125 0.53125q0.734375 0.296875 1.1875 0.640625q0.46875 0.328125 0.703125 0.765625q0.25 0.421875 0.25 1.0q0 0.640625 -0.234375 1.09375q-0.234375 0.453125 -0.65625 0.75q-0.421875 0.296875 -1.015625 0.453125q-0.578125 0.140625 -1.296875 0.140625q-1.28125 0 -2.859375 -0.375l0 -1.859375l1.046875 0zm9.296875 -8.765625l0 1.921875l-2.140625 0l0 -1.921875l2.140625 0zm-2.96875 10.359375q0.375 -0.109375 0.515625 -0.265625q0.15625 -0.171875 0.203125 -0.453125q0.046875 -0.28125 0.046875 -1.015625l0 -3.640625q0 -0.375 -0.03125 -0.609375q-0.03125 -0.234375 -0.140625 -0.375q-0.09375 -0.140625 -0.265625 -0.21875q-0.15625 -0.078125 -0.421875 -0.125l0 -0.53125l2.140625 -0.0625l0.984375 0l0 5.546875q0 0.4375 0 0.6875q0.015625 0.234375 0.03125 0.359375q0.03125 0.125 0.078125 0.234375q0.046875 0.09375 0.109375 0.1875q0.078125 0.078125 0.203125 0.15625q0.140625 0.0625 0.359375 0.125l0 0.515625l-3.8125 0l0 -0.515625zm5.015625 0q0.375 -0.109375 0.515625 -0.234375q0.140625 -0.140625 0.203125 -0.375q0.0625 -0.25 0.0625 -0.84375l0 -4.8125l-0.953125 0l0 -0.53125q0.375 -0.0625 0.515625 -0.125q0.140625 -0.0625 0.234375 -0.171875q0.09375 -0.125 0.140625 -0.296875q0.0625 -0.1875 0.09375 -0.46875q0.125 -1.40625 1.03125 -2.125q0.921875 -0.71875 2.609375 -0.71875q0.671875 0 1.1875 0.109375l0 1.59375l-1.0625 0q-0.125 -0.4375 -0.296875 -0.640625q-0.15625 -0.203125 -0.40625 -0.203125q-0.34375 0 -0.53125 0.234375q-0.171875 0.21875 -0.234375 0.625q-0.0625 0.40625 -0.0625 1.15625l0 0.59375l1.5 0l0 0.96875l-1.5 0l0 4.8125q0 0.59375 0.0625 0.84375q0.0625 0.234375 0.21875 0.375q0.15625 0.140625 0.5625 0.234375l0 0.515625l-3.890625 0l0 -0.515625zm8.203125 -10.359375l0 1.921875l-2.140625 0l0 -1.921875l2.140625 0zm-2.96875 10.359375q0.375 -0.109375 0.515625 -0.265625q0.15625 -0.171875 0.203125 -0.453125q0.046875 -0.28125 0.046875 -1.015625l0 -3.640625q0 -0.375 -0.03125 -0.609375q-0.03125 -0.234375 -0.140625 -0.375q-0.09375 -0.140625 -0.265625 -0.21875q-0.15625 -0.078125 -0.421875 -0.125l0 -0.53125l2.140625 -0.0625l0.984375 0l0 5.546875q0 0.4375 0 0.6875q0.015625 0.234375 0.03125 0.359375q0.03125 0.125 0.078125 0.234375q0.046875 0.09375 0.109375 0.1875q0.078125 0.078125 0.203125 0.15625q0.140625 0.0625 0.359375 0.125l0 0.515625l-3.8125 0l0 -0.515625zm12.109375 -0.90625q-0.796875 0.84375 -1.578125 1.203125q-0.78125 0.34375 -1.796875 0.34375q-1.828125 0 -2.75 -1.0q-0.90625 -1.0 -0.90625 -2.953125q0 -1.265625 0.46875 -2.1875q0.46875 -0.921875 1.328125 -1.390625q0.875 -0.46875 2.03125 -0.46875q0.703125 0 1.234375 0.171875q0.546875 0.15625 0.921875 0.453125q0.390625 0.28125 0.640625 0.703125q0.296875 0.484375 0.4375 1.125q0.15625 0.640625 0.171875 1.5625l-4.953125 0q0 1.421875 0.5 2.09375q0.5 0.65625 1.515625 0.65625q0.59375 0 1.0625 -0.21875q0.484375 -0.21875 1.03125 -0.78125l0.640625 0.6875zm-2.109375 -3.28125q-0.03125 -1.1875 -0.3125 -1.765625q-0.28125 -0.59375 -0.90625 -0.59375q-0.609375 0 -0.96875 0.609375q-0.34375 0.609375 -0.421875 1.75l2.609375 0zm6.4453125 -1.9375l0.09375 0.03125q0.578125 -0.671875 1.171875 -0.96875q0.609375 -0.296875 1.3125 -0.296875q0.46875 0 1.0 0.09375l0 2.15625l-1.421875 0q-0.125 -0.453125 -0.34375 -0.6875q-0.21875 -0.25 -0.578125 -0.25q-0.171875 0 -0.375 0.109375q-0.203125 0.109375 -0.390625 0.296875q-0.171875 0.1875 -0.25 0.390625q-0.0625 0.203125 -0.09375 0.40625q-0.015625 0.203125 -0.015625 0.609375l0 2.484375q0 0.75 0.046875 1.046875q0.0625 0.296875 0.21875 0.46875q0.171875 0.15625 0.5625 0.234375l0 0.515625l-3.859375 0l0 -0.515625q0.375 -0.109375 0.515625 -0.265625q0.15625 -0.171875 0.203125 -0.453125q0.046875 -0.28125 0.046875 -1.015625l0 -3.21875q0 -0.578125 -0.015625 -0.84375q-0.015625 -0.28125 -0.09375 -0.453125q-0.078125 -0.171875 -0.234375 -0.265625q-0.140625 -0.109375 -0.515625 -0.1875l0 -0.53125l2.140625 -0.0625l0.984375 0l-0.109375 1.171875z" fill-rule="nonzero"></path><path fill="#000000" fill-opacity="0.0" d="m457.2861 247.00787l19.118103 -0.25196838" fill-rule="nonzero"></path><path stroke="#000000" stroke-width="1.0" stroke-linejoin="round" stroke-linecap="butt" d="m457.2861 247.00787l13.118622 -0.17289734" fill-rule="evenodd"></path><path fill="#000000" stroke="#000000" stroke-width="1.0" stroke-linecap="butt" d="m470.42648 248.48657l4.51593 -1.7113953l-4.5594482 -1.5917969z" fill-rule="evenodd"></path><path fill="#000000" fill-opacity="0.0" d="m597.0084 246.74869l19.118164 -0.44093323" fill-rule="nonzero"></path><path stroke="#000000" stroke-width="1.0" stroke-linejoin="round" stroke-linecap="butt" d="m597.0084 246.74869l13.119751 -0.30259705" fill-rule="evenodd"></path><path fill="#000000" stroke="#000000" stroke-width="1.0" stroke-linecap="butt" d="m610.16626 248.09738l4.4987793 -1.7559357l-4.574951 -1.5466461z" fill-rule="evenodd"></path></g></svg>

