<?xml version="1.0" standalone="yes"?>

<svg version="1.1" viewBox="0.0 0.0 582.0 472.0" fill="none" stroke="none" stroke-linecap="square" stroke-miterlimit="10" xmlns="http://www.w3.org/2000/svg" xmlns:xlink="http://www.w3.org/1999/xlink"><clipPath id="p.0"><path d="m0 0l582.0 0l0 472.0l-582.0 0l0 -472.0z" clip-rule="nonzero"></path></clipPath><g clip-path="url(#p.0)"><path fill="#000000" fill-opacity="0.0" d="m0 0l582.0 0l0 472.0l-582.0 0z" fill-rule="evenodd"></path><path fill="#f4cccc" d="m71.139175 284.64304l120.598434 0l0 85.763794l-120.598434 0z" fill-rule="evenodd"></path><path stroke="#ff0000" stroke-width="1.0" stroke-linejoin="round" stroke-linecap="butt" d="m71.139175 284.64304l120.598434 0l0 85.763794l-120.598434 0z" fill-rule="evenodd"></path><path fill="#000000" d="m125.53863 323.44495q0 0.28125 -0.03125 0.46875q-0.015625 0.1875 -0.078125 0.296875q-0.046875 0.109375 -0.109375 0.171875q-0.0625 0.046875 -0.140625 0.046875l-3.9375 0l0 3.234375l3.6875 0q0.09375 0 0.15625 0.046875q0.0625 0.046875 0.109375 0.15625q0.046875 0.109375 0.0625 0.296875q0.03125 0.1875 0.03125 0.46875q0 0.28125 -0.03125 0.46875q-0.015625 0.171875 -0.0625 0.296875q-0.046875 0.125 -0.109375 0.171875q-0.0625 0.046875 -0.15625 0.046875l-3.6875 0l0 4.46875q0 0.109375 -0.0625 0.1875q-0.046875 0.0625 -0.1875 0.125q-0.140625 0.046875 -0.375 0.078125q-0.234375 0.03125 -0.59375 0.03125q-0.34375 0 -0.59375 -0.03125q-0.234375 -0.03125 -0.375 -0.078125q-0.140625 -0.0625 -0.203125 -0.125q-0.046875 -0.078125 -0.046875 -0.1875l0 -10.875q0 -0.40625 0.203125 -0.578125q0.203125 -0.1875 0.515625 -0.1875l5.65625 0q0.078125 0 0.140625 0.046875q0.0625 0.046875 0.109375 0.171875q0.0625 0.109375 0.078125 0.3125q0.03125 0.1875 0.03125 0.46875zm10.12542 9.1875q0 0.21875 -0.015625 0.390625q-0.015625 0.15625 -0.046875 0.28125q-0.015625 0.109375 -0.0625 0.203125q-0.046875 0.078125 -0.15625 0.1875q-0.09375 0.09375 -0.390625 0.265625q-0.296875 0.171875 -0.71875 0.328125q-0.421875 0.140625 -0.96875 0.234375q-0.53125 0.109375 -1.15625 0.109375q-1.234375 0 -2.234375 -0.375q-1.0 -0.375 -1.703125 -1.125q-0.6874924 -0.765625 -1.0624924 -1.890625q-0.359375 -1.140625 -0.359375 -2.640625q0 -1.53125 0.40625 -2.71875q0.40625 -1.1875 1.1406174 -1.984375q0.734375 -0.8125 1.75 -1.234375q1.03125 -0.421875 2.265625 -0.421875q0.5 0 0.96875 0.09375q0.46875 0.078125 0.859375 0.21875q0.390625 0.125 0.703125 0.3125q0.3125 0.171875 0.4375 0.296875q0.125 0.125 0.171875 0.203125q0.046875 0.078125 0.078125 0.21875q0.03125 0.125 0.046875 0.3125q0.015625 0.171875 0.015625 0.421875q0 0.28125 -0.03125 0.484375q-0.015625 0.1875 -0.0625 0.3125q-0.046875 0.109375 -0.109375 0.171875q-0.0625 0.0625 -0.140625 0.0625q-0.140625 0 -0.359375 -0.15625q-0.203125 -0.171875 -0.546875 -0.375q-0.34375 -0.203125 -0.8125 -0.359375q-0.46875 -0.171875 -1.109375 -0.171875q-0.71875 0 -1.28125 0.296875q-0.5625 0.296875 -0.953125 0.84375q-0.390625 0.53125 -0.59375 1.3125q-0.203125 0.765625 -0.203125 1.734375q0 1.046875 0.203125 1.828125q0.21875 0.765625 0.625 1.28125q0.40625 0.5 0.96875 0.75q0.578125 0.234375 1.296875 0.234375q0.640625 0 1.109375 -0.15625q0.484375 -0.15625 0.8125 -0.328125q0.34375 -0.1875 0.5625 -0.328125q0.21875 -0.15625 0.34375 -0.15625q0.09375 0 0.140625 0.03125q0.0625 0.03125 0.09375 0.15625q0.046875 0.109375 0.0625 0.3125q0.015625 0.1875 0.015625 0.53125zm9.030945 0.890625q0 0.25 -0.03125 0.4375q-0.03125 0.171875 -0.09375 0.28125q-0.046875 0.109375 -0.109375 0.15625q-0.0625 0.046875 -0.140625 0.046875l-6.625 0q-0.078125 0 -0.140625 -0.046875q-0.0625 -0.046875 -0.125 -0.15625q-0.046875 -0.109375 -0.078125 -0.28125q-0.015625 -0.1875 -0.015625 -0.4375q0 -0.28125 0.015625 -0.453125q0.03125 -0.1875 0.078125 -0.296875q0.046875 -0.109375 0.109375 -0.15625q0.0625 -0.0625 0.15625 -0.0625l2.234375 0l0 -7.796875l-1.9375 1.0625q-0.203125 0.09375 -0.34375 0.125q-0.125 0.015625 -0.21875 -0.0625q-0.078125 -0.078125 -0.109375 -0.265625q-0.015625 -0.203125 -0.015625 -0.546875q0 -0.234375 0 -0.375q0.015625 -0.140625 0.046875 -0.234375q0.046875 -0.109375 0.109375 -0.171875q0.0625 -0.0625 0.171875 -0.140625l2.578125 -1.671875q0.046875 -0.03125 0.109375 -0.046875q0.078125 -0.03125 0.1875 -0.046875q0.109375 -0.015625 0.296875 -0.015625q0.1875 -0.015625 0.46875 -0.015625q0.359375 0 0.5625 0.015625q0.21875 0.015625 0.328125 0.046875q0.125 0.03125 0.15625 0.09375q0.03125 0.046875 0.03125 0.140625l0 9.90625l1.96875 0q0.078125 0 0.140625 0.0625q0.078125 0.046875 0.125 0.15625q0.0625 0.109375 0.078125 0.296875q0.03125 0.171875 0.03125 0.453125z" fill-rule="nonzero"></path><path fill="#000000" fill-opacity="0.0" d="m191.73761 327.52493l37.32283 0" fill-rule="evenodd"></path><path stroke="#000000" stroke-width="1.0" stroke-linejoin="round" stroke-linecap="butt" d="m191.7376 327.52493l31.32283 0" fill-rule="evenodd"></path><path fill="#000000" stroke="#000000" stroke-width="1.0" stroke-linecap="butt" d="m223.06042 329.17667l4.538101 -1.6517334l-4.538101 -1.6517334z" fill-rule="evenodd"></path><path fill="#f4cccc" d="m229.04884 284.64432l120.598434 0l0 85.76376l-120.598434 0z" fill-rule="evenodd"></path><path stroke="#ff0000" stroke-width="1.0" stroke-linejoin="round" stroke-linecap="butt" d="m229.04884 284.64432l120.598434 0l0 85.76376l-120.598434 0z" fill-rule="evenodd"></path><path fill="#000000" d="m283.44827 323.4462q0 0.28125 -0.03125 0.46875q-0.015625 0.1875 -0.078125 0.296875q-0.046875 0.109375 -0.109375 0.171875q-0.0625 0.046875 -0.140625 0.046875l-3.9375 0l0 3.234375l3.6875 0q0.09375 0 0.15625 0.046875q0.0625 0.046875 0.109375 0.15625q0.046875 0.109375 0.0625 0.296875q0.03125 0.1875 0.03125 0.46875q0 0.28125 -0.03125 0.46875q-0.015625 0.171875 -0.0625 0.296875q-0.046875 0.125 -0.109375 0.171875q-0.0625 0.046875 -0.15625 0.046875l-3.6875 0l0 4.46875q0 0.109375 -0.0625 0.1875q-0.046875 0.0625 -0.1875 0.125q-0.140625 0.046875 -0.375 0.078125q-0.234375 0.03125 -0.59375 0.03125q-0.34375 0 -0.59375 -0.03125q-0.234375 -0.03125 -0.375 -0.078125q-0.140625 -0.0625 -0.203125 -0.125q-0.046875 -0.078125 -0.046875 -0.1875l0 -10.875q0 -0.40625 0.203125 -0.578125q0.203125 -0.1875 0.515625 -0.1875l5.65625 0q0.078125 0 0.140625 0.046875q0.0625 0.046875 0.109375 0.171875q0.0625 0.109375 0.078125 0.3125q0.03125 0.1875 0.03125 0.46875zm10.125427 9.1875q0 0.21875 -0.015625 0.390625q-0.015625 0.15625 -0.046875 0.28125q-0.015625 0.109375 -0.0625 0.203125q-0.046875 0.078125 -0.15625 0.1875q-0.09375 0.09375 -0.390625 0.265625q-0.296875 0.171875 -0.71875 0.328125q-0.421875 0.140625 -0.96875 0.234375q-0.53125 0.109375 -1.15625 0.109375q-1.234375 0 -2.234375 -0.375q-1.0 -0.375 -1.703125 -1.125q-0.6875 -0.765625 -1.0625 -1.890625q-0.359375 -1.140625 -0.359375 -2.640625q0 -1.53125 0.40625 -2.71875q0.40625 -1.1875 1.140625 -1.984375q0.734375 -0.8125 1.75 -1.234375q1.03125 -0.421875 2.265625 -0.421875q0.5 0 0.96875 0.09375q0.46875 0.078125 0.859375 0.21875q0.390625 0.125 0.703125 0.3125q0.3125 0.171875 0.4375 0.296875q0.125 0.125 0.171875 0.203125q0.046875 0.078125 0.078125 0.21875q0.03125 0.125 0.046875 0.3125q0.015625 0.171875 0.015625 0.421875q0 0.28125 -0.03125 0.484375q-0.015625 0.1875 -0.0625 0.3125q-0.046875 0.109375 -0.109375 0.171875q-0.0625 0.0625 -0.140625 0.0625q-0.140625 0 -0.359375 -0.15625q-0.203125 -0.171875 -0.546875 -0.375q-0.34375 -0.203125 -0.8125 -0.359375q-0.46875 -0.171875 -1.109375 -0.171875q-0.71875 0 -1.28125 0.296875q-0.5625 0.296875 -0.953125 0.84375q-0.390625 0.53125 -0.59375 1.3125q-0.203125 0.765625 -0.203125 1.734375q0 1.046875 0.203125 1.828125q0.21875 0.765625 0.625 1.28125q0.40625 0.5 0.96875 0.75q0.578125 0.234375 1.296875 0.234375q0.640625 0 1.109375 -0.15625q0.484375 -0.15625 0.8125 -0.328125q0.34375 -0.1875 0.5625 -0.328125q0.21875 -0.15625 0.34375 -0.15625q0.09375 0 0.140625 0.03125q0.0625 0.03125 0.09375 0.15625q0.046875 0.109375 0.0625 0.3125q0.015625 0.1875 0.015625 0.53125zm9.14032 0.8125q0 0.28125 -0.03125 0.46875q-0.015625 0.1875 -0.0625 0.3125q-0.046875 0.109375 -0.125 0.171875q-0.078125 0.046875 -0.171875 0.046875l-6.890625 0q-0.21875 0 -0.375 -0.03125q-0.140625 -0.046875 -0.234375 -0.140625q-0.078125 -0.109375 -0.125 -0.3125q-0.046875 -0.21875 -0.046875 -0.53125q0 -0.3125 0.03125 -0.53125q0.03125 -0.21875 0.09375 -0.390625q0.078125 -0.171875 0.1875 -0.328125q0.125 -0.171875 0.3125 -0.359375l2.078125 -2.234375q0.625 -0.640625 1.0 -1.171875q0.390625 -0.53125 0.59375 -0.96875q0.21875 -0.453125 0.296875 -0.8125q0.078125 -0.375 0.078125 -0.71875q0 -0.296875 -0.109375 -0.5625q-0.09375 -0.28125 -0.28125 -0.484375q-0.1875 -0.203125 -0.484375 -0.3125q-0.28125 -0.125 -0.671875 -0.125q-0.546875 0 -0.96875 0.140625q-0.421875 0.140625 -0.75 0.3125q-0.3125 0.171875 -0.53125 0.3125q-0.203125 0.140625 -0.328125 0.140625q-0.078125 0 -0.140625 -0.046875q-0.0625 -0.0625 -0.109375 -0.1875q-0.03125 -0.140625 -0.046875 -0.359375q-0.015625 -0.21875 -0.015625 -0.53125q0 -0.21875 0 -0.359375q0.015625 -0.140625 0.046875 -0.25q0.03125 -0.109375 0.078125 -0.1875q0.046875 -0.078125 0.15625 -0.1875q0.125 -0.109375 0.421875 -0.28125q0.3125 -0.171875 0.765625 -0.328125q0.46875 -0.171875 1.015625 -0.28125q0.546875 -0.109375 1.140625 -0.109375q0.9375 0 1.625 0.234375q0.703125 0.234375 1.171875 0.65625q0.46875 0.421875 0.6875 1.015625q0.234375 0.578125 0.234375 1.234375q0 0.59375 -0.109375 1.15625q-0.109375 0.5625 -0.46875 1.21875q-0.359375 0.65625 -1.0 1.453125q-0.640625 0.78125 -1.6875 1.828125l-1.40625 1.453125l4.734375 0q0.09375 0 0.171875 0.0625q0.078125 0.046875 0.125 0.15625q0.0625 0.109375 0.09375 0.3125q0.03125 0.1875 0.03125 0.4375z" fill-rule="nonzero"></path><path fill="#fce5cd" d="m400.36752 40.157482l120.59842 0l0 85.76378l-120.59842 0z" fill-rule="evenodd"></path><path stroke="#ff9900" stroke-width="1.0" stroke-linejoin="round" stroke-linecap="butt" d="m400.36752 40.157482l120.59842 0l0 85.76378l-120.59842 0z" fill-rule="evenodd"></path><path fill="#000000" d="m443.5144 88.63374q0 0.078125 -0.03125 0.140625q-0.03125 0.0625 -0.15625 0.109375q-0.109375 0.03125 -0.34375 0.046875q-0.21875 0.015625 -0.609375 0.015625q-0.328125 0 -0.53125 -0.015625q-0.1875 -0.015625 -0.3125 -0.0625q-0.109375 -0.046875 -0.15625 -0.109375q-0.046875 -0.0625 -0.078125 -0.15625l-0.90625 -2.265625q-0.15625 -0.375 -0.3125 -0.671875q-0.15625 -0.296875 -0.359375 -0.5q-0.1875 -0.203125 -0.4375 -0.296875q-0.25 -0.109375 -0.578125 -0.109375l-0.640625 0l0 3.859375q0 0.078125 -0.046875 0.140625q-0.046875 0.0625 -0.171875 0.109375q-0.109375 0.03125 -0.3125 0.046875q-0.1875 0.03125 -0.5 0.03125q-0.296875 0 -0.5 -0.03125q-0.1875 -0.015625 -0.3125 -0.046875q-0.109375 -0.046875 -0.15625 -0.109375q-0.046875 -0.0625 -0.046875 -0.140625l0 -9.1875q0 -0.34375 0.171875 -0.484375q0.171875 -0.15625 0.4375 -0.15625l2.609375 0q0.40625 0 0.65625 0.015625q0.265625 0.015625 0.46875 0.03125q0.609375 0.09375 1.09375 0.3125q0.5 0.203125 0.828125 0.546875q0.34375 0.328125 0.515625 0.796875q0.1875 0.46875 0.1875 1.0625q0 0.515625 -0.125 0.9375q-0.125 0.40625 -0.375 0.734375q-0.25 0.328125 -0.625 0.578125q-0.359375 0.234375 -0.828125 0.390625q0.21875 0.109375 0.421875 0.265625q0.203125 0.15625 0.375 0.375q0.171875 0.21875 0.328125 0.515625q0.15625 0.28125 0.3125 0.640625l0.84375 1.984375q0.125 0.296875 0.15625 0.4375q0.046875 0.140625 0.046875 0.21875zm-2.65625 -6.859375q0 -0.5 -0.234375 -0.84375q-0.21875 -0.34375 -0.734375 -0.484375q-0.15625 -0.046875 -0.359375 -0.0625q-0.1875 -0.03125 -0.546875 -0.03125l-0.921875 0l0 2.875l1.046875 0q0.4375 0 0.765625 -0.109375q0.328125 -0.109375 0.546875 -0.296875q0.21875 -0.1875 0.328125 -0.453125q0.109375 -0.265625 0.109375 -0.59375zm11.0859375 3.296875q0 0.890625 -0.234375 1.625q-0.234375 0.734375 -0.71875 1.265625q-0.46875 0.53125 -1.1875 0.828125q-0.71875 0.296875 -1.671875 0.296875q-0.9375 0 -1.625 -0.265625q-0.6875 -0.265625 -1.140625 -0.75q-0.453125 -0.5 -0.671875 -1.21875q-0.21875 -0.71875 -0.21875 -1.640625q0 -0.890625 0.234375 -1.625q0.25 -0.734375 0.71875 -1.265625q0.484375 -0.53125 1.1875 -0.8125q0.71875 -0.296875 1.6875 -0.296875q0.9375 0 1.625 0.265625q0.6875 0.25 1.125 0.75q0.453125 0.484375 0.671875 1.203125q0.21875 0.71875 0.21875 1.640625zm-2.015625 0.078125q0 -0.515625 -0.09375 -0.9375q-0.078125 -0.4375 -0.28125 -0.75q-0.1875 -0.328125 -0.515625 -0.5q-0.3125 -0.1875 -0.8125 -0.1875q-0.4375 0 -0.765625 0.15625q-0.328125 0.15625 -0.546875 0.46875q-0.203125 0.3125 -0.3125 0.75q-0.09375 0.421875 -0.09375 0.984375q0 0.515625 0.078125 0.953125q0.09375 0.421875 0.28125 0.75q0.1875 0.3125 0.515625 0.5q0.328125 0.171875 0.8125 0.171875q0.453125 0 0.78125 -0.15625q0.328125 -0.171875 0.53125 -0.46875q0.21875 -0.3125 0.3125 -0.734375q0.109375 -0.4375 0.109375 -1.0zm5.7578125 3.46875q0 0.078125 -0.0625 0.140625q-0.046875 0.0625 -0.171875 0.109375q-0.109375 0.03125 -0.3125 0.046875q-0.1875 0.03125 -0.484375 0.03125q-0.296875 0 -0.5 -0.03125q-0.203125 -0.015625 -0.328125 -0.046875q-0.109375 -0.046875 -0.15625 -0.109375q-0.046875 -0.0625 -0.046875 -0.140625l0 -9.546875q0 -0.078125 0.046875 -0.140625q0.046875 -0.0625 0.171875 -0.09375q0.125 -0.046875 0.3125 -0.0625q0.203125 -0.03125 0.5 -0.03125q0.296875 0 0.484375 0.03125q0.203125 0.015625 0.3125 0.0625q0.125 0.03125 0.171875 0.09375q0.0625 0.0625 0.0625 0.140625l0 9.546875zm9.125 -6.765625q0 0.859375 -0.265625 1.515625q-0.265625 0.65625 -0.78125 1.109375q-0.5 0.4375 -1.25 0.671875q-0.734375 0.234375 -1.734375 0.234375l-0.84375 0l0 3.234375q0 0.078125 -0.046875 0.140625q-0.046875 0.0625 -0.171875 0.109375q-0.109375 0.03125 -0.3125 0.046875q-0.1875 0.03125 -0.5 0.03125q-0.296875 0 -0.5 -0.03125q-0.1875 -0.015625 -0.3125 -0.046875q-0.109375 -0.046875 -0.15625 -0.109375q-0.046875 -0.0625 -0.046875 -0.140625l0 -9.09375q0 -0.375 0.1875 -0.546875q0.1875 -0.1875 0.5 -0.1875l2.390625 0q0.359375 0 0.671875 0.03125q0.328125 0.015625 0.78125 0.109375q0.453125 0.09375 0.921875 0.34375q0.46875 0.234375 0.796875 0.609375q0.328125 0.359375 0.5 0.859375q0.171875 0.5 0.171875 1.109375zm-2.15625 0.15625q0 -0.53125 -0.1875 -0.875q-0.1875 -0.34375 -0.46875 -0.5q-0.265625 -0.171875 -0.5625 -0.21875q-0.296875 -0.046875 -0.625 -0.046875l-0.875 0l0 3.4375l0.921875 0q0.5 0 0.828125 -0.125q0.328125 -0.140625 0.53125 -0.375q0.21875 -0.25 0.328125 -0.578125q0.109375 -0.328125 0.109375 -0.71875zm10.671875 3.0625q0 0.890625 -0.234375 1.625q-0.234375 0.734375 -0.71875 1.265625q-0.46875 0.53125 -1.1875 0.828125q-0.71875 0.296875 -1.671875 0.296875q-0.9375 0 -1.625 -0.265625q-0.6875 -0.265625 -1.140625 -0.75q-0.453125 -0.5 -0.671875 -1.21875q-0.21875 -0.71875 -0.21875 -1.640625q0 -0.890625 0.234375 -1.625q0.25 -0.734375 0.71875 -1.265625q0.484375 -0.53125 1.1875 -0.8125q0.71875 -0.296875 1.6875 -0.296875q0.9375 0 1.625 0.265625q0.6875 0.25 1.125 0.75q0.453125 0.484375 0.671875 1.203125q0.21875 0.71875 0.21875 1.640625zm-2.015625 0.078125q0 -0.515625 -0.09375 -0.9375q-0.078125 -0.4375 -0.28125 -0.75q-0.1875 -0.328125 -0.515625 -0.5q-0.3125 -0.1875 -0.8125 -0.1875q-0.4375 0 -0.765625 0.15625q-0.328125 0.15625 -0.546875 0.46875q-0.203125 0.3125 -0.3125 0.75q-0.09375 0.421875 -0.09375 0.984375q0 0.515625 0.078125 0.953125q0.09375 0.421875 0.28125 0.75q0.1875 0.3125 0.515625 0.5q0.328125 0.171875 0.8125 0.171875q0.453125 0 0.78125 -0.15625q0.328125 -0.171875 0.53125 -0.46875q0.21875 -0.3125 0.3125 -0.734375q0.109375 -0.4375 0.109375 -1.0zm10.6171875 -0.078125q0 0.890625 -0.234375 1.625q-0.234375 0.734375 -0.71875 1.265625q-0.46875 0.53125 -1.1875 0.828125q-0.71875 0.296875 -1.671875 0.296875q-0.9375 0 -1.625 -0.265625q-0.6875 -0.265625 -1.140625 -0.75q-0.453125 -0.5 -0.671875 -1.21875q-0.21875 -0.71875 -0.21875 -1.640625q0 -0.890625 0.234375 -1.625q0.25 -0.734375 0.71875 -1.265625q0.484375 -0.53125 1.1875 -0.8125q0.71875 -0.296875 1.6875 -0.296875q0.9375 0 1.625 0.265625q0.6875 0.25 1.125 0.75q0.453125 0.484375 0.671875 1.203125q0.21875 0.71875 0.21875 1.640625zm-2.015625 0.078125q0 -0.515625 -0.09375 -0.9375q-0.078125 -0.4375 -0.28125 -0.75q-0.1875 -0.328125 -0.515625 -0.5q-0.3125 -0.1875 -0.8125 -0.1875q-0.4375 0 -0.765625 0.15625q-0.328125 0.15625 -0.546875 0.46875q-0.203125 0.3125 -0.3125 0.75q-0.09375 0.421875 -0.09375 0.984375q0 0.515625 0.078125 0.953125q0.09375 0.421875 0.28125 0.75q0.1875 0.3125 0.515625 0.5q0.328125 0.171875 0.8125 0.171875q0.453125 0 0.78125 -0.15625q0.328125 -0.171875 0.53125 -0.46875q0.21875 -0.3125 0.3125 -0.734375q0.109375 -0.4375 0.109375 -1.0zm5.5390625 3.484375q0 0.078125 -0.046875 0.140625q-0.046875 0.046875 -0.15625 0.09375q-0.109375 0.046875 -0.296875 0.0625q-0.1875 0.015625 -0.484375 0.015625q-0.28125 0 -0.46875 -0.015625q-0.1875 -0.015625 -0.3125 -0.0625q-0.109375 -0.046875 -0.15625 -0.09375q-0.046875 -0.0625 -0.046875 -0.140625l0 -10.28125q0 -0.078125 0.046875 -0.140625q0.046875 -0.0625 0.15625 -0.09375q0.125 -0.046875 0.3125 -0.0625q0.1875 -0.03125 0.46875 -0.03125q0.296875 0 0.484375 0.03125q0.1875 0.015625 0.296875 0.0625q0.109375 0.03125 0.15625 0.09375q0.046875 0.0625 0.046875 0.140625l0 10.28125z" fill-rule="nonzero"></path><path fill="#d9ead3" d="m93.106735 17.133858l193.84209 0c4.8828125E-4 0 9.460449E-4 1.9073486E-4 0.0012817383 5.264282E-4c3.3569336E-4 3.376007E-4 5.187988E-4 7.953644E-4 5.187988E-4 0.0012722015l-0.0018005371 109.84028c0 12.133118 -9.835846 21.968948 -21.968933 21.968948l-193.8421 0l0 0c-9.918213E-4 0 -0.0018005371 -8.087158E-4 -0.0018005371 -0.0018005371l0.0018005371 -109.84029l0 0c0 -12.133114 9.835831 -21.968945 21.96894 -21.968945z" fill-rule="evenodd"></path><path stroke="#274e13" stroke-width="1.0" stroke-linejoin="round" stroke-linecap="butt" d="m93.106735 17.133858l193.84209 0c4.8828125E-4 0 9.460449E-4 1.9073486E-4 0.0012817383 5.264282E-4c3.3569336E-4 3.376007E-4 5.187988E-4 7.953644E-4 5.187988E-4 0.0012722015l-0.0018005371 109.84028c0 12.133118 -9.835846 21.968948 -21.968933 21.968948l-193.8421 0l0 0c-9.918213E-4 0 -0.0018005371 -8.087158E-4 -0.0018005371 -0.0018005371l0.0018005371 -109.84029l0 0c0 -12.133114 9.835831 -21.968945 21.96894 -21.968945z" fill-rule="evenodd"></path><path fill="#000000" d="m128.34256 81.59999q0 1.015625 -0.328125 1.796875q-0.31249237 0.765625 -0.9218674 1.3125q-0.59375 0.53125 -1.46875 0.8125q-0.875 0.265625 -2.0625 0.265625l-1.0 0l0 3.84375q0 0.09375 -0.0625 0.171875q-0.0625 0.0625 -0.203125 0.109375q-0.140625 0.046875 -0.375 0.078125q-0.21875 0.03125 -0.578125 0.03125q-0.359375 0 -0.59375 -0.03125q-0.234375 -0.03125 -0.375 -0.078125q-0.140625 -0.046875 -0.203125 -0.109375q-0.046875 -0.078125 -0.046875 -0.171875l0 -10.8125q0 -0.421875 0.21875 -0.640625q0.234375 -0.21875 0.609375 -0.21875l2.828125 0q0.421875 0 0.796875 0.03125q0.390625 0.03125 0.921875 0.140625q0.546875 0.09375 1.09375 0.390625q0.5625 0.28125 0.953125 0.734375q0.390625 0.4375 0.5937424 1.03125q0.203125 0.578125 0.203125 1.3125zm-2.5468674 0.171875q0 -0.625 -0.234375 -1.03125q-0.21875 -0.40625 -0.546875 -0.59375q-0.328125 -0.203125 -0.6875 -0.25q-0.34375 -0.0625 -0.734375 -0.0625l-1.03125 0l0 4.078125l1.09375 0q0.578125 0 0.96875 -0.15625q0.40625 -0.15625 0.65625 -0.4375q0.25 -0.296875 0.375 -0.6875q0.140625 -0.390625 0.140625 -0.859375zm9.429344 0.359375q0 0.34375 -0.015625 0.5625q-0.015625 0.203125 -0.0625 0.328125q-0.03125 0.125 -0.09375 0.171875q-0.0625 0.046875 -0.15625 0.046875q-0.0625 0 -0.15625 -0.03125q-0.09375 -0.046875 -0.21875 -0.078125q-0.109375 -0.03125 -0.25 -0.0625q-0.140625 -0.046875 -0.3125 -0.046875q-0.1875 0 -0.390625 0.09375q-0.1875 0.078125 -0.40625 0.25q-0.203125 0.15625 -0.4375 0.4375q-0.21875 0.28125 -0.484375 0.6875l0 5.15625q0 0.09375 -0.0625 0.171875q-0.046875 0.0625 -0.1875 0.109375q-0.125 0.046875 -0.34375 0.0625q-0.21875 0.03125 -0.5625 0.03125q-0.34375 0 -0.578125 -0.03125q-0.21875 -0.015625 -0.359375 -0.0625q-0.125 -0.046875 -0.1875 -0.109375q-0.046875 -0.078125 -0.046875 -0.171875l0 -8.28125q0 -0.09375 0.046875 -0.15625q0.046875 -0.078125 0.15625 -0.125q0.125 -0.046875 0.3125 -0.0625q0.203125 -0.03125 0.484375 -0.03125q0.296875 0 0.484375 0.03125q0.203125 0.015625 0.3125 0.0625q0.109375 0.046875 0.140625 0.125q0.046875 0.0625 0.046875 0.15625l0 1.03125q0.328125 -0.46875 0.609375 -0.765625q0.296875 -0.296875 0.546875 -0.46875q0.265625 -0.1875 0.53125 -0.25q0.265625 -0.078125 0.515625 -0.078125q0.125 0 0.265625 0.015625q0.140625 0.015625 0.28125 0.046875q0.15625 0.03125 0.265625 0.078125q0.109375 0.046875 0.15625 0.09375q0.0625 0.046875 0.078125 0.109375q0.015625 0.046875 0.03125 0.140625q0.03125 0.09375 0.03125 0.296875q0.015625 0.1875 0.015625 0.515625zm8.959839 3.140625q0 0.421875 -0.1875 0.625q-0.1875 0.203125 -0.53125 0.203125l-5.03125 0q0 0.53125 0.125 0.96875q0.125 0.421875 0.390625 0.734375q0.28125 0.296875 0.703125 0.453125q0.4375 0.15625 1.046875 0.15625q0.609375 0 1.0625 -0.078125q0.46875 -0.09375 0.8125 -0.203125q0.34375 -0.109375 0.5625 -0.1875q0.21875 -0.09375 0.359375 -0.09375q0.078125 0 0.140625 0.03125q0.0625 0.03125 0.09375 0.109375q0.03125 0.078125 0.046875 0.234375q0.015625 0.15625 0.015625 0.390625q0 0.203125 -0.015625 0.34375q0 0.140625 -0.015625 0.25q-0.015625 0.09375 -0.0625 0.171875q-0.03125 0.0625 -0.09375 0.140625q-0.0625 0.0625 -0.328125 0.171875q-0.265625 0.109375 -0.6875 0.21875q-0.421875 0.109375 -0.96875 0.1875q-0.53125 0.078125 -1.140625 0.078125q-1.09375 0 -1.9375 -0.28125q-0.828125 -0.28125 -1.390625 -0.84375q-0.546875 -0.5625 -0.828125 -1.421875q-0.265625 -0.875 -0.265625 -2.03125q0 -1.109375 0.28125 -1.984375q0.296875 -0.890625 0.84375 -1.5q0.546875 -0.625 1.328125 -0.953125q0.78125 -0.328125 1.765625 -0.328125q1.046875 0 1.78125 0.3125q0.734375 0.3125 1.203125 0.859375q0.484375 0.53125 0.703125 1.28125q0.21875 0.734375 0.21875 1.609375l0 0.375zm-2.265625 -0.671875q0.03125 -0.984375 -0.390625 -1.546875q-0.421875 -0.5625 -1.296875 -0.5625q-0.453125 0 -0.78125 0.171875q-0.328125 0.15625 -0.546875 0.453125q-0.21875 0.28125 -0.34375 0.671875q-0.109375 0.375 -0.125 0.8125l3.484375 0zm11.6262665 -3.234375q0 0.046875 0 0.109375q0 0.0625 -0.015625 0.140625q-0.015625 0.078125 -0.046875 0.1875q-0.015625 0.09375 -0.046875 0.21875l-2.5 7.484375q-0.046875 0.171875 -0.125 0.265625q-0.078125 0.09375 -0.265625 0.15625q-0.171875 0.046875 -0.484375 0.0625q-0.3125 0.03125 -0.8125 0.03125q-0.484375 0 -0.796875 -0.03125q-0.3125 -0.015625 -0.484375 -0.078125q-0.171875 -0.0625 -0.265625 -0.15625q-0.078125 -0.09375 -0.109375 -0.25l-2.5 -7.484375q-0.046875 -0.1875 -0.078125 -0.328125q-0.03125 -0.15625 -0.046875 -0.21875q0 -0.0625 0 -0.109375q0 -0.09375 0.046875 -0.15625q0.0625 -0.078125 0.1875 -0.125q0.125 -0.046875 0.34375 -0.0625q0.234375 -0.03125 0.578125 -0.03125q0.390625 0 0.609375 0.03125q0.234375 0.015625 0.375 0.0625q0.140625 0.046875 0.1875 0.125q0.0625 0.078125 0.09375 0.1875l1.890625 6.078125l0.046875 0.234375l0.0625 -0.234375l1.84375 -6.078125q0.03125 -0.109375 0.09375 -0.1875q0.0625 -0.078125 0.1875 -0.125q0.140625 -0.046875 0.34375 -0.0625q0.21875 -0.03125 0.578125 -0.03125q0.34375 0 0.5625 0.03125q0.21875 0.015625 0.328125 0.0625q0.125 0.046875 0.171875 0.125q0.046875 0.0625 0.046875 0.15625zm3.5458527 8.28125q0 0.09375 -0.0625 0.171875q-0.046875 0.0625 -0.1875 0.109375q-0.125 0.046875 -0.34375 0.0625q-0.21875 0.03125 -0.5625 0.03125q-0.34375 0 -0.578125 -0.03125q-0.21875 -0.015625 -0.359375 -0.0625q-0.125 -0.046875 -0.1875 -0.109375q-0.046875 -0.078125 -0.046875 -0.171875l0 -8.265625q0 -0.09375 0.046875 -0.15625q0.0625 -0.0625 0.1875 -0.109375q0.140625 -0.0625 0.359375 -0.09375q0.234375 -0.03125 0.578125 -0.03125q0.34375 0 0.5625 0.03125q0.21875 0.03125 0.34375 0.09375q0.140625 0.046875 0.1875 0.109375q0.0625 0.0625 0.0625 0.15625l0 8.265625zm0.1875 -11.078125q0 0.703125 -0.296875 0.96875q-0.28125 0.265625 -1.0625 0.265625q-0.78125 0 -1.0625 -0.25q-0.265625 -0.265625 -0.265625 -0.9375q0 -0.703125 0.28125 -0.96875q0.28125 -0.28125 1.0625 -0.28125q0.78125 0 1.0625 0.265625q0.28125 0.265625 0.28125 0.9375zm10.425827 6.859375q0 1.046875 -0.28125 1.921875q-0.265625 0.875 -0.84375 1.515625q-0.5625 0.625 -1.421875 0.96875q-0.84375 0.34375 -1.984375 0.34375q-1.109375 0 -1.921875 -0.3125q-0.8125 -0.3125 -1.359375 -0.890625q-0.53125 -0.578125 -0.796875 -1.4375q-0.25 -0.859375 -0.25 -1.953125q0 -1.046875 0.28125 -1.921875q0.28125 -0.890625 0.84375 -1.515625q0.5625 -0.625 1.40625 -0.96875q0.859375 -0.34375 2.0 -0.34375q1.109375 0 1.921875 0.3125q0.828125 0.296875 1.359375 0.890625q0.53125 0.578125 0.78125 1.4375q0.265625 0.84375 0.265625 1.953125zm-2.390625 0.09375q0 -0.625 -0.109375 -1.140625q-0.09375 -0.515625 -0.328125 -0.890625q-0.234375 -0.375 -0.625 -0.59375q-0.375 -0.21875 -0.953125 -0.21875q-0.515625 0 -0.90625 0.203125q-0.390625 0.1875 -0.640625 0.5625q-0.25 0.359375 -0.375 0.875q-0.125 0.515625 -0.125 1.171875q0 0.609375 0.09375 1.125q0.109375 0.515625 0.328125 0.90625q0.234375 0.375 0.625 0.578125q0.390625 0.203125 0.953125 0.203125q0.53125 0 0.921875 -0.1875q0.390625 -0.1875 0.640625 -0.546875q0.25 -0.359375 0.375 -0.875q0.125 -0.515625 0.125 -1.171875zm11.904556 4.125q0 0.09375 -0.046875 0.171875q-0.046875 0.0625 -0.171875 0.109375q-0.109375 0.046875 -0.296875 0.0625q-0.1875 0.03125 -0.46875 0.03125q-0.3125 0 -0.5 -0.03125q-0.1875 -0.015625 -0.3125 -0.0625q-0.109375 -0.046875 -0.15625 -0.109375q-0.046875 -0.078125 -0.046875 -0.171875l0 -0.953125q-0.671875 0.734375 -1.390625 1.109375q-0.703125 0.375 -1.46875 0.375q-0.859375 0 -1.4375 -0.28125q-0.578125 -0.28125 -0.9375 -0.765625q-0.359375 -0.484375 -0.515625 -1.109375q-0.140625 -0.640625 -0.140625 -1.59375l0 -5.0625q0 -0.09375 0.046875 -0.15625q0.046875 -0.078125 0.1875 -0.125q0.140625 -0.046875 0.359375 -0.0625q0.234375 -0.03125 0.5625 -0.03125q0.34375 0 0.5625 0.03125q0.234375 0.015625 0.359375 0.0625q0.140625 0.046875 0.1875 0.125q0.0625 0.0625 0.0625 0.15625l0 4.671875q0 0.65625 0.078125 1.0q0.09375 0.34375 0.265625 0.59375q0.171875 0.234375 0.421875 0.375q0.265625 0.140625 0.625 0.140625q0.4375 0 0.890625 -0.328125q0.453125 -0.328125 0.96875 -0.953125l0 -5.5q0 -0.09375 0.046875 -0.15625q0.046875 -0.078125 0.171875 -0.125q0.140625 -0.046875 0.359375 -0.0625q0.234375 -0.03125 0.578125 -0.03125q0.34375 0 0.5625 0.03125q0.21875 0.015625 0.34375 0.0625q0.140625 0.046875 0.1875 0.125q0.0625 0.0625 0.0625 0.15625l0 8.28125zm7.9957123 -2.34375q0 0.703125 -0.265625 1.25q-0.265625 0.53125 -0.75 0.890625q-0.484375 0.359375 -1.140625 0.546875q-0.65625 0.1875 -1.421875 0.1875q-0.46875 0 -0.890625 -0.078125q-0.421875 -0.0625 -0.765625 -0.171875q-0.328125 -0.109375 -0.546875 -0.21875q-0.21875 -0.109375 -0.328125 -0.203125q-0.109375 -0.109375 -0.171875 -0.3125q-0.046875 -0.203125 -0.046875 -0.609375q0 -0.28125 0.015625 -0.4375q0.03125 -0.15625 0.0625 -0.25q0.03125 -0.109375 0.09375 -0.140625q0.0625 -0.03125 0.140625 -0.03125q0.09375 0 0.296875 0.125q0.203125 0.109375 0.5 0.25q0.296875 0.140625 0.6875 0.265625q0.390625 0.109375 0.90625 0.109375q0.3125 0 0.546875 -0.0625q0.25 -0.0625 0.421875 -0.1875q0.1875 -0.125 0.28125 -0.3125q0.09375 -0.1875 0.09375 -0.421875q0 -0.28125 -0.171875 -0.46875q-0.171875 -0.203125 -0.453125 -0.34375q-0.28125 -0.15625 -0.640625 -0.28125q-0.359375 -0.140625 -0.734375 -0.296875q-0.375 -0.15625 -0.734375 -0.359375q-0.34375 -0.203125 -0.640625 -0.5q-0.28125 -0.296875 -0.453125 -0.71875q-0.171875 -0.421875 -0.171875 -1.0q0 -0.59375 0.234375 -1.09375q0.234375 -0.5 0.671875 -0.84375q0.4375 -0.359375 1.0625 -0.546875q0.625 -0.203125 1.40625 -0.203125q0.390625 0 0.75 0.0625q0.375 0.046875 0.671875 0.140625q0.296875 0.078125 0.5 0.1875q0.203125 0.09375 0.28125 0.171875q0.09375 0.0625 0.125 0.125q0.046875 0.0625 0.0625 0.171875q0.015625 0.09375 0.03125 0.234375q0.015625 0.140625 0.015625 0.359375q0 0.25 -0.015625 0.40625q-0.015625 0.15625 -0.046875 0.25q-0.03125 0.09375 -0.09375 0.125q-0.046875 0.03125 -0.125 0.03125q-0.078125 0 -0.265625 -0.09375q-0.171875 -0.09375 -0.4375 -0.203125q-0.265625 -0.125 -0.609375 -0.21875q-0.34375 -0.09375 -0.796875 -0.09375q-0.3125 0 -0.546875 0.0625q-0.21875 0.0625 -0.375 0.1875q-0.140625 0.125 -0.21875 0.296875q-0.078125 0.15625 -0.078125 0.328125q0 0.296875 0.171875 0.5q0.1875 0.1875 0.46875 0.34375q0.28125 0.140625 0.640625 0.265625q0.375 0.125 0.75 0.28125q0.375 0.15625 0.734375 0.359375q0.375 0.203125 0.65625 0.5q0.296875 0.296875 0.46875 0.71875q0.1875 0.40625 0.1875 0.96875zm12.566406 1.640625q0 0.265625 -0.03125 0.46875q-0.015625 0.1875 -0.0625 0.3125q-0.046875 0.125 -0.125 0.1875q-0.0625 0.046875 -0.15625 0.046875l-5.5 0q-0.3125 0 -0.515625 -0.171875q-0.203125 -0.1875 -0.203125 -0.59375l0 -10.90625q0 -0.09375 0.046875 -0.15625q0.0625 -0.078125 0.203125 -0.125q0.140625 -0.046875 0.375 -0.078125q0.25 -0.03125 0.59375 -0.03125q0.359375 0 0.59375 0.03125q0.234375 0.03125 0.375 0.078125q0.140625 0.046875 0.1875 0.125q0.0625 0.0625 0.0625 0.15625l0 9.65625l3.78125 0q0.09375 0 0.15625 0.0625q0.078125 0.046875 0.125 0.171875q0.046875 0.109375 0.0625 0.296875q0.03125 0.1875 0.03125 0.46875zm8.201324 0.734375q0 0.125 -0.09375 0.203125q-0.09375 0.0625 -0.296875 0.09375q-0.1875 0.046875 -0.578125 0.046875q-0.421875 0 -0.609375 -0.046875q-0.1875 -0.03125 -0.265625 -0.09375q-0.078125 -0.078125 -0.078125 -0.203125l0 -0.671875q-0.515625 0.546875 -1.171875 0.859375q-0.65625 0.3125 -1.453125 0.3125q-0.65625 0 -1.21875 -0.171875q-0.546875 -0.171875 -0.953125 -0.515625q-0.390625 -0.34375 -0.625 -0.84375q-0.21875 -0.5 -0.21875 -1.171875q0 -0.71875 0.28125 -1.25q0.28125 -0.53125 0.84375 -0.875q0.5625 -0.359375 1.390625 -0.515625q0.84375 -0.171875 1.953125 -0.171875l0.796875 0l0 -0.5q0 -0.390625 -0.078125 -0.671875q-0.078125 -0.296875 -0.265625 -0.484375q-0.171875 -0.203125 -0.46875 -0.296875q-0.296875 -0.09375 -0.75 -0.09375q-0.578125 0 -1.046875 0.125q-0.453125 0.125 -0.8125 0.296875q-0.34375 0.15625 -0.59375 0.28125q-0.234375 0.125 -0.375 0.125q-0.109375 0 -0.1875 -0.0625q-0.078125 -0.0625 -0.125 -0.1875q-0.046875 -0.125 -0.078125 -0.296875q-0.03125 -0.171875 -0.03125 -0.390625q0 -0.28125 0.046875 -0.453125q0.046875 -0.171875 0.171875 -0.296875q0.140625 -0.140625 0.453125 -0.296875q0.328125 -0.171875 0.765625 -0.296875q0.4375 -0.140625 0.953125 -0.234375q0.515625 -0.09375 1.0625 -0.09375q0.96875 0 1.65625 0.203125q0.703125 0.1875 1.140625 0.578125q0.453125 0.390625 0.65625 1.015625q0.203125 0.625 0.203125 1.46875l0 5.578125zm-2.296875 -3.546875l-0.890625 0q-0.5625 0 -0.96875 0.078125q-0.390625 0.078125 -0.640625 0.25q-0.25 0.171875 -0.375 0.40625q-0.109375 0.234375 -0.109375 0.546875q0 0.515625 0.328125 0.8125q0.328125 0.296875 0.921875 0.296875q0.484375 0 0.890625 -0.25q0.421875 -0.25 0.84375 -0.734375l0 -1.40625zm9.256592 3.828125l-1.0 2.9375q-0.09375 0.21875 -0.46875 0.328125q-0.359375 0.109375 -1.078125 0.109375q-0.375 0 -0.59375 -0.046875q-0.21875 -0.03125 -0.328125 -0.109375q-0.109375 -0.0625 -0.125 -0.171875q-0.015625 -0.109375 0.0625 -0.265625l1.09375 -2.78125q-0.109375 -0.0625 -0.21875 -0.171875q-0.09375 -0.109375 -0.140625 -0.25l-2.84375 -7.609375q-0.125 -0.3125 -0.125 -0.484375q0 -0.171875 0.109375 -0.265625q0.109375 -0.109375 0.375 -0.140625q0.265625 -0.046875 0.703125 -0.046875q0.40625 0 0.625 0.015625q0.234375 0.015625 0.359375 0.078125q0.140625 0.046875 0.203125 0.171875q0.0625 0.109375 0.125 0.328125l1.953125 5.53125l0.03125 0l1.78125 -5.640625q0.046875 -0.25 0.140625 -0.328125q0.09375 -0.078125 0.296875 -0.109375q0.203125 -0.046875 0.703125 -0.046875q0.40625 0 0.671875 0.046875q0.265625 0.03125 0.390625 0.140625q0.125 0.09375 0.125 0.265625q0 0.171875 -0.078125 0.40625l-2.75 8.109375zm11.679962 -4.6875q0 0.421875 -0.1875 0.625q-0.1875 0.203125 -0.53125 0.203125l-5.03125 0q0 0.53125 0.125 0.96875q0.125 0.421875 0.390625 0.734375q0.28125 0.296875 0.703125 0.453125q0.4375 0.15625 1.046875 0.15625q0.609375 0 1.0625 -0.078125q0.46875 -0.09375 0.8125 -0.203125q0.34375 -0.109375 0.5625 -0.1875q0.21875 -0.09375 0.359375 -0.09375q0.078125 0 0.140625 0.03125q0.0625 0.03125 0.09375 0.109375q0.03125 0.078125 0.046875 0.234375q0.015625 0.15625 0.015625 0.390625q0 0.203125 -0.015625 0.34375q0 0.140625 -0.015625 0.25q-0.015625 0.09375 -0.0625 0.171875q-0.03125 0.0625 -0.09375 0.140625q-0.0625 0.0625 -0.328125 0.171875q-0.265625 0.109375 -0.6875 0.21875q-0.421875 0.109375 -0.96875 0.1875q-0.53125 0.078125 -1.140625 0.078125q-1.09375 0 -1.9375 -0.28125q-0.828125 -0.28125 -1.390625 -0.84375q-0.546875 -0.5625 -0.828125 -1.421875q-0.265625 -0.875 -0.265625 -2.03125q0 -1.109375 0.28125 -1.984375q0.296875 -0.890625 0.84375 -1.5q0.546875 -0.625 1.328125 -0.953125q0.78125 -0.328125 1.765625 -0.328125q1.046875 0 1.78125 0.3125q0.734375 0.3125 1.203125 0.859375q0.484375 0.53125 0.703125 1.28125q0.21875 0.734375 0.21875 1.609375l0 0.375zm-2.265625 -0.671875q0.03125 -0.984375 -0.390625 -1.546875q-0.421875 -0.5625 -1.296875 -0.5625q-0.453125 0 -0.78125 0.171875q-0.328125 0.15625 -0.546875 0.453125q-0.21875 0.28125 -0.34375 0.671875q-0.109375 0.375 -0.125 0.8125l3.484375 0zm9.329376 -2.46875q0 0.34375 -0.015625 0.5625q-0.015625 0.203125 -0.0625 0.328125q-0.03125 0.125 -0.09375 0.171875q-0.0625 0.046875 -0.15625 0.046875q-0.0625 0 -0.15625 -0.03125q-0.09375 -0.046875 -0.21875 -0.078125q-0.109375 -0.03125 -0.25 -0.0625q-0.140625 -0.046875 -0.3125 -0.046875q-0.1875 0 -0.390625 0.09375q-0.1875 0.078125 -0.40625 0.25q-0.203125 0.15625 -0.4375 0.4375q-0.21875 0.28125 -0.484375 0.6875l0 5.15625q0 0.09375 -0.0625 0.171875q-0.046875 0.0625 -0.1875 0.109375q-0.125 0.046875 -0.34375 0.0625q-0.21875 0.03125 -0.5625 0.03125q-0.34375 0 -0.578125 -0.03125q-0.21875 -0.015625 -0.359375 -0.0625q-0.125 -0.046875 -0.1875 -0.109375q-0.046875 -0.078125 -0.046875 -0.171875l0 -8.28125q0 -0.09375 0.046875 -0.15625q0.046875 -0.078125 0.15625 -0.125q0.125 -0.046875 0.3125 -0.0625q0.203125 -0.03125 0.484375 -0.03125q0.296875 0 0.484375 0.03125q0.203125 0.015625 0.3125 0.0625q0.109375 0.046875 0.140625 0.125q0.046875 0.0625 0.046875 0.15625l0 1.03125q0.328125 -0.46875 0.609375 -0.765625q0.296875 -0.296875 0.546875 -0.46875q0.265625 -0.1875 0.53125 -0.25q0.265625 -0.078125 0.515625 -0.078125q0.125 0 0.265625 0.015625q0.140625 0.015625 0.28125 0.046875q0.15625 0.03125 0.265625 0.078125q0.109375 0.046875 0.15625 0.09375q0.0625 0.046875 0.078125 0.109375q0.015625 0.046875 0.03125 0.140625q0.03125 0.09375 0.03125 0.296875q0.015625 0.1875 0.015625 0.515625zm7.147339 5.171875q0 0.703125 -0.265625 1.25q-0.265625 0.53125 -0.75 0.890625q-0.484375 0.359375 -1.140625 0.546875q-0.65625 0.1875 -1.421875 0.1875q-0.46875 0 -0.890625 -0.078125q-0.421875 -0.0625 -0.765625 -0.171875q-0.328125 -0.109375 -0.546875 -0.21875q-0.21875 -0.109375 -0.328125 -0.203125q-0.109375 -0.109375 -0.171875 -0.3125q-0.046875 -0.203125 -0.046875 -0.609375q0 -0.28125 0.015625 -0.4375q0.03125 -0.15625 0.0625 -0.25q0.03125 -0.109375 0.09375 -0.140625q0.0625 -0.03125 0.140625 -0.03125q0.09375 0 0.296875 0.125q0.203125 0.109375 0.5 0.25q0.296875 0.140625 0.6875 0.265625q0.390625 0.109375 0.90625 0.109375q0.3125 0 0.546875 -0.0625q0.25 -0.0625 0.421875 -0.1875q0.1875 -0.125 0.28125 -0.3125q0.09375 -0.1875 0.09375 -0.421875q0 -0.28125 -0.171875 -0.46875q-0.171875 -0.203125 -0.453125 -0.34375q-0.28125 -0.15625 -0.640625 -0.28125q-0.359375 -0.140625 -0.734375 -0.296875q-0.375 -0.15625 -0.734375 -0.359375q-0.34375 -0.203125 -0.640625 -0.5q-0.28125 -0.296875 -0.453125 -0.71875q-0.171875 -0.421875 -0.171875 -1.0q0 -0.59375 0.234375 -1.09375q0.234375 -0.5 0.671875 -0.84375q0.4375 -0.359375 1.0625 -0.546875q0.625 -0.203125 1.40625 -0.203125q0.390625 0 0.75 0.0625q0.375 0.046875 0.671875 0.140625q0.296875 0.078125 0.5 0.1875q0.203125 0.09375 0.28125 0.171875q0.09375 0.0625 0.125 0.125q0.046875 0.0625 0.0625 0.171875q0.015625 0.09375 0.03125 0.234375q0.015625 0.140625 0.015625 0.359375q0 0.25 -0.015625 0.40625q-0.015625 0.15625 -0.046875 0.25q-0.03125 0.09375 -0.09375 0.125q-0.046875 0.03125 -0.125 0.03125q-0.078125 0 -0.265625 -0.09375q-0.171875 -0.09375 -0.4375 -0.203125q-0.265625 -0.125 -0.609375 -0.21875q-0.34375 -0.09375 -0.796875 -0.09375q-0.3125 0 -0.546875 0.0625q-0.21875 0.0625 -0.375 0.1875q-0.140625 0.125 -0.21875 0.296875q-0.078125 0.15625 -0.078125 0.328125q0 0.296875 0.171875 0.5q0.1875 0.1875 0.46875 0.34375q0.28125 0.140625 0.640625 0.265625q0.375 0.125 0.75 0.28125q0.375 0.15625 0.734375 0.359375q0.375 0.203125 0.65625 0.5q0.296875 0.296875 0.46875 0.71875q0.1875 0.40625 0.1875 0.96875z" fill-rule="nonzero"></path><path fill="#f4cccc" d="m382.66537 223.92651l155.99997 0l0 85.76376l-155.99997 0z" fill-rule="evenodd"></path><path stroke="#ff0000" stroke-width="1.0" stroke-linejoin="round" stroke-linecap="butt" d="m382.66537 223.92651l155.99997 0l0 85.76376l-155.99997 0z" fill-rule="evenodd"></path><path fill="#000000" d="m459.49344 251.7284q0 0.28125 -0.03125 0.46875q-0.015625 0.1875 -0.078125 0.296875q-0.046875 0.109375 -0.109375 0.171875q-0.0625 0.046875 -0.140625 0.046875l-3.9375 0l0 3.234375l3.6875 0q0.09375 0 0.15625 0.046875q0.0625 0.046875 0.109375 0.15625q0.046875 0.109375 0.0625 0.296875q0.03125 0.1875 0.03125 0.46875q0 0.28125 -0.03125 0.46875q-0.015625 0.171875 -0.0625 0.296875q-0.046875 0.125 -0.109375 0.171875q-0.0625 0.046875 -0.15625 0.046875l-3.6875 0l0 4.46875q0 0.109375 -0.0625 0.1875q-0.046875 0.0625 -0.1875 0.125q-0.140625 0.046875 -0.375 0.078125q-0.234375 0.03125 -0.59375 0.03125q-0.34375 0 -0.59375 -0.03125q-0.234375 -0.03125 -0.375 -0.078125q-0.140625 -0.0625 -0.203125 -0.125q-0.046875 -0.078125 -0.046875 -0.1875l0 -10.875q0 -0.40625 0.203125 -0.578125q0.203125 -0.1875 0.515625 -0.1875l5.65625 0q0.078125 0 0.140625 0.046875q0.0625 0.046875 0.109375 0.171875q0.0625 0.109375 0.078125 0.3125q0.03125 0.1875 0.03125 0.46875zm10.125427 9.1875q0 0.21875 -0.015625 0.390625q-0.015625 0.15625 -0.046875 0.28125q-0.015625 0.109375 -0.0625 0.203125q-0.046875 0.078125 -0.15625 0.1875q-0.09375 0.09375 -0.390625 0.265625q-0.296875 0.171875 -0.71875 0.328125q-0.421875 0.140625 -0.96875 0.234375q-0.53125 0.109375 -1.15625 0.109375q-1.234375 0 -2.234375 -0.375q-1.0 -0.375 -1.703125 -1.125q-0.6875 -0.765625 -1.0625 -1.890625q-0.359375 -1.140625 -0.359375 -2.640625q0 -1.53125 0.40625 -2.71875q0.40625 -1.1875 1.140625 -1.984375q0.734375 -0.8125 1.75 -1.234375q1.03125 -0.421875 2.265625 -0.421875q0.5 0 0.96875 0.09375q0.46875 0.078125 0.859375 0.21875q0.390625 0.125 0.703125 0.3125q0.3125 0.171875 0.4375 0.296875q0.125 0.125 0.171875 0.203125q0.046875 0.078125 0.078125 0.21875q0.03125 0.125 0.046875 0.3125q0.015625 0.171875 0.015625 0.421875q0 0.28125 -0.03125 0.484375q-0.015625 0.1875 -0.0625 0.3125q-0.046875 0.109375 -0.109375 0.171875q-0.0625 0.0625 -0.140625 0.0625q-0.140625 0 -0.359375 -0.15625q-0.203125 -0.171875 -0.546875 -0.375q-0.34375 -0.203125 -0.8125 -0.359375q-0.46875 -0.171875 -1.109375 -0.171875q-0.71875 0 -1.28125 0.296875q-0.5625 0.296875 -0.953125 0.84375q-0.390625 0.53125 -0.59375 1.3125q-0.203125 0.765625 -0.203125 1.734375q0 1.046875 0.203125 1.828125q0.21875 0.765625 0.625 1.28125q0.40625 0.5 0.96875 0.75q0.578125 0.234375 1.296875 0.234375q0.640625 0 1.109375 -0.15625q0.484375 -0.15625 0.8125 -0.328125q0.34375 -0.1875 0.5625 -0.328125q0.21875 -0.15625 0.34375 -0.15625q0.09375 0 0.140625 0.03125q0.0625 0.03125 0.09375 0.15625q0.046875 0.109375 0.0625 0.3125q0.015625 0.1875 0.015625 0.53125z" fill-rule="nonzero"></path><path fill="#000000" d="m400.36896 282.07214q0 0.703125 -0.265625 1.25q-0.265625 0.53125 -0.75 0.890625q-0.484375 0.359375 -1.140625 0.546875q-0.65625 0.1875 -1.421875 0.1875q-0.46875 0 -0.890625 -0.078125q-0.421875 -0.0625 -0.765625 -0.171875q-0.328125 -0.109375 -0.546875 -0.21875q-0.21875 -0.109375 -0.328125 -0.203125q-0.109375 -0.109375 -0.171875 -0.3125q-0.046875 -0.203125 -0.046875 -0.609375q0 -0.28125 0.015625 -0.4375q0.03125 -0.15625 0.0625 -0.25q0.03125 -0.109375 0.09375 -0.140625q0.0625 -0.03125 0.140625 -0.03125q0.09375 0 0.296875 0.125q0.203125 0.109375 0.5 0.25q0.296875 0.140625 0.6875 0.265625q0.390625 0.109375 0.90625 0.109375q0.3125 0 0.546875 -0.0625q0.25 -0.0625 0.421875 -0.1875q0.1875 -0.125 0.28125 -0.3125q0.09375 -0.1875 0.09375 -0.421875q0 -0.28125 -0.171875 -0.46875q-0.171875 -0.203125 -0.453125 -0.34375q-0.28125 -0.15625 -0.640625 -0.28125q-0.359375 -0.140625 -0.734375 -0.296875q-0.375 -0.15625 -0.734375 -0.359375q-0.34375 -0.203125 -0.640625 -0.5q-0.28125 -0.296875 -0.453125 -0.71875q-0.171875 -0.421875 -0.171875 -1.0q0 -0.59375 0.234375 -1.09375q0.234375 -0.5 0.671875 -0.84375q0.4375 -0.359375 1.0625 -0.546875q0.625 -0.203125 1.40625 -0.203125q0.390625 0 0.75 0.0625q0.375 0.046875 0.671875 0.140625q0.296875 0.078125 0.5 0.1875q0.203125 0.09375 0.28125 0.171875q0.09375 0.0625 0.125 0.125q0.046875 0.0625 0.0625 0.171875q0.015625 0.09375 0.03125 0.234375q0.015625 0.140625 0.015625 0.359375q0 0.25 -0.015625 0.40625q-0.015625 0.15625 -0.046875 0.25q-0.03125 0.09375 -0.09375 0.125q-0.046875 0.03125 -0.125 0.03125q-0.078125 0 -0.265625 -0.09375q-0.171875 -0.09375 -0.4375 -0.203125q-0.265625 -0.125 -0.609375 -0.21875q-0.34375 -0.09375 -0.796875 -0.09375q-0.3125 0 -0.546875 0.0625q-0.21875 0.0625 -0.375 0.1875q-0.140625 0.125 -0.21875 0.296875q-0.078125 0.15625 -0.078125 0.328125q0 0.296875 0.171875 0.5q0.1875 0.1875 0.46875 0.34375q0.28125 0.140625 0.640625 0.265625q0.375 0.125 0.75 0.28125q0.375 0.15625 0.734375 0.359375q0.375 0.203125 0.65625 0.5q0.296875 0.296875 0.46875 0.71875q0.1875 0.40625 0.1875 0.96875zm9.973724 -1.875q0 1.046875 -0.28125 1.921875q-0.265625 0.875 -0.84375 1.515625q-0.5625 0.625 -1.421875 0.96875q-0.84375 0.34375 -1.984375 0.34375q-1.109375 0 -1.921875 -0.3125q-0.8125 -0.3125 -1.359375 -0.890625q-0.53125 -0.578125 -0.796875 -1.4375q-0.25 -0.859375 -0.25 -1.953125q0 -1.046875 0.28125 -1.921875q0.28125 -0.890625 0.84375 -1.515625q0.5625 -0.625 1.40625 -0.96875q0.859375 -0.34375 2.0 -0.34375q1.109375 0 1.921875 0.3125q0.828125 0.296875 1.359375 0.890625q0.53125 0.578125 0.78125 1.4375q0.265625 0.84375 0.265625 1.953125zm-2.390625 0.09375q0 -0.625 -0.109375 -1.140625q-0.09375 -0.515625 -0.328125 -0.890625q-0.234375 -0.375 -0.625 -0.59375q-0.375 -0.21875 -0.953125 -0.21875q-0.515625 0 -0.90625 0.203125q-0.390625 0.1875 -0.640625 0.5625q-0.25 0.359375 -0.375 0.875q-0.125 0.515625 -0.125 1.171875q0 0.609375 0.09375 1.125q0.109375 0.515625 0.328125 0.90625q0.234375 0.375 0.625 0.578125q0.390625 0.203125 0.953125 0.203125q0.53125 0 0.921875 -0.1875q0.390625 -0.1875 0.640625 -0.546875q0.25 -0.359375 0.375 -0.875q0.125 -0.515625 0.125 -1.171875zm9.045166 -7.3125q0 0.28125 -0.015625 0.4375q-0.015625 0.15625 -0.0625 0.25q-0.03125 0.09375 -0.078125 0.125q-0.046875 0.03125 -0.09375 0.03125q-0.078125 0 -0.15625 -0.03125q-0.078125 -0.03125 -0.1875 -0.0625q-0.109375 -0.046875 -0.28125 -0.078125q-0.15625 -0.03125 -0.359375 -0.03125q-0.25 0 -0.4375 0.078125q-0.171875 0.078125 -0.296875 0.25q-0.125 0.171875 -0.1875 0.453125q-0.046875 0.265625 -0.046875 0.65625l0 0.765625l1.515625 0q0.078125 0 0.140625 0.046875q0.078125 0.046875 0.125 0.15625q0.046875 0.109375 0.0625 0.296875q0.03125 0.171875 0.03125 0.453125q0 0.5 -0.09375 0.71875q-0.09375 0.21875 -0.265625 0.21875l-1.515625 0l0 6.703125q0 0.09375 -0.0625 0.171875q-0.046875 0.0625 -0.1875 0.109375q-0.125 0.046875 -0.359375 0.0625q-0.21875 0.03125 -0.5625 0.03125q-0.328125 0 -0.5625 -0.03125q-0.21875 -0.015625 -0.359375 -0.0625q-0.140625 -0.046875 -0.1875 -0.109375q-0.046875 -0.078125 -0.046875 -0.171875l0 -6.703125l-1.046875 0q-0.171875 0 -0.265625 -0.21875q-0.078125 -0.21875 -0.078125 -0.71875q0 -0.28125 0.015625 -0.453125q0.03125 -0.1875 0.0625 -0.296875q0.046875 -0.109375 0.109375 -0.15625q0.078125 -0.046875 0.171875 -0.046875l1.03125 0l0 -0.703125q0 -0.84375 0.15625 -1.46875q0.171875 -0.640625 0.53125 -1.0625q0.359375 -0.421875 0.90625 -0.625q0.5625 -0.21875 1.3125 -0.21875q0.359375 0 0.671875 0.0625q0.328125 0.046875 0.515625 0.125q0.1875 0.0625 0.25 0.125q0.078125 0.0625 0.109375 0.1875q0.046875 0.109375 0.0625 0.296875q0.015625 0.171875 0.015625 0.4375zm5.809204 10.625q0 0.40625 -0.046875 0.625q-0.046875 0.21875 -0.140625 0.3125q-0.078125 0.078125 -0.25 0.15625q-0.15625 0.0625 -0.375 0.109375q-0.21875 0.046875 -0.46875 0.078125q-0.25 0.03125 -0.515625 0.03125q-0.6875 0 -1.203125 -0.1875q-0.515625 -0.171875 -0.84375 -0.53125q-0.328125 -0.375 -0.5 -0.921875q-0.15625 -0.5625 -0.15625 -1.328125l0 -4.234375l-0.984375 0q-0.171875 0 -0.265625 -0.21875q-0.09375 -0.21875 -0.09375 -0.71875q0 -0.28125 0.015625 -0.453125q0.03125 -0.1875 0.078125 -0.296875q0.046875 -0.109375 0.109375 -0.15625q0.0625 -0.046875 0.15625 -0.046875l0.984375 0l0 -1.84375q0 -0.09375 0.046875 -0.171875q0.0625 -0.078125 0.1875 -0.125q0.140625 -0.046875 0.359375 -0.0625q0.234375 -0.03125 0.578125 -0.03125q0.34375 0 0.5625 0.03125q0.234375 0.015625 0.359375 0.0625q0.125 0.046875 0.171875 0.125q0.0625 0.078125 0.0625 0.171875l0 1.84375l1.8125 0q0.09375 0 0.15625 0.046875q0.0625 0.046875 0.109375 0.15625q0.046875 0.109375 0.0625 0.296875q0.03125 0.171875 0.03125 0.453125q0 0.5 -0.09375 0.71875q-0.09375 0.21875 -0.265625 0.21875l-1.8125 0l0 3.890625q0 0.671875 0.21875 1.015625q0.21875 0.34375 0.765625 0.34375q0.1875 0 0.328125 -0.03125q0.15625 -0.046875 0.265625 -0.078125q0.109375 -0.046875 0.1875 -0.078125q0.09375 -0.03125 0.15625 -0.03125q0.046875 0 0.09375 0.03125q0.0625 0.03125 0.078125 0.140625q0.03125 0.09375 0.046875 0.265625q0.03125 0.15625 0.03125 0.421875zm14.733368 0.8125q0 0.09375 -0.0625 0.171875q-0.046875 0.0625 -0.171875 0.109375q-0.125 0.046875 -0.359375 0.0625q-0.21875 0.03125 -0.5625 0.03125q-0.34375 0 -0.578125 -0.03125q-0.21875 -0.015625 -0.359375 -0.0625q-0.125 -0.046875 -0.1875 -0.109375q-0.046875 -0.078125 -0.046875 -0.171875l0 -4.90625q0 -0.421875 -0.078125 -0.765625q-0.078125 -0.34375 -0.25 -0.578125q-0.15625 -0.25 -0.40625 -0.390625q-0.234375 -0.140625 -0.578125 -0.140625q-0.421875 0 -0.84375 0.328125q-0.421875 0.328125 -0.921875 0.953125l0 5.5q0 0.09375 -0.0625 0.171875q-0.0625 0.0625 -0.203125 0.109375q-0.125 0.046875 -0.34375 0.0625q-0.21875 0.03125 -0.5625 0.03125q-0.34375 0 -0.5625 -0.03125q-0.21875 -0.015625 -0.359375 -0.0625q-0.125 -0.046875 -0.1875 -0.109375q-0.046875 -0.078125 -0.046875 -0.171875l0 -4.90625q0 -0.421875 -0.09375 -0.765625q-0.078125 -0.34375 -0.234375 -0.578125q-0.15625 -0.25 -0.40625 -0.390625q-0.25 -0.140625 -0.578125 -0.140625q-0.421875 0 -0.859375 0.328125q-0.421875 0.328125 -0.921875 0.953125l0 5.5q0 0.09375 -0.0625 0.171875q-0.046875 0.0625 -0.1875 0.109375q-0.125 0.046875 -0.34375 0.0625q-0.21875 0.03125 -0.5625 0.03125q-0.34375 0 -0.578125 -0.03125q-0.21875 -0.015625 -0.359375 -0.0625q-0.125 -0.046875 -0.1875 -0.109375q-0.046875 -0.078125 -0.046875 -0.171875l0 -8.28125q0 -0.09375 0.046875 -0.15625q0.046875 -0.078125 0.15625 -0.125q0.125 -0.046875 0.3125 -0.0625q0.203125 -0.03125 0.484375 -0.03125q0.296875 0 0.484375 0.03125q0.203125 0.015625 0.3125 0.0625q0.109375 0.046875 0.140625 0.125q0.046875 0.0625 0.046875 0.15625l0 0.953125q0.6875 -0.734375 1.375 -1.109375q0.6875 -0.375 1.421875 -0.375q0.515625 0 0.921875 0.109375q0.40625 0.109375 0.71875 0.3125q0.328125 0.203125 0.5625 0.484375q0.234375 0.265625 0.390625 0.609375q0.375 -0.390625 0.71875 -0.671875q0.359375 -0.296875 0.703125 -0.46875q0.359375 -0.1875 0.703125 -0.28125q0.34375 -0.09375 0.71875 -0.09375q0.8125 0 1.375 0.28125q0.578125 0.28125 0.921875 0.765625q0.34375 0.46875 0.484375 1.109375q0.15625 0.640625 0.15625 1.359375l0 5.296875zm9.067047 0.03125q0 0.125 -0.09375 0.203125q-0.09375 0.0625 -0.296875 0.09375q-0.1875 0.046875 -0.578125 0.046875q-0.421875 0 -0.609375 -0.046875q-0.1875 -0.03125 -0.265625 -0.09375q-0.078125 -0.078125 -0.078125 -0.203125l0 -0.671875q-0.515625 0.546875 -1.171875 0.859375q-0.65625 0.3125 -1.453125 0.3125q-0.65625 0 -1.21875 -0.171875q-0.546875 -0.171875 -0.953125 -0.515625q-0.390625 -0.34375 -0.625 -0.84375q-0.21875 -0.5 -0.21875 -1.171875q0 -0.71875 0.28125 -1.25q0.28125 -0.53125 0.84375 -0.875q0.5625 -0.359375 1.390625 -0.515625q0.84375 -0.171875 1.953125 -0.171875l0.796875 0l0 -0.5q0 -0.390625 -0.078125 -0.671875q-0.078125 -0.296875 -0.265625 -0.484375q-0.171875 -0.203125 -0.46875 -0.296875q-0.296875 -0.09375 -0.75 -0.09375q-0.578125 0 -1.046875 0.125q-0.453125 0.125 -0.8125 0.296875q-0.34375 0.15625 -0.59375 0.28125q-0.234375 0.125 -0.375 0.125q-0.109375 0 -0.1875 -0.0625q-0.078125 -0.0625 -0.125 -0.1875q-0.046875 -0.125 -0.078125 -0.296875q-0.03125 -0.171875 -0.03125 -0.390625q0 -0.28125 0.046875 -0.453125q0.046875 -0.171875 0.171875 -0.296875q0.140625 -0.140625 0.453125 -0.296875q0.328125 -0.171875 0.765625 -0.296875q0.4375 -0.140625 0.953125 -0.234375q0.515625 -0.09375 1.0625 -0.09375q0.96875 0 1.65625 0.203125q0.703125 0.1875 1.140625 0.578125q0.453125 0.390625 0.65625 1.015625q0.203125 0.625 0.203125 1.46875l0 5.578125zm-2.296875 -3.546875l-0.890625 0q-0.5625 0 -0.96875 0.078125q-0.390625 0.078125 -0.640625 0.25q-0.25 0.171875 -0.375 0.40625q-0.109375 0.234375 -0.109375 0.546875q0 0.515625 0.328125 0.8125q0.328125 0.296875 0.921875 0.296875q0.484375 0 0.890625 -0.25q0.421875 -0.25 0.84375 -0.734375l0 -1.40625zm11.647217 3.34375q0.078125 0.15625 0.0625 0.265625q0 0.09375 -0.125 0.171875q-0.125 0.0625 -0.40625 0.078125q-0.265625 0.03125 -0.703125 0.03125q-0.421875 0 -0.6875 -0.015625q-0.25 -0.015625 -0.390625 -0.0625q-0.140625 -0.046875 -0.21875 -0.09375q-0.0625 -0.0625 -0.09375 -0.15625l-1.53125 -2.9375l-1.53125 2.9375q-0.046875 0.09375 -0.109375 0.15625q-0.0625 0.046875 -0.203125 0.09375q-0.125 0.046875 -0.375 0.0625q-0.234375 0.015625 -0.625 0.015625q-0.40625 0 -0.65625 -0.03125q-0.234375 -0.015625 -0.34375 -0.078125q-0.109375 -0.078125 -0.125 -0.171875q0 -0.109375 0.078125 -0.265625l2.296875 -4.078125l-2.109375 -3.8125q-0.09375 -0.171875 -0.09375 -0.28125q0 -0.125 0.109375 -0.1875q0.125 -0.0625 0.390625 -0.09375q0.265625 -0.03125 0.71875 -0.03125q0.40625 0 0.65625 0.015625q0.25 0.015625 0.375 0.046875q0.140625 0.03125 0.203125 0.09375q0.078125 0.046875 0.125 0.140625l1.46875 2.765625l1.46875 -2.765625q0.03125 -0.0625 0.078125 -0.109375q0.0625 -0.0625 0.171875 -0.09375q0.125 -0.046875 0.328125 -0.0625q0.21875 -0.03125 0.578125 -0.03125q0.40625 0 0.65625 0.03125q0.25 0.015625 0.34375 0.078125q0.109375 0.0625 0.109375 0.1875q0 0.109375 -0.109375 0.296875l-2.046875 3.75l2.265625 4.140625zm11.867859 -1.15625q0 0.25 -0.015625 0.421875q-0.015625 0.15625 -0.046875 0.265625q-0.015625 0.109375 -0.046875 0.1875q-0.03125 0.0625 -0.15625 0.171875q-0.109375 0.109375 -0.375 0.265625q-0.265625 0.140625 -0.609375 0.265625q-0.34375 0.125 -0.75 0.1875q-0.40625 0.078125 -0.828125 0.078125q-0.953125 0 -1.6875 -0.296875q-0.734375 -0.296875 -1.25 -0.875q-0.5 -0.578125 -0.75 -1.40625q-0.25 -0.84375 -0.25 -1.921875q0 -1.234375 0.3125 -2.140625q0.3125 -0.90625 0.859375 -1.5q0.5625 -0.59375 1.3125 -0.875q0.765625 -0.296875 1.671875 -0.296875q0.375 0 0.734375 0.0625q0.359375 0.0625 0.671875 0.171875q0.3125 0.109375 0.546875 0.25q0.25 0.140625 0.34375 0.25q0.109375 0.09375 0.140625 0.171875q0.046875 0.0625 0.0625 0.1875q0.03125 0.109375 0.046875 0.265625q0.015625 0.15625 0.015625 0.390625q0 0.546875 -0.09375 0.765625q-0.09375 0.203125 -0.234375 0.203125q-0.15625 0 -0.34375 -0.125q-0.171875 -0.125 -0.421875 -0.28125q-0.234375 -0.15625 -0.5625 -0.28125q-0.328125 -0.140625 -0.796875 -0.140625q-0.90625 0 -1.390625 0.703125q-0.484375 0.703125 -0.484375 2.046875q0 0.671875 0.109375 1.1875q0.125 0.5 0.359375 0.84375q0.25 0.34375 0.59375 0.515625q0.359375 0.171875 0.84375 0.171875q0.484375 0 0.828125 -0.140625q0.34375 -0.140625 0.59375 -0.3125q0.265625 -0.1875 0.4375 -0.328125q0.1875 -0.140625 0.3125 -0.140625q0.078125 0 0.125 0.046875q0.0625 0.046875 0.09375 0.171875q0.03125 0.125 0.046875 0.328125q0.03125 0.1875 0.03125 0.484375zm3.8693237 1.328125q0 0.09375 -0.0625 0.171875q-0.046875 0.0625 -0.1875 0.109375q-0.125 0.046875 -0.34375 0.0625q-0.21875 0.03125 -0.5625 0.03125q-0.34375 0 -0.578125 -0.03125q-0.21875 -0.015625 -0.359375 -0.0625q-0.125 -0.046875 -0.1875 -0.109375q-0.046875 -0.078125 -0.046875 -0.171875l0 -12.203125q0 -0.09375 0.046875 -0.15625q0.0625 -0.078125 0.1875 -0.125q0.140625 -0.0625 0.359375 -0.09375q0.234375 -0.03125 0.578125 -0.03125q0.34375 0 0.5625 0.03125q0.21875 0.03125 0.34375 0.09375q0.140625 0.046875 0.1875 0.125q0.0625 0.0625 0.0625 0.15625l0 12.203125zm9.300842 0.03125q0 0.125 -0.09375 0.203125q-0.09375 0.0625 -0.296875 0.09375q-0.1875 0.046875 -0.578125 0.046875q-0.421875 0 -0.609375 -0.046875q-0.1875 -0.03125 -0.265625 -0.09375q-0.078125 -0.078125 -0.078125 -0.203125l0 -0.671875q-0.515625 0.546875 -1.171875 0.859375q-0.65625 0.3125 -1.453125 0.3125q-0.65625 0 -1.21875 -0.171875q-0.546875 -0.171875 -0.953125 -0.515625q-0.390625 -0.34375 -0.625 -0.84375q-0.21875 -0.5 -0.21875 -1.171875q0 -0.71875 0.28125 -1.25q0.28125 -0.53125 0.84375 -0.875q0.5625 -0.359375 1.390625 -0.515625q0.84375 -0.171875 1.953125 -0.171875l0.796875 0l0 -0.5q0 -0.390625 -0.078125 -0.671875q-0.078125 -0.296875 -0.265625 -0.484375q-0.171875 -0.203125 -0.46875 -0.296875q-0.296875 -0.09375 -0.75 -0.09375q-0.578125 0 -1.046875 0.125q-0.453125 0.125 -0.8125 0.296875q-0.34375 0.15625 -0.59375 0.28125q-0.234375 0.125 -0.375 0.125q-0.109375 0 -0.1875 -0.0625q-0.078125 -0.0625 -0.125 -0.1875q-0.046875 -0.125 -0.078125 -0.296875q-0.03125 -0.171875 -0.03125 -0.390625q0 -0.28125 0.046875 -0.453125q0.046875 -0.171875 0.171875 -0.296875q0.140625 -0.140625 0.453125 -0.296875q0.328125 -0.171875 0.765625 -0.296875q0.4375 -0.140625 0.953125 -0.234375q0.515625 -0.09375 1.0625 -0.09375q0.96875 0 1.65625 0.203125q0.703125 0.1875 1.140625 0.578125q0.453125 0.390625 0.65625 1.015625q0.203125 0.625 0.203125 1.46875l0 5.578125zm-2.296875 -3.546875l-0.890625 0q-0.5625 0 -0.96875 0.078125q-0.390625 0.078125 -0.640625 0.25q-0.25 0.171875 -0.375 0.40625q-0.109375 0.234375 -0.109375 0.546875q0 0.515625 0.328125 0.8125q0.328125 0.296875 0.921875 0.296875q0.484375 0 0.890625 -0.25q0.421875 -0.25 0.84375 -0.734375l0 -1.40625zm10.287811 1.171875q0 0.703125 -0.265625 1.25q-0.265625 0.53125 -0.75 0.890625q-0.484375 0.359375 -1.140625 0.546875q-0.65625 0.1875 -1.421875 0.1875q-0.46875 0 -0.890625 -0.078125q-0.421875 -0.0625 -0.765625 -0.171875q-0.328125 -0.109375 -0.546875 -0.21875q-0.21875 -0.109375 -0.328125 -0.203125q-0.109375 -0.109375 -0.171875 -0.3125q-0.046875 -0.203125 -0.046875 -0.609375q0 -0.28125 0.015625 -0.4375q0.03125 -0.15625 0.0625 -0.25q0.03125 -0.109375 0.09375 -0.140625q0.0625 -0.03125 0.140625 -0.03125q0.09375 0 0.296875 0.125q0.203125 0.109375 0.5 0.25q0.296875 0.140625 0.6875 0.265625q0.390625 0.109375 0.90625 0.109375q0.3125 0 0.546875 -0.0625q0.25 -0.0625 0.421875 -0.1875q0.1875 -0.125 0.28125 -0.3125q0.09375 -0.1875 0.09375 -0.421875q0 -0.28125 -0.171875 -0.46875q-0.171875 -0.203125 -0.453125 -0.34375q-0.28125 -0.15625 -0.640625 -0.28125q-0.359375 -0.140625 -0.734375 -0.296875q-0.375 -0.15625 -0.734375 -0.359375q-0.34375 -0.203125 -0.640625 -0.5q-0.28125 -0.296875 -0.453125 -0.71875q-0.171875 -0.421875 -0.171875 -1.0q0 -0.59375 0.234375 -1.09375q0.234375 -0.5 0.671875 -0.84375q0.4375 -0.359375 1.0625 -0.546875q0.625 -0.203125 1.40625 -0.203125q0.390625 0 0.75 0.0625q0.375 0.046875 0.671875 0.140625q0.296875 0.078125 0.5 0.1875q0.203125 0.09375 0.28125 0.171875q0.09375 0.0625 0.125 0.125q0.046875 0.0625 0.0625 0.171875q0.015625 0.09375 0.03125 0.234375q0.015625 0.140625 0.015625 0.359375q0 0.25 -0.015625 0.40625q-0.015625 0.15625 -0.046875 0.25q-0.03125 0.09375 -0.09375 0.125q-0.046875 0.03125 -0.125 0.03125q-0.078125 0 -0.265625 -0.09375q-0.171875 -0.09375 -0.4375 -0.203125q-0.265625 -0.125 -0.609375 -0.21875q-0.34375 -0.09375 -0.796875 -0.09375q-0.3125 0 -0.546875 0.0625q-0.21875 0.0625 -0.375 0.1875q-0.140625 0.125 -0.21875 0.296875q-0.078125 0.15625 -0.078125 0.328125q0 0.296875 0.171875 0.5q0.1875 0.1875 0.46875 0.34375q0.28125 0.140625 0.640625 0.265625q0.375 0.125 0.75 0.28125q0.375 0.15625 0.734375 0.359375q0.375 0.203125 0.65625 0.5q0.296875 0.296875 0.46875 0.71875q0.1875 0.40625 0.1875 0.96875zm7.4424744 0q0 0.703125 -0.265625 1.25q-0.265625 0.53125 -0.75 0.890625q-0.484375 0.359375 -1.140625 0.546875q-0.65625 0.1875 -1.421875 0.1875q-0.46875 0 -0.890625 -0.078125q-0.421875 -0.0625 -0.765625 -0.171875q-0.328125 -0.109375 -0.546875 -0.21875q-0.21875 -0.109375 -0.328125 -0.203125q-0.109375 -0.109375 -0.171875 -0.3125q-0.046875 -0.203125 -0.046875 -0.609375q0 -0.28125 0.015625 -0.4375q0.03125 -0.15625 0.0625 -0.25q0.03125 -0.109375 0.09375 -0.140625q0.0625 -0.03125 0.140625 -0.03125q0.09375 0 0.296875 0.125q0.203125 0.109375 0.5 0.25q0.296875 0.140625 0.6875 0.265625q0.390625 0.109375 0.90625 0.109375q0.3125 0 0.546875 -0.0625q0.25 -0.0625 0.421875 -0.1875q0.1875 -0.125 0.28125 -0.3125q0.09375 -0.1875 0.09375 -0.421875q0 -0.28125 -0.171875 -0.46875q-0.171875 -0.203125 -0.453125 -0.34375q-0.28125 -0.15625 -0.640625 -0.28125q-0.359375 -0.140625 -0.734375 -0.296875q-0.375 -0.15625 -0.734375 -0.359375q-0.34375 -0.203125 -0.640625 -0.5q-0.28125 -0.296875 -0.453125 -0.71875q-0.171875 -0.421875 -0.171875 -1.0q0 -0.59375 0.234375 -1.09375q0.234375 -0.5 0.671875 -0.84375q0.4375 -0.359375 1.0625 -0.546875q0.625 -0.203125 1.40625 -0.203125q0.390625 0 0.75 0.0625q0.375 0.046875 0.671875 0.140625q0.296875 0.078125 0.5 0.1875q0.203125 0.09375 0.28125 0.171875q0.09375 0.0625 0.125 0.125q0.046875 0.0625 0.0625 0.171875q0.015625 0.09375 0.03125 0.234375q0.015625 0.140625 0.015625 0.359375q0 0.25 -0.015625 0.40625q-0.015625 0.15625 -0.046875 0.25q-0.03125 0.09375 -0.09375 0.125q-0.046875 0.03125 -0.125 0.03125q-0.078125 0 -0.265625 -0.09375q-0.171875 -0.09375 -0.4375 -0.203125q-0.265625 -0.125 -0.609375 -0.21875q-0.34375 -0.09375 -0.796875 -0.09375q-0.3125 0 -0.546875 0.0625q-0.21875 0.0625 -0.375 0.1875q-0.140625 0.125 -0.21875 0.296875q-0.078125 0.15625 -0.078125 0.328125q0 0.296875 0.171875 0.5q0.1875 0.1875 0.46875 0.34375q0.28125 0.140625 0.640625 0.265625q0.375 0.125 0.75 0.28125q0.375 0.15625 0.734375 0.359375q0.375 0.203125 0.65625 0.5q0.296875 0.296875 0.46875 0.71875q0.1875 0.40625 0.1875 0.96875zm3.9424438 2.34375q0 0.09375 -0.0625 0.171875q-0.046875 0.0625 -0.1875 0.109375q-0.125 0.046875 -0.34375 0.0625q-0.21875 0.03125 -0.5625 0.03125q-0.34375 0 -0.578125 -0.03125q-0.21875 -0.015625 -0.359375 -0.0625q-0.125 -0.046875 -0.1875 -0.109375q-0.046875 -0.078125 -0.046875 -0.171875l0 -8.265625q0 -0.09375 0.046875 -0.15625q0.0625 -0.0625 0.1875 -0.109375q0.140625 -0.0625 0.359375 -0.09375q0.234375 -0.03125 0.578125 -0.03125q0.34375 0 0.5625 0.03125q0.21875 0.03125 0.34375 0.09375q0.140625 0.046875 0.1875 0.109375q0.0625 0.0625 0.0625 0.15625l0 8.265625zm0.1875 -11.078125q0 0.703125 -0.296875 0.96875q-0.28125 0.265625 -1.0625 0.265625q-0.78125 0 -1.0625 -0.25q-0.265625 -0.265625 -0.265625 -0.9375q0 -0.703125 0.28125 -0.96875q0.28125 -0.28125 1.0625 -0.28125q0.78125 0 1.0625 0.265625q0.28125 0.265625 0.28125 0.9375zm7.0508423 -0.359375q0 0.28125 -0.015625 0.4375q-0.015625 0.15625 -0.0625 0.25q-0.03125 0.09375 -0.078125 0.125q-0.046875 0.03125 -0.09375 0.03125q-0.078125 0 -0.15625 -0.03125q-0.078125 -0.03125 -0.1875 -0.0625q-0.109375 -0.046875 -0.28125 -0.078125q-0.15625 -0.03125 -0.359375 -0.03125q-0.25 0 -0.4375 0.078125q-0.171875 0.078125 -0.296875 0.25q-0.125 0.171875 -0.1875 0.453125q-0.046875 0.265625 -0.046875 0.65625l0 0.765625l1.515625 0q0.078125 0 0.140625 0.046875q0.078125 0.046875 0.125 0.15625q0.046875 0.109375 0.0625 0.296875q0.03125 0.171875 0.03125 0.453125q0 0.5 -0.09375 0.71875q-0.09375 0.21875 -0.265625 0.21875l-1.515625 0l0 6.703125q0 0.09375 -0.0625 0.171875q-0.046875 0.0625 -0.1875 0.109375q-0.125 0.046875 -0.359375 0.0625q-0.21875 0.03125 -0.5625 0.03125q-0.328125 0 -0.5625 -0.03125q-0.21875 -0.015625 -0.359375 -0.0625q-0.140625 -0.046875 -0.1875 -0.109375q-0.046875 -0.078125 -0.046875 -0.171875l0 -6.703125l-1.046875 0q-0.171875 0 -0.265625 -0.21875q-0.078125 -0.21875 -0.078125 -0.71875q0 -0.28125 0.015625 -0.453125q0.03125 -0.1875 0.0625 -0.296875q0.046875 -0.109375 0.109375 -0.15625q0.078125 -0.046875 0.171875 -0.046875l1.03125 0l0 -0.703125q0 -0.84375 0.15625 -1.46875q0.171875 -0.640625 0.53125 -1.0625q0.359375 -0.421875 0.90625 -0.625q0.5625 -0.21875 1.3125 -0.21875q0.359375 0 0.671875 0.0625q0.328125 0.046875 0.515625 0.125q0.1875 0.0625 0.25 0.125q0.078125 0.0625 0.109375 0.1875q0.046875 0.109375 0.0625 0.296875q0.015625 0.171875 0.015625 0.4375zm3.246704 11.4375q0 0.09375 -0.0625 0.171875q-0.046875 0.0625 -0.1875 0.109375q-0.125 0.046875 -0.34375 0.0625q-0.21875 0.03125 -0.5625 0.03125q-0.34375 0 -0.578125 -0.03125q-0.21875 -0.015625 -0.359375 -0.0625q-0.125 -0.046875 -0.1875 -0.109375q-0.046875 -0.078125 -0.046875 -0.171875l0 -8.265625q0 -0.09375 0.046875 -0.15625q0.0625 -0.0625 0.1875 -0.109375q0.140625 -0.0625 0.359375 -0.09375q0.234375 -0.03125 0.578125 -0.03125q0.34375 0 0.5625 0.03125q0.21875 0.03125 0.34375 0.09375q0.140625 0.046875 0.1875 0.109375q0.0625 0.0625 0.0625 0.15625l0 8.265625zm0.1875 -11.078125q0 0.703125 -0.296875 0.96875q-0.28125 0.265625 -1.0625 0.265625q-0.78125 0 -1.0625 -0.25q-0.265625 -0.265625 -0.265625 -0.9375q0 -0.703125 0.28125 -0.96875q0.28125 -0.28125 1.0625 -0.28125q0.78125 0 1.0625 0.265625q0.28125 0.265625 0.28125 0.9375zm9.707062 6.703125q0 0.421875 -0.1875 0.625q-0.1875 0.203125 -0.53125 0.203125l-5.03125 0q0 0.53125 0.125 0.96875q0.125 0.421875 0.390625 0.734375q0.28125 0.296875 0.703125 0.453125q0.4375 0.15625 1.046875 0.15625q0.609375 0 1.0625 -0.078125q0.46875 -0.09375 0.8125 -0.203125q0.34375 -0.109375 0.5625 -0.1875q0.21875 -0.09375 0.359375 -0.09375q0.078125 0 0.140625 0.03125q0.0625 0.03125 0.09375 0.109375q0.03125 0.078125 0.046875 0.234375q0.015625 0.15625 0.015625 0.390625q0 0.203125 -0.015625 0.34375q0 0.140625 -0.015625 0.25q-0.015625 0.09375 -0.0625 0.171875q-0.03125 0.0625 -0.09375 0.140625q-0.0625 0.0625 -0.328125 0.171875q-0.265625 0.109375 -0.6875 0.21875q-0.421875 0.109375 -0.96875 0.1875q-0.53125 0.078125 -1.140625 0.078125q-1.09375 0 -1.9375 -0.28125q-0.828125 -0.28125 -1.390625 -0.84375q-0.546875 -0.5625 -0.828125 -1.421875q-0.265625 -0.875 -0.265625 -2.03125q0 -1.109375 0.28125 -1.984375q0.296875 -0.890625 0.84375 -1.5q0.546875 -0.625 1.328125 -0.953125q0.78125 -0.328125 1.765625 -0.328125q1.046875 0 1.78125 0.3125q0.734375 0.3125 1.203125 0.859375q0.484375 0.53125 0.703125 1.28125q0.21875 0.734375 0.21875 1.609375l0 0.375zm-2.265625 -0.671875q0.03125 -0.984375 -0.390625 -1.546875q-0.421875 -0.5625 -1.296875 -0.5625q-0.453125 0 -0.78125 0.171875q-0.328125 0.15625 -0.546875 0.453125q-0.21875 0.28125 -0.34375 0.671875q-0.109375 0.375 -0.125 0.8125l3.484375 0zm9.329407 -2.46875q0 0.34375 -0.015625 0.5625q-0.015625 0.203125 -0.0625 0.328125q-0.03125 0.125 -0.09375 0.171875q-0.0625 0.046875 -0.15625 0.046875q-0.0625 0 -0.15625 -0.03125q-0.09375 -0.046875 -0.21875 -0.078125q-0.109375 -0.03125 -0.25 -0.0625q-0.140625 -0.046875 -0.3125 -0.046875q-0.1875 0 -0.390625 0.09375q-0.1875 0.078125 -0.40625 0.25q-0.203125 0.15625 -0.4375 0.4375q-0.21875 0.28125 -0.484375 0.6875l0 5.15625q0 0.09375 -0.0625 0.171875q-0.046875 0.0625 -0.1875 0.109375q-0.125 0.046875 -0.34375 0.0625q-0.21875 0.03125 -0.5625 0.03125q-0.34375 0 -0.578125 -0.03125q-0.21875 -0.015625 -0.359375 -0.0625q-0.125 -0.046875 -0.1875 -0.109375q-0.046875 -0.078125 -0.046875 -0.171875l0 -8.28125q0 -0.09375 0.046875 -0.15625q0.046875 -0.078125 0.15625 -0.125q0.125 -0.046875 0.3125 -0.0625q0.203125 -0.03125 0.484375 -0.03125q0.296875 0 0.484375 0.03125q0.203125 0.015625 0.3125 0.0625q0.109375 0.046875 0.140625 0.125q0.046875 0.0625 0.046875 0.15625l0 1.03125q0.328125 -0.46875 0.609375 -0.765625q0.296875 -0.296875 0.546875 -0.46875q0.265625 -0.1875 0.53125 -0.25q0.265625 -0.078125 0.515625 -0.078125q0.125 0 0.265625 0.015625q0.140625 0.015625 0.28125 0.046875q0.15625 0.03125 0.265625 0.078125q0.109375 0.046875 0.15625 0.09375q0.0625 0.046875 0.078125 0.109375q0.015625 0.046875 0.03125 0.140625q0.03125 0.09375 0.03125 0.296875q0.015625 0.1875 0.015625 0.515625z" fill-rule="nonzero"></path><path fill="#f4cccc" d="m382.66537 355.49606l155.99997 0l0 85.763794l-155.99997 0z" fill-rule="evenodd"></path><path stroke="#ff0000" stroke-width="1.0" stroke-linejoin="round" stroke-linecap="butt" d="m382.66537 355.49606l155.99997 0l0 85.763794l-155.99997 0z" fill-rule="evenodd"></path><path fill="#000000" d="m459.49344 383.29794q0 0.28125 -0.03125 0.46875q-0.015625 0.1875 -0.078125 0.296875q-0.046875 0.109375 -0.109375 0.171875q-0.0625 0.046875 -0.140625 0.046875l-3.9375 0l0 3.234375l3.6875 0q0.09375 0 0.15625 0.046875q0.0625 0.046875 0.109375 0.15625q0.046875 0.109375 0.0625 0.296875q0.03125 0.1875 0.03125 0.46875q0 0.28125 -0.03125 0.46875q-0.015625 0.171875 -0.0625 0.296875q-0.046875 0.125 -0.109375 0.171875q-0.0625 0.046875 -0.15625 0.046875l-3.6875 0l0 4.46875q0 0.109375 -0.0625 0.1875q-0.046875 0.0625 -0.1875 0.125q-0.140625 0.046875 -0.375 0.078125q-0.234375 0.03125 -0.59375 0.03125q-0.34375 0 -0.59375 -0.03125q-0.234375 -0.03125 -0.375 -0.078125q-0.140625 -0.0625 -0.203125 -0.125q-0.046875 -0.078125 -0.046875 -0.1875l0 -10.875q0 -0.40625 0.203125 -0.578125q0.203125 -0.1875 0.515625 -0.1875l5.65625 0q0.078125 0 0.140625 0.046875q0.0625 0.046875 0.109375 0.171875q0.0625 0.109375 0.078125 0.3125q0.03125 0.1875 0.03125 0.46875zm10.125427 9.1875q0 0.21875 -0.015625 0.390625q-0.015625 0.15625 -0.046875 0.28125q-0.015625 0.109375 -0.0625 0.203125q-0.046875 0.078125 -0.15625 0.1875q-0.09375 0.09375 -0.390625 0.265625q-0.296875 0.171875 -0.71875 0.328125q-0.421875 0.140625 -0.96875 0.234375q-0.53125 0.109375 -1.15625 0.109375q-1.234375 0 -2.234375 -0.375q-1.0 -0.375 -1.703125 -1.125q-0.6875 -0.765625 -1.0625 -1.890625q-0.359375 -1.140625 -0.359375 -2.640625q0 -1.53125 0.40625 -2.71875q0.40625 -1.1875 1.140625 -1.984375q0.734375 -0.8125 1.75 -1.234375q1.03125 -0.421875 2.265625 -0.421875q0.5 0 0.96875 0.09375q0.46875 0.078125 0.859375 0.21875q0.390625 0.125 0.703125 0.3125q0.3125 0.171875 0.4375 0.296875q0.125 0.125 0.171875 0.203125q0.046875 0.078125 0.078125 0.21875q0.03125 0.125 0.046875 0.3125q0.015625 0.171875 0.015625 0.421875q0 0.28125 -0.03125 0.484375q-0.015625 0.1875 -0.0625 0.3125q-0.046875 0.109375 -0.109375 0.171875q-0.0625 0.0625 -0.140625 0.0625q-0.140625 0 -0.359375 -0.15625q-0.203125 -0.171875 -0.546875 -0.375q-0.34375 -0.203125 -0.8125 -0.359375q-0.46875 -0.171875 -1.109375 -0.171875q-0.71875 0 -1.28125 0.296875q-0.5625 0.296875 -0.953125 0.84375q-0.390625 0.53125 -0.59375 1.3125q-0.203125 0.765625 -0.203125 1.734375q0 1.046875 0.203125 1.828125q0.21875 0.765625 0.625 1.28125q0.40625 0.5 0.96875 0.75q0.578125 0.234375 1.296875 0.234375q0.640625 0 1.109375 -0.15625q0.484375 -0.15625 0.8125 -0.328125q0.34375 -0.1875 0.5625 -0.328125q0.21875 -0.15625 0.34375 -0.15625q0.09375 0 0.140625 0.03125q0.0625 0.03125 0.09375 0.15625q0.046875 0.109375 0.0625 0.3125q0.015625 0.1875 0.015625 0.53125z" fill-rule="nonzero"></path><path fill="#000000" d="m412.52502 411.73544q0 1.109375 -0.25 1.984375q-0.234375 0.875 -0.6875 1.5q-0.453125 0.625 -1.125 0.96875q-0.65625 0.328125 -1.5 0.328125q-0.421875 0 -0.78125 -0.078125q-0.359375 -0.078125 -0.6875 -0.25q-0.328125 -0.1875 -0.65625 -0.453125q-0.3125 -0.265625 -0.65625 -0.65625l0 0.90625q0 0.09375 -0.046875 0.171875q-0.046875 0.0625 -0.171875 0.109375q-0.109375 0.046875 -0.3125 0.0625q-0.1875 0.03125 -0.46875 0.03125q-0.28125 0 -0.46875 -0.03125q-0.1875 -0.015625 -0.3125 -0.0625q-0.109375 -0.046875 -0.15625 -0.109375q-0.046875 -0.078125 -0.046875 -0.171875l0 -12.203125q0 -0.09375 0.046875 -0.15625q0.0625 -0.078125 0.1875 -0.125q0.140625 -0.0625 0.359375 -0.09375q0.234375 -0.03125 0.578125 -0.03125q0.34375 0 0.5625 0.03125q0.21875 0.03125 0.34375 0.09375q0.140625 0.046875 0.1875 0.125q0.0625 0.0625 0.0625 0.15625l0 4.578125q0.328125 -0.3125 0.640625 -0.53125q0.3125 -0.234375 0.625 -0.375q0.3125 -0.140625 0.640625 -0.203125q0.34375 -0.078125 0.71875 -0.078125q0.921875 0 1.5625 0.375q0.640625 0.359375 1.03125 0.984375q0.40625 0.625 0.59375 1.453125q0.1875 0.828125 0.1875 1.75zm-2.421875 0.171875q0 -0.53125 -0.078125 -1.015625q-0.078125 -0.5 -0.28125 -0.875q-0.1875 -0.390625 -0.5 -0.609375q-0.3125 -0.234375 -0.78125 -0.234375q-0.234375 0 -0.453125 0.0625q-0.21875 0.0625 -0.46875 0.21875q-0.234375 0.15625 -0.484375 0.421875q-0.25 0.25 -0.53125 0.609375l0 2.75q0.5 0.625 0.953125 0.96875q0.453125 0.328125 0.9375 0.328125q0.453125 0 0.765625 -0.234375q0.3125 -0.234375 0.515625 -0.609375q0.21875 -0.375 0.3125 -0.84375q0.09375 -0.46875 0.09375 -0.9375zm12.433228 -0.171875q0 1.109375 -0.25 1.984375q-0.234375 0.875 -0.6875 1.5q-0.453125 0.625 -1.125 0.96875q-0.65625 0.328125 -1.5 0.328125q-0.421875 0 -0.78125 -0.078125q-0.359375 -0.078125 -0.6875 -0.25q-0.328125 -0.1875 -0.65625 -0.453125q-0.3125 -0.265625 -0.65625 -0.65625l0 0.90625q0 0.09375 -0.046875 0.171875q-0.046875 0.0625 -0.171875 0.109375q-0.109375 0.046875 -0.3125 0.0625q-0.1875 0.03125 -0.46875 0.03125q-0.28125 0 -0.46875 -0.03125q-0.1875 -0.015625 -0.3125 -0.0625q-0.109375 -0.046875 -0.15625 -0.109375q-0.046875 -0.078125 -0.046875 -0.171875l0 -12.203125q0 -0.09375 0.046875 -0.15625q0.0625 -0.078125 0.1875 -0.125q0.140625 -0.0625 0.359375 -0.09375q0.234375 -0.03125 0.578125 -0.03125q0.34375 0 0.5625 0.03125q0.21875 0.03125 0.34375 0.09375q0.140625 0.046875 0.1875 0.125q0.0625 0.0625 0.0625 0.15625l0 4.578125q0.328125 -0.3125 0.640625 -0.53125q0.3125 -0.234375 0.625 -0.375q0.3125 -0.140625 0.640625 -0.203125q0.34375 -0.078125 0.71875 -0.078125q0.921875 0 1.5625 0.375q0.640625 0.359375 1.03125 0.984375q0.40625 0.625 0.59375 1.453125q0.1875 0.828125 0.1875 1.75zm-2.421875 0.171875q0 -0.53125 -0.078125 -1.015625q-0.078125 -0.5 -0.28125 -0.875q-0.1875 -0.390625 -0.5 -0.609375q-0.3125 -0.234375 -0.78125 -0.234375q-0.234375 0 -0.453125 0.0625q-0.21875 0.0625 -0.46875 0.21875q-0.234375 0.15625 -0.484375 0.421875q-0.25 0.25 -0.53125 0.609375l0 2.75q0.5 0.625 0.953125 0.96875q0.453125 0.328125 0.9375 0.328125q0.453125 0 0.765625 -0.234375q0.3125 -0.234375 0.515625 -0.609375q0.21875 -0.375 0.3125 -0.84375q0.09375 -0.46875 0.09375 -0.9375zm12.464447 -0.140625q0 1.046875 -0.28125 1.921875q-0.265625 0.875 -0.84375 1.515625q-0.5625 0.625 -1.421875 0.96875q-0.84375 0.34375 -1.984375 0.34375q-1.109375 0 -1.921875 -0.3125q-0.8125 -0.3125 -1.359375 -0.890625q-0.53125 -0.578125 -0.796875 -1.4375q-0.25 -0.859375 -0.25 -1.953125q0 -1.046875 0.28125 -1.921875q0.28125 -0.890625 0.84375 -1.515625q0.5625 -0.625 1.40625 -0.96875q0.859375 -0.34375 2.0 -0.34375q1.109375 0 1.921875 0.3125q0.828125 0.296875 1.359375 0.890625q0.53125 0.578125 0.78125 1.4375q0.265625 0.84375 0.265625 1.953125zm-2.390625 0.09375q0 -0.625 -0.109375 -1.140625q-0.09375 -0.515625 -0.328125 -0.890625q-0.234375 -0.375 -0.625 -0.59375q-0.375 -0.21875 -0.953125 -0.21875q-0.515625 0 -0.90625 0.203125q-0.390625 0.1875 -0.640625 0.5625q-0.25 0.359375 -0.375 0.875q-0.125 0.515625 -0.125 1.171875q0 0.609375 0.09375 1.125q0.109375 0.515625 0.328125 0.90625q0.234375 0.375 0.625 0.578125q0.390625 0.203125 0.953125 0.203125q0.53125 0 0.921875 -0.1875q0.390625 -0.1875 0.640625 -0.546875q0.25 -0.359375 0.375 -0.875q0.125 -0.515625 0.125 -1.171875zm11.248322 3.953125q0.078125 0.15625 0.0625 0.265625q0 0.09375 -0.125 0.171875q-0.125 0.0625 -0.40625 0.078125q-0.265625 0.03125 -0.703125 0.03125q-0.421875 0 -0.6875 -0.015625q-0.25 -0.015625 -0.390625 -0.0625q-0.140625 -0.046875 -0.21875 -0.09375q-0.0625 -0.0625 -0.09375 -0.15625l-1.53125 -2.9375l-1.53125 2.9375q-0.046875 0.09375 -0.109375 0.15625q-0.0625 0.046875 -0.203125 0.09375q-0.125 0.046875 -0.375 0.0625q-0.234375 0.015625 -0.625 0.015625q-0.40625 0 -0.65625 -0.03125q-0.234375 -0.015625 -0.34375 -0.078125q-0.109375 -0.078125 -0.125 -0.171875q0 -0.109375 0.078125 -0.265625l2.296875 -4.078125l-2.109375 -3.8125q-0.09375 -0.171875 -0.09375 -0.28125q0 -0.125 0.109375 -0.1875q0.125 -0.0625 0.390625 -0.09375q0.265625 -0.03125 0.71875 -0.03125q0.40625 0 0.65625 0.015625q0.25 0.015625 0.375 0.046875q0.140625 0.03125 0.203125 0.09375q0.078125 0.046875 0.125 0.140625l1.46875 2.765625l1.46875 -2.765625q0.03125 -0.0625 0.078125 -0.109375q0.0625 -0.0625 0.171875 -0.09375q0.125 -0.046875 0.328125 -0.0625q0.21875 -0.03125 0.578125 -0.03125q0.40625 0 0.65625 0.03125q0.25 0.015625 0.34375 0.078125q0.109375 0.0625 0.109375 0.1875q0 0.109375 -0.109375 0.296875l-2.046875 3.75l2.265625 4.140625zm10.914734 -7.34375q0 0.34375 -0.015625 0.5625q-0.015625 0.203125 -0.0625 0.328125q-0.03125 0.125 -0.09375 0.171875q-0.0625 0.046875 -0.15625 0.046875q-0.0625 0 -0.15625 -0.03125q-0.09375 -0.046875 -0.21875 -0.078125q-0.109375 -0.03125 -0.25 -0.0625q-0.140625 -0.046875 -0.3125 -0.046875q-0.1875 0 -0.390625 0.09375q-0.1875 0.078125 -0.40625 0.25q-0.203125 0.15625 -0.4375 0.4375q-0.21875 0.28125 -0.484375 0.6875l0 5.15625q0 0.09375 -0.0625 0.171875q-0.046875 0.0625 -0.1875 0.109375q-0.125 0.046875 -0.34375 0.0625q-0.21875 0.03125 -0.5625 0.03125q-0.34375 0 -0.578125 -0.03125q-0.21875 -0.015625 -0.359375 -0.0625q-0.125 -0.046875 -0.1875 -0.109375q-0.046875 -0.078125 -0.046875 -0.171875l0 -8.28125q0 -0.09375 0.046875 -0.15625q0.046875 -0.078125 0.15625 -0.125q0.125 -0.046875 0.3125 -0.0625q0.203125 -0.03125 0.484375 -0.03125q0.296875 0 0.484375 0.03125q0.203125 0.015625 0.3125 0.0625q0.109375 0.046875 0.140625 0.125q0.046875 0.0625 0.046875 0.15625l0 1.03125q0.328125 -0.46875 0.609375 -0.765625q0.296875 -0.296875 0.546875 -0.46875q0.265625 -0.1875 0.53125 -0.25q0.265625 -0.078125 0.515625 -0.078125q0.125 0 0.265625 0.015625q0.140625 0.015625 0.28125 0.046875q0.15625 0.03125 0.265625 0.078125q0.109375 0.046875 0.15625 0.09375q0.0625 0.046875 0.078125 0.109375q0.015625 0.046875 0.03125 0.140625q0.03125 0.09375 0.03125 0.296875q0.015625 0.1875 0.015625 0.515625zm8.959839 3.140625q0 0.421875 -0.1875 0.625q-0.1875 0.203125 -0.53125 0.203125l-5.03125 0q0 0.53125 0.125 0.96875q0.125 0.421875 0.390625 0.734375q0.28125 0.296875 0.703125 0.453125q0.4375 0.15625 1.046875 0.15625q0.609375 0 1.0625 -0.078125q0.46875 -0.09375 0.8125 -0.203125q0.34375 -0.109375 0.5625 -0.1875q0.21875 -0.09375 0.359375 -0.09375q0.078125 0 0.140625 0.03125q0.0625 0.03125 0.09375 0.109375q0.03125 0.078125 0.046875 0.234375q0.015625 0.15625 0.015625 0.390625q0 0.203125 -0.015625 0.34375q0 0.140625 -0.015625 0.25q-0.015625 0.09375 -0.0625 0.171875q-0.03125 0.0625 -0.09375 0.140625q-0.0625 0.0625 -0.328125 0.171875q-0.265625 0.109375 -0.6875 0.21875q-0.421875 0.109375 -0.96875 0.1875q-0.53125 0.078125 -1.140625 0.078125q-1.09375 0 -1.9375 -0.28125q-0.828125 -0.28125 -1.390625 -0.84375q-0.546875 -0.5625 -0.828125 -1.421875q-0.265625 -0.875 -0.265625 -2.03125q0 -1.109375 0.28125 -1.984375q0.296875 -0.890625 0.84375 -1.5q0.546875 -0.625 1.328125 -0.953125q0.78125 -0.328125 1.765625 -0.328125q1.046875 0 1.78125 0.3125q0.734375 0.3125 1.203125 0.859375q0.484375 0.53125 0.703125 1.28125q0.21875 0.734375 0.21875 1.609375l0 0.375zm-2.265625 -0.671875q0.03125 -0.984375 -0.390625 -1.546875q-0.421875 -0.5625 -1.296875 -0.5625q-0.453125 0 -0.78125 0.171875q-0.328125 0.15625 -0.546875 0.453125q-0.21875 0.28125 -0.34375 0.671875q-0.109375 0.375 -0.125 0.8125l3.484375 0zm11.470001 -2.65625q0 0.4375 -0.109375 0.65625q-0.09375 0.21875 -0.234375 0.21875l-0.984375 0q0.203125 0.21875 0.296875 0.5q0.09375 0.28125 0.09375 0.59375q0 0.71875 -0.25 1.28125q-0.234375 0.5625 -0.6875 0.953125q-0.453125 0.375 -1.09375 0.578125q-0.625 0.203125 -1.40625 0.203125q-0.40625 0 -0.765625 -0.09375q-0.359375 -0.109375 -0.546875 -0.234375q-0.109375 0.125 -0.203125 0.296875q-0.09375 0.15625 -0.09375 0.359375q0 0.265625 0.234375 0.4375q0.25 0.171875 0.671875 0.203125l2.015625 0.0625q0.703125 0.03125 1.25 0.203125q0.546875 0.171875 0.921875 0.484375q0.390625 0.3125 0.578125 0.75q0.203125 0.4375 0.203125 0.984375q0 0.625 -0.265625 1.15625q-0.265625 0.546875 -0.8125 0.9375q-0.53125 0.40625 -1.34375 0.640625q-0.8125 0.234375 -1.90625 0.234375q-1.046875 0 -1.796875 -0.171875q-0.75 -0.171875 -1.234375 -0.46875q-0.46875 -0.296875 -0.6875 -0.703125q-0.21875 -0.40625 -0.21875 -0.90625q0 -0.3125 0.078125 -0.59375q0.078125 -0.265625 0.234375 -0.53125q0.15625 -0.25 0.375 -0.484375q0.21875 -0.234375 0.515625 -0.4375q-0.40625 -0.21875 -0.625 -0.578125q-0.21875 -0.375 -0.21875 -0.8125q0 -0.546875 0.25 -0.984375q0.25 -0.453125 0.65625 -0.8125q-0.328125 -0.328125 -0.53125 -0.78125q-0.1875 -0.453125 -0.1875 -1.140625q0 -0.71875 0.25 -1.28125q0.265625 -0.578125 0.71875 -0.96875q0.453125 -0.40625 1.078125 -0.609375q0.640625 -0.203125 1.390625 -0.203125q0.390625 0 0.75 0.046875q0.359375 0.046875 0.671875 0.125l2.625 0q0.15625 0 0.25 0.203125q0.09375 0.203125 0.09375 0.6875zm-3.0 1.953125q0 -0.65625 -0.375 -1.03125q-0.359375 -0.375 -1.03125 -0.375q-0.34375 0 -0.609375 0.125q-0.265625 0.109375 -0.4375 0.3125q-0.171875 0.1875 -0.25 0.453125q-0.078125 0.265625 -0.078125 0.5625q0 0.625 0.359375 1.0q0.375 0.359375 1.03125 0.359375q0.359375 0 0.609375 -0.109375q0.265625 -0.109375 0.4375 -0.296875q0.171875 -0.203125 0.25 -0.453125q0.09375 -0.265625 0.09375 -0.546875zm0.546875 6.609375q0 -0.421875 -0.328125 -0.640625q-0.328125 -0.21875 -0.921875 -0.234375l-1.65625 -0.046875q-0.234375 0.171875 -0.390625 0.34375q-0.140625 0.15625 -0.234375 0.296875q-0.078125 0.15625 -0.109375 0.296875q-0.03125 0.140625 -0.03125 0.28125q0 0.46875 0.46875 0.703125q0.46875 0.25 1.328125 0.25q0.53125 0 0.890625 -0.109375q0.359375 -0.109375 0.578125 -0.296875q0.234375 -0.171875 0.3125 -0.390625q0.09375 -0.21875 0.09375 -0.453125zm9.157837 -8.375q0 0.34375 -0.015625 0.5625q-0.015625 0.203125 -0.0625 0.328125q-0.03125 0.125 -0.09375 0.171875q-0.0625 0.046875 -0.15625 0.046875q-0.0625 0 -0.15625 -0.03125q-0.09375 -0.046875 -0.21875 -0.078125q-0.109375 -0.03125 -0.25 -0.0625q-0.140625 -0.046875 -0.3125 -0.046875q-0.1875 0 -0.390625 0.09375q-0.1875 0.078125 -0.40625 0.25q-0.203125 0.15625 -0.4375 0.4375q-0.21875 0.28125 -0.484375 0.6875l0 5.15625q0 0.09375 -0.0625 0.171875q-0.046875 0.0625 -0.1875 0.109375q-0.125 0.046875 -0.34375 0.0625q-0.21875 0.03125 -0.5625 0.03125q-0.34375 0 -0.578125 -0.03125q-0.21875 -0.015625 -0.359375 -0.0625q-0.125 -0.046875 -0.1875 -0.109375q-0.046875 -0.078125 -0.046875 -0.171875l0 -8.28125q0 -0.09375 0.046875 -0.15625q0.046875 -0.078125 0.15625 -0.125q0.125 -0.046875 0.3125 -0.0625q0.203125 -0.03125 0.484375 -0.03125q0.296875 0 0.484375 0.03125q0.203125 0.015625 0.3125 0.0625q0.109375 0.046875 0.140625 0.125q0.046875 0.0625 0.046875 0.15625l0 1.03125q0.328125 -0.46875 0.609375 -0.765625q0.296875 -0.296875 0.546875 -0.46875q0.265625 -0.1875 0.53125 -0.25q0.265625 -0.078125 0.515625 -0.078125q0.125 0 0.265625 0.015625q0.140625 0.015625 0.28125 0.046875q0.15625 0.03125 0.265625 0.078125q0.109375 0.046875 0.15625 0.09375q0.0625 0.046875 0.078125 0.109375q0.015625 0.046875 0.03125 0.140625q0.03125 0.09375 0.03125 0.296875q0.015625 0.1875 0.015625 0.515625zm8.959839 3.140625q0 0.421875 -0.1875 0.625q-0.1875 0.203125 -0.53125 0.203125l-5.03125 0q0 0.53125 0.125 0.96875q0.125 0.421875 0.390625 0.734375q0.28125 0.296875 0.703125 0.453125q0.4375 0.15625 1.046875 0.15625q0.609375 0 1.0625 -0.078125q0.46875 -0.09375 0.8125 -0.203125q0.34375 -0.109375 0.5625 -0.1875q0.21875 -0.09375 0.359375 -0.09375q0.078125 0 0.140625 0.03125q0.0625 0.03125 0.09375 0.109375q0.03125 0.078125 0.046875 0.234375q0.015625 0.15625 0.015625 0.390625q0 0.203125 -0.015625 0.34375q0 0.140625 -0.015625 0.25q-0.015625 0.09375 -0.0625 0.171875q-0.03125 0.0625 -0.09375 0.140625q-0.0625 0.0625 -0.328125 0.171875q-0.265625 0.109375 -0.6875 0.21875q-0.421875 0.109375 -0.96875 0.1875q-0.53125 0.078125 -1.140625 0.078125q-1.09375 0 -1.9375 -0.28125q-0.828125 -0.28125 -1.390625 -0.84375q-0.546875 -0.5625 -0.828125 -1.421875q-0.265625 -0.875 -0.265625 -2.03125q0 -1.109375 0.28125 -1.984375q0.296875 -0.890625 0.84375 -1.5q0.546875 -0.625 1.328125 -0.953125q0.78125 -0.328125 1.765625 -0.328125q1.046875 0 1.78125 0.3125q0.734375 0.3125 1.203125 0.859375q0.484375 0.53125 0.703125 1.28125q0.21875 0.734375 0.21875 1.609375l0 0.375zm-2.265625 -0.671875q0.03125 -0.984375 -0.390625 -1.546875q-0.421875 -0.5625 -1.296875 -0.5625q-0.453125 0 -0.78125 0.171875q-0.328125 0.15625 -0.546875 0.453125q-0.21875 0.28125 -0.34375 0.671875q-0.109375 0.375 -0.125 0.8125l3.484375 0zm9.845001 2.703125q0 0.703125 -0.265625 1.25q-0.265625 0.53125 -0.75 0.890625q-0.484375 0.359375 -1.140625 0.546875q-0.65625 0.1875 -1.421875 0.1875q-0.46875 0 -0.890625 -0.078125q-0.421875 -0.0625 -0.765625 -0.171875q-0.328125 -0.109375 -0.546875 -0.21875q-0.21875 -0.109375 -0.328125 -0.203125q-0.109375 -0.109375 -0.171875 -0.3125q-0.046875 -0.203125 -0.046875 -0.609375q0 -0.28125 0.015625 -0.4375q0.03125 -0.15625 0.0625 -0.25q0.03125 -0.109375 0.09375 -0.140625q0.0625 -0.03125 0.140625 -0.03125q0.09375 0 0.296875 0.125q0.203125 0.109375 0.5 0.25q0.296875 0.140625 0.6875 0.265625q0.390625 0.109375 0.90625 0.109375q0.3125 0 0.546875 -0.0625q0.25 -0.0625 0.421875 -0.1875q0.1875 -0.125 0.28125 -0.3125q0.09375 -0.1875 0.09375 -0.421875q0 -0.28125 -0.171875 -0.46875q-0.171875 -0.203125 -0.453125 -0.34375q-0.28125 -0.15625 -0.640625 -0.28125q-0.359375 -0.140625 -0.734375 -0.296875q-0.375 -0.15625 -0.734375 -0.359375q-0.34375 -0.203125 -0.640625 -0.5q-0.28125 -0.296875 -0.453125 -0.71875q-0.171875 -0.421875 -0.171875 -1.0q0 -0.59375 0.234375 -1.09375q0.234375 -0.5 0.671875 -0.84375q0.4375 -0.359375 1.0625 -0.546875q0.625 -0.203125 1.40625 -0.203125q0.390625 0 0.75 0.0625q0.375 0.046875 0.671875 0.140625q0.296875 0.078125 0.5 0.1875q0.203125 0.09375 0.28125 0.171875q0.09375 0.0625 0.125 0.125q0.046875 0.0625 0.0625 0.171875q0.015625 0.09375 0.03125 0.234375q0.015625 0.140625 0.015625 0.359375q0 0.25 -0.015625 0.40625q-0.015625 0.15625 -0.046875 0.25q-0.03125 0.09375 -0.09375 0.125q-0.046875 0.03125 -0.125 0.03125q-0.078125 0 -0.265625 -0.09375q-0.171875 -0.09375 -0.4375 -0.203125q-0.265625 -0.125 -0.609375 -0.21875q-0.34375 -0.09375 -0.796875 -0.09375q-0.3125 0 -0.546875 0.0625q-0.21875 0.0625 -0.375 0.1875q-0.140625 0.125 -0.21875 0.296875q-0.078125 0.15625 -0.078125 0.328125q0 0.296875 0.171875 0.5q0.1875 0.1875 0.46875 0.34375q0.28125 0.140625 0.640625 0.265625q0.375 0.125 0.75 0.28125q0.375 0.15625 0.734375 0.359375q0.375 0.203125 0.65625 0.5q0.296875 0.296875 0.46875 0.71875q0.1875 0.40625 0.1875 0.96875zm7.4424744 0q0 0.703125 -0.265625 1.25q-0.265625 0.53125 -0.75 0.890625q-0.484375 0.359375 -1.140625 0.546875q-0.65625 0.1875 -1.421875 0.1875q-0.46875 0 -0.890625 -0.078125q-0.421875 -0.0625 -0.765625 -0.171875q-0.328125 -0.109375 -0.546875 -0.21875q-0.21875 -0.109375 -0.328125 -0.203125q-0.109375 -0.109375 -0.171875 -0.3125q-0.046875 -0.203125 -0.046875 -0.609375q0 -0.28125 0.015625 -0.4375q0.03125 -0.15625 0.0625 -0.25q0.03125 -0.109375 0.09375 -0.140625q0.0625 -0.03125 0.140625 -0.03125q0.09375 0 0.296875 0.125q0.203125 0.109375 0.5 0.25q0.296875 0.140625 0.6875 0.265625q0.390625 0.109375 0.90625 0.109375q0.3125 0 0.546875 -0.0625q0.25 -0.0625 0.421875 -0.1875q0.1875 -0.125 0.28125 -0.3125q0.09375 -0.1875 0.09375 -0.421875q0 -0.28125 -0.171875 -0.46875q-0.171875 -0.203125 -0.453125 -0.34375q-0.28125 -0.15625 -0.640625 -0.28125q-0.359375 -0.140625 -0.734375 -0.296875q-0.375 -0.15625 -0.734375 -0.359375q-0.34375 -0.203125 -0.640625 -0.5q-0.28125 -0.296875 -0.453125 -0.71875q-0.171875 -0.421875 -0.171875 -1.0q0 -0.59375 0.234375 -1.09375q0.234375 -0.5 0.671875 -0.84375q0.4375 -0.359375 1.0625 -0.546875q0.625 -0.203125 1.40625 -0.203125q0.390625 0 0.75 0.0625q0.375 0.046875 0.671875 0.140625q0.296875 0.078125 0.5 0.1875q0.203125 0.09375 0.28125 0.171875q0.09375 0.0625 0.125 0.125q0.046875 0.0625 0.0625 0.171875q0.015625 0.09375 0.03125 0.234375q0.015625 0.140625 0.015625 0.359375q0 0.25 -0.015625 0.40625q-0.015625 0.15625 -0.046875 0.25q-0.03125 0.09375 -0.09375 0.125q-0.046875 0.03125 -0.125 0.03125q-0.078125 0 -0.265625 -0.09375q-0.171875 -0.09375 -0.4375 -0.203125q-0.265625 -0.125 -0.609375 -0.21875q-0.34375 -0.09375 -0.796875 -0.09375q-0.3125 0 -0.546875 0.0625q-0.21875 0.0625 -0.375 0.1875q-0.140625 0.125 -0.21875 0.296875q-0.078125 0.15625 -0.078125 0.328125q0 0.296875 0.171875 0.5q0.1875 0.1875 0.46875 0.34375q0.28125 0.140625 0.640625 0.265625q0.375 0.125 0.75 0.28125q0.375 0.15625 0.734375 0.359375q0.375 0.203125 0.65625 0.5q0.296875 0.296875 0.46875 0.71875q0.1875 0.40625 0.1875 0.96875zm9.973694 -1.875q0 1.046875 -0.28125 1.921875q-0.265625 0.875 -0.84375 1.515625q-0.5625 0.625 -1.421875 0.96875q-0.84375 0.34375 -1.984375 0.34375q-1.109375 0 -1.921875 -0.3125q-0.8125 -0.3125 -1.359375 -0.890625q-0.53125 -0.578125 -0.796875 -1.4375q-0.25 -0.859375 -0.25 -1.953125q0 -1.046875 0.28125 -1.921875q0.28125 -0.890625 0.84375 -1.515625q0.5625 -0.625 1.40625 -0.96875q0.859375 -0.34375 2.0 -0.34375q1.109375 0 1.921875 0.3125q0.828125 0.296875 1.359375 0.890625q0.53125 0.578125 0.78125 1.4375q0.265625 0.84375 0.265625 1.953125zm-2.390625 0.09375q0 -0.625 -0.109375 -1.140625q-0.09375 -0.515625 -0.328125 -0.890625q-0.234375 -0.375 -0.625 -0.59375q-0.375 -0.21875 -0.953125 -0.21875q-0.515625 0 -0.90625 0.203125q-0.390625 0.1875 -0.640625 0.5625q-0.25 0.359375 -0.375 0.875q-0.125 0.515625 -0.125 1.171875q0 0.609375 0.09375 1.125q0.109375 0.515625 0.328125 0.90625q0.234375 0.375 0.625 0.578125q0.390625 0.203125 0.953125 0.203125q0.53125 0 0.921875 -0.1875q0.390625 -0.1875 0.640625 -0.546875q0.25 -0.359375 0.375 -0.875q0.125 -0.515625 0.125 -1.171875zm9.373322 -3.390625q0 0.34375 -0.015625 0.5625q-0.015625 0.203125 -0.0625 0.328125q-0.03125 0.125 -0.09375 0.171875q-0.0625 0.046875 -0.15625 0.046875q-0.0625 0 -0.15625 -0.03125q-0.09375 -0.046875 -0.21875 -0.078125q-0.109375 -0.03125 -0.25 -0.0625q-0.140625 -0.046875 -0.3125 -0.046875q-0.1875 0 -0.390625 0.09375q-0.1875 0.078125 -0.40625 0.25q-0.203125 0.15625 -0.4375 0.4375q-0.21875 0.28125 -0.484375 0.6875l0 5.15625q0 0.09375 -0.0625 0.171875q-0.046875 0.0625 -0.1875 0.109375q-0.125 0.046875 -0.34375 0.0625q-0.21875 0.03125 -0.5625 0.03125q-0.34375 0 -0.578125 -0.03125q-0.21875 -0.015625 -0.359375 -0.0625q-0.125 -0.046875 -0.1875 -0.109375q-0.046875 -0.078125 -0.046875 -0.171875l0 -8.28125q0 -0.09375 0.046875 -0.15625q0.046875 -0.078125 0.15625 -0.125q0.125 -0.046875 0.3125 -0.0625q0.203125 -0.03125 0.484375 -0.03125q0.296875 0 0.484375 0.03125q0.203125 0.015625 0.3125 0.0625q0.109375 0.046875 0.140625 0.125q0.046875 0.0625 0.046875 0.15625l0 1.03125q0.328125 -0.46875 0.609375 -0.765625q0.296875 -0.296875 0.546875 -0.46875q0.265625 -0.1875 0.53125 -0.25q0.265625 -0.078125 0.515625 -0.078125q0.125 0 0.265625 0.015625q0.140625 0.015625 0.28125 0.046875q0.15625 0.03125 0.265625 0.078125q0.109375 0.046875 0.15625 0.09375q0.0625 0.046875 0.078125 0.109375q0.015625 0.046875 0.03125 0.140625q0.03125 0.09375 0.03125 0.296875q0.015625 0.1875 0.015625 0.515625z" fill-rule="nonzero"></path><path fill="#000000" fill-opacity="0.0" d="m520.96594 83.03937l25.001404 0l0 122.24356l-499.82953 0l0 122.22888l25.00137 0" fill-rule="evenodd"></path><path stroke="#000000" stroke-width="1.0" stroke-linejoin="round" stroke-linecap="butt" d="m520.96594 83.03937l25.001343 0l0 122.24356l-499.82947 0l0 122.22888l19.001377 0" fill-rule="evenodd"></path><path fill="#000000" stroke="#000000" stroke-width="1.0" stroke-linecap="butt" d="m65.13918 329.16354l4.5380936 -1.6517334l-4.5380936 -1.6517334z" fill-rule="evenodd"></path><path fill="#000000" fill-opacity="0.0" d="m349.64728 327.52618l16.50888 0l0 -60.724396l16.498993 0" fill-rule="evenodd"></path><path stroke="#000000" stroke-width="1.0" stroke-linejoin="round" stroke-linecap="butt" d="m349.64728 327.52618l16.50888 0l0 -60.724396l10.498993 0" fill-rule="evenodd"></path><path fill="#000000" stroke="#000000" stroke-width="1.0" stroke-linecap="butt" d="m376.65515 268.45352l4.538086 -1.6517334l-4.538086 -1.6517334z" fill-rule="evenodd"></path><path fill="#000000" fill-opacity="0.0" d="m349.64728 327.52618l16.50888 0l0 70.86615l16.498993 0" fill-rule="evenodd"></path><path stroke="#000000" stroke-width="1.0" stroke-linejoin="round" stroke-linecap="butt" d="m349.64728 327.52618l16.50888 0l0 70.86615l10.498993 0" fill-rule="evenodd"></path><path fill="#000000" stroke="#000000" stroke-width="1.0" stroke-linecap="butt" d="m376.65515 400.04407l4.538086 -1.6517334l-4.538086 -1.6517334z" fill-rule="evenodd"></path><path fill="#000000" fill-opacity="0.0" d="m286.94882 83.03937l113.41733 0" fill-rule="evenodd"></path><path stroke="#000000" stroke-width="1.0" stroke-linejoin="round" stroke-linecap="butt" d="m286.94882 83.03937l107.41733 0" fill-rule="evenodd"></path><path fill="#000000" stroke="#000000" stroke-width="1.0" stroke-linecap="butt" d="m394.36615 84.6911l4.538086 -1.6517334l-4.538086 -1.6517334z" fill-rule="evenodd"></path></g></svg>

