<svg version="1.1" viewBox="0.0 0.0 892.8057742782153 732.7979002624672" fill="none" stroke="none" stroke-linecap="square" stroke-miterlimit="10" xmlns:xlink="http://www.w3.org/1999/xlink" xmlns="http://www.w3.org/2000/svg"><clipPath id="p.0"><path d="m0 0l892.8058 0l0 732.7979l-892.8058 0l0 -732.7979z" clip-rule="nonzero"/></clipPath><g clip-path="url(#p.0)"><path fill="#000000" fill-opacity="0.0" d="m0 0l892.8058 0l0 732.7979l-892.8058 0z" fill-rule="evenodd"/><path fill="#d9ead3" d="m89.96588 235.40306l0 0c0 -41.020645 33.2538 -74.274445 74.274445 -74.274445l558.1283 0c19.698792 0 38.59082 7.8253174 52.51996 21.75447c13.929199 13.929169 21.754517 32.821167 21.754517 52.519974l0 297.08887c0 41.02063 -33.253845 74.274475 -74.274475 74.274475l-558.1283 0c-41.020645 0 -74.274445 -33.253845 -74.274445 -74.274475z" fill-rule="evenodd"/><path stroke="#274e13" stroke-width="3.0" stroke-linejoin="round" stroke-linecap="butt" d="m89.96588 235.40306l0 0c0 -41.020645 33.2538 -74.274445 74.274445 -74.274445l558.1283 0c19.698792 0 38.59082 7.8253174 52.51996 21.75447c13.929199 13.929169 21.754517 32.821167 21.754517 52.519974l0 297.08887c0 41.02063 -33.253845 74.274475 -74.274475 74.274475l-558.1283 0c-41.020645 0 -74.274445 -33.253845 -74.274445 -74.274475z" fill-rule="evenodd"/><path fill="#000000" fill-opacity="0.0" d="m1.6666666 382.66666l83.68504 0" fill-rule="evenodd"/><path stroke="#000000" stroke-width="2.0" stroke-linejoin="round" stroke-linecap="butt" d="m1.6666666 382.66666l71.68504 0" fill-rule="evenodd"/><path fill="#000000" stroke="#000000" stroke-width="2.0" stroke-linecap="butt" d="m73.35171 385.97012l9.076195 -3.3034668l-9.076195 -3.3034668z" fill-rule="evenodd"/><path fill="#000000" fill-opacity="0.0" d="m10.254593 335.39108l60.598427 0l0 51.275574l-60.598427 0z" fill-rule="evenodd"/><path fill="#000000" d="m34.192093 364.4936q0 0.890625 0.078125 1.234375q0.078125 0.328125 0.3125 0.5625q0.234375 0.21875 0.859375 0.359375l0 0.78125l-6.125 0l0 -0.78125q0.6875 -0.171875 0.875 -0.34375q0.203125 -0.171875 0.28125 -0.5q0.09375 -0.328125 0.09375 -1.3125l0 -4.703125l-5.296875 0l0 4.703125q0 0.40625 0.015625 0.765625q0.03125 0.34375 0.09375 0.5625q0.078125 0.21875 0.203125 0.375q0.140625 0.15625 0.375 0.265625q0.234375 0.109375 0.578125 0.1875l0 0.78125l-6.15625 0l0 -0.78125q0.4375 -0.109375 0.6875 -0.234375q0.25 -0.140625 0.375 -0.375q0.125 -0.25 0.15625 -0.609375q0.03125 -0.375 0.03125 -0.9375l0 -10.109375q0 -0.546875 -0.03125 -0.921875q-0.015625 -0.375 -0.140625 -0.609375q-0.125 -0.234375 -0.375 -0.375q-0.25 -0.15625 -0.703125 -0.265625l0 -0.78125l6.15625 0l0 0.78125q-0.625 0.171875 -0.859375 0.390625q-0.21875 0.203125 -0.3125 0.546875q-0.09375 0.34375 -0.09375 1.25l0 3.90625l5.296875 0l0 -3.90625q0 -0.890625 -0.078125 -1.234375q-0.078125 -0.34375 -0.3125 -0.5625q-0.21875 -0.21875 -0.859375 -0.390625l0 -0.78125l6.125 0l0 0.78125q-0.515625 0.140625 -0.75 0.296875q-0.234375 0.15625 -0.34375 0.40625q-0.09375 0.234375 -0.125 0.546875q-0.03125 0.296875 -0.03125 0.9375l0 10.09375z" fill-rule="nonzero"/><path fill="#000000" d="m42.59053 375.4936q-0.6875 0.578125 -1.25 0.828125q-0.5625 0.234375 -1.1875 0.234375q-1.15625 0 -1.734375 -0.625q-0.578125 -0.640625 -0.578125 -1.90625l0 -4.375l-0.96875 0l0 -0.53125q0.46875 -0.078125 0.6875 -0.234375q0.234375 -0.15625 0.359375 -0.421875q0.125 -0.265625 0.203125 -0.6875q0.078125 -0.421875 0.109375 -1.046875l1.875 0l0 1.953125l2.21875 0l0 0.96875l-2.21875 0l0 3.53125q0 0.875 0.078125 1.296875q0.078125 0.421875 0.265625 0.625q0.203125 0.203125 0.5 0.203125q0.21875 0 0.390625 -0.03125q0.171875 -0.046875 0.359375 -0.140625q0.1875 -0.109375 0.40625 -0.296875l0.484375 0.65625zm4.375 -2.515625l-3.703125 0l0 -1.640625l3.703125 0l0 1.640625zm7.109375 1.265625q0 0.453125 0.046875 0.6875q0.0625 0.234375 0.1875 0.375q0.125 0.140625 0.359375 0.234375q0.25 0.078125 0.609375 0.125q0.375 0.03125 0.984375 0.046875l0 0.71875l-6.75 0l0 -0.71875q0.875 -0.03125 1.234375 -0.09375q0.375 -0.078125 0.5625 -0.203125q0.203125 -0.140625 0.296875 -0.375q0.09375 -0.25 0.09375 -0.796875l0 -5.640625q0 -0.328125 -0.125 -0.46875q-0.125 -0.140625 -0.328125 -0.140625q-0.203125 0 -0.5625 0.1875q-0.34375 0.171875 -1.15625 0.734375l-0.484375 -0.828125l4.078125 -2.453125l1.0 0q-0.046875 0.75 -0.046875 2.078125l0 6.53125z" fill-rule="nonzero"/><path fill="#cfe2f3" d="m134.25197 684.28345l0 0c0 -20.3432 16.49144 -36.834656 36.83464 -36.834656l0 0c9.769165 0 19.138199 3.8807983 26.046036 10.788635c6.907837 6.907837 10.78862 16.276855 10.78862 26.04602l0 0c0 20.3432 -16.49144 36.834656 -36.834656 36.834656l0 0c-20.3432 0 -36.83464 -16.491455 -36.83464 -36.834656z" fill-rule="evenodd"/><path stroke="#000000" stroke-width="1.0" stroke-linejoin="round" stroke-linecap="butt" d="m134.25197 684.28345l0 0c0 -20.3432 16.49144 -36.834656 36.83464 -36.834656l0 0c9.769165 0 19.138199 3.8807983 26.046036 10.788635c6.907837 6.907837 10.78862 16.276855 10.78862 26.04602l0 0c0 20.3432 -16.49144 36.834656 -36.834656 36.834656l0 0c-20.3432 0 -36.83464 -16.491455 -36.83464 -36.834656z" fill-rule="evenodd"/><path fill="#000000" d="m167.81903 676.8235l0 0.78125q-0.546875 0.046875 -0.78125 0.25q-0.21875 0.1875 -0.21875 0.59375q0 0.1875 0.078125 0.453125q0.078125 0.25 0.265625 0.609375q0.1875 0.34375 0.640625 1.09375l1.078125 1.8125l1.421875 -2.09375q0.46875 -0.6875 0.625 -1.046875q0.15625 -0.375 0.15625 -0.796875q0 -0.375 -0.265625 -0.59375q-0.25 -0.234375 -0.703125 -0.28125l0 -0.78125l4.84375 0l0 0.78125q-0.34375 0.09375 -0.65625 0.3125q-0.296875 0.203125 -0.703125 0.671875q-0.390625 0.46875 -1.265625 1.734375l-2.53125 3.609375l3.8125 6.296875q0.203125 0.3125 0.40625 0.625q0.203125 0.3125 0.390625 0.5625q0.203125 0.234375 0.34375 0.359375q0.15625 0.109375 0.296875 0.171875q0.140625 0.0625 0.296875 0.09375l0 0.78125l-6.515625 0l0 -0.78125q0.515625 -0.046875 0.75 -0.234375q0.25 -0.1875 0.25 -0.609375q0 -0.140625 -0.046875 -0.296875q-0.03125 -0.171875 -0.140625 -0.40625q-0.09375 -0.234375 -0.203125 -0.40625q-0.09375 -0.1875 -0.390625 -0.703125l-1.625 -2.6875l-1.921875 2.828125q-0.21875 0.34375 -0.375 0.625q-0.140625 0.28125 -0.203125 0.515625q-0.0625 0.234375 -0.0625 0.546875q0 0.3125 0.25 0.546875q0.25 0.234375 0.71875 0.28125l0 0.78125l-4.84375 0l0 -0.78125q0.390625 -0.109375 0.703125 -0.34375q0.328125 -0.25 0.703125 -0.703125q0.390625 -0.453125 1.046875 -1.421875l3.0625 -4.375l-2.953125 -4.921875q-0.484375 -0.796875 -0.828125 -1.3125q-0.34375 -0.53125 -0.578125 -0.796875q-0.234375 -0.28125 -0.421875 -0.390625q-0.171875 -0.125 -0.421875 -0.171875l0 -0.78125l6.515625 0z" fill-rule="nonzero"/><path fill="#000000" d="m181.60419 700.886q-0.6875 0.578125 -1.25 0.828125q-0.5625 0.234375 -1.1875 0.234375q-1.15625 0 -1.734375 -0.625q-0.578125 -0.640625 -0.578125 -1.90625l0 -4.375l-0.96875 0l0 -0.53125q0.46875 -0.078125 0.6875 -0.234375q0.234375 -0.15625 0.359375 -0.421875q0.125 -0.265625 0.203125 -0.6875q0.078125 -0.421875 0.109375 -1.046875l1.875 0l0 1.953125l2.21875 0l0 0.96875l-2.21875 0l0 3.53125q0 0.875 0.078125 1.296875q0.078125 0.421875 0.265625 0.625q0.203125 0.203125 0.5 0.203125q0.21875 0 0.390625 -0.03125q0.171875 -0.046875 0.359375 -0.140625q0.1875 -0.109375 0.40625 -0.296875l0.484375 0.65625z" fill-rule="nonzero"/><path fill="#d9d2e9" d="m151.9685 490.18332l38.23622 0l0 33.5748l-38.23622 0z" fill-rule="evenodd"/><path stroke="#000000" stroke-width="1.0" stroke-linejoin="round" stroke-linecap="butt" d="m151.9685 490.18332l38.23622 0l0 33.5748l-38.23622 0z" fill-rule="evenodd"/><path fill="#000000" d="m171.06993 503.78134l-2.921875 10.1719055l-1.46875 0l-2.65625 -9.8906555q-0.171875 -0.625 -0.3125 -1.015625q-0.125 -0.390625 -0.265625 -0.609375q-0.140625 -0.21875 -0.296875 -0.328125q-0.15625 -0.125 -0.453125 -0.203125l0 -0.453125l3.890625 0l0 0.453125q-0.5625 0.109375 -0.78125 0.328125q-0.21875 0.21875 -0.21875 0.609375q0 0.3125 0.078125 0.75q0.078125 0.4375 0.21875 1.0l1.84375 7.1875l2.921875 -10.328125l1.53125 0l2.375 10.34375l2.15625 -6.953125q0.390625 -1.265625 0.390625 -1.796875q0 -0.5625 -0.234375 -0.796875q-0.234375 -0.25 -0.765625 -0.34375l0 -0.453125l3.59375 0l0 0.453125q-0.28125 0.09375 -0.453125 0.203125q-0.15625 0.109375 -0.3125 0.3125q-0.140625 0.1875 -0.328125 0.609375q-0.171875 0.40625 -0.40625 1.09375l-3.3125 9.8281555l-1.296875 0l-2.515625 -10.1719055z" fill-rule="nonzero"/><path fill="#d9d2e9" d="m190.20473 490.18332l38.23622 0l0 33.5748l-38.23622 0z" fill-rule="evenodd"/><path stroke="#000000" stroke-width="1.0" stroke-linejoin="round" stroke-linecap="butt" d="m190.20473 490.18332l38.23622 0l0 33.5748l-38.23622 0z" fill-rule="evenodd"/><path fill="#000000" d="m209.30615 503.78134l-2.921875 10.1719055l-1.46875 0l-2.65625 -9.8906555q-0.171875 -0.625 -0.3125 -1.015625q-0.125 -0.390625 -0.265625 -0.609375q-0.140625 -0.21875 -0.296875 -0.328125q-0.15625 -0.125 -0.453125 -0.203125l0 -0.453125l3.890625 0l0 0.453125q-0.5625 0.109375 -0.78125 0.328125q-0.21875 0.21875 -0.21875 0.609375q0 0.3125 0.078125 0.75q0.078125 0.4375 0.21875 1.0l1.84375 7.1875l2.921875 -10.328125l1.53125 0l2.375 10.34375l2.15625 -6.953125q0.390625 -1.265625 0.390625 -1.796875q0 -0.5625 -0.234375 -0.796875q-0.234375 -0.25 -0.765625 -0.34375l0 -0.453125l3.59375 0l0 0.453125q-0.28125 0.09375 -0.453125 0.203125q-0.15625 0.109375 -0.3125 0.3125q-0.140625 0.1875 -0.328125 0.609375q-0.171875 0.40625 -0.40625 1.09375l-3.3125 9.8281555l-1.296875 0l-2.515625 -10.1719055z" fill-rule="nonzero"/><path fill="#fff2cc" d="m151.96846 456.60852l76.47244 0l0 33.5748l-76.47244 0z" fill-rule="evenodd"/><path stroke="#000000" stroke-width="1.0" stroke-linejoin="round" stroke-linecap="butt" d="m151.96846 456.60852l76.47244 0l0 33.5748l-76.47244 0z" fill-rule="evenodd"/><path fill="#000000" d="m196.18906 471.20154l0 1.703125l-4.5625 0q1.5 0.859375 2.4375 2.171875q0.953125 1.296875 0.953125 2.765625q0 1.90625 -1.5 3.171875q-1.5 1.25 -3.421875 1.25q-2.25 0 -3.890625 -1.765625q-1.640625 -1.78125 -1.640625 -4.140625q0 -1.671875 0.859375 -2.9375q0.859375 -1.28125 2.0 -1.75q1.140625 -0.46875 3.09375 -0.46875l5.671875 0zm-5.34375 1.703125l-0.421875 0q-1.75 0 -2.796875 0.875q-1.046875 0.875 -1.046875 2.734375q0 1.984375 1.09375 3.5q1.109375 1.515625 2.578125 1.515625q1.1875 0 1.953125 -1.140625q0.78125 -1.140625 0.78125 -2.75q0 -2.578125 -2.140625 -4.734375z" fill-rule="nonzero"/><path fill="#f4cccc" d="m164.56638 301.4454l0 0c0 -14.159363 11.478424 -25.637817 25.637787 -25.637817l0 0c6.799576 0 13.320648 2.7011414 18.128662 7.5091553c4.808029 4.808014 7.50914 11.329071 7.50914 18.128662l0 0c0 14.159363 -11.478424 25.637787 -25.637802 25.637787l0 0c-14.159363 0 -25.637787 -11.478424 -25.637787 -25.637787z" fill-rule="evenodd"/><path stroke="#000000" stroke-width="2.0" stroke-linejoin="round" stroke-linecap="butt" d="m164.56638 301.4454l0 0c0 -14.159363 11.478424 -25.637817 25.637787 -25.637817l0 0c6.799576 0 13.320648 2.7011414 18.128662 7.5091553c4.808029 4.808014 7.50914 11.329071 7.50914 18.128662l0 0c0 14.159363 -11.478424 25.637787 -25.637802 25.637787l0 0c-14.159363 0 -25.637787 -11.478424 -25.637787 -25.637787z" fill-rule="evenodd"/><path fill="#434343" d="m177.57076 295.15756l6.3591156 -6.359131l6.7551727 6.755188l6.7551575 -6.755188l6.359131 6.359131l-6.7551727 6.7551575l6.7551727 6.755188l-6.359131 6.3591003l-6.7551575 -6.7551575l-6.7551727 6.7551575l-6.3591156 -6.3591003l6.7551575 -6.755188z" fill-rule="evenodd"/><path fill="#000000" fill-opacity="0.0" d="m453.5799 407.5092l38.236237 0l0 54.519684l-38.236237 0z" fill-rule="evenodd"/><path fill="#000000" d="m467.9549 429.59607l0.15625 0.03125q0.859375 -1.0 1.75 -1.4375q0.90625 -0.453125 1.96875 -0.453125q0.71875 0 1.5 0.15625l0 3.234375l-2.125 0q-0.203125 -0.6875 -0.53125 -1.046875q-0.3125 -0.359375 -0.84375 -0.359375q-0.265625 0 -0.578125 0.15625q-0.3125 0.15625 -0.578125 0.453125q-0.25 0.28125 -0.375 0.578125q-0.109375 0.296875 -0.140625 0.609375q-0.03125 0.296875 -0.03125 0.90625l0 3.734375q0 1.109375 0.078125 1.5625q0.078125 0.4375 0.328125 0.703125q0.25 0.25 0.828125 0.34375l0 0.78125l-5.765625 0l0 -0.78125q0.5625 -0.140625 0.765625 -0.390625q0.21875 -0.25 0.296875 -0.671875q0.078125 -0.421875 0.078125 -1.53125l0 -4.8125q0 -0.875 -0.03125 -1.28125q-0.03125 -0.421875 -0.140625 -0.671875q-0.109375 -0.25 -0.34375 -0.40625q-0.21875 -0.171875 -0.78125 -0.28125l0 -0.796875l3.203125 -0.09375l1.484375 0l-0.171875 1.765625z" fill-rule="nonzero"/><path fill="#000000" d="m479.66974 447.6117q-0.6875 0.578125 -1.25 0.828125q-0.5625 0.234375 -1.1875 0.234375q-1.15625 0 -1.734375 -0.625q-0.578125 -0.640625 -0.578125 -1.90625l0 -4.375l-0.96875 0l0 -0.53125q0.46875 -0.078125 0.6875 -0.234375q0.234375 -0.15625 0.359375 -0.421875q0.125 -0.265625 0.203125 -0.6875q0.078125 -0.421875 0.109375 -1.046875l1.875 0l0 1.953125l2.21875 0l0 0.96875l-2.21875 0l0 3.53125q0 0.875 0.078125 1.296875q0.078125 0.421875 0.265625 0.625q0.203125 0.203125 0.5 0.203125q0.21875 0 0.390625 -0.03125q0.171875 -0.046875 0.359375 -0.140625q0.1875 -0.109375 0.40625 -0.296875l0.484375 0.65625z" fill-rule="nonzero"/><path fill="#d9d2e9" d="m448.32913 490.18332l38.236206 0l0 33.5748l-38.236206 0z" fill-rule="evenodd"/><path stroke="#000000" stroke-width="1.0" stroke-linejoin="round" stroke-linecap="butt" d="m448.32913 490.18332l38.236206 0l0 33.5748l-38.236206 0z" fill-rule="evenodd"/><path fill="#000000" d="m467.43054 503.78134l-2.921875 10.1719055l-1.46875 0l-2.65625 -9.8906555q-0.171875 -0.625 -0.3125 -1.015625q-0.125 -0.390625 -0.265625 -0.609375q-0.140625 -0.21875 -0.296875 -0.328125q-0.15625 -0.125 -0.453125 -0.203125l0 -0.453125l3.890625 0l0 0.453125q-0.5625 0.109375 -0.78125 0.328125q-0.21875 0.21875 -0.21875 0.609375q0 0.3125 0.078125 0.75q0.078125 0.4375 0.21875 1.0l1.84375 7.1875l2.921875 -10.328125l1.53125 0l2.375 10.34375l2.15625 -6.953125q0.390625 -1.265625 0.390625 -1.796875q0 -0.5625 -0.234375 -0.796875q-0.234375 -0.25 -0.765625 -0.34375l0 -0.453125l3.59375 0l0 0.453125q-0.28125 0.09375 -0.453125 0.203125q-0.15625 0.109375 -0.3125 0.3125q-0.140625 0.1875 -0.328125 0.609375q-0.171875 0.40625 -0.40625 1.09375l-3.3125 9.8281555l-1.296875 0l-2.515625 -10.1719055z" fill-rule="nonzero"/><path fill="#d9d2e9" d="m486.56534 490.18332l38.236237 0l0 33.5748l-38.236237 0z" fill-rule="evenodd"/><path stroke="#000000" stroke-width="1.0" stroke-linejoin="round" stroke-linecap="butt" d="m486.56534 490.18332l38.236237 0l0 33.5748l-38.236237 0z" fill-rule="evenodd"/><path fill="#000000" d="m505.66678 503.78134l-2.921875 10.1719055l-1.46875 0l-2.65625 -9.8906555q-0.171875 -0.625 -0.3125 -1.015625q-0.125 -0.390625 -0.265625 -0.609375q-0.140625 -0.21875 -0.296875 -0.328125q-0.15625 -0.125 -0.453125 -0.203125l0 -0.453125l3.890625 0l0 0.453125q-0.5625 0.109375 -0.78125 0.328125q-0.21875 0.21875 -0.21875 0.609375q0 0.3125 0.078125 0.75q0.078125 0.4375 0.21875 1.0l1.84375 7.1875l2.921875 -10.328125l1.53125 0l2.375 10.34375l2.15625 -6.953125q0.390625 -1.265625 0.390625 -1.796875q0 -0.5625 -0.234375 -0.796875q-0.234375 -0.25 -0.765625 -0.34375l0 -0.453125l3.5937195 0l0 0.453125q-0.28125 0.09375 -0.453125 0.203125q-0.15625 0.109375 -0.3125 0.3125q-0.140625 0.1875 -0.328125 0.609375q-0.171875 0.40625 -0.40625 1.09375l-3.3124695 9.8281555l-1.296875 0l-2.515625 -10.1719055z" fill-rule="nonzero"/><path fill="#fff2cc" d="m448.32907 456.60852l76.47244 0l0 33.5748l-76.47244 0z" fill-rule="evenodd"/><path stroke="#000000" stroke-width="1.0" stroke-linejoin="round" stroke-linecap="butt" d="m448.32907 456.60852l76.47244 0l0 33.5748l-76.47244 0z" fill-rule="evenodd"/><path fill="#000000" d="m492.54968 471.20154l0 1.703125l-4.5625 0q1.5 0.859375 2.4375 2.171875q0.953125 1.296875 0.953125 2.765625q0 1.90625 -1.5 3.171875q-1.5 1.25 -3.421875 1.25q-2.25 0 -3.890625 -1.765625q-1.640625 -1.78125 -1.640625 -4.140625q0 -1.671875 0.859375 -2.9375q0.859375 -1.28125 2.0 -1.75q1.140625 -0.46875 3.09375 -0.46875l5.671875 0zm-5.34375 1.703125l-0.421875 0q-1.75 0 -2.796875 0.875q-1.046875 0.875 -1.046875 2.734375q0 1.984375 1.09375 3.5q1.109375 1.515625 2.578125 1.515625q1.1875 0 1.953125 -1.140625q0.78125 -1.140625 0.78125 -2.75q0 -2.578125 -2.140625 -4.734375z" fill-rule="nonzero"/><path fill="#d9d2e9" d="m643.14044 490.18332l38.236206 0l0 33.5748l-38.236206 0z" fill-rule="evenodd"/><path stroke="#000000" stroke-width="1.0" stroke-linejoin="round" stroke-linecap="butt" d="m643.14044 490.18332l38.236206 0l0 33.5748l-38.236206 0z" fill-rule="evenodd"/><path fill="#000000" d="m662.2418 503.78134l-2.921875 10.1719055l-1.46875 0l-2.65625 -9.8906555q-0.171875 -0.625 -0.3125 -1.015625q-0.125 -0.390625 -0.265625 -0.609375q-0.140625 -0.21875 -0.296875 -0.328125q-0.15625 -0.125 -0.453125 -0.203125l0 -0.453125l3.890625 0l0 0.453125q-0.5625 0.109375 -0.78125 0.328125q-0.21875 0.21875 -0.21875 0.609375q0 0.3125 0.078125 0.75q0.078125 0.4375 0.21875 1.0l1.84375 7.1875l2.921875 -10.328125l1.53125 0l2.375 10.34375l2.15625 -6.953125q0.390625 -1.265625 0.390625 -1.796875q0 -0.5625 -0.234375 -0.796875q-0.234375 -0.25 -0.765625 -0.34375l0 -0.453125l3.59375 0l0 0.453125q-0.28125 0.09375 -0.453125 0.203125q-0.15625 0.109375 -0.3125 0.3125q-0.140625 0.1875 -0.328125 0.609375q-0.171875 0.40625 -0.40625 1.09375l-3.3125 9.8281555l-1.296875 0l-2.515625 -10.1719055z" fill-rule="nonzero"/><path fill="#d9d2e9" d="m681.37665 490.18332l38.236206 0l0 33.5748l-38.236206 0z" fill-rule="evenodd"/><path stroke="#000000" stroke-width="1.0" stroke-linejoin="round" stroke-linecap="butt" d="m681.37665 490.18332l38.236206 0l0 33.5748l-38.236206 0z" fill-rule="evenodd"/><path fill="#000000" d="m700.4781 503.78134l-2.921875 10.1719055l-1.46875 0l-2.65625 -9.8906555q-0.171875 -0.625 -0.3125 -1.015625q-0.125 -0.390625 -0.265625 -0.609375q-0.140625 -0.21875 -0.296875 -0.328125q-0.15625 -0.125 -0.453125 -0.203125l0 -0.453125l3.890625 0l0 0.453125q-0.5625 0.109375 -0.78125 0.328125q-0.21875 0.21875 -0.21875 0.609375q0 0.3125 0.078125 0.75q0.078125 0.4375 0.21875 1.0l1.84375 7.1875l2.921875 -10.328125l1.53125 0l2.375 10.34375l2.15625 -6.953125q0.390625 -1.265625 0.390625 -1.796875q0 -0.5625 -0.234375 -0.796875q-0.234375 -0.25 -0.765625 -0.34375l0 -0.453125l3.59375 0l0 0.453125q-0.28125 0.09375 -0.453125 0.203125q-0.15625 0.109375 -0.3125 0.3125q-0.140625 0.1875 -0.328125 0.609375q-0.171875 0.40625 -0.40625 1.09375l-3.3125 9.8281555l-1.296875 0l-2.515625 -10.1719055z" fill-rule="nonzero"/><path fill="#fff2cc" d="m643.1404 456.60852l76.47241 0l0 33.5748l-76.47241 0z" fill-rule="evenodd"/><path stroke="#000000" stroke-width="1.0" stroke-linejoin="round" stroke-linecap="butt" d="m643.1404 456.60852l76.47241 0l0 33.5748l-76.47241 0z" fill-rule="evenodd"/><path fill="#000000" d="m658.5758 471.3109q0.578125 -0.09375 0.9375 -0.328125q0.375 -0.234375 0.578125 -0.59375q0.203125 -0.375 0.3125 -0.921875q0.125 -0.5625 0.25 -1.625l1.671875 0l0 2.890625l3.78125 0l0 1.1875l-3.78125 0l0 5.203125q0 1.140625 0.09375 1.8125q0.09375 0.671875 0.34375 1.0625q0.265625 0.375 0.59375 0.546875q0.328125 0.15625 0.84375 0.15625q0.46875 0 0.875 -0.1875q0.40625 -0.203125 0.8125 -0.5625l0.53125 0.640625q-0.84375 0.796875 -1.59375 1.171875q-0.734375 0.359375 -1.53125 0.359375q-1.515625 0 -2.25 -0.890625q-0.734375 -0.90625 -0.734375 -2.8125l0 -6.5l-1.734375 0l0 -0.609375zm15.589844 8.953125l-0.171875 -0.046875q-1.015625 1.03125 -1.921875 1.46875q-0.890625 0.4375 -1.890625 0.4375q-0.890625 0 -1.578125 -0.34375q-0.671875 -0.34375 -1.046875 -0.96875q-0.359375 -0.640625 -0.359375 -1.453125q0 -1.71875 1.6875 -2.640625q1.703125 -0.9375 5.09375 -1.09375l0 -0.75q0 -1.21875 -0.234375 -1.921875q-0.234375 -0.703125 -0.75 -1.03125q-0.5 -0.328125 -1.34375 -0.328125q-0.90625 0 -1.46875 0.484375q-0.5625 0.46875 -0.84375 1.4375l-1.53125 0l0 -1.53125q1.125 -0.578125 1.875 -0.859375q0.75 -0.28125 1.5 -0.4375q0.75 -0.15625 1.53125 -0.15625q1.15625 0 1.859375 0.375q0.703125 0.359375 1.046875 1.125q0.359375 0.765625 0.359375 2.296875l0 4.078125q0 0.875 0 1.234375q0.015625 0.34375 0.078125 0.65625q0.0625 0.296875 0.171875 0.484375q0.125 0.1875 0.34375 0.3125q0.234375 0.125 0.75 0.265625l0 0.578125l-3.203125 0l0.046875 -1.671875zm-0.1875 -3.671875q-2.390625 0.015625 -3.578125 0.625q-1.171875 0.609375 -1.171875 1.84375q0 0.671875 0.265625 1.0625q0.265625 0.375 0.671875 0.53125q0.421875 0.140625 0.984375 0.140625q0.796875 0 1.4375 -0.375q0.65625 -0.390625 1.015625 -0.984375q0.375 -0.609375 0.375 -1.1875l0 -1.65625zm16.546875 5.34375l-4.609375 0l0 -0.578125q0.453125 -0.140625 0.65625 -0.234375q0.203125 -0.109375 0.328125 -0.296875q0.140625 -0.1875 0.21875 -0.578125q0.078125 -0.40625 0.078125 -1.203125l0 -3.0625q0 -0.828125 -0.046875 -1.484375q-0.046875 -0.671875 -0.171875 -1.09375q-0.109375 -0.4375 -0.265625 -0.671875q-0.15625 -0.25 -0.375 -0.40625q-0.21875 -0.171875 -0.5 -0.265625q-0.28125 -0.109375 -0.734375 -0.109375q-0.453125 0 -0.875 0.1875q-0.40625 0.171875 -0.90625 0.625q-0.484375 0.4375 -0.703125 0.875q-0.21875 0.4375 -0.21875 1.0l0 4.359375q0 1.015625 0.09375 1.40625q0.09375 0.390625 0.359375 0.59375q0.265625 0.203125 0.859375 0.359375l0 0.578125l-4.59375 0l0 -0.578125q0.453125 -0.140625 0.640625 -0.234375q0.203125 -0.109375 0.328125 -0.296875q0.140625 -0.1875 0.21875 -0.578125q0.078125 -0.390625 0.078125 -1.203125l0 -5.109375q0 -0.75 -0.03125 -1.203125q-0.015625 -0.46875 -0.15625 -0.734375q-0.140625 -0.28125 -0.4375 -0.40625q-0.28125 -0.140625 -0.8125 -0.234375l0 -0.625l2.75 -0.109375l0.71875 0l-0.140625 1.90625l0.171875 0.046875q0.859375 -0.875 1.390625 -1.25q0.546875 -0.375 1.078125 -0.578125q0.546875 -0.203125 1.15625 -0.203125q0.640625 0 1.140625 0.15625q0.5 0.140625 0.875 0.453125q0.375 0.296875 0.625 0.75q0.25 0.4375 0.375 1.078125q0.125 0.625 0.125 1.609375l0 4.40625q0 0.8125 0.046875 1.1875q0.046875 0.359375 0.15625 0.5625q0.125 0.1875 0.34375 0.328125q0.21875 0.125 0.765625 0.28125l0 0.578125zm5.1289062 -9.359375l0.046875 0q0.90625 -0.921875 1.4375 -1.28125q0.546875 -0.375 1.0625 -0.5625q0.515625 -0.1875 1.125 -0.1875q0.640625 0 1.140625 0.15625q0.5 0.140625 0.875 0.453125q0.390625 0.3125 0.625 0.765625q0.25 0.453125 0.359375 1.078125q0.125 0.625 0.125 1.59375l0 4.40625q0 1.03125 0.078125 1.40625q0.09375 0.359375 0.3125 0.5625q0.234375 0.203125 0.9375 0.390625l0 0.578125l-4.625 0l0 -0.578125q0.453125 -0.140625 0.65625 -0.234375q0.203125 -0.109375 0.328125 -0.296875q0.140625 -0.1875 0.21875 -0.578125q0.078125 -0.40625 0.078125 -1.203125l0 -3.0625q0 -1.5625 -0.15625 -2.390625q-0.15625 -0.828125 -0.625 -1.234375q-0.46875 -0.40625 -1.296875 -0.40625q-0.46875 0 -0.84375 0.171875q-0.375 0.15625 -0.875 0.578125q-0.484375 0.421875 -0.734375 0.875q-0.25 0.4375 -0.25 0.9375l0 4.484375q0 0.796875 0.03125 1.140625q0.046875 0.34375 0.15625 0.578125q0.125 0.21875 0.359375 0.375q0.25 0.140625 0.75 0.265625l0 0.578125l-4.640625 0l0 -0.578125q0.515625 -0.140625 0.734375 -0.265625q0.234375 -0.125 0.34375 -0.328125q0.125 -0.203125 0.1875 -0.578125q0.0625 -0.375 0.0625 -1.1875l0 -9.796875q0 -1.125 -0.015625 -1.5625q-0.015625 -0.453125 -0.09375 -0.765625q-0.078125 -0.3125 -0.21875 -0.484375q-0.125 -0.1875 -0.359375 -0.28125q-0.234375 -0.109375 -0.828125 -0.21875l0 -0.609375l2.828125 -0.109375l0.703125 0l0 7.40625z" fill-rule="nonzero"/><path fill="#f4cccc" d="m532.19763 391.1639l0 0c0 -14.159393 11.478394 -25.637817 25.637756 -25.637817l0 0c6.7995605 0 13.320679 2.7011108 18.128662 7.5091553c4.8080444 4.808014 7.5091553 11.329071 7.5091553 18.128662l0 0c0 14.159363 -11.478455 25.637787 -25.637817 25.637787l0 0c-14.159363 0 -25.637756 -11.478424 -25.637756 -25.637787z" fill-rule="evenodd"/><path stroke="#000000" stroke-width="2.0" stroke-linejoin="round" stroke-linecap="butt" d="m532.19763 391.1639l0 0c0 -14.159393 11.478394 -25.637817 25.637756 -25.637817l0 0c6.7995605 0 13.320679 2.7011108 18.128662 7.5091553c4.8080444 4.808014 7.5091553 11.329071 7.5091553 18.128662l0 0c0 14.159363 -11.478455 25.637787 -25.637817 25.637787l0 0c-14.159363 0 -25.637756 -11.478424 -25.637756 -25.637787z" fill-rule="evenodd"/><path fill="#434343" d="m545.20197 384.87607l6.359131 -6.359131l6.755188 6.7551575l6.755127 -6.7551575l6.359131 6.359131l-6.755127 6.7551575l6.755127 6.7551575l-6.359131 6.359131l-6.755127 -6.7551575l-6.755188 6.7551575l-6.359131 -6.359131l6.755188 -6.7551575z" fill-rule="evenodd"/><path fill="#000000" fill-opacity="0.0" d="m150.56561 411.37927l38.23622 0l0 54.519684l-38.23622 0z" fill-rule="evenodd"/><path fill="#000000" d="m164.28436 442.16928l2.484375 0q0.515625 0 0.890625 -0.21875q0.375 -0.21875 0.671875 -0.765625q0.296875 -0.5625 0.546875 -1.546875l1.421875 0l0 3.78125l-9.953125 0l0 -0.78125l6.0 -9.609375l-2.34375 0q-0.5625 0 -0.90625 0.1875q-0.328125 0.1875 -0.609375 0.640625q-0.265625 0.4375 -0.640625 1.5l-1.421875 0l0 -3.5625l9.859375 0l0 0.765625l-6.0 9.609375z" fill-rule="nonzero"/><path fill="#000000" d="m177.07733 451.48178q-0.6875 0.578125 -1.25 0.828125q-0.5625 0.234375 -1.1875 0.234375q-1.15625 0 -1.734375 -0.625q-0.578125 -0.640625 -0.578125 -1.90625l0 -4.375l-0.96875 0l0 -0.53125q0.46875 -0.078125 0.6875 -0.234375q0.234375 -0.15625 0.359375 -0.421875q0.125 -0.265625 0.203125 -0.6875q0.078125 -0.421875 0.109375 -1.046875l1.875 0l0 1.953125l2.21875 0l0 0.96875l-2.21875 0l0 3.53125q0 0.875 0.078125 1.296875q0.078125 0.421875 0.265625 0.625q0.203125 0.203125 0.5 0.203125q0.21875 0 0.390625 -0.03125q0.171875 -0.046875 0.359375 -0.140625q0.1875 -0.109375 0.40625 -0.296875l0.484375 0.65625z" fill-rule="nonzero"/><path fill="#f4cccc" d="m662.6674 212.37387l0 0c0 -14.159363 11.478455 -25.637802 25.637817 -25.637802l0 0c6.7995605 0 13.320618 2.701126 18.128662 7.50914c4.8079834 4.808014 7.509094 11.329102 7.509094 18.128662l0 0c0 14.159363 -11.478394 25.637787 -25.637756 25.637787l0 0c-14.159363 0 -25.637817 -11.478424 -25.637817 -25.637787z" fill-rule="evenodd"/><path stroke="#000000" stroke-width="2.0" stroke-linejoin="round" stroke-linecap="butt" d="m662.6674 212.37387l0 0c0 -14.159363 11.478455 -25.637802 25.637817 -25.637802l0 0c6.7995605 0 13.320618 2.701126 18.128662 7.50914c4.8079834 4.808014 7.509094 11.329102 7.509094 18.128662l0 0c0 14.159363 -11.478394 25.637787 -25.637756 25.637787l0 0c-14.159363 0 -25.637817 -11.478424 -25.637817 -25.637787z" fill-rule="evenodd"/><path fill="#434343" d="m674.2546 207.87613l9.553284 0l0 -9.553329l8.993164 0l0 9.553329l9.553345 0l0 8.993149l-9.553345 0l0 9.553329l-8.993164 0l0 -9.553329l-9.553284 0z" fill-rule="evenodd"/><path fill="#ffffff" d="m85.35171 382.66666l0 0c0 -2.2874146 1.8543167 -4.1417236 4.1417313 -4.1417236l0 0c1.0984573 0 2.1519241 0.43637085 2.92865 1.2130737c0.77672577 0.7767334 1.2130814 1.8302002 1.2130814 2.92865l0 0c0 2.2874146 -1.8543167 4.141754 -4.1417313 4.141754l0 0c-2.2874146 0 -4.1417313 -1.8543396 -4.1417313 -4.141754z" fill-rule="evenodd"/><path stroke="#000000" stroke-width="1.0" stroke-linejoin="round" stroke-linecap="butt" d="m85.35171 382.66666l0 0c0 -2.2874146 1.8543167 -4.1417236 4.1417313 -4.1417236l0 0c1.0984573 0 2.1519241 0.43637085 2.92865 1.2130737c0.77672577 0.7767334 1.2130814 1.8302002 1.2130814 2.92865l0 0c0 2.2874146 -1.8543167 4.141754 -4.1417313 4.141754l0 0c-2.2874146 0 -4.1417313 -1.8543396 -4.1417313 -4.141754z" fill-rule="evenodd"/><path fill="#ffffff" d="m792.0062 382.66666l0 0c0 -2.2874146 1.8543091 -4.1417236 4.1417236 -4.1417236l0 0c1.0984497 0 2.1519165 0.43637085 2.92865 1.2130737c0.7767334 0.7767334 1.2130737 1.8302002 1.2130737 2.92865l0 0c0 2.2874146 -1.8543091 4.141754 -4.1417236 4.141754l0 0c-2.2874146 0 -4.1417236 -1.8543396 -4.1417236 -4.141754z" fill-rule="evenodd"/><path stroke="#000000" stroke-width="1.0" stroke-linejoin="round" stroke-linecap="butt" d="m792.0062 382.66666l0 0c0 -2.2874146 1.8543091 -4.1417236 4.1417236 -4.1417236l0 0c1.0984497 0 2.1519165 0.43637085 2.92865 1.2130737c0.7767334 0.7767334 1.2130737 1.8302002 1.2130737 2.92865l0 0c0 2.2874146 -1.8543091 4.141754 -4.1417236 4.141754l0 0c-2.2874146 0 -4.1417236 -1.8543396 -4.1417236 -4.141754z" fill-rule="evenodd"/><path fill="#000000" fill-opacity="0.0" d="m800.2897 382.66666l79.37012 0" fill-rule="evenodd"/><path stroke="#000000" stroke-width="2.0" stroke-linejoin="round" stroke-linecap="butt" d="m800.2897 382.66666l67.37012 0" fill-rule="evenodd"/><path fill="#000000" stroke="#000000" stroke-width="2.0" stroke-linecap="butt" d="m867.6598 385.97012l9.076172 -3.3034668l-9.076172 -3.3034668z" fill-rule="evenodd"/><path fill="#000000" fill-opacity="0.0" d="m801.2572 335.39108l45.826782 0l0 51.275574l-45.826782 0z" fill-rule="evenodd"/><path fill="#000000" d="m825.1947 364.4936q0 0.890625 0.078125 1.234375q0.078125 0.328125 0.3125 0.5625q0.234375 0.21875 0.859375 0.359375l0 0.78125l-6.125 0l0 -0.78125q0.6875 -0.171875 0.875 -0.34375q0.203125 -0.171875 0.28125 -0.5q0.09375 -0.328125 0.09375 -1.3125l0 -4.703125l-5.296875 0l0 4.703125q0 0.40625 0.015625 0.765625q0.03125 0.34375 0.09375 0.5625q0.078125 0.21875 0.203125 0.375q0.140625 0.15625 0.375 0.265625q0.234375 0.109375 0.578125 0.1875l0 0.78125l-6.15625 0l0 -0.78125q0.4375 -0.109375 0.6875 -0.234375q0.25 -0.140625 0.375 -0.375q0.125 -0.25 0.15625 -0.609375q0.03125 -0.375 0.03125 -0.9375l0 -10.109375q0 -0.546875 -0.03125 -0.921875q-0.015625 -0.375 -0.140625 -0.609375q-0.125 -0.234375 -0.375 -0.375q-0.25 -0.15625 -0.703125 -0.265625l0 -0.78125l6.15625 0l0 0.78125q-0.625 0.171875 -0.859375 0.390625q-0.21875 0.203125 -0.3125 0.546875q-0.09375 0.34375 -0.09375 1.25l0 3.90625l5.296875 0l0 -3.90625q0 -0.890625 -0.078125 -1.234375q-0.078125 -0.34375 -0.3125 -0.5625q-0.21875 -0.21875 -0.859375 -0.390625l0 -0.78125l6.125 0l0 0.78125q-0.515625 0.140625 -0.75 0.296875q-0.234375 0.15625 -0.34375 0.40625q-0.09375 0.234375 -0.125 0.546875q-0.03125 0.296875 -0.03125 0.9375l0 10.09375z" fill-rule="nonzero"/><path fill="#000000" d="m833.59314 375.4936q-0.6875 0.578125 -1.25 0.828125q-0.5625 0.234375 -1.1875 0.234375q-1.15625 0 -1.734375 -0.625q-0.578125 -0.640625 -0.578125 -1.90625l0 -4.375l-0.96875 0l0 -0.53125q0.46875 -0.078125 0.6875 -0.234375q0.234375 -0.15625 0.359375 -0.421875q0.125 -0.265625 0.203125 -0.6875q0.078125 -0.421875 0.109375 -1.046875l1.875 0l0 1.953125l2.21875 0l0 0.96875l-2.21875 0l0 3.53125q0 0.875 0.078125 1.296875q0.078125 0.421875 0.265625 0.625q0.203125 0.203125 0.5 0.203125q0.21875 0 0.390625 -0.03125q0.171875 -0.046875 0.359375 -0.140625q0.1875 -0.109375 0.40625 -0.296875l0.484375 0.65625z" fill-rule="nonzero"/><path fill="#cfe2f3" d="m713.94226 70.28609l0 0c0 -20.343212 16.491455 -36.834644 36.834656 -36.834644l0 0c9.769165 0 19.138184 3.880783 26.04602 10.78862c6.907837 6.907833 10.788635 16.27687 10.788635 26.046024l0 0c0 20.343216 -16.491455 36.83465 -36.834656 36.83465l0 0c-20.3432 0 -36.834656 -16.491432 -36.834656 -36.83465z" fill-rule="evenodd"/><path stroke="#000000" stroke-width="1.0" stroke-linejoin="round" stroke-linecap="butt" d="m713.94226 70.28609l0 0c0 -20.343212 16.491455 -36.834644 36.834656 -36.834644l0 0c9.769165 0 19.138184 3.880783 26.04602 10.78862c6.907837 6.907833 10.788635 16.27687 10.788635 26.046024l0 0c0 20.343216 -16.491455 36.83465 -36.834656 36.83465l0 0c-20.3432 0 -36.834656 -16.491432 -36.834656 -36.83465z" fill-rule="evenodd"/><path fill="#000000" d="m749.53864 72.66984l0 3.21875q0 0.609375 0.03125 0.9375q0.03125 0.328125 0.125 0.53125q0.09375 0.1875 0.21875 0.3125q0.140625 0.125 0.375 0.234375q0.25 0.09375 0.65625 0.140625l0 0.78125l-6.46875 0l0 -0.78125q0.484375 -0.078125 0.765625 -0.203125q0.296875 -0.125 0.4375 -0.375q0.140625 -0.25 0.171875 -0.625q0.046875 -0.390625 0.046875 -0.953125l0 -3.21875l-3.171875 -6.703125q-0.40625 -0.859375 -0.640625 -1.265625q-0.28125 -0.484375 -0.46875 -0.6875q-0.1875 -0.21874619 -0.359375 -0.2968712q-0.15625 -0.078125 -0.453125 -0.109375l0 -0.78125l6.25 0l0 0.78125q-0.90625 0.109375 -0.90625 0.8906212q0 0.296875 0.140625 0.71875q0.15625 0.421875 0.484375 1.125l1.96875 4.40625l2.15625 -4.296875q0.3125 -0.640625 0.4375 -1.0625q0.125 -0.4375 0.125 -0.859375q0 -0.421875 -0.25 -0.6562462q-0.234375 -0.25 -0.671875 -0.265625l0 -0.78125l4.703125 0l0 0.78125q-0.3125 0.0625 -0.53125 0.1875q-0.203125 0.125 -0.453125 0.3906212q-0.234375 0.265625 -0.578125 0.796875q-0.34375 0.515625 -0.78125 1.359375l-3.359375 6.328125z" fill-rule="nonzero"/><path fill="#000000" d="m761.1246 86.88859q-0.6875 0.578125 -1.25 0.828125q-0.5625 0.234375 -1.1875 0.234375q-1.15625 0 -1.734375 -0.625q-0.578125 -0.640625 -0.578125 -1.90625l0 -4.375l-0.96875 0l0 -0.53125q0.46875 -0.078125 0.6875 -0.234375q0.234375 -0.15625 0.359375 -0.421875q0.125 -0.265625 0.203125 -0.6875q0.078125 -0.421875 0.109375 -1.046875l1.875 0l0 1.953125l2.21875 0l0 0.96875l-2.21875 0l0 3.53125q0 0.875 0.078125 1.296875q0.078125 0.421875 0.265625 0.625q0.203125 0.203125 0.5 0.203125q0.21875 0 0.390625 -0.03125q0.171875 -0.046875 0.359375 -0.140625q0.1875 -0.109375 0.40625 -0.296875l0.484375 0.65625z" fill-rule="nonzero"/><path fill="#f4cccc" d="m164.56795 395.03528l0 0c0 -14.159363 11.478424 -25.637787 25.637787 -25.637787l0 0c6.799576 0 13.320648 2.7011108 18.128662 7.5091248c4.808014 4.8080444 7.50914 11.329102 7.50914 18.128662l0 0c0 14.159363 -11.478439 25.637817 -25.637802 25.637817l0 0c-14.159363 0 -25.637787 -11.478455 -25.637787 -25.637817z" fill-rule="evenodd"/><path stroke="#000000" stroke-width="2.0" stroke-linejoin="round" stroke-linecap="butt" d="m164.56795 395.03528l0 0c0 -14.159363 11.478424 -25.637787 25.637787 -25.637787l0 0c6.799576 0 13.320648 2.7011108 18.128662 7.5091248c4.808014 4.8080444 7.50914 11.329102 7.50914 18.128662l0 0c0 14.159363 -11.478439 25.637817 -25.637802 25.637817l0 0c-14.159363 0 -25.637787 -11.478455 -25.637787 -25.637817z" fill-rule="evenodd"/><path fill="#000000" fill-opacity="0.0" d="m167.2916 374.98688l45.826767 0l0 40.094482l-45.826767 0z" fill-rule="evenodd"/><path fill="#000000" d="m188.46085 400.3085q0 0.671875 0.0625 1.015625q0.078125 0.34375 0.265625 0.5625q0.203125 0.21875 0.5625 0.34375q0.375 0.125 0.921875 0.1875q0.546875 0.0625 1.453125 0.09375l0 1.0625l-10.109375 0l0 -1.0625q1.296875 -0.0625 1.84375 -0.15625q0.5625 -0.109375 0.859375 -0.296875q0.296875 -0.203125 0.421875 -0.5625q0.140625 -0.375 0.140625 -1.1875l0 -8.484375q0 -0.46875 -0.1875 -0.671875q-0.171875 -0.21875 -0.5 -0.21875q-0.28125 0 -0.828125 0.265625q-0.53125 0.265625 -1.75 1.09375l-0.703125 -1.234375l6.109375 -3.671875l1.5 0q-0.0625 1.125 -0.0625 3.125l0 9.796875zm11.6367035 -1.90625l-5.5624847 0l0 -2.453125l5.5624847 0l0 2.453125z" fill-rule="nonzero"/><path fill="#f4cccc" d="m532.19684 301.4454l0 0c0 -14.159363 11.478394 -25.637817 25.637756 -25.637817l0 0c6.7996216 0 13.320679 2.7011414 18.128662 7.5091553c4.8080444 4.808014 7.5091553 11.329071 7.5091553 18.128662l0 0c0 14.159363 -11.478455 25.637787 -25.637817 25.637787l0 0c-14.159363 0 -25.637756 -11.478424 -25.637756 -25.637787z" fill-rule="evenodd"/><path stroke="#000000" stroke-width="2.0" stroke-linejoin="round" stroke-linecap="butt" d="m532.19684 301.4454l0 0c0 -14.159363 11.478394 -25.637817 25.637756 -25.637817l0 0c6.7996216 0 13.320679 2.7011414 18.128662 7.5091553c4.8080444 4.808014 7.5091553 11.329071 7.5091553 18.128662l0 0c0 14.159363 -11.478455 25.637787 -25.637817 25.637787l0 0c-14.159363 0 -25.637756 -11.478424 -25.637756 -25.637787z" fill-rule="evenodd"/><path fill="#434343" d="m545.20123 295.15756l6.35907 -6.359131l6.755188 6.755188l6.755188 -6.755188l6.359131 6.359131l-6.755188 6.7551575l6.755188 6.755188l-6.359131 6.3591003l-6.755188 -6.7551575l-6.755188 6.7551575l-6.35907 -6.3591003l6.755127 -6.755188z" fill-rule="evenodd"/><path fill="#000000" fill-opacity="0.0" d="m93.63517 382.66666l28.288956 0l0 178.18832l49.15986 0l0 -37.085938" fill-rule="evenodd"/><path stroke="#000000" stroke-width="2.0" stroke-linejoin="round" stroke-linecap="butt" d="m93.63517 382.66666l28.288963 0l0 178.18826l49.15985 0l0 -25.085876" fill-rule="evenodd"/><path fill="#000000" stroke="#000000" stroke-width="2.0" stroke-linecap="butt" d="m174.38745 535.76904l-3.3034668 -9.076233l-3.3034668 9.076233z" fill-rule="evenodd"/><path fill="#000000" fill-opacity="0.0" d="m171.08661 646.5298l0 -60.90454l38.23622 0l0 -61.867126" fill-rule="evenodd"/><path stroke="#000000" stroke-width="2.0" stroke-linejoin="round" stroke-linecap="butt" d="m171.08661 646.5298l0 -60.904602l38.23622 0l0 -49.867065" fill-rule="evenodd"/><path fill="#000000" stroke="#000000" stroke-width="2.0" stroke-linecap="butt" d="m212.6263 535.7581l-3.3034668 -9.076172l-3.3034668 9.076172z" fill-rule="evenodd"/><path fill="#d9ead3" d="m205.12433 556.7408l8.283463 0l0 8.283508l-8.283463 0z" fill-rule="evenodd"/><path fill="#000000" fill-opacity="0.0" d="m93.63517 382.66666l28.287476 0l0 178.37314l345.5393 0l0 -37.270752" fill-rule="evenodd"/><path stroke="#000000" stroke-width="2.0" stroke-linejoin="round" stroke-linecap="butt" d="m93.63517 382.66666l28.287476 0l0 178.37314l345.5393 0l0 -25.270752" fill-rule="evenodd"/><path fill="#000000" stroke="#000000" stroke-width="2.0" stroke-linecap="butt" d="m470.7654 535.76904l-3.3034668 -9.076233l-3.3034668 9.076233z" fill-rule="evenodd"/><path fill="#000000" fill-opacity="0.0" d="m171.08661 647.4488l0 -61.84497l334.58267 0l0 -61.840027" fill-rule="evenodd"/><path stroke="#000000" stroke-width="2.0" stroke-linejoin="round" stroke-linecap="butt" d="m171.08661 647.4488l0 -61.84497l334.58267 0l0 -49.840027" fill-rule="evenodd"/><path fill="#000000" stroke="#000000" stroke-width="2.0" stroke-linecap="butt" d="m508.97275 535.7638l-3.3034668 -9.076233l-3.3034668 9.076233z" fill-rule="evenodd"/><path fill="#d9ead3" d="m501.6566 556.7402l8.283447 0l0 8.283447l-8.283447 0z" fill-rule="evenodd"/><path fill="#000000" fill-opacity="0.0" d="m93.63517 382.66666l28.287674 0l0 178.2468l435.9013 0l0 -144.10504" fill-rule="evenodd"/><path stroke="#000000" stroke-width="2.0" stroke-linejoin="round" stroke-linecap="butt" d="m93.63517 382.66666l28.287682 0l0 178.2468l435.9013 0l0 -132.10504" fill-rule="evenodd"/><path fill="#000000" stroke="#000000" stroke-width="2.0" stroke-linecap="butt" d="m561.1276 428.8084l-3.3034668 -9.076202l-3.3034668 9.076202z" fill-rule="evenodd"/><path fill="#000000" fill-opacity="0.0" d="m486.5653 456.60852l0 -65.44882l45.637756 0" fill-rule="evenodd"/><path stroke="#000000" stroke-width="2.0" stroke-linejoin="round" stroke-linecap="butt" d="m486.56528 456.60852l0 -65.44882l33.637787 0" fill-rule="evenodd"/><path fill="#000000" stroke="#000000" stroke-width="2.0" stroke-linecap="butt" d="m520.20306 394.46317l9.076233 -3.3034668l-9.076233 -3.3034668z" fill-rule="evenodd"/><path fill="#000000" fill-opacity="0.0" d="m583.4732 391.1639l29.833984 0l0 157.59451l48.937683 0l0 -24.996094" fill-rule="evenodd"/><path stroke="#000000" stroke-width="2.0" stroke-linejoin="round" stroke-linecap="butt" d="m583.4732 391.16388l29.833984 0l0 157.59454l48.937622 0l0 -12.996094" fill-rule="evenodd"/><path fill="#000000" stroke="#000000" stroke-width="2.0" stroke-linecap="butt" d="m665.5483 535.7623l-3.3034668 -9.076233l-3.3034668 9.076233z" fill-rule="evenodd"/><path fill="#000000" fill-opacity="0.0" d="m171.08661 647.4488l0 -61.84497l529.41736 0l0 -61.840027" fill-rule="evenodd"/><path stroke="#000000" stroke-width="2.0" stroke-linejoin="round" stroke-linecap="butt" d="m171.08661 647.4488l0 -61.84497l529.41736 0l0 -49.840027" fill-rule="evenodd"/><path fill="#000000" stroke="#000000" stroke-width="2.0" stroke-linecap="butt" d="m703.8074 535.7638l-3.3034058 -9.076233l-3.3034668 9.076233z" fill-rule="evenodd"/><path fill="#000000" fill-opacity="0.0" d="m681.3766 456.60852l0 -155.1496l-97.88977 0" fill-rule="evenodd"/><path stroke="#000000" stroke-width="2.0" stroke-linejoin="round" stroke-linecap="butt" d="m681.3766 456.60852l0 -155.14963l-85.88977 0" fill-rule="evenodd"/><path fill="#000000" stroke="#000000" stroke-width="2.0" stroke-linecap="butt" d="m595.4868 298.15546l-9.076172 3.3034363l9.076172 3.3034668z" fill-rule="evenodd"/><path fill="#000000" fill-opacity="0.0" d="m93.63517 382.66666l28.666718 0l0 -81.22833l42.262413 0" fill-rule="evenodd"/><path stroke="#000000" stroke-width="2.0" stroke-linejoin="round" stroke-linecap="butt" d="m93.63517 382.66666l28.666718 0l0 -81.22833l30.262413 0" fill-rule="evenodd"/><path fill="#000000" stroke="#000000" stroke-width="2.0" stroke-linecap="butt" d="m152.5643 304.7418l9.076202 -3.3034668l-9.076202 -3.3034668z" fill-rule="evenodd"/><path fill="#000000" fill-opacity="0.0" d="m190.20416 275.8076l0 -63.43306l472.47247 0" fill-rule="evenodd"/><path stroke="#000000" stroke-width="2.0" stroke-linejoin="round" stroke-linecap="butt" d="m190.20418 275.8076l0 -63.43306l460.4724 0" fill-rule="evenodd"/><path fill="#000000" stroke="#000000" stroke-width="2.0" stroke-linecap="butt" d="m650.6766 215.678l9.076233 -3.3034668l-9.076233 -3.3034668z" fill-rule="evenodd"/><path fill="#000000" fill-opacity="0.0" d="m557.8346 275.8076l0 -16.62387l130.45673 0l0 -21.171402" fill-rule="evenodd"/><path stroke="#000000" stroke-width="2.0" stroke-linejoin="round" stroke-linecap="butt" d="m557.8346 275.8076l0 -16.62387l130.45673 0l0 -9.171387" fill-rule="evenodd"/><path fill="#000000" stroke="#000000" stroke-width="2.0" stroke-linecap="butt" d="m691.5948 250.01233l-3.3034668 -9.076202l-3.3034668 9.076202z" fill-rule="evenodd"/><path fill="#000000" fill-opacity="0.0" d="m713.943 212.37387l36.89691 0l0 170.29922l41.181824 0" fill-rule="evenodd"/><path stroke="#000000" stroke-width="2.0" stroke-linejoin="round" stroke-linecap="butt" d="m713.943 212.37387l36.89691 0l0 170.2992l29.181824 0" fill-rule="evenodd"/><path fill="#000000" stroke="#000000" stroke-width="2.0" stroke-linecap="butt" d="m780.0217 385.97653l9.076233 -3.3034668l-9.076233 -3.3034668z" fill-rule="evenodd"/><path fill="#000000" fill-opacity="0.0" d="m713.943 212.37387l36.81891 0l0 -105.25984" fill-rule="evenodd"/><path stroke="#000000" stroke-width="2.0" stroke-linejoin="round" stroke-linecap="butt" d="m713.943 212.37387l36.81891 0l0 -93.25984" fill-rule="evenodd"/><path fill="#000000" stroke="#000000" stroke-width="2.0" stroke-linecap="butt" d="m754.06537 119.11403l-3.3034668 -9.076195l-3.3034668 9.076195z" fill-rule="evenodd"/><path fill="#000000" fill-opacity="0.0" d="m190.20468 456.60852l0 -35.93701" fill-rule="evenodd"/><path stroke="#000000" stroke-width="2.0" stroke-linejoin="round" stroke-linecap="butt" d="m190.20468 456.60852l0 -23.937012" fill-rule="evenodd"/><path fill="#000000" stroke="#000000" stroke-width="2.0" stroke-linecap="butt" d="m193.50815 432.6715l-3.3034668 -9.076202l-3.3034668 9.076202z" fill-rule="evenodd"/><path fill="#000000" fill-opacity="0.0" d="m190.20573 369.3975l0 -42.299225" fill-rule="evenodd"/><path stroke="#000000" stroke-width="2.0" stroke-linejoin="round" stroke-linecap="butt" d="m190.20573 369.39746l0 -30.299194" fill-rule="evenodd"/><path fill="#000000" stroke="#000000" stroke-width="2.0" stroke-linecap="butt" d="m193.5092 339.09827l-3.3034668 -9.076172l-3.3034668 9.076172z" fill-rule="evenodd"/><path fill="#000000" fill-opacity="0.0" d="m190.20468 456.60852c0 -32.381195 91.90552 -48.573395 183.81104 -64.76239c91.90549 -16.188965 183.811 -32.374695 183.811 -64.74942" fill-rule="evenodd"/><path stroke="#000000" stroke-width="2.0" stroke-linejoin="round" stroke-linecap="butt" d="m190.20468 456.60852c0 -32.381195 91.90552 -48.573425 183.81104 -64.76239c45.95276 -8.094482 91.90549 -16.188171 126.370056 -26.305084c17.23227 -5.058441 31.59256 -10.622711 41.644684 -16.94574c5.026123 -3.1615295 8.975159 -6.5127563 11.667725 -10.085327l0.08520508 -0.114990234" fill-rule="evenodd"/><path fill="#000000" stroke="#000000" stroke-width="2.0" stroke-linecap="butt" d="m556.8937 339.5081l-0.052124023 -9.658539l-6.168457 7.432373z" fill-rule="evenodd"/></g></svg>