<svg version="1.1" viewBox="0.0 0.0 1074.1364829396325 854.7244094488188" fill="none" stroke="none" stroke-linecap="square" stroke-miterlimit="10" xmlns:xlink="http://www.w3.org/1999/xlink" xmlns="http://www.w3.org/2000/svg"><clipPath id="p.0"><path d="m0 0l1074.1365 0l0 854.7244l-1074.1365 0l0 -854.7244z" clip-rule="nonzero"/></clipPath><g clip-path="url(#p.0)"><path fill="#000000" fill-opacity="0.0" d="m0 0l1074.1365 0l0 854.7244l-1074.1365 0z" fill-rule="evenodd"/><path fill="#d9ead3" d="m129.50131 244.92557l0 0c0 -46.47113 37.672287 -84.14342 84.14342 -84.14342l670.23285 0c22.316223 0 43.718445 8.865082 59.498413 24.645035c15.779907 15.779953 24.64502 37.18216 24.64502 59.498383l0 336.56357c0 46.47113 -37.672302 84.14343 -84.14343 84.14343l-670.23285 0c-46.47113 0 -84.14342 -37.672302 -84.14342 -84.14343z" fill-rule="evenodd"/><path stroke="#274e13" stroke-width="3.0" stroke-linejoin="round" stroke-linecap="butt" d="m129.50131 244.92557l0 0c0 -46.47113 37.672287 -84.14342 84.14342 -84.14342l670.23285 0c22.316223 0 43.718445 8.865082 59.498413 24.645035c15.779907 15.779953 24.64502 37.18216 24.64502 59.498383l0 336.56357c0 46.47113 -37.672302 84.14343 -84.14343 84.14343l-670.23285 0c-46.47113 0 -84.14342 -37.672302 -84.14342 -84.14343z" fill-rule="evenodd"/><path fill="#000000" fill-opacity="0.0" d="m41.666668 248.35695l83.68504 0" fill-rule="evenodd"/><path stroke="#000000" stroke-width="2.0" stroke-linejoin="round" stroke-linecap="butt" d="m41.666668 248.35695l71.68504 0" fill-rule="evenodd"/><path fill="#000000" stroke="#000000" stroke-width="2.0" stroke-linecap="butt" d="m113.35171 251.66042l9.076195 -3.3034668l-9.076195 -3.3034515z" fill-rule="evenodd"/><path fill="#000000" fill-opacity="0.0" d="m50.254593 197.08136l60.598427 0l0 51.27559l-60.598427 0z" fill-rule="evenodd"/><path fill="#000000" d="m61.848343 225.16824q0.296875 1.390625 0.96875 2.078125q0.6875 0.6875 2.015625 0.6875q0.6875 0 1.234375 -0.234375q0.5625 -0.234375 0.890625 -0.75q0.34375 -0.53125 0.34375 -1.3125q0 -0.71875 -0.28125 -1.25q-0.265625 -0.546875 -0.859375 -1.015625q-0.59375 -0.484375 -1.671875 -1.03125q-0.90625 -0.453125 -1.65625 -0.9375q-0.734375 -0.5 -1.25 -1.09375q-0.515625 -0.59375 -0.8125 -1.296875q-0.28125 -0.703125 -0.28125 -1.578125q0 -1.4375 0.703125 -2.4375q0.71875 -1.015625 2.078125 -1.53125q1.359375 -0.53125 3.140625 -0.53125q1.03125 0 1.984375 0.109375q0.953125 0.109375 2.171875 0.390625l0 3.40625l-1.609375 0q-0.21875 -0.921875 -0.5625 -1.46875q-0.34375 -0.546875 -0.859375 -0.796875q-0.515625 -0.265625 -1.3125 -0.265625q-0.65625 0 -1.1875 0.234375q-0.53125 0.234375 -0.84375 0.703125q-0.296875 0.453125 -0.296875 1.109375q0 0.6875 0.265625 1.1875q0.265625 0.484375 0.875 0.96875q0.625 0.46875 1.8125 1.078125q1.4375 0.75 2.265625 1.46875q0.828125 0.71875 1.21875 1.578125q0.390625 0.84375 0.390625 1.96875q0 1.4375 -0.671875 2.5q-0.65625 1.0625 -1.9375 1.640625q-1.28125 0.5625 -2.953125 0.5625q-1.1875 0 -2.484375 -0.140625q-1.296875 -0.125 -2.4375 -0.390625l0 -3.609375l1.609375 0z" fill-rule="nonzero"/><path fill="#000000" d="m77.586624 237.18387q-0.6875 0.578125 -1.25 0.828125q-0.5625 0.234375 -1.1875 0.234375q-1.15625 0 -1.734375 -0.625q-0.578125 -0.640625 -0.578125 -1.90625l0 -4.375l-0.96875 0l0 -0.53125q0.46875 -0.078125 0.6875 -0.234375q0.234375 -0.15625 0.359375 -0.421875q0.125 -0.265625 0.203125 -0.6875q0.078125 -0.421875 0.109375 -1.046875l1.875 0l0 1.953125l2.21875 0l0 0.96875l-2.21875 0l0 3.53125q0 0.875 0.078125 1.296875q0.078125 0.421875 0.265625 0.625q0.203125 0.203125 0.5 0.203125q0.21875 0 0.390625 -0.03125q0.171875 -0.046875 0.359375 -0.140625q0.1875 -0.109375 0.40625 -0.296875l0.484375 0.65625zm4.375 -2.515625l-3.703125 0l0 -1.640625l3.703125 0l0 1.640625zm7.109375 1.265625q0 0.453125 0.046875 0.6875q0.0625 0.234375 0.1875 0.375q0.125 0.140625 0.359375 0.234375q0.25 0.078125 0.609375 0.125q0.375 0.03125 0.984375 0.046875l0 0.71875l-6.75 0l0 -0.71875q0.875 -0.03125 1.234375 -0.09375q0.375 -0.078125 0.5625 -0.203125q0.203125 -0.140625 0.296875 -0.375q0.09375 -0.25 0.09375 -0.796875l0 -5.640625q0 -0.328125 -0.125 -0.46875q-0.125 -0.140625 -0.328125 -0.140625q-0.203125 0 -0.5625 0.1875q-0.34375 0.171875 -1.15625 0.734375l-0.484375 -0.828125l4.078125 -2.453125l1.0 0q-0.046875 0.75 -0.046875 2.078125l0 6.53125z" fill-rule="nonzero"/><path fill="#000000" fill-opacity="0.0" d="m41.666668 586.6667l83.68504 0" fill-rule="evenodd"/><path stroke="#000000" stroke-width="2.0" stroke-linejoin="round" stroke-linecap="butt" d="m41.666668 586.6667l71.68504 0" fill-rule="evenodd"/><path fill="#000000" stroke="#000000" stroke-width="2.0" stroke-linecap="butt" d="m113.35171 589.97015l9.076195 -3.3034668l-9.076195 -3.3034668z" fill-rule="evenodd"/><path fill="#000000" fill-opacity="0.0" d="m50.254593 535.39105l60.598427 0l0 51.275635l-60.598427 0z" fill-rule="evenodd"/><path fill="#000000" d="m74.19209 564.4936q0 0.890625 0.078125 1.234375q0.078125 0.328125 0.3125 0.5625q0.234375 0.21875 0.859375 0.359375l0 0.78125l-6.125 0l0 -0.78125q0.6875 -0.171875 0.875 -0.34375q0.203125 -0.171875 0.28125 -0.5q0.09375 -0.328125 0.09375 -1.3125l0 -4.703125l-5.296875 0l0 4.703125q0 0.40625 0.015625 0.765625q0.03125 0.34375 0.09375 0.5625q0.078125 0.21875 0.203125 0.375q0.140625 0.15625 0.375 0.265625q0.234375 0.109375 0.578125 0.1875l0 0.78125l-6.15625 0l0 -0.78125q0.4375 -0.109375 0.6875 -0.234375q0.25 -0.140625 0.375 -0.375q0.125 -0.25 0.15625 -0.609375q0.03125 -0.375 0.03125 -0.9375l0 -10.109375q0 -0.546875 -0.03125 -0.921875q-0.015625 -0.375 -0.140625 -0.609375q-0.125 -0.234375 -0.375 -0.375q-0.25 -0.15625 -0.703125 -0.265625l0 -0.78125l6.15625 0l0 0.78125q-0.625 0.171875 -0.859375 0.390625q-0.21875 0.203125 -0.3125 0.546875q-0.09375 0.34375 -0.09375 1.25l0 3.90625l5.296875 0l0 -3.90625q0 -0.890625 -0.078125 -1.234375q-0.078125 -0.34375 -0.3125 -0.5625q-0.21875 -0.21875 -0.859375 -0.390625l0 -0.78125l6.125 0l0 0.78125q-0.515625 0.140625 -0.75 0.296875q-0.234375 0.15625 -0.34375 0.40625q-0.09375 0.234375 -0.125 0.546875q-0.03125 0.296875 -0.03125 0.9375l0 10.09375z" fill-rule="nonzero"/><path fill="#000000" d="m82.59053 575.4936q-0.6875 0.578125 -1.25 0.828125q-0.5625 0.234375 -1.1875 0.234375q-1.15625 0 -1.734375 -0.625q-0.578125 -0.640625 -0.578125 -1.90625l0 -4.375l-0.96875 0l0 -0.53125q0.46875 -0.078125 0.6875 -0.234375q0.234375 -0.15625 0.359375 -0.421875q0.125 -0.265625 0.203125 -0.6875q0.078125 -0.421875 0.109375 -1.046875l1.875 0l0 1.953125l2.21875 0l0 0.96875l-2.21875 0l0 3.53125q0 0.875 0.078125 1.296875q0.078125 0.421875 0.265625 0.625q0.203125 0.203125 0.5 0.203125q0.21875 0 0.390625 -0.03125q0.171875 -0.046875 0.359375 -0.140625q0.1875 -0.109375 0.40625 -0.296875l0.484375 0.65625zm4.375 -2.515625l-3.703125 0l0 -1.640625l3.703125 0l0 1.640625zm7.109375 1.265625q0 0.453125 0.046875 0.6875q0.0625 0.234375 0.1875 0.375q0.125 0.140625 0.359375 0.234375q0.25 0.078125 0.609375 0.125q0.375 0.03125 0.984375 0.046875l0 0.71875l-6.75 0l0 -0.71875q0.875 -0.03125 1.234375 -0.09375q0.375 -0.078125 0.5625 -0.203125q0.203125 -0.140625 0.296875 -0.375q0.09375 -0.25 0.09375 -0.796875l0 -5.640625q0 -0.328125 -0.125 -0.46875q-0.125 -0.140625 -0.328125 -0.140625q-0.203125 0 -0.5625 0.1875q-0.34375 0.171875 -1.15625 0.734375l-0.484375 -0.828125l4.078125 -2.453125l1.0 0q-0.046875 0.75 -0.046875 2.078125l0 6.53125z" fill-rule="nonzero"/><path fill="#cfe2f3" d="m212.26247 784.53546l0 0c0 -20.343262 16.49144 -36.834656 36.83464 -36.834656l0 0c9.769165 0 19.138184 3.8807373 26.04602 10.788574c6.907837 6.907837 10.788635 16.276917 10.788635 26.046082l0 0c0 20.3432 -16.491425 36.834595 -36.834656 36.834595l0 0c-20.3432 0 -36.83464 -16.491394 -36.83464 -36.834595z" fill-rule="evenodd"/><path stroke="#000000" stroke-width="1.0" stroke-linejoin="round" stroke-linecap="butt" d="m212.26247 784.53546l0 0c0 -20.343262 16.49144 -36.834656 36.83464 -36.834656l0 0c9.769165 0 19.138184 3.8807373 26.04602 10.788574c6.907837 6.907837 10.788635 16.276917 10.788635 26.046082l0 0c0 20.3432 -16.491425 36.834595 -36.834656 36.834595l0 0c-20.3432 0 -36.83464 -16.491394 -36.83464 -36.834595z" fill-rule="evenodd"/><path fill="#000000" d="m245.82953 777.07544l0 0.78125q-0.546875 0.046875 -0.78125 0.25q-0.21875 0.1875 -0.21875 0.59375q0 0.1875 0.078125 0.453125q0.078125 0.25 0.265625 0.609375q0.1875 0.34375 0.640625 1.09375l1.078125 1.8125l1.421875 -2.09375q0.46875 -0.6875 0.625 -1.046875q0.15625 -0.375 0.15625 -0.796875q0 -0.375 -0.265625 -0.59375q-0.25 -0.234375 -0.703125 -0.28125l0 -0.78125l4.84375 0l0 0.78125q-0.34375 0.09375 -0.65625 0.3125q-0.296875 0.203125 -0.703125 0.671875q-0.390625 0.46875 -1.265625 1.734375l-2.53125 3.609375l3.8125 6.296875q0.203125 0.3125 0.40625 0.625q0.203125 0.3125 0.390625 0.5625q0.203125 0.234375 0.34375 0.359375q0.15625 0.109375 0.296875 0.171875q0.140625 0.0625 0.296875 0.09375l0 0.78125l-6.515625 0l0 -0.78125q0.515625 -0.046875 0.75 -0.234375q0.25 -0.1875 0.25 -0.609375q0 -0.140625 -0.046875 -0.296875q-0.03125 -0.171875 -0.140625 -0.40625q-0.09375 -0.234375 -0.203125 -0.40625q-0.09375 -0.1875 -0.390625 -0.703125l-1.625 -2.6875l-1.921875 2.828125q-0.21875 0.34375 -0.375 0.625q-0.140625 0.28125 -0.203125 0.515625q-0.0625 0.234375 -0.0625 0.546875q0 0.3125 0.25 0.546875q0.25 0.234375 0.71875 0.28125l0 0.78125l-4.84375 0l0 -0.78125q0.390625 -0.109375 0.703125 -0.34375q0.328125 -0.25 0.703125 -0.703125q0.390625 -0.453125 1.046875 -1.421875l3.0625 -4.375l-2.953125 -4.921875q-0.484375 -0.796875 -0.828125 -1.3125q-0.34375 -0.53125 -0.578125 -0.796875q-0.234375 -0.28125 -0.421875 -0.390625q-0.171875 -0.125 -0.421875 -0.171875l0 -0.78125l6.515625 0z" fill-rule="nonzero"/><path fill="#000000" d="m259.6147 801.13794q-0.6875 0.578125 -1.25 0.828125q-0.5625 0.234375 -1.1875 0.234375q-1.15625 0 -1.734375 -0.625q-0.578125 -0.640625 -0.578125 -1.90625l0 -4.375l-0.96875 0l0 -0.53125q0.46875 -0.078125 0.6875 -0.234375q0.234375 -0.15625 0.359375 -0.421875q0.125 -0.265625 0.203125 -0.6875q0.078125 -0.421875 0.109375 -1.046875l1.875 0l0 1.953125l2.21875 0l0 0.96875l-2.21875 0l0 3.53125q0 0.875 0.078125 1.296875q0.078125 0.421875 0.265625 0.625q0.203125 0.203125 0.5 0.203125q0.21875 0 0.390625 -0.03125q0.171875 -0.046875 0.359375 -0.140625q0.1875 -0.109375 0.40625 -0.296875l0.484375 0.65625z" fill-rule="nonzero"/><path fill="#000000" fill-opacity="0.0" d="m133.63518 248.35695l737.8582 0l0 25.16536" fill-rule="evenodd"/><path stroke="#000000" stroke-width="2.0" stroke-linejoin="round" stroke-linecap="butt" d="m133.63518 248.35695l737.8582 0l0 13.1653595" fill-rule="evenodd"/><path fill="#000000" stroke="#000000" stroke-width="2.0" stroke-linecap="butt" d="m868.19 261.5223l3.3034058 9.076202l3.3034668 -9.076202z" fill-rule="evenodd"/><path fill="#000000" fill-opacity="0.0" d="m133.63518 248.35695l830.1417 0" fill-rule="evenodd"/><path stroke="#000000" stroke-width="2.0" stroke-linejoin="round" stroke-linecap="butt" d="m133.63518 248.35695l818.1417 0" fill-rule="evenodd"/><path fill="#000000" stroke="#000000" stroke-width="2.0" stroke-linecap="butt" d="m951.7769 251.66042l9.076172 -3.3034668l-9.076172 -3.3034515z" fill-rule="evenodd"/><path fill="#f4cccc" d="m223.45877 248.40668l0 0c0 -14.159363 11.478424 -25.637802 25.637787 -25.637802l0 0c6.7995605 0 13.320648 2.701126 18.128662 7.50914c4.808014 4.808029 7.5091248 11.329102 7.5091248 18.128662l0 0c0 14.159363 -11.478424 25.637787 -25.637787 25.637787l0 0c-14.159363 0 -25.637787 -11.478424 -25.637787 -25.637787z" fill-rule="evenodd"/><path stroke="#000000" stroke-width="2.0" stroke-linejoin="round" stroke-linecap="butt" d="m223.45877 248.40668l0 0c0 -14.159363 11.478424 -25.637802 25.637787 -25.637802l0 0c6.7995605 0 13.320648 2.701126 18.128662 7.50914c4.808014 4.808029 7.5091248 11.329102 7.5091248 18.128662l0 0c0 14.159363 -11.478424 25.637787 -25.637787 25.637787l0 0c-14.159363 0 -25.637787 -11.478424 -25.637787 -25.637787z" fill-rule="evenodd"/><path fill="#434343" d="m236.46313 242.11885l6.359131 -6.3591156l6.7551575 6.7551575l6.7551575 -6.7551575l6.359131 6.3591156l-6.7551575 6.7551575l6.7551575 6.7551727l-6.359131 6.359131l-6.7551575 -6.7551727l-6.7551575 6.7551727l-6.359131 -6.359131l6.7551727 -6.7551727z" fill-rule="evenodd"/><path fill="#000000" fill-opacity="0.0" d="m213.91104 364.3399l38.23622 0l0 54.519684l-38.23622 0z" fill-rule="evenodd"/><path fill="#000000" d="m223.89542 395.59863q0.546875 -0.15625 0.765625 -0.359375q0.21875 -0.203125 0.3125 -0.546875q0.09375 -0.359375 0.09375 -1.25l0 -7.21875l-1.421875 0l0 -0.8125q0.546875 -0.078125 0.765625 -0.171875q0.21875 -0.109375 0.359375 -0.28125q0.140625 -0.171875 0.21875 -0.4375q0.078125 -0.265625 0.109375 -0.6875q0.1875 -2.109375 1.5625 -3.1875q1.390625 -1.09375 3.90625 -1.09375q1.0 0 1.796875 0.15625l0 2.390625l-1.59375 0q-0.203125 -0.640625 -0.453125 -0.9375q-0.234375 -0.3125 -0.625 -0.3125q-0.5 0 -0.765625 0.34375q-0.265625 0.328125 -0.375 0.953125q-0.09375 0.609375 -0.09375 1.71875l0 0.890625l2.265625 0l0 1.46875l-2.265625 0l0 7.21875q0 0.875 0.09375 1.234375q0.09375 0.359375 0.328125 0.578125q0.25 0.203125 0.859375 0.34375l0 0.78125l-5.84375 0l0 -0.78125z" fill-rule="nonzero"/><path fill="#000000" d="m236.75479 404.44238q-0.6875 0.578125 -1.25 0.828125q-0.5625 0.234375 -1.1875 0.234375q-1.15625 0 -1.734375 -0.625q-0.578125 -0.640625 -0.578125 -1.90625l0 -4.375l-0.96875 0l0 -0.53125q0.46875 -0.078125 0.6875 -0.234375q0.234375 -0.15625 0.359375 -0.421875q0.125 -0.265625 0.203125 -0.6875q0.078125 -0.421875 0.109375 -1.046875l1.875 0l0 1.953125l2.21875 0l0 0.96875l-2.21875 0l0 3.53125q0 0.875 0.078125 1.296875q0.078125 0.421875 0.265625 0.625q0.203125 0.203125 0.5 0.203125q0.21875 0 0.390625 -0.03125q0.171875 -0.046875 0.359375 -0.140625q0.1875 -0.109375 0.40625 -0.296875l0.484375 0.65625z" fill-rule="nonzero"/><path fill="#000000" fill-opacity="0.0" d="m249.0971 747.7008l0.22047424 -271.02365" fill-rule="evenodd"/><path stroke="#000000" stroke-width="2.0" stroke-linejoin="round" stroke-linecap="butt" d="m249.0971 747.7008l0.21072388 -259.02365" fill-rule="evenodd"/><path fill="#000000" stroke="#000000" stroke-width="2.0" stroke-linecap="butt" d="m252.61128 488.67984l-3.2960815 -9.078857l-3.3108368 9.073486z" fill-rule="evenodd"/><path fill="#d9d2e9" d="m552.1667 443.11548l38.236206 0l0 33.5748l-38.236206 0z" fill-rule="evenodd"/><path stroke="#000000" stroke-width="1.0" stroke-linejoin="round" stroke-linecap="butt" d="m552.1667 443.11548l38.236206 0l0 33.5748l-38.236206 0z" fill-rule="evenodd"/><path fill="#000000" d="m571.26807 456.7135l-2.921875 10.171875l-1.46875 0l-2.65625 -9.890625q-0.171875 -0.625 -0.3125 -1.015625q-0.125 -0.390625 -0.265625 -0.609375q-0.140625 -0.21875 -0.296875 -0.328125q-0.15625 -0.125 -0.453125 -0.203125l0 -0.453125l3.890625 0l0 0.453125q-0.5625 0.109375 -0.78125 0.328125q-0.21875 0.21875 -0.21875 0.609375q0 0.3125 0.078125 0.75q0.078125 0.4375 0.21875 1.0l1.84375 7.1875l2.921875 -10.328125l1.53125 0l2.375 10.34375l2.15625 -6.953125q0.390625 -1.265625 0.390625 -1.796875q0 -0.5625 -0.234375 -0.796875q-0.234375 -0.25 -0.765625 -0.34375l0 -0.453125l3.59375 0l0 0.453125q-0.28125 0.09375 -0.453125 0.203125q-0.15625 0.109375 -0.3125 0.3125q-0.140625 0.1875 -0.328125 0.609375q-0.171875 0.40625 -0.40625 1.09375l-3.3125 9.828125l-1.296875 0l-2.515625 -10.171875z" fill-rule="nonzero"/><path fill="#d9d2e9" d="m590.4029 443.11548l38.236206 0l0 33.5748l-38.236206 0z" fill-rule="evenodd"/><path stroke="#000000" stroke-width="1.0" stroke-linejoin="round" stroke-linecap="butt" d="m590.4029 443.11548l38.236206 0l0 33.5748l-38.236206 0z" fill-rule="evenodd"/><path fill="#000000" d="m609.50433 456.7135l-2.921875 10.171875l-1.46875 0l-2.65625 -9.890625q-0.171875 -0.625 -0.3125 -1.015625q-0.125 -0.390625 -0.265625 -0.609375q-0.140625 -0.21875 -0.296875 -0.328125q-0.15625 -0.125 -0.453125 -0.203125l0 -0.453125l3.890625 0l0 0.453125q-0.5625 0.109375 -0.78125 0.328125q-0.21875 0.21875 -0.21875 0.609375q0 0.3125 0.078125 0.75q0.078125 0.4375 0.21875 1.0l1.84375 7.1875l2.921875 -10.328125l1.53125 0l2.375 10.34375l2.15625 -6.953125q0.390625 -1.265625 0.390625 -1.796875q0 -0.5625 -0.234375 -0.796875q-0.234375 -0.25 -0.765625 -0.34375l0 -0.453125l3.59375 0l0 0.453125q-0.28125 0.09375 -0.453125 0.203125q-0.15625 0.109375 -0.3125 0.3125q-0.140625 0.1875 -0.328125 0.609375q-0.171875 0.40625 -0.40625 1.09375l-3.3125 9.828125l-1.296875 0l-2.515625 -10.171875z" fill-rule="nonzero"/><path fill="#fff2cc" d="m552.1666 409.54068l76.47241 0l0 33.5748l-76.47241 0z" fill-rule="evenodd"/><path stroke="#000000" stroke-width="1.0" stroke-linejoin="round" stroke-linecap="butt" d="m552.1666 409.54068l76.47241 0l0 33.5748l-76.47241 0z" fill-rule="evenodd"/><path fill="#000000" d="m567.60205 424.24307q0.578125 -0.09375 0.9375 -0.328125q0.375 -0.234375 0.578125 -0.59375q0.203125 -0.375 0.3125 -0.921875q0.125 -0.5625 0.25 -1.625l1.671875 0l0 2.890625l3.78125 0l0 1.1875l-3.78125 0l0 5.203125q0 1.140625 0.09375 1.8125q0.09375 0.671875 0.34375 1.0625q0.265625 0.375 0.59375 0.546875q0.328125 0.15625 0.84375 0.15625q0.46875 0 0.875 -0.1875q0.40625 -0.203125 0.8125 -0.5625l0.53125 0.640625q-0.84375 0.796875 -1.59375 1.171875q-0.734375 0.359375 -1.53125 0.359375q-1.515625 0 -2.25 -0.890625q-0.734375 -0.90625 -0.734375 -2.8125l0 -6.5l-1.734375 0l0 -0.609375zm15.589844 8.953125l-0.171875 -0.046875q-1.015625 1.03125 -1.921875 1.46875q-0.890625 0.4375 -1.890625 0.4375q-0.890625 0 -1.578125 -0.34375q-0.671875 -0.34375 -1.046875 -0.96875q-0.359375 -0.640625 -0.359375 -1.453125q0 -1.71875 1.6875 -2.640625q1.703125 -0.9375 5.09375 -1.09375l0 -0.75q0 -1.21875 -0.234375 -1.921875q-0.234375 -0.703125 -0.75 -1.03125q-0.5 -0.328125 -1.34375 -0.328125q-0.90625 0 -1.46875 0.484375q-0.5625 0.46875 -0.84375 1.4375l-1.53125 0l0 -1.53125q1.125 -0.578125 1.875 -0.859375q0.75 -0.28125 1.5 -0.4375q0.75 -0.15625 1.53125 -0.15625q1.15625 0 1.859375 0.375q0.703125 0.359375 1.046875 1.125q0.359375 0.765625 0.359375 2.296875l0 4.078125q0 0.875 0 1.234375q0.015625 0.34375 0.078125 0.65625q0.0625 0.296875 0.171875 0.484375q0.125 0.1875 0.34375 0.3125q0.234375 0.125 0.75 0.265625l0 0.578125l-3.203125 0l0.046875 -1.671875zm-0.1875 -3.671875q-2.390625 0.015625 -3.578125 0.625q-1.171875 0.609375 -1.171875 1.84375q0 0.671875 0.265625 1.0625q0.265625 0.375 0.671875 0.53125q0.421875 0.140625 0.984375 0.140625q0.796875 0 1.4375 -0.375q0.65625 -0.390625 1.015625 -0.984375q0.375 -0.609375 0.375 -1.1875l0 -1.65625zm16.546875 5.34375l-4.609375 0l0 -0.578125q0.453125 -0.140625 0.65625 -0.234375q0.203125 -0.109375 0.328125 -0.296875q0.140625 -0.1875 0.21875 -0.578125q0.078125 -0.40625 0.078125 -1.203125l0 -3.0625q0 -0.828125 -0.046875 -1.484375q-0.046875 -0.671875 -0.171875 -1.09375q-0.109375 -0.4375 -0.265625 -0.671875q-0.15625 -0.25 -0.375 -0.40625q-0.21875 -0.171875 -0.5 -0.265625q-0.28125 -0.109375 -0.734375 -0.109375q-0.453125 0 -0.875 0.1875q-0.40625 0.171875 -0.90625 0.625q-0.484375 0.4375 -0.703125 0.875q-0.21875 0.4375 -0.21875 1.0l0 4.359375q0 1.015625 0.09375 1.40625q0.09375 0.390625 0.359375 0.59375q0.265625 0.203125 0.859375 0.359375l0 0.578125l-4.59375 0l0 -0.578125q0.453125 -0.140625 0.640625 -0.234375q0.203125 -0.109375 0.328125 -0.296875q0.140625 -0.1875 0.21875 -0.578125q0.078125 -0.390625 0.078125 -1.203125l0 -5.109375q0 -0.75 -0.03125 -1.203125q-0.015625 -0.46875 -0.15625 -0.734375q-0.140625 -0.28125 -0.4375 -0.40625q-0.28125 -0.140625 -0.8125 -0.234375l0 -0.625l2.75 -0.109375l0.71875 0l-0.140625 1.90625l0.171875 0.046875q0.859375 -0.875 1.390625 -1.25q0.546875 -0.375 1.078125 -0.578125q0.546875 -0.203125 1.15625 -0.203125q0.640625 0 1.140625 0.15625q0.5 0.140625 0.875 0.453125q0.375 0.296875 0.625 0.75q0.25 0.4375 0.375 1.078125q0.125 0.625 0.125 1.609375l0 4.40625q0 0.8125 0.046875 1.1875q0.046875 0.359375 0.15625 0.5625q0.125 0.1875 0.34375 0.328125q0.21875 0.125 0.765625 0.28125l0 0.578125zm5.1289062 -9.359375l0.046875 0q0.90625 -0.921875 1.4375 -1.28125q0.546875 -0.375 1.0625 -0.5625q0.515625 -0.1875 1.125 -0.1875q0.640625 0 1.140625 0.15625q0.5 0.140625 0.875 0.453125q0.390625 0.3125 0.625 0.765625q0.25 0.453125 0.359375 1.078125q0.125 0.625 0.125 1.59375l0 4.40625q0 1.03125 0.078125 1.40625q0.09375 0.359375 0.3125 0.5625q0.234375 0.203125 0.9375 0.390625l0 0.578125l-4.625 0l0 -0.578125q0.453125 -0.140625 0.65625 -0.234375q0.203125 -0.109375 0.328125 -0.296875q0.140625 -0.1875 0.21875 -0.578125q0.078125 -0.40625 0.078125 -1.203125l0 -3.0625q0 -1.5625 -0.15625 -2.390625q-0.15625 -0.828125 -0.625 -1.234375q-0.46875 -0.40625 -1.296875 -0.40625q-0.46875 0 -0.84375 0.171875q-0.375 0.15625 -0.875 0.578125q-0.484375 0.421875 -0.734375 0.875q-0.25 0.4375 -0.25 0.9375l0 4.484375q0 0.796875 0.03125 1.140625q0.046875 0.34375 0.15625 0.578125q0.125 0.21875 0.359375 0.375q0.25 0.140625 0.75 0.265625l0 0.578125l-4.640625 0l0 -0.578125q0.515625 -0.140625 0.734375 -0.265625q0.234375 -0.125 0.34375 -0.328125q0.125 -0.203125 0.1875 -0.578125q0.0625 -0.375 0.0625 -1.1875l0 -9.796875q0 -1.125 -0.015625 -1.5625q-0.015625 -0.453125 -0.09375 -0.765625q-0.078125 -0.3125 -0.21875 -0.484375q-0.125 -0.1875 -0.359375 -0.28125q-0.234375 -0.109375 -0.828125 -0.21875l0 -0.609375l2.828125 -0.109375l0.703125 0l0 7.40625z" fill-rule="nonzero"/><path fill="#f4cccc" d="m564.7645 352.94867l0 0c0 -14.159363 11.478455 -25.637787 25.637817 -25.637787l0 0c6.7995605 0 13.320618 2.7011108 18.128662 7.5091248c4.8079834 4.808014 7.509094 11.329102 7.509094 18.128662l0 0c0 14.159363 -11.478394 25.637787 -25.637756 25.637787l0 0c-14.159363 0 -25.637817 -11.478424 -25.637817 -25.637787z" fill-rule="evenodd"/><path stroke="#000000" stroke-width="2.0" stroke-linejoin="round" stroke-linecap="butt" d="m564.7645 352.94867l0 0c0 -14.159363 11.478455 -25.637787 25.637817 -25.637787l0 0c6.7995605 0 13.320618 2.7011108 18.128662 7.5091248c4.8079834 4.808014 7.509094 11.329102 7.509094 18.128662l0 0c0 14.159363 -11.478394 25.637787 -25.637756 25.637787l0 0c-14.159363 0 -25.637817 -11.478424 -25.637817 -25.637787z" fill-rule="evenodd"/><path fill="#434343" d="m577.7689 346.66086l6.359131 -6.359131l6.755127 6.7551575l6.755188 -6.7551575l6.359131 6.359131l-6.755188 6.7551575l6.755188 6.7551575l-6.359131 6.359131l-6.755188 -6.7551575l-6.755127 6.7551575l-6.359131 -6.359131l6.755127 -6.7551575z" fill-rule="evenodd"/><path fill="#000000" fill-opacity="0.0" d="m396.65747 364.3399l38.236237 0l0 54.519684l-38.236237 0z" fill-rule="evenodd"/><path fill="#000000" d="m411.1106 380.083l0 2.859375l-3.21875 0l0 -2.859375l3.21875 0zm-4.453125 15.515625q0.578125 -0.140625 0.78125 -0.390625q0.21875 -0.25 0.296875 -0.671875q0.078125 -0.421875 0.078125 -1.53125l0 -5.453125q0 -0.578125 -0.0625 -0.921875q-0.046875 -0.359375 -0.1875 -0.5625q-0.140625 -0.21875 -0.40625 -0.328125q-0.25 -0.109375 -0.640625 -0.1875l0 -0.796875l3.21875 -0.09375l1.46875 0l0 8.328125q0 0.65625 0.015625 1.015625q0.015625 0.359375 0.046875 0.5625q0.046875 0.1875 0.109375 0.34375q0.0625 0.140625 0.15625 0.28125q0.109375 0.125 0.3125 0.234375q0.203125 0.09375 0.53125 0.171875l0 0.78125l-5.71875 0l0 -0.78125z" fill-rule="nonzero"/><path fill="#000000" d="m419.21997 404.44238q-0.6875 0.578125 -1.25 0.828125q-0.5625 0.234375 -1.1875 0.234375q-1.15625 0 -1.734375 -0.625q-0.578125 -0.640625 -0.578125 -1.90625l0 -4.375l-0.96875 0l0 -0.53125q0.46875 -0.078125 0.6875 -0.234375q0.234375 -0.15625 0.359375 -0.421875q0.125 -0.265625 0.203125 -0.6875q0.078125 -0.421875 0.109375 -1.046875l1.875 0l0 1.953125l2.21875 0l0 0.96875l-2.21875 0l0 3.53125q0 0.875 0.078125 1.296875q0.078125 0.421875 0.265625 0.625q0.203125 0.203125 0.5 0.203125q0.21875 0 0.390625 -0.03125q0.171875 -0.046875 0.359375 -0.140625q0.1875 -0.109375 0.40625 -0.296875l0.484375 0.65625z" fill-rule="nonzero"/><path fill="#f4cccc" d="m564.7645 248.35812l0 0c0 -14.159363 11.478455 -25.637802 25.637817 -25.637802l0 0c6.7995605 0 13.320618 2.701126 18.128662 7.50914c4.8079834 4.808014 7.509094 11.329086 7.509094 18.128662l0 0c0 14.159363 -11.478394 25.637787 -25.637756 25.637787l0 0c-14.159363 0 -25.637817 -11.478424 -25.637817 -25.637787z" fill-rule="evenodd"/><path stroke="#000000" stroke-width="2.0" stroke-linejoin="round" stroke-linecap="butt" d="m564.7645 248.35812l0 0c0 -14.159363 11.478455 -25.637802 25.637817 -25.637802l0 0c6.7995605 0 13.320618 2.701126 18.128662 7.50914c4.8079834 4.808014 7.509094 11.329086 7.509094 18.128662l0 0c0 14.159363 -11.478394 25.637787 -25.637756 25.637787l0 0c-14.159363 0 -25.637817 -11.478424 -25.637817 -25.637787z" fill-rule="evenodd"/><path fill="#434343" d="m576.3517 243.86038l9.553284 0l0 -9.553329l8.993164 0l0 9.553329l9.553345 0l0 8.993149l-9.553345 0l0 9.553329l-8.993164 0l0 -9.553329l-9.553284 0z" fill-rule="evenodd"/><path fill="#ffffff" d="m125.35171 586.6667l0 0c0 -2.2874146 1.8543167 -4.1417236 4.1417313 -4.1417236l0 0c1.0984497 0 2.1519165 0.43634033 2.92865 1.2130737c0.77671814 0.7767334 1.213089 1.8302002 1.213089 2.92865l0 0c0 2.2874146 -1.8543243 4.1417236 -4.141739 4.1417236l0 0c-2.2874146 0 -4.1417313 -1.8543091 -4.1417313 -4.1417236z" fill-rule="evenodd"/><path stroke="#000000" stroke-width="1.0" stroke-linejoin="round" stroke-linecap="butt" d="m125.35171 586.6667l0 0c0 -2.2874146 1.8543167 -4.1417236 4.1417313 -4.1417236l0 0c1.0984497 0 2.1519165 0.43634033 2.92865 1.2130737c0.77671814 0.7767334 1.213089 1.8302002 1.213089 2.92865l0 0c0 2.2874146 -1.8543243 4.1417236 -4.141739 4.1417236l0 0c-2.2874146 0 -4.1417313 -1.8543091 -4.1417313 -4.1417236z" fill-rule="evenodd"/><path fill="#ffffff" d="m125.35171 248.35695l0 0c0 -2.2874146 1.8543167 -4.1417236 4.1417313 -4.1417236l0 0c1.0984497 0 2.1519165 0.4363556 2.92865 1.213089c0.77671814 0.77671814 1.213089 1.8301849 1.213089 2.9286346l0 0c0 2.2874146 -1.8543243 4.141739 -4.141739 4.141739l0 0c-2.2874146 0 -4.1417313 -1.8543243 -4.1417313 -4.141739z" fill-rule="evenodd"/><path stroke="#000000" stroke-width="1.0" stroke-linejoin="round" stroke-linecap="butt" d="m125.35171 248.35695l0 0c0 -2.2874146 1.8543167 -4.1417236 4.1417313 -4.1417236l0 0c1.0984497 0 2.1519165 0.4363556 2.92865 1.213089c0.77671814 0.77671814 1.213089 1.8301849 1.213089 2.9286346l0 0c0 2.2874146 -1.8543243 4.141739 -4.141739 4.141739l0 0c-2.2874146 0 -4.1417313 -1.8543243 -4.1417313 -4.141739z" fill-rule="evenodd"/><path fill="#000000" fill-opacity="0.0" d="m133.63518 586.6667l77.44881 0l0 -109.98428" fill-rule="evenodd"/><path stroke="#000000" stroke-width="2.0" stroke-linejoin="round" stroke-linecap="butt" d="m133.63518 586.6667l77.44881 0l0 -97.98428" fill-rule="evenodd"/><path fill="#000000" stroke="#000000" stroke-width="2.0" stroke-linecap="butt" d="m214.38745 488.6824l-3.3034668 -9.076172l-3.3034668 9.076172z" fill-rule="evenodd"/><path fill="#000000" fill-opacity="0.0" d="m133.63518 586.6667l257.54327 0l0 -109.98428" fill-rule="evenodd"/><path stroke="#000000" stroke-width="2.0" stroke-linejoin="round" stroke-linecap="butt" d="m133.63518 586.6667l257.54327 0l0 -97.98428" fill-rule="evenodd"/><path fill="#000000" stroke="#000000" stroke-width="2.0" stroke-linecap="butt" d="m394.48193 488.6824l-3.3034668 -9.076172l-3.3034668 9.076172z" fill-rule="evenodd"/><path fill="#d9ead3" d="m245.33221 582.4799l7.7480316 0l0 8.283508l-7.7480316 0z" fill-rule="evenodd"/><path fill="#000000" fill-opacity="0.0" d="m249.0971 747.7008l0 -114.73242l180.31497 0l0 -156.29123" fill-rule="evenodd"/><path stroke="#000000" stroke-width="2.0" stroke-linejoin="round" stroke-linecap="butt" d="m249.0971 747.7008l0 -114.73248l180.31497 0l0 -144.29117" fill-rule="evenodd"/><path fill="#000000" stroke="#000000" stroke-width="2.0" stroke-linecap="butt" d="m432.71555 488.67715l-3.3034668 -9.076172l-3.3034668 9.076172z" fill-rule="evenodd"/><path fill="#d9ead3" d="m425.54742 582.5259l7.748047 0l0 8.283447l-7.748047 0z" fill-rule="evenodd"/><path fill="#000000" fill-opacity="0.0" d="m133.63518 586.6667l437.63776 0l0 -109.98428" fill-rule="evenodd"/><path stroke="#000000" stroke-width="2.0" stroke-linejoin="round" stroke-linecap="butt" d="m133.63518 586.6667l437.63776 0l0 -97.98428" fill-rule="evenodd"/><path fill="#000000" stroke="#000000" stroke-width="2.0" stroke-linecap="butt" d="m574.5764 488.6824l-3.3034668 -9.076172l-3.3034668 9.076172z" fill-rule="evenodd"/><path fill="#000000" fill-opacity="0.0" d="m249.0971 747.7008l0 -114.24188l502.2992 0l0 -156.78177" fill-rule="evenodd"/><path stroke="#000000" stroke-width="2.0" stroke-linejoin="round" stroke-linecap="butt" d="m249.0971 747.7008l0 -114.24188l502.2992 0l0 -144.78177" fill-rule="evenodd"/><path fill="#000000" stroke="#000000" stroke-width="2.0" stroke-linecap="butt" d="m754.69977 488.67715l-3.3034668 -9.076172l-3.3034668 9.076172z" fill-rule="evenodd"/><path fill="#000000" fill-opacity="0.0" d="m249.0971 747.7008l0 -114.81378l360.4095 0l0 -156.20987" fill-rule="evenodd"/><path stroke="#000000" stroke-width="2.0" stroke-linejoin="round" stroke-linecap="butt" d="m249.0971 747.7008l0 -114.81372l360.4095 0l0 -144.20993" fill-rule="evenodd"/><path fill="#000000" stroke="#000000" stroke-width="2.0" stroke-linecap="butt" d="m612.81 488.67715l-3.3034058 -9.076172l-3.3034668 9.076172z" fill-rule="evenodd"/><path fill="#f4cccc" d="m845.84326 352.94867l0 0c0 -14.159363 11.478455 -25.637787 25.637817 -25.637787l0 0c6.7995605 0 13.320618 2.7011108 18.128662 7.5091248c4.8079834 4.808014 7.5091553 11.329102 7.5091553 18.128662l0 0c0 14.159363 -11.478455 25.637787 -25.637817 25.637787l0 0c-14.159363 0 -25.637817 -11.478424 -25.637817 -25.637787z" fill-rule="evenodd"/><path stroke="#000000" stroke-width="2.0" stroke-linejoin="round" stroke-linecap="butt" d="m845.84326 352.94867l0 0c0 -14.159363 11.478455 -25.637787 25.637817 -25.637787l0 0c6.7995605 0 13.320618 2.7011108 18.128662 7.5091248c4.8079834 4.808014 7.5091553 11.329102 7.5091553 18.128662l0 0c0 14.159363 -11.478455 25.637787 -25.637817 25.637787l0 0c-14.159363 0 -25.637817 -11.478424 -25.637817 -25.637787z" fill-rule="evenodd"/><path fill="#434343" d="m858.84766 346.66086l6.359131 -6.359131l6.755127 6.7551575l6.755188 -6.7551575l6.359131 6.359131l-6.755188 6.7551575l6.755188 6.7551575l-6.359131 6.359131l-6.755188 -6.7551575l-6.755127 6.7551575l-6.359131 -6.359131l6.755188 -6.7551575z" fill-rule="evenodd"/><path stroke="#000000" stroke-width="2.0" stroke-linejoin="round" stroke-linecap="butt" d="m858.84766 346.66086l6.359131 -6.359131l6.755127 6.7551575l6.755188 -6.7551575l6.359131 6.359131l-6.755188 6.7551575l6.755188 6.7551575l-6.359131 6.359131l-6.755188 -6.7551575l-6.755127 6.7551575l-6.359131 -6.359131l6.755188 -6.7551575z" fill-rule="evenodd"/><path fill="#d9ead3" d="m605.5316 582.4799l7.748047 0l0 8.283508l-7.748047 0z" fill-rule="evenodd"/><path fill="#000000" fill-opacity="0.0" d="m133.63518 586.6667l579.5275 0l0 -109.98428" fill-rule="evenodd"/><path stroke="#000000" stroke-width="2.0" stroke-linejoin="round" stroke-linecap="butt" d="m133.63518 586.6667l579.5275 0l0 -97.98428" fill-rule="evenodd"/><path fill="#000000" stroke="#000000" stroke-width="2.0" stroke-linecap="butt" d="m716.4662 488.6824l-3.3034668 -9.076172l-3.3034668 9.076172z" fill-rule="evenodd"/><path fill="#000000" fill-opacity="0.0" d="m249.32283 409.54068l-0.22047424 -135.49606" fill-rule="evenodd"/><path stroke="#000000" stroke-width="2.0" stroke-linejoin="round" stroke-linecap="butt" d="m249.32283 409.54068l-0.200943 -123.49609" fill-rule="evenodd"/><path fill="#000000" stroke="#000000" stroke-width="2.0" stroke-linecap="butt" d="m252.42535 286.0392l-3.3182373 -9.070801l-3.2886963 9.0815735z" fill-rule="evenodd"/><path fill="#000000" fill-opacity="0.0" d="m590.40283 409.54068l0 -30.960632" fill-rule="evenodd"/><path stroke="#000000" stroke-width="2.0" stroke-linejoin="round" stroke-linecap="butt" d="m590.40283 409.54068l0 -18.960632" fill-rule="evenodd"/><path fill="#000000" stroke="#000000" stroke-width="2.0" stroke-linecap="butt" d="m593.7063 390.58005l-3.3034668 -9.076202l-3.3034668 9.076202z" fill-rule="evenodd"/><path fill="#000000" fill-opacity="0.0" d="m429.4219 409.54068l0 -56.59842l135.3386 0" fill-rule="evenodd"/><path stroke="#000000" stroke-width="2.0" stroke-linejoin="round" stroke-linecap="butt" d="m429.42188 409.54068l0 -56.59842l123.33856 0" fill-rule="evenodd"/><path fill="#000000" stroke="#000000" stroke-width="2.0" stroke-linecap="butt" d="m552.76044 356.24573l9.076233 -3.3034668l-9.076233 -3.3034668z" fill-rule="evenodd"/><path fill="#000000" fill-opacity="0.0" d="m751.38385 409.53937l0 -56.59842l94.456665 0" fill-rule="evenodd"/><path stroke="#000000" stroke-width="2.0" stroke-linejoin="round" stroke-linecap="butt" d="m751.38385 409.53937l0 -56.59842l82.456726 0" fill-rule="evenodd"/><path fill="#000000" stroke="#000000" stroke-width="2.0" stroke-linecap="butt" d="m833.8406 356.24442l9.076172 -3.3034668l-9.076172 -3.3034668z" fill-rule="evenodd"/><path fill="#000000" fill-opacity="0.0" d="m590.40234 327.31088l0 -53.322845" fill-rule="evenodd"/><path stroke="#000000" stroke-width="2.0" stroke-linejoin="round" stroke-linecap="butt" d="m590.4023 327.31088l0 -41.322845" fill-rule="evenodd"/><path fill="#000000" stroke="#000000" stroke-width="2.0" stroke-linecap="butt" d="m593.70575 285.98804l-3.3034668 -9.076172l-3.3034058 9.076172z" fill-rule="evenodd"/><path fill="#000000" fill-opacity="0.0" d="m975.4514 202.49869l60.59851 0l0 51.27559l-60.59851 0z" fill-rule="evenodd"/><path fill="#000000" d="m987.04517 230.58556q0.296875 1.390625 0.96875 2.078125q0.6875 0.6875 2.015625 0.6875q0.6875 0 1.234375 -0.234375q0.5625 -0.234375 0.890625 -0.75q0.34375 -0.53125 0.34375 -1.3125q0 -0.71875 -0.28125 -1.25q-0.265625 -0.546875 -0.859375 -1.015625q-0.59375 -0.484375 -1.671875 -1.03125q-0.90625 -0.453125 -1.65625 -0.9375q-0.734375 -0.5 -1.25 -1.09375q-0.515625 -0.59375 -0.8125 -1.296875q-0.28125 -0.703125 -0.28125 -1.578125q0 -1.4375 0.703125 -2.4375q0.71875 -1.015625 2.078125 -1.53125q1.359375 -0.53125 3.140625 -0.53125q1.03125 0 1.984375 0.109375q0.953125 0.109375 2.171875 0.390625l0 3.40625l-1.609375 0q-0.21875 -0.921875 -0.5625 -1.46875q-0.34375 -0.546875 -0.859375 -0.796875q-0.515625 -0.265625 -1.3125 -0.265625q-0.65625 0 -1.1875 0.234375q-0.53125 0.234375 -0.84375 0.703125q-0.296875 0.453125 -0.296875 1.109375q0 0.6875 0.265625 1.1875q0.265625 0.484375 0.875 0.96875q0.625 0.46875 1.8125 1.078125q1.4375 0.75 2.265625 1.46875q0.828125 0.71875 1.21875 1.578125q0.390625 0.84375 0.390625 1.96875q0 1.4375 -0.671875 2.5q-0.65625 1.0625 -1.9375 1.640625q-1.28125 0.5625 -2.953125 0.5625q-1.1875 0 -2.484375 -0.140625q-1.296875 -0.125 -2.4375 -0.390625l0 -3.609375l1.609375 0z" fill-rule="nonzero"/><path fill="#000000" d="m1002.78345 242.60118q-0.6875 0.578125 -1.25 0.828125q-0.5625 0.234375 -1.1875 0.234375q-1.15625 0 -1.734375 -0.625q-0.578125 -0.640625 -0.578125 -1.90625l0 -4.375l-0.96875 0l0 -0.53125q0.46875 -0.078125 0.6875 -0.234375q0.234375 -0.15625 0.359375 -0.421875q0.125 -0.265625 0.203125 -0.6875q0.078125 -0.421875 0.109375 -1.046875l1.875 0l0 1.953125l2.21875 0l0 0.96875l-2.21875 0l0 3.53125q0 0.875 0.078125 1.296875q0.078125 0.421875 0.265625 0.625q0.203125 0.203125 0.5 0.203125q0.21875 0 0.390625 -0.03125q0.171875 -0.046875 0.359375 -0.140625q0.1875 -0.109375 0.40625 -0.296875l0.484375 0.65625z" fill-rule="nonzero"/><path fill="#fff2cc" d="m833.24536 273.52756l76.47247 0l0 33.5748l-76.47247 0z" fill-rule="evenodd"/><path stroke="#000000" stroke-width="1.0" stroke-linejoin="round" stroke-linecap="butt" d="m833.24536 273.52756l76.47247 0l0 33.5748l-76.47247 0z" fill-rule="evenodd"/><path fill="#000000" d="m848.6808 288.22995q0.578125 -0.09375 0.9375 -0.328125q0.375 -0.234375 0.578125 -0.59375q0.203125 -0.375 0.3125 -0.921875q0.125 -0.5625 0.25 -1.625l1.671875 0l0 2.890625l3.78125 0l0 1.1875l-3.78125 0l0 5.203125q0 1.140625 0.09375 1.8125q0.09375 0.671875 0.34375 1.0625q0.265625 0.375 0.59375 0.546875q0.328125 0.15625 0.84375 0.15625q0.46875 0 0.875 -0.1875q0.40625 -0.203125 0.8125 -0.5625l0.53125 0.640625q-0.84375 0.796875 -1.59375 1.171875q-0.734375 0.359375 -1.53125 0.359375q-1.515625 0 -2.25 -0.890625q-0.734375 -0.90625 -0.734375 -2.8125l0 -6.5l-1.734375 0l0 -0.609375zm15.589844 8.953125l-0.171875 -0.046875q-1.015625 1.03125 -1.921875 1.46875q-0.890625 0.4375 -1.890625 0.4375q-0.890625 0 -1.578125 -0.34375q-0.671875 -0.34375 -1.046875 -0.96875q-0.359375 -0.640625 -0.359375 -1.453125q0 -1.71875 1.6875 -2.640625q1.703125 -0.9375 5.09375 -1.09375l0 -0.75q0 -1.21875 -0.234375 -1.921875q-0.234375 -0.703125 -0.75 -1.03125q-0.5 -0.328125 -1.34375 -0.328125q-0.90625 0 -1.46875 0.484375q-0.5625 0.46875 -0.84375 1.4375l-1.53125 0l0 -1.53125q1.125 -0.578125 1.875 -0.859375q0.75 -0.28125 1.5 -0.4375q0.75 -0.15625 1.53125 -0.15625q1.15625 0 1.859375 0.375q0.703125 0.359375 1.046875 1.125q0.359375 0.765625 0.359375 2.296875l0 4.078125q0 0.875 0 1.234375q0.015625 0.34375 0.078125 0.65625q0.0625 0.296875 0.171875 0.484375q0.125 0.1875 0.34375 0.3125q0.234375 0.125 0.75 0.265625l0 0.578125l-3.203125 0l0.046875 -1.671875zm-0.1875 -3.671875q-2.390625 0.015625 -3.578125 0.625q-1.171875 0.609375 -1.171875 1.84375q0 0.671875 0.265625 1.0625q0.265625 0.375 0.671875 0.53125q0.421875 0.140625 0.984375 0.140625q0.796875 0 1.4375 -0.375q0.65625 -0.390625 1.015625 -0.984375q0.375 -0.609375 0.375 -1.1875l0 -1.65625zm16.546875 5.34375l-4.609375 0l0 -0.578125q0.453125 -0.140625 0.65625 -0.234375q0.203125 -0.109375 0.328125 -0.296875q0.140625 -0.1875 0.21875 -0.578125q0.078125 -0.40625 0.078125 -1.203125l0 -3.0625q0 -0.828125 -0.046875 -1.484375q-0.046875 -0.671875 -0.171875 -1.09375q-0.109375 -0.4375 -0.265625 -0.671875q-0.15625 -0.25 -0.375 -0.40625q-0.21875 -0.171875 -0.5 -0.265625q-0.28125 -0.109375 -0.734375 -0.109375q-0.453125 0 -0.875 0.1875q-0.40625 0.171875 -0.90625 0.625q-0.484375 0.4375 -0.703125 0.875q-0.21875 0.4375 -0.21875 1.0l0 4.359375q0 1.015625 0.09375 1.40625q0.09375 0.390625 0.359375 0.59375q0.265625 0.203125 0.859375 0.359375l0 0.578125l-4.59375 0l0 -0.578125q0.453125 -0.140625 0.640625 -0.234375q0.203125 -0.109375 0.328125 -0.296875q0.140625 -0.1875 0.21875 -0.578125q0.078125 -0.390625 0.078125 -1.203125l0 -5.109375q0 -0.75 -0.03125 -1.203125q-0.015625 -0.46875 -0.15625 -0.734375q-0.140625 -0.28125 -0.4375 -0.40625q-0.28125 -0.140625 -0.8125 -0.234375l0 -0.625l2.75 -0.109375l0.71875 0l-0.140625 1.90625l0.171875 0.046875q0.859375 -0.875 1.390625 -1.25q0.546875 -0.375 1.078125 -0.578125q0.546875 -0.203125 1.15625 -0.203125q0.640625 0 1.140625 0.15625q0.5 0.140625 0.875 0.453125q0.375 0.296875 0.625 0.75q0.25 0.4375 0.375 1.078125q0.125 0.625 0.125 1.609375l0 4.40625q0 0.8125 0.046875 1.1875q0.046875 0.359375 0.15625 0.5625q0.125 0.1875 0.34375 0.328125q0.21875 0.125 0.765625 0.28125l0 0.578125zm5.1289062 -9.359375l0.046875 0q0.90625 -0.921875 1.4375 -1.28125q0.546875 -0.375 1.0625 -0.5625q0.515625 -0.1875 1.125 -0.1875q0.640625 0 1.140625 0.15625q0.5 0.140625 0.875 0.453125q0.390625 0.3125 0.625 0.765625q0.25 0.453125 0.359375 1.078125q0.125 0.625 0.125 1.59375l0 4.40625q0 1.03125 0.078125 1.40625q0.09375 0.359375 0.3125 0.5625q0.234375 0.203125 0.9375 0.390625l0 0.578125l-4.625 0l0 -0.578125q0.453125 -0.140625 0.65625 -0.234375q0.203125 -0.109375 0.328125 -0.296875q0.140625 -0.1875 0.21875 -0.578125q0.078125 -0.40625 0.078125 -1.203125l0 -3.0625q0 -1.5625 -0.15625 -2.390625q-0.15625 -0.828125 -0.625 -1.234375q-0.46875 -0.40625 -1.296875 -0.40625q-0.46875 0 -0.84375 0.171875q-0.375 0.15625 -0.875 0.578125q-0.484375 0.421875 -0.734375 0.875q-0.25 0.4375 -0.25 0.9375l0 4.484375q0 0.796875 0.03125 1.140625q0.046875 0.34375 0.15625 0.578125q0.125 0.21875 0.359375 0.375q0.25 0.140625 0.75 0.265625l0 0.578125l-4.640625 0l0 -0.578125q0.515625 -0.140625 0.734375 -0.265625q0.234375 -0.125 0.34375 -0.328125q0.125 -0.203125 0.1875 -0.578125q0.0625 -0.375 0.0625 -1.1875l0 -9.796875q0 -1.125 -0.015625 -1.5625q-0.015625 -0.453125 -0.09375 -0.765625q-0.078125 -0.3125 -0.21875 -0.484375q-0.125 -0.1875 -0.359375 -0.28125q-0.234375 -0.109375 -0.828125 -0.21875l0 -0.609375l2.828125 -0.109375l0.703125 0l0 7.40625z" fill-rule="nonzero"/><path fill="#ffffff" d="m963.77545 248.35695l0 0c0 -2.2874146 1.8543091 -4.1417236 4.1417236 -4.1417236l0 0c1.0984497 0 2.1519165 0.4363556 2.92865 1.213089c0.7767334 0.77671814 1.2130737 1.8301849 1.2130737 2.9286346l0 0c0 2.2874146 -1.8543091 4.141739 -4.1417236 4.141739l0 0c-2.2874146 0 -4.1417236 -1.8543243 -4.1417236 -4.141739z" fill-rule="evenodd"/><path stroke="#000000" stroke-width="1.0" stroke-linejoin="round" stroke-linecap="butt" d="m963.77545 248.35695l0 0c0 -2.2874146 1.8543091 -4.1417236 4.1417236 -4.1417236l0 0c1.0984497 0 2.1519165 0.4363556 2.92865 1.213089c0.7767334 0.77671814 1.2130737 1.8301849 1.2130737 2.9286346l0 0c0 2.2874146 -1.8543091 4.141739 -4.1417236 4.141739l0 0c-2.2874146 0 -4.1417236 -1.8543243 -4.1417236 -4.141739z" fill-rule="evenodd"/><path fill="#000000" fill-opacity="0.0" d="m871.48157 307.10236l0 20.22049" fill-rule="evenodd"/><path stroke="#000000" stroke-width="2.0" stroke-linejoin="round" stroke-linecap="butt" d="m871.48157 307.10236l0 8.2204895" fill-rule="evenodd"/><path fill="#000000" stroke="#000000" stroke-width="2.0" stroke-linecap="butt" d="m868.1781 315.32285l3.3034668 9.076172l3.3034668 -9.076172z" fill-rule="evenodd"/><path fill="#000000" fill-opacity="0.0" d="m972.0589 248.35695l79.370056 0" fill-rule="evenodd"/><path stroke="#000000" stroke-width="2.0" stroke-linejoin="round" stroke-linecap="butt" d="m972.0589 248.35695l67.370056 0" fill-rule="evenodd"/><path fill="#000000" stroke="#000000" stroke-width="2.0" stroke-linecap="butt" d="m1039.429 251.66042l9.076172 -3.3034668l-9.076172 -3.3034515z" fill-rule="evenodd"/><path fill="#ffffff" d="m963.8197 586.6667l0 0c0 -2.2874146 1.8543091 -4.1417236 4.1417236 -4.1417236l0 0c1.0984497 0 2.1519165 0.43634033 2.92865 1.2130737c0.7767334 0.7767334 1.2130737 1.8302002 1.2130737 2.92865l0 0c0 2.2874146 -1.8543091 4.1417236 -4.1417236 4.1417236l0 0c-2.2874146 0 -4.1417236 -1.8543091 -4.1417236 -4.1417236z" fill-rule="evenodd"/><path stroke="#000000" stroke-width="1.0" stroke-linejoin="round" stroke-linecap="butt" d="m963.8197 586.6667l0 0c0 -2.2874146 1.8543091 -4.1417236 4.1417236 -4.1417236l0 0c1.0984497 0 2.1519165 0.43634033 2.92865 1.2130737c0.7767334 0.7767334 1.2130737 1.8302002 1.2130737 2.92865l0 0c0 2.2874146 -1.8543091 4.1417236 -4.1417236 4.1417236l0 0c-2.2874146 0 -4.1417236 -1.8543091 -4.1417236 -4.1417236z" fill-rule="evenodd"/><path fill="#000000" fill-opacity="0.0" d="m972.10315 586.6667l79.37012 0" fill-rule="evenodd"/><path stroke="#000000" stroke-width="2.0" stroke-linejoin="round" stroke-linecap="butt" d="m972.1032 586.6667l67.370056 0" fill-rule="evenodd"/><path fill="#000000" stroke="#000000" stroke-width="2.0" stroke-linecap="butt" d="m1039.4733 589.97015l9.076172 -3.3034668l-9.076172 -3.3034668z" fill-rule="evenodd"/><path fill="#000000" fill-opacity="0.0" d="m871.4811 378.58646l0 208.09451l92.346436 0" fill-rule="evenodd"/><path stroke="#000000" stroke-width="2.0" stroke-linejoin="round" stroke-linecap="butt" d="m871.4811 378.58646l0 208.09445l80.346436 0" fill-rule="evenodd"/><path fill="#000000" stroke="#000000" stroke-width="2.0" stroke-linecap="butt" d="m951.8275 589.9844l9.076172 -3.3034668l-9.076172 -3.3034058z" fill-rule="evenodd"/><path fill="#000000" fill-opacity="0.0" d="m976.32806 538.03674l45.826782 0l0 51.275574l-45.826782 0z" fill-rule="evenodd"/><path fill="#000000" d="m1000.26556 567.1392q0 0.890625 0.078125 1.234375q0.078125 0.328125 0.3125 0.5625q0.234375 0.21875 0.859375 0.359375l0 0.78125l-6.125 0l0 -0.78125q0.6875 -0.171875 0.875 -0.34375q0.203125 -0.171875 0.28125 -0.5q0.09375 -0.328125 0.09375 -1.3125l0 -4.703125l-5.296875 0l0 4.703125q0 0.40625 0.015625 0.765625q0.03125 0.34375 0.09375 0.5625q0.078125 0.21875 0.203125 0.375q0.140625 0.15625 0.375 0.265625q0.234375 0.109375 0.578125 0.1875l0 0.78125l-6.15625 0l0 -0.78125q0.4375 -0.109375 0.6875 -0.234375q0.25 -0.140625 0.375 -0.375q0.125 -0.25 0.15625 -0.609375q0.03125 -0.375 0.03125 -0.9375l0 -10.109375q0 -0.546875 -0.03125 -0.921875q-0.015625 -0.375 -0.140625 -0.609375q-0.125 -0.234375 -0.375 -0.375q-0.25 -0.15625 -0.703125 -0.265625l0 -0.78125l6.15625 0l0 0.78125q-0.625 0.171875 -0.859375 0.390625q-0.21875 0.203125 -0.3125 0.546875q-0.09375 0.34375 -0.09375 1.25l0 3.90625l5.296875 0l0 -3.90625q0 -0.890625 -0.078125 -1.234375q-0.078125 -0.34375 -0.3125 -0.5625q-0.21875 -0.21875 -0.859375 -0.390625l0 -0.78125l6.125 0l0 0.78125q-0.515625 0.140625 -0.75 0.296875q-0.234375 0.15625 -0.34375 0.40625q-0.09375 0.234375 -0.125 0.546875q-0.03125 0.296875 -0.03125 0.9375l0 10.09375z" fill-rule="nonzero"/><path fill="#000000" d="m1008.664 578.1392q-0.6875 0.578125 -1.25 0.828125q-0.5625 0.234375 -1.1875 0.234375q-1.15625 0 -1.734375 -0.625q-0.578125 -0.640625 -0.578125 -1.90625l0 -4.375l-0.96875 0l0 -0.53125q0.46875 -0.078125 0.6875 -0.234375q0.234375 -0.15625 0.359375 -0.421875q0.125 -0.265625 0.203125 -0.6875q0.078125 -0.421875 0.109375 -1.046875l1.875 0l0 1.953125l2.21875 0l0 0.96875l-2.21875 0l0 3.53125q0 0.875 0.078125 1.296875q0.078125 0.421875 0.265625 0.625q0.203125 0.203125 0.5 0.203125q0.21875 0 0.390625 -0.03125q0.171875 -0.046875 0.359375 -0.140625q0.1875 -0.109375 0.40625 -0.296875l0.484375 0.65625z" fill-rule="nonzero"/><path fill="#cfe2f3" d="m889.94226 70.28609l0 0c0 -20.343212 16.491455 -36.834644 36.834656 -36.834644l0 0c9.769165 0 19.138184 3.880783 26.04602 10.78862c6.907837 6.907833 10.788635 16.27687 10.788635 26.046024l0 0c0 20.343216 -16.491455 36.83465 -36.834656 36.83465l0 0c-20.3432 0 -36.834656 -16.491432 -36.834656 -36.83465z" fill-rule="evenodd"/><path stroke="#000000" stroke-width="1.0" stroke-linejoin="round" stroke-linecap="butt" d="m889.94226 70.28609l0 0c0 -20.343212 16.491455 -36.834644 36.834656 -36.834644l0 0c9.769165 0 19.138184 3.880783 26.04602 10.78862c6.907837 6.907833 10.788635 16.27687 10.788635 26.046024l0 0c0 20.343216 -16.491455 36.83465 -36.834656 36.83465l0 0c-20.3432 0 -36.834656 -16.491432 -36.834656 -36.83465z" fill-rule="evenodd"/><path fill="#000000" d="m925.53864 72.66984l0 3.21875q0 0.609375 0.03125 0.9375q0.03125 0.328125 0.125 0.53125q0.09375 0.1875 0.21875 0.3125q0.140625 0.125 0.375 0.234375q0.25 0.09375 0.65625 0.140625l0 0.78125l-6.46875 0l0 -0.78125q0.484375 -0.078125 0.765625 -0.203125q0.296875 -0.125 0.4375 -0.375q0.140625 -0.25 0.171875 -0.625q0.046875 -0.390625 0.046875 -0.953125l0 -3.21875l-3.171875 -6.703125q-0.40625 -0.859375 -0.640625 -1.265625q-0.28125 -0.484375 -0.46875 -0.6875q-0.1875 -0.21874619 -0.359375 -0.2968712q-0.15625 -0.078125 -0.453125 -0.109375l0 -0.78125l6.25 0l0 0.78125q-0.90625 0.109375 -0.90625 0.8906212q0 0.296875 0.140625 0.71875q0.15625 0.421875 0.484375 1.125l1.96875 4.40625l2.15625 -4.296875q0.3125 -0.640625 0.4375 -1.0625q0.125 -0.4375 0.125 -0.859375q0 -0.421875 -0.25 -0.6562462q-0.234375 -0.25 -0.671875 -0.265625l0 -0.78125l4.703125 0l0 0.78125q-0.3125 0.0625 -0.53125 0.1875q-0.203125 0.125 -0.453125 0.3906212q-0.234375 0.265625 -0.578125 0.796875q-0.34375 0.515625 -0.78125 1.359375l-3.359375 6.328125z" fill-rule="nonzero"/><path fill="#000000" d="m937.1246 86.88859q-0.6875 0.578125 -1.25 0.828125q-0.5625 0.234375 -1.1875 0.234375q-1.15625 0 -1.734375 -0.625q-0.578125 -0.640625 -0.578125 -1.90625l0 -4.375l-0.96875 0l0 -0.53125q0.46875 -0.078125 0.6875 -0.234375q0.234375 -0.15625 0.359375 -0.421875q0.125 -0.265625 0.203125 -0.6875q0.078125 -0.421875 0.109375 -1.046875l1.875 0l0 1.953125l2.21875 0l0 0.96875l-2.21875 0l0 3.53125q0 0.875 0.078125 1.296875q0.078125 0.421875 0.265625 0.625q0.203125 0.203125 0.5 0.203125q0.21875 0 0.390625 -0.03125q0.171875 -0.046875 0.359375 -0.140625q0.1875 -0.109375 0.40625 -0.296875l0.484375 0.65625z" fill-rule="nonzero"/><path fill="#d9ead3" d="m922.85565 244.26509l8.283447 0l0 8.283463l-8.283447 0z" fill-rule="evenodd"/><path fill="#000000" fill-opacity="0.0" d="m871.4811 378.58646l0 72.16342l55.307068 0l0 -343.628" fill-rule="evenodd"/><path stroke="#000000" stroke-width="2.0" stroke-linejoin="round" stroke-linecap="butt" d="m871.4811 378.58646l0 72.16342l55.307068 0l0 -331.628" fill-rule="evenodd"/><path fill="#000000" stroke="#000000" stroke-width="2.0" stroke-linecap="butt" d="m930.0916 119.1219l-3.3034668 -9.076195l-3.3034668 9.076195z" fill-rule="evenodd"/><path fill="#000000" fill-opacity="0.0" d="m711.82275 364.3418l38.236206 0l0 54.519684l-38.236206 0z" fill-rule="evenodd"/><path fill="#000000" d="m727.51025 396.56927q-1.71875 0 -2.96875 -0.59375q-1.25 -0.609375 -1.953125 -1.9375q-0.703125 -1.34375 -0.703125 -3.390625q0 -1.5625 0.4375 -2.703125q0.4375 -1.15625 1.203125 -1.90625q0.78125 -0.75 1.84375 -1.109375q1.078125 -0.359375 2.328125 -0.359375q2.84375 0 4.28125 1.5q1.4375 1.484375 1.4375 4.375q0 2.03125 -0.71875 3.40625q-0.703125 1.375 -2.03125 2.046875q-1.328125 0.671875 -3.15625 0.671875zm-2.0625 -6.171875q0 2.484375 0.5625 3.71875q0.5625 1.234375 1.6875 1.234375q0.609375 0 1.03125 -0.3125q0.421875 -0.328125 0.671875 -0.921875q0.25 -0.59375 0.34375 -1.421875q0.109375 -0.84375 0.109375 -1.890625q0 -2.515625 -0.5625 -3.765625q-0.546875 -1.25 -1.640625 -1.25q-0.796875 0 -1.28125 0.5q-0.46875 0.5 -0.703125 1.515625q-0.21875 1.0 -0.21875 2.59375z" fill-rule="nonzero"/><path fill="#000000" d="m740.50244 404.44427q-0.6875 0.578125 -1.25 0.828125q-0.5625 0.234375 -1.1875 0.234375q-1.15625 0 -1.734375 -0.625q-0.578125 -0.640625 -0.578125 -1.90625l0 -4.375l-0.96875 0l0 -0.53125q0.46875 -0.078125 0.6875 -0.234375q0.234375 -0.15625 0.359375 -0.421875q0.125 -0.265625 0.203125 -0.6875q0.078125 -0.421875 0.109375 -1.046875l1.875 0l0 1.953125l2.21875 0l0 0.96875l-2.21875 0l0 3.53125q0 0.875 0.078125 1.296875q0.078125 0.421875 0.265625 0.625q0.203125 0.203125 0.5 0.203125q0.21875 0 0.390625 -0.03125q0.171875 -0.046875 0.359375 -0.140625q0.1875 -0.109375 0.40625 -0.296875l0.484375 0.65625z" fill-rule="nonzero"/><path fill="#d9d2e9" d="m191.9685 443.11548l38.23622 0l0 33.5748l-38.23622 0z" fill-rule="evenodd"/><path stroke="#000000" stroke-width="1.0" stroke-linejoin="round" stroke-linecap="butt" d="m191.9685 443.11548l38.23622 0l0 33.5748l-38.23622 0z" fill-rule="evenodd"/><path fill="#000000" d="m211.06993 456.7135l-2.921875 10.171875l-1.46875 0l-2.65625 -9.890625q-0.171875 -0.625 -0.3125 -1.015625q-0.125 -0.390625 -0.265625 -0.609375q-0.140625 -0.21875 -0.296875 -0.328125q-0.15625 -0.125 -0.453125 -0.203125l0 -0.453125l3.890625 0l0 0.453125q-0.5625 0.109375 -0.78125 0.328125q-0.21875 0.21875 -0.21875 0.609375q0 0.3125 0.078125 0.75q0.078125 0.4375 0.21875 1.0l1.84375 7.1875l2.921875 -10.328125l1.53125 0l2.375 10.34375l2.15625 -6.953125q0.390625 -1.265625 0.390625 -1.796875q0 -0.5625 -0.234375 -0.796875q-0.234375 -0.25 -0.765625 -0.34375l0 -0.453125l3.59375 0l0 0.453125q-0.28125 0.09375 -0.453125 0.203125q-0.15625 0.109375 -0.3125 0.3125q-0.140625 0.1875 -0.328125 0.609375q-0.171875 0.40625 -0.40625 1.09375l-3.3125 9.828125l-1.296875 0l-2.515625 -10.171875z" fill-rule="nonzero"/><path fill="#d9d2e9" d="m230.20473 443.11548l38.23622 0l0 33.5748l-38.23622 0z" fill-rule="evenodd"/><path stroke="#000000" stroke-width="1.0" stroke-linejoin="round" stroke-linecap="butt" d="m230.20473 443.11548l38.23622 0l0 33.5748l-38.23622 0z" fill-rule="evenodd"/><path fill="#000000" d="m249.30615 456.7135l-2.921875 10.171875l-1.46875 0l-2.65625 -9.890625q-0.171875 -0.625 -0.3125 -1.015625q-0.125 -0.390625 -0.265625 -0.609375q-0.140625 -0.21875 -0.296875 -0.328125q-0.15625 -0.125 -0.453125 -0.203125l0 -0.453125l3.890625 0l0 0.453125q-0.5625 0.109375 -0.78125 0.328125q-0.21875 0.21875 -0.21875 0.609375q0 0.3125 0.078125 0.75q0.078125 0.4375 0.21875 1.0l1.84375 7.1875l2.921875 -10.328125l1.53125 0l2.375 10.34375l2.15625 -6.953125q0.390625 -1.265625 0.390625 -1.796875q0 -0.5625 -0.234375 -0.796875q-0.234375 -0.25 -0.765625 -0.34375l0 -0.453125l3.59375 0l0 0.453125q-0.28125 0.09375 -0.453125 0.203125q-0.15625 0.109375 -0.3125 0.3125q-0.140625 0.1875 -0.328125 0.609375q-0.171875 0.40625 -0.40625 1.09375l-3.3125 9.828125l-1.296875 0l-2.515625 -10.171875z" fill-rule="nonzero"/><path fill="#fff2cc" d="m191.9685 409.54068l114.70865 0l0 33.5748l-114.70865 0z" fill-rule="evenodd"/><path stroke="#000000" stroke-width="1.0" stroke-linejoin="round" stroke-linecap="butt" d="m191.9685 409.54068l114.70865 0l0 33.5748l-114.70865 0z" fill-rule="evenodd"/><path fill="#000000" d="m255.3072 424.1337l0 1.703125l-4.5625 0q1.5 0.859375 2.4375 2.171875q0.953125 1.296875 0.953125 2.765625q0 1.90625 -1.5 3.171875q-1.5 1.25 -3.421875 1.25q-2.25 0 -3.890625 -1.765625q-1.640625 -1.78125 -1.640625 -4.140625q0 -1.671875 0.859375 -2.9375q0.859375 -1.28125 2.0 -1.75q1.140625 -0.46875 3.09375 -0.46875l5.671875 0zm-5.34375 1.703125l-0.421875 0q-1.75 0 -2.796875 0.875q-1.046875 0.875 -1.046875 2.734375q0 1.984375 1.09375 3.5q1.109375 1.515625 2.578125 1.515625q1.1875 0 1.953125 -1.140625q0.78125 -1.140625 0.78125 -2.75q0 -2.578125 -2.140625 -4.734375z" fill-rule="nonzero"/><path fill="#d9d2e9" d="m268.44095 443.11548l38.236206 0l0 33.5748l-38.236206 0z" fill-rule="evenodd"/><path stroke="#000000" stroke-width="1.0" stroke-linejoin="round" stroke-linecap="butt" d="m268.44095 443.11548l38.236206 0l0 33.5748l-38.236206 0z" fill-rule="evenodd"/><path fill="#000000" d="m288.45648 461.49475l2.734375 2.71875l-0.921875 0.921875l-2.703125 -2.765625l-2.71875 2.765625l-0.921875 -0.921875l2.734375 -2.71875l-2.734375 -2.71875l0.921875 -0.921875l2.71875 2.75l2.703125 -2.75l0.921875 0.921875l-2.734375 2.71875z" fill-rule="nonzero"/><path fill="#d9ead3" d="m245.49493 535.0114l7.7480316 0l0 8.283508l-7.7480316 0z" fill-rule="evenodd"/><path fill="#d9ead3" d="m206.90521 534.91724l8.283463 0l0 8.283447l-8.283463 0z" fill-rule="evenodd"/><path fill="#000000" fill-opacity="0.0" d="m133.63518 248.35695l27.533432 0l0 290.89514l126.38782 0l0 -62.548676" fill-rule="evenodd"/><path stroke="#000000" stroke-width="2.0" stroke-linejoin="round" stroke-linecap="butt" d="m133.63518 248.35695l27.533432 0l0 290.89514l126.38782 0l0 -50.548676" fill-rule="evenodd"/><path fill="#000000" stroke="#000000" stroke-width="2.0" stroke-linecap="butt" d="m290.8599 488.7034l-3.3034668 -9.076172l-3.3034668 9.076172z" fill-rule="evenodd"/><path fill="#d9d2e9" d="m372.06757 443.11548l38.236206 0l0 33.5748l-38.236206 0z" fill-rule="evenodd"/><path stroke="#000000" stroke-width="1.0" stroke-linejoin="round" stroke-linecap="butt" d="m372.06757 443.11548l38.236206 0l0 33.5748l-38.236206 0z" fill-rule="evenodd"/><path fill="#000000" d="m391.16898 456.7135l-2.921875 10.171875l-1.46875 0l-2.65625 -9.890625q-0.171875 -0.625 -0.3125 -1.015625q-0.125 -0.390625 -0.265625 -0.609375q-0.140625 -0.21875 -0.296875 -0.328125q-0.15625 -0.125 -0.453125 -0.203125l0 -0.453125l3.890625 0l0 0.453125q-0.5625 0.109375 -0.78125 0.328125q-0.21875 0.21875 -0.21875 0.609375q0 0.3125 0.078125 0.75q0.078125 0.4375 0.21875 1.0l1.84375 7.1875l2.921875 -10.328125l1.53125 0l2.375 10.34375l2.15625 -6.953125q0.390625 -1.265625 0.390625 -1.796875q0 -0.5625 -0.234375 -0.796875q-0.234375 -0.25 -0.765625 -0.34375l0 -0.453125l3.59375 0l0 0.453125q-0.28125 0.09375 -0.453125 0.203125q-0.15625 0.109375 -0.3125 0.3125q-0.140625 0.1875 -0.328125 0.609375q-0.171875 0.40625 -0.40625 1.09375l-3.3125 9.828125l-1.296875 0l-2.515625 -10.171875z" fill-rule="nonzero"/><path fill="#d9d2e9" d="m410.30377 443.11548l38.236237 0l0 33.5748l-38.236237 0z" fill-rule="evenodd"/><path stroke="#000000" stroke-width="1.0" stroke-linejoin="round" stroke-linecap="butt" d="m410.30377 443.11548l38.236237 0l0 33.5748l-38.236237 0z" fill-rule="evenodd"/><path fill="#000000" d="m429.4052 456.7135l-2.921875 10.171875l-1.46875 0l-2.65625 -9.890625q-0.171875 -0.625 -0.3125 -1.015625q-0.125 -0.390625 -0.265625 -0.609375q-0.140625 -0.21875 -0.296875 -0.328125q-0.15625 -0.125 -0.453125 -0.203125l0 -0.453125l3.890625 0l0 0.453125q-0.5625 0.109375 -0.78125 0.328125q-0.21875 0.21875 -0.21875 0.609375q0 0.3125 0.078125 0.75q0.078125 0.4375 0.21875 1.0l1.84375 7.1875l2.921875 -10.328125l1.53125 0l2.375 10.34375l2.15625 -6.953125q0.390625 -1.265625 0.390625 -1.796875q0 -0.5625 -0.234375 -0.796875q-0.234375 -0.25 -0.765625 -0.34375l0 -0.453125l3.59375 0l0 0.453125q-0.28125 0.09375 -0.453125 0.203125q-0.15625 0.109375 -0.3125 0.3125q-0.140625 0.1875 -0.328125 0.609375q-0.171875 0.40625 -0.40625 1.09375l-3.3125 9.828125l-1.296875 0l-2.515625 -10.171875z" fill-rule="nonzero"/><path fill="#fff2cc" d="m372.06757 409.54068l114.70865 0l0 33.5748l-114.70865 0z" fill-rule="evenodd"/><path stroke="#000000" stroke-width="1.0" stroke-linejoin="round" stroke-linecap="butt" d="m372.06757 409.54068l114.70865 0l0 33.5748l-114.70865 0z" fill-rule="evenodd"/><path fill="#000000" d="m435.40628 424.1337l0 1.703125l-4.5625 0q1.5 0.859375 2.4375 2.171875q0.953125 1.296875 0.953125 2.765625q0 1.90625 -1.5 3.171875q-1.5 1.25 -3.421875 1.25q-2.25 0 -3.890625 -1.765625q-1.640625 -1.78125 -1.640625 -4.140625q0 -1.671875 0.859375 -2.9375q0.859375 -1.28125 2.0 -1.75q1.140625 -0.46875 3.09375 -0.46875l5.671875 0zm-5.34375 1.703125l-0.421875 0q-1.75 0 -2.796875 0.875q-1.046875 0.875 -1.046875 2.734375q0 1.984375 1.09375 3.5q1.109375 1.515625 2.578125 1.515625q1.1875 0 1.953125 -1.140625q0.78125 -1.140625 0.78125 -2.75q0 -2.578125 -2.140625 -4.734375z" fill-rule="nonzero"/><path fill="#d9d2e9" d="m448.54 443.11548l38.236206 0l0 33.5748l-38.236206 0z" fill-rule="evenodd"/><path stroke="#000000" stroke-width="1.0" stroke-linejoin="round" stroke-linecap="butt" d="m448.54 443.11548l38.236206 0l0 33.5748l-38.236206 0z" fill-rule="evenodd"/><path fill="#000000" d="m468.55554 461.49475l2.734375 2.71875l-0.921875 0.921875l-2.703125 -2.765625l-2.71875 2.765625l-0.921875 -0.921875l2.734375 -2.71875l-2.734375 -2.71875l0.921875 -0.921875l2.71875 2.75l2.703125 -2.75l0.921875 0.921875l-2.734375 2.71875z" fill-rule="nonzero"/><path fill="#d9ead3" d="m387.56055 535.0114l7.748047 0l0 8.283508l-7.748047 0z" fill-rule="evenodd"/><path fill="#d9ead3" d="m425.54742 534.84607l7.748047 0l0 8.283447l-7.748047 0z" fill-rule="evenodd"/><path fill="#d9ead3" d="m245.33221 534.8448l7.7480316 0l0 8.283447l-7.7480316 0z" fill-rule="evenodd"/><path fill="#000000" fill-opacity="0.0" d="m133.63518 248.35695l27.90033 0l0 290.89514l306.11542 0l0 -62.548676" fill-rule="evenodd"/><path stroke="#000000" stroke-width="2.0" stroke-linejoin="round" stroke-linecap="butt" d="m133.63518 248.35695l27.90033 0l0 290.89514l306.11542 0l0 -50.548676" fill-rule="evenodd"/><path fill="#000000" stroke="#000000" stroke-width="2.0" stroke-linecap="butt" d="m470.95438 488.7034l-3.3034668 -9.076172l-3.3034668 9.076172z" fill-rule="evenodd"/><path fill="#d9ead3" d="m709.1117 534.8448l7.748047 0l0 8.283447l-7.748047 0z" fill-rule="evenodd"/><path fill="#d9ead3" d="m747.7495 534.8448l7.747986 0l0 8.283447l-7.747986 0z" fill-rule="evenodd"/><path fill="#d9d2e9" d="m694.0295 443.11417l38.236267 0l0 33.5748l-38.236267 0z" fill-rule="evenodd"/><path stroke="#000000" stroke-width="1.0" stroke-linejoin="round" stroke-linecap="butt" d="m694.0295 443.11417l38.236267 0l0 33.5748l-38.236267 0z" fill-rule="evenodd"/><path fill="#000000" d="m713.1309 456.7122l-2.921875 10.171875l-1.46875 0l-2.65625 -9.890625q-0.171875 -0.625 -0.3125 -1.015625q-0.125 -0.390625 -0.265625 -0.609375q-0.140625 -0.21875 -0.296875 -0.328125q-0.15625 -0.125 -0.453125 -0.203125l0 -0.453125l3.890625 0l0 0.453125q-0.5625 0.109375 -0.78125 0.328125q-0.21875 0.21875 -0.21875 0.609375q0 0.3125 0.078125 0.75q0.078125 0.4375 0.21875 1.0l1.84375 7.1875l2.921875 -10.328125l1.53125 0l2.375 10.34375l2.15625 -6.953125q0.390625 -1.265625 0.390625 -1.796875q0 -0.5625 -0.234375 -0.796875q-0.234375 -0.25 -0.765625 -0.34375l0 -0.453125l3.59375 0l0 0.453125q-0.28125 0.09375 -0.453125 0.203125q-0.15625 0.109375 -0.3125 0.3125q-0.140625 0.1875 -0.328125 0.609375q-0.171875 0.40625 -0.40625 1.09375l-3.3125 9.828125l-1.296875 0l-2.515625 -10.171875z" fill-rule="nonzero"/><path fill="#d9d2e9" d="m732.26575 443.11417l38.236206 0l0 33.5748l-38.236206 0z" fill-rule="evenodd"/><path stroke="#000000" stroke-width="1.0" stroke-linejoin="round" stroke-linecap="butt" d="m732.26575 443.11417l38.236206 0l0 33.5748l-38.236206 0z" fill-rule="evenodd"/><path fill="#000000" d="m751.3671 456.7122l-2.921875 10.171875l-1.46875 0l-2.65625 -9.890625q-0.171875 -0.625 -0.3125 -1.015625q-0.125 -0.390625 -0.265625 -0.609375q-0.140625 -0.21875 -0.296875 -0.328125q-0.15625 -0.125 -0.453125 -0.203125l0 -0.453125l3.890625 0l0 0.453125q-0.5625 0.109375 -0.78125 0.328125q-0.21875 0.21875 -0.21875 0.609375q0 0.3125 0.078125 0.75q0.078125 0.4375 0.21875 1.0l1.84375 7.1875l2.921875 -10.328125l1.53125 0l2.375 10.34375l2.15625 -6.953125q0.390625 -1.265625 0.390625 -1.796875q0 -0.5625 -0.234375 -0.796875q-0.234375 -0.25 -0.765625 -0.34375l0 -0.453125l3.59375 0l0 0.453125q-0.28125 0.09375 -0.453125 0.203125q-0.15625 0.109375 -0.3125 0.3125q-0.140625 0.1875 -0.328125 0.609375q-0.171875 0.40625 -0.40625 1.09375l-3.3125 9.828125l-1.296875 0l-2.515625 -10.171875z" fill-rule="nonzero"/><path fill="#fff2cc" d="m694.0295 409.53937l114.70868 0l0 33.5748l-114.70868 0z" fill-rule="evenodd"/><path stroke="#000000" stroke-width="1.0" stroke-linejoin="round" stroke-linecap="butt" d="m694.0295 409.53937l114.70868 0l0 33.5748l-114.70868 0z" fill-rule="evenodd"/><path fill="#000000" d="m757.3682 424.1324l0 1.703125l-4.5625 0q1.5 0.859375 2.4375 2.171875q0.953125 1.296875 0.953125 2.765625q0 1.90625 -1.5 3.171875q-1.5 1.25 -3.421875 1.25q-2.25 0 -3.890625 -1.765625q-1.640625 -1.78125 -1.640625 -4.140625q0 -1.671875 0.859375 -2.9375q0.859375 -1.28125 2.0 -1.75q1.140625 -0.46875 3.09375 -0.46875l5.671875 0zm-5.34375 1.703125l-0.421875 0q-1.75 0 -2.796875 0.875q-1.046875 0.875 -1.046875 2.734375q0 1.984375 1.09375 3.5q1.109375 1.515625 2.578125 1.515625q1.1875 0 1.953125 -1.140625q0.78125 -1.140625 0.78125 -2.75q0 -2.578125 -2.140625 -4.734375z" fill-rule="nonzero"/><path fill="#d9d2e9" d="m770.50195 443.11417l38.236206 0l0 33.5748l-38.236206 0z" fill-rule="evenodd"/><path stroke="#000000" stroke-width="1.0" stroke-linejoin="round" stroke-linecap="butt" d="m770.50195 443.11417l38.236206 0l0 33.5748l-38.236206 0z" fill-rule="evenodd"/><path fill="#000000" d="m790.51746 461.49344l2.734375 2.71875l-0.921875 0.921875l-2.703125 -2.765625l-2.71875 2.765625l-0.921875 -0.921875l2.734375 -2.71875l-2.734375 -2.71875l0.921875 -0.921875l2.71875 2.75l2.703125 -2.75l0.921875 0.921875l-2.734375 2.71875z" fill-rule="nonzero"/><path fill="#000000" fill-opacity="0.0" d="m616.0401 248.35812l41.80725 0l0 290.90884l131.76758 0l0 -62.562378" fill-rule="evenodd"/><path stroke="#000000" stroke-width="2.0" stroke-linejoin="round" stroke-linecap="butt" d="m616.0401 248.35812l41.80725 0l0 290.90884l131.76758 0l0 -50.56241" fill-rule="evenodd"/><path fill="#000000" stroke="#000000" stroke-width="2.0" stroke-linecap="butt" d="m792.9184 488.70456l-3.3034668 -9.076202l-3.3034668 9.076202z" fill-rule="evenodd"/></g></svg>