<svg version="1.1" viewBox="0.0 0.0 746.9475065616798 358.8346456692913" fill="none" stroke="none" stroke-linecap="square" stroke-miterlimit="10" xmlns:xlink="http://www.w3.org/1999/xlink" xmlns="http://www.w3.org/2000/svg"><clipPath id="p.0"><path d="m0 0l746.9475 0l0 358.83466l-746.9475 0l0 -358.83466z" clip-rule="nonzero"/></clipPath><g clip-path="url(#p.0)"><path fill="#000000" fill-opacity="0.0" d="m0 0l746.9475 0l0 358.83466l-746.9475 0z" fill-rule="evenodd"/><path fill="#d9ead3" d="m12.6587925 120.64627l0 0c0 -5.163452 4.18581 -9.349266 9.349268 -9.349266l37.39595 0l0 0c2.4795837 0 4.857601 0.98500824 6.610935 2.7383347c1.7533264 1.753334 2.7383347 4.1313553 2.7383347 6.6109314l0 115.97864c0 5.163452 -4.1858063 9.349258 -9.34927 9.349258l-37.39595 0c-5.163458 0 -9.349268 -4.1858063 -9.349268 -9.349258z" fill-rule="evenodd"/><path stroke="#274e13" stroke-width="2.0" stroke-linejoin="round" stroke-linecap="butt" d="m12.6587925 120.64627l0 0c0 -5.163452 4.18581 -9.349266 9.349268 -9.349266l37.39595 0l0 0c2.4795837 0 4.857601 0.98500824 6.610935 2.7383347c1.7533264 1.753334 2.7383347 4.1313553 2.7383347 6.6109314l0 115.97864c0 5.163452 -4.1858063 9.349258 -9.34927 9.349258l-37.39595 0c-5.163458 0 -9.349268 -4.1858063 -9.349268 -9.349258z" fill-rule="evenodd"/><path fill="#000000" d="m48.46385 169.02747l0 4.96875l-2.140625 0q-0.515625 -1.484375 -0.875 -2.0q-0.359375 -0.53125 -0.859375 -0.828125q-0.5 -0.3125 -1.703125 -0.3125l-3.40625 0l0 7.5l2.0625 0q0.6875 0 1.078125 -0.1875q0.390625 -0.203125 0.640625 -0.65625q0.265625 -0.453125 0.5 -1.40625l1.765625 0l0 6.34375l-1.765625 0q-0.21875 -0.90625 -0.484375 -1.375q-0.265625 -0.484375 -0.640625 -0.6875q-0.359375 -0.203125 -1.09375 -0.203125l-2.0625 0l0 8.34375l3.390625 0q0.546875 0 0.921875 -0.0625q0.375 -0.078125 0.671875 -0.25q0.296875 -0.171875 0.5625 -0.46875q0.28125 -0.296875 0.484375 -0.640625q0.21875 -0.34375 0.453125 -0.90625q0.234375 -0.5625 0.515625 -1.546875l2.140625 0l-0.296875 5.703125l-15.359375 0l0 -1.03125q0.578125 -0.15625 0.90625 -0.328125q0.34375 -0.1875 0.5 -0.5q0.171875 -0.328125 0.21875 -0.8125q0.046875 -0.5 0.046875 -1.25l0 -13.46875q0 -0.734375 -0.046875 -1.234375q-0.03125 -0.5 -0.203125 -0.8125q-0.15625 -0.3125 -0.5 -0.5q-0.328125 -0.203125 -0.921875 -0.359375l0 -1.03125l15.5 0z" fill-rule="nonzero"/><path fill="#cfe2f3" d="m3.7322834 313.6736l0 0c0 -20.343231 16.491434 -36.834656 36.834644 -36.834656l0 0c9.769157 0 19.138191 3.8807983 26.046024 10.788635c6.907837 6.9078064 10.78862 16.276855 10.78862 26.04602l0 0c0 20.3432 -16.491432 36.834625 -36.834644 36.834625l0 0c-20.343212 0 -36.834644 -16.491425 -36.834644 -36.834625z" fill-rule="evenodd"/><path stroke="#000000" stroke-width="1.0" stroke-linejoin="round" stroke-linecap="butt" d="m3.7322834 313.6736l0 0c0 -20.343231 16.491434 -36.834656 36.834644 -36.834656l0 0c9.769157 0 19.138191 3.8807983 26.046024 10.788635c6.907837 6.9078064 10.78862 16.276855 10.78862 26.04602l0 0c0 20.3432 -16.491432 36.834625 -36.834644 36.834625l0 0c-20.343212 0 -36.834644 -16.491425 -36.834644 -36.834625z" fill-rule="evenodd"/><path fill="#000000" d="m35.482944 306.21362l0 0.78125q-0.546875 0.046875 -0.78125 0.25q-0.21875 0.1875 -0.21875 0.59375q0 0.1875 0.078125 0.453125q0.078125 0.25 0.265625 0.609375q0.1875 0.34375 0.640625 1.09375l1.078125 1.8125l1.421875 -2.09375q0.46875 -0.6875 0.625 -1.046875q0.15625 -0.375 0.15625 -0.796875q0 -0.375 -0.265625 -0.59375q-0.25 -0.234375 -0.703125 -0.28125l0 -0.78125l4.84375 0l0 0.78125q-0.34375 0.09375 -0.65625 0.3125q-0.296875 0.203125 -0.703125 0.671875q-0.390625 0.46875 -1.265625 1.734375l-2.53125 3.609375l3.8125 6.296875q0.203125 0.3125 0.40625 0.625q0.203125 0.3125 0.390625 0.5625q0.203125 0.234375 0.34375 0.359375q0.15625 0.109375 0.296875 0.171875q0.140625 0.0625 0.296875 0.09375l0 0.78125l-6.515625 0l0 -0.78125q0.515625 -0.046875 0.75 -0.234375q0.25 -0.1875 0.25 -0.609375q0 -0.140625 -0.046875 -0.296875q-0.03125 -0.171875 -0.140625 -0.40625q-0.09375 -0.234375 -0.203125 -0.40625q-0.09375 -0.1875 -0.390625 -0.703125l-1.625 -2.6875l-1.921875 2.828125q-0.21875 0.34375 -0.375 0.625q-0.140625 0.28125 -0.203125 0.515625q-0.0625 0.234375 -0.0625 0.546875q0 0.3125 0.25 0.546875q0.25 0.234375 0.71875 0.28125l0 0.78125l-4.84375 0l0 -0.78125q0.390625 -0.109375 0.703125 -0.34375q0.328125 -0.25 0.703125 -0.703125q0.390625 -0.453125 1.046875 -1.421875l3.0625 -4.375l-2.953125 -4.921875q-0.484375 -0.796875 -0.828125 -1.3125q-0.34375 -0.53125 -0.578125 -0.796875q-0.234375 -0.28125 -0.421875 -0.390625q-0.171875 -0.125 -0.421875 -0.171875l0 -0.78125l6.515625 0z" fill-rule="nonzero"/><path fill="#000000" d="m47.8931 331.33862q-1.21875 0 -2.046875 -0.53125q-0.8125 -0.546875 -1.265625 -1.734375q-0.4375 -1.203125 -0.4375 -3.09375q0 -1.796875 0.453125 -3.03125q0.453125 -1.234375 1.328125 -1.875q0.875 -0.65625 2.109375 -0.65625q1.921875 0 2.859375 1.3125q0.953125 1.3125 0.953125 4.0q0 2.765625 -1.0 4.1875q-1.0 1.421875 -2.953125 1.421875zm-1.375 -5.59375q0 1.71875 0.140625 2.734375q0.15625 1.015625 0.484375 1.5q0.328125 0.484375 0.875 0.484375q0.296875 0 0.515625 -0.140625q0.234375 -0.15625 0.40625 -0.453125q0.171875 -0.3125 0.296875 -0.828125q0.125 -0.515625 0.171875 -1.265625q0.0625 -0.765625 0.0625 -1.703125q0 -1.40625 -0.109375 -2.359375q-0.09375 -0.953125 -0.296875 -1.46875q-0.1875 -0.515625 -0.453125 -0.734375q-0.265625 -0.21875 -0.625 -0.21875q-0.40625 0 -0.703125 0.28125q-0.28125 0.265625 -0.453125 0.828125q-0.171875 0.546875 -0.25 1.390625q-0.0625 0.828125 -0.0625 1.953125z" fill-rule="nonzero"/><path fill="#ffffff" d="m64.780556 178.59491l0 0c0 -2.2874146 1.8543167 -4.141739 4.1417313 -4.141739l0 0c1.0984573 0 2.1519165 0.4363556 2.9286423 1.213089c0.77672577 0.77671814 1.213089 1.8301849 1.213089 2.92865l0 0c0 2.2874146 -1.8543167 4.1417236 -4.1417313 4.1417236l0 0c-2.2874146 0 -4.1417313 -1.8543091 -4.1417313 -4.1417236z" fill-rule="evenodd"/><path stroke="#000000" stroke-width="1.0" stroke-linejoin="round" stroke-linecap="butt" d="m64.780556 178.59491l0 0c0 -2.2874146 1.8543167 -4.141739 4.1417313 -4.141739l0 0c1.0984573 0 2.1519165 0.4363556 2.9286423 1.213089c0.77672577 0.77671814 1.213089 1.8301849 1.213089 2.92865l0 0c0 2.2874146 -1.8543167 4.1417236 -4.1417313 4.1417236l0 0c-2.2874146 0 -4.1417313 -1.8543091 -4.1417313 -4.1417236z" fill-rule="evenodd"/><path fill="#ffffff" d="m36.425198 246.5673l0 0c0 -2.2874146 1.8543167 -4.141739 4.1417313 -4.141739l0 0c1.0984573 0 2.1519203 0.43637085 2.928646 1.213089c0.77672577 0.7767334 1.2130852 1.8302002 1.2130852 2.92865l0 0c0 2.2874146 -1.8543167 4.141739 -4.1417313 4.141739l0 0c-2.2874146 0 -4.1417313 -1.8543243 -4.1417313 -4.141739z" fill-rule="evenodd"/><path stroke="#000000" stroke-width="1.0" stroke-linejoin="round" stroke-linecap="butt" d="m36.425198 246.5673l0 0c0 -2.2874146 1.8543167 -4.141739 4.1417313 -4.141739l0 0c1.0984573 0 2.1519203 0.43637085 2.928646 1.213089c0.77672577 0.7767334 1.2130852 1.8302002 1.2130852 2.92865l0 0c0 2.2874146 -1.8543167 4.141739 -4.1417313 4.141739l0 0c-2.2874146 0 -4.1417313 -1.8543243 -4.1417313 -4.141739z" fill-rule="evenodd"/><path fill="#ffffff" d="m36.425198 111.40203l0 0c0 -2.2874146 1.8543167 -4.1417313 4.1417313 -4.1417313l0 0c1.0984573 0 2.1519203 0.4363556 2.928646 1.2130814c0.77672577 0.77672577 1.2130852 1.8301926 1.2130852 2.92865l0 0c0 2.2874146 -1.8543167 4.1417313 -4.1417313 4.1417313l0 0c-2.2874146 0 -4.1417313 -1.8543167 -4.1417313 -4.1417313z" fill-rule="evenodd"/><path stroke="#000000" stroke-width="1.0" stroke-linejoin="round" stroke-linecap="butt" d="m36.425198 111.40203l0 0c0 -2.2874146 1.8543167 -4.1417313 4.1417313 -4.1417313l0 0c1.0984573 0 2.1519203 0.4363556 2.928646 1.2130814c0.77672577 0.77672577 1.2130852 1.8301926 1.2130852 2.92865l0 0c0 2.2874146 -1.8543167 4.1417313 -4.1417313 4.1417313l0 0c-2.2874146 0 -4.1417313 -1.8543167 -4.1417313 -4.1417313z" fill-rule="evenodd"/><path fill="#000000" fill-opacity="0.0" d="m40.56693 276.83896l0 -26.141724" fill-rule="evenodd"/><path stroke="#000000" stroke-width="2.0" stroke-linejoin="round" stroke-linecap="butt" d="m40.56693 276.83896l0 -14.141754" fill-rule="evenodd"/><path fill="#000000" stroke="#000000" stroke-width="2.0" stroke-linecap="butt" d="m43.870396 262.6972l-3.3034668 -9.076187l-3.303463 9.076187z" fill-rule="evenodd"/><path fill="#d9ead3" d="m114.57743 120.64627l0 0c0 -5.163452 4.1858063 -9.349266 9.349266 -9.349266l37.39595 0l0 0c2.4795837 0 4.857605 0.98500824 6.6109314 2.7383347c1.7533264 1.753334 2.7383423 4.1313553 2.7383423 6.6109314l0 115.97864c0 5.163452 -4.1858215 9.349258 -9.349274 9.349258l-37.39595 0c-5.16346 0 -9.349266 -4.1858063 -9.349266 -9.349258z" fill-rule="evenodd"/><path stroke="#274e13" stroke-width="2.0" stroke-linejoin="round" stroke-linecap="butt" d="m114.57743 120.64627l0 0c0 -5.163452 4.1858063 -9.349266 9.349266 -9.349266l37.39595 0l0 0c2.4795837 0 4.857605 0.98500824 6.6109314 2.7383347c1.7533264 1.753334 2.7383423 4.1313553 2.7383423 6.6109314l0 115.97864c0 5.163452 -4.1858215 9.349258 -9.349274 9.349258l-37.39595 0c-5.16346 0 -9.349266 -4.1858063 -9.349266 -9.349258z" fill-rule="evenodd"/><path fill="#000000" d="m150.38249 169.02747l0 4.96875l-2.140625 0q-0.515625 -1.484375 -0.875 -2.0q-0.359375 -0.53125 -0.859375 -0.828125q-0.5 -0.3125 -1.703125 -0.3125l-3.40625 0l0 7.5l2.0625 0q0.6875 0 1.078125 -0.1875q0.390625 -0.203125 0.640625 -0.65625q0.265625 -0.453125 0.5 -1.40625l1.765625 0l0 6.34375l-1.765625 0q-0.21875 -0.90625 -0.484375 -1.375q-0.265625 -0.484375 -0.640625 -0.6875q-0.359375 -0.203125 -1.09375 -0.203125l-2.0625 0l0 8.34375l3.390625 0q0.546875 0 0.921875 -0.0625q0.375 -0.078125 0.671875 -0.25q0.296875 -0.171875 0.5625 -0.46875q0.28125 -0.296875 0.484375 -0.640625q0.21875 -0.34375 0.453125 -0.90625q0.234375 -0.5625 0.515625 -1.546875l2.140625 0l-0.296875 5.703125l-15.359375 0l0 -1.03125q0.578125 -0.15625 0.90625 -0.328125q0.34375 -0.1875 0.5 -0.5q0.171875 -0.328125 0.21875 -0.8125q0.046875 -0.5 0.046875 -1.25l0 -13.46875q0 -0.734375 -0.046875 -1.234375q-0.03125 -0.5 -0.203125 -0.8125q-0.15625 -0.3125 -0.5 -0.5q-0.328125 -0.203125 -0.921875 -0.359375l0 -1.03125l15.5 0z" fill-rule="nonzero"/><path fill="#cfe2f3" d="m105.65092 313.6736l0 0c0 -20.343231 16.491432 -36.834656 36.83465 -36.834656l0 0c9.76915 0 19.138184 3.8807983 26.04602 10.788635c6.907837 6.9078064 10.78862 16.276855 10.78862 26.04602l0 0c0 20.3432 -16.491425 36.834625 -36.83464 36.834625l0 0c-20.343216 0 -36.83465 -16.491425 -36.83465 -36.834625z" fill-rule="evenodd"/><path stroke="#000000" stroke-width="1.0" stroke-linejoin="round" stroke-linecap="butt" d="m105.65092 313.6736l0 0c0 -20.343231 16.491432 -36.834656 36.83465 -36.834656l0 0c9.76915 0 19.138184 3.8807983 26.04602 10.788635c6.907837 6.9078064 10.78862 16.276855 10.78862 26.04602l0 0c0 20.3432 -16.491425 36.834625 -36.83464 36.834625l0 0c-20.343216 0 -36.83465 -16.491425 -36.83465 -36.834625z" fill-rule="evenodd"/><path fill="#000000" d="m137.40158 306.21362l0 0.78125q-0.546875 0.046875 -0.78125 0.25q-0.21875 0.1875 -0.21875 0.59375q0 0.1875 0.078125 0.453125q0.078125 0.25 0.265625 0.609375q0.1875 0.34375 0.640625 1.09375l1.078125 1.8125l1.421875 -2.09375q0.46875 -0.6875 0.625 -1.046875q0.15625 -0.375 0.15625 -0.796875q0 -0.375 -0.265625 -0.59375q-0.25 -0.234375 -0.703125 -0.28125l0 -0.78125l4.84375 0l0 0.78125q-0.34375 0.09375 -0.65625 0.3125q-0.296875 0.203125 -0.703125 0.671875q-0.390625 0.46875 -1.265625 1.734375l-2.53125 3.609375l3.8125 6.296875q0.203125 0.3125 0.40625 0.625q0.203125 0.3125 0.390625 0.5625q0.203125 0.234375 0.34375 0.359375q0.15625 0.109375 0.296875 0.171875q0.140625 0.0625 0.296875 0.09375l0 0.78125l-6.515625 0l0 -0.78125q0.515625 -0.046875 0.75 -0.234375q0.25 -0.1875 0.25 -0.609375q0 -0.140625 -0.046875 -0.296875q-0.03125 -0.171875 -0.140625 -0.40625q-0.09375 -0.234375 -0.203125 -0.40625q-0.09375 -0.1875 -0.390625 -0.703125l-1.625 -2.6875l-1.921875 2.828125q-0.21875 0.34375 -0.375 0.625q-0.140625 0.28125 -0.203125 0.515625q-0.0625 0.234375 -0.0625 0.546875q0 0.3125 0.25 0.546875q0.25 0.234375 0.71875 0.28125l0 0.78125l-4.84375 0l0 -0.78125q0.390625 -0.109375 0.703125 -0.34375q0.328125 -0.25 0.703125 -0.703125q0.390625 -0.453125 1.046875 -1.421875l3.0625 -4.375l-2.953125 -4.921875q-0.484375 -0.796875 -0.828125 -1.3125q-0.34375 -0.53125 -0.578125 -0.796875q-0.234375 -0.28125 -0.421875 -0.390625q-0.171875 -0.125 -0.421875 -0.171875l0 -0.78125l6.515625 0z" fill-rule="nonzero"/><path fill="#000000" d="m151.43674 329.02612q0 0.453125 0.046875 0.6875q0.0625 0.234375 0.1875 0.375q0.125 0.140625 0.359375 0.234375q0.25 0.078125 0.609375 0.125q0.375 0.03125 0.984375 0.046875l0 0.71875l-6.75 0l0 -0.71875q0.875 -0.03125 1.234375 -0.09375q0.375 -0.078125 0.5625 -0.203125q0.203125 -0.140625 0.296875 -0.375q0.09375 -0.25 0.09375 -0.796875l0 -5.640625q0 -0.328125 -0.125 -0.46875q-0.125 -0.140625 -0.328125 -0.140625q-0.203125 0 -0.5625 0.1875q-0.34375 0.171875 -1.15625 0.734375l-0.484375 -0.828125l4.078125 -2.453125l1.0 0q-0.046875 0.75 -0.046875 2.078125l0 6.53125z" fill-rule="nonzero"/><path fill="#ffffff" d="m166.69919 178.7968l0 0c0 -2.2874146 1.8543243 -4.141739 4.141739 -4.141739l0 0c1.0984497 0 2.1519165 0.43637085 2.9286346 1.213089c0.7767334 0.7767334 1.213089 1.8301849 1.213089 2.92865l0 0c0 2.2874146 -1.8543091 4.1417236 -4.1417236 4.1417236l0 0c-2.2874146 0 -4.141739 -1.8543091 -4.141739 -4.1417236z" fill-rule="evenodd"/><path stroke="#000000" stroke-width="1.0" stroke-linejoin="round" stroke-linecap="butt" d="m166.69919 178.7968l0 0c0 -2.2874146 1.8543243 -4.141739 4.141739 -4.141739l0 0c1.0984497 0 2.1519165 0.43637085 2.9286346 1.213089c0.7767334 0.7767334 1.213089 1.8301849 1.213089 2.92865l0 0c0 2.2874146 -1.8543091 4.1417236 -4.1417236 4.1417236l0 0c-2.2874146 0 -4.141739 -1.8543091 -4.141739 -4.1417236z" fill-rule="evenodd"/><path fill="#ffffff" d="m138.34383 246.5673l0 0c0 -2.2874146 1.8543243 -4.141739 4.141739 -4.141739l0 0c1.0984497 0 2.1519165 0.43637085 2.92865 1.213089c0.77671814 0.7767334 1.213089 1.8302002 1.213089 2.92865l0 0c0 2.2874146 -1.8543243 4.141739 -4.141739 4.141739l0 0c-2.2874146 0 -4.141739 -1.8543243 -4.141739 -4.141739z" fill-rule="evenodd"/><path stroke="#000000" stroke-width="1.0" stroke-linejoin="round" stroke-linecap="butt" d="m138.34383 246.5673l0 0c0 -2.2874146 1.8543243 -4.141739 4.141739 -4.141739l0 0c1.0984497 0 2.1519165 0.43637085 2.92865 1.213089c0.77671814 0.7767334 1.213089 1.8302002 1.213089 2.92865l0 0c0 2.2874146 -1.8543243 4.141739 -4.141739 4.141739l0 0c-2.2874146 0 -4.141739 -1.8543243 -4.141739 -4.141739z" fill-rule="evenodd"/><path fill="#ffffff" d="m138.34383 111.40203l0 0c0 -2.2874146 1.8543243 -4.1417313 4.141739 -4.1417313l0 0c1.0984497 0 2.1519165 0.4363556 2.92865 1.2130814c0.77671814 0.77672577 1.213089 1.8301926 1.213089 2.92865l0 0c0 2.2874146 -1.8543243 4.1417313 -4.141739 4.1417313l0 0c-2.2874146 0 -4.141739 -1.8543167 -4.141739 -4.1417313z" fill-rule="evenodd"/><path stroke="#000000" stroke-width="1.0" stroke-linejoin="round" stroke-linecap="butt" d="m138.34383 111.40203l0 0c0 -2.2874146 1.8543243 -4.1417313 4.141739 -4.1417313l0 0c1.0984497 0 2.1519165 0.4363556 2.92865 1.2130814c0.77671814 0.77672577 1.213089 1.8301926 1.213089 2.92865l0 0c0 2.2874146 -1.8543243 4.1417313 -4.141739 4.1417313l0 0c-2.2874146 0 -4.141739 -1.8543167 -4.141739 -4.1417313z" fill-rule="evenodd"/><path fill="#000000" fill-opacity="0.0" d="m142.48557 276.83896l0 -26.141724" fill-rule="evenodd"/><path stroke="#000000" stroke-width="2.0" stroke-linejoin="round" stroke-linecap="butt" d="m142.48557 276.83896l0 -14.141754" fill-rule="evenodd"/><path fill="#000000" stroke="#000000" stroke-width="2.0" stroke-linecap="butt" d="m145.78903 262.6972l-3.3034668 -9.076187l-3.3034668 9.076187z" fill-rule="evenodd"/><path fill="#ffffff" d="m110.29982 178.98729l0 0c0 -2.2874146 1.8543167 -4.1417236 4.1417313 -4.1417236l0 0c1.0984497 0 2.1519165 0.4363556 2.9286423 1.2130737c0.77672577 0.7767334 1.213089 1.8302002 1.213089 2.92865l0 0c0 2.2874146 -1.8543167 4.141739 -4.1417313 4.141739l0 0c-2.2874146 0 -4.1417313 -1.8543243 -4.1417313 -4.141739z" fill-rule="evenodd"/><path stroke="#000000" stroke-width="1.0" stroke-linejoin="round" stroke-linecap="butt" d="m110.29982 178.98729l0 0c0 -2.2874146 1.8543167 -4.1417236 4.1417313 -4.1417236l0 0c1.0984497 0 2.1519165 0.4363556 2.9286423 1.2130737c0.77672577 0.7767334 1.213089 1.8302002 1.213089 2.92865l0 0c0 2.2874146 -1.8543167 4.141739 -4.1417313 4.141739l0 0c-2.2874146 0 -4.1417313 -1.8543243 -4.1417313 -4.141739z" fill-rule="evenodd"/><path fill="#000000" fill-opacity="0.0" d="m73.06402 178.59491l37.228348 0.37794495" fill-rule="evenodd"/><path stroke="#000000" stroke-width="2.0" stroke-linejoin="round" stroke-linecap="butt" d="m73.06402 178.5949l25.228958 0.25613403" fill-rule="evenodd"/><path fill="#000000" stroke="#000000" stroke-width="2.0" stroke-linecap="butt" d="m98.259445 182.15433l9.109268 -3.2111511l-9.042198 -3.3954468z" fill-rule="evenodd"/><path fill="#d9ead3" d="m264.49606 120.64627l0 0c0 -5.163452 4.1858215 -9.349266 9.349274 -9.349266l37.395935 0l0 0c2.4795837 0 4.857605 0.98500824 6.6109314 2.7383347c1.7533264 1.753334 2.7383423 4.1313553 2.7383423 6.6109314l0 115.97864c0 5.163452 -4.185791 9.349258 -9.349274 9.349258l-37.395935 0c-5.163452 0 -9.349274 -4.1858063 -9.349274 -9.349258z" fill-rule="evenodd"/><path stroke="#274e13" stroke-width="2.0" stroke-linejoin="round" stroke-linecap="butt" d="m264.49606 120.64627l0 0c0 -5.163452 4.1858215 -9.349266 9.349274 -9.349266l37.395935 0l0 0c2.4795837 0 4.857605 0.98500824 6.6109314 2.7383347c1.7533264 1.753334 2.7383423 4.1313553 2.7383423 6.6109314l0 115.97864c0 5.163452 -4.185791 9.349258 -9.349274 9.349258l-37.395935 0c-5.163452 0 -9.349274 -4.1858063 -9.349274 -9.349258z" fill-rule="evenodd"/><path fill="#000000" d="m300.30112 169.02747l0 4.96875l-2.140625 0q-0.515625 -1.484375 -0.875 -2.0q-0.359375 -0.53125 -0.859375 -0.828125q-0.5 -0.3125 -1.703125 -0.3125l-3.40625 0l0 7.5l2.0625 0q0.6875 0 1.078125 -0.1875q0.390625 -0.203125 0.640625 -0.65625q0.265625 -0.453125 0.5 -1.40625l1.765625 0l0 6.34375l-1.765625 0q-0.21875 -0.90625 -0.484375 -1.375q-0.265625 -0.484375 -0.640625 -0.6875q-0.359375 -0.203125 -1.09375 -0.203125l-2.0625 0l0 8.34375l3.390625 0q0.546875 0 0.921875 -0.0625q0.375 -0.078125 0.671875 -0.25q0.296875 -0.171875 0.5625 -0.46875q0.28125 -0.296875 0.484375 -0.640625q0.21875 -0.34375 0.453125 -0.90625q0.234375 -0.5625 0.515625 -1.546875l2.140625 0l-0.296875 5.703125l-15.359375 0l0 -1.03125q0.578125 -0.15625 0.90625 -0.328125q0.34375 -0.1875 0.5 -0.5q0.171875 -0.328125 0.21875 -0.8125q0.046875 -0.5 0.046875 -1.25l0 -13.46875q0 -0.734375 -0.046875 -1.234375q-0.03125 -0.5 -0.203125 -0.8125q-0.15625 -0.3125 -0.5 -0.5q-0.328125 -0.203125 -0.921875 -0.359375l0 -1.03125l15.5 0z" fill-rule="nonzero"/><path fill="#cfe2f3" d="m255.56955 313.6736l0 0c0 -20.343231 16.491425 -36.834656 36.834656 -36.834656l0 0c9.7691345 0 19.138184 3.8807983 26.04602 10.788635c6.907837 6.9078064 10.788605 16.276855 10.788605 26.04602l0 0c0 20.3432 -16.491425 36.834625 -36.834625 36.834625l0 0c-20.343231 0 -36.834656 -16.491425 -36.834656 -36.834625z" fill-rule="evenodd"/><path stroke="#000000" stroke-width="1.0" stroke-linejoin="round" stroke-linecap="butt" d="m255.56955 313.6736l0 0c0 -20.343231 16.491425 -36.834656 36.834656 -36.834656l0 0c9.7691345 0 19.138184 3.8807983 26.04602 10.788635c6.907837 6.9078064 10.788605 16.276855 10.788605 26.04602l0 0c0 20.3432 -16.491425 36.834625 -36.834625 36.834625l0 0c-20.343231 0 -36.834656 -16.491425 -36.834656 -36.834625z" fill-rule="evenodd"/><path fill="#000000" d="m286.94522 306.21362l0 0.78125q-0.546875 0.046875 -0.78125 0.25q-0.21875 0.1875 -0.21875 0.59375q0 0.1875 0.078125 0.453125q0.078125 0.25 0.265625 0.609375q0.1875 0.34375 0.640625 1.09375l1.078125 1.8125l1.421875 -2.09375q0.46875 -0.6875 0.625 -1.046875q0.15625 -0.375 0.15625 -0.796875q0 -0.375 -0.265625 -0.59375q-0.25 -0.234375 -0.703125 -0.28125l0 -0.78125l4.84375 0l0 0.78125q-0.34375 0.09375 -0.65625 0.3125q-0.296875 0.203125 -0.703125 0.671875q-0.390625 0.46875 -1.265625 1.734375l-2.53125 3.609375l3.8125 6.296875q0.203125 0.3125 0.40625 0.625q0.203125 0.3125 0.390625 0.5625q0.203125 0.234375 0.34375 0.359375q0.15625 0.109375 0.296875 0.171875q0.140625 0.0625 0.296875 0.09375l0 0.78125l-6.515625 0l0 -0.78125q0.515625 -0.046875 0.75 -0.234375q0.25 -0.1875 0.25 -0.609375q0 -0.140625 -0.046875 -0.296875q-0.03125 -0.171875 -0.140625 -0.40625q-0.09375 -0.234375 -0.203125 -0.40625q-0.09375 -0.1875 -0.390625 -0.703125l-1.625 -2.6875l-1.921875 2.828125q-0.21875 0.34375 -0.375 0.625q-0.140625 0.28125 -0.203125 0.515625q-0.0625 0.234375 -0.0625 0.546875q0 0.3125 0.25 0.546875q0.25 0.234375 0.71875 0.28125l0 0.78125l-4.84375 0l0 -0.78125q0.390625 -0.109375 0.703125 -0.34375q0.328125 -0.25 0.703125 -0.703125q0.390625 -0.453125 1.046875 -1.421875l3.0625 -4.375l-2.953125 -4.921875q-0.484375 -0.796875 -0.828125 -1.3125q-0.34375 -0.53125 -0.578125 -0.796875q-0.234375 -0.28125 -0.421875 -0.390625q-0.171875 -0.125 -0.421875 -0.171875l0 -0.78125l6.515625 0z" fill-rule="nonzero"/><path fill="#000000" d="m297.6835 331.21362l0 -0.515625q0.328125 -0.0625 0.515625 -0.140625q0.1875 -0.09375 0.28125 -0.25q0.09375 -0.171875 0.109375 -0.421875q0.03125 -0.265625 0.03125 -0.640625l0 -7.78125l-0.625 0q-0.46875 0 -0.71875 0.109375q-0.25 0.109375 -0.4375 0.34375q-0.1875 0.234375 -0.328125 0.625q-0.125 0.390625 -0.203125 0.75l-1.078125 0l0 -2.75l9.203125 0l0 2.75l-1.078125 0q-0.140625 -0.53125 -0.234375 -0.78125q-0.078125 -0.25 -0.1875 -0.421875q-0.109375 -0.1875 -0.234375 -0.296875q-0.109375 -0.125 -0.25 -0.1875q-0.125 -0.078125 -0.328125 -0.109375q-0.1875 -0.03125 -0.515625 -0.03125l-0.5625 0l0 7.78125q0 0.421875 0.015625 0.640625q0.03125 0.203125 0.09375 0.34375q0.0625 0.125 0.15625 0.21875q0.09375 0.078125 0.25 0.140625q0.15625 0.0625 0.4375 0.109375l0 0.515625l-4.3125 0z" fill-rule="nonzero"/><path fill="#ffffff" d="m316.61783 178.59491l0 0c0 -2.2874146 1.8543091 -4.141739 4.1417236 -4.141739l0 0c1.0984497 0 2.1519165 0.4363556 2.92865 1.213089c0.7767334 0.77671814 1.2130737 1.8301849 1.2130737 2.92865l0 0c0 2.2874146 -1.8543091 4.1417236 -4.1417236 4.1417236l0 0c-2.2874146 0 -4.1417236 -1.8543091 -4.1417236 -4.1417236z" fill-rule="evenodd"/><path stroke="#000000" stroke-width="1.0" stroke-linejoin="round" stroke-linecap="butt" d="m316.61783 178.59491l0 0c0 -2.2874146 1.8543091 -4.141739 4.1417236 -4.141739l0 0c1.0984497 0 2.1519165 0.4363556 2.92865 1.213089c0.7767334 0.77671814 1.2130737 1.8301849 1.2130737 2.92865l0 0c0 2.2874146 -1.8543091 4.1417236 -4.1417236 4.1417236l0 0c-2.2874146 0 -4.1417236 -1.8543091 -4.1417236 -4.1417236z" fill-rule="evenodd"/><path fill="#ffffff" d="m288.26248 246.5673l0 0c0 -2.2874146 1.8543091 -4.141739 4.1417236 -4.141739l0 0c1.0984497 0 2.1519165 0.43637085 2.92865 1.213089c0.7767029 0.7767334 1.2130737 1.8302002 1.2130737 2.92865l0 0c0 2.2874146 -1.8543091 4.141739 -4.1417236 4.141739l0 0c-2.2874146 0 -4.1417236 -1.8543243 -4.1417236 -4.141739z" fill-rule="evenodd"/><path stroke="#000000" stroke-width="1.0" stroke-linejoin="round" stroke-linecap="butt" d="m288.26248 246.5673l0 0c0 -2.2874146 1.8543091 -4.141739 4.1417236 -4.141739l0 0c1.0984497 0 2.1519165 0.43637085 2.92865 1.213089c0.7767029 0.7767334 1.2130737 1.8302002 1.2130737 2.92865l0 0c0 2.2874146 -1.8543091 4.141739 -4.1417236 4.141739l0 0c-2.2874146 0 -4.1417236 -1.8543243 -4.1417236 -4.141739z" fill-rule="evenodd"/><path fill="#ffffff" d="m288.26248 111.40203l0 0c0 -2.2874146 1.8543091 -4.1417313 4.1417236 -4.1417313l0 0c1.0984497 0 2.1519165 0.4363556 2.92865 1.2130814c0.7767029 0.77672577 1.2130737 1.8301926 1.2130737 2.92865l0 0c0 2.2874146 -1.8543091 4.1417313 -4.1417236 4.1417313l0 0c-2.2874146 0 -4.1417236 -1.8543167 -4.1417236 -4.1417313z" fill-rule="evenodd"/><path stroke="#000000" stroke-width="1.0" stroke-linejoin="round" stroke-linecap="butt" d="m288.26248 111.40203l0 0c0 -2.2874146 1.8543091 -4.1417313 4.1417236 -4.1417313l0 0c1.0984497 0 2.1519165 0.4363556 2.92865 1.2130814c0.7767029 0.77672577 1.2130737 1.8301926 1.2130737 2.92865l0 0c0 2.2874146 -1.8543091 4.1417313 -4.1417236 4.1417313l0 0c-2.2874146 0 -4.1417236 -1.8543167 -4.1417236 -4.1417313z" fill-rule="evenodd"/><path fill="#000000" fill-opacity="0.0" d="m292.4042 276.83896l0 -26.141724" fill-rule="evenodd"/><path stroke="#000000" stroke-width="2.0" stroke-linejoin="round" stroke-linecap="butt" d="m292.4042 276.83896l0 -14.141754" fill-rule="evenodd"/><path fill="#000000" stroke="#000000" stroke-width="2.0" stroke-linecap="butt" d="m295.70767 262.6972l-3.3034668 -9.076187l-3.3034668 9.076187z" fill-rule="evenodd"/><path fill="#ffffff" d="m260.21844 178.98729l0 0c0 -2.2874146 1.8543091 -4.1417236 4.141754 -4.1417236l0 0c1.0984497 0 2.1519165 0.4363556 2.9286194 1.2130737c0.7767334 0.7767334 1.2131042 1.8302002 1.2131042 2.92865l0 0c0 2.2874146 -1.8543091 4.141739 -4.1417236 4.141739l0 0c-2.287445 0 -4.141754 -1.8543243 -4.141754 -4.141739z" fill-rule="evenodd"/><path stroke="#000000" stroke-width="1.0" stroke-linejoin="round" stroke-linecap="butt" d="m260.21844 178.98729l0 0c0 -2.2874146 1.8543091 -4.1417236 4.141754 -4.1417236l0 0c1.0984497 0 2.1519165 0.4363556 2.9286194 1.2130737c0.7767334 0.7767334 1.2131042 1.8302002 1.2131042 2.92865l0 0c0 2.2874146 -1.8543091 4.141739 -4.1417236 4.141739l0 0c-2.287445 0 -4.141754 -1.8543243 -4.141754 -4.141739z" fill-rule="evenodd"/><path fill="#000000" fill-opacity="0.0" d="m324.90128 178.59491l25.228363 0.5984192" fill-rule="evenodd"/><path stroke="#000000" stroke-width="2.0" stroke-linejoin="round" stroke-linecap="butt" d="m324.90128 178.5949l13.2317505 0.31385803" fill-rule="evenodd"/><path fill="#000000" stroke="#000000" stroke-width="2.0" stroke-linecap="butt" d="m338.05466 182.21129l9.152008 -3.0872955l-8.995331 -3.5177765z" fill-rule="evenodd"/><path fill="#d9ead3" d="m420.9079 121.06306l0 0c0 -5.16346 4.1858215 -9.349266 9.349274 -9.349266l37.395935 0l0 0c2.4795837 0 4.857605 0.98500824 6.6109314 2.7383347c1.7533264 1.7533264 2.7383423 4.1313553 2.7383423 6.6109314l0 115.97863c0 5.163452 -4.1858215 9.349274 -9.349274 9.349274l-37.395935 0c-5.163452 0 -9.349274 -4.1858215 -9.349274 -9.349274z" fill-rule="evenodd"/><path stroke="#274e13" stroke-width="2.0" stroke-linejoin="round" stroke-linecap="butt" d="m420.9079 121.06306l0 0c0 -5.16346 4.1858215 -9.349266 9.349274 -9.349266l37.395935 0l0 0c2.4795837 0 4.857605 0.98500824 6.6109314 2.7383347c1.7533264 1.7533264 2.7383423 4.1313553 2.7383423 6.6109314l0 115.97863c0 5.163452 -4.1858215 9.349274 -9.349274 9.349274l-37.395935 0c-5.163452 0 -9.349274 -4.1858215 -9.349274 -9.349274z" fill-rule="evenodd"/><path fill="#000000" d="m447.3067 169.44424q2.609375 0 4.359375 0.40625q1.75 0.40625 3.109375 1.28125q1.359375 0.875 2.1875 2.09375q0.84375 1.203125 1.25 2.8125q0.40625 1.59375 0.40625 3.609375q0 2.4375 -0.578125 4.375q-0.5625 1.9375 -1.703125 3.3125q-1.015625 1.234375 -2.5 2.03125q-1.46875 0.796875 -3.390625 1.125q-1.65625 0.28125 -4.171875 0.28125l-7.09375 0l0 -1.03125q0.578125 -0.15625 0.90625 -0.328125q0.34375 -0.1875 0.5 -0.5q0.171875 -0.328125 0.21875 -0.8125q0.046875 -0.5 0.046875 -1.25l0 -13.46875q0 -0.734375 -0.046875 -1.234375q-0.03125 -0.5 -0.203125 -0.8125q-0.15625 -0.3125 -0.5 -0.5q-0.328125 -0.203125 -0.921875 -0.359375l0 -1.03125l8.125 0zm-1.609375 19.4375q0.28125 0.046875 1.421875 0.046875q1.71875 0 2.890625 -0.5q0.875 -0.375 1.484375 -1.03125q1.015625 -1.078125 1.53125 -2.796875q0.5625 -1.875 0.5625 -4.578125q0 -2.96875 -0.796875 -4.921875q-0.796875 -1.96875 -2.25 -2.890625q-1.4375 -0.9375 -3.453125 -0.9375q-0.96875 0 -1.390625 0.03125l0 17.578125z" fill-rule="nonzero"/><path fill="#ffffff" d="m473.02966 179.01169l0 0c0 -2.2874146 1.8543091 -4.1417236 4.1417236 -4.1417236l0 0c1.0984497 0 2.1519165 0.4363556 2.92865 1.2130737c0.7767334 0.7767334 1.2130737 1.8302002 1.2130737 2.92865l0 0c0 2.2874146 -1.8543091 4.141739 -4.1417236 4.141739l0 0c-2.2874146 0 -4.1417236 -1.8543243 -4.1417236 -4.141739z" fill-rule="evenodd"/><path stroke="#000000" stroke-width="1.0" stroke-linejoin="round" stroke-linecap="butt" d="m473.02966 179.01169l0 0c0 -2.2874146 1.8543091 -4.1417236 4.1417236 -4.1417236l0 0c1.0984497 0 2.1519165 0.4363556 2.92865 1.2130737c0.7767334 0.7767334 1.2130737 1.8302002 1.2130737 2.92865l0 0c0 2.2874146 -1.8543091 4.141739 -4.1417236 4.141739l0 0c-2.2874146 0 -4.1417236 -1.8543243 -4.1417236 -4.141739z" fill-rule="evenodd"/><path fill="#ffffff" d="m444.6743 246.98409l0 0c0 -2.2874146 1.8543396 -4.1417236 4.141754 -4.1417236l0 0c1.0984497 0 2.1519165 0.4363556 2.92865 1.213089c0.7767029 0.77671814 1.2130737 1.8301849 1.2130737 2.9286346l0 0c0 2.2874298 -1.8543091 4.141739 -4.1417236 4.141739l0 0c-2.2874146 0 -4.141754 -1.8543091 -4.141754 -4.141739z" fill-rule="evenodd"/><path stroke="#000000" stroke-width="1.0" stroke-linejoin="round" stroke-linecap="butt" d="m444.6743 246.98409l0 0c0 -2.2874146 1.8543396 -4.1417236 4.141754 -4.1417236l0 0c1.0984497 0 2.1519165 0.4363556 2.92865 1.213089c0.7767029 0.77671814 1.2130737 1.8301849 1.2130737 2.9286346l0 0c0 2.2874298 -1.8543091 4.141739 -4.1417236 4.141739l0 0c-2.2874146 0 -4.141754 -1.8543091 -4.141754 -4.141739z" fill-rule="evenodd"/><path fill="#ffffff" d="m444.6743 111.81882l0 0c0 -2.2874146 1.8543396 -4.1417313 4.141754 -4.1417313l0 0c1.0984497 0 2.1519165 0.4363556 2.92865 1.2130814c0.7767029 0.77672577 1.2130737 1.8301926 1.2130737 2.92865l0 0c0 2.2874146 -1.8543091 4.1417313 -4.1417236 4.1417313l0 0c-2.2874146 0 -4.141754 -1.8543167 -4.141754 -4.1417313z" fill-rule="evenodd"/><path stroke="#000000" stroke-width="1.0" stroke-linejoin="round" stroke-linecap="butt" d="m444.6743 111.81882l0 0c0 -2.2874146 1.8543396 -4.1417313 4.141754 -4.1417313l0 0c1.0984497 0 2.1519165 0.4363556 2.92865 1.2130814c0.7767029 0.77672577 1.2130737 1.8301926 1.2130737 2.92865l0 0c0 2.2874146 -1.8543091 4.1417313 -4.1417236 4.1417313l0 0c-2.2874146 0 -4.141754 -1.8543167 -4.141754 -4.1417313z" fill-rule="evenodd"/><path fill="#ffffff" d="m416.63028 179.40408l0 0c0 -2.2874146 1.8543091 -4.141739 4.1417236 -4.141739l0 0c1.0984802 0 2.151947 0.4363556 2.92865 1.213089c0.7767334 0.77671814 1.2131042 1.8301849 1.2131042 2.92865l0 0c0 2.2874146 -1.8543396 4.1417236 -4.141754 4.1417236l0 0c-2.2874146 0 -4.1417236 -1.8543091 -4.1417236 -4.1417236z" fill-rule="evenodd"/><path stroke="#000000" stroke-width="1.0" stroke-linejoin="round" stroke-linecap="butt" d="m416.63028 179.40408l0 0c0 -2.2874146 1.8543091 -4.141739 4.1417236 -4.141739l0 0c1.0984802 0 2.151947 0.4363556 2.92865 1.213089c0.7767334 0.77671814 1.2131042 1.8301849 1.2131042 2.92865l0 0c0 2.2874146 -1.8543396 4.1417236 -4.141754 4.1417236l0 0c-2.2874146 0 -4.1417236 -1.8543091 -4.1417236 -4.1417236z" fill-rule="evenodd"/><path fill="#cfe2f3" d="m411.98138 42.68619l0 0c0 -20.343212 16.491425 -36.834644 36.834656 -36.834644l0 0c9.7691345 0 19.138184 3.8807817 26.04602 10.788618c6.907837 6.907835 10.788605 16.276873 10.788605 26.046026l0 0c0 20.343212 -16.491425 36.834644 -36.834625 36.834644l0 0c-20.343231 0 -36.834656 -16.491432 -36.834656 -36.834644z" fill-rule="evenodd"/><path stroke="#000000" stroke-width="1.0" stroke-linejoin="round" stroke-linecap="butt" d="m411.98138 42.68619l0 0c0 -20.343212 16.491425 -36.834644 36.834656 -36.834644l0 0c9.7691345 0 19.138184 3.8807817 26.04602 10.788618c6.907837 6.907835 10.788605 16.276873 10.788605 26.046026l0 0c0 20.343212 -16.491425 36.834644 -36.834625 36.834644l0 0c-20.343231 0 -36.834656 -16.491432 -36.834656 -36.834644z" fill-rule="evenodd"/><path fill="#000000" d="m445.76135 45.069942l0 3.21875q0 0.609375 0.03125 0.9375q0.03125 0.328125 0.125 0.53125q0.09375 0.1875 0.21875 0.3125q0.140625 0.125 0.375 0.234375q0.25 0.09375 0.65625 0.140625l0 0.78125l-6.46875 0l0 -0.78125q0.484375 -0.078125 0.765625 -0.203125q0.296875 -0.125 0.4375 -0.375q0.140625 -0.25 0.171875 -0.625q0.046875 -0.390625 0.046875 -0.953125l0 -3.21875l-3.171875 -6.703125q-0.40625 -0.859375 -0.640625 -1.265625q-0.28125 -0.484375 -0.46875 -0.6875q-0.1875 -0.21875 -0.359375 -0.296875q-0.15625 -0.078125 -0.453125 -0.109375l0 -0.78125l6.25 0l0 0.78125q-0.90625 0.109375 -0.90625 0.890625q0 0.296875 0.140625 0.71875q0.15625 0.421875 0.484375 1.125l1.96875 4.40625l2.15625 -4.296875q0.3125 -0.640625 0.4375 -1.0625q0.125 -0.4375 0.125 -0.859375q0 -0.421875 -0.25 -0.65625q-0.234375 -0.25 -0.671875 -0.265625l0 -0.78125l4.703125 0l0 0.78125q-0.3125 0.0625 -0.53125 0.1875q-0.203125 0.125 -0.453125 0.390625q-0.234375 0.265625 -0.578125 0.796875q-0.34375 0.515625 -0.78125 1.359375l-3.359375 6.328125z" fill-rule="nonzero"/><path fill="#000000" d="m455.9723 60.351192q-1.21875 0 -2.046875 -0.53125q-0.8125 -0.546875 -1.265625 -1.734375q-0.4375 -1.203125 -0.4375 -3.09375q0 -1.796875 0.453125 -3.03125q0.453125 -1.234375 1.328125 -1.875q0.875 -0.65625 2.109375 -0.65625q1.921875 0 2.859375 1.3125q0.953125 1.3125 0.953125 4.0q0 2.765625 -1.0 4.1875q-1.0 1.421875 -2.953125 1.421875zm-1.375 -5.59375q0 1.71875 0.140625 2.734375q0.15625 1.015625 0.484375 1.5q0.328125 0.484375 0.875 0.484375q0.296875 0 0.515625 -0.140625q0.234375 -0.15625 0.40625 -0.453125q0.171875 -0.3125 0.296875 -0.828125q0.125 -0.515625 0.171875 -1.265625q0.0625 -0.765625 0.0625 -1.703125q0 -1.40625 -0.109375 -2.359375q-0.09375 -0.953125 -0.296875 -1.46875q-0.1875 -0.515625 -0.453125 -0.734375q-0.265625 -0.21875 -0.625 -0.21875q-0.40625 0 -0.703125 0.28125q-0.28125 0.265625 -0.453125 0.828125q-0.171875 0.546875 -0.25 1.390625q-0.0625 0.828125 -0.0625 1.953125z" fill-rule="nonzero"/><path fill="#000000" fill-opacity="0.0" d="m448.81604 107.677086l0 -28.157486" fill-rule="evenodd"/><path stroke="#000000" stroke-width="2.0" stroke-linejoin="round" stroke-linecap="butt" d="m448.81604 107.677086l0 -16.157486" fill-rule="evenodd"/><path fill="#000000" stroke="#000000" stroke-width="2.0" stroke-linecap="butt" d="m452.1195 91.5196l-3.3034668 -9.076195l-3.3034668 9.076195z" fill-rule="evenodd"/><path fill="#d9ead3" d="m522.82654 121.06306l0 0c0 -5.16346 4.185791 -9.349266 9.349243 -9.349266l37.395996 0l0 0c2.4795532 0 4.857605 0.98500824 6.610901 2.7383347c1.7533569 1.7533264 2.7383423 4.1313553 2.7383423 6.6109314l0 115.97863c0 5.163452 -4.185791 9.349274 -9.349243 9.349274l-37.395996 0c-5.163452 0 -9.349243 -4.1858215 -9.349243 -9.349274z" fill-rule="evenodd"/><path stroke="#274e13" stroke-width="2.0" stroke-linejoin="round" stroke-linecap="butt" d="m522.82654 121.06306l0 0c0 -5.16346 4.185791 -9.349266 9.349243 -9.349266l37.395996 0l0 0c2.4795532 0 4.857605 0.98500824 6.610901 2.7383347c1.7533569 1.7533264 2.7383423 4.1313553 2.7383423 6.6109314l0 115.97863c0 5.163452 -4.185791 9.349274 -9.349243 9.349274l-37.395996 0c-5.163452 0 -9.349243 -4.1858215 -9.349243 -9.349274z" fill-rule="evenodd"/><path fill="#000000" d="m549.22534 169.44424q2.609375 0 4.359375 0.40625q1.75 0.40625 3.109375 1.28125q1.359375 0.875 2.1875 2.09375q0.84375 1.203125 1.25 2.8125q0.40625 1.59375 0.40625 3.609375q0 2.4375 -0.578125 4.375q-0.5625 1.9375 -1.703125 3.3125q-1.015625 1.234375 -2.5 2.03125q-1.46875 0.796875 -3.390625 1.125q-1.65625 0.28125 -4.171875 0.28125l-7.09375 0l0 -1.03125q0.578125 -0.15625 0.90625 -0.328125q0.34375 -0.1875 0.5 -0.5q0.171875 -0.328125 0.21875 -0.8125q0.046875 -0.5 0.046875 -1.25l0 -13.46875q0 -0.734375 -0.046875 -1.234375q-0.03125 -0.5 -0.203125 -0.8125q-0.15625 -0.3125 -0.5 -0.5q-0.328125 -0.203125 -0.921875 -0.359375l0 -1.03125l8.125 0zm-1.609375 19.4375q0.28125 0.046875 1.421875 0.046875q1.71875 0 2.890625 -0.5q0.875 -0.375 1.484375 -1.03125q1.015625 -1.078125 1.53125 -2.796875q0.5625 -1.875 0.5625 -4.578125q0 -2.96875 -0.796875 -4.921875q-0.796875 -1.96875 -2.25 -2.890625q-1.4375 -0.9375 -3.453125 -0.9375q-0.96875 0 -1.390625 0.03125l0 17.578125z" fill-rule="nonzero"/><path fill="#ffffff" d="m574.9483 178.8582l0 0c0 -2.2874146 1.8543091 -4.1417236 4.1417236 -4.1417236l0 0c1.0984497 0 2.1519165 0.4363556 2.92865 1.213089c0.7767334 0.77671814 1.2130737 1.8301849 1.2130737 2.9286346l0 0c0 2.2874298 -1.8543091 4.141739 -4.1417236 4.141739l0 0c-2.2874146 0 -4.1417236 -1.8543091 -4.1417236 -4.141739z" fill-rule="evenodd"/><path stroke="#000000" stroke-width="1.0" stroke-linejoin="round" stroke-linecap="butt" d="m574.9483 178.8582l0 0c0 -2.2874146 1.8543091 -4.1417236 4.1417236 -4.1417236l0 0c1.0984497 0 2.1519165 0.4363556 2.92865 1.213089c0.7767334 0.77671814 1.2130737 1.8301849 1.2130737 2.9286346l0 0c0 2.2874298 -1.8543091 4.141739 -4.1417236 4.141739l0 0c-2.2874146 0 -4.1417236 -1.8543091 -4.1417236 -4.141739z" fill-rule="evenodd"/><path fill="#ffffff" d="m546.59296 246.98409l0 0c0 -2.2874146 1.8543091 -4.1417236 4.1417236 -4.1417236l0 0c1.0984497 0 2.1519165 0.4363556 2.92865 1.213089c0.7767334 0.77671814 1.2130737 1.8301849 1.2130737 2.9286346l0 0c0 2.2874298 -1.8543091 4.141739 -4.1417236 4.141739l0 0c-2.2874146 0 -4.1417236 -1.8543091 -4.1417236 -4.141739z" fill-rule="evenodd"/><path stroke="#000000" stroke-width="1.0" stroke-linejoin="round" stroke-linecap="butt" d="m546.59296 246.98409l0 0c0 -2.2874146 1.8543091 -4.1417236 4.1417236 -4.1417236l0 0c1.0984497 0 2.1519165 0.4363556 2.92865 1.213089c0.7767334 0.77671814 1.2130737 1.8301849 1.2130737 2.9286346l0 0c0 2.2874298 -1.8543091 4.141739 -4.1417236 4.141739l0 0c-2.2874146 0 -4.1417236 -1.8543091 -4.1417236 -4.141739z" fill-rule="evenodd"/><path fill="#ffffff" d="m546.59296 111.81882l0 0c0 -2.2874146 1.8543091 -4.1417313 4.1417236 -4.1417313l0 0c1.0984497 0 2.1519165 0.4363556 2.92865 1.2130814c0.7767334 0.77672577 1.2130737 1.8301926 1.2130737 2.92865l0 0c0 2.2874146 -1.8543091 4.1417313 -4.1417236 4.1417313l0 0c-2.2874146 0 -4.1417236 -1.8543167 -4.1417236 -4.1417313z" fill-rule="evenodd"/><path stroke="#000000" stroke-width="1.0" stroke-linejoin="round" stroke-linecap="butt" d="m546.59296 111.81882l0 0c0 -2.2874146 1.8543091 -4.1417313 4.1417236 -4.1417313l0 0c1.0984497 0 2.1519165 0.4363556 2.92865 1.2130814c0.7767334 0.77672577 1.2130737 1.8301926 1.2130737 2.92865l0 0c0 2.2874146 -1.8543091 4.1417313 -4.1417236 4.1417313l0 0c-2.2874146 0 -4.1417236 -1.8543167 -4.1417236 -4.1417313z" fill-rule="evenodd"/><path fill="#ffffff" d="m518.5489 179.40408l0 0c0 -2.2874146 1.8543701 -4.141739 4.1417847 -4.141739l0 0c1.0984497 0 2.1519165 0.4363556 2.92865 1.213089c0.77667236 0.77671814 1.2130737 1.8301849 1.2130737 2.92865l0 0c0 2.2874146 -1.8543091 4.1417236 -4.1417236 4.1417236l0 0c-2.2874146 0 -4.1417847 -1.8543091 -4.1417847 -4.1417236z" fill-rule="evenodd"/><path stroke="#000000" stroke-width="1.0" stroke-linejoin="round" stroke-linecap="butt" d="m518.5489 179.40408l0 0c0 -2.2874146 1.8543701 -4.141739 4.1417847 -4.141739l0 0c1.0984497 0 2.1519165 0.4363556 2.92865 1.213089c0.77667236 0.77671814 1.2130737 1.8301849 1.2130737 2.92865l0 0c0 2.2874146 -1.8543091 4.1417236 -4.1417236 4.1417236l0 0c-2.2874146 0 -4.1417847 -1.8543091 -4.1417847 -4.1417236z" fill-rule="evenodd"/><path fill="#cfe2f3" d="m513.9 42.68619l0 0c0 -20.343212 16.491455 -36.834644 36.834656 -36.834644l0 0c9.769165 0 19.138184 3.8807817 26.04602 10.788618c6.907837 6.907835 10.788635 16.276873 10.788635 26.046026l0 0c0 20.343212 -16.491455 36.834644 -36.834656 36.834644l0 0c-20.3432 0 -36.834656 -16.491432 -36.834656 -36.834644z" fill-rule="evenodd"/><path stroke="#000000" stroke-width="1.0" stroke-linejoin="round" stroke-linecap="butt" d="m513.9 42.68619l0 0c0 -20.343212 16.491455 -36.834644 36.834656 -36.834644l0 0c9.769165 0 19.138184 3.8807817 26.04602 10.788618c6.907837 6.907835 10.788635 16.276873 10.788635 26.046026l0 0c0 20.343212 -16.491455 36.834644 -36.834656 36.834644l0 0c-20.3432 0 -36.834656 -16.491432 -36.834656 -36.834644z" fill-rule="evenodd"/><path fill="#000000" d="m547.68 45.069942l0 3.21875q0 0.609375 0.03125 0.9375q0.03125 0.328125 0.125 0.53125q0.09375 0.1875 0.21875 0.3125q0.140625 0.125 0.375 0.234375q0.25 0.09375 0.65625 0.140625l0 0.78125l-6.46875 0l0 -0.78125q0.484375 -0.078125 0.765625 -0.203125q0.296875 -0.125 0.4375 -0.375q0.140625 -0.25 0.171875 -0.625q0.046875 -0.390625 0.046875 -0.953125l0 -3.21875l-3.171875 -6.703125q-0.40625 -0.859375 -0.640625 -1.265625q-0.28125 -0.484375 -0.46875 -0.6875q-0.1875 -0.21875 -0.359375 -0.296875q-0.15625 -0.078125 -0.453125 -0.109375l0 -0.78125l6.25 0l0 0.78125q-0.90625 0.109375 -0.90625 0.890625q0 0.296875 0.140625 0.71875q0.15625 0.421875 0.484375 1.125l1.96875 4.40625l2.15625 -4.296875q0.3125 -0.640625 0.4375 -1.0625q0.125 -0.4375 0.125 -0.859375q0 -0.421875 -0.25 -0.65625q-0.234375 -0.25 -0.671875 -0.265625l0 -0.78125l4.703125 0l0 0.78125q-0.3125 0.0625 -0.53125 0.1875q-0.203125 0.125 -0.453125 0.390625q-0.234375 0.265625 -0.578125 0.796875q-0.34375 0.515625 -0.78125 1.359375l-3.359375 6.328125z" fill-rule="nonzero"/><path fill="#000000" d="m559.5159 58.038692q0 0.453125 0.046875 0.6875q0.0625 0.234375 0.1875 0.375q0.125 0.140625 0.359375 0.234375q0.25 0.078125 0.609375 0.125q0.375 0.03125 0.984375 0.046875l0 0.71875l-6.75 0l0 -0.71875q0.875 -0.03125 1.234375 -0.09375q0.375 -0.078125 0.5625 -0.203125q0.203125 -0.140625 0.296875 -0.375q0.09375 -0.25 0.09375 -0.796875l0 -5.640625q0 -0.328125 -0.125 -0.46875q-0.125 -0.140625 -0.328125 -0.140625q-0.203125 0 -0.5625 0.1875q-0.34375 0.171875 -1.15625 0.734375l-0.484375 -0.828125l4.078125 -2.453125l1.0 0q-0.046875 0.75 -0.046875 2.078125l0 6.53125z" fill-rule="nonzero"/><path fill="#000000" fill-opacity="0.0" d="m550.7347 107.677086l0 -28.157486" fill-rule="evenodd"/><path stroke="#000000" stroke-width="2.0" stroke-linejoin="round" stroke-linecap="butt" d="m550.7347 107.677086l0 -16.157486" fill-rule="evenodd"/><path fill="#000000" stroke="#000000" stroke-width="2.0" stroke-linecap="butt" d="m554.03815 91.5196l-3.3034668 -9.076195l-3.3034668 9.076195z" fill-rule="evenodd"/><path fill="#000000" fill-opacity="0.0" d="m481.3131 179.01169l37.228333 0.3779602" fill-rule="evenodd"/><path stroke="#000000" stroke-width="2.0" stroke-linejoin="round" stroke-linecap="butt" d="m481.3131 179.01169l25.228973 0.25613403" fill-rule="evenodd"/><path fill="#000000" stroke="#000000" stroke-width="2.0" stroke-linecap="butt" d="m506.50854 182.57112l9.109253 -3.2111664l-9.042175 -3.3954315z" fill-rule="evenodd"/><path fill="#d9ead3" d="m675.3407 121.06306l0 0c0 -5.16346 4.185791 -9.349266 9.349243 -9.349266l37.395996 0l0 0c2.4795532 0 4.857605 0.98500824 6.610901 2.7383347c1.7533569 1.7533264 2.7383423 4.1313553 2.7383423 6.6109314l0 115.97863c0 5.163452 -4.185791 9.349274 -9.349243 9.349274l-37.395996 0c-5.163452 0 -9.349243 -4.1858215 -9.349243 -9.349274z" fill-rule="evenodd"/><path stroke="#274e13" stroke-width="2.0" stroke-linejoin="round" stroke-linecap="butt" d="m675.3407 121.06306l0 0c0 -5.16346 4.185791 -9.349266 9.349243 -9.349266l37.395996 0l0 0c2.4795532 0 4.857605 0.98500824 6.610901 2.7383347c1.7533569 1.7533264 2.7383423 4.1313553 2.7383423 6.6109314l0 115.97863c0 5.163452 -4.185791 9.349274 -9.349243 9.349274l-37.395996 0c-5.163452 0 -9.349243 -4.1858215 -9.349243 -9.349274z" fill-rule="evenodd"/><path fill="#000000" d="m701.7395 169.44424q2.609375 0 4.359375 0.40625q1.75 0.40625 3.109375 1.28125q1.359375 0.875 2.1875 2.09375q0.84375 1.203125 1.25 2.8125q0.40625 1.59375 0.40625 3.609375q0 2.4375 -0.578125 4.375q-0.5625 1.9375 -1.703125 3.3125q-1.015625 1.234375 -2.5 2.03125q-1.46875 0.796875 -3.390625 1.125q-1.65625 0.28125 -4.171875 0.28125l-7.09375 0l0 -1.03125q0.578125 -0.15625 0.90625 -0.328125q0.34375 -0.1875 0.5 -0.5q0.171875 -0.328125 0.21875 -0.8125q0.046875 -0.5 0.046875 -1.25l0 -13.46875q0 -0.734375 -0.046875 -1.234375q-0.03125 -0.5 -0.203125 -0.8125q-0.15625 -0.3125 -0.5 -0.5q-0.328125 -0.203125 -0.921875 -0.359375l0 -1.03125l8.125 0zm-1.609375 19.4375q0.28125 0.046875 1.421875 0.046875q1.71875 0 2.890625 -0.5q0.875 -0.375 1.484375 -1.03125q1.015625 -1.078125 1.53125 -2.796875q0.5625 -1.875 0.5625 -4.578125q0 -2.96875 -0.796875 -4.921875q-0.796875 -1.96875 -2.25 -2.890625q-1.4375 -0.9375 -3.453125 -0.9375q-0.96875 0 -1.390625 0.03125l0 17.578125z" fill-rule="nonzero"/><path fill="#ffffff" d="m727.46246 179.01169l0 0c0 -2.2874146 1.8543091 -4.1417236 4.1417236 -4.1417236l0 0c1.0984497 0 2.1519165 0.4363556 2.92865 1.2130737c0.7767334 0.7767334 1.2130737 1.8302002 1.2130737 2.92865l0 0c0 2.2874146 -1.8543091 4.141739 -4.1417236 4.141739l0 0c-2.2874146 0 -4.1417236 -1.8543243 -4.1417236 -4.141739z" fill-rule="evenodd"/><path stroke="#000000" stroke-width="1.0" stroke-linejoin="round" stroke-linecap="butt" d="m727.46246 179.01169l0 0c0 -2.2874146 1.8543091 -4.1417236 4.1417236 -4.1417236l0 0c1.0984497 0 2.1519165 0.4363556 2.92865 1.2130737c0.7767334 0.7767334 1.2130737 1.8302002 1.2130737 2.92865l0 0c0 2.2874146 -1.8543091 4.141739 -4.1417236 4.141739l0 0c-2.2874146 0 -4.1417236 -1.8543243 -4.1417236 -4.141739z" fill-rule="evenodd"/><path fill="#ffffff" d="m699.1071 246.98409l0 0c0 -2.2874146 1.8543091 -4.1417236 4.1417236 -4.1417236l0 0c1.0984497 0 2.1519165 0.4363556 2.92865 1.213089c0.7767334 0.77671814 1.2130737 1.8301849 1.2130737 2.9286346l0 0c0 2.2874298 -1.8543091 4.141739 -4.1417236 4.141739l0 0c-2.2874146 0 -4.1417236 -1.8543091 -4.1417236 -4.141739z" fill-rule="evenodd"/><path stroke="#000000" stroke-width="1.0" stroke-linejoin="round" stroke-linecap="butt" d="m699.1071 246.98409l0 0c0 -2.2874146 1.8543091 -4.1417236 4.1417236 -4.1417236l0 0c1.0984497 0 2.1519165 0.4363556 2.92865 1.213089c0.7767334 0.77671814 1.2130737 1.8301849 1.2130737 2.9286346l0 0c0 2.2874298 -1.8543091 4.141739 -4.1417236 4.141739l0 0c-2.2874146 0 -4.1417236 -1.8543091 -4.1417236 -4.141739z" fill-rule="evenodd"/><path fill="#ffffff" d="m699.1071 111.81882l0 0c0 -2.2874146 1.8543091 -4.1417313 4.1417236 -4.1417313l0 0c1.0984497 0 2.1519165 0.4363556 2.92865 1.2130814c0.7767334 0.77672577 1.2130737 1.8301926 1.2130737 2.92865l0 0c0 2.2874146 -1.8543091 4.1417313 -4.1417236 4.1417313l0 0c-2.2874146 0 -4.1417236 -1.8543167 -4.1417236 -4.1417313z" fill-rule="evenodd"/><path stroke="#000000" stroke-width="1.0" stroke-linejoin="round" stroke-linecap="butt" d="m699.1071 111.81882l0 0c0 -2.2874146 1.8543091 -4.1417313 4.1417236 -4.1417313l0 0c1.0984497 0 2.1519165 0.4363556 2.92865 1.2130814c0.7767334 0.77672577 1.2130737 1.8301926 1.2130737 2.92865l0 0c0 2.2874146 -1.8543091 4.1417313 -4.1417236 4.1417313l0 0c-2.2874146 0 -4.1417236 -1.8543167 -4.1417236 -4.1417313z" fill-rule="evenodd"/><path fill="#ffffff" d="m671.0631 179.40408l0 0c0 -2.2874146 1.8543091 -4.141739 4.1417236 -4.141739l0 0c1.0984497 0 2.1519165 0.4363556 2.92865 1.213089c0.7767334 0.77671814 1.2130737 1.8301849 1.2130737 2.92865l0 0c0 2.2874146 -1.8543091 4.1417236 -4.1417236 4.1417236l0 0c-2.2874146 0 -4.1417236 -1.8543091 -4.1417236 -4.1417236z" fill-rule="evenodd"/><path stroke="#000000" stroke-width="1.0" stroke-linejoin="round" stroke-linecap="butt" d="m671.0631 179.40408l0 0c0 -2.2874146 1.8543091 -4.141739 4.1417236 -4.141739l0 0c1.0984497 0 2.1519165 0.4363556 2.92865 1.213089c0.7767334 0.77671814 1.2130737 1.8301849 1.2130737 2.92865l0 0c0 2.2874146 -1.8543091 4.1417236 -4.1417236 4.1417236l0 0c-2.2874146 0 -4.1417236 -1.8543091 -4.1417236 -4.1417236z" fill-rule="evenodd"/><path fill="#cfe2f3" d="m666.4142 42.68619l0 0c0 -20.343212 16.491455 -36.834644 36.834656 -36.834644l0 0c9.769165 0 19.138184 3.8807817 26.04602 10.788618c6.907837 6.907835 10.788635 16.276873 10.788635 26.046026l0 0c0 20.343212 -16.491455 36.834644 -36.834656 36.834644l0 0c-20.3432 0 -36.834656 -16.491432 -36.834656 -36.834644z" fill-rule="evenodd"/><path stroke="#000000" stroke-width="1.0" stroke-linejoin="round" stroke-linecap="butt" d="m666.4142 42.68619l0 0c0 -20.343212 16.491455 -36.834644 36.834656 -36.834644l0 0c9.769165 0 19.138184 3.8807817 26.04602 10.788618c6.907837 6.907835 10.788635 16.276873 10.788635 26.046026l0 0c0 20.343212 -16.491455 36.834644 -36.834656 36.834644l0 0c-20.3432 0 -36.834656 -16.491432 -36.834656 -36.834644z" fill-rule="evenodd"/><path fill="#000000" d="m699.81915 45.069942l0 3.21875q0 0.609375 0.03125 0.9375q0.03125 0.328125 0.125 0.53125q0.09375 0.1875 0.21875 0.3125q0.140625 0.125 0.375 0.234375q0.25 0.09375 0.65625 0.140625l0 0.78125l-6.46875 0l0 -0.78125q0.484375 -0.078125 0.765625 -0.203125q0.296875 -0.125 0.4375 -0.375q0.140625 -0.25 0.171875 -0.625q0.046875 -0.390625 0.046875 -0.953125l0 -3.21875l-3.171875 -6.703125q-0.40625 -0.859375 -0.640625 -1.265625q-0.28125 -0.484375 -0.46875 -0.6875q-0.1875 -0.21875 -0.359375 -0.296875q-0.15625 -0.078125 -0.453125 -0.109375l0 -0.78125l6.25 0l0 0.78125q-0.90625 0.109375 -0.90625 0.890625q0 0.296875 0.140625 0.71875q0.15625 0.421875 0.484375 1.125l1.96875 4.40625l2.15625 -4.296875q0.3125 -0.640625 0.4375 -1.0625q0.125 -0.4375 0.125 -0.859375q0 -0.421875 -0.25 -0.65625q-0.234375 -0.25 -0.671875 -0.265625l0 -0.78125l4.703125 0l0 0.78125q-0.3125 0.0625 -0.53125 0.1875q-0.203125 0.125 -0.453125 0.390625q-0.234375 0.265625 -0.578125 0.796875q-0.34375 0.515625 -0.78125 1.359375l-3.359375 6.328125z" fill-rule="nonzero"/><path fill="#000000" d="m708.3582 60.226192l0 -0.515625q0.328125 -0.0625 0.515625 -0.140625q0.1875 -0.09375 0.28125 -0.25q0.09375 -0.171875 0.109375 -0.421875q0.03125 -0.265625 0.03125 -0.640625l0 -7.78125l-0.625 0q-0.46875 0 -0.71875 0.109375q-0.25 0.109375 -0.4375 0.34375q-0.1875 0.234375 -0.328125 0.625q-0.125 0.390625 -0.203125 0.75l-1.078125 0l0 -2.75l9.203125 0l0 2.75l-1.078125 0q-0.140625 -0.53125 -0.234375 -0.78125q-0.078125 -0.25 -0.1875 -0.421875q-0.109375 -0.1875 -0.234375 -0.296875q-0.109375 -0.125 -0.25 -0.1875q-0.125 -0.078125 -0.328125 -0.109375q-0.1875 -0.03125 -0.515625 -0.03125l-0.5625 0l0 7.78125q0 0.421875 0.015625 0.640625q0.03125 0.203125 0.09375 0.34375q0.0625 0.125 0.15625 0.21875q0.09375 0.078125 0.25 0.140625q0.15625 0.0625 0.4375 0.109375l0 0.515625l-4.3125 0z" fill-rule="nonzero"/><path fill="#000000" fill-opacity="0.0" d="m703.24884 107.677086l0 -28.157486" fill-rule="evenodd"/><path stroke="#000000" stroke-width="2.0" stroke-linejoin="round" stroke-linecap="butt" d="m703.24884 107.677086l0 -16.157486" fill-rule="evenodd"/><path fill="#000000" stroke="#000000" stroke-width="2.0" stroke-linecap="butt" d="m706.5523 91.5196l-3.3034668 -9.076195l-3.3034668 9.076195z" fill-rule="evenodd"/><path fill="#000000" fill-opacity="0.0" d="m174.98265 178.7968l24.314957 0" fill-rule="evenodd"/><path stroke="#000000" stroke-width="2.0" stroke-linejoin="round" stroke-linecap="butt" d="m174.98265 178.7968l12.314957 0" fill-rule="evenodd"/><path fill="#000000" stroke="#000000" stroke-width="2.0" stroke-linecap="butt" d="m187.2976 182.10025l9.076202 -3.3034515l-9.076202 -3.3034668z" fill-rule="evenodd"/><path fill="#000000" d="m199.2963 178.7968l0 0c0 -2.2874146 1.8543243 -4.141739 4.141739 -4.141739l0 0c1.0984497 0 2.1519165 0.43637085 2.92865 1.213089c0.77671814 0.7767334 1.213089 1.8301849 1.213089 2.92865l0 0c0 2.2874146 -1.8543243 4.1417236 -4.141739 4.1417236l0 0c-2.2874146 0 -4.141739 -1.8543091 -4.141739 -4.1417236z" fill-rule="evenodd"/><path stroke="#000000" stroke-width="2.0" stroke-linejoin="round" stroke-linecap="butt" d="m199.2963 178.7968l0 0c0 -2.2874146 1.8543243 -4.141739 4.141739 -4.141739l0 0c1.0984497 0 2.1519165 0.43637085 2.92865 1.213089c0.77671814 0.7767334 1.213089 1.8301849 1.213089 2.92865l0 0c0 2.2874146 -1.8543243 4.1417236 -4.141739 4.1417236l0 0c-2.2874146 0 -4.141739 -1.8543091 -4.141739 -4.1417236z" fill-rule="evenodd"/><path fill="#000000" d="m214.07094 178.7968l0 0c0 -2.2874146 1.8543243 -4.141739 4.141739 -4.141739l0 0c1.0984497 0 2.1519165 0.43637085 2.9286346 1.213089c0.7767334 0.7767334 1.213089 1.8301849 1.213089 2.92865l0 0c0 2.2874146 -1.8543091 4.1417236 -4.1417236 4.1417236l0 0c-2.2874146 0 -4.141739 -1.8543091 -4.141739 -4.1417236z" fill-rule="evenodd"/><path stroke="#000000" stroke-width="2.0" stroke-linejoin="round" stroke-linecap="butt" d="m214.07094 178.7968l0 0c0 -2.2874146 1.8543243 -4.141739 4.141739 -4.141739l0 0c1.0984497 0 2.1519165 0.43637085 2.9286346 1.213089c0.7767334 0.7767334 1.213089 1.8301849 1.213089 2.92865l0 0c0 2.2874146 -1.8543091 4.1417236 -4.1417236 4.1417236l0 0c-2.2874146 0 -4.141739 -1.8543091 -4.141739 -4.1417236z" fill-rule="evenodd"/><path fill="#000000" d="m229.04433 178.7968l0 0c0 -2.2874146 1.8543243 -4.141739 4.141739 -4.141739l0 0c1.0984497 0 2.1519165 0.43637085 2.92865 1.213089c0.77671814 0.7767334 1.213089 1.8301849 1.213089 2.92865l0 0c0 2.2874146 -1.8543243 4.1417236 -4.141739 4.1417236l0 0c-2.2874146 0 -4.141739 -1.8543091 -4.141739 -4.1417236z" fill-rule="evenodd"/><path stroke="#000000" stroke-width="2.0" stroke-linejoin="round" stroke-linecap="butt" d="m229.04433 178.7968l0 0c0 -2.2874146 1.8543243 -4.141739 4.141739 -4.141739l0 0c1.0984497 0 2.1519165 0.43637085 2.92865 1.213089c0.77671814 0.7767334 1.213089 1.8301849 1.213089 2.92865l0 0c0 2.2874146 -1.8543243 4.1417236 -4.141739 4.1417236l0 0c-2.2874146 0 -4.141739 -1.8543091 -4.141739 -4.1417236z" fill-rule="evenodd"/><path fill="#000000" fill-opacity="0.0" d="m237.3278 178.7968l22.897629 0.1889801" fill-rule="evenodd"/><path stroke="#000000" stroke-width="2.0" stroke-linejoin="round" stroke-linecap="butt" d="m237.32779 178.7968l10.898056 0.0899353" fill-rule="evenodd"/><path fill="#000000" stroke="#000000" stroke-width="2.0" stroke-linecap="butt" d="m248.19858 182.1901l9.103149 -3.2284546l-9.0486145 -3.3782501z" fill-rule="evenodd"/><path fill="#ea9999" d="m350.13123 114.23669l0 0c0 -3.8530197 3.1235046 -6.9765167 6.976532 -6.9765167l27.905212 0l0 0c1.8503113 0 3.624817 0.7350235 4.9331665 2.043373c1.3083496 1.3083572 2.0433655 3.0828552 2.0433655 4.9331436l0 129.92099c0 3.8530273 -3.1235046 6.9765167 -6.976532 6.9765167l-27.905212 0c-3.8530273 0 -6.976532 -3.1234894 -6.976532 -6.9765167z" fill-rule="evenodd"/><path stroke="#cc0000" stroke-width="1.0" stroke-linejoin="round" stroke-linecap="butt" d="m350.13123 114.23669l0 0c0 -3.8530197 3.1235046 -6.9765167 6.976532 -6.9765167l27.905212 0l0 0c1.8503113 0 3.624817 0.7350235 4.9331665 2.043373c1.3083496 1.3083572 2.0433655 3.0828552 2.0433655 4.9331436l0 129.92099c0 3.8530273 -3.1235046 6.9765167 -6.976532 6.9765167l-27.905212 0c-3.8530273 0 -6.976532 -3.1234894 -6.976532 -6.9765167z" fill-rule="evenodd"/><path fill="#000000" fill-opacity="0.0" d="m391.9895 179.19717l24.629913 0.22047424" fill-rule="evenodd"/><path stroke="#000000" stroke-width="2.0" stroke-linejoin="round" stroke-linecap="butt" d="m391.9895 179.19717l12.630402 0.11306763" fill-rule="evenodd"/><path fill="#000000" stroke="#000000" stroke-width="2.0" stroke-linecap="butt" d="m404.59033 182.61357l9.105408 -3.2220917l-9.046265 -3.3845673z" fill-rule="evenodd"/><path fill="#000000" fill-opacity="0.0" d="m583.23175 178.8582l26.70868 0" fill-rule="evenodd"/><path stroke="#000000" stroke-width="2.0" stroke-linejoin="round" stroke-linecap="butt" d="m583.23175 178.8582l14.708679 0" fill-rule="evenodd"/><path fill="#000000" stroke="#000000" stroke-width="2.0" stroke-linecap="butt" d="m597.9404 182.16167l9.076172 -3.3034668l-9.076172 -3.3034515z" fill-rule="evenodd"/><path fill="#000000" d="m609.94305 178.8582l0 0c0 -2.2874146 1.8543091 -4.1417236 4.1417236 -4.1417236l0 0c1.0984497 0 2.1519165 0.4363556 2.92865 1.213089c0.7767334 0.77671814 1.2130737 1.8301849 1.2130737 2.9286346l0 0c0 2.2874298 -1.8543091 4.141739 -4.1417236 4.141739l0 0c-2.2874146 0 -4.1417236 -1.8543091 -4.1417236 -4.141739z" fill-rule="evenodd"/><path stroke="#000000" stroke-width="2.0" stroke-linejoin="round" stroke-linecap="butt" d="m609.94305 178.8582l0 0c0 -2.2874146 1.8543091 -4.1417236 4.1417236 -4.1417236l0 0c1.0984497 0 2.1519165 0.4363556 2.92865 1.213089c0.7767334 0.77671814 1.2130737 1.8301849 1.2130737 2.9286346l0 0c0 2.2874298 -1.8543091 4.141739 -4.1417236 4.141739l0 0c-2.2874146 0 -4.1417236 -1.8543091 -4.1417236 -4.141739z" fill-rule="evenodd"/><path fill="#000000" d="m624.71765 178.8582l0 0c0 -2.2874146 1.8543701 -4.1417236 4.1417847 -4.1417236l0 0c1.0984497 0 2.1519165 0.4363556 2.92865 1.213089c0.77667236 0.77671814 1.2130737 1.8301849 1.2130737 2.9286346l0 0c0 2.2874298 -1.8543091 4.141739 -4.1417236 4.141739l0 0c-2.2874146 0 -4.1417847 -1.8543091 -4.1417847 -4.141739z" fill-rule="evenodd"/><path stroke="#000000" stroke-width="2.0" stroke-linejoin="round" stroke-linecap="butt" d="m624.71765 178.8582l0 0c0 -2.2874146 1.8543701 -4.1417236 4.1417847 -4.1417236l0 0c1.0984497 0 2.1519165 0.4363556 2.92865 1.213089c0.77667236 0.77671814 1.2130737 1.8301849 1.2130737 2.9286346l0 0c0 2.2874298 -1.8543091 4.141739 -4.1417236 4.141739l0 0c-2.2874146 0 -4.1417847 -1.8543091 -4.1417847 -4.141739z" fill-rule="evenodd"/><path fill="#000000" d="m639.6911 178.8582l0 0c0 -2.2874146 1.8543091 -4.1417236 4.1417236 -4.1417236l0 0c1.0984497 0 2.1519165 0.4363556 2.92865 1.213089c0.7767334 0.77671814 1.2130737 1.8301849 1.2130737 2.9286346l0 0c0 2.2874298 -1.8543091 4.141739 -4.1417236 4.141739l0 0c-2.2874146 0 -4.1417236 -1.8543091 -4.1417236 -4.141739z" fill-rule="evenodd"/><path stroke="#000000" stroke-width="2.0" stroke-linejoin="round" stroke-linecap="butt" d="m639.6911 178.8582l0 0c0 -2.2874146 1.8543091 -4.1417236 4.1417236 -4.1417236l0 0c1.0984497 0 2.1519165 0.4363556 2.92865 1.213089c0.7767334 0.77671814 1.2130737 1.8301849 1.2130737 2.9286346l0 0c0 2.2874298 -1.8543091 4.141739 -4.1417236 4.141739l0 0c-2.2874146 0 -4.1417236 -1.8543091 -4.1417236 -4.141739z" fill-rule="evenodd"/><path fill="#000000" fill-opacity="0.0" d="m647.97455 178.8582l23.086609 0.53544617" fill-rule="evenodd"/><path stroke="#000000" stroke-width="2.0" stroke-linejoin="round" stroke-linecap="butt" d="m647.97455 178.8582l11.089844 0.25720215" fill-rule="evenodd"/><path fill="#000000" stroke="#000000" stroke-width="2.0" stroke-linecap="butt" d="m658.9878 182.41798l9.15033 -3.0921326l-8.997131 -3.5130157z" fill-rule="evenodd"/></g></svg>