<svg version="1.1" viewBox="0.0 0.0 892.8057742782153 732.7979002624672" fill="none" stroke="none" stroke-linecap="square" stroke-miterlimit="10" xmlns:xlink="http://www.w3.org/1999/xlink" xmlns="http://www.w3.org/2000/svg"><clipPath id="p.0"><path d="m0 0l892.8058 0l0 732.7979l-892.8058 0l0 -732.7979z" clip-rule="nonzero"/></clipPath><g clip-path="url(#p.0)"><path fill="#000000" fill-opacity="0.0" d="m0 0l892.8058 0l0 732.7979l-892.8058 0z" fill-rule="evenodd"/><path fill="#d9ead3" d="m89.50131 235.05661l0 0c0 -41.02066 33.253807 -74.27446 74.274445 -74.27446l558.1283 0c19.698792 0 38.59076 7.8253174 52.51996 21.754486c13.929138 13.929153 21.754456 32.82115 21.754456 52.519974l0 297.0889c0 41.02063 -33.253784 74.274414 -74.274414 74.274414l-558.1283 0c-41.020638 0 -74.274445 -33.253784 -74.274445 -74.274414z" fill-rule="evenodd"/><path stroke="#274e13" stroke-width="3.0" stroke-linejoin="round" stroke-linecap="butt" d="m89.50131 235.05661l0 0c0 -41.02066 33.253807 -74.27446 74.274445 -74.27446l558.1283 0c19.698792 0 38.59076 7.8253174 52.51996 21.754486c13.929138 13.929153 21.754456 32.82115 21.754456 52.519974l0 297.0889c0 41.02063 -33.253784 74.274414 -74.274414 74.274414l-558.1283 0c-41.020638 0 -74.274445 -33.253784 -74.274445 -74.274414z" fill-rule="evenodd"/><path fill="#000000" fill-opacity="0.0" d="m1.6666666 248.35695l83.68504 0" fill-rule="evenodd"/><path stroke="#000000" stroke-width="2.0" stroke-linejoin="round" stroke-linecap="butt" d="m1.6666666 248.35695l71.68504 0" fill-rule="evenodd"/><path fill="#000000" stroke="#000000" stroke-width="2.0" stroke-linecap="butt" d="m73.35171 251.66042l9.076195 -3.3034668l-9.076195 -3.3034515z" fill-rule="evenodd"/><path fill="#000000" fill-opacity="0.0" d="m10.254593 197.08136l60.598427 0l0 51.27559l-60.598427 0z" fill-rule="evenodd"/><path fill="#000000" d="m21.848343 225.16824q0.296875 1.390625 0.96875 2.078125q0.6875 0.6875 2.015625 0.6875q0.6875 0 1.234375 -0.234375q0.5625 -0.234375 0.890625 -0.75q0.34375 -0.53125 0.34375 -1.3125q0 -0.71875 -0.28125 -1.25q-0.265625 -0.546875 -0.859375 -1.015625q-0.59375 -0.484375 -1.671875 -1.03125q-0.90625 -0.453125 -1.65625 -0.9375q-0.734375 -0.5 -1.25 -1.09375q-0.515625 -0.59375 -0.8125 -1.296875q-0.28125 -0.703125 -0.28125 -1.578125q0 -1.4375 0.703125 -2.4375q0.71875 -1.015625 2.078125 -1.53125q1.359375 -0.53125 3.140625 -0.53125q1.03125 0 1.984375 0.109375q0.953125 0.109375 2.171875 0.390625l0 3.40625l-1.609375 0q-0.21875 -0.921875 -0.5625 -1.46875q-0.34375 -0.546875 -0.859375 -0.796875q-0.515625 -0.265625 -1.3125 -0.265625q-0.65625 0 -1.1875 0.234375q-0.53125 0.234375 -0.84375 0.703125q-0.296875 0.453125 -0.296875 1.109375q0 0.6875 0.265625 1.1875q0.265625 0.484375 0.875 0.96875q0.625 0.46875 1.8125 1.078125q1.4375 0.75 2.265625 1.46875q0.828125 0.71875 1.21875 1.578125q0.390625 0.84375 0.390625 1.96875q0 1.4375 -0.671875 2.5q-0.65625 1.0625 -1.9375 1.640625q-1.28125 0.5625 -2.953125 0.5625q-1.1875 0 -2.484375 -0.140625q-1.296875 -0.125 -2.4375 -0.390625l0 -3.609375l1.609375 0z" fill-rule="nonzero"/><path fill="#000000" d="m37.586624 237.18387q-0.6875 0.578125 -1.25 0.828125q-0.5625 0.234375 -1.1875 0.234375q-1.15625 0 -1.734375 -0.625q-0.578125 -0.640625 -0.578125 -1.90625l0 -4.375l-0.96875 0l0 -0.53125q0.46875 -0.078125 0.6875 -0.234375q0.234375 -0.15625 0.359375 -0.421875q0.125 -0.265625 0.203125 -0.6875q0.078125 -0.421875 0.109375 -1.046875l1.875 0l0 1.953125l2.21875 0l0 0.96875l-2.21875 0l0 3.53125q0 0.875 0.078125 1.296875q0.078125 0.421875 0.265625 0.625q0.203125 0.203125 0.5 0.203125q0.21875 0 0.390625 -0.03125q0.171875 -0.046875 0.359375 -0.140625q0.1875 -0.109375 0.40625 -0.296875l0.484375 0.65625zm4.375 -2.515625l-3.703125 0l0 -1.640625l3.703125 0l0 1.640625zm7.109375 1.265625q0 0.453125 0.046875 0.6875q0.0625 0.234375 0.1875 0.375q0.125 0.140625 0.359375 0.234375q0.25 0.078125 0.609375 0.125q0.375 0.03125 0.984375 0.046875l0 0.71875l-6.75 0l0 -0.71875q0.875 -0.03125 1.234375 -0.09375q0.375 -0.078125 0.5625 -0.203125q0.203125 -0.140625 0.296875 -0.375q0.09375 -0.25 0.09375 -0.796875l0 -5.640625q0 -0.328125 -0.125 -0.46875q-0.125 -0.140625 -0.328125 -0.140625q-0.203125 0 -0.5625 0.1875q-0.34375 0.171875 -1.15625 0.734375l-0.484375 -0.828125l4.078125 -2.453125l1.0 0q-0.046875 0.75 -0.046875 2.078125l0 6.53125z" fill-rule="nonzero"/><path fill="#000000" fill-opacity="0.0" d="m1.6666666 522.6667l83.68504 0" fill-rule="evenodd"/><path stroke="#000000" stroke-width="2.0" stroke-linejoin="round" stroke-linecap="butt" d="m1.6666666 522.6667l71.68504 0" fill-rule="evenodd"/><path fill="#000000" stroke="#000000" stroke-width="2.0" stroke-linecap="butt" d="m73.35171 525.97015l9.076195 -3.3034668l-9.076195 -3.3034668z" fill-rule="evenodd"/><path fill="#000000" fill-opacity="0.0" d="m10.254593 471.39108l60.598427 0l0 51.275604l-60.598427 0z" fill-rule="evenodd"/><path fill="#000000" d="m34.192093 500.4936q0 0.890625 0.078125 1.234375q0.078125 0.328125 0.3125 0.5625q0.234375 0.21875 0.859375 0.359375l0 0.78125l-6.125 0l0 -0.78125q0.6875 -0.171875 0.875 -0.34375q0.203125 -0.171875 0.28125 -0.5q0.09375 -0.328125 0.09375 -1.3125l0 -4.703125l-5.296875 0l0 4.703125q0 0.40625 0.015625 0.765625q0.03125 0.34375 0.09375 0.5625q0.078125 0.21875 0.203125 0.375q0.140625 0.15625 0.375 0.265625q0.234375 0.109375 0.578125 0.1875l0 0.78125l-6.15625 0l0 -0.78125q0.4375 -0.109375 0.6875 -0.234375q0.25 -0.140625 0.375 -0.375q0.125 -0.25 0.15625 -0.609375q0.03125 -0.375 0.03125 -0.9375l0 -10.109375q0 -0.546875 -0.03125 -0.921875q-0.015625 -0.375 -0.140625 -0.609375q-0.125 -0.234375 -0.375 -0.375q-0.25 -0.15625 -0.703125 -0.265625l0 -0.78125l6.15625 0l0 0.78125q-0.625 0.171875 -0.859375 0.390625q-0.21875 0.203125 -0.3125 0.546875q-0.09375 0.34375 -0.09375 1.25l0 3.90625l5.296875 0l0 -3.90625q0 -0.890625 -0.078125 -1.234375q-0.078125 -0.34375 -0.3125 -0.5625q-0.21875 -0.21875 -0.859375 -0.390625l0 -0.78125l6.125 0l0 0.78125q-0.515625 0.140625 -0.75 0.296875q-0.234375 0.15625 -0.34375 0.40625q-0.09375 0.234375 -0.125 0.546875q-0.03125 0.296875 -0.03125 0.9375l0 10.09375z" fill-rule="nonzero"/><path fill="#000000" d="m42.59053 511.4936q-0.6875 0.578125 -1.25 0.828125q-0.5625 0.234375 -1.1875 0.234375q-1.15625 0 -1.734375 -0.625q-0.578125 -0.640625 -0.578125 -1.90625l0 -4.375l-0.96875 0l0 -0.53125q0.46875 -0.078125 0.6875 -0.234375q0.234375 -0.15625 0.359375 -0.421875q0.125 -0.265625 0.203125 -0.6875q0.078125 -0.421875 0.109375 -1.046875l1.875 0l0 1.953125l2.21875 0l0 0.96875l-2.21875 0l0 3.53125q0 0.875 0.078125 1.296875q0.078125 0.421875 0.265625 0.625q0.203125 0.203125 0.5 0.203125q0.21875 0 0.390625 -0.03125q0.171875 -0.046875 0.359375 -0.140625q0.1875 -0.109375 0.40625 -0.296875l0.484375 0.65625zm4.375 -2.515625l-3.703125 0l0 -1.640625l3.703125 0l0 1.640625zm7.109375 1.265625q0 0.453125 0.046875 0.6875q0.0625 0.234375 0.1875 0.375q0.125 0.140625 0.359375 0.234375q0.25 0.078125 0.609375 0.125q0.375 0.03125 0.984375 0.046875l0 0.71875l-6.75 0l0 -0.71875q0.875 -0.03125 1.234375 -0.09375q0.375 -0.078125 0.5625 -0.203125q0.203125 -0.140625 0.296875 -0.375q0.09375 -0.25 0.09375 -0.796875l0 -5.640625q0 -0.328125 -0.125 -0.46875q-0.125 -0.140625 -0.328125 -0.140625q-0.203125 0 -0.5625 0.1875q-0.34375 0.171875 -1.15625 0.734375l-0.484375 -0.828125l4.078125 -2.453125l1.0 0q-0.046875 0.75 -0.046875 2.078125l0 6.53125z" fill-rule="nonzero"/><path fill="#cfe2f3" d="m134.25197 684.28345l0 0c0 -20.3432 16.49144 -36.834656 36.83464 -36.834656l0 0c9.769165 0 19.138199 3.8807983 26.046036 10.788635c6.907837 6.907837 10.78862 16.276855 10.78862 26.04602l0 0c0 20.3432 -16.49144 36.834656 -36.834656 36.834656l0 0c-20.3432 0 -36.83464 -16.491455 -36.83464 -36.834656z" fill-rule="evenodd"/><path stroke="#000000" stroke-width="1.0" stroke-linejoin="round" stroke-linecap="butt" d="m134.25197 684.28345l0 0c0 -20.3432 16.49144 -36.834656 36.83464 -36.834656l0 0c9.769165 0 19.138199 3.8807983 26.046036 10.788635c6.907837 6.907837 10.78862 16.276855 10.78862 26.04602l0 0c0 20.3432 -16.49144 36.834656 -36.834656 36.834656l0 0c-20.3432 0 -36.83464 -16.491455 -36.83464 -36.834656z" fill-rule="evenodd"/><path fill="#000000" d="m167.81903 676.8235l0 0.78125q-0.546875 0.046875 -0.78125 0.25q-0.21875 0.1875 -0.21875 0.59375q0 0.1875 0.078125 0.453125q0.078125 0.25 0.265625 0.609375q0.1875 0.34375 0.640625 1.09375l1.078125 1.8125l1.421875 -2.09375q0.46875 -0.6875 0.625 -1.046875q0.15625 -0.375 0.15625 -0.796875q0 -0.375 -0.265625 -0.59375q-0.25 -0.234375 -0.703125 -0.28125l0 -0.78125l4.84375 0l0 0.78125q-0.34375 0.09375 -0.65625 0.3125q-0.296875 0.203125 -0.703125 0.671875q-0.390625 0.46875 -1.265625 1.734375l-2.53125 3.609375l3.8125 6.296875q0.203125 0.3125 0.40625 0.625q0.203125 0.3125 0.390625 0.5625q0.203125 0.234375 0.34375 0.359375q0.15625 0.109375 0.296875 0.171875q0.140625 0.0625 0.296875 0.09375l0 0.78125l-6.515625 0l0 -0.78125q0.515625 -0.046875 0.75 -0.234375q0.25 -0.1875 0.25 -0.609375q0 -0.140625 -0.046875 -0.296875q-0.03125 -0.171875 -0.140625 -0.40625q-0.09375 -0.234375 -0.203125 -0.40625q-0.09375 -0.1875 -0.390625 -0.703125l-1.625 -2.6875l-1.921875 2.828125q-0.21875 0.34375 -0.375 0.625q-0.140625 0.28125 -0.203125 0.515625q-0.0625 0.234375 -0.0625 0.546875q0 0.3125 0.25 0.546875q0.25 0.234375 0.71875 0.28125l0 0.78125l-4.84375 0l0 -0.78125q0.390625 -0.109375 0.703125 -0.34375q0.328125 -0.25 0.703125 -0.703125q0.390625 -0.453125 1.046875 -1.421875l3.0625 -4.375l-2.953125 -4.921875q-0.484375 -0.796875 -0.828125 -1.3125q-0.34375 -0.53125 -0.578125 -0.796875q-0.234375 -0.28125 -0.421875 -0.390625q-0.171875 -0.125 -0.421875 -0.171875l0 -0.78125l6.515625 0z" fill-rule="nonzero"/><path fill="#000000" d="m181.60419 700.886q-0.6875 0.578125 -1.25 0.828125q-0.5625 0.234375 -1.1875 0.234375q-1.15625 0 -1.734375 -0.625q-0.578125 -0.640625 -0.578125 -1.90625l0 -4.375l-0.96875 0l0 -0.53125q0.46875 -0.078125 0.6875 -0.234375q0.234375 -0.15625 0.359375 -0.421875q0.125 -0.265625 0.203125 -0.6875q0.078125 -0.421875 0.109375 -1.046875l1.875 0l0 1.953125l2.21875 0l0 0.96875l-2.21875 0l0 3.53125q0 0.875 0.078125 1.296875q0.078125 0.421875 0.265625 0.625q0.203125 0.203125 0.5 0.203125q0.21875 0 0.390625 -0.03125q0.171875 -0.046875 0.359375 -0.140625q0.1875 -0.109375 0.40625 -0.296875l0.484375 0.65625z" fill-rule="nonzero"/><path fill="#d9d2e9" d="m151.9685 443.11548l38.23622 0l0 33.5748l-38.23622 0z" fill-rule="evenodd"/><path stroke="#000000" stroke-width="1.0" stroke-linejoin="round" stroke-linecap="butt" d="m151.9685 443.11548l38.23622 0l0 33.5748l-38.23622 0z" fill-rule="evenodd"/><path fill="#000000" d="m171.06993 456.7135l-2.921875 10.171875l-1.46875 0l-2.65625 -9.890625q-0.171875 -0.625 -0.3125 -1.015625q-0.125 -0.390625 -0.265625 -0.609375q-0.140625 -0.21875 -0.296875 -0.328125q-0.15625 -0.125 -0.453125 -0.203125l0 -0.453125l3.890625 0l0 0.453125q-0.5625 0.109375 -0.78125 0.328125q-0.21875 0.21875 -0.21875 0.609375q0 0.3125 0.078125 0.75q0.078125 0.4375 0.21875 1.0l1.84375 7.1875l2.921875 -10.328125l1.53125 0l2.375 10.34375l2.15625 -6.953125q0.390625 -1.265625 0.390625 -1.796875q0 -0.5625 -0.234375 -0.796875q-0.234375 -0.25 -0.765625 -0.34375l0 -0.453125l3.59375 0l0 0.453125q-0.28125 0.09375 -0.453125 0.203125q-0.15625 0.109375 -0.3125 0.3125q-0.140625 0.1875 -0.328125 0.609375q-0.171875 0.40625 -0.40625 1.09375l-3.3125 9.828125l-1.296875 0l-2.515625 -10.171875z" fill-rule="nonzero"/><path fill="#d9d2e9" d="m190.20473 443.11548l38.23622 0l0 33.5748l-38.23622 0z" fill-rule="evenodd"/><path stroke="#000000" stroke-width="1.0" stroke-linejoin="round" stroke-linecap="butt" d="m190.20473 443.11548l38.23622 0l0 33.5748l-38.23622 0z" fill-rule="evenodd"/><path fill="#000000" d="m209.30615 456.7135l-2.921875 10.171875l-1.46875 0l-2.65625 -9.890625q-0.171875 -0.625 -0.3125 -1.015625q-0.125 -0.390625 -0.265625 -0.609375q-0.140625 -0.21875 -0.296875 -0.328125q-0.15625 -0.125 -0.453125 -0.203125l0 -0.453125l3.890625 0l0 0.453125q-0.5625 0.109375 -0.78125 0.328125q-0.21875 0.21875 -0.21875 0.609375q0 0.3125 0.078125 0.75q0.078125 0.4375 0.21875 1.0l1.84375 7.1875l2.921875 -10.328125l1.53125 0l2.375 10.34375l2.15625 -6.953125q0.390625 -1.265625 0.390625 -1.796875q0 -0.5625 -0.234375 -0.796875q-0.234375 -0.25 -0.765625 -0.34375l0 -0.453125l3.59375 0l0 0.453125q-0.28125 0.09375 -0.453125 0.203125q-0.15625 0.109375 -0.3125 0.3125q-0.140625 0.1875 -0.328125 0.609375q-0.171875 0.40625 -0.40625 1.09375l-3.3125 9.828125l-1.296875 0l-2.515625 -10.171875z" fill-rule="nonzero"/><path fill="#fff2cc" d="m151.96846 409.54068l76.47244 0l0 33.5748l-76.47244 0z" fill-rule="evenodd"/><path stroke="#000000" stroke-width="1.0" stroke-linejoin="round" stroke-linecap="butt" d="m151.96846 409.54068l76.47244 0l0 33.5748l-76.47244 0z" fill-rule="evenodd"/><path fill="#000000" d="m196.18906 424.1337l0 1.703125l-4.5625 0q1.5 0.859375 2.4375 2.171875q0.953125 1.296875 0.953125 2.765625q0 1.90625 -1.5 3.171875q-1.5 1.25 -3.421875 1.25q-2.25 0 -3.890625 -1.765625q-1.640625 -1.78125 -1.640625 -4.140625q0 -1.671875 0.859375 -2.9375q0.859375 -1.28125 2.0 -1.75q1.140625 -0.46875 3.09375 -0.46875l5.671875 0zm-5.34375 1.703125l-0.421875 0q-1.75 0 -2.796875 0.875q-1.046875 0.875 -1.046875 2.734375q0 1.984375 1.09375 3.5q1.109375 1.515625 2.578125 1.515625q1.1875 0 1.953125 -1.140625q0.78125 -1.140625 0.78125 -2.75q0 -2.578125 -2.140625 -4.734375z" fill-rule="nonzero"/><path fill="#000000" fill-opacity="0.0" d="m93.63517 248.35695l601.8582 0l0 25.16536" fill-rule="evenodd"/><path stroke="#000000" stroke-width="2.0" stroke-linejoin="round" stroke-linecap="butt" d="m93.63517 248.35695l601.8582 0l0 13.1653595" fill-rule="evenodd"/><path fill="#000000" stroke="#000000" stroke-width="2.0" stroke-linecap="butt" d="m692.19 261.5223l3.3034058 9.076202l3.3034668 -9.076202z" fill-rule="evenodd"/><path fill="#000000" fill-opacity="0.0" d="m93.63517 248.35695l697.5433 0" fill-rule="evenodd"/><path stroke="#000000" stroke-width="2.0" stroke-linejoin="round" stroke-linecap="butt" d="m93.63517 248.35695l685.5433 0" fill-rule="evenodd"/><path fill="#000000" stroke="#000000" stroke-width="2.0" stroke-linecap="butt" d="m779.17847 251.66042l9.076233 -3.3034668l-9.076233 -3.3034515z" fill-rule="evenodd"/><path fill="#f4cccc" d="m164.08606 247.88962l0 0c0 -14.159363 11.478439 -25.637802 25.637802 -25.637802l0 0c6.7995605 0 13.320633 2.701126 18.128647 7.50914c4.808029 4.808014 7.50914 11.329102 7.50914 18.128662l0 0c0 14.159363 -11.478424 25.637787 -25.637787 25.637787l0 0c-14.159363 0 -25.637802 -11.478424 -25.637802 -25.637787z" fill-rule="evenodd"/><path stroke="#000000" stroke-width="2.0" stroke-linejoin="round" stroke-linecap="butt" d="m164.08606 247.88962l0 0c0 -14.159363 11.478439 -25.637802 25.637802 -25.637802l0 0c6.7995605 0 13.320633 2.701126 18.128647 7.50914c4.808029 4.808014 7.50914 11.329102 7.50914 18.128662l0 0c0 14.159363 -11.478424 25.637787 -25.637787 25.637787l0 0c-14.159363 0 -25.637802 -11.478424 -25.637802 -25.637787z" fill-rule="evenodd"/><path fill="#434343" d="m177.09044 241.60179l6.3591156 -6.359131l6.7551727 6.7551727l6.7551575 -6.7551727l6.359131 6.359131l-6.7551727 6.7551575l6.7551727 6.7551727l-6.359131 6.359131l-6.7551575 -6.7551727l-6.7551727 6.7551727l-6.3591156 -6.359131l6.7551575 -6.7551727z" fill-rule="evenodd"/><path fill="#000000" fill-opacity="0.0" d="m164.08661 364.3399l38.23622 0l0 54.519684l-38.23622 0z" fill-rule="evenodd"/><path fill="#000000" d="m174.07098 395.59863q0.546875 -0.15625 0.765625 -0.359375q0.21875 -0.203125 0.3125 -0.546875q0.09375 -0.359375 0.09375 -1.25l0 -7.21875l-1.421875 0l0 -0.8125q0.546875 -0.078125 0.765625 -0.171875q0.21875 -0.109375 0.359375 -0.28125q0.140625 -0.171875 0.21875 -0.4375q0.078125 -0.265625 0.109375 -0.6875q0.1875 -2.109375 1.5625 -3.1875q1.390625 -1.09375 3.90625 -1.09375q1.0 0 1.796875 0.15625l0 2.390625l-1.59375 0q-0.203125 -0.640625 -0.453125 -0.9375q-0.234375 -0.3125 -0.625 -0.3125q-0.5 0 -0.765625 0.34375q-0.265625 0.328125 -0.375 0.953125q-0.09375 0.609375 -0.09375 1.71875l0 0.890625l2.265625 0l0 1.46875l-2.265625 0l0 7.21875q0 0.875 0.09375 1.234375q0.09375 0.359375 0.328125 0.578125q0.25 0.203125 0.859375 0.34375l0 0.78125l-5.84375 0l0 -0.78125z" fill-rule="nonzero"/><path fill="#000000" d="m186.93036 404.44238q-0.6875 0.578125 -1.25 0.828125q-0.5625 0.234375 -1.1875 0.234375q-1.15625 0 -1.734375 -0.625q-0.578125 -0.640625 -0.578125 -1.90625l0 -4.375l-0.96875 0l0 -0.53125q0.46875 -0.078125 0.6875 -0.234375q0.234375 -0.15625 0.359375 -0.421875q0.125 -0.265625 0.203125 -0.6875q0.078125 -0.421875 0.109375 -1.046875l1.875 0l0 1.953125l2.21875 0l0 0.96875l-2.21875 0l0 3.53125q0 0.875 0.078125 1.296875q0.078125 0.421875 0.265625 0.625q0.203125 0.203125 0.5 0.203125q0.21875 0 0.390625 -0.03125q0.171875 -0.046875 0.359375 -0.140625q0.1875 -0.109375 0.40625 -0.296875l0.484375 0.65625z" fill-rule="nonzero"/><path fill="#d9d2e9" d="m268.65878 443.11548l38.236237 0l0 33.5748l-38.236237 0z" fill-rule="evenodd"/><path stroke="#000000" stroke-width="1.0" stroke-linejoin="round" stroke-linecap="butt" d="m268.65878 443.11548l38.236237 0l0 33.5748l-38.236237 0z" fill-rule="evenodd"/><path fill="#000000" d="m287.76022 456.7135l-2.921875 10.171875l-1.46875 0l-2.65625 -9.890625q-0.171875 -0.625 -0.3125 -1.015625q-0.125 -0.390625 -0.265625 -0.609375q-0.140625 -0.21875 -0.296875 -0.328125q-0.15625 -0.125 -0.453125 -0.203125l0 -0.453125l3.890625 0l0 0.453125q-0.5625 0.109375 -0.78125 0.328125q-0.21875 0.21875 -0.21875 0.609375q0 0.3125 0.078125 0.75q0.078125 0.4375 0.21875 1.0l1.84375 7.1875l2.921875 -10.328125l1.53125 0l2.375 10.34375l2.15625 -6.953125q0.390625 -1.265625 0.390625 -1.796875q0 -0.5625 -0.234375 -0.796875q-0.234375 -0.25 -0.765625 -0.34375l0 -0.453125l3.59375 0l0 0.453125q-0.28125 0.09375 -0.453125 0.203125q-0.15625 0.109375 -0.3125 0.3125q-0.140625 0.1875 -0.328125 0.609375q-0.171875 0.40625 -0.40625 1.09375l-3.3125 9.828125l-1.296875 0l-2.515625 -10.171875z" fill-rule="nonzero"/><path fill="#d9d2e9" d="m306.89502 443.11548l38.236206 0l0 33.5748l-38.236206 0z" fill-rule="evenodd"/><path stroke="#000000" stroke-width="1.0" stroke-linejoin="round" stroke-linecap="butt" d="m306.89502 443.11548l38.236206 0l0 33.5748l-38.236206 0z" fill-rule="evenodd"/><path fill="#000000" d="m325.99643 456.7135l-2.921875 10.171875l-1.46875 0l-2.65625 -9.890625q-0.171875 -0.625 -0.3125 -1.015625q-0.125 -0.390625 -0.265625 -0.609375q-0.140625 -0.21875 -0.296875 -0.328125q-0.15625 -0.125 -0.453125 -0.203125l0 -0.453125l3.890625 0l0 0.453125q-0.5625 0.109375 -0.78125 0.328125q-0.21875 0.21875 -0.21875 0.609375q0 0.3125 0.078125 0.75q0.078125 0.4375 0.21875 1.0l1.84375 7.1875l2.921875 -10.328125l1.53125 0l2.375 10.34375l2.15625 -6.953125q0.390625 -1.265625 0.390625 -1.796875q0 -0.5625 -0.234375 -0.796875q-0.234375 -0.25 -0.765625 -0.34375l0 -0.453125l3.59375 0l0 0.453125q-0.28125 0.09375 -0.453125 0.203125q-0.15625 0.109375 -0.3125 0.3125q-0.140625 0.1875 -0.328125 0.609375q-0.171875 0.40625 -0.40625 1.09375l-3.3125 9.828125l-1.296875 0l-2.515625 -10.171875z" fill-rule="nonzero"/><path fill="#fff2cc" d="m268.65875 409.54068l76.47244 0l0 33.5748l-76.47244 0z" fill-rule="evenodd"/><path stroke="#000000" stroke-width="1.0" stroke-linejoin="round" stroke-linecap="butt" d="m268.65875 409.54068l76.47244 0l0 33.5748l-76.47244 0z" fill-rule="evenodd"/><path fill="#000000" d="m312.87933 424.1337l0 1.703125l-4.5625 0q1.5 0.859375 2.4375 2.171875q0.953125 1.296875 0.953125 2.765625q0 1.90625 -1.5 3.171875q-1.5 1.25 -3.421875 1.25q-2.25 0 -3.890625 -1.765625q-1.640625 -1.78125 -1.640625 -4.140625q0 -1.671875 0.859375 -2.9375q0.859375 -1.28125 2.0 -1.75q1.140625 -0.46875 3.09375 -0.46875l5.671875 0zm-5.34375 1.703125l-0.421875 0q-1.75 0 -2.796875 0.875q-1.046875 0.875 -1.046875 2.734375q0 1.984375 1.09375 3.5q1.109375 1.515625 2.578125 1.515625q1.1875 0 1.953125 -1.140625q0.78125 -1.140625 0.78125 -2.75q0 -2.578125 -2.140625 -4.734375z" fill-rule="nonzero"/><path fill="#d9d2e9" d="m408.16666 443.11548l38.236237 0l0 33.5748l-38.236237 0z" fill-rule="evenodd"/><path stroke="#000000" stroke-width="1.0" stroke-linejoin="round" stroke-linecap="butt" d="m408.16666 443.11548l38.236237 0l0 33.5748l-38.236237 0z" fill-rule="evenodd"/><path fill="#000000" d="m427.2681 456.7135l-2.921875 10.171875l-1.46875 0l-2.65625 -9.890625q-0.171875 -0.625 -0.3125 -1.015625q-0.125 -0.390625 -0.265625 -0.609375q-0.140625 -0.21875 -0.296875 -0.328125q-0.15625 -0.125 -0.453125 -0.203125l0 -0.453125l3.890625 0l0 0.453125q-0.5625 0.109375 -0.78125 0.328125q-0.21875 0.21875 -0.21875 0.609375q0 0.3125 0.078125 0.75q0.078125 0.4375 0.21875 1.0l1.84375 7.1875l2.921875 -10.328125l1.53125 0l2.375 10.34375l2.15625 -6.953125q0.390625 -1.265625 0.390625 -1.796875q0 -0.5625 -0.234375 -0.796875q-0.234375 -0.25 -0.765625 -0.34375l0 -0.453125l3.59375 0l0 0.453125q-0.28125 0.09375 -0.453125 0.203125q-0.15625 0.109375 -0.3125 0.3125q-0.140625 0.1875 -0.328125 0.609375q-0.171875 0.40625 -0.40625 1.09375l-3.3125 9.828125l-1.296875 0l-2.515625 -10.171875z" fill-rule="nonzero"/><path fill="#d9d2e9" d="m446.4029 443.11548l38.236206 0l0 33.5748l-38.236206 0z" fill-rule="evenodd"/><path stroke="#000000" stroke-width="1.0" stroke-linejoin="round" stroke-linecap="butt" d="m446.4029 443.11548l38.236206 0l0 33.5748l-38.236206 0z" fill-rule="evenodd"/><path fill="#000000" d="m465.5043 456.7135l-2.921875 10.171875l-1.46875 0l-2.65625 -9.890625q-0.171875 -0.625 -0.3125 -1.015625q-0.125 -0.390625 -0.265625 -0.609375q-0.140625 -0.21875 -0.296875 -0.328125q-0.15625 -0.125 -0.453125 -0.203125l0 -0.453125l3.890625 0l0 0.453125q-0.5625 0.109375 -0.78125 0.328125q-0.21875 0.21875 -0.21875 0.609375q0 0.3125 0.078125 0.75q0.078125 0.4375 0.21875 1.0l1.84375 7.1875l2.921875 -10.328125l1.53125 0l2.375 10.34375l2.15625 -6.953125q0.390625 -1.265625 0.390625 -1.796875q0 -0.5625 -0.234375 -0.796875q-0.234375 -0.25 -0.765625 -0.34375l0 -0.453125l3.59375 0l0 0.453125q-0.28125 0.09375 -0.453125 0.203125q-0.15625 0.109375 -0.3125 0.3125q-0.140625 0.1875 -0.328125 0.609375q-0.171875 0.40625 -0.40625 1.09375l-3.3125 9.828125l-1.296875 0l-2.515625 -10.171875z" fill-rule="nonzero"/><path fill="#fff2cc" d="m408.16663 409.54068l76.47244 0l0 33.5748l-76.47244 0z" fill-rule="evenodd"/><path stroke="#000000" stroke-width="1.0" stroke-linejoin="round" stroke-linecap="butt" d="m408.16663 409.54068l76.47244 0l0 33.5748l-76.47244 0z" fill-rule="evenodd"/><path fill="#000000" d="m423.60205 424.24307q0.578125 -0.09375 0.9375 -0.328125q0.375 -0.234375 0.578125 -0.59375q0.203125 -0.375 0.3125 -0.921875q0.125 -0.5625 0.25 -1.625l1.671875 0l0 2.890625l3.78125 0l0 1.1875l-3.78125 0l0 5.203125q0 1.140625 0.09375 1.8125q0.09375 0.671875 0.34375 1.0625q0.265625 0.375 0.59375 0.546875q0.328125 0.15625 0.84375 0.15625q0.46875 0 0.875 -0.1875q0.40625 -0.203125 0.8125 -0.5625l0.53125 0.640625q-0.84375 0.796875 -1.59375 1.171875q-0.734375 0.359375 -1.53125 0.359375q-1.515625 0 -2.25 -0.890625q-0.734375 -0.90625 -0.734375 -2.8125l0 -6.5l-1.734375 0l0 -0.609375zm15.589844 8.953125l-0.171875 -0.046875q-1.015625 1.03125 -1.921875 1.46875q-0.890625 0.4375 -1.890625 0.4375q-0.890625 0 -1.578125 -0.34375q-0.671875 -0.34375 -1.046875 -0.96875q-0.359375 -0.640625 -0.359375 -1.453125q0 -1.71875 1.6875 -2.640625q1.703125 -0.9375 5.09375 -1.09375l0 -0.75q0 -1.21875 -0.234375 -1.921875q-0.234375 -0.703125 -0.75 -1.03125q-0.5 -0.328125 -1.34375 -0.328125q-0.90625 0 -1.46875 0.484375q-0.5625 0.46875 -0.84375 1.4375l-1.53125 0l0 -1.53125q1.125 -0.578125 1.875 -0.859375q0.75 -0.28125 1.5 -0.4375q0.75 -0.15625 1.53125 -0.15625q1.15625 0 1.859375 0.375q0.703125 0.359375 1.046875 1.125q0.359375 0.765625 0.359375 2.296875l0 4.078125q0 0.875 0 1.234375q0.015625 0.34375 0.078125 0.65625q0.0625 0.296875 0.171875 0.484375q0.125 0.1875 0.34375 0.3125q0.234375 0.125 0.75 0.265625l0 0.578125l-3.203125 0l0.046875 -1.671875zm-0.1875 -3.671875q-2.390625 0.015625 -3.578125 0.625q-1.171875 0.609375 -1.171875 1.84375q0 0.671875 0.265625 1.0625q0.265625 0.375 0.671875 0.53125q0.421875 0.140625 0.984375 0.140625q0.796875 0 1.4375 -0.375q0.65625 -0.390625 1.015625 -0.984375q0.375 -0.609375 0.375 -1.1875l0 -1.65625zm16.546875 5.34375l-4.609375 0l0 -0.578125q0.453125 -0.140625 0.65625 -0.234375q0.203125 -0.109375 0.328125 -0.296875q0.140625 -0.1875 0.21875 -0.578125q0.078125 -0.40625 0.078125 -1.203125l0 -3.0625q0 -0.828125 -0.046875 -1.484375q-0.046875 -0.671875 -0.171875 -1.09375q-0.109375 -0.4375 -0.265625 -0.671875q-0.15625 -0.25 -0.375 -0.40625q-0.21875 -0.171875 -0.5 -0.265625q-0.28125 -0.109375 -0.734375 -0.109375q-0.453125 0 -0.875 0.1875q-0.40625 0.171875 -0.90625 0.625q-0.484375 0.4375 -0.703125 0.875q-0.21875 0.4375 -0.21875 1.0l0 4.359375q0 1.015625 0.09375 1.40625q0.09375 0.390625 0.359375 0.59375q0.265625 0.203125 0.859375 0.359375l0 0.578125l-4.59375 0l0 -0.578125q0.453125 -0.140625 0.640625 -0.234375q0.203125 -0.109375 0.328125 -0.296875q0.140625 -0.1875 0.21875 -0.578125q0.078125 -0.390625 0.078125 -1.203125l0 -5.109375q0 -0.75 -0.03125 -1.203125q-0.015625 -0.46875 -0.15625 -0.734375q-0.140625 -0.28125 -0.4375 -0.40625q-0.28125 -0.140625 -0.8125 -0.234375l0 -0.625l2.75 -0.109375l0.71875 0l-0.140625 1.90625l0.171875 0.046875q0.859375 -0.875 1.390625 -1.25q0.546875 -0.375 1.078125 -0.578125q0.546875 -0.203125 1.15625 -0.203125q0.640625 0 1.140625 0.15625q0.5 0.140625 0.875 0.453125q0.375 0.296875 0.625 0.75q0.25 0.4375 0.375 1.078125q0.125 0.625 0.125 1.609375l0 4.40625q0 0.8125 0.046875 1.1875q0.046875 0.359375 0.15625 0.5625q0.125 0.1875 0.34375 0.328125q0.21875 0.125 0.765625 0.28125l0 0.578125zm5.1289062 -9.359375l0.046875 0q0.90625 -0.921875 1.4375 -1.28125q0.546875 -0.375 1.0625 -0.5625q0.515625 -0.1875 1.125 -0.1875q0.640625 0 1.140625 0.15625q0.5 0.140625 0.875 0.453125q0.390625 0.3125 0.625 0.765625q0.25 0.453125 0.359375 1.078125q0.125 0.625 0.125 1.59375l0 4.40625q0 1.03125 0.078125 1.40625q0.09375 0.359375 0.3125 0.5625q0.234375 0.203125 0.9375 0.390625l0 0.578125l-4.625 0l0 -0.578125q0.453125 -0.140625 0.65625 -0.234375q0.203125 -0.109375 0.328125 -0.296875q0.140625 -0.1875 0.21875 -0.578125q0.078125 -0.40625 0.078125 -1.203125l0 -3.0625q0 -1.5625 -0.15625 -2.390625q-0.15625 -0.828125 -0.625 -1.234375q-0.46875 -0.40625 -1.296875 -0.40625q-0.46875 0 -0.84375 0.171875q-0.375 0.15625 -0.875 0.578125q-0.484375 0.421875 -0.734375 0.875q-0.25 0.4375 -0.25 0.9375l0 4.484375q0 0.796875 0.03125 1.140625q0.046875 0.34375 0.15625 0.578125q0.125 0.21875 0.359375 0.375q0.25 0.140625 0.75 0.265625l0 0.578125l-4.640625 0l0 -0.578125q0.515625 -0.140625 0.734375 -0.265625q0.234375 -0.125 0.34375 -0.328125q0.125 -0.203125 0.1875 -0.578125q0.0625 -0.375 0.0625 -1.1875l0 -9.796875q0 -1.125 -0.015625 -1.5625q-0.015625 -0.453125 -0.09375 -0.765625q-0.078125 -0.3125 -0.21875 -0.484375q-0.125 -0.1875 -0.359375 -0.28125q-0.234375 -0.109375 -0.828125 -0.21875l0 -0.609375l2.828125 -0.109375l0.703125 0l0 7.40625z" fill-rule="nonzero"/><path fill="#f4cccc" d="m420.76453 352.94867l0 0c0 -14.159363 11.478455 -25.637787 25.637817 -25.637787l0 0c6.7995605 0 13.320618 2.7011108 18.128662 7.5091248c4.808014 4.808014 7.5091248 11.329102 7.5091248 18.128662l0 0c0 14.159363 -11.478424 25.637787 -25.637787 25.637787l0 0c-14.159363 0 -25.637817 -11.478424 -25.637817 -25.637787z" fill-rule="evenodd"/><path stroke="#000000" stroke-width="2.0" stroke-linejoin="round" stroke-linecap="butt" d="m420.76453 352.94867l0 0c0 -14.159363 11.478455 -25.637787 25.637817 -25.637787l0 0c6.7995605 0 13.320618 2.7011108 18.128662 7.5091248c4.808014 4.808014 7.5091248 11.329102 7.5091248 18.128662l0 0c0 14.159363 -11.478424 25.637787 -25.637787 25.637787l0 0c-14.159363 0 -25.637817 -11.478424 -25.637817 -25.637787z" fill-rule="evenodd"/><path fill="#434343" d="m433.76892 346.66086l6.359131 -6.359131l6.7551575 6.7551575l6.7551575 -6.7551575l6.359131 6.359131l-6.7551575 6.7551575l6.7551575 6.7551575l-6.359131 6.359131l-6.7551575 -6.7551575l-6.7551575 6.7551575l-6.359131 -6.359131l6.7551575 -6.7551575z" fill-rule="evenodd"/><path fill="#000000" fill-opacity="0.0" d="m276.65747 364.3399l38.236237 0l0 54.519684l-38.236237 0z" fill-rule="evenodd"/><path fill="#000000" d="m291.1106 380.083l0 2.859375l-3.21875 0l0 -2.859375l3.21875 0zm-4.453125 15.515625q0.578125 -0.140625 0.78125 -0.390625q0.21875 -0.25 0.296875 -0.671875q0.078125 -0.421875 0.078125 -1.53125l0 -5.453125q0 -0.578125 -0.0625 -0.921875q-0.046875 -0.359375 -0.1875 -0.5625q-0.140625 -0.21875 -0.40625 -0.328125q-0.25 -0.109375 -0.640625 -0.1875l0 -0.796875l3.21875 -0.09375l1.46875 0l0 8.328125q0 0.65625 0.015625 1.015625q0.015625 0.359375 0.046875 0.5625q0.046875 0.1875 0.109375 0.34375q0.0625 0.140625 0.15625 0.28125q0.109375 0.125 0.3125 0.234375q0.203125 0.09375 0.53125 0.171875l0 0.78125l-5.71875 0l0 -0.78125z" fill-rule="nonzero"/><path fill="#000000" d="m299.21997 404.44238q-0.6875 0.578125 -1.25 0.828125q-0.5625 0.234375 -1.1875 0.234375q-1.15625 0 -1.734375 -0.625q-0.578125 -0.640625 -0.578125 -1.90625l0 -4.375l-0.96875 0l0 -0.53125q0.46875 -0.078125 0.6875 -0.234375q0.234375 -0.15625 0.359375 -0.421875q0.125 -0.265625 0.203125 -0.6875q0.078125 -0.421875 0.109375 -1.046875l1.875 0l0 1.953125l2.21875 0l0 0.96875l-2.21875 0l0 3.53125q0 0.875 0.078125 1.296875q0.078125 0.421875 0.265625 0.625q0.203125 0.203125 0.5 0.203125q0.21875 0 0.390625 -0.03125q0.171875 -0.046875 0.359375 -0.140625q0.1875 -0.109375 0.40625 -0.296875l0.484375 0.65625z" fill-rule="nonzero"/><path fill="#f4cccc" d="m420.76453 248.35812l0 0c0 -14.159363 11.478455 -25.637802 25.637817 -25.637802l0 0c6.7995605 0 13.320618 2.701126 18.128662 7.50914c4.808014 4.808014 7.5091248 11.329086 7.5091248 18.128662l0 0c0 14.159363 -11.478424 25.637787 -25.637787 25.637787l0 0c-14.159363 0 -25.637817 -11.478424 -25.637817 -25.637787z" fill-rule="evenodd"/><path stroke="#000000" stroke-width="2.0" stroke-linejoin="round" stroke-linecap="butt" d="m420.76453 248.35812l0 0c0 -14.159363 11.478455 -25.637802 25.637817 -25.637802l0 0c6.7995605 0 13.320618 2.701126 18.128662 7.50914c4.808014 4.808014 7.5091248 11.329086 7.5091248 18.128662l0 0c0 14.159363 -11.478424 25.637787 -25.637787 25.637787l0 0c-14.159363 0 -25.637817 -11.478424 -25.637817 -25.637787z" fill-rule="evenodd"/><path fill="#434343" d="m432.35168 243.86038l9.553314 0l0 -9.553329l8.993164 0l0 9.553329l9.553314 0l0 8.993149l-9.553314 0l0 9.553329l-8.993164 0l0 -9.553329l-9.553314 0z" fill-rule="evenodd"/><path fill="#d9d2e9" d="m547.67456 443.11548l38.236206 0l0 33.5748l-38.236206 0z" fill-rule="evenodd"/><path stroke="#000000" stroke-width="1.0" stroke-linejoin="round" stroke-linecap="butt" d="m547.67456 443.11548l38.236206 0l0 33.5748l-38.236206 0z" fill-rule="evenodd"/><path fill="#000000" d="m566.77594 456.7135l-2.921875 10.171875l-1.46875 0l-2.65625 -9.890625q-0.171875 -0.625 -0.3125 -1.015625q-0.125 -0.390625 -0.265625 -0.609375q-0.140625 -0.21875 -0.296875 -0.328125q-0.15625 -0.125 -0.453125 -0.203125l0 -0.453125l3.890625 0l0 0.453125q-0.5625 0.109375 -0.78125 0.328125q-0.21875 0.21875 -0.21875 0.609375q0 0.3125 0.078125 0.75q0.078125 0.4375 0.21875 1.0l1.84375 7.1875l2.921875 -10.328125l1.53125 0l2.375 10.34375l2.15625 -6.953125q0.390625 -1.265625 0.390625 -1.796875q0 -0.5625 -0.234375 -0.796875q-0.234375 -0.25 -0.765625 -0.34375l0 -0.453125l3.59375 0l0 0.453125q-0.28125 0.09375 -0.453125 0.203125q-0.15625 0.109375 -0.3125 0.3125q-0.140625 0.1875 -0.328125 0.609375q-0.171875 0.40625 -0.40625 1.09375l-3.3125 9.828125l-1.296875 0l-2.515625 -10.171875z" fill-rule="nonzero"/><path fill="#d9d2e9" d="m585.91077 443.11548l38.236206 0l0 33.5748l-38.236206 0z" fill-rule="evenodd"/><path stroke="#000000" stroke-width="1.0" stroke-linejoin="round" stroke-linecap="butt" d="m585.91077 443.11548l38.236206 0l0 33.5748l-38.236206 0z" fill-rule="evenodd"/><path fill="#000000" d="m605.0122 456.7135l-2.921875 10.171875l-1.46875 0l-2.65625 -9.890625q-0.171875 -0.625 -0.3125 -1.015625q-0.125 -0.390625 -0.265625 -0.609375q-0.140625 -0.21875 -0.296875 -0.328125q-0.15625 -0.125 -0.453125 -0.203125l0 -0.453125l3.890625 0l0 0.453125q-0.5625 0.109375 -0.78125 0.328125q-0.21875 0.21875 -0.21875 0.609375q0 0.3125 0.078125 0.75q0.078125 0.4375 0.21875 1.0l1.84375 7.1875l2.921875 -10.328125l1.53125 0l2.375 10.34375l2.15625 -6.953125q0.390625 -1.265625 0.390625 -1.796875q0 -0.5625 -0.234375 -0.796875q-0.234375 -0.25 -0.765625 -0.34375l0 -0.453125l3.59375 0l0 0.453125q-0.28125 0.09375 -0.453125 0.203125q-0.15625 0.109375 -0.3125 0.3125q-0.140625 0.1875 -0.328125 0.609375q-0.171875 0.40625 -0.40625 1.09375l-3.3125 9.828125l-1.296875 0l-2.515625 -10.171875z" fill-rule="nonzero"/><path fill="#fff2cc" d="m547.6745 409.54068l76.47241 0l0 33.5748l-76.47241 0z" fill-rule="evenodd"/><path stroke="#000000" stroke-width="1.0" stroke-linejoin="round" stroke-linecap="butt" d="m547.6745 409.54068l76.47241 0l0 33.5748l-76.47241 0z" fill-rule="evenodd"/><path fill="#000000" d="m591.8951 424.1337l0 1.703125l-4.5625 0q1.5 0.859375 2.4375 2.171875q0.953125 1.296875 0.953125 2.765625q0 1.90625 -1.5 3.171875q-1.5 1.25 -3.421875 1.25q-2.25 0 -3.890625 -1.765625q-1.640625 -1.78125 -1.640625 -4.140625q0 -1.671875 0.859375 -2.9375q0.859375 -1.28125 2.0 -1.75q1.140625 -0.46875 3.09375 -0.46875l5.671875 0zm-5.34375 1.703125l-0.421875 0q-1.75 0 -2.796875 0.875q-1.046875 0.875 -1.046875 2.734375q0 1.984375 1.09375 3.5q1.109375 1.515625 2.578125 1.515625q1.1875 0 1.953125 -1.140625q0.78125 -1.140625 0.78125 -2.75q0 -2.578125 -2.140625 -4.734375z" fill-rule="nonzero"/><path fill="#ffffff" d="m85.35171 522.6667l0 0c0 -2.2874146 1.8543167 -4.1417236 4.1417313 -4.1417236l0 0c1.0984573 0 2.1519241 0.43634033 2.92865 1.2130737c0.77672577 0.7767334 1.2130814 1.8302002 1.2130814 2.92865l0 0c0 2.2874146 -1.8543167 4.1417236 -4.1417313 4.1417236l0 0c-2.2874146 0 -4.1417313 -1.8543091 -4.1417313 -4.1417236z" fill-rule="evenodd"/><path stroke="#000000" stroke-width="1.0" stroke-linejoin="round" stroke-linecap="butt" d="m85.35171 522.6667l0 0c0 -2.2874146 1.8543167 -4.1417236 4.1417313 -4.1417236l0 0c1.0984573 0 2.1519241 0.43634033 2.92865 1.2130737c0.77672577 0.7767334 1.2130814 1.8302002 1.2130814 2.92865l0 0c0 2.2874146 -1.8543167 4.1417236 -4.1417313 4.1417236l0 0c-2.2874146 0 -4.1417313 -1.8543091 -4.1417313 -4.1417236z" fill-rule="evenodd"/><path fill="#ffffff" d="m85.35171 248.35695l0 0c0 -2.2874146 1.8543167 -4.1417236 4.1417313 -4.1417236l0 0c1.0984573 0 2.1519241 0.4363556 2.92865 1.213089c0.77672577 0.77671814 1.2130814 1.8301849 1.2130814 2.9286346l0 0c0 2.2874146 -1.8543167 4.141739 -4.1417313 4.141739l0 0c-2.2874146 0 -4.1417313 -1.8543243 -4.1417313 -4.141739z" fill-rule="evenodd"/><path stroke="#000000" stroke-width="1.0" stroke-linejoin="round" stroke-linecap="butt" d="m85.35171 248.35695l0 0c0 -2.2874146 1.8543167 -4.1417236 4.1417313 -4.1417236l0 0c1.0984573 0 2.1519241 0.4363556 2.92865 1.213089c0.77672577 0.77671814 1.2130814 1.8301849 1.2130814 2.9286346l0 0c0 2.2874146 -1.8543167 4.141739 -4.1417313 4.141739l0 0c-2.2874146 0 -4.1417313 -1.8543243 -4.1417313 -4.141739z" fill-rule="evenodd"/><path fill="#000000" fill-opacity="0.0" d="m93.63517 522.6667l473.16537 0l0 -45.984283" fill-rule="evenodd"/><path stroke="#000000" stroke-width="2.0" stroke-linejoin="round" stroke-linecap="butt" d="m93.63517 522.6667l473.16537 0l0 -33.984283" fill-rule="evenodd"/><path fill="#000000" stroke="#000000" stroke-width="2.0" stroke-linecap="butt" d="m570.104 488.6824l-3.3034668 -9.076172l-3.3034668 9.076172z" fill-rule="evenodd"/><path fill="#000000" fill-opacity="0.0" d="m93.63517 522.6667l77.448814 0l0 -45.984283" fill-rule="evenodd"/><path stroke="#000000" stroke-width="2.0" stroke-linejoin="round" stroke-linecap="butt" d="m93.63517 522.6667l77.448814 0l0 -33.984283" fill-rule="evenodd"/><path fill="#000000" stroke="#000000" stroke-width="2.0" stroke-linecap="butt" d="m174.38745 488.6824l-3.3034668 -9.076172l-3.3034668 9.076172z" fill-rule="evenodd"/><path fill="#000000" fill-opacity="0.0" d="m93.63517 522.6667l194.14175 0l0 -45.984283" fill-rule="evenodd"/><path stroke="#000000" stroke-width="2.0" stroke-linejoin="round" stroke-linecap="butt" d="m93.63517 522.6667l194.14175 0l0 -33.984283" fill-rule="evenodd"/><path fill="#000000" stroke="#000000" stroke-width="2.0" stroke-linecap="butt" d="m291.08035 488.6824l-3.3034363 -9.076172l-3.3034668 9.076172z" fill-rule="evenodd"/><path fill="#000000" fill-opacity="0.0" d="m93.63517 522.6667l333.63782 0l0 -45.984283" fill-rule="evenodd"/><path stroke="#000000" stroke-width="2.0" stroke-linejoin="round" stroke-linecap="butt" d="m93.63517 522.6667l333.63782 0l0 -33.984283" fill-rule="evenodd"/><path fill="#000000" stroke="#000000" stroke-width="2.0" stroke-linecap="butt" d="m430.57642 488.6824l-3.3034363 -9.076172l-3.3034668 9.076172z" fill-rule="evenodd"/><path fill="#d9ead3" d="m204.95538 518.52496l8.283463 0l0 8.283447l-8.283463 0z" fill-rule="evenodd"/><path fill="#000000" fill-opacity="0.0" d="m171.08661 647.4488l0 -85.37897l433.95276 0l0 -85.39267" fill-rule="evenodd"/><path stroke="#000000" stroke-width="2.0" stroke-linejoin="round" stroke-linecap="butt" d="m171.08661 647.4488l0 -85.37897l433.95276 0l0 -73.39267" fill-rule="evenodd"/><path fill="#000000" stroke="#000000" stroke-width="2.0" stroke-linecap="butt" d="m608.34283 488.67715l-3.3034668 -9.076172l-3.3034668 9.076172z" fill-rule="evenodd"/><path fill="#000000" fill-opacity="0.0" d="m171.08661 647.4488l0 -85.37897l38.23622 0l0 -85.39267" fill-rule="evenodd"/><path stroke="#000000" stroke-width="2.0" stroke-linejoin="round" stroke-linecap="butt" d="m171.08661 647.4488l0 -85.37897l38.23622 0l0 -73.39267" fill-rule="evenodd"/><path fill="#000000" stroke="#000000" stroke-width="2.0" stroke-linecap="butt" d="m212.6263 488.67715l-3.3034668 -9.076172l-3.3034668 9.076172z" fill-rule="evenodd"/><path fill="#d9ead3" d="m321.9029 518.52496l8.283447 0l0 8.283447l-8.283447 0z" fill-rule="evenodd"/><path fill="#d9ead3" d="m461.38058 518.52496l8.283447 0l0 8.283447l-8.283447 0z" fill-rule="evenodd"/><path fill="#000000" fill-opacity="0.0" d="m171.08661 647.4488l0 -85.37897l154.92914 0l0 -85.39267" fill-rule="evenodd"/><path stroke="#000000" stroke-width="2.0" stroke-linejoin="round" stroke-linecap="butt" d="m171.08661 647.4488l0 -85.37897l154.92914 0l0 -73.39267" fill-rule="evenodd"/><path fill="#000000" stroke="#000000" stroke-width="2.0" stroke-linecap="butt" d="m329.3192 488.67715l-3.3034668 -9.076172l-3.3034668 9.076172z" fill-rule="evenodd"/><path fill="#000000" fill-opacity="0.0" d="m171.08661 647.4488l0 -85.37897l294.4252 0l0 -85.39267" fill-rule="evenodd"/><path stroke="#000000" stroke-width="2.0" stroke-linejoin="round" stroke-linecap="butt" d="m171.08661 647.4488l0 -85.37897l294.4252 0l0 -73.39267" fill-rule="evenodd"/><path fill="#000000" stroke="#000000" stroke-width="2.0" stroke-linecap="butt" d="m468.81528 488.67715l-3.3034668 -9.076172l-3.3034668 9.076172z" fill-rule="evenodd"/><path fill="#f4cccc" d="m669.84326 352.94867l0 0c0 -14.159363 11.478455 -25.637787 25.637817 -25.637787l0 0c6.7995605 0 13.320618 2.7011108 18.128662 7.5091248c4.8079834 4.808014 7.5091553 11.329102 7.5091553 18.128662l0 0c0 14.159363 -11.478455 25.637787 -25.637817 25.637787l0 0c-14.159363 0 -25.637817 -11.478424 -25.637817 -25.637787z" fill-rule="evenodd"/><path stroke="#000000" stroke-width="2.0" stroke-linejoin="round" stroke-linecap="butt" d="m669.84326 352.94867l0 0c0 -14.159363 11.478455 -25.637787 25.637817 -25.637787l0 0c6.7995605 0 13.320618 2.7011108 18.128662 7.5091248c4.8079834 4.808014 7.5091553 11.329102 7.5091553 18.128662l0 0c0 14.159363 -11.478455 25.637787 -25.637817 25.637787l0 0c-14.159363 0 -25.637817 -11.478424 -25.637817 -25.637787z" fill-rule="evenodd"/><path fill="#434343" d="m682.84766 346.66086l6.359131 -6.359131l6.755127 6.7551575l6.755188 -6.7551575l6.359131 6.359131l-6.755188 6.7551575l6.755188 6.7551575l-6.359131 6.359131l-6.755188 -6.7551575l-6.755127 6.7551575l-6.359131 -6.359131l6.755188 -6.7551575z" fill-rule="evenodd"/><path stroke="#000000" stroke-width="2.0" stroke-linejoin="round" stroke-linecap="butt" d="m682.84766 346.66086l6.359131 -6.359131l6.755127 6.7551575l6.755188 -6.7551575l6.359131 6.359131l-6.755188 6.7551575l6.755188 6.7551575l-6.359131 6.359131l-6.755188 -6.7551575l-6.755127 6.7551575l-6.359131 -6.359131l6.755188 -6.7551575z" fill-rule="evenodd"/><path fill="#000000" fill-opacity="0.0" d="m190.20468 409.54068l-0.47244263 -136.0" fill-rule="evenodd"/><path stroke="#000000" stroke-width="2.0" stroke-linejoin="round" stroke-linecap="butt" d="m190.20468 409.54068l-0.43075562 -124.00009" fill-rule="evenodd"/><path fill="#000000" stroke="#000000" stroke-width="2.0" stroke-linecap="butt" d="m193.07738 285.52914l-3.3349762 -9.064667l-3.2719116 9.087616z" fill-rule="evenodd"/><path fill="#000000" fill-opacity="0.0" d="m446.40283 409.54068l0 -30.960632" fill-rule="evenodd"/><path stroke="#000000" stroke-width="2.0" stroke-linejoin="round" stroke-linecap="butt" d="m446.40283 409.54068l0 -18.960632" fill-rule="evenodd"/><path fill="#000000" stroke="#000000" stroke-width="2.0" stroke-linecap="butt" d="m449.7063 390.58005l-3.3034668 -9.076202l-3.3034363 9.076202z" fill-rule="evenodd"/><path fill="#000000" fill-opacity="0.0" d="m306.89496 409.54068l0 -56.59842l113.85828 0" fill-rule="evenodd"/><path stroke="#000000" stroke-width="2.0" stroke-linejoin="round" stroke-linecap="butt" d="m306.89496 409.54068l0 -56.59842l101.85828 0" fill-rule="evenodd"/><path fill="#000000" stroke="#000000" stroke-width="2.0" stroke-linecap="butt" d="m408.75323 356.24573l9.076202 -3.3034668l-9.076202 -3.3034668z" fill-rule="evenodd"/><path fill="#000000" fill-opacity="0.0" d="m585.9107 409.54068l0 -56.59842l83.93701 0" fill-rule="evenodd"/><path stroke="#000000" stroke-width="2.0" stroke-linejoin="round" stroke-linecap="butt" d="m585.9107 409.54068l0 -56.59842l71.93701 0" fill-rule="evenodd"/><path fill="#000000" stroke="#000000" stroke-width="2.0" stroke-linecap="butt" d="m657.8477 356.24573l9.076233 -3.3034668l-9.076233 -3.3034668z" fill-rule="evenodd"/><path fill="#000000" fill-opacity="0.0" d="m446.40234 327.31088l0 -53.322845" fill-rule="evenodd"/><path stroke="#000000" stroke-width="2.0" stroke-linejoin="round" stroke-linecap="butt" d="m446.4023 327.31088l0 -41.322845" fill-rule="evenodd"/><path fill="#000000" stroke="#000000" stroke-width="2.0" stroke-linecap="butt" d="m449.70578 285.98804l-3.3034668 -9.076172l-3.3034668 9.076172z" fill-rule="evenodd"/><path fill="#000000" fill-opacity="0.0" d="m799.4514 202.49869l60.59845 0l0 51.27559l-60.59845 0z" fill-rule="evenodd"/><path fill="#000000" d="m811.04517 230.58556q0.296875 1.390625 0.96875 2.078125q0.6875 0.6875 2.015625 0.6875q0.6875 0 1.234375 -0.234375q0.5625 -0.234375 0.890625 -0.75q0.34375 -0.53125 0.34375 -1.3125q0 -0.71875 -0.28125 -1.25q-0.265625 -0.546875 -0.859375 -1.015625q-0.59375 -0.484375 -1.671875 -1.03125q-0.90625 -0.453125 -1.65625 -0.9375q-0.734375 -0.5 -1.25 -1.09375q-0.515625 -0.59375 -0.8125 -1.296875q-0.28125 -0.703125 -0.28125 -1.578125q0 -1.4375 0.703125 -2.4375q0.71875 -1.015625 2.078125 -1.53125q1.359375 -0.53125 3.140625 -0.53125q1.03125 0 1.984375 0.109375q0.953125 0.109375 2.171875 0.390625l0 3.40625l-1.609375 0q-0.21875 -0.921875 -0.5625 -1.46875q-0.34375 -0.546875 -0.859375 -0.796875q-0.515625 -0.265625 -1.3125 -0.265625q-0.65625 0 -1.1875 0.234375q-0.53125 0.234375 -0.84375 0.703125q-0.296875 0.453125 -0.296875 1.109375q0 0.6875 0.265625 1.1875q0.265625 0.484375 0.875 0.96875q0.625 0.46875 1.8125 1.078125q1.4375 0.75 2.265625 1.46875q0.828125 0.71875 1.21875 1.578125q0.390625 0.84375 0.390625 1.96875q0 1.4375 -0.671875 2.5q-0.65625 1.0625 -1.9375 1.640625q-1.28125 0.5625 -2.953125 0.5625q-1.1875 0 -2.484375 -0.140625q-1.296875 -0.125 -2.4375 -0.390625l0 -3.609375l1.609375 0z" fill-rule="nonzero"/><path fill="#000000" d="m826.78345 242.60118q-0.6875 0.578125 -1.25 0.828125q-0.5625 0.234375 -1.1875 0.234375q-1.15625 0 -1.734375 -0.625q-0.578125 -0.640625 -0.578125 -1.90625l0 -4.375l-0.96875 0l0 -0.53125q0.46875 -0.078125 0.6875 -0.234375q0.234375 -0.15625 0.359375 -0.421875q0.125 -0.265625 0.203125 -0.6875q0.078125 -0.421875 0.109375 -1.046875l1.875 0l0 1.953125l2.21875 0l0 0.96875l-2.21875 0l0 3.53125q0 0.875 0.078125 1.296875q0.078125 0.421875 0.265625 0.625q0.203125 0.203125 0.5 0.203125q0.21875 0 0.390625 -0.03125q0.171875 -0.046875 0.359375 -0.140625q0.1875 -0.109375 0.40625 -0.296875l0.484375 0.65625z" fill-rule="nonzero"/><path fill="#fff2cc" d="m657.24536 273.52756l76.47247 0l0 33.5748l-76.47247 0z" fill-rule="evenodd"/><path stroke="#000000" stroke-width="1.0" stroke-linejoin="round" stroke-linecap="butt" d="m657.24536 273.52756l76.47247 0l0 33.5748l-76.47247 0z" fill-rule="evenodd"/><path fill="#000000" d="m672.6808 288.22995q0.578125 -0.09375 0.9375 -0.328125q0.375 -0.234375 0.578125 -0.59375q0.203125 -0.375 0.3125 -0.921875q0.125 -0.5625 0.25 -1.625l1.671875 0l0 2.890625l3.78125 0l0 1.1875l-3.78125 0l0 5.203125q0 1.140625 0.09375 1.8125q0.09375 0.671875 0.34375 1.0625q0.265625 0.375 0.59375 0.546875q0.328125 0.15625 0.84375 0.15625q0.46875 0 0.875 -0.1875q0.40625 -0.203125 0.8125 -0.5625l0.53125 0.640625q-0.84375 0.796875 -1.59375 1.171875q-0.734375 0.359375 -1.53125 0.359375q-1.515625 0 -2.25 -0.890625q-0.734375 -0.90625 -0.734375 -2.8125l0 -6.5l-1.734375 0l0 -0.609375zm15.589844 8.953125l-0.171875 -0.046875q-1.015625 1.03125 -1.921875 1.46875q-0.890625 0.4375 -1.890625 0.4375q-0.890625 0 -1.578125 -0.34375q-0.671875 -0.34375 -1.046875 -0.96875q-0.359375 -0.640625 -0.359375 -1.453125q0 -1.71875 1.6875 -2.640625q1.703125 -0.9375 5.09375 -1.09375l0 -0.75q0 -1.21875 -0.234375 -1.921875q-0.234375 -0.703125 -0.75 -1.03125q-0.5 -0.328125 -1.34375 -0.328125q-0.90625 0 -1.46875 0.484375q-0.5625 0.46875 -0.84375 1.4375l-1.53125 0l0 -1.53125q1.125 -0.578125 1.875 -0.859375q0.75 -0.28125 1.5 -0.4375q0.75 -0.15625 1.53125 -0.15625q1.15625 0 1.859375 0.375q0.703125 0.359375 1.046875 1.125q0.359375 0.765625 0.359375 2.296875l0 4.078125q0 0.875 0 1.234375q0.015625 0.34375 0.078125 0.65625q0.0625 0.296875 0.171875 0.484375q0.125 0.1875 0.34375 0.3125q0.234375 0.125 0.75 0.265625l0 0.578125l-3.203125 0l0.046875 -1.671875zm-0.1875 -3.671875q-2.390625 0.015625 -3.578125 0.625q-1.171875 0.609375 -1.171875 1.84375q0 0.671875 0.265625 1.0625q0.265625 0.375 0.671875 0.53125q0.421875 0.140625 0.984375 0.140625q0.796875 0 1.4375 -0.375q0.65625 -0.390625 1.015625 -0.984375q0.375 -0.609375 0.375 -1.1875l0 -1.65625zm16.546875 5.34375l-4.609375 0l0 -0.578125q0.453125 -0.140625 0.65625 -0.234375q0.203125 -0.109375 0.328125 -0.296875q0.140625 -0.1875 0.21875 -0.578125q0.078125 -0.40625 0.078125 -1.203125l0 -3.0625q0 -0.828125 -0.046875 -1.484375q-0.046875 -0.671875 -0.171875 -1.09375q-0.109375 -0.4375 -0.265625 -0.671875q-0.15625 -0.25 -0.375 -0.40625q-0.21875 -0.171875 -0.5 -0.265625q-0.28125 -0.109375 -0.734375 -0.109375q-0.453125 0 -0.875 0.1875q-0.40625 0.171875 -0.90625 0.625q-0.484375 0.4375 -0.703125 0.875q-0.21875 0.4375 -0.21875 1.0l0 4.359375q0 1.015625 0.09375 1.40625q0.09375 0.390625 0.359375 0.59375q0.265625 0.203125 0.859375 0.359375l0 0.578125l-4.59375 0l0 -0.578125q0.453125 -0.140625 0.640625 -0.234375q0.203125 -0.109375 0.328125 -0.296875q0.140625 -0.1875 0.21875 -0.578125q0.078125 -0.390625 0.078125 -1.203125l0 -5.109375q0 -0.75 -0.03125 -1.203125q-0.015625 -0.46875 -0.15625 -0.734375q-0.140625 -0.28125 -0.4375 -0.40625q-0.28125 -0.140625 -0.8125 -0.234375l0 -0.625l2.75 -0.109375l0.71875 0l-0.140625 1.90625l0.171875 0.046875q0.859375 -0.875 1.390625 -1.25q0.546875 -0.375 1.078125 -0.578125q0.546875 -0.203125 1.15625 -0.203125q0.640625 0 1.140625 0.15625q0.5 0.140625 0.875 0.453125q0.375 0.296875 0.625 0.75q0.25 0.4375 0.375 1.078125q0.125 0.625 0.125 1.609375l0 4.40625q0 0.8125 0.046875 1.1875q0.046875 0.359375 0.15625 0.5625q0.125 0.1875 0.34375 0.328125q0.21875 0.125 0.765625 0.28125l0 0.578125zm5.1289062 -9.359375l0.046875 0q0.90625 -0.921875 1.4375 -1.28125q0.546875 -0.375 1.0625 -0.5625q0.515625 -0.1875 1.125 -0.1875q0.640625 0 1.140625 0.15625q0.5 0.140625 0.875 0.453125q0.390625 0.3125 0.625 0.765625q0.25 0.453125 0.359375 1.078125q0.125 0.625 0.125 1.59375l0 4.40625q0 1.03125 0.078125 1.40625q0.09375 0.359375 0.3125 0.5625q0.234375 0.203125 0.9375 0.390625l0 0.578125l-4.625 0l0 -0.578125q0.453125 -0.140625 0.65625 -0.234375q0.203125 -0.109375 0.328125 -0.296875q0.140625 -0.1875 0.21875 -0.578125q0.078125 -0.40625 0.078125 -1.203125l0 -3.0625q0 -1.5625 -0.15625 -2.390625q-0.15625 -0.828125 -0.625 -1.234375q-0.46875 -0.40625 -1.296875 -0.40625q-0.46875 0 -0.84375 0.171875q-0.375 0.15625 -0.875 0.578125q-0.484375 0.421875 -0.734375 0.875q-0.25 0.4375 -0.25 0.9375l0 4.484375q0 0.796875 0.03125 1.140625q0.046875 0.34375 0.15625 0.578125q0.125 0.21875 0.359375 0.375q0.25 0.140625 0.75 0.265625l0 0.578125l-4.640625 0l0 -0.578125q0.515625 -0.140625 0.734375 -0.265625q0.234375 -0.125 0.34375 -0.328125q0.125 -0.203125 0.1875 -0.578125q0.0625 -0.375 0.0625 -1.1875l0 -9.796875q0 -1.125 -0.015625 -1.5625q-0.015625 -0.453125 -0.09375 -0.765625q-0.078125 -0.3125 -0.21875 -0.484375q-0.125 -0.1875 -0.359375 -0.28125q-0.234375 -0.109375 -0.828125 -0.21875l0 -0.609375l2.828125 -0.109375l0.703125 0l0 7.40625z" fill-rule="nonzero"/><path fill="#ffffff" d="m791.16797 248.35695l0 0c0 -2.2874146 1.8543091 -4.1417236 4.1417236 -4.1417236l0 0c1.0984497 0 2.1519165 0.4363556 2.92865 1.213089c0.7767334 0.77671814 1.2130737 1.8301849 1.2130737 2.9286346l0 0c0 2.2874146 -1.8543091 4.141739 -4.1417236 4.141739l0 0c-2.2874146 0 -4.1417236 -1.8543243 -4.1417236 -4.141739z" fill-rule="evenodd"/><path stroke="#000000" stroke-width="1.0" stroke-linejoin="round" stroke-linecap="butt" d="m791.16797 248.35695l0 0c0 -2.2874146 1.8543091 -4.1417236 4.1417236 -4.1417236l0 0c1.0984497 0 2.1519165 0.4363556 2.92865 1.213089c0.7767334 0.77671814 1.2130737 1.8301849 1.2130737 2.9286346l0 0c0 2.2874146 -1.8543091 4.141739 -4.1417236 4.141739l0 0c-2.2874146 0 -4.1417236 -1.8543243 -4.1417236 -4.141739z" fill-rule="evenodd"/><path fill="#000000" fill-opacity="0.0" d="m695.48157 307.10236l0 20.22049" fill-rule="evenodd"/><path stroke="#000000" stroke-width="2.0" stroke-linejoin="round" stroke-linecap="butt" d="m695.48157 307.10236l0 8.2204895" fill-rule="evenodd"/><path fill="#000000" stroke="#000000" stroke-width="2.0" stroke-linecap="butt" d="m692.1781 315.32285l3.3034668 9.076172l3.3034668 -9.076172z" fill-rule="evenodd"/><path fill="#000000" fill-opacity="0.0" d="m799.4514 248.35695l79.37012 0" fill-rule="evenodd"/><path stroke="#000000" stroke-width="2.0" stroke-linejoin="round" stroke-linecap="butt" d="m799.4514 248.35695l67.37012 0" fill-rule="evenodd"/><path fill="#000000" stroke="#000000" stroke-width="2.0" stroke-linecap="butt" d="m866.82153 251.66042l9.076172 -3.3034668l-9.076172 -3.3034515z" fill-rule="evenodd"/><path fill="#ffffff" d="m792.0062 522.6667l0 0c0 -2.2874146 1.8543091 -4.1417236 4.1417236 -4.1417236l0 0c1.0984497 0 2.1519165 0.43634033 2.92865 1.2130737c0.7767334 0.7767334 1.2130737 1.8302002 1.2130737 2.92865l0 0c0 2.2874146 -1.8543091 4.1417236 -4.1417236 4.1417236l0 0c-2.2874146 0 -4.1417236 -1.8543091 -4.1417236 -4.1417236z" fill-rule="evenodd"/><path stroke="#000000" stroke-width="1.0" stroke-linejoin="round" stroke-linecap="butt" d="m792.0062 522.6667l0 0c0 -2.2874146 1.8543091 -4.1417236 4.1417236 -4.1417236l0 0c1.0984497 0 2.1519165 0.43634033 2.92865 1.2130737c0.7767334 0.7767334 1.2130737 1.8302002 1.2130737 2.92865l0 0c0 2.2874146 -1.8543091 4.1417236 -4.1417236 4.1417236l0 0c-2.2874146 0 -4.1417236 -1.8543091 -4.1417236 -4.1417236z" fill-rule="evenodd"/><path fill="#000000" fill-opacity="0.0" d="m800.2897 522.6667l79.37012 0" fill-rule="evenodd"/><path stroke="#000000" stroke-width="2.0" stroke-linejoin="round" stroke-linecap="butt" d="m800.2897 522.6667l67.37012 0" fill-rule="evenodd"/><path fill="#000000" stroke="#000000" stroke-width="2.0" stroke-linecap="butt" d="m867.6598 525.97015l9.076172 -3.3034668l-9.076172 -3.3034668z" fill-rule="evenodd"/><path fill="#000000" fill-opacity="0.0" d="m695.4811 378.58646l0 144.09451l96.5354 0" fill-rule="evenodd"/><path stroke="#000000" stroke-width="2.0" stroke-linejoin="round" stroke-linecap="butt" d="m695.4811 378.58646l0 144.09445l84.5354 0" fill-rule="evenodd"/><path fill="#000000" stroke="#000000" stroke-width="2.0" stroke-linecap="butt" d="m780.0165 525.9844l9.076172 -3.3034668l-9.076172 -3.3034058z" fill-rule="evenodd"/><path fill="#000000" fill-opacity="0.0" d="m800.32806 474.03674l45.826782 0l0 51.275574l-45.826782 0z" fill-rule="evenodd"/><path fill="#000000" d="m824.26556 503.13925q0 0.890625 0.078125 1.234375q0.078125 0.328125 0.3125 0.5625q0.234375 0.21875 0.859375 0.359375l0 0.78125l-6.125 0l0 -0.78125q0.6875 -0.171875 0.875 -0.34375q0.203125 -0.171875 0.28125 -0.5q0.09375 -0.328125 0.09375 -1.3125l0 -4.703125l-5.296875 0l0 4.703125q0 0.40625 0.015625 0.765625q0.03125 0.34375 0.09375 0.5625q0.078125 0.21875 0.203125 0.375q0.140625 0.15625 0.375 0.265625q0.234375 0.109375 0.578125 0.1875l0 0.78125l-6.15625 0l0 -0.78125q0.4375 -0.109375 0.6875 -0.234375q0.25 -0.140625 0.375 -0.375q0.125 -0.25 0.15625 -0.609375q0.03125 -0.375 0.03125 -0.9375l0 -10.109375q0 -0.546875 -0.03125 -0.921875q-0.015625 -0.375 -0.140625 -0.609375q-0.125 -0.234375 -0.375 -0.375q-0.25 -0.15625 -0.703125 -0.265625l0 -0.78125l6.15625 0l0 0.78125q-0.625 0.171875 -0.859375 0.390625q-0.21875 0.203125 -0.3125 0.546875q-0.09375 0.34375 -0.09375 1.25l0 3.90625l5.296875 0l0 -3.90625q0 -0.890625 -0.078125 -1.234375q-0.078125 -0.34375 -0.3125 -0.5625q-0.21875 -0.21875 -0.859375 -0.390625l0 -0.78125l6.125 0l0 0.78125q-0.515625 0.140625 -0.75 0.296875q-0.234375 0.15625 -0.34375 0.40625q-0.09375 0.234375 -0.125 0.546875q-0.03125 0.296875 -0.03125 0.9375l0 10.09375z" fill-rule="nonzero"/><path fill="#000000" d="m832.664 514.1392q-0.6875 0.578125 -1.25 0.828125q-0.5625 0.234375 -1.1875 0.234375q-1.15625 0 -1.734375 -0.625q-0.578125 -0.640625 -0.578125 -1.90625l0 -4.3749695l-0.96875 0l0 -0.53125q0.46875 -0.078125 0.6875 -0.234375q0.234375 -0.15625 0.359375 -0.421875q0.125 -0.265625 0.203125 -0.6875q0.078125 -0.421875 0.109375 -1.046875l1.875 0l0 1.953125l2.21875 0l0 0.96875l-2.21875 0l0 3.53125q0 0.8749695 0.078125 1.2968445q0.078125 0.421875 0.265625 0.625q0.203125 0.203125 0.5 0.203125q0.21875 0 0.390625 -0.03125q0.171875 -0.046875 0.359375 -0.140625q0.1875 -0.109375 0.40625 -0.296875l0.484375 0.65625z" fill-rule="nonzero"/><path fill="#cfe2f3" d="m713.94226 70.28609l0 0c0 -20.343212 16.491455 -36.834644 36.834656 -36.834644l0 0c9.769165 0 19.138184 3.880783 26.04602 10.78862c6.907837 6.907833 10.788635 16.27687 10.788635 26.046024l0 0c0 20.343216 -16.491455 36.83465 -36.834656 36.83465l0 0c-20.3432 0 -36.834656 -16.491432 -36.834656 -36.83465z" fill-rule="evenodd"/><path stroke="#000000" stroke-width="1.0" stroke-linejoin="round" stroke-linecap="butt" d="m713.94226 70.28609l0 0c0 -20.343212 16.491455 -36.834644 36.834656 -36.834644l0 0c9.769165 0 19.138184 3.880783 26.04602 10.78862c6.907837 6.907833 10.788635 16.27687 10.788635 26.046024l0 0c0 20.343216 -16.491455 36.83465 -36.834656 36.83465l0 0c-20.3432 0 -36.834656 -16.491432 -36.834656 -36.83465z" fill-rule="evenodd"/><path fill="#000000" d="m749.53864 72.66984l0 3.21875q0 0.609375 0.03125 0.9375q0.03125 0.328125 0.125 0.53125q0.09375 0.1875 0.21875 0.3125q0.140625 0.125 0.375 0.234375q0.25 0.09375 0.65625 0.140625l0 0.78125l-6.46875 0l0 -0.78125q0.484375 -0.078125 0.765625 -0.203125q0.296875 -0.125 0.4375 -0.375q0.140625 -0.25 0.171875 -0.625q0.046875 -0.390625 0.046875 -0.953125l0 -3.21875l-3.171875 -6.703125q-0.40625 -0.859375 -0.640625 -1.265625q-0.28125 -0.484375 -0.46875 -0.6875q-0.1875 -0.21874619 -0.359375 -0.2968712q-0.15625 -0.078125 -0.453125 -0.109375l0 -0.78125l6.25 0l0 0.78125q-0.90625 0.109375 -0.90625 0.8906212q0 0.296875 0.140625 0.71875q0.15625 0.421875 0.484375 1.125l1.96875 4.40625l2.15625 -4.296875q0.3125 -0.640625 0.4375 -1.0625q0.125 -0.4375 0.125 -0.859375q0 -0.421875 -0.25 -0.6562462q-0.234375 -0.25 -0.671875 -0.265625l0 -0.78125l4.703125 0l0 0.78125q-0.3125 0.0625 -0.53125 0.1875q-0.203125 0.125 -0.453125 0.3906212q-0.234375 0.265625 -0.578125 0.796875q-0.34375 0.515625 -0.78125 1.359375l-3.359375 6.328125z" fill-rule="nonzero"/><path fill="#000000" d="m761.1246 86.88859q-0.6875 0.578125 -1.25 0.828125q-0.5625 0.234375 -1.1875 0.234375q-1.15625 0 -1.734375 -0.625q-0.578125 -0.640625 -0.578125 -1.90625l0 -4.375l-0.96875 0l0 -0.53125q0.46875 -0.078125 0.6875 -0.234375q0.234375 -0.15625 0.359375 -0.421875q0.125 -0.265625 0.203125 -0.6875q0.078125 -0.421875 0.109375 -1.046875l1.875 0l0 1.953125l2.21875 0l0 0.96875l-2.21875 0l0 3.53125q0 0.875 0.078125 1.296875q0.078125 0.421875 0.265625 0.625q0.203125 0.203125 0.5 0.203125q0.21875 0 0.390625 -0.03125q0.171875 -0.046875 0.359375 -0.140625q0.1875 -0.109375 0.40625 -0.296875l0.484375 0.65625z" fill-rule="nonzero"/><path fill="#d9ead3" d="m746.85565 244.26509l8.283447 0l0 8.283463l-8.283447 0z" fill-rule="evenodd"/><path fill="#000000" fill-opacity="0.0" d="m695.4811 378.58646l0 72.16342l55.307068 0l0 -343.628" fill-rule="evenodd"/><path stroke="#000000" stroke-width="2.0" stroke-linejoin="round" stroke-linecap="butt" d="m695.4811 378.58646l0 72.16342l55.307068 0l0 -331.628" fill-rule="evenodd"/><path fill="#000000" stroke="#000000" stroke-width="2.0" stroke-linecap="butt" d="m754.0916 119.1219l-3.3034668 -9.076195l-3.3034668 9.076195z" fill-rule="evenodd"/><path fill="#000000" fill-opacity="0.0" d="m551.95 364.00583l38.236267 0l0 54.519684l-38.236267 0z" fill-rule="evenodd"/><path fill="#000000" d="m567.6375 396.23334q-1.71875 0 -2.96875 -0.59375q-1.25 -0.609375 -1.953125 -1.9375q-0.703125 -1.34375 -0.703125 -3.390625q0 -1.5625 0.4375 -2.703125q0.4375 -1.15625 1.203125 -1.90625q0.78125 -0.75 1.84375 -1.109375q1.078125 -0.359375 2.328125 -0.359375q2.84375 0 4.28125 1.5q1.4375 1.484375 1.4375 4.375q0 2.03125 -0.71875 3.40625q-0.703125 1.375 -2.03125 2.046875q-1.328125 0.671875 -3.15625 0.671875zm-2.0625 -6.171875q0 2.484375 0.5625 3.71875q0.5625 1.234375 1.6875 1.234375q0.609375 0 1.03125 -0.3125q0.421875 -0.328125 0.671875 -0.921875q0.25 -0.59375 0.34375 -1.421875q0.109375 -0.84375 0.109375 -1.890625q0 -2.515625 -0.5625 -3.765625q-0.546875 -1.25 -1.640625 -1.25q-0.796875 0 -1.28125 0.5q-0.46875 0.5 -0.703125 1.515625q-0.21875 1.0 -0.21875 2.59375z" fill-rule="nonzero"/><path fill="#000000" d="m580.6297 404.10834q-0.6875 0.578125 -1.25 0.828125q-0.5625 0.234375 -1.1875 0.234375q-1.15625 0 -1.734375 -0.625q-0.578125 -0.640625 -0.578125 -1.90625l0 -4.375l-0.96875 0l0 -0.53125q0.46875 -0.078125 0.6875 -0.234375q0.234375 -0.15625 0.359375 -0.421875q0.125 -0.265625 0.203125 -0.6875q0.078125 -0.421875 0.109375 -1.046875l1.875 0l0 1.953125l2.21875 0l0 0.96875l-2.21875 0l0 3.53125q0 0.875 0.078125 1.296875q0.078125 0.421875 0.265625 0.625q0.203125 0.203125 0.5 0.203125q0.21875 0 0.390625 -0.03125q0.171875 -0.046875 0.359375 -0.140625q0.1875 -0.109375 0.40625 -0.296875l0.484375 0.65625z" fill-rule="nonzero"/></g></svg>