<svg version="1.1" viewBox="0.0 0.0 960.0 720.0" fill="none" stroke="none" stroke-linecap="square" stroke-miterlimit="10" xmlns:xlink="http://www.w3.org/1999/xlink" xmlns="http://www.w3.org/2000/svg"><clipPath id="p.0"><path d="m0 0l960.0 0l0 720.0l-960.0 0l0 -720.0z" clip-rule="nonzero"/></clipPath><g clip-path="url(#p.0)"><path fill="#000000" fill-opacity="0.0" d="m0 0l960.0 0l0 720.0l-960.0 0z" fill-rule="evenodd"/><path fill="#000000" fill-opacity="0.0" d="m29.879265 26.149607l897.4488 0l0 591.1181l-897.4488 0z" fill-rule="evenodd"/><path stroke="#ea9999" stroke-width="2.0" stroke-linejoin="round" stroke-linecap="butt" stroke-dasharray="16.0,6.0" d="m29.879265 26.149607l897.4488 0l0 591.1181l-897.4488 0z" fill-rule="evenodd"/><path fill="#000000" fill-opacity="0.0" d="m185.64928 425.51968l0 -31.212585" fill-rule="evenodd"/><path stroke="#000000" stroke-width="2.0" stroke-linejoin="round" stroke-linecap="butt" d="m185.64928 425.51968l0 -19.212585" fill-rule="evenodd"/><path fill="#000000" stroke="#000000" stroke-width="2.0" stroke-linecap="butt" d="m188.95274 406.3071l-3.3034668 -9.076202l-3.3034668 9.076202z" fill-rule="evenodd"/><path fill="#000000" fill-opacity="0.0" d="m706.46295 231.52493l0 -27.2126" fill-rule="evenodd"/><path stroke="#000000" stroke-width="2.0" stroke-linejoin="round" stroke-linecap="butt" d="m706.46295 231.52493l0 -15.212601" fill-rule="evenodd"/><path fill="#000000" stroke="#000000" stroke-width="2.0" stroke-linecap="butt" d="m709.7664 216.31233l-3.3034668 -9.076187l-3.3034668 9.076187z" fill-rule="evenodd"/><path fill="#000000" fill-opacity="0.0" d="m310.6493 394.31497l0 31.212585" fill-rule="evenodd"/><path stroke="#000000" stroke-width="2.0" stroke-linejoin="round" stroke-linecap="butt" d="m310.6493 394.31497l0 19.212585" fill-rule="evenodd"/><path fill="#000000" stroke="#000000" stroke-width="2.0" stroke-linecap="butt" d="m307.34583 413.52756l3.3034668 9.076202l3.3034363 -9.076202z" fill-rule="evenodd"/><path fill="#b6d7a8" d="m512.68243 236.13911l387.55902 0l0 153.95274l-387.55902 0z" fill-rule="evenodd"/><path stroke="#38761d" stroke-width="1.0" stroke-linejoin="round" stroke-linecap="butt" d="m512.68243 236.13911l387.55902 0l0 153.95274l-387.55902 0z" fill-rule="evenodd"/><path fill="#000000" d="m591.88525 297.99548l0 -1.109375l1.296875 0q2.96875 0 3.671875 -1.25q0.71875 -1.265625 0.71875 -4.625l0 -30.984375l-14.34375 0l0 30.984375q0 3.9375 0.953125 4.90625q0.96875 0.96875 3.609375 0.96875l1.21875 0l0 1.109375l-21.21875 0l0 -1.109375l1.28125 0q2.671875 0 3.53125 -1.015625q0.875 -1.015625 0.875 -4.859375l0 -26.671875q0 -3.625 -0.8125 -4.734375q-0.8125 -1.109375 -3.59375 -1.109375l-1.28125 0l0 -1.109375l45.296875 0l0 1.109375l-1.078125 0q-2.875 0 -3.78125 1.140625q-0.890625 1.140625 -0.890625 4.703125l0 26.671875q0 3.9375 1.015625 4.90625q1.03125 0.96875 3.78125 0.96875l0.953125 0l0 1.109375l-21.203125 0zm41.328003 0l0 -1.109375q2.703125 0 2.703125 -4.015625l0 -13.703125l-8.03125 13.703125q0.03125 3.921875 2.71875 4.015625l0 1.109375l-14.25 0l0 -1.109375q1.703125 0 2.421875 -0.953125q0.71875 -0.96875 0.71875 -3.359375l0 -17.28125q0 -4.1875 -3.140625 -4.1875l0 -1.109375l14.25 0l0 1.109375q-1.546875 0.0625 -2.140625 0.90625q-0.578125 0.828125 -0.578125 3.28125l0 13.65625l8.03125 -13.890625q-0.03125 -2.21875 -0.671875 -3.078125q-0.625 -0.875 -2.03125 -0.875l0 -1.109375l14.25 0l0 1.109375q-1.609375 0.03125 -2.390625 0.8125q-0.78125 0.78125 -0.78125 2.984375l0 17.828125q0 2.484375 0.703125 3.328125q0.703125 0.828125 2.46875 0.828125l0 1.109375l-14.25 0zm18.507385 0l0 -1.109375q2.09375 0 2.609375 -1.140625q0.53125 -1.15625 0.53125 -2.875l0 -17.328125q0 -2.484375 -0.609375 -3.40625q-0.609375 -0.9375 -2.53125 -1.03125l0 -1.109375l14.109375 0l0 1.109375q-1.46875 0.234375 -2.03125 1.171875q-0.546875 0.921875 -0.546875 3.265625l0 17.625q0 1.75 0.46875 2.359375q0.484375 0.609375 1.859375 0.609375l3.0625 0q1.53125 0 2.078125 -0.5625q0.5625 -0.578125 0.5625 -2.40625l0 -17.1875q0 -2.6875 -0.53125 -3.640625q-0.53125 -0.96875 -2.109375 -1.234375l0 -1.109375l13.625 0l0 1.109375q-1.5625 0.234375 -2.09375 1.171875q-0.515625 0.921875 -0.515625 3.5l0 17.390625q0 1.859375 0.5 2.421875q0.515625 0.546875 2.109375 0.546875l2.84375 0q1.53125 0 2.046875 -0.515625q0.53125 -0.53125 0.53125 -2.328125l0 -17.515625q0 -2.546875 -0.5 -3.46875q-0.484375 -0.9375 -2.078125 -1.203125l0 -1.109375l14.140625 0l0 1.109375q-1.859375 0.0625 -2.53125 0.921875q-0.65625 0.84375 -0.65625 3.75l0 17.09375q0 2.453125 0.796875 3.234375q0.796875 0.78125 2.390625 0.78125l0 1.109375l-47.53125 0zm64.55682 1.140625l-9.03125 -20.75q-2.046875 -4.703125 -3.015625 -5.78125q-0.96875 -1.078125 -2.34375 -1.5l0 -1.109375l14.875 0l0 1.109375q-1.46875 0.0625 -2.0625 0.578125q-0.59375 0.5 -0.59375 1.21875q0 1.140625 1.484375 4.484375l4.796875 10.96875l3.265625 -8.46875q1.765625 -4.53125 1.765625 -6.296875q0 -1.109375 -0.734375 -1.765625q-0.734375 -0.65625 -2.59375 -0.71875l0 -1.109375l9.375 0l0 1.109375q-1.375 0.15625 -2.25 1.0625q-0.859375 0.90625 -2.90625 6.21875l-7.984375 20.75q-3.03125 7.78125 -4.5 9.578125q-2.0625 2.515625 -5.171875 2.515625q-2.484375 0 -4.03125 -1.421875q-1.546875 -1.421875 -1.546875 -3.421875q0 -1.75 1.0625 -2.890625q1.0625 -1.125 2.625 -1.125q1.5 0 2.40625 0.953125q0.921875 0.953125 0.953125 2.96875q0.03125 1.140625 0.265625 1.46875q0.234375 0.328125 0.6875 0.328125q0.71875 0 1.53125 -0.875q1.1875 -1.25 2.8125 -5.75l0.859375 -2.328125zm17.882812 -1.140625l0 -1.109375q2.09375 0 2.609375 -1.140625q0.53125 -1.15625 0.53125 -2.90625l0 -17.296875q0 -2.484375 -0.609375 -3.40625q-0.609375 -0.9375 -2.53125 -1.03125l0 -1.109375l14.109375 0l0 1.109375q-1.46875 0.234375 -2.03125 1.171875q-0.546875 0.921875 -0.546875 3.265625l0 17.625q0 1.75 0.46875 2.359375q0.484375 0.609375 1.859375 0.609375l3.0625 0q1.53125 0 2.078125 -0.5625q0.5625 -0.578125 0.5625 -2.40625l0 -17.1875q0 -2.6875 -0.53125 -3.640625q-0.53125 -0.96875 -2.109375 -1.234375l0 -1.109375l13.625 0l0 1.109375q-1.5625 0.234375 -2.09375 1.171875q-0.515625 0.921875 -0.515625 3.5l0 17.390625q0 1.859375 0.5 2.421875q0.515625 0.546875 2.109375 0.546875l2.84375 0q1.53125 0 2.046875 -0.515625q0.53125 -0.53125 0.53125 -2.328125l0 -17.515625q0 -2.546875 -0.5 -3.46875q-0.484375 -0.9375 -2.078125 -1.203125l0 -1.109375l14.140625 0l0 1.109375q-1.859375 0.0625 -2.53125 0.921875q-0.65625 0.84375 -0.65625 3.75l0 16.828125q0 2.546875 0.734375 3.421875q0.734375 0.859375 2.453125 0.859375l0 8.46875l-1.140625 0q-0.328125 -3.59375 -2.5625 -5.484375q-2.234375 -1.875 -7.234375 -1.875l-36.59375 0zm68.6037 0l0 -1.109375q2.703125 0 2.703125 -4.015625l0 -13.703125l-8.03125 13.703125q0.03125 3.921875 2.71875 4.015625l0 1.109375l-14.25 0l0 -1.109375q1.703125 0 2.421875 -0.953125q0.71875 -0.96875 0.71875 -3.359375l0 -17.28125q0 -4.1875 -3.140625 -4.1875l0 -1.109375l14.25 0l0 1.109375q-1.546875 0.0625 -2.140625 0.90625q-0.578125 0.828125 -0.578125 3.28125l0 13.65625l8.03125 -13.890625q-0.03125 -2.21875 -0.671875 -3.078125q-0.625 -0.875 -2.03125 -0.875l0 -1.109375l14.25 0l0 1.109375q-1.609375 0.03125 -2.390625 0.8125q-0.78125 0.78125 -0.78125 2.984375l0 17.828125q0 2.484375 0.703125 3.328125q0.703125 0.828125 2.46875 0.828125l0 1.109375l-14.25 0zm42.163696 -15.0l-15.359375 0q0.265625 5.5625 2.96875 8.796875q2.0625 2.484375 4.96875 2.484375q1.796875 0 3.265625 -1.0q1.46875 -1.0 3.140625 -3.609375l1.015625 0.65625q-2.28125 4.640625 -5.03125 6.578125q-2.75 1.9375 -6.375 1.9375q-6.234375 0 -9.4375 -4.796875q-2.578125 -3.859375 -2.578125 -9.578125q0 -7.015625 3.78125 -11.15625q3.796875 -4.15625 8.890625 -4.15625q4.25 0 7.375 3.5q3.140625 3.484375 3.375 10.34375zm-7.359375 -2.015625q0 -4.8125 -0.53125 -6.609375q-0.515625 -1.796875 -1.625 -2.734375q-0.640625 -0.53125 -1.6875 -0.53125q-1.546875 0 -2.546875 1.53125q-1.765625 2.65625 -1.765625 7.296875l0 1.046875l8.15625 0z" fill-rule="nonzero"/><path fill="#000000" d="m596.86224 370.8861q1.734375 -0.125 2.421875 -0.90625q0.6875 -0.796875 0.6875 -3.171875l0 -17.78125q0 -2.125 -0.640625 -2.9375q-0.640625 -0.828125 -2.46875 -0.984375l0 -1.109375l24.609375 0l0 7.3125l-1.109375 0q-0.6875 -3.421875 -1.890625 -4.421875q-1.1875 -1.0 -4.578125 -1.0l-5.53125 0l0 21.109375q0 2.09375 0.6875 2.96875q0.6875 0.859375 2.78125 0.921875l0 1.109375l-14.96875 0l0 -1.109375zm39.431213 -27.734375q3.65625 0 6.796875 1.890625q3.15625 1.890625 4.78125 5.375q1.640625 3.46875 1.640625 7.59375q0 5.953125 -3.03125 9.96875q-3.65625 4.859375 -10.09375 4.859375q-6.3125 0 -9.734375 -4.4375q-3.40625 -4.4375 -3.40625 -10.265625q0 -6.03125 3.484375 -10.5q3.484375 -4.484375 9.5625 -4.484375zm0.125 2.125q-1.53125 0 -2.625 1.15625q-1.09375 1.15625 -1.4375 4.5625q-0.34375 3.390625 -0.34375 9.4375q0 3.203125 0.421875 6.0q0.328125 2.125 1.40625 3.234375q1.078125 1.09375 2.453125 1.09375q1.359375 0 2.25 -0.734375q1.171875 -1.03125 1.5625 -2.859375q0.59375 -2.84375 0.59375 -11.484375q0 -5.09375 -0.578125 -7.0q-0.5625 -1.90625 -1.671875 -2.765625q-0.765625 -0.640625 -2.03125 -0.640625zm31.808594 26.71875l0 -1.109375q1.484375 -0.03125 2.453125 -0.734375q0.984375 -0.703125 0.984375 -3.15625l0 -21.109375l-7.90625 0l0 12.25q0 6.609375 -0.65625 9.125q-0.65625 2.515625 -2.546875 3.875q-1.890625 1.34375 -4.015625 1.34375q-2.390625 0 -3.84375 -1.453125q-1.453125 -1.453125 -1.453125 -3.34375q0 -1.828125 1.0625 -2.96875q1.0625 -1.15625 2.734375 -1.15625q3.203125 0 3.203125 3.890625q0 1.765625 0.703125 1.765625q1.3125 0 2.03125 -2.1875q0.71875 -2.1875 0.71875 -8.890625l0 -8.15625q0 -2.75 -0.75 -3.765625q-0.75 -1.015625 -2.578125 -1.109375l0 -1.109375l24.671875 0l0 1.109375q-2.984375 0.0625 -2.984375 3.765625l0 18.0q0 2.078125 0.625 3.015625q0.625 0.9375 2.359375 1.0l0 1.109375l-14.8125 0zm32.3291 -28.84375q3.65625 0 6.796875 1.890625q3.15625 1.890625 4.78125 5.375q1.640625 3.46875 1.640625 7.59375q0 5.953125 -3.03125 9.96875q-3.65625 4.859375 -10.09375 4.859375q-6.3125 0 -9.734375 -4.4375q-3.40625 -4.4375 -3.40625 -10.265625q0 -6.03125 3.484375 -10.5q3.484375 -4.484375 9.5625 -4.484375zm0.125 2.125q-1.53125 0 -2.625 1.15625q-1.09375 1.15625 -1.4375 4.5625q-0.34375 3.390625 -0.34375 9.4375q0 3.203125 0.421875 6.0q0.328125 2.125 1.40625 3.234375q1.078125 1.09375 2.453125 1.09375q1.359375 0 2.25 -0.734375q1.171875 -1.03125 1.5625 -2.859375q0.59375 -2.84375 0.59375 -11.484375q0 -5.09375 -0.578125 -7.0q-0.5625 -1.90625 -1.671875 -2.765625q-0.765625 -0.640625 -2.03125 -0.640625zm15.933594 -1.28125l15.453125 0q4.84375 0 7.921875 1.75q3.09375 1.75 3.09375 5.203125q0 4.640625 -6.40625 6.25q8.65625 1.015625 8.65625 7.25q0 3.78125 -3.515625 5.671875q-3.5 1.875 -9.609375 1.875l-15.59375 0l0 -1.109375q2.0625 -0.203125 2.546875 -0.953125q0.5 -0.75 0.5 -2.9375l0 -16.6875q0 -3.375 -0.5625 -4.203125q-0.546875 -0.84375 -2.484375 -1.0l0 -1.109375zm11.859375 12.484375q7.125 -0.203125 7.125 -5.296875q0 -5.203125 -7.125 -5.296875l0 10.59375zm0 1.890625l0 9.1875q0 1.40625 0.4375 2.0q0.453125 0.578125 1.953125 0.578125q2.515625 0 4.28125 -1.765625q1.765625 -1.765625 1.765625 -4.484375q0 -2.875 -1.96875 -4.1875q-1.953125 -1.328125 -6.46875 -1.328125zm21.197693 -14.375l14.25 0l0 1.109375q-1.609375 0.0625 -2.171875 0.90625q-0.546875 0.828125 -0.546875 3.5625l0 6.875q3.359375 0 4.59375 -1.09375q1.25 -1.09375 2.375 -4.171875q1.59375 -4.34375 3.21875 -6.0q1.640625 -1.671875 4.453125 -1.671875q2.375 0 4.140625 1.34375q1.765625 1.328125 1.765625 3.515625q0 1.671875 -1.046875 2.859375q-1.03125 1.1875 -2.671875 1.1875q-3.390625 0 -3.4375 -3.484375q-0.03125 -2.421875 -1.046875 -2.421875q-1.53125 0 -3.09375 4.109375q-1.25 3.34375 -1.734375 4.21875q-0.484375 0.859375 -1.640625 1.90625q3.015625 0.609375 4.375 1.625q1.375 1.015625 3.578125 4.640625l2.671875 4.28125q2.09375 3.421875 4.40625 3.59375l0 1.109375l-10.78125 0l-8.328125 -13.625l-1.796875 0l0 7.78125q0 2.640625 0.625 3.640625q0.625 1.0 2.09375 1.09375l0 1.109375l-14.25 0l0 -1.109375q1.40625 -0.03125 2.265625 -0.75q0.875 -0.71875 0.875 -3.65625l0 -16.53125q0 -2.78125 -0.671875 -3.8125q-0.671875 -1.03125 -2.46875 -1.03125l0 -1.109375zm52.163696 28.0l0 -1.109375q2.703125 0 2.703125 -4.015625l0 -13.703125l-8.03125 13.703125q0.03125 3.921875 2.71875 4.015625l0 1.109375l-14.25 0l0 -1.109375q1.703125 0 2.421875 -0.953125q0.71875 -0.96875 0.71875 -3.359375l0 -17.28125q0 -4.1875 -3.140625 -4.1875l0 -1.109375l14.25 0l0 1.109375q-1.546875 0.0625 -2.140625 0.90625q-0.578125 0.828125 -0.578125 3.28125l0 13.65625l8.03125 -13.890625q-0.03125 -2.21875 -0.671875 -3.078125q-0.625 -0.875 -2.03125 -0.875l0 -1.109375l14.25 0l0 1.109375q-1.609375 0.03125 -2.390625 0.8125q-0.78125 0.78125 -0.78125 2.984375l0 17.828125q0 2.484375 0.703125 3.328125q0.703125 0.828125 2.46875 0.828125l0 1.109375l-14.25 0z" fill-rule="nonzero"/><path fill="#ffffff" d="m702.32117 235.66667l0 0c0 -2.2874146 1.8543701 -4.141739 4.1417847 -4.141739l0 0c1.0984497 0 2.1519165 0.4363556 2.92865 1.213089c0.77667236 0.77671814 1.2130737 1.8301849 1.2130737 2.92865l0 0c0 2.2874146 -1.8543091 4.1417236 -4.1417236 4.1417236l0 0c-2.2874146 0 -4.1417847 -1.8543091 -4.1417847 -4.1417236z" fill-rule="evenodd"/><path stroke="#000000" stroke-width="1.0" stroke-linejoin="round" stroke-linecap="butt" d="m702.32117 235.66667l0 0c0 -2.2874146 1.8543701 -4.141739 4.1417847 -4.141739l0 0c1.0984497 0 2.1519165 0.4363556 2.92865 1.213089c0.77667236 0.77671814 1.2130737 1.8301849 1.2130737 2.92865l0 0c0 2.2874146 -1.8543091 4.1417236 -4.1417236 4.1417236l0 0c-2.2874146 0 -4.1417847 -1.8543091 -4.1417847 -4.1417236z" fill-rule="evenodd"/><path fill="#ffffff" d="m702.32117 390.17322l0 0c0 -2.2874146 1.8543701 -4.1417236 4.1417847 -4.1417236l0 0c1.0984497 0 2.1519165 0.43637085 2.92865 1.2130737c0.77667236 0.7767334 1.2130737 1.8302002 1.2130737 2.92865l0 0c0 2.2874146 -1.8543091 4.141754 -4.1417236 4.141754l0 0c-2.2874146 0 -4.1417847 -1.8543396 -4.1417847 -4.141754z" fill-rule="evenodd"/><path stroke="#000000" stroke-width="1.0" stroke-linejoin="round" stroke-linecap="butt" d="m702.32117 390.17322l0 0c0 -2.2874146 1.8543701 -4.1417236 4.1417847 -4.1417236l0 0c1.0984497 0 2.1519165 0.43637085 2.92865 1.2130737c0.77667236 0.7767334 1.2130737 1.8302002 1.2130737 2.92865l0 0c0 2.2874146 -1.8543091 4.141754 -4.1417236 4.141754l0 0c-2.2874146 0 -4.1417847 -1.8543396 -4.1417847 -4.141754z" fill-rule="evenodd"/><path fill="#b6d7a8" d="m56.965878 236.13911l387.55905 0l0 153.95274l-387.55905 0z" fill-rule="evenodd"/><path stroke="#38761d" stroke-width="1.0" stroke-linejoin="round" stroke-linecap="butt" d="m56.965878 236.13911l387.55905 0l0 153.95274l-387.55905 0z" fill-rule="evenodd"/><path fill="#000000" d="m123.37868 257.3861l19.546875 0l0 1.109375q-3.921875 0 -4.796875 0.796875q-0.859375 0.796875 -0.859375 3.8125l0 28.65625q0 2.28125 0.28125 3.171875q0.28125 0.875 1.21875 1.40625q0.953125 0.515625 2.8125 0.515625q0.328125 0 1.34375 0.03125l0 1.109375l-21.109375 0l0 -1.109375q2.75 -0.0625 3.75 -0.421875q1.015625 -0.359375 1.484375 -1.28125q0.484375 -0.9375 0.484375 -2.78125l0 -13.125q-7.125 3.6875 -12.875 3.6875q-3.171875 0 -5.40625 -1.03125q-2.234375 -1.03125 -3.1875 -2.96875q-0.9375 -1.9375 -0.9375 -5.640625l0 -9.5q0 -3.40625 -1.203125 -4.359375q-1.1875 -0.96875 -4.359375 -0.96875l0 -1.109375l19.53125 0l0 1.109375q-1.984375 0 -3.09375 0.828125q-1.109375 0.828125 -1.109375 3.421875l0 10.90625q0 1.859375 0.296875 2.796875q0.3125 0.921875 1.46875 1.65625q1.171875 0.71875 3.03125 0.71875q3.765625 0 7.84375 -2.09375l0 -12.484375q0 -2.6875 -0.265625 -3.640625q-0.25 -0.96875 -1.15625 -1.53125q-0.890625 -0.578125 -2.734375 -0.578125l0 -1.109375zm39.789154 40.609375l0 -1.109375q2.703125 0 2.703125 -4.015625l0 -13.703125l-8.03125 13.703125q0.03125 3.921875 2.71875 4.015625l0 1.109375l-14.25 0l0 -1.109375q1.703125 0 2.421875 -0.953125q0.71875 -0.96875 0.71875 -3.359375l0 -17.28125q0 -4.1875 -3.140625 -4.1875l0 -1.109375l14.25 0l0 1.109375q-1.546875 0.0625 -2.140625 0.90625q-0.578125 0.828125 -0.578125 3.28125l0 13.65625l8.03125 -13.890625q-0.03125 -2.21875 -0.671875 -3.078125q-0.625 -0.875 -2.03125 -0.875l0 -1.109375l14.25 0l0 1.109375q-1.609375 0.03125 -2.390625 0.8125q-0.78125 0.78125 -0.78125 2.984375l0 17.828125q0 2.484375 0.703125 3.328125q0.703125 0.828125 2.46875 0.828125l0 1.109375l-14.25 0zm24.101166 0l0 -1.109375q1.796875 0 2.46875 -0.921875q0.6875 -0.9375 0.6875 -3.6875l0 -20.390625l-2.796875 0q-2.921875 0 -4.0625 1.046875q-1.140625 1.046875 -1.796875 4.375l-1.109375 0l0 -7.3125l27.90625 0l0 7.3125l-1.109375 0q-0.53125 -3.0 -1.578125 -4.203125q-1.046875 -1.21875 -4.234375 -1.21875l-2.84375 0l0 20.390625q0 2.84375 0.671875 3.71875q0.6875 0.859375 2.484375 0.890625l0 1.109375l-14.6875 0zm40.670624 -4.125q-5.125 4.515625 -9.1875 4.515625q-2.40625 0 -4.0 -1.5625q-1.578125 -1.578125 -1.578125 -3.953125q0 -3.203125 2.75 -5.765625q2.765625 -2.5625 12.015625 -6.8125l0 -2.8125q0 -3.171875 -0.34375 -3.984375q-0.34375 -0.828125 -1.3125 -1.4375q-0.953125 -0.625 -2.140625 -0.625q-1.953125 0 -3.203125 0.875q-0.78125 0.53125 -0.78125 1.25q0 0.625 0.84375 1.5625q1.125 1.28125 1.125 2.484375q0 1.46875 -1.09375 2.5q-1.09375 1.03125 -2.859375 1.03125q-1.875 0 -3.15625 -1.140625q-1.265625 -1.140625 -1.265625 -2.65625q0 -2.15625 1.703125 -4.109375q1.703125 -1.96875 4.75 -3.015625q3.0625 -1.0625 6.359375 -1.0625q3.984375 0 6.296875 1.703125q2.328125 1.6875 3.015625 3.65625q0.421875 1.265625 0.421875 5.78125l0 10.875q0 1.921875 0.140625 2.421875q0.15625 0.484375 0.453125 0.734375q0.296875 0.234375 0.6875 0.234375q0.78125 0 1.59375 -1.109375l0.890625 0.71875q-1.484375 2.21875 -3.09375 3.21875q-1.609375 1.0 -3.640625 1.0q-2.390625 0 -3.75 -1.125q-1.34375 -1.125 -1.640625 -3.390625zm0 -2.1875l0 -9.375q-3.625 2.125 -5.390625 4.546875q-1.171875 1.625 -1.171875 3.265625q0 1.375 1.0 2.421875q0.75 0.8125 2.09375 0.8125q1.5 0 3.46875 -1.671875zm31.601547 -9.140625q0.65625 -6.140625 4.171875 -9.765625q3.515625 -3.625 8.8125 -3.625q5.875 0 9.546875 4.1875q3.6875 4.171875 3.6875 10.671875q0 6.375 -3.578125 10.609375q-3.578125 4.21875 -9.53125 4.21875q-5.78125 0 -9.359375 -4.015625q-3.578125 -4.015625 -3.75 -10.390625l-4.7968597 0l0 8.328125q0 2.0625 0.671875 3.03125q0.67185974 0.96875 2.3281097 1.09375l0 1.109375l-14.374985 0l0 -1.109375q1.578125 -0.125 2.28125 -1.015625q0.703125 -0.90625 0.703125 -3.109375l0 -17.578125q0 -2.078125 -0.65625 -3.0q-0.65625 -0.921875 -2.328125 -1.078125l0 -1.109375l14.374985 0l0 1.109375q-2.9999847 0.203125 -2.9999847 4.078125l0 7.359375l4.7968597 0zm13.171875 -11.28125q-2.34375 0 -3.390625 2.421875q-1.046875 2.421875 -1.046875 10.125q0 7.84375 0.921875 10.390625q0.9375 2.546875 3.421875 2.546875q2.578125 0 3.453125 -2.734375q0.890625 -2.75 0.890625 -11.078125q0 -7.671875 -1.078125 -9.671875q-1.078125 -2.0 -3.171875 -2.0zm17.364532 26.734375l0 -1.109375q2.09375 0 2.609375 -1.140625q0.53125 -1.15625 0.53125 -2.90625l0 -17.296875q0 -2.484375 -0.609375 -3.40625q-0.609375 -0.9375 -2.53125 -1.03125l0 -1.109375l14.109375 0l0 1.109375q-1.46875 0.234375 -2.03125 1.171875q-0.546875 0.921875 -0.546875 3.265625l0 17.625q0 1.75 0.46875 2.359375q0.484375 0.609375 1.859375 0.609375l3.0625 0q1.53125 0 2.078125 -0.5625q0.5625 -0.578125 0.5625 -2.40625l0 -17.1875q0 -2.6875 -0.53125 -3.640625q-0.53125 -0.96875 -2.109375 -1.234375l0 -1.109375l13.625 0l0 1.109375q-1.5625 0.234375 -2.09375 1.171875q-0.515625 0.921875 -0.515625 3.5l0 17.390625q0 1.859375 0.5 2.421875q0.515625 0.546875 2.109375 0.546875l2.84375 0q1.53125 0 2.046875 -0.515625q0.53125 -0.53125 0.53125 -2.328125l0 -17.515625q0 -2.546875 -0.5 -3.46875q-0.484375 -0.9375 -2.078125 -1.203125l0 -1.109375l14.140625 0l0 1.109375q-1.859375 0.0625 -2.53125 0.921875q-0.65625 0.84375 -0.65625 3.75l0 16.828125q0 2.546875 0.734375 3.421875q0.734375 0.859375 2.453125 0.859375l0 8.46875l-1.140625 0q-0.328125 -3.59375 -2.5625 -5.484375q-2.234375 -1.875 -7.234375 -1.875l-36.59375 0zm68.6037 0l0 -1.109375q2.703125 0 2.703125 -4.015625l0 -13.703125l-8.03125 13.703125q0.03125 3.921875 2.71875 4.015625l0 1.109375l-14.25 0l0 -1.109375q1.703125 0 2.421875 -0.953125q0.71875 -0.96875 0.71875 -3.359375l0 -17.28125q0 -4.1875 -3.140625 -4.1875l0 -1.109375l14.25 0l0 1.109375q-1.546875 0.0625 -2.140625 0.90625q-0.578125 0.828125 -0.578125 3.28125l0 13.65625l8.03125 -13.890625q-0.03125 -2.21875 -0.671875 -3.078125q-0.625 -0.875 -2.03125 -0.875l0 -1.109375l14.25 0l0 1.109375q-1.609375 0.03125 -2.390625 0.8125q-0.78125 0.78125 -0.78125 2.984375l0 17.828125q0 2.484375 0.703125 3.328125q0.703125 0.828125 2.46875 0.828125l0 1.109375l-14.25 0zm42.163635 -15.0l-15.359375 0q0.265625 5.5625 2.96875 8.796875q2.0625 2.484375 4.96875 2.484375q1.796875 0 3.265625 -1.0q1.46875 -1.0 3.140625 -3.609375l1.015625 0.65625q-2.28125 4.640625 -5.03125 6.578125q-2.75 1.9375 -6.375 1.9375q-6.234375 0 -9.4375 -4.796875q-2.578125 -3.859375 -2.578125 -9.578125q0 -7.015625 3.78125 -11.15625q3.796875 -4.15625 8.890625 -4.15625q4.25 0 7.375 3.5q3.140625 3.484375 3.375 10.34375zm-7.359375 -2.015625q0 -4.8125 -0.53125 -6.609375q-0.515625 -1.796875 -1.625 -2.734375q-0.640625 -0.53125 -1.6875 -0.53125q-1.546875 0 -2.546875 1.53125q-1.765625 2.65625 -1.765625 7.296875l0 1.046875l8.15625 0z" fill-rule="nonzero"/><path fill="#000000" d="m141.14568 370.8861q1.734375 -0.125 2.421875 -0.90625q0.6875 -0.796875 0.6875 -3.171875l0 -17.78125q0 -2.125 -0.640625 -2.9375q-0.640625 -0.828125 -2.46875 -0.984375l0 -1.109375l24.609375 0l0 7.3125l-1.109375 0q-0.6875 -3.421875 -1.890625 -4.421875q-1.1875 -1.0 -4.578125 -1.0l-5.53125 0l0 21.109375q0 2.09375 0.6875 2.96875q0.6875 0.859375 2.78125 0.921875l0 1.109375l-14.96875 0l0 -1.109375zm39.43123 -27.734375q3.65625 0 6.796875 1.890625q3.15625 1.890625 4.78125 5.375q1.640625 3.46875 1.640625 7.59375q0 5.953125 -3.03125 9.96875q-3.65625 4.859375 -10.09375 4.859375q-6.3125 0 -9.734375 -4.4375q-3.40625 -4.4375 -3.40625 -10.265625q0 -6.03125 3.484375 -10.5q3.484375 -4.484375 9.5625 -4.484375zm0.125 2.125q-1.53125 0 -2.625 1.15625q-1.09375 1.15625 -1.4375 4.5625q-0.34375 3.390625 -0.34375 9.4375q0 3.203125 0.421875 6.0q0.328125 2.125 1.40625 3.234375q1.078125 1.09375 2.453125 1.09375q1.359375 0 2.25 -0.734375q1.171875 -1.03125 1.5625 -2.859375q0.59375 -2.84375 0.59375 -11.484375q0 -5.09375 -0.578125 -7.0q-0.5625 -1.90625 -1.671875 -2.765625q-0.765625 -0.640625 -2.03125 -0.640625zm31.808594 26.71875l0 -1.109375q1.484375 -0.03125 2.453125 -0.734375q0.984375 -0.703125 0.984375 -3.15625l0 -21.109375l-7.90625 0l0 12.25q0 6.609375 -0.65625 9.125q-0.65625 2.515625 -2.546875 3.875q-1.890625 1.34375 -4.015625 1.34375q-2.390625 0 -3.84375 -1.453125q-1.453125 -1.453125 -1.453125 -3.34375q0 -1.828125 1.0625 -2.96875q1.0625 -1.15625 2.734375 -1.15625q3.203125 0 3.203125 3.890625q0 1.765625 0.703125 1.765625q1.3125 0 2.03125 -2.1875q0.71875 -2.1875 0.71875 -8.890625l0 -8.15625q0 -2.75 -0.75 -3.765625q-0.75 -1.015625 -2.578125 -1.109375l0 -1.109375l24.671875 0l0 1.109375q-2.984375 0.0625 -2.984375 3.765625l0 18.0q0 2.078125 0.625 3.015625q0.625 0.9375 2.359375 1.0l0 1.109375l-14.8125 0zm32.329132 -28.84375q3.65625 0 6.796875 1.890625q3.15625 1.890625 4.78125 5.375q1.640625 3.46875 1.640625 7.59375q0 5.953125 -3.03125 9.96875q-3.65625 4.859375 -10.09375 4.859375q-6.3125 0 -9.734375 -4.4375q-3.40625 -4.4375 -3.40625 -10.265625q0 -6.03125 3.484375 -10.5q3.484375 -4.484375 9.5625 -4.484375zm0.125 2.125q-1.53125 0 -2.625 1.15625q-1.09375 1.15625 -1.4375 4.5625q-0.34375 3.390625 -0.34375 9.4375q0 3.203125 0.421875 6.0q0.328125 2.125 1.40625 3.234375q1.078125 1.09375 2.453125 1.09375q1.359375 0 2.25 -0.734375q1.171875 -1.03125 1.5625 -2.859375q0.59375 -2.84375 0.59375 -11.484375q0 -5.09375 -0.578125 -7.0q-0.5625 -1.90625 -1.671875 -2.765625q-0.765625 -0.640625 -2.03125 -0.640625zm15.933594 -1.28125l15.453125 0q4.84375 0 7.921875 1.75q3.09375 1.75 3.09375 5.203125q0 4.640625 -6.40625 6.25q8.65625 1.015625 8.65625 7.25q0 3.78125 -3.515625 5.671875q-3.5 1.875 -9.609375 1.875l-15.59375 0l0 -1.109375q2.0625 -0.203125 2.546875 -0.953125q0.5 -0.75 0.5 -2.9375l0 -16.6875q0 -3.375 -0.5625 -4.203125q-0.546875 -0.84375 -2.484375 -1.0l0 -1.109375zm11.859375 12.484375q7.125 -0.203125 7.125 -5.296875q0 -5.203125 -7.125 -5.296875l0 10.59375zm0 1.890625l0 9.1875q0 1.40625 0.4375 2.0q0.453125 0.578125 1.953125 0.578125q2.515625 0 4.28125 -1.765625q1.765625 -1.765625 1.765625 -4.484375q0 -2.875 -1.96875 -4.1875q-1.953125 -1.328125 -6.46875 -1.328125zm21.197693 -14.375l14.25 0l0 1.109375q-1.609375 0.0625 -2.171875 0.90625q-0.546875 0.828125 -0.546875 3.5625l0 6.875q3.359375 0 4.59375 -1.09375q1.25 -1.09375 2.375 -4.171875q1.59375 -4.34375 3.21875 -6.0q1.640625 -1.671875 4.453125 -1.671875q2.375 0 4.140625 1.34375q1.765625 1.328125 1.765625 3.515625q0 1.671875 -1.046875 2.859375q-1.03125 1.1875 -2.671875 1.1875q-3.390625 0 -3.4375 -3.484375q-0.03125 -2.421875 -1.046875 -2.421875q-1.53125 0 -3.09375 4.109375q-1.25 3.34375 -1.734375 4.21875q-0.484375 0.859375 -1.640625 1.90625q3.015625 0.609375 4.375 1.625q1.375 1.015625 3.578125 4.640625l2.671875 4.28125q2.09375 3.421875 4.40625 3.59375l0 1.109375l-10.78125 0l-8.328125 -13.625l-1.796875 0l0 7.78125q0 2.640625 0.625 3.640625q0.625 1.0 2.09375 1.09375l0 1.109375l-14.25 0l0 -1.109375q1.40625 -0.03125 2.265625 -0.75q0.875 -0.71875 0.875 -3.65625l0 -16.53125q0 -2.78125 -0.671875 -3.8125q-0.671875 -1.03125 -2.46875 -1.03125l0 -1.109375zm52.163666 28.0l0 -1.109375q2.703125 0 2.703125 -4.015625l0 -13.703125l-8.03125 13.703125q0.03125 3.921875 2.71875 4.015625l0 1.109375l-14.25 0l0 -1.109375q1.703125 0 2.421875 -0.953125q0.71875 -0.96875 0.71875 -3.359375l0 -17.28125q0 -4.1875 -3.140625 -4.1875l0 -1.109375l14.25 0l0 1.109375q-1.546875 0.0625 -2.140625 0.90625q-0.578125 0.828125 -0.578125 3.28125l0 13.65625l8.03125 -13.890625q-0.03125 -2.21875 -0.671875 -3.078125q-0.625 -0.875 -2.03125 -0.875l0 -1.109375l14.25 0l0 1.109375q-1.609375 0.03125 -2.390625 0.8125q-0.78125 0.78125 -0.78125 2.984375l0 17.828125q0 2.484375 0.703125 3.328125q0.703125 0.828125 2.46875 0.828125l0 1.109375l-14.25 0z" fill-rule="nonzero"/><path fill="#ffffff" d="m181.50755 390.17322l0 0c0 -2.2874146 1.8543091 -4.1417236 4.1417236 -4.1417236l0 0c1.098465 0 2.1519318 0.43637085 2.92865 1.2130737c0.7767334 0.7767334 1.213089 1.8302002 1.213089 2.92865l0 0c0 2.2874146 -1.8543243 4.141754 -4.141739 4.141754l0 0c-2.2874146 0 -4.1417236 -1.8543396 -4.1417236 -4.141754z" fill-rule="evenodd"/><path stroke="#000000" stroke-width="1.0" stroke-linejoin="round" stroke-linecap="butt" d="m181.50755 390.17322l0 0c0 -2.2874146 1.8543091 -4.1417236 4.1417236 -4.1417236l0 0c1.098465 0 2.1519318 0.43637085 2.92865 1.2130737c0.7767334 0.7767334 1.213089 1.8302002 1.213089 2.92865l0 0c0 2.2874146 -1.8543243 4.141754 -4.141739 4.141754l0 0c-2.2874146 0 -4.1417236 -1.8543396 -4.1417236 -4.141754z" fill-rule="evenodd"/><path fill="#ffffff" d="m306.50754 390.17322l0 0c0 -2.2874146 1.8543396 -4.1417236 4.141754 -4.1417236l0 0c1.0984497 0 2.1519165 0.43637085 2.92865 1.2130737c0.7767029 0.7767334 1.2130737 1.8302002 1.2130737 2.92865l0 0c0 2.2874146 -1.8543091 4.141754 -4.1417236 4.141754l0 0c-2.2874146 0 -4.141754 -1.8543396 -4.141754 -4.141754z" fill-rule="evenodd"/><path stroke="#000000" stroke-width="1.0" stroke-linejoin="round" stroke-linecap="butt" d="m306.50754 390.17322l0 0c0 -2.2874146 1.8543396 -4.1417236 4.141754 -4.1417236l0 0c1.0984497 0 2.1519165 0.43637085 2.92865 1.2130737c0.7767029 0.7767334 1.2130737 1.8302002 1.2130737 2.92865l0 0c0 2.2874146 -1.8543091 4.141754 -4.1417236 4.141754l0 0c-2.2874146 0 -4.141754 -1.8543396 -4.141754 -4.141754z" fill-rule="evenodd"/><path fill="#ffffff" d="m246.60466 235.66667l0 0c0 -2.2874146 1.8543243 -4.141739 4.141739 -4.141739l0 0c1.0984497 0 2.1519165 0.4363556 2.9286346 1.213089c0.7767334 0.77671814 1.213089 1.8301849 1.213089 2.92865l0 0c0 2.2874146 -1.8543091 4.1417236 -4.1417236 4.1417236l0 0c-2.2874146 0 -4.141739 -1.8543091 -4.141739 -4.1417236z" fill-rule="evenodd"/><path stroke="#000000" stroke-width="1.0" stroke-linejoin="round" stroke-linecap="butt" d="m246.60466 235.66667l0 0c0 -2.2874146 1.8543243 -4.141739 4.141739 -4.141739l0 0c1.0984497 0 2.1519165 0.4363556 2.9286346 1.213089c0.7767334 0.77671814 1.213089 1.8301849 1.213089 2.92865l0 0c0 2.2874146 -1.8543091 4.1417236 -4.1417236 4.1417236l0 0c-2.2874146 0 -4.141739 -1.8543091 -4.141739 -4.1417236z" fill-rule="evenodd"/><path fill="#cfe2f3" d="m56.965878 45.75853l843.2756 0l0 153.95276l-843.2756 0z" fill-rule="evenodd"/><path stroke="#4a86e8" stroke-width="1.0" stroke-linejoin="round" stroke-linecap="butt" d="m56.965878 45.75853l843.2756 0l0 153.95276l-843.2756 0z" fill-rule="evenodd"/><path fill="#000000" d="m395.99368 144.61491l0 -1.109375l1.296875 0q2.96875 0 3.671875 -1.25q0.71875 -1.265625 0.71875 -4.625l0 -30.984383l-14.34375 0l0 30.984383q0 3.9375 0.953125 4.90625q0.96875 0.96875 3.609375 0.96875l1.21875 0l0 1.109375l-21.21875 0l0 -1.109375l1.28125 0q2.671875 0 3.53125 -1.015625q0.875 -1.015625 0.875 -4.859375l0 -26.671883q0 -3.625 -0.8125 -4.734375q-0.8125 -1.109375 -3.59375 -1.109375l-1.28125 0l0 -1.109375l45.296875 0l0 1.109375l-1.078125 0q-2.875 0 -3.78125 1.140625q-0.890625 1.140625 -0.890625 4.703125l0 26.671883q0 3.9375 1.015625 4.90625q1.03125 0.96875 3.78125 0.96875l0.953125 0l0 1.109375l-21.203125 0zm39.890472 -4.125q-5.125 4.515625 -9.1875 4.515625q-2.40625 0 -4.0 -1.5625q-1.578125 -1.578125 -1.578125 -3.953125q0 -3.203125 2.75 -5.765625q2.765625 -2.5625 12.015625 -6.8125076l0 -2.8125q0 -3.171875 -0.34375 -3.984375q-0.34375 -0.828125 -1.3125 -1.4375q-0.953125 -0.625 -2.140625 -0.625q-1.953125 0 -3.203125 0.875q-0.78125 0.53125 -0.78125 1.25q0 0.625 0.84375 1.5625q1.125 1.28125 1.125 2.484375q0 1.46875 -1.09375 2.5q-1.09375 1.03125 -2.859375 1.03125q-1.875 0 -3.15625 -1.140625q-1.265625 -1.140625 -1.265625 -2.65625q0 -2.15625 1.703125 -4.109375q1.703125 -1.96875 4.75 -3.015625q3.0625 -1.0625 6.359375 -1.0625q3.984375 0 6.296875 1.703125q2.328125 1.6875 3.015625 3.65625q0.421875 1.265625 0.421875 5.78125l0 10.875008q0 1.921875 0.140625 2.421875q0.15625 0.484375 0.453125 0.734375q0.296875 0.234375 0.6875 0.234375q0.78125 0 1.59375 -1.109375l0.890625 0.71875q-1.484375 2.21875 -3.09375 3.21875q-1.609375 1.0 -3.640625 1.0q-2.390625 0 -3.75 -1.125q-1.34375 -1.125 -1.640625 -3.390625zm0 -2.1875l0 -9.375q-3.625 2.125 -5.390625 4.546875q-1.171875 1.625 -1.171875 3.265625q0 1.375 1.0 2.421875q0.75 0.8125 2.09375 0.8125q1.5 0 3.46875 -1.671875zm15.3359375 -21.687508l11.703125 0l7.09375 17.375008l7.109375 -17.375008l11.40625 0l0 1.109375q-1.65625 0.09375 -2.34375 0.984375q-0.6875 0.875 -0.6875 3.140625l0 17.406258q0 2.359375 0.640625 3.265625q0.65625 0.890625 2.390625 0.984375l0 1.109375l-14.765625 0l0 -1.109375q1.859375 -0.03125 2.609375 -0.984375q0.75 -0.953125 0.75 -3.265625l0 -17.937508l-9.765625 23.296883l-1.53125 0l-9.453125 -22.968758l0 18.093758q0 1.9375 0.65625 2.8125q0.65625 0.859375 2.578125 0.953125l0 1.109375l-8.390625 0l0 -1.109375q1.671875 -0.0625 2.375 -0.9375q0.703125 -0.890625 0.703125 -3.046875l0 -17.875008q0 -2.0625 -0.6875 -2.9375q-0.6875 -0.890625 -2.390625 -0.984375l0 -1.109375zm70.43005 0l0 1.109375q-1.40625 0 -2.171875 0.75q-0.765625 0.75 -0.765625 3.59375l0 15.953133q0 3.125 0.65625 4.25q0.671875 1.109375 2.28125 1.234375l0 1.109375l-14.28125 0l0 -1.109375q2.96875 -0.140625 2.96875 -5.03125l0 -6.5q-1.078125 0.0625 -1.234375 0.0625q-0.453125 0 -1.40625 -0.0625l-4.765625 12.640625l-11.078125 0l0 -1.109375q3.265625 -0.03125 4.640625 -3.71875l3.234375 -8.703125q-6.34375 -1.984375 -6.34375 -7.1250076q0 -2.640625 1.671875 -4.5q1.671875 -1.859375 3.9375 -2.34375q2.265625 -0.5 8.015625 -0.5l14.640625 0zm-11.3125 2.3125q-1.78125 -0.421875 -2.96875 -0.421875q-2.546875 0 -3.859375 1.546875q-1.296875 1.53125 -1.296875 3.875q0 2.875 1.796875 4.5625076q1.796875 1.6875 5.359375 1.6875q0.328125 0 0.96875 -0.03125l0 -11.218758zm21.367004 25.687508l0 -1.109375q1.796875 0 2.46875 -0.921875q0.6875 -0.9375 0.6875 -3.6875l0 -20.390633l-2.796875 0q-2.921875 0 -4.0625 1.046875q-1.140625 1.046875 -1.796875 4.375l-1.109375 0l0 -7.3125l27.90625 0l0 7.3125l-1.109375 0q-0.53125 -3.0 -1.578125 -4.203125q-1.046875 -1.21875 -4.234375 -1.21875l-2.84375 0l0 20.390633q0 2.84375 0.671875 3.71875q0.6875 0.859375 2.484375 0.890625l0 1.109375l-14.6875 0zm24.71875 0l0 -1.109375q1.734375 -0.234375 2.34375 -1.140625q0.609375 -0.921875 0.609375 -3.375l0 -16.921883q0 -2.28125 -0.640625 -3.171875q-0.640625 -0.90625 -2.3125 -1.171875l0 -1.109375l14.3125 0l0 1.109375q-1.796875 0.265625 -2.390625 1.25q-0.578125 0.96875 -0.578125 3.515625l0 6.6718826l2.15625 0q7.3125 0 11.015625 2.078125q3.71875 2.078125 3.71875 5.765625q0 3.484375 -3.296875 5.546875q-3.296875 2.0625 -9.765625 2.0625l-15.171875 0zm11.34375 -13.5625l0 8.71875q0 2.03125 0.671875 2.515625q0.671875 0.46875 1.625 0.46875q2.34375 0 4.0625 -1.59375q1.71875 -1.609375 1.71875 -4.328125q0 -5.78125 -8.078125 -5.78125z" fill-rule="nonzero"/><path fill="#ffffff" d="m702.32117 200.16798l0 0c0 -2.2874146 1.8543701 -4.141739 4.1417847 -4.141739l0 0c1.0984497 0 2.1519165 0.4363556 2.92865 1.213089c0.77667236 0.77671814 1.2130737 1.8301849 1.2130737 2.92865l0 0c0 2.2874146 -1.8543091 4.1417236 -4.1417236 4.1417236l0 0c-2.2874146 0 -4.1417847 -1.8543091 -4.1417847 -4.1417236z" fill-rule="evenodd"/><path stroke="#000000" stroke-width="1.0" stroke-linejoin="round" stroke-linecap="butt" d="m702.32117 200.16798l0 0c0 -2.2874146 1.8543701 -4.141739 4.1417847 -4.141739l0 0c1.0984497 0 2.1519165 0.4363556 2.92865 1.213089c0.77667236 0.77671814 1.2130737 1.8301849 1.2130737 2.92865l0 0c0 2.2874146 -1.8543091 4.1417236 -4.1417236 4.1417236l0 0c-2.2874146 0 -4.1417847 -1.8543091 -4.1417847 -4.1417236z" fill-rule="evenodd"/><path fill="#ffffff" d="m246.60466 200.16798l0 0c0 -2.2874146 1.8543243 -4.141739 4.141739 -4.141739l0 0c1.0984497 0 2.1519165 0.4363556 2.9286346 1.213089c0.7767334 0.77671814 1.213089 1.8301849 1.213089 2.92865l0 0c0 2.2874146 -1.8543091 4.1417236 -4.1417236 4.1417236l0 0c-2.2874146 0 -4.141739 -1.8543091 -4.141739 -4.1417236z" fill-rule="evenodd"/><path stroke="#000000" stroke-width="1.0" stroke-linejoin="round" stroke-linecap="butt" d="m246.60466 200.16798l0 0c0 -2.2874146 1.8543243 -4.141739 4.141739 -4.141739l0 0c1.0984497 0 2.1519165 0.4363556 2.9286346 1.213089c0.7767334 0.77671814 1.213089 1.8301849 1.213089 2.92865l0 0c0 2.2874146 -1.8543091 4.1417236 -4.1417236 4.1417236l0 0c-2.2874146 0 -4.141739 -1.8543091 -4.141739 -4.1417236z" fill-rule="evenodd"/><path fill="#000000" fill-opacity="0.0" d="m250.7464 204.30971l0 27.2126" fill-rule="evenodd"/><path stroke="#000000" stroke-width="2.0" stroke-linejoin="round" stroke-linecap="butt" d="m250.74638 204.30971l0 15.212601" fill-rule="evenodd"/><path fill="#000000" stroke="#000000" stroke-width="2.0" stroke-linecap="butt" d="m247.44293 219.52231l3.3034515 9.076202l3.3034668 -9.076202z" fill-rule="evenodd"/><path fill="#000000" fill-opacity="0.0" d="m706.46295 425.51968l0 -31.212585" fill-rule="evenodd"/><path stroke="#000000" stroke-width="2.0" stroke-linejoin="round" stroke-linecap="butt" d="m706.46295 425.51968l0 -19.212585" fill-rule="evenodd"/><path fill="#000000" stroke="#000000" stroke-width="2.0" stroke-linecap="butt" d="m709.7664 406.3071l-3.3034668 -9.076202l-3.3034668 9.076202z" fill-rule="evenodd"/><path fill="#b6d7a8" d="m58.362206 429.7454l843.27563 0l0 153.95279l-843.27563 0z" fill-rule="evenodd"/><path stroke="#38761d" stroke-width="1.0" stroke-linejoin="round" stroke-linecap="butt" d="m58.362206 429.7454l843.27563 0l0 153.95279l-843.27563 0z" fill-rule="evenodd"/><path fill="#000000" d="m315.05328 487.9924l21.15625 0l0 1.109375l-0.703125 0q-2.984375 0 -4.0 1.09375q-1.0 1.09375 -1.0 4.15625l0 12.125q4.203125 0 5.453125 -0.28125q1.265625 -0.296875 2.34375 -1.65625q1.078125 -1.359375 2.0625 -5.25q1.171875 -4.5625 2.265625 -6.828125q1.09375 -2.28125 3.015625 -3.609375q1.9375 -1.328125 4.84375 -1.328125q2.875 0 4.609375 1.625q1.734375 1.625 1.734375 4.03125q0 1.859375 -1.171875 2.9375q-1.15625 1.078125 -2.90625 1.078125q-3.40625 0 -3.671875 -3.953125q-0.125 -1.984375 -1.390625 -1.984375q-1.34375 0 -2.296875 1.53125q-0.953125 1.53125 -2.0625 5.484375q-1.078125 3.859375 -1.859375 5.796875q-0.78125 1.921875 -2.21875 3.234375q1.921875 0.484375 2.953125 1.265625q1.03125 0.78125 1.859375 2.03125q0.84375 1.234375 3.609375 6.2969055l4.125 7.359375q0.953125 1.65625 2.28125 2.453125q1.34375 0.78125 3.234375 0.78125l0 1.109375l-13.59375 0l-8.359375 -15.578125q-1.4375 -2.6250305 -2.109375 -3.1719055q-0.671875 -0.5625 -2.75 -0.65625l0 13.7500305q0 2.9375 1.21875 3.75q1.21875 0.796875 4.484375 0.796875l0 1.109375l-21.15625 0l0 -1.109375q3.515625 -0.0625 4.609375 -1.03125q1.09375 -0.96875 1.09375 -4.171875l0 -27.171906q0 -3.5625 -0.875 -4.78125q-0.875 -1.234375 -3.953125 -1.234375l-0.875 0l0 -1.109375zm55.42984 11.765625q3.65625 0 6.796875 1.890625q3.15625 1.890625 4.78125 5.375q1.640625 3.46875 1.640625 7.5937805q0 5.953125 -3.03125 9.96875q-3.65625 4.859375 -10.09375 4.859375q-6.3125 0 -9.734375 -4.4375q-3.40625 -4.4375 -3.40625 -10.265625q0 -6.0312805 3.484375 -10.5000305q3.484375 -4.484375 9.5625 -4.484375zm0.125 2.125q-1.53125 0 -2.625 1.15625q-1.09375 1.15625 -1.4375 4.5625q-0.34375 3.390625 -0.34375 9.4375305q0 3.203125 0.421875 6.0q0.328125 2.125 1.40625 3.234375q1.078125 1.09375 2.453125 1.09375q1.359375 0 2.25 -0.734375q1.171875 -1.03125 1.5625 -2.859375q0.59375 -2.84375 0.59375 -11.484375q0 -5.0937805 -0.578125 -7.0000305q-0.5625 -1.90625 -1.671875 -2.765625q-0.765625 -0.640625 -2.03125 -0.640625zm17.367188 26.71878l0 -1.109375q1.734375 0 2.4375 -0.875q0.703125 -0.890625 0.703125 -3.375l0 -17.18753q0 -2.640625 -0.6875 -3.484375q-0.6875 -0.859375 -2.453125 -0.859375l0 -1.109375l14.25 0l0 1.109375q-1.484375 0.0625 -2.109375 0.78125q-0.609375 0.71875 -0.609375 3.265625l0 7.3906555l8.03125 0l0 -7.3906555q0 -2.09375 -0.453125 -3.0625q-0.453125 -0.984375 -2.25 -0.984375l0 -1.109375l14.21875 0l0 1.109375q-1.734375 0 -2.4375 0.859375q-0.703125 0.84375 -0.703125 2.859375l0 17.81253q0 2.640625 0.6875 3.421875q0.6875 0.765625 2.453125 0.828125l0 1.109375l-14.21875 0l0 -1.109375q1.5 -0.03125 2.09375 -0.703125q0.609375 -0.671875 0.609375 -3.34375l0 -8.40625l-8.03125 0l0 8.203125q0 2.671875 0.609375 3.46875q0.625 0.78125 2.109375 0.78125l0 1.109375l-14.25 0zm40.96051 0l0 -1.109375q1.796875 0 2.46875 -0.921875q0.6875 -0.9375 0.6875 -3.6875l0 -20.390656l-2.796875 0q-2.921875 0 -4.0625 1.046875q-1.140625 1.046875 -1.796875 4.375l-1.109375 0l0 -7.3125l27.90625 0l0 7.3125l-1.109375 0q-0.53125 -3.0 -1.578125 -4.203125q-1.046875 -1.21875 -4.234375 -1.21875l-2.84375 0l0 20.390656q0 2.84375 0.671875 3.71875q0.6875 0.859375 2.484375 0.890625l0 1.109375l-14.6875 0zm36.06128 -2.84375l0 10.421875q0 2.15625 0.34375 2.9375q0.34375 0.78125 1.0625 1.140625q0.71875 0.359375 2.8125 0.359375l0 1.09375l-15.953125 0l0 -1.09375q1.859375 -0.0625 2.75 -1.0625q0.59375 -0.6875 0.59375 -3.5625l0 -29.546906q0 -2.96875 -0.6875 -3.78125q-0.6875 -0.828125 -2.65625 -0.953125l0 -1.109375l11.734375 0l0 3.6875q1.46875 -2.15625 3.0 -3.125q2.1875 -1.40625 4.75 -1.40625q3.09375 0 5.625 1.953125q2.53125 1.953125 3.84375 5.375q1.3125 3.421875 1.3125 7.3750305q0 4.265625 -1.359375 7.78125q-1.359375 3.515625 -3.953125 5.359375q-2.59375 1.84375 -5.765625 1.84375q-2.296875 0 -4.3125 -1.015625q-1.5 -0.78125 -3.140625 -2.671875zm0 -3.03125q2.578125 3.65625 5.515625 3.65625q1.609375 0 2.65625 -1.703125q1.5625 -2.515625 1.5625 -9.578125q0 -7.2500305 -1.703125 -9.9219055q-1.140625 -1.765625 -3.0625 -1.765625q-3.015625 0 -4.96875 4.375l0 14.9375305zm36.467163 -22.96878q3.65625 0 6.796875 1.890625q3.15625 1.890625 4.7812195 5.375q1.640625 3.46875 1.640625 7.5937805q0 5.953125 -3.0312195 9.96875q-3.65625 4.859375 -10.09375 4.859375q-6.3125 0 -9.734375 -4.4375q-3.40625 -4.4375 -3.40625 -10.265625q0 -6.0312805 3.484375 -10.5000305q3.484375 -4.484375 9.5625 -4.484375zm0.125 2.125q-1.53125 0 -2.625 1.15625q-1.09375 1.15625 -1.4375 4.5625q-0.34375 3.390625 -0.34375 9.4375305q0 3.203125 0.421875 6.0q0.328125 2.125 1.40625 3.234375q1.078125 1.09375 2.453125 1.09375q1.359375 0 2.25 -0.734375q1.171875 -1.03125 1.5625 -2.859375q0.59375 -2.84375 0.59375 -11.484375q0 -5.0937805 -0.578125 -7.0000305q-0.5625 -1.90625 -1.671875 -2.765625q-0.765625 -0.640625 -2.03125 -0.640625zm31.808563 26.71878l0 -1.109375q1.484375 -0.03125 2.453125 -0.734375q0.984375 -0.703125 0.984375 -3.15625l0 -21.109406l-7.90625 0l0 12.2500305q0 6.609375 -0.65625 9.125q-0.65625 2.515625 -2.546875 3.875q-1.890625 1.34375 -4.015625 1.34375q-2.390625 0 -3.84375 -1.453125q-1.453125 -1.453125 -1.453125 -3.34375q0 -1.828125 1.0625 -2.96875q1.0625 -1.15625 2.734375 -1.15625q3.203125 0 3.203125 3.890625q0 1.765625 0.703125 1.765625q1.3125 0 2.03125 -2.1875q0.71875 -2.1875 0.71875 -8.890625l0 -8.1562805q0 -2.75 -0.75 -3.765625q-0.75 -1.015625 -2.578125 -1.109375l0 -1.109375l24.671875 0l0 1.109375q-2.984375 0.0625 -2.984375 3.765625l0 18.00003q0 2.078125 0.625 3.015625q0.625 0.9375 2.359375 1.0l0 1.109375l-14.8125 0zm34.407227 0l0 -1.109375q1.484375 -0.03125 2.453125 -0.734375q0.984375 -0.703125 0.984375 -3.15625l0 -21.109406l-7.90625 0l0 12.2500305q0 6.609375 -0.65625 9.125q-0.65625 2.515625 -2.546875 3.875q-1.890625 1.34375 -4.015625 1.34375q-2.390625 0 -3.84375 -1.453125q-1.453125 -1.453125 -1.453125 -3.34375q0 -1.828125 1.0625 -2.96875q1.0625 -1.15625 2.734375 -1.15625q3.203125 0 3.203125 3.890625q0 1.765625 0.703125 1.765625q1.3125 0 2.03125 -2.1875q0.71875 -2.1875 0.71875 -8.890625l0 -8.1562805q0 -2.75 -0.75 -3.765625q-0.75 -1.015625 -2.578125 -1.109375l0 -1.109375l24.671875 0l0 1.109375q-2.984375 0.0625 -2.984375 3.765625l0 18.00003q0 2.078125 0.625 3.015625q0.625 0.9375 2.359375 1.0l0 1.109375l-14.8125 0zm42.844727 -15.0l-15.359375 0q0.265625 5.5625 2.96875 8.796875q2.0625 2.484375 4.96875 2.484375q1.796875 0 3.265625 -1.0q1.46875 -1.0 3.140625 -3.609375l1.015625 0.65625q-2.28125 4.640625 -5.03125 6.578125q-2.75 1.9375 -6.375 1.9375q-6.234375 0 -9.4375 -4.796875q-2.578125 -3.859375 -2.578125 -9.578125q0 -7.0156555 3.78125 -11.1562805q3.796875 -4.15625 8.890625 -4.15625q4.25 0 7.375 3.5q3.140625 3.484375 3.375 10.3437805zm-7.359375 -2.0156555q0 -4.8125 -0.53125 -6.609375q-0.515625 -1.796875 -1.625 -2.734375q-0.640625 -0.53125 -1.6875 -0.53125q-1.546875 0 -2.546875 1.53125q-1.765625 2.65625 -1.765625 7.296875l0 1.046875l8.15625 0zm21.704712 14.1719055l0 10.421875q0 2.15625 0.34375 2.9375q0.34375 0.78125 1.0625 1.140625q0.71875 0.359375 2.8125 0.359375l0 1.09375l-15.953125 0l0 -1.09375q1.859375 -0.0625 2.75 -1.0625q0.59375 -0.6875 0.59375 -3.5625l0 -29.546906q0 -2.96875 -0.6875 -3.78125q-0.6875 -0.828125 -2.65625 -0.953125l0 -1.109375l11.734375 0l0 3.6875q1.46875 -2.15625 3.0 -3.125q2.1875 -1.40625 4.75 -1.40625q3.09375 0 5.625 1.953125q2.53125 1.953125 3.84375 5.375q1.3125 3.421875 1.3125 7.3750305q0 4.265625 -1.359375 7.78125q-1.359375 3.515625 -3.953125 5.359375q-2.59375 1.84375 -5.765625 1.84375q-2.296875 0 -4.3125 -1.015625q-1.5 -0.78125 -3.140625 -2.671875zm0 -3.03125q2.578125 3.65625 5.515625 3.65625q1.609375 0 2.65625 -1.703125q1.5625 -2.515625 1.5625 -9.578125q0 -7.2500305 -1.703125 -9.9219055q-1.140625 -1.765625 -3.0625 -1.765625q-3.015625 0 -4.96875 4.375l0 14.9375305z" fill-rule="nonzero"/><path fill="#ffffff" d="m181.50755 429.6614l0 0c0 -2.2874146 1.8543091 -4.1417236 4.1417236 -4.1417236l0 0c1.098465 0 2.1519318 0.43637085 2.92865 1.2130737c0.7767334 0.7767334 1.213089 1.8302002 1.213089 2.92865l0 0c0 2.2874146 -1.8543243 4.141754 -4.141739 4.141754l0 0c-2.2874146 0 -4.1417236 -1.8543396 -4.1417236 -4.141754z" fill-rule="evenodd"/><path stroke="#000000" stroke-width="1.0" stroke-linejoin="round" stroke-linecap="butt" d="m181.50755 429.6614l0 0c0 -2.2874146 1.8543091 -4.1417236 4.1417236 -4.1417236l0 0c1.098465 0 2.1519318 0.43637085 2.92865 1.2130737c0.7767334 0.7767334 1.213089 1.8302002 1.213089 2.92865l0 0c0 2.2874146 -1.8543243 4.141754 -4.141739 4.141754l0 0c-2.2874146 0 -4.1417236 -1.8543396 -4.1417236 -4.141754z" fill-rule="evenodd"/><path fill="#ffffff" d="m306.50754 429.6614l0 0c0 -2.2874146 1.8543396 -4.1417236 4.141754 -4.1417236l0 0c1.0984497 0 2.1519165 0.43637085 2.92865 1.2130737c0.7767029 0.7767334 1.2130737 1.8302002 1.2130737 2.92865l0 0c0 2.2874146 -1.8543091 4.141754 -4.1417236 4.141754l0 0c-2.2874146 0 -4.141754 -1.8543396 -4.141754 -4.141754z" fill-rule="evenodd"/><path stroke="#000000" stroke-width="1.0" stroke-linejoin="round" stroke-linecap="butt" d="m306.50754 429.6614l0 0c0 -2.2874146 1.8543396 -4.1417236 4.141754 -4.1417236l0 0c1.0984497 0 2.1519165 0.43637085 2.92865 1.2130737c0.7767029 0.7767334 1.2130737 1.8302002 1.2130737 2.92865l0 0c0 2.2874146 -1.8543091 4.141754 -4.1417236 4.141754l0 0c-2.2874146 0 -4.141754 -1.8543396 -4.141754 -4.141754z" fill-rule="evenodd"/><path fill="#ffffff" d="m702.32117 429.6614l0 0c0 -2.2874146 1.8543701 -4.1417236 4.1417847 -4.1417236l0 0c1.0984497 0 2.1519165 0.43637085 2.92865 1.2130737c0.77667236 0.7767334 1.2130737 1.8302002 1.2130737 2.92865l0 0c0 2.2874146 -1.8543091 4.141754 -4.1417236 4.141754l0 0c-2.2874146 0 -4.1417847 -1.8543396 -4.1417847 -4.141754z" fill-rule="evenodd"/><path stroke="#000000" stroke-width="1.0" stroke-linejoin="round" stroke-linecap="butt" d="m702.32117 429.6614l0 0c0 -2.2874146 1.8543701 -4.1417236 4.1417847 -4.1417236l0 0c1.0984497 0 2.1519165 0.43637085 2.92865 1.2130737c0.77667236 0.7767334 1.2130737 1.8302002 1.2130737 2.92865l0 0c0 2.2874146 -1.8543091 4.141754 -4.1417236 4.141754l0 0c-2.2874146 0 -4.1417847 -1.8543396 -4.1417847 -4.141754z" fill-rule="evenodd"/><path fill="#ffffff" d="m246.60466 583.74805l0 0c0 -2.2874146 1.8543243 -4.1417236 4.141739 -4.1417236l0 0c1.0984497 0 2.1519165 0.43634033 2.9286346 1.2130737c0.7767334 0.7767334 1.213089 1.8302002 1.213089 2.92865l0 0c0 2.2874146 -1.8543091 4.1417236 -4.1417236 4.1417236l0 0c-2.2874146 0 -4.141739 -1.8543091 -4.141739 -4.1417236z" fill-rule="evenodd"/><path stroke="#000000" stroke-width="1.0" stroke-linejoin="round" stroke-linecap="butt" d="m246.60466 583.74805l0 0c0 -2.2874146 1.8543243 -4.1417236 4.141739 -4.1417236l0 0c1.0984497 0 2.1519165 0.43634033 2.9286346 1.2130737c0.7767334 0.7767334 1.213089 1.8302002 1.213089 2.92865l0 0c0 2.2874146 -1.8543091 4.1417236 -4.1417236 4.1417236l0 0c-2.2874146 0 -4.141739 -1.8543091 -4.141739 -4.1417236z" fill-rule="evenodd"/><path fill="#ffffff" d="m702.32117 583.7485l0 0c0 -2.2874146 1.8543701 -4.1417236 4.1417847 -4.1417236l0 0c1.0984497 0 2.1519165 0.43634033 2.92865 1.2130737c0.77667236 0.7767334 1.2130737 1.8302002 1.2130737 2.92865l0 0c0 2.2874146 -1.8543091 4.1417236 -4.1417236 4.1417236l0 0c-2.2874146 0 -4.1417847 -1.8543091 -4.1417847 -4.1417236z" fill-rule="evenodd"/><path stroke="#000000" stroke-width="1.0" stroke-linejoin="round" stroke-linecap="butt" d="m702.32117 583.7485l0 0c0 -2.2874146 1.8543701 -4.1417236 4.1417847 -4.1417236l0 0c1.0984497 0 2.1519165 0.43634033 2.92865 1.2130737c0.77667236 0.7767334 1.2130737 1.8302002 1.2130737 2.92865l0 0c0 2.2874146 -1.8543091 4.1417236 -4.1417236 4.1417236l0 0c-2.2874146 0 -4.1417847 -1.8543091 -4.1417847 -4.1417236z" fill-rule="evenodd"/><path fill="#000000" fill-opacity="0.0" d="m250.7464 717.5591l0 -129.66931" fill-rule="evenodd"/><path stroke="#000000" stroke-width="2.0" stroke-linejoin="round" stroke-linecap="butt" d="m250.74638 717.5591l0 -117.66931" fill-rule="evenodd"/><path fill="#000000" stroke="#000000" stroke-width="2.0" stroke-linecap="butt" d="m254.04985 599.8898l-3.3034668 -9.076172l-3.3034515 9.076172z" fill-rule="evenodd"/><path fill="#000000" fill-opacity="0.0" d="m706.46295 587.8902l0 130.17322" fill-rule="evenodd"/><path stroke="#000000" stroke-width="2.0" stroke-linejoin="round" stroke-linecap="butt" d="m706.46295 587.8902l0 118.17322" fill-rule="evenodd"/><path fill="#000000" stroke="#000000" stroke-width="2.0" stroke-linecap="butt" d="m703.1595 706.0634l3.3034668 9.076172l3.3034668 -9.076172z" fill-rule="evenodd"/><path fill="#000000" fill-opacity="0.0" d="m7.88189 647.9449l285.76376 0l0 53.322815l-285.76376 0z" fill-rule="evenodd"/><path fill="#000000" d="m29.335014 673.99677q2.640625 0.609375 3.703125 1.484375q1.53125 1.25 1.53125 3.234375q0 2.09375 -1.671875 3.453125q-2.0625 1.65625 -6.0 1.65625l-9.421875 0l0 -0.5q1.28125 0 1.734375 -0.234375q0.46875 -0.25 0.640625 -0.625q0.1875 -0.390625 0.1875 -1.890625l0 -12.03125q0 -1.515625 -0.1875 -1.890625q-0.171875 -0.390625 -0.640625 -0.625q-0.46875 -0.234375 -1.734375 -0.234375l0 -0.515625l8.875 0q3.1875 0 4.515625 0.578125q1.328125 0.5625 2.09375 1.6875q0.765625 1.125 0.765625 2.40625q0 1.34375 -0.96875 2.390625q-0.96875 1.03125 -3.421875 1.65625zm-4.96875 -0.375q1.9375 0 2.859375 -0.4375q0.921875 -0.4375 1.40625 -1.21875q0.5 -0.796875 0.5 -2.03125q0 -1.234375 -0.484375 -2.015625q-0.484375 -0.78125 -1.390625 -1.1875q-0.90625 -0.421875 -2.890625 -0.40625l0 7.296875zm0 1.0625l0 5.953125l-0.015625 0.6875q0 0.734375 0.375 1.109375q0.375 0.375 1.109375 0.375q1.09375 0 2.015625 -0.484375q0.921875 -0.484375 1.40625 -1.40625q0.5 -0.921875 0.5 -2.0625q0 -1.296875 -0.609375 -2.328125q-0.59375 -1.03125 -1.640625 -1.4375q-1.046875 -0.40625 -3.140625 -0.40625zm19.322266 1.3125l2.21875 4.203125q1.15625 2.203125 1.8125 2.796875q0.375 0.3125 1.015625 0.328125l0 0.5l-7.125 0l0 -0.5q0.84375 -0.0625 1.03125 -0.203125q0.203125 -0.15625 0.203125 -0.421875q0 -0.375 -0.4375 -1.203125l-1.109375 -2.078125l-0.9375 1.390625q-0.640625 0.9375 -0.734375 1.109375q-0.109375 0.265625 -0.109375 0.46875q0 0.3125 0.125 0.53125q0.140625 0.203125 0.359375 0.3125q0.234375 0.09375 0.828125 0.09375l0 0.5l-5.0 0l0 -0.5q0.9375 0 1.703125 -0.5q0.78125 -0.515625 2.25 -2.6875l1.046875 -1.5625l-2.1875 -4.078125q-1.09375 -2.0 -1.625 -2.4375q-0.53125 -0.453125 -1.1875 -0.515625l0 -0.5l7.078125 0l0 0.5l-0.359375 0.015625l-0.71875 0.25q-0.109375 0.09375 -0.109375 0.3125q0 0.203125 0.078125 0.421875q0.03125 0.09375 0.375 0.734375l1.0 1.859375l0.515625 -0.734375q1.09375 -1.5 1.09375 -2.109375q0 -0.28125 -0.234375 -0.46875q-0.234375 -0.203125 -0.859375 -0.28125l0 -0.5l4.53125 0l0 0.5q-0.828125 0.03125 -1.5625 0.515625q-0.71875 0.484375 -1.625 1.875l-1.34375 2.0625zm11.402344 -5.34375q1.671875 0 3.109375 0.875q1.4375 0.859375 2.171875 2.453125q0.75 1.578125 0.75 3.453125q0 2.71875 -1.375 4.5625q-1.671875 2.21875 -4.609375 2.21875q-2.890625 0 -4.453125 -2.03125q-1.546875 -2.03125 -1.546875 -4.6875q0 -2.75 1.59375 -4.796875q1.59375 -2.046875 4.359375 -2.046875zm0.0625 0.96875q-0.703125 0 -1.203125 0.53125q-0.5 0.53125 -0.65625 2.078125q-0.15625 1.546875 -0.15625 4.3125q0 1.46875 0.1875 2.734375q0.15625 0.96875 0.640625 1.484375q0.5 0.5 1.125 0.5q0.625 0 1.03125 -0.34375q0.53125 -0.46875 0.703125 -1.296875q0.28125 -1.296875 0.28125 -5.25q0 -2.328125 -0.265625 -3.1875q-0.25 -0.875 -0.765625 -1.265625q-0.34375 -0.296875 -0.921875 -0.296875zm19.333984 -0.578125l0 0.5q-0.90625 0 -1.15625 0.46875q-0.25 0.46875 -0.25 1.234375l0 8.265625q0 1.109375 0.328125 1.453125q0.328125 0.328125 1.078125 0.359375l0 3.859375l-0.515625 0q-0.3125 -3.359375 -4.25 -3.359375l-3.703125 0q-3.796875 0 -4.203125 3.359375l-0.5 0l0 -3.859375q1.703125 -0.140625 2.671875 -3.09375q0.96875 -2.953125 0.96875 -6.3125q0 -1.0 -0.15625 -1.515625q-0.140625 -0.515625 -0.421875 -0.671875q-0.28125 -0.171875 -1.03125 -0.1875l0 -0.5l11.140625 0zm-5.234375 0.859375l-3.375 0l0 2.015625q0 5.890625 -2.15625 9.0625l4.21875 0q1.3125 0 1.3125 -1.625l0 -9.453125zm7.1796875 11.921875l0 -0.5q0.796875 0 1.109375 -0.40625q0.328125 -0.40625 0.328125 -1.546875l0 -7.84375q0 -1.203125 -0.3125 -1.59375q-0.3125 -0.390625 -1.125 -0.390625l0 -0.5l6.515625 0l0 0.5q-0.6875 0.03125 -0.96875 0.359375q-0.28125 0.328125 -0.28125 1.484375l0 3.375l3.671875 0l0 -3.375q0 -0.953125 -0.21875 -1.390625q-0.203125 -0.453125 -1.015625 -0.453125l0 -0.5l6.5 0l0 0.5q-0.796875 0 -1.125 0.390625q-0.3125 0.390625 -0.3125 1.3125l0 8.125q0 1.203125 0.3125 1.5625q0.3125 0.359375 1.125 0.390625l0 0.5l-6.5 0l0 -0.5q0.6875 -0.015625 0.953125 -0.328125q0.28125 -0.3125 0.28125 -1.53125l0 -3.828125l-3.671875 0l0 3.734375q0 1.21875 0.28125 1.59375q0.28125 0.359375 0.96875 0.359375l0 0.5l-6.515625 0zm36.023438 -12.78125l0 0.5q-1.390625 0.09375 -1.390625 1.859375l0 8.03125q0 0.9375 0.3125 1.390625q0.3125 0.4375 1.078125 0.5l0 0.5l-6.578125 0l0 -0.5q0.71875 -0.0625 1.03125 -0.46875q0.328125 -0.40625 0.328125 -1.421875l0 -8.03125q0 -0.9375 -0.296875 -1.359375q-0.296875 -0.421875 -1.0625 -0.5l0 -0.5l6.578125 0zm-19.78125 12.78125l0 -0.5q0.796875 -0.109375 1.078125 -0.53125q0.28125 -0.421875 0.28125 -1.546875l0 -7.71875q0 -1.03125 -0.296875 -1.4375q-0.296875 -0.421875 -1.0625 -0.546875l0 -0.5l6.546875 0l0 0.5q-0.828125 0.125 -1.09375 0.578125q-0.265625 0.4375 -0.265625 1.59375l0 3.046875l0.984375 0q3.328125 0 5.015625 0.953125q1.703125 0.953125 1.703125 2.640625q0 1.578125 -1.5 2.53125q-1.5 0.9375 -4.453125 0.9375l-6.9375 0zm5.1875 -6.1875l0 3.96875q0 0.9375 0.296875 1.15625q0.3125 0.21875 0.75 0.21875q1.078125 0 1.859375 -0.734375q0.78125 -0.734375 0.78125 -1.984375q0 -2.625 -3.6875 -2.625zm27.376953 -0.65625l-7.0 0q0.109375 2.53125 1.34375 4.015625q0.953125 1.125 2.265625 1.125q0.828125 0 1.5 -0.453125q0.671875 -0.453125 1.4375 -1.640625l0.453125 0.296875q-1.03125 2.125 -2.296875 3.015625q-1.25 0.875 -2.90625 0.875q-2.84375 0 -4.3125 -2.203125q-1.171875 -1.75 -1.171875 -4.375q0 -3.1875 1.734375 -5.078125q1.734375 -1.90625 4.046875 -1.90625q1.953125 0 3.375 1.59375q1.421875 1.59375 1.53125 4.734375zm-3.359375 -0.921875q0 -2.203125 -0.234375 -3.015625q-0.234375 -0.828125 -0.75 -1.25q-0.28125 -0.25 -0.765625 -0.25q-0.703125 0 -1.15625 0.703125q-0.8125 1.21875 -0.8125 3.328125l0 0.484375l3.71875 0z" fill-rule="nonzero"/><path fill="#000000" d="m145.23932 671.04364l0 0.5q-0.90625 0 -1.15625 0.46875q-0.25 0.46875 -0.25 1.234375l0 8.265625q0 1.109375 0.328125 1.453125q0.328125 0.328125 1.078125 0.359375l0 3.859375l-0.515625 0q-0.3125 -3.359375 -4.25 -3.359375l-3.703125 0q-3.796875 0 -4.203125 3.359375l-0.5 0l0 -3.859375q1.703125 -0.140625 2.671875 -3.09375q0.96875 -2.953125 0.96875 -6.3125q0 -1.0 -0.15625 -1.515625q-0.140625 -0.515625 -0.421875 -0.671875q-0.28125 -0.171875 -1.03125 -0.1875l0 -0.5l11.140625 0zm-5.234375 0.859375l-3.375 0l0 2.015625q0 5.890625 -2.15625 9.0625l4.21875 0q1.3125 0 1.3125 -1.625l0 -9.453125zm14.2265625 10.03125q-2.34375 2.0625 -4.203125 2.0625q-1.09375 0 -1.8125 -0.71875q-0.71875 -0.71875 -0.71875 -1.796875q0 -1.453125 1.25 -2.625q1.265625 -1.171875 5.484375 -3.109375l0 -1.28125q0 -1.453125 -0.15625 -1.828125q-0.15625 -0.375 -0.59375 -0.65625q-0.4375 -0.28125 -0.984375 -0.28125q-0.890625 0 -1.46875 0.390625q-0.359375 0.25 -0.359375 0.578125q0 0.28125 0.390625 0.703125q0.515625 0.59375 0.515625 1.140625q0 0.671875 -0.5 1.140625q-0.5 0.46875 -1.296875 0.46875q-0.859375 0 -1.453125 -0.515625q-0.578125 -0.515625 -0.578125 -1.21875q0 -0.984375 0.78125 -1.875q0.78125 -0.890625 2.171875 -1.375q1.390625 -0.484375 2.90625 -0.484375q1.8125 0 2.875 0.78125q1.0625 0.765625 1.375 1.671875q0.1875 0.578125 0.1875 2.640625l0 4.953125q0 0.875 0.0625 1.109375q0.078125 0.21875 0.203125 0.328125q0.140625 0.109375 0.328125 0.109375q0.34375 0 0.71875 -0.5l0.40625 0.328125q-0.671875 1.015625 -1.40625 1.46875q-0.734375 0.453125 -1.671875 0.453125q-1.09375 0 -1.703125 -0.5q-0.609375 -0.515625 -0.75 -1.5625zm0 -1.0l0 -4.28125q-1.65625 0.984375 -2.46875 2.078125q-0.53125 0.75 -0.53125 1.5q0 0.625 0.453125 1.109375q0.34375 0.359375 0.953125 0.359375q0.6875 0 1.59375 -0.765625zm6.953125 2.890625l0 -0.5q0.796875 0 1.109375 -0.40625q0.328125 -0.40625 0.328125 -1.546875l0 -7.84375q0 -1.203125 -0.3125 -1.59375q-0.3125 -0.390625 -1.125 -0.390625l0 -0.5l6.515625 0l0 0.5q-0.6875 0.03125 -0.96875 0.359375q-0.28125 0.328125 -0.28125 1.484375l0 3.375l3.671875 0l0 -3.375q0 -0.953125 -0.21875 -1.390625q-0.203125 -0.453125 -1.015625 -0.453125l0 -0.5l6.5 0l0 0.5q-0.796875 0 -1.125 0.390625q-0.3125 0.390625 -0.3125 1.3125l0 8.125q0 1.203125 0.3125 1.5625q0.3125 0.359375 1.125 0.390625l0 0.5l-6.5 0l0 -0.5q0.6875 -0.015625 0.953125 -0.328125q0.28125 -0.3125 0.28125 -1.53125l0 -3.828125l-3.671875 0l0 3.734375q0 1.21875 0.28125 1.59375q0.28125 0.359375 0.96875 0.359375l0 0.5l-6.515625 0zm16.132812 0l0 -0.5q0.796875 0 1.109375 -0.40625q0.328125 -0.40625 0.328125 -1.546875l0 -7.84375q0 -1.203125 -0.3125 -1.59375q-0.3125 -0.390625 -1.125 -0.390625l0 -0.5l6.515625 0l0 0.5q-0.6875 0.03125 -0.96875 0.359375q-0.28125 0.328125 -0.28125 1.484375l0 3.375l3.671875 0l0 -3.375q0 -0.953125 -0.21875 -1.390625q-0.203125 -0.453125 -1.015625 -0.453125l0 -0.5l6.5 0l0 0.5q-0.796875 0 -1.125 0.390625q-0.3125 0.390625 -0.3125 1.3125l0 8.125q0 1.203125 0.3125 1.5625q0.3125 0.359375 1.125 0.390625l0 0.5l-6.5 0l0 -0.5q0.6875 -0.015625 0.953125 -0.328125q0.28125 -0.3125 0.28125 -1.53125l0 -3.828125l-3.671875 0l0 3.734375q0 1.21875 0.28125 1.59375q0.28125 0.359375 0.96875 0.359375l0 0.5l-6.515625 0zm36.023438 -12.78125l0 0.5q-1.390625 0.09375 -1.390625 1.859375l0 8.03125q0 0.9375 0.3125 1.390625q0.3125 0.4375 1.078125 0.5l0 0.5l-6.578125 0l0 -0.5q0.71875 -0.0625 1.03125 -0.46875q0.328125 -0.40625 0.328125 -1.421875l0 -8.03125q0 -0.9375 -0.296875 -1.359375q-0.296875 -0.421875 -1.0625 -0.5l0 -0.5l6.578125 0zm-19.78125 12.78125l0 -0.5q0.796875 -0.109375 1.078125 -0.53125q0.28125 -0.421875 0.28125 -1.546875l0 -7.71875q0 -1.03125 -0.296875 -1.4375q-0.296875 -0.421875 -1.0625 -0.546875l0 -0.5l6.546875 0l0 0.5q-0.828125 0.125 -1.09375 0.578125q-0.265625 0.4375 -0.265625 1.59375l0 3.046875l0.984375 0q3.328125 0 5.015625 0.953125q1.703125 0.953125 1.703125 2.640625q0 1.578125 -1.5 2.53125q-1.5 0.9375 -4.453125 0.9375l-6.9375 0zm5.1875 -6.1875l0 3.96875q0 0.9375 0.296875 1.15625q0.3125 0.21875 0.75 0.21875q1.078125 0 1.859375 -0.734375q0.78125 -0.734375 0.78125 -1.984375q0 -2.625 -3.6875 -2.625zm27.376953 -0.65625l-7.0 0q0.109375 2.53125 1.34375 4.015625q0.953125 1.125 2.265625 1.125q0.828125 0 1.5 -0.453125q0.671875 -0.453125 1.4375 -1.640625l0.453125 0.296875q-1.03125 2.125 -2.296875 3.015625q-1.25 0.875 -2.90625 0.875q-2.84375 0 -4.3125 -2.203125q-1.171875 -1.75 -1.171875 -4.375q0 -3.1875 1.734375 -5.078125q1.734375 -1.90625 4.046875 -1.90625q1.953125 0 3.375 1.59375q1.421875 1.59375 1.53125 4.734375zm-3.359375 -0.921875q0 -2.203125 -0.234375 -3.015625q-0.234375 -0.828125 -0.75 -1.25q-0.28125 -0.25 -0.765625 -0.25q-0.703125 0 -1.15625 0.703125q-0.8125 1.21875 -0.8125 3.328125l0 0.484375l3.71875 0z" fill-rule="nonzero"/><path fill="#000000" fill-opacity="0.0" d="m706.4619 648.74805l259.14966 0l0 51.71649l-259.14966 0z" fill-rule="evenodd"/><path fill="#000000" d="m727.3213 673.98865q2.515625 0.59375 3.53125 1.421875q1.453125 1.1875 1.453125 3.0625q0 2.0 -1.609375 3.296875q-1.953125 1.578125 -5.703125 1.578125l-8.96875 0l0 -0.484375q1.21875 0 1.65625 -0.21875q0.4375 -0.234375 0.609375 -0.59375q0.171875 -0.375 0.171875 -1.796875l0 -11.453125q0 -1.4375 -0.171875 -1.796875q-0.171875 -0.375 -0.625 -0.59375q-0.4375 -0.234375 -1.640625 -0.234375l0 -0.484375l8.453125 0q3.03125 0 4.296875 0.546875q1.265625 0.546875 1.984375 1.625q0.734375 1.0625 0.734375 2.265625q0 1.28125 -0.921875 2.28125q-0.921875 1.0 -3.25 1.578125zm-4.734375 -0.34375q1.84375 0 2.71875 -0.421875q0.875 -0.421875 1.34375 -1.171875q0.46875 -0.75 0.46875 -1.921875q0 -1.171875 -0.46875 -1.921875q-0.453125 -0.75 -1.3125 -1.140625q-0.859375 -0.390625 -2.75 -0.375l0 6.953125zm0 1.015625l0 5.65625l-0.015625 0.65625q0 0.703125 0.359375 1.0625q0.359375 0.34375 1.0625 0.34375q1.03125 0 1.90625 -0.453125q0.890625 -0.46875 1.359375 -1.34375q0.46875 -0.875 0.46875 -1.953125q0 -1.25 -0.578125 -2.21875q-0.578125 -0.984375 -1.578125 -1.375q-1.0 -0.390625 -2.984375 -0.375zm30.498291 -3.484375l0 0.484375q-1.328125 0.09375 -1.328125 1.765625l0 7.640625q0 0.90625 0.296875 1.328125q0.296875 0.421875 1.03125 0.46875l0 0.484375l-6.265625 0l0 -0.484375q0.6875 -0.046875 0.984375 -0.4375q0.3125 -0.390625 0.3125 -1.359375l0 -7.640625q0 -0.890625 -0.296875 -1.296875q-0.28125 -0.40625 -1.0 -0.46875l0 -0.484375l6.265625 0zm-18.828125 12.171875l0 -0.484375q0.75 -0.09375 1.015625 -0.484375q0.265625 -0.40625 0.265625 -1.484375l0 -7.34375q0 -1.0 -0.28125 -1.390625q-0.265625 -0.390625 -1.0 -0.5l0 -0.484375l6.21875 0l0 0.484375q-0.78125 0.109375 -1.03125 0.546875q-0.25 0.421875 -0.25 1.515625l0 2.90625l0.9375 0q3.171875 0 4.78125 0.90625q1.625 0.90625 1.625 2.5q0 1.515625 -1.4375 2.421875q-1.4375 0.890625 -4.25 0.890625l-6.59375 0zm4.9375 -5.890625l0 3.78125q0 0.890625 0.28125 1.09375q0.296875 0.203125 0.71875 0.203125q1.015625 0 1.765625 -0.6875q0.75 -0.703125 0.75 -1.890625q0 -2.5 -3.515625 -2.5zm22.95282 -1.5625l2.109375 4.0q1.09375 2.09375 1.734375 2.65625q0.34375 0.296875 0.96875 0.328125l0 0.46875l-6.78125 0l0 -0.46875q0.78125 -0.0625 0.96875 -0.203125q0.1875 -0.140625 0.1875 -0.390625q0 -0.375 -0.40625 -1.15625l-1.0625 -1.96875l-0.890625 1.3125q-0.609375 0.890625 -0.6875 1.0625q-0.109375 0.25 -0.109375 0.453125q0 0.296875 0.125 0.5q0.125 0.203125 0.328125 0.296875q0.21875 0.09375 0.796875 0.09375l0 0.46875l-4.765625 0l0 -0.46875q0.890625 0 1.625 -0.484375q0.734375 -0.484375 2.140625 -2.5625l1.0 -1.484375l-2.09375 -3.875q-1.03125 -1.90625 -1.546875 -2.328125q-0.5 -0.4375 -1.125 -0.484375l0 -0.484375l6.75 0l0 0.484375l-0.359375 0.015625l-0.671875 0.234375q-0.109375 0.09375 -0.109375 0.296875q0 0.1875 0.0625 0.40625q0.046875 0.09375 0.375 0.703125l0.9375 1.765625l0.5 -0.703125q1.046875 -1.4375 1.046875 -2.0q0 -0.28125 -0.234375 -0.46875q-0.21875 -0.1875 -0.8125 -0.25l0 -0.484375l4.3125 0l0 0.484375q-0.796875 0.03125 -1.484375 0.5q-0.6875 0.453125 -1.546875 1.78125l-1.28125 1.953125zm10.859375 -5.078125q1.578125 0 2.9375 0.828125q1.375 0.8125 2.078125 2.328125q0.71875 1.5 0.71875 3.296875q0 2.59375 -1.3125 4.328125q-1.59375 2.109375 -4.390625 2.109375q-2.734375 0 -4.21875 -1.921875q-1.484375 -1.921875 -1.484375 -4.46875q0 -2.609375 1.515625 -4.546875q1.515625 -1.953125 4.15625 -1.953125zm0.046875 0.921875q-0.65625 0 -1.140625 0.5q-0.46875 0.5 -0.625 1.984375q-0.140625 1.46875 -0.140625 4.09375q0 1.40625 0.171875 2.609375q0.15625 0.921875 0.625 1.40625q0.46875 0.484375 1.0625 0.484375q0.578125 0 0.96875 -0.328125q0.515625 -0.4375 0.6875 -1.234375q0.25 -1.234375 0.25 -5.0q0 -2.21875 -0.25 -3.03125q-0.234375 -0.828125 -0.71875 -1.21875q-0.34375 -0.265625 -0.890625 -0.265625zm18.403625 -0.5625l0 0.484375q-0.859375 0 -1.109375 0.453125q-0.234375 0.4375 -0.234375 1.15625l0 7.875q0 1.0625 0.3125 1.390625q0.328125 0.3125 1.03125 0.328125l0 3.6875l-0.484375 0q-0.296875 -3.203125 -4.046875 -3.203125l-3.515625 0q-3.625 0 -4.0 3.203125l-0.484375 0l0 -3.6875q1.625 -0.125 2.546875 -2.9375q0.921875 -2.8125 0.921875 -6.0q0 -0.96875 -0.15625 -1.453125q-0.140625 -0.484375 -0.40625 -0.640625q-0.265625 -0.15625 -0.96875 -0.171875l0 -0.484375l10.59375 0zm-4.96875 0.828125l-3.21875 0l0 1.90625q0 5.609375 -2.046875 8.625l4.0 0q1.265625 0 1.265625 -1.546875l0 -8.984375zm6.828064 11.34375l0 -0.484375q0.765625 0 1.0625 -0.375q0.3125 -0.390625 0.3125 -1.46875l0 -7.46875q0 -1.15625 -0.3125 -1.515625q-0.296875 -0.375 -1.0625 -0.375l0 -0.484375l6.203125 0l0 0.484375q-0.65625 0.03125 -0.921875 0.34375q-0.265625 0.3125 -0.265625 1.40625l0 3.21875l3.484375 0l0 -3.21875q0 -0.90625 -0.203125 -1.328125q-0.1875 -0.421875 -0.96875 -0.421875l0 -0.484375l6.1875 0l0 0.484375q-0.75 0 -1.0625 0.375q-0.296875 0.359375 -0.296875 1.234375l0 7.75q0 1.140625 0.296875 1.484375q0.296875 0.34375 1.0625 0.359375l0 0.484375l-6.1875 0l0 -0.484375q0.65625 -0.015625 0.90625 -0.296875q0.265625 -0.296875 0.265625 -1.453125l0 -3.65625l-3.484375 0l0 3.5625q0 1.15625 0.265625 1.5q0.265625 0.34375 0.921875 0.34375l0 0.484375l-6.203125 0zm34.29608 -12.171875l0 0.484375q-1.328125 0.09375 -1.328125 1.765625l0 7.640625q0 0.90625 0.296875 1.328125q0.296875 0.421875 1.03125 0.46875l0 0.484375l-6.265625 0l0 -0.484375q0.6875 -0.046875 0.984375 -0.4375q0.3125 -0.390625 0.3125 -1.359375l0 -7.640625q0 -0.890625 -0.296875 -1.296875q-0.28125 -0.40625 -1.0 -0.46875l0 -0.484375l6.265625 0zm-18.828125 12.171875l0 -0.484375q0.75 -0.09375 1.015625 -0.484375q0.265625 -0.40625 0.265625 -1.484375l0 -7.34375q0 -1.0 -0.28125 -1.390625q-0.265625 -0.390625 -1.0 -0.5l0 -0.484375l6.21875 0l0 0.484375q-0.78125 0.109375 -1.03125 0.546875q-0.25 0.421875 -0.25 1.515625l0 2.90625l0.9375 0q3.171875 0 4.78125 0.90625q1.625 0.90625 1.625 2.5q0 1.515625 -1.4375 2.421875q-1.4375 0.890625 -4.25 0.890625l-6.59375 0zm4.9375 -5.890625l0 3.78125q0 0.890625 0.28125 1.09375q0.296875 0.203125 0.71875 0.203125q1.015625 0 1.765625 -0.6875q0.75 -0.703125 0.75 -1.890625q0 -2.5 -3.515625 -2.5zm26.062195 -0.625l-6.671875 0q0.109375 2.421875 1.28125 3.828125q0.90625 1.078125 2.171875 1.078125q0.78125 0 1.40625 -0.4375q0.640625 -0.4375 1.375 -1.578125l0.4375 0.296875q-0.984375 2.015625 -2.1875 2.859375q-1.1875 0.828125 -2.765625 0.828125q-2.703125 0 -4.109375 -2.078125q-1.109375 -1.671875 -1.109375 -4.171875q0 -3.03125 1.640625 -4.828125q1.65625 -1.8125 3.859375 -1.8125q1.84375 0 3.203125 1.515625q1.375 1.515625 1.46875 4.5zm-3.203125 -0.875q0 -2.09375 -0.234375 -2.875q-0.21875 -0.78125 -0.703125 -1.1875q-0.265625 -0.234375 -0.71875 -0.234375q-0.6875 0 -1.109375 0.65625q-0.765625 1.171875 -0.765625 3.1875l0 0.453125l3.53125 0z" fill-rule="nonzero"/><path fill="#000000" d="m858.8138 671.17615l0 0.484375q-0.859375 0 -1.109375 0.453125q-0.234375 0.4375 -0.234375 1.15625l0 7.875q0 1.0625 0.3125 1.390625q0.328125 0.3125 1.03125 0.328125l0 3.6875l-0.484375 0q-0.296875 -3.203125 -4.046875 -3.203125l-3.515625 0q-3.625 0 -4.0 3.203125l-0.484375 0l0 -3.6875q1.625 -0.125 2.546875 -2.9375q0.921875 -2.8125 0.921875 -6.0q0 -0.96875 -0.15625 -1.453125q-0.140625 -0.484375 -0.40625 -0.640625q-0.265625 -0.15625 -0.96875 -0.171875l0 -0.484375l10.59375 0zm-4.96875 0.828125l-3.21875 0l0 1.90625q0 5.609375 -2.046875 8.625l4.0 0q1.265625 0 1.265625 -1.546875l0 -8.984375zm13.531189 9.546875q-2.21875 1.96875 -3.984375 1.96875q-1.046875 0 -1.734375 -0.6875q-0.6875 -0.6875 -0.6875 -1.703125q0 -1.40625 1.1875 -2.515625q1.203125 -1.109375 5.21875 -2.953125l0 -1.234375q0 -1.375 -0.15625 -1.734375q-0.140625 -0.359375 -0.5625 -0.625q-0.40625 -0.265625 -0.921875 -0.265625q-0.859375 0 -1.40625 0.375q-0.328125 0.234375 -0.328125 0.546875q0 0.28125 0.359375 0.6875q0.5 0.546875 0.5 1.078125q0 0.640625 -0.484375 1.09375q-0.46875 0.4375 -1.234375 0.4375q-0.828125 0 -1.390625 -0.484375q-0.546875 -0.5 -0.546875 -1.171875q0 -0.9375 0.734375 -1.78125q0.75 -0.859375 2.078125 -1.3125q1.328125 -0.453125 2.765625 -0.453125q1.734375 0 2.734375 0.734375q1.015625 0.734375 1.3125 1.59375q0.1875 0.546875 0.1875 2.515625l0 4.71875q0 0.828125 0.0625 1.046875q0.0625 0.21875 0.1875 0.328125q0.140625 0.09375 0.3125 0.09375q0.328125 0 0.6875 -0.484375l0.390625 0.3125q-0.65625 0.96875 -1.359375 1.40625q-0.6875 0.4375 -1.578125 0.4375q-1.03125 0 -1.625 -0.484375q-0.578125 -0.5 -0.71875 -1.484375zm0 -0.953125l0 -4.0625q-1.5625 0.921875 -2.34375 1.96875q-0.5 0.703125 -0.5 1.421875q0 0.59375 0.421875 1.046875q0.328125 0.359375 0.921875 0.359375q0.640625 0 1.5 -0.734375zm6.625 2.75l0 -0.484375q0.765625 0 1.0625 -0.375q0.3125 -0.390625 0.3125 -1.46875l0 -7.46875q0 -1.15625 -0.3125 -1.515625q-0.296875 -0.375 -1.0625 -0.375l0 -0.484375l6.203125 0l0 0.484375q-0.65625 0.03125 -0.921875 0.34375q-0.265625 0.3125 -0.265625 1.40625l0 3.21875l3.484375 0l0 -3.21875q0 -0.90625 -0.203125 -1.328125q-0.1875 -0.421875 -0.96875 -0.421875l0 -0.484375l6.1875 0l0 0.484375q-0.75 0 -1.0625 0.375q-0.296875 0.359375 -0.296875 1.234375l0 7.75q0 1.140625 0.296875 1.484375q0.296875 0.34375 1.0625 0.359375l0 0.484375l-6.1875 0l0 -0.484375q0.65625 -0.015625 0.90625 -0.296875q0.265625 -0.296875 0.265625 -1.453125l0 -3.65625l-3.484375 0l0 3.5625q0 1.15625 0.265625 1.5q0.265625 0.34375 0.921875 0.34375l0 0.484375l-6.203125 0zm15.358582 0l0 -0.484375q0.765625 0 1.0625 -0.375q0.3125 -0.390625 0.3125 -1.46875l0 -7.46875q0 -1.15625 -0.3125 -1.515625q-0.296875 -0.375 -1.0625 -0.375l0 -0.484375l6.203125 0l0 0.484375q-0.65625 0.03125 -0.921875 0.34375q-0.265625 0.3125 -0.265625 1.40625l0 3.21875l3.484375 0l0 -3.21875q0 -0.90625 -0.203125 -1.328125q-0.1875 -0.421875 -0.96875 -0.421875l0 -0.484375l6.1875 0l0 0.484375q-0.75 0 -1.0625 0.375q-0.296875 0.359375 -0.296875 1.234375l0 7.75q0 1.140625 0.296875 1.484375q0.296875 0.34375 1.0625 0.359375l0 0.484375l-6.1875 0l0 -0.484375q0.65625 -0.015625 0.90625 -0.296875q0.265625 -0.296875 0.265625 -1.453125l0 -3.65625l-3.484375 0l0 3.5625q0 1.15625 0.265625 1.5q0.265625 0.34375 0.921875 0.34375l0 0.484375l-6.203125 0zm34.29608 -12.171875l0 0.484375q-1.328125 0.09375 -1.328125 1.765625l0 7.640625q0 0.90625 0.296875 1.328125q0.296875 0.421875 1.03125 0.46875l0 0.484375l-6.265625 0l0 -0.484375q0.6875 -0.046875 0.984375 -0.4375q0.3125 -0.390625 0.3125 -1.359375l0 -7.640625q0 -0.890625 -0.296875 -1.296875q-0.28125 -0.40625 -1.0 -0.46875l0 -0.484375l6.265625 0zm-18.828125 12.171875l0 -0.484375q0.75 -0.09375 1.015625 -0.484375q0.265625 -0.40625 0.265625 -1.484375l0 -7.34375q0 -1.0 -0.28125 -1.390625q-0.265625 -0.390625 -1.0 -0.5l0 -0.484375l6.21875 0l0 0.484375q-0.78125 0.109375 -1.03125 0.546875q-0.25 0.421875 -0.25 1.515625l0 2.90625l0.9375 0q3.171875 0 4.78125 0.90625q1.625 0.90625 1.625 2.5q0 1.515625 -1.4375 2.421875q-1.4375 0.890625 -4.25 0.890625l-6.59375 0zm4.9375 -5.890625l0 3.78125q0 0.890625 0.28125 1.09375q0.296875 0.203125 0.71875 0.203125q1.015625 0 1.765625 -0.6875q0.75 -0.703125 0.75 -1.890625q0 -2.5 -3.515625 -2.5zm26.062134 -0.625l-6.671875 0q0.109375 2.421875 1.28125 3.828125q0.90625 1.078125 2.171875 1.078125q0.78125 0 1.40625 -0.4375q0.640625 -0.4375 1.375 -1.578125l0.4375 0.296875q-0.984375 2.015625 -2.1875 2.859375q-1.1875 0.828125 -2.765625 0.828125q-2.703125 0 -4.109375 -2.078125q-1.109375 -1.671875 -1.109375 -4.171875q0 -3.03125 1.640625 -4.828125q1.65625 -1.8125 3.859375 -1.8125q1.84375 0 3.203125 1.515625q1.375 1.515625 1.46875 4.5zm-3.203125 -0.875q0 -2.09375 -0.234375 -2.875q-0.21875 -0.78125 -0.703125 -1.1875q-0.265625 -0.234375 -0.71875 -0.234375q-0.6875 0 -1.109375 0.65625q-0.765625 1.171875 -0.765625 3.1875l0 0.453125l3.53125 0z" fill-rule="nonzero"/></g></svg>