<svg version="1.1" viewBox="0.0 0.0 541.0 532.992125984252" fill="none" stroke="none" stroke-linecap="square" stroke-miterlimit="10" xmlns:xlink="http://www.w3.org/1999/xlink" xmlns="http://www.w3.org/2000/svg"><clipPath id="p.0"><path d="m0 0l541.0 0l0 532.9921l-541.0 0l0 -532.9921z" clip-rule="nonzero"/></clipPath><g clip-path="url(#p.0)"><path fill="#000000" fill-opacity="0.0" d="m0 0l541.0 0l0 532.9921l-541.0 0z" fill-rule="evenodd"/><path fill="#d9ead3" d="m88.1168 196.55734l0 0c0 -25.3824 20.576508 -45.958923 45.95893 -45.958923l279.95618 0c12.189056 0 23.878906 4.842087 32.497864 13.46106c8.6189575 8.618973 13.46106 20.308807 13.46106 32.497864l0 183.8302c0 25.382416 -20.576508 45.958923 -45.958923 45.958923l-279.95618 0c-25.382423 0 -45.95893 -20.576508 -45.95893 -45.958923z" fill-rule="evenodd"/><path stroke="#274e13" stroke-width="3.0" stroke-linejoin="round" stroke-linecap="butt" d="m88.1168 196.55734l0 0c0 -25.3824 20.576508 -45.958923 45.95893 -45.958923l279.95618 0c12.189056 0 23.878906 4.842087 32.497864 13.46106c8.6189575 8.618973 13.46106 20.308807 13.46106 32.497864l0 183.8302c0 25.382416 -20.576508 45.958923 -45.958923 45.958923l-279.95618 0c-25.382423 0 -45.95893 -20.576508 -45.95893 -45.958923z" fill-rule="evenodd"/><path fill="#000000" fill-opacity="0.0" d="m16.283138 288.47244l67.68504 0" fill-rule="evenodd"/><path stroke="#000000" stroke-width="2.0" stroke-linejoin="round" stroke-linecap="butt" d="m16.283138 288.47244l55.68504 0" fill-rule="evenodd"/><path fill="#000000" stroke="#000000" stroke-width="2.0" stroke-linecap="butt" d="m71.96818 291.7759l9.076202 -3.3034668l-9.076202 -3.3034668z" fill-rule="evenodd"/><path fill="#000000" fill-opacity="0.0" d="m25.652945 251.27315l32.944885 0l0 42.67717l-32.944885 0z" fill-rule="evenodd"/><path fill="#000000" d="m49.590446 280.37564q0 0.890625 0.078125 1.234375q0.078125 0.328125 0.3125 0.5625q0.234375 0.21875 0.859375 0.359375l0 0.78125l-6.125 0l0 -0.78125q0.6875 -0.171875 0.875 -0.34375q0.203125 -0.171875 0.28125 -0.5q0.09375 -0.328125 0.09375 -1.3125l0 -4.703125l-5.296875 0l0 4.703125q0 0.40625 0.015625 0.765625q0.03125 0.34375 0.09375 0.5625q0.078125 0.21875 0.203125 0.375q0.140625 0.15625 0.375 0.265625q0.234375 0.109375 0.578125 0.1875l0 0.78125l-6.15625 0l0 -0.78125q0.4375 -0.109375 0.6875 -0.234375q0.25 -0.140625 0.375 -0.375q0.125 -0.25 0.15625 -0.609375q0.03125 -0.375 0.03125 -0.9375l0 -10.109375q0 -0.546875 -0.03125 -0.921875q-0.015625 -0.375 -0.140625 -0.609375q-0.125 -0.234375 -0.375 -0.375q-0.25 -0.15625 -0.703125 -0.265625l0 -0.78125l6.15625 0l0 0.78125q-0.625 0.171875 -0.859375 0.390625q-0.21875 0.203125 -0.3125 0.546875q-0.09375 0.34375 -0.09375 1.25l0 3.90625l5.296875 0l0 -3.90625q0 -0.890625 -0.078125 -1.234375q-0.078125 -0.34375 -0.3125 -0.5625q-0.21875 -0.21875 -0.859375 -0.390625l0 -0.78125l6.125 0l0 0.78125q-0.515625 0.140625 -0.75 0.296875q-0.234375 0.15625 -0.34375 0.40625q-0.09375 0.234375 -0.125 0.546875q-0.03125 0.296875 -0.03125 0.9375l0 10.09375z" fill-rule="nonzero"/><path fill="#cfe2f3" d="m134.73097 493.66928l0 0c0 -20.3432 16.491425 -36.834625 36.83464 -36.834625l0 0c9.769165 0 19.138199 3.8807678 26.046036 10.788605c6.907837 6.907837 10.78862 16.276886 10.78862 26.04602l0 0c0 20.343231 -16.49144 36.834686 -36.834656 36.834686l0 0c-20.343216 0 -36.83464 -16.491455 -36.83464 -36.834686z" fill-rule="evenodd"/><path stroke="#000000" stroke-width="1.0" stroke-linejoin="round" stroke-linecap="butt" d="m134.73097 493.66928l0 0c0 -20.3432 16.491425 -36.834625 36.83464 -36.834625l0 0c9.769165 0 19.138199 3.8807678 26.046036 10.788605c6.907837 6.907837 10.78862 16.276886 10.78862 26.04602l0 0c0 20.343231 -16.49144 36.834686 -36.834656 36.834686l0 0c-20.343216 0 -36.83464 -16.491455 -36.83464 -36.834686z" fill-rule="evenodd"/><path fill="#000000" d="m171.21991 486.2093l0 0.78125q-0.546875 0.046875 -0.78125 0.25q-0.21875 0.1875 -0.21875 0.59375q0 0.1875 0.078125 0.453125q0.078125 0.25 0.265625 0.609375q0.1875 0.34375 0.640625 1.09375l1.078125 1.8125l1.421875 -2.09375q0.46875 -0.6875 0.625 -1.046875q0.15625 -0.375 0.15625 -0.796875q0 -0.375 -0.265625 -0.59375q-0.25 -0.234375 -0.703125 -0.28125l0 -0.78125l4.84375 0l0 0.78125q-0.34375 0.09375 -0.65625 0.3125q-0.296875 0.203125 -0.703125 0.671875q-0.390625 0.46875 -1.265625 1.734375l-2.53125 3.609375l3.8125 6.296875q0.203125 0.3125 0.40625 0.625q0.203125 0.3125 0.390625 0.5625q0.203125 0.234375 0.34375 0.359375q0.15625 0.109375 0.296875 0.171875q0.140625 0.0625 0.296875 0.09375l0 0.78125l-6.515625 0l0 -0.78125q0.515625 -0.046875 0.75 -0.234375q0.25 -0.1875 0.25 -0.609375q0 -0.140625 -0.046875 -0.296875q-0.03125 -0.171875 -0.140625 -0.40625q-0.09375 -0.234375 -0.203125 -0.40625q-0.09375 -0.1875 -0.390625 -0.703125l-1.625 -2.6875l-1.921875 2.828125q-0.21875 0.34375 -0.375 0.625q-0.140625 0.28125 -0.203125 0.515625q-0.0625 0.234375 -0.0625 0.546875q0 0.3125 0.25 0.546875q0.25 0.234375 0.71875 0.28125l0 0.78125l-4.84375 0l0 -0.78125q0.390625 -0.109375 0.703125 -0.34375q0.328125 -0.25 0.703125 -0.703125q0.390625 -0.453125 1.046875 -1.421875l3.0625 -4.375l-2.953125 -4.921875q-0.484375 -0.796875 -0.828125 -1.3125q-0.34375 -0.53125 -0.578125 -0.796875q-0.234375 -0.28125 -0.421875 -0.390625q-0.171875 -0.125 -0.421875 -0.171875l0 -0.78125l6.515625 0z" fill-rule="nonzero"/><path fill="#d9d2e9" d="m223.0643 289.8189l38.236237 0l0 33.5748l-38.236237 0z" fill-rule="evenodd"/><path stroke="#000000" stroke-width="1.0" stroke-linejoin="round" stroke-linecap="butt" d="m223.0643 289.8189l38.236237 0l0 33.5748l-38.236237 0z" fill-rule="evenodd"/><path fill="#000000" d="m242.16573 303.41693l-2.921875 10.171875l-1.46875 0l-2.65625 -9.890625q-0.171875 -0.625 -0.3125 -1.015625q-0.125 -0.390625 -0.265625 -0.609375q-0.140625 -0.21875 -0.296875 -0.328125q-0.15625 -0.125 -0.453125 -0.203125l0 -0.453125l3.890625 0l0 0.453125q-0.5625 0.109375 -0.78125 0.328125q-0.21875 0.21875 -0.21875 0.609375q0 0.3125 0.078125 0.75q0.078125 0.4375 0.21875 1.0l1.84375 7.1875l2.921875 -10.328125l1.53125 0l2.375 10.34375l2.15625 -6.953125q0.390625 -1.265625 0.390625 -1.796875q0 -0.5625 -0.234375 -0.796875q-0.234375 -0.25 -0.765625 -0.34375l0 -0.453125l3.59375 0l0 0.453125q-0.28125 0.09375 -0.453125 0.203125q-0.15625 0.109375 -0.3125 0.3125q-0.140625 0.1875 -0.328125 0.609375q-0.171875 0.40625 -0.40625 1.09375l-3.3125 9.828125l-1.296875 0l-2.515625 -10.171875z" fill-rule="nonzero"/><path fill="#d9d2e9" d="m261.30054 289.8189l38.236206 0l0 33.5748l-38.236206 0z" fill-rule="evenodd"/><path stroke="#000000" stroke-width="1.0" stroke-linejoin="round" stroke-linecap="butt" d="m261.30054 289.8189l38.236206 0l0 33.5748l-38.236206 0z" fill-rule="evenodd"/><path fill="#000000" d="m280.40195 303.41693l-2.921875 10.171875l-1.46875 0l-2.65625 -9.890625q-0.171875 -0.625 -0.3125 -1.015625q-0.125 -0.390625 -0.265625 -0.609375q-0.140625 -0.21875 -0.296875 -0.328125q-0.15625 -0.125 -0.453125 -0.203125l0 -0.453125l3.890625 0l0 0.453125q-0.5625 0.109375 -0.78125 0.328125q-0.21875 0.21875 -0.21875 0.609375q0 0.3125 0.078125 0.75q0.078125 0.4375 0.21875 1.0l1.84375 7.1875l2.921875 -10.328125l1.53125 0l2.375 10.34375l2.15625 -6.953125q0.390625 -1.265625 0.390625 -1.796875q0 -0.5625 -0.234375 -0.796875q-0.234375 -0.25 -0.765625 -0.34375l0 -0.453125l3.59375 0l0 0.453125q-0.28125 0.09375 -0.453125 0.203125q-0.15625 0.109375 -0.3125 0.3125q-0.140625 0.1875 -0.328125 0.609375q-0.171875 0.40625 -0.40625 1.09375l-3.3125 9.828125l-1.296875 0l-2.515625 -10.171875z" fill-rule="nonzero"/><path fill="#fff2cc" d="m223.06427 256.24408l76.47244 0l0 33.57483l-76.47244 0z" fill-rule="evenodd"/><path stroke="#000000" stroke-width="1.0" stroke-linejoin="round" stroke-linecap="butt" d="m223.06427 256.24408l76.47244 0l0 33.57483l-76.47244 0z" fill-rule="evenodd"/><path fill="#000000" d="m238.49971 270.9465q0.578125 -0.09375 0.9375 -0.328125q0.375 -0.234375 0.578125 -0.59375q0.203125 -0.375 0.3125 -0.921875q0.125 -0.5625 0.25 -1.625l1.671875 0l0 2.890625l3.78125 0l0 1.1875l-3.78125 0l0 5.203125q0 1.140625 0.09375 1.8125q0.09375 0.671875 0.34375 1.0625q0.265625 0.375 0.59375 0.546875q0.328125 0.15625 0.84375 0.15625q0.46875 0 0.875 -0.1875q0.40625 -0.203125 0.8125 -0.5625l0.53125 0.640625q-0.84375 0.796875 -1.59375 1.171875q-0.734375 0.359375 -1.53125 0.359375q-1.515625 0 -2.25 -0.890625q-0.734375 -0.90625 -0.734375 -2.8125l0 -6.5l-1.734375 0l0 -0.609375zm15.589844 8.953125l-0.171875 -0.046875q-1.015625 1.03125 -1.921875 1.46875q-0.890625 0.4375 -1.890625 0.4375q-0.890625 0 -1.578125 -0.34375q-0.671875 -0.34375 -1.046875 -0.96875q-0.359375 -0.640625 -0.359375 -1.453125q0 -1.71875 1.6875 -2.640625q1.703125 -0.9375 5.09375 -1.09375l0 -0.75q0 -1.21875 -0.234375 -1.921875q-0.234375 -0.703125 -0.75 -1.03125q-0.5 -0.328125 -1.34375 -0.328125q-0.90625 0 -1.46875 0.484375q-0.5625 0.46875 -0.84375 1.4375l-1.53125 0l0 -1.53125q1.125 -0.578125 1.875 -0.859375q0.75 -0.28125 1.5 -0.4375q0.75 -0.15625 1.53125 -0.15625q1.15625 0 1.859375 0.375q0.703125 0.359375 1.046875 1.125q0.359375 0.765625 0.359375 2.296875l0 4.078125q0 0.875 0 1.234375q0.015625 0.34375 0.078125 0.65625q0.06248474 0.296875 0.17185974 0.484375q0.125 0.1875 0.34375 0.3125q0.234375 0.125 0.75 0.265625l0 0.578125l-3.2031097 0l0.046875 -1.671875zm-0.1875 -3.671875q-2.390625 0.015625 -3.578125 0.625q-1.171875 0.609375 -1.171875 1.84375q0 0.671875 0.265625 1.0625q0.265625 0.375 0.671875 0.53125q0.421875 0.140625 0.984375 0.140625q0.796875 0 1.4375 -0.375q0.65625 -0.390625 1.015625 -0.984375q0.375 -0.609375 0.375 -1.1875l0 -1.65625zm16.54686 5.34375l-4.609375 0l0 -0.578125q0.453125 -0.140625 0.65625 -0.234375q0.203125 -0.109375 0.328125 -0.296875q0.140625 -0.1875 0.21875 -0.578125q0.078125 -0.40625 0.078125 -1.203125l0 -3.0625q0 -0.828125 -0.046875 -1.484375q-0.046875 -0.671875 -0.171875 -1.09375q-0.109375 -0.4375 -0.265625 -0.671875q-0.15625 -0.25 -0.375 -0.40625q-0.21875 -0.171875 -0.5 -0.265625q-0.28125 -0.109375 -0.734375 -0.109375q-0.453125 0 -0.875 0.1875q-0.40625 0.171875 -0.90625 0.625q-0.484375 0.4375 -0.703125 0.875q-0.21875 0.4375 -0.21875 1.0l0 4.359375q0 1.015625 0.09375 1.40625q0.09375 0.390625 0.359375 0.59375q0.265625 0.203125 0.859375 0.359375l0 0.578125l-4.59375 0l0 -0.578125q0.453125 -0.140625 0.640625 -0.234375q0.203125 -0.109375 0.328125 -0.296875q0.140625 -0.1875 0.21875 -0.578125q0.078125 -0.390625 0.078125 -1.203125l0 -5.109375q0 -0.75 -0.03125 -1.203125q-0.015625 -0.46875 -0.15625 -0.734375q-0.140625 -0.28125 -0.4375 -0.40625q-0.28125 -0.140625 -0.8125 -0.234375l0 -0.625l2.75 -0.109375l0.71875 0l-0.140625 1.90625l0.171875 0.046875q0.859375 -0.875 1.390625 -1.25q0.546875 -0.375 1.078125 -0.578125q0.546875 -0.203125 1.15625 -0.203125q0.640625 0 1.140625 0.15625q0.5 0.140625 0.875 0.453125q0.375 0.296875 0.625 0.75q0.25 0.4375 0.375 1.078125q0.125 0.625 0.125 1.609375l0 4.40625q0 0.8125 0.046875 1.1875q0.046875 0.359375 0.15625 0.5625q0.125 0.1875 0.34375 0.328125q0.21875 0.125 0.765625 0.28125l0 0.578125zm5.1289062 -9.359375l0.046875 0q0.90625 -0.921875 1.4375 -1.28125q0.546875 -0.375 1.0625 -0.5625q0.515625 -0.1875 1.125 -0.1875q0.640625 0 1.140625 0.15625q0.5 0.140625 0.875 0.453125q0.390625 0.3125 0.625 0.765625q0.25 0.453125 0.359375 1.078125q0.125 0.625 0.125 1.59375l0 4.40625q0 1.03125 0.078125 1.40625q0.09375 0.359375 0.3125 0.5625q0.234375 0.203125 0.9375 0.390625l0 0.578125l-4.625 0l0 -0.578125q0.453125 -0.140625 0.65625 -0.234375q0.203125 -0.109375 0.328125 -0.296875q0.140625 -0.1875 0.21875 -0.578125q0.078125 -0.40625 0.078125 -1.203125l0 -3.0625q0 -1.5625 -0.15625 -2.390625q-0.15625 -0.828125 -0.625 -1.234375q-0.46875 -0.40625 -1.296875 -0.40625q-0.46875 0 -0.84375 0.171875q-0.375 0.15625 -0.875 0.578125q-0.484375 0.421875 -0.734375 0.875q-0.25 0.4375 -0.25 0.9375l0 4.484375q0 0.796875 0.03125 1.140625q0.046875 0.34375 0.15625 0.578125q0.125 0.21875 0.359375 0.375q0.25 0.140625 0.75 0.265625l0 0.578125l-4.640625 0l0 -0.578125q0.515625 -0.140625 0.734375 -0.265625q0.234375 -0.125 0.34375 -0.328125q0.125 -0.203125 0.1875 -0.578125q0.0625 -0.375 0.0625 -1.1875l0 -9.796875q0 -1.125 -0.015625 -1.5625q-0.015625 -0.453125 -0.09375 -0.765625q-0.078125 -0.3125 -0.21875 -0.484375q-0.125 -0.1875 -0.359375 -0.28125q-0.234375 -0.109375 -0.828125 -0.21875l0 -0.609375l2.828125 -0.109375l0.703125 0l0 7.40625z" fill-rule="nonzero"/><path fill="#ffffff" d="m83.96719 288.47113l0 0c0 -2.2874146 1.8543167 -4.1417236 4.1417313 -4.1417236l0 0c1.0984573 0 2.1519241 0.43634033 2.9286423 1.2130737c0.77672577 0.7767334 1.213089 1.8302002 1.213089 2.92865l0 0c0 2.2874146 -1.8543167 4.1417236 -4.1417313 4.1417236l0 0c-2.2874146 0 -4.1417313 -1.8543091 -4.1417313 -4.1417236z" fill-rule="evenodd"/><path stroke="#000000" stroke-width="1.0" stroke-linejoin="round" stroke-linecap="butt" d="m83.96719 288.47113l0 0c0 -2.2874146 1.8543167 -4.1417236 4.1417313 -4.1417236l0 0c1.0984573 0 2.1519241 0.43634033 2.9286423 1.2130737c0.77672577 0.7767334 1.213089 1.8302002 1.213089 2.92865l0 0c0 2.2874146 -1.8543167 4.1417236 -4.1417313 4.1417236l0 0c-2.2874146 0 -4.1417313 -1.8543091 -4.1417313 -4.1417236z" fill-rule="evenodd"/><path fill="#000000" fill-opacity="0.0" d="m92.250656 288.47113l65.40614 0l0 59.92267l84.51512 0l0 -24.99353" fill-rule="evenodd"/><path stroke="#000000" stroke-width="2.0" stroke-linejoin="round" stroke-linecap="butt" d="m92.250656 288.47113l65.40614 0l0 59.9227l84.51512 0l0 -12.993561" fill-rule="evenodd"/><path fill="#000000" stroke="#000000" stroke-width="2.0" stroke-linecap="butt" d="m245.47539 335.40027l-3.3034668 -9.076202l-3.3034668 9.076202z" fill-rule="evenodd"/><path fill="#000000" fill-opacity="0.0" d="m171.56561 456.83466l0 -66.72043l108.8504 0l0 -66.72839" fill-rule="evenodd"/><path stroke="#000000" stroke-width="2.0" stroke-linejoin="round" stroke-linecap="butt" d="m171.56561 456.83466l0 -66.7204l108.8504 0l0 -54.728424" fill-rule="evenodd"/><path fill="#000000" stroke="#000000" stroke-width="2.0" stroke-linecap="butt" d="m283.71948 335.38583l-3.3034668 -9.076202l-3.3034668 9.076202z" fill-rule="evenodd"/><path fill="#ffffff" d="m455.63223 289.8189l0 0c0 -2.2874146 1.8543091 -4.141754 4.1417236 -4.141754l0 0c1.0984497 0 2.1519165 0.43637085 2.92865 1.2131042c0.7767334 0.7767029 1.2130737 1.8301697 1.2130737 2.92865l0 0c0 2.2874146 -1.8543091 4.1417236 -4.1417236 4.1417236l0 0c-2.2874146 0 -4.1417236 -1.8543091 -4.1417236 -4.1417236z" fill-rule="evenodd"/><path stroke="#000000" stroke-width="1.0" stroke-linejoin="round" stroke-linecap="butt" d="m455.63223 289.8189l0 0c0 -2.2874146 1.8543091 -4.141754 4.1417236 -4.141754l0 0c1.0984497 0 2.1519165 0.43637085 2.92865 1.2131042c0.7767334 0.7767029 1.2130737 1.8301697 1.2130737 2.92865l0 0c0 2.2874146 -1.8543091 4.1417236 -4.1417236 4.1417236l0 0c-2.2874146 0 -4.1417236 -1.8543091 -4.1417236 -4.1417236z" fill-rule="evenodd"/><path fill="#000000" fill-opacity="0.0" d="m463.91568 289.8189l63.370087 0" fill-rule="evenodd"/><path stroke="#000000" stroke-width="2.0" stroke-linejoin="round" stroke-linecap="butt" d="m463.91568 289.8189l51.370087 0" fill-rule="evenodd"/><path fill="#000000" stroke="#000000" stroke-width="2.0" stroke-linecap="butt" d="m515.28577 293.12238l9.076172 -3.3034668l-9.076172 -3.3034668z" fill-rule="evenodd"/><path fill="#000000" fill-opacity="0.0" d="m476.54593 251.27296l39.716522 0l0 42.67717l-39.716522 0z" fill-rule="evenodd"/><path fill="#000000" d="m500.48343 280.37546q0 0.890625 0.078125 1.234375q0.078125 0.328125 0.3125 0.5625q0.234375 0.21875 0.859375 0.359375l0 0.78125l-6.125 0l0 -0.78125q0.6875 -0.171875 0.875 -0.34375q0.203125 -0.171875 0.28125 -0.5q0.09375 -0.328125 0.09375 -1.3125l0 -4.703125l-5.296875 0l0 4.703125q0 0.40625 0.015625 0.765625q0.03125 0.34375 0.09375 0.5625q0.078125 0.21875 0.203125 0.375q0.140625 0.15625 0.375 0.265625q0.234375 0.109375 0.578125 0.1875l0 0.78125l-6.15625 0l0 -0.78125q0.4375 -0.109375 0.6875 -0.234375q0.25 -0.140625 0.375 -0.375q0.125 -0.25 0.15625 -0.609375q0.03125 -0.375 0.03125 -0.9375l0 -10.109375q0 -0.546875 -0.03125 -0.921875q-0.015625 -0.375 -0.140625 -0.609375q-0.125 -0.234375 -0.375 -0.375q-0.25 -0.15625 -0.703125 -0.265625l0 -0.78125l6.15625 0l0 0.78125q-0.625 0.171875 -0.859375 0.390625q-0.21875 0.203125 -0.3125 0.546875q-0.09375 0.34375 -0.09375 1.25l0 3.90625l5.296875 0l0 -3.90625q0 -0.890625 -0.078125 -1.234375q-0.078125 -0.34375 -0.3125 -0.5625q-0.21875 -0.21875 -0.859375 -0.390625l0 -0.78125l6.125 0l0 0.78125q-0.515625 0.140625 -0.75 0.296875q-0.234375 0.15625 -0.34375 0.40625q-0.09375 0.234375 -0.125 0.546875q-0.03125 0.296875 -0.03125 0.9375l0 10.09375z" fill-rule="nonzero"/><path fill="#cfe2f3" d="m345.05118 44.834644l0 0c0 -20.343212 16.491425 -36.834644 36.834656 -36.834644l0 0c9.7691345 0 19.138184 3.8807821 26.04602 10.788618c6.907837 6.907835 10.788605 16.276873 10.788605 26.046026l0 0c0 20.343212 -16.491425 36.834644 -36.834625 36.834644l0 0c-20.343231 0 -36.834656 -16.491432 -36.834656 -36.834644z" fill-rule="evenodd"/><path stroke="#000000" stroke-width="1.0" stroke-linejoin="round" stroke-linecap="butt" d="m345.05118 44.834644l0 0c0 -20.343212 16.491425 -36.834644 36.834656 -36.834644l0 0c9.7691345 0 19.138184 3.8807821 26.04602 10.788618c6.907837 6.907835 10.788605 16.276873 10.788605 26.046026l0 0c0 20.343212 -16.491425 36.834644 -36.834625 36.834644l0 0c-20.343231 0 -36.834656 -16.491432 -36.834656 -36.834644z" fill-rule="evenodd"/><path fill="#000000" d="m383.56943 47.218395l0 3.21875q0 0.609375 0.03125 0.9375q0.03125 0.328125 0.125 0.53125q0.09375 0.1875 0.21875 0.3125q0.140625 0.125 0.375 0.234375q0.25 0.09375 0.65625 0.140625l0 0.78125l-6.46875 0l0 -0.78125q0.484375 -0.078125 0.765625 -0.203125q0.296875 -0.125 0.4375 -0.375q0.140625 -0.25 0.171875 -0.625q0.046875 -0.390625 0.046875 -0.953125l0 -3.21875l-3.171875 -6.703125q-0.40625 -0.859375 -0.640625 -1.265625q-0.28125 -0.484375 -0.46875 -0.6875q-0.1875 -0.21875 -0.359375 -0.296875q-0.15625 -0.078125 -0.453125 -0.109375l0 -0.78125l6.25 0l0 0.78125q-0.90625 0.109375 -0.90625 0.890625q0 0.296875 0.140625 0.71875q0.15625 0.421875 0.484375 1.125l1.96875 4.40625l2.15625 -4.296875q0.3125 -0.640625 0.4375 -1.0625q0.125 -0.4375 0.125 -0.859375q0 -0.421875 -0.25 -0.65625q-0.234375 -0.25 -0.671875 -0.265625l0 -0.78125l4.703125 0l0 0.78125q-0.3125 0.0625 -0.53125 0.1875q-0.203125 0.125 -0.453125 0.390625q-0.234375 0.265625 -0.578125 0.796875q-0.34375 0.515625 -0.78125 1.359375l-3.359375 6.328125z" fill-rule="nonzero"/><path fill="#d9ead3" d="m768.45276 318.2651l8.283447 0l0 8.283447l-8.283447 0z" fill-rule="evenodd"/><path fill="#000000" fill-opacity="0.0" d="m261.30048 256.24408l0 -44.42784l120.648285 0l0 78.00267l73.682434 0" fill-rule="evenodd"/><path stroke="#000000" stroke-width="2.0" stroke-linejoin="round" stroke-linecap="butt" d="m261.30048 256.24408l0 -44.42784l120.648315 0l0 78.00267l61.682404 0" fill-rule="evenodd"/><path fill="#000000" stroke="#000000" stroke-width="2.0" stroke-linecap="butt" d="m443.6312 293.12238l9.076202 -3.3034668l-9.076202 -3.3034668z" fill-rule="evenodd"/><path fill="#000000" fill-opacity="0.0" d="m261.30048 256.24408l0 -43.600266l120.59842 0l0 -130.98239" fill-rule="evenodd"/><path stroke="#000000" stroke-width="2.0" stroke-linejoin="round" stroke-linecap="butt" d="m261.30048 256.24408l0 -43.60025l120.59842 0l0 -118.982414" fill-rule="evenodd"/><path fill="#000000" stroke="#000000" stroke-width="2.0" stroke-linecap="butt" d="m385.20236 93.661415l-3.3034668 -9.076195l-3.3034363 9.076195z" fill-rule="evenodd"/><path fill="#ffffff" d="m527.28577 289.8189l0 0c0 -2.2874146 1.8543091 -4.141754 4.1417236 -4.141754l0 0c1.0984497 0 2.1519165 0.43637085 2.92865 1.2131042c0.7767334 0.7767029 1.2130737 1.8301697 1.2130737 2.92865l0 0c0 2.2874146 -1.8543091 4.1417236 -4.1417236 4.1417236l0 0c-2.2874146 0 -4.1417236 -1.8543091 -4.1417236 -4.1417236z" fill-rule="evenodd"/><path stroke="#000000" stroke-width="1.0" stroke-linejoin="round" stroke-linecap="butt" d="m527.28577 289.8189l0 0c0 -2.2874146 1.8543091 -4.141754 4.1417236 -4.141754l0 0c1.0984497 0 2.1519165 0.43637085 2.92865 1.2131042c0.7767334 0.7767029 1.2130737 1.8301697 1.2130737 2.92865l0 0c0 2.2874146 -1.8543091 4.1417236 -4.1417236 4.1417236l0 0c-2.2874146 0 -4.1417236 -1.8543091 -4.1417236 -4.1417236z" fill-rule="evenodd"/><path fill="#ffffff" d="m7.9996743 288.47244l0 0c0 -2.2874146 1.8543172 -4.1417236 4.1417327 -4.1417236l0 0c1.0984554 0 2.1519213 0.43634033 2.928647 1.2130737c0.7767248 0.7767334 1.2130842 1.8302002 1.2130842 2.92865l0 0c0 2.2874146 -1.8543158 4.1417236 -4.1417313 4.1417236l0 0c-2.2874155 0 -4.1417327 -1.8543091 -4.1417327 -4.1417236z" fill-rule="evenodd"/><path stroke="#000000" stroke-width="1.0" stroke-linejoin="round" stroke-linecap="butt" d="m7.9996743 288.47244l0 0c0 -2.2874146 1.8543172 -4.1417236 4.1417327 -4.1417236l0 0c1.0984554 0 2.1519213 0.43634033 2.928647 1.2130737c0.7767248 0.7767334 1.2130842 1.8302002 1.2130842 2.92865l0 0c0 2.2874146 -1.8543158 4.1417236 -4.1417313 4.1417236l0 0c-2.2874155 0 -4.1417327 -1.8543091 -4.1417327 -4.1417236z" fill-rule="evenodd"/><path fill="#000000" fill-opacity="0.0" d="m12.141407 284.33072l0 -158.33597l519.2756 0l0 159.69028" fill-rule="evenodd"/><path stroke="#000000" stroke-width="1.0" stroke-linejoin="round" stroke-linecap="butt" stroke-dasharray="4.0,3.0" d="m12.141407 278.33072l0 -152.33597l519.2756 0l0 159.69028" fill-rule="evenodd"/><path fill="#000000" stroke="#000000" stroke-width="1.0" stroke-linecap="butt" d="m10.489675 278.33072l1.6517324 4.538086l1.6517324 -4.538086z" fill-rule="evenodd"/></g></svg>