<svg version="1.1" viewBox="0.0 0.0 1150.0 400.0" fill="none" stroke="none" stroke-linecap="square" stroke-miterlimit="10" xmlns:xlink="http://www.w3.org/1999/xlink" xmlns="http://www.w3.org/2000/svg"><clipPath id="p.0"><path d="m0 0l1150.0 0l0 400.0l-1150.0 0l0 -400.0z" clip-rule="nonzero"/></clipPath><g clip-path="url(#p.0)"><path fill="#000000" fill-opacity="0.0" d="m0 0l1150.0 0l0 400.0l-1150.0 0z" fill-rule="evenodd"/><path fill="#d9ead3" d="m29.574802 167.4952l0 0c0 -12.333145 9.998001 -22.331146 22.331158 -22.331146l89.321945 0l0 0c5.922592 0 11.6026 2.3527374 15.790512 6.540634c4.1878967 4.187912 6.540634 9.86792 6.540634 15.790512l0 89.321945c0 12.33316 -9.998001 22.331146 -22.331146 22.331146l-89.321945 0c-12.333157 0 -22.331158 -9.997986 -22.331158 -22.331146z" fill-rule="evenodd"/><path stroke="#274e13" stroke-width="2.0" stroke-linejoin="round" stroke-linecap="butt" d="m29.574802 167.4952l0 0c0 -12.333145 9.998001 -22.331146 22.331158 -22.331146l89.321945 0l0 0c5.922592 0 11.6026 2.3527374 15.790512 6.540634c4.1878967 4.187912 6.540634 9.86792 6.540634 15.790512l0 89.321945c0 12.33316 -9.998001 22.331146 -22.331146 22.331146l-89.321945 0c-12.333157 0 -22.331158 -9.997986 -22.331158 -22.331146z" fill-rule="evenodd"/><path fill="#000000" d="m73.94974 223.87617l-8.203125 0l0 -1.03125q0.578125 -0.15625 0.90625 -0.328125q0.34375 -0.1875 0.5 -0.5q0.171875 -0.328125 0.21875 -0.8125q0.046875 -0.5 0.046875 -1.25l0 -13.46875q0 -0.734375 -0.046875 -1.234375q-0.03125 -0.5 -0.203125 -0.8125q-0.15625 -0.3125 -0.5 -0.5q-0.328125 -0.203125 -0.921875 -0.359375l0 -1.03125l9.109375 0q1.84375 0 3.125 0.265625q1.296875 0.25 2.265625 0.78125q0.8125 0.4375 1.375 1.109375q0.5625 0.65625 0.859375 1.546875q0.3125 0.875 0.3125 2.046875q0 1.53125 -0.546875 2.625q-0.53125 1.09375 -1.453125 1.828125q-0.90625 0.71875 -2.4375 1.359375l0 0.15625q1.15625 0.5 1.90625 1.34375q0.765625 0.828125 1.375 2.109375l0.984375 2.125q0.65625 1.421875 1.296875 2.140625q0.65625 0.703125 1.546875 0.859375l0 1.03125l-6.015625 0q-0.90625 -1.25 -2.046875 -3.71875l-1.21875 -2.671875q-0.546875 -1.1875 -0.9375 -1.6875q-0.390625 -0.5 -0.8125 -0.6875q-0.40625 -0.1875 -1.265625 -0.1875l-0.90625 0l0 5.03125q0 1.171875 0.109375 1.640625q0.109375 0.46875 0.421875 0.75q0.3125 0.28125 1.15625 0.5l0 1.03125zm-1.6875 -19.46875l0 8.6875l1.546875 0q1.25 0 2.0625 -0.328125q0.8125 -0.34375 1.28125 -0.9375q0.484375 -0.609375 0.65625 -1.421875q0.1875 -0.8125 0.1875 -1.78125q0 -2.125 -1.0 -3.1875q-1.0 -1.0625 -2.96875 -1.0625q-1.34375 0 -1.765625 0.03125zm33.59375 -1.859375l0 1.03125q-0.625 0.203125 -0.890625 0.34375q-0.25 0.140625 -0.4375 0.375q-0.171875 0.234375 -0.265625 0.71875q-0.09375 0.46875 -0.09375 1.453125l0 17.40625l-3.96875 0l-7.03125 -12.15625q-1.421875 -2.46875 -2.09375 -3.875l-0.140625 0q0.15625 3.359375 0.15625 7.09375l0 5.03125q0 1.171875 0.109375 1.640625q0.125 0.46875 0.421875 0.75q0.3125 0.265625 1.15625 0.484375l0 1.03125l-5.90625 0l0 -1.03125q0.578125 -0.15625 0.90625 -0.34375q0.34375 -0.1875 0.5 -0.5q0.171875 -0.328125 0.21875 -0.8125q0.046875 -0.484375 0.046875 -1.21875l0 -13.515625q0 -1.171875 -0.109375 -1.609375q-0.09375 -0.453125 -0.421875 -0.75q-0.3125 -0.296875 -1.140625 -0.515625l0 -1.03125l6.328125 0l5.53125 9.609375q0.515625 0.90625 1.34375 2.453125q0.828125 1.546875 1.46875 2.921875l0.25 0q-0.171875 -3.734375 -0.171875 -8.15625l0 -2.90625q0 -1.015625 -0.078125 -1.46875q-0.078125 -0.453125 -0.25 -0.6875q-0.15625 -0.234375 -0.4375 -0.390625q-0.265625 -0.15625 -0.90625 -0.34375l0 -1.03125l5.90625 0zm21.734375 0l0 1.03125q-0.625 0.203125 -0.890625 0.34375q-0.25 0.140625 -0.4375 0.375q-0.171875 0.234375 -0.265625 0.71875q-0.09375 0.46875 -0.09375 1.453125l0 17.40625l-3.96875 0l-7.03125 -12.15625q-1.421875 -2.46875 -2.09375 -3.875l-0.140625 0q0.15625 3.359375 0.15625 7.09375l0 5.03125q0 1.171875 0.109375 1.640625q0.125 0.46875 0.421875 0.75q0.3125 0.265625 1.15625 0.484375l0 1.03125l-5.90625 0l0 -1.03125q0.578125 -0.15625 0.90625 -0.34375q0.34375 -0.1875 0.5 -0.5q0.171875 -0.328125 0.21875 -0.8125q0.046875 -0.484375 0.046875 -1.21875l0 -13.515625q0 -1.171875 -0.109375 -1.609375q-0.09375 -0.453125 -0.421875 -0.75q-0.3125 -0.296875 -1.140625 -0.515625l0 -1.03125l6.328125 0l5.53125 9.609375q0.515625 0.90625 1.34375 2.453125q0.828125 1.546875 1.46875 2.921875l0.25 0q-0.171875 -3.734375 -0.171875 -8.15625l0 -2.90625q0 -1.015625 -0.078125 -1.46875q-0.078125 -0.453125 -0.25 -0.6875q-0.15625 -0.234375 -0.4375 -0.390625q-0.265625 -0.15625 -0.90625 -0.34375l0 -1.03125l5.90625 0z" fill-rule="nonzero"/><path fill="#cfe2f3" d="m59.732285 346.84378l0 0c0 -20.3432 16.491432 -36.834625 36.83465 -36.834625l0 0c9.76915 0 19.138191 3.8807678 26.04602 10.788605c6.9078445 6.907837 10.788628 16.276886 10.788628 26.04602l0 0c0 20.343231 -16.49144 36.834656 -36.83465 36.834656l0 0c-20.343216 0 -36.83465 -16.491425 -36.83465 -36.834656z" fill-rule="evenodd"/><path stroke="#000000" stroke-width="1.0" stroke-linejoin="round" stroke-linecap="butt" d="m59.732285 346.84378l0 0c0 -20.3432 16.491432 -36.834625 36.83465 -36.834625l0 0c9.76915 0 19.138191 3.8807678 26.04602 10.788605c6.9078445 6.907837 10.788628 16.276886 10.788628 26.04602l0 0c0 20.343231 -16.49144 36.834656 -36.83465 36.834656l0 0c-20.343216 0 -36.83465 -16.491425 -36.83465 -36.834656z" fill-rule="evenodd"/><path fill="#000000" d="m91.48295 339.3838l0 0.78125q-0.546875 0.046875 -0.78125 0.25q-0.21875 0.1875 -0.21875 0.59375q0 0.1875 0.078125 0.453125q0.078125 0.25 0.265625 0.609375q0.1875 0.34375 0.640625 1.09375l1.078125 1.8125l1.421875 -2.09375q0.46875 -0.6875 0.625 -1.046875q0.15625 -0.375 0.15625 -0.796875q0 -0.375 -0.265625 -0.59375q-0.25 -0.234375 -0.703125 -0.28125l0 -0.78125l4.84375 0l0 0.78125q-0.34375 0.09375 -0.65625 0.3125q-0.296875 0.203125 -0.703125 0.671875q-0.390625 0.46875 -1.265625 1.734375l-2.53125 3.609375l3.8125 6.296875q0.203125 0.3125 0.40625 0.625q0.203125 0.3125 0.390625 0.5625q0.203125 0.234375 0.34375 0.359375q0.15625 0.109375 0.296875 0.171875q0.140625 0.0625 0.296875 0.09375l0 0.78125l-6.515625 0l0 -0.78125q0.515625 -0.046875 0.75 -0.234375q0.25 -0.1875 0.25 -0.609375q0 -0.140625 -0.046875 -0.296875q-0.03125 -0.171875 -0.140625 -0.40625q-0.09375 -0.234375 -0.203125 -0.40625q-0.09375 -0.1875 -0.390625 -0.703125l-1.625 -2.6875l-1.921875 2.828125q-0.21875 0.34375 -0.375 0.625q-0.140625 0.28125 -0.203125 0.515625q-0.0625 0.234375 -0.0625 0.546875q0 0.3125 0.25 0.546875q0.25 0.234375 0.71875 0.28125l0 0.78125l-4.84375 0l0 -0.78125q0.390625 -0.109375 0.703125 -0.34375q0.328125 -0.25 0.703125 -0.703125q0.390625 -0.453125 1.046875 -1.421875l3.0625 -4.375l-2.953125 -4.921875q-0.484375 -0.796875 -0.828125 -1.3125q-0.34375 -0.53125 -0.578125 -0.796875q-0.234375 -0.28125 -0.421875 -0.390625q-0.171875 -0.125 -0.421875 -0.171875l0 -0.78125l6.515625 0z" fill-rule="nonzero"/><path fill="#000000" d="m103.893105 364.5088q-1.21875 0 -2.046875 -0.53125q-0.8125 -0.546875 -1.265625 -1.734375q-0.4375 -1.203125 -0.4375 -3.09375q0 -1.796875 0.453125 -3.03125q0.453125 -1.234375 1.328125 -1.875q0.875 -0.65625 2.109375 -0.65625q1.921875 0 2.859375 1.3125q0.953125 1.3125 0.953125 4.0q0 2.765625 -1.0 4.1875q-1.0 1.421875 -2.953125 1.421875zm-1.375 -5.59375q0 1.71875 0.140625 2.734375q0.15625 1.015625 0.484375 1.5q0.328125 0.484375 0.875 0.484375q0.296875 0 0.515625 -0.140625q0.234375 -0.15625 0.40625 -0.453125q0.171875 -0.3125 0.296875 -0.828125q0.125 -0.515625 0.171875 -1.265625q0.0625 -0.765625 0.0625 -1.703125q0 -1.40625 -0.109375 -2.359375q-0.09375 -0.953125 -0.296875 -1.46875q-0.1875 -0.515625 -0.453125 -0.734375q-0.265625 -0.21875 -0.625 -0.21875q-0.40625 0 -0.703125 0.28125q-0.28125 0.265625 -0.453125 0.828125q-0.171875 0.546875 -0.25 1.390625q-0.0625 0.828125 -0.0625 1.953125z" fill-rule="nonzero"/><path fill="#ffffff" d="m25.997375 212.15486l0 0c0 -2.2874146 1.8543167 -4.141739 4.1417313 -4.141739l0 0c1.0984573 0 2.1519241 0.4363556 2.928646 1.213089c0.77672577 0.77671814 1.2130852 1.8301849 1.2130852 2.92865l0 0c0 2.2874146 -1.8543167 4.1417236 -4.1417313 4.1417236l0 0c-2.2874146 0 -4.1417313 -1.8543091 -4.1417313 -4.1417236z" fill-rule="evenodd"/><path stroke="#000000" stroke-width="1.0" stroke-linejoin="round" stroke-linecap="butt" d="m25.997375 212.15486l0 0c0 -2.2874146 1.8543167 -4.141739 4.1417313 -4.141739l0 0c1.0984573 0 2.1519241 0.4363556 2.928646 1.213089c0.77672577 0.77671814 1.2130852 1.8301849 1.2130852 2.92865l0 0c0 2.2874146 -1.8543167 4.1417236 -4.1417313 4.1417236l0 0c-2.2874146 0 -4.1417313 -1.8543091 -4.1417313 -4.1417236z" fill-rule="evenodd"/><path fill="#ffffff" d="m159.11127 212.15617l0 0c0 -2.2874146 1.8543091 -4.141739 4.1417236 -4.141739l0 0c1.098465 0 2.1519318 0.4363556 2.92865 1.213089c0.7767334 0.77671814 1.213089 1.8301849 1.213089 2.92865l0 0c0 2.2874146 -1.8543243 4.1417236 -4.141739 4.1417236l0 0c-2.2874146 0 -4.1417236 -1.8543091 -4.1417236 -4.1417236z" fill-rule="evenodd"/><path stroke="#000000" stroke-width="1.0" stroke-linejoin="round" stroke-linecap="butt" d="m159.11127 212.15617l0 0c0 -2.2874146 1.8543091 -4.141739 4.1417236 -4.141739l0 0c1.098465 0 2.1519318 0.4363556 2.92865 1.213089c0.7767334 0.77671814 1.213089 1.8301849 1.213089 2.92865l0 0c0 2.2874146 -1.8543243 4.1417236 -4.141739 4.1417236l0 0c-2.2874146 0 -4.1417236 -1.8543091 -4.1417236 -4.1417236z" fill-rule="evenodd"/><path fill="#ffffff" d="m92.42519 279.7375l0 0c0 -2.2874146 1.8543167 -4.1417236 4.141739 -4.1417236l0 0c1.0984497 0 2.1519165 0.43637085 2.9286423 1.2130737c0.77672577 0.7767334 1.213089 1.8302002 1.213089 2.92865l0 0c0 2.2874146 -1.8543167 4.1417236 -4.1417313 4.1417236l0 0c-2.2874222 0 -4.141739 -1.8543091 -4.141739 -4.1417236z" fill-rule="evenodd"/><path stroke="#000000" stroke-width="1.0" stroke-linejoin="round" stroke-linecap="butt" d="m92.42519 279.7375l0 0c0 -2.2874146 1.8543167 -4.1417236 4.141739 -4.1417236l0 0c1.0984497 0 2.1519165 0.43637085 2.9286423 1.2130737c0.77672577 0.7767334 1.213089 1.8302002 1.213089 2.92865l0 0c0 2.2874146 -1.8543167 4.1417236 -4.1417313 4.1417236l0 0c-2.2874222 0 -4.141739 -1.8543091 -4.141739 -4.1417236z" fill-rule="evenodd"/><path fill="#000000" fill-opacity="0.0" d="m96.56693 310.00916l0 -26.141754" fill-rule="evenodd"/><path stroke="#000000" stroke-width="2.0" stroke-linejoin="round" stroke-linecap="butt" d="m96.56693 310.00916l0 -14.141754" fill-rule="evenodd"/><path fill="#000000" stroke="#000000" stroke-width="2.0" stroke-linecap="butt" d="m99.87039 295.8674l-3.3034592 -9.076172l-3.3034668 9.076172z" fill-rule="evenodd"/><path fill="#d9ead3" d="m209.18898 167.4952l0 0c0 -12.333145 9.998001 -22.331146 22.331146 -22.331146l89.321945 0l0 0c5.922577 0 11.6026 2.3527374 15.790527 6.540634c4.1878967 4.187912 6.540619 9.86792 6.540619 15.790512l0 89.321945c0 12.33316 -9.997986 22.331146 -22.331146 22.331146l-89.321945 0c-12.333145 0 -22.331146 -9.997986 -22.331146 -22.331146z" fill-rule="evenodd"/><path stroke="#274e13" stroke-width="2.0" stroke-linejoin="round" stroke-linecap="butt" d="m209.18898 167.4952l0 0c0 -12.333145 9.998001 -22.331146 22.331146 -22.331146l89.321945 0l0 0c5.922577 0 11.6026 2.3527374 15.790527 6.540634c4.1878967 4.187912 6.540619 9.86792 6.540619 15.790512l0 89.321945c0 12.33316 -9.997986 22.331146 -22.331146 22.331146l-89.321945 0c-12.333145 0 -22.331146 -9.997986 -22.331146 -22.331146z" fill-rule="evenodd"/><path fill="#000000" d="m253.56392 223.87617l-8.203125 0l0 -1.03125q0.578125 -0.15625 0.90625 -0.328125q0.34375 -0.1875 0.5 -0.5q0.171875 -0.328125 0.21875 -0.8125q0.046875 -0.5 0.046875 -1.25l0 -13.46875q0 -0.734375 -0.046875 -1.234375q-0.03125 -0.5 -0.203125 -0.8125q-0.15625 -0.3125 -0.5 -0.5q-0.328125 -0.203125 -0.921875 -0.359375l0 -1.03125l9.109375 0q1.8437347 0 3.1249847 0.265625q1.296875 0.25 2.265625 0.78125q0.8125 0.4375 1.375 1.109375q0.5625 0.65625 0.859375 1.546875q0.3125 0.875 0.3125 2.046875q0 1.53125 -0.546875 2.625q-0.53125 1.09375 -1.453125 1.828125q-0.90625 0.71875 -2.4375 1.359375l0 0.15625q1.15625 0.5 1.90625 1.34375q0.765625 0.828125 1.375 2.109375l0.984375 2.125q0.65625 1.421875 1.296875 2.140625q0.65625 0.703125 1.546875 0.859375l0 1.03125l-6.015625 0q-0.90625 -1.25 -2.046875 -3.71875l-1.2187347 -2.671875q-0.546875 -1.1875 -0.9375 -1.6875q-0.390625 -0.5 -0.8125 -0.6875q-0.40625 -0.1875 -1.265625 -0.1875l-0.90625 0l0 5.03125q0 1.171875 0.109375 1.640625q0.109375 0.46875 0.421875 0.75q0.3125 0.28125 1.15625 0.5l0 1.03125zm-1.6875 -19.46875l0 8.6875l1.546875 0q1.25 0 2.0625 -0.328125q0.81248474 -0.34375 1.2812347 -0.9375q0.484375 -0.609375 0.65625 -1.421875q0.1875 -0.8125 0.1875 -1.78125q0 -2.125 -1.0 -3.1875q-0.99998474 -1.0625 -2.9687347 -1.0625q-1.34375 0 -1.765625 0.03125zm33.593735 -1.859375l0 1.03125q-0.625 0.203125 -0.890625 0.34375q-0.25 0.140625 -0.4375 0.375q-0.171875 0.234375 -0.265625 0.71875q-0.09375 0.46875 -0.09375 1.453125l0 17.40625l-3.96875 0l-7.03125 -12.15625q-1.421875 -2.46875 -2.09375 -3.875l-0.140625 0q0.15625 3.359375 0.15625 7.09375l0 5.03125q0 1.171875 0.109375 1.640625q0.125 0.46875 0.421875 0.75q0.3125 0.265625 1.15625 0.484375l0 1.03125l-5.90625 0l0 -1.03125q0.578125 -0.15625 0.90625 -0.34375q0.34375 -0.1875 0.5 -0.5q0.171875 -0.328125 0.21875 -0.8125q0.046875 -0.484375 0.046875 -1.21875l0 -13.515625q0 -1.171875 -0.109375 -1.609375q-0.09375 -0.453125 -0.421875 -0.75q-0.3125 -0.296875 -1.140625 -0.515625l0 -1.03125l6.328125 0l5.53125 9.609375q0.515625 0.90625 1.34375 2.453125q0.828125 1.546875 1.46875 2.921875l0.25 0q-0.171875 -3.734375 -0.171875 -8.15625l0 -2.90625q0 -1.015625 -0.078125 -1.46875q-0.078125 -0.453125 -0.25 -0.6875q-0.15625 -0.234375 -0.4375 -0.390625q-0.265625 -0.15625 -0.90625 -0.34375l0 -1.03125l5.90625 0zm21.734375 0l0 1.03125q-0.625 0.203125 -0.890625 0.34375q-0.25 0.140625 -0.4375 0.375q-0.171875 0.234375 -0.265625 0.71875q-0.09375 0.46875 -0.09375 1.453125l0 17.40625l-3.96875 0l-7.03125 -12.15625q-1.421875 -2.46875 -2.09375 -3.875l-0.140625 0q0.15625 3.359375 0.15625 7.09375l0 5.03125q0 1.171875 0.109375 1.640625q0.125 0.46875 0.421875 0.75q0.3125 0.265625 1.15625 0.484375l0 1.03125l-5.90625 0l0 -1.03125q0.578125 -0.15625 0.90625 -0.34375q0.34375 -0.1875 0.5 -0.5q0.171875 -0.328125 0.21875 -0.8125q0.046875 -0.484375 0.046875 -1.21875l0 -13.515625q0 -1.171875 -0.109375 -1.609375q-0.09375 -0.453125 -0.421875 -0.75q-0.3125 -0.296875 -1.140625 -0.515625l0 -1.03125l6.328125 0l5.53125 9.609375q0.515625 0.90625 1.34375 2.453125q0.828125 1.546875 1.46875 2.921875l0.25 0q-0.171875 -3.734375 -0.171875 -8.15625l0 -2.90625q0 -1.015625 -0.078125 -1.46875q-0.078125 -0.453125 -0.25 -0.6875q-0.15625 -0.234375 -0.4375 -0.390625q-0.265625 -0.15625 -0.90625 -0.34375l0 -1.03125l5.90625 0z" fill-rule="nonzero"/><path fill="#cfe2f3" d="m239.34645 346.84378l0 0c0 -20.3432 16.49144 -36.834625 36.83464 -36.834625l0 0c9.769165 0 19.138214 3.8807678 26.046051 10.788605c6.907837 6.907837 10.788605 16.276886 10.788605 26.04602l0 0c0 20.343231 -16.491425 36.834656 -36.834656 36.834656l0 0c-20.3432 0 -36.83464 -16.491425 -36.83464 -36.834656z" fill-rule="evenodd"/><path stroke="#000000" stroke-width="1.0" stroke-linejoin="round" stroke-linecap="butt" d="m239.34645 346.84378l0 0c0 -20.3432 16.49144 -36.834625 36.83464 -36.834625l0 0c9.769165 0 19.138214 3.8807678 26.046051 10.788605c6.907837 6.907837 10.788605 16.276886 10.788605 26.04602l0 0c0 20.343231 -16.491425 36.834656 -36.834656 36.834656l0 0c-20.3432 0 -36.83464 -16.491425 -36.83464 -36.834656z" fill-rule="evenodd"/><path fill="#000000" d="m271.0971 339.3838l0 0.78125q-0.546875 0.046875 -0.78125 0.25q-0.21875 0.1875 -0.21875 0.59375q0 0.1875 0.078125 0.453125q0.078125 0.25 0.265625 0.609375q0.1875 0.34375 0.640625 1.09375l1.078125 1.8125l1.421875 -2.09375q0.46875 -0.6875 0.625 -1.046875q0.15625 -0.375 0.15625 -0.796875q0 -0.375 -0.265625 -0.59375q-0.25 -0.234375 -0.703125 -0.28125l0 -0.78125l4.84375 0l0 0.78125q-0.34375 0.09375 -0.65625 0.3125q-0.296875 0.203125 -0.703125 0.671875q-0.390625 0.46875 -1.265625 1.734375l-2.53125 3.609375l3.8125 6.296875q0.203125 0.3125 0.40625 0.625q0.203125 0.3125 0.390625 0.5625q0.203125 0.234375 0.34375 0.359375q0.15625 0.109375 0.296875 0.171875q0.140625 0.0625 0.296875 0.09375l0 0.78125l-6.515625 0l0 -0.78125q0.515625 -0.046875 0.75 -0.234375q0.25 -0.1875 0.25 -0.609375q0 -0.140625 -0.046875 -0.296875q-0.03125 -0.171875 -0.140625 -0.40625q-0.09375 -0.234375 -0.203125 -0.40625q-0.09375 -0.1875 -0.390625 -0.703125l-1.625 -2.6875l-1.921875 2.828125q-0.21875 0.34375 -0.375 0.625q-0.140625 0.28125 -0.203125 0.515625q-0.0625 0.234375 -0.0625 0.546875q0 0.3125 0.25 0.546875q0.25 0.234375 0.71875 0.28125l0 0.78125l-4.84375 0l0 -0.78125q0.390625 -0.109375 0.703125 -0.34375q0.328125 -0.25 0.703125 -0.703125q0.390625 -0.453125 1.046875 -1.421875l3.0625 -4.375l-2.953125 -4.921875q-0.484375 -0.796875 -0.828125 -1.3125q-0.34375 -0.53125 -0.578125 -0.796875q-0.234375 -0.28125 -0.421875 -0.390625q-0.171875 -0.125 -0.421875 -0.171875l0 -0.78125l6.515625 0z" fill-rule="nonzero"/><path fill="#000000" d="m285.13226 362.1963q0 0.453125 0.046875 0.6875q0.0625 0.234375 0.1875 0.375q0.125 0.140625 0.359375 0.234375q0.25 0.078125 0.609375 0.125q0.375 0.03125 0.984375 0.046875l0 0.71875l-6.75 0l0 -0.71875q0.875 -0.03125 1.234375 -0.09375q0.375 -0.078125 0.5625 -0.203125q0.203125 -0.140625 0.296875 -0.375q0.09375 -0.25 0.09375 -0.796875l0 -5.640625q0 -0.328125 -0.125 -0.46875q-0.125 -0.140625 -0.328125 -0.140625q-0.203125 0 -0.5625 0.1875q-0.34375 0.171875 -1.15625 0.734375l-0.484375 -0.828125l4.078125 -2.453125l1.0 0q-0.046875 0.75 -0.046875 2.078125l0 6.53125z" fill-rule="nonzero"/><path fill="#ffffff" d="m205.61154 212.15486l0 0c0 -2.2874146 1.8543243 -4.141739 4.141739 -4.141739l0 0c1.0984497 0 2.1519165 0.4363556 2.92865 1.213089c0.77671814 0.77671814 1.213089 1.8301849 1.213089 2.92865l0 0c0 2.2874146 -1.8543243 4.1417236 -4.141739 4.1417236l0 0c-2.2874146 0 -4.141739 -1.8543091 -4.141739 -4.1417236z" fill-rule="evenodd"/><path stroke="#000000" stroke-width="1.0" stroke-linejoin="round" stroke-linecap="butt" d="m205.61154 212.15486l0 0c0 -2.2874146 1.8543243 -4.141739 4.141739 -4.141739l0 0c1.0984497 0 2.1519165 0.4363556 2.92865 1.213089c0.77671814 0.77671814 1.213089 1.8301849 1.213089 2.92865l0 0c0 2.2874146 -1.8543243 4.1417236 -4.141739 4.1417236l0 0c-2.2874146 0 -4.141739 -1.8543091 -4.141739 -4.1417236z" fill-rule="evenodd"/><path fill="#ffffff" d="m338.72543 212.15617l0 0c0 -2.2874146 1.8543091 -4.141739 4.1417236 -4.141739l0 0c1.0984802 0 2.151947 0.4363556 2.92865 1.213089c0.7767334 0.77671814 1.2131042 1.8301849 1.2131042 2.92865l0 0c0 2.2874146 -1.8543396 4.1417236 -4.141754 4.1417236l0 0c-2.2874146 0 -4.1417236 -1.8543091 -4.1417236 -4.1417236z" fill-rule="evenodd"/><path stroke="#000000" stroke-width="1.0" stroke-linejoin="round" stroke-linecap="butt" d="m338.72543 212.15617l0 0c0 -2.2874146 1.8543091 -4.141739 4.1417236 -4.141739l0 0c1.0984802 0 2.151947 0.4363556 2.92865 1.213089c0.7767334 0.77671814 1.2131042 1.8301849 1.2131042 2.92865l0 0c0 2.2874146 -1.8543396 4.1417236 -4.141754 4.1417236l0 0c-2.2874146 0 -4.1417236 -1.8543091 -4.1417236 -4.1417236z" fill-rule="evenodd"/><path fill="#ffffff" d="m272.03937 279.7375l0 0c0 -2.2874146 1.8543091 -4.1417236 4.1417236 -4.1417236l0 0c1.0984802 0 2.151947 0.43637085 2.92865 1.2130737c0.7767334 0.7767334 1.2131042 1.8302002 1.2131042 2.92865l0 0c0 2.2874146 -1.8543396 4.1417236 -4.141754 4.1417236l0 0c-2.2874146 0 -4.1417236 -1.8543091 -4.1417236 -4.1417236z" fill-rule="evenodd"/><path stroke="#000000" stroke-width="1.0" stroke-linejoin="round" stroke-linecap="butt" d="m272.03937 279.7375l0 0c0 -2.2874146 1.8543091 -4.1417236 4.1417236 -4.1417236l0 0c1.0984802 0 2.151947 0.43637085 2.92865 1.2130737c0.7767334 0.7767334 1.2131042 1.8302002 1.2131042 2.92865l0 0c0 2.2874146 -1.8543396 4.1417236 -4.141754 4.1417236l0 0c-2.2874146 0 -4.1417236 -1.8543091 -4.1417236 -4.1417236z" fill-rule="evenodd"/><path fill="#000000" fill-opacity="0.0" d="m276.1811 310.00916l0 -26.141754" fill-rule="evenodd"/><path stroke="#000000" stroke-width="2.0" stroke-linejoin="round" stroke-linecap="butt" d="m276.1811 310.00916l0 -14.141754" fill-rule="evenodd"/><path fill="#000000" stroke="#000000" stroke-width="2.0" stroke-linecap="butt" d="m279.48456 295.8674l-3.3034668 -9.076172l-3.3034668 9.076172z" fill-rule="evenodd"/><path fill="#000000" fill-opacity="0.0" d="m167.39473 212.15617l38.204727 0" fill-rule="evenodd"/><path stroke="#000000" stroke-width="2.0" stroke-linejoin="round" stroke-linecap="butt" d="m167.39473 212.15617l26.204727 0" fill-rule="evenodd"/><path fill="#000000" stroke="#000000" stroke-width="2.0" stroke-linecap="butt" d="m193.59946 215.45963l9.076187 -3.3034515l-9.076187 -3.3034668z" fill-rule="evenodd"/><path fill="#000000" fill-opacity="0.0" d="m347.0089 212.15617l50.33069 0" fill-rule="evenodd"/><path stroke="#000000" stroke-width="2.0" stroke-linejoin="round" stroke-linecap="butt" d="m347.0089 212.15617l38.33069 0" fill-rule="evenodd"/><path fill="#000000" stroke="#000000" stroke-width="2.0" stroke-linecap="butt" d="m385.3396 215.45963l9.076202 -3.3034515l-9.076202 -3.3034668z" fill-rule="evenodd"/><path fill="#d9ead3" d="m511.54593 167.4952l0 0c0 -12.333145 9.998016 -22.331146 22.331146 -22.331146l89.32196 0l0 0c5.9226074 0 11.6026 2.3527374 15.790527 6.540634c4.187866 4.187912 6.5406494 9.86792 6.5406494 15.790512l0 89.321945c0 12.33316 -9.998047 22.331146 -22.331177 22.331146l-89.32196 0c-12.33313 0 -22.331146 -9.997986 -22.331146 -22.331146z" fill-rule="evenodd"/><path stroke="#274e13" stroke-width="2.0" stroke-linejoin="round" stroke-linecap="butt" d="m511.54593 167.4952l0 0c0 -12.333145 9.998016 -22.331146 22.331146 -22.331146l89.32196 0l0 0c5.9226074 0 11.6026 2.3527374 15.790527 6.540634c4.187866 4.187912 6.5406494 9.86792 6.5406494 15.790512l0 89.321945c0 12.33316 -9.998047 22.331146 -22.331177 22.331146l-89.32196 0c-12.33313 0 -22.331146 -9.997986 -22.331146 -22.331146z" fill-rule="evenodd"/><path fill="#000000" d="m555.9209 223.87617l-8.203125 0l0 -1.03125q0.578125 -0.15625 0.90625 -0.328125q0.34375 -0.1875 0.5 -0.5q0.171875 -0.328125 0.21875 -0.8125q0.046875 -0.5 0.046875 -1.25l0 -13.46875q0 -0.734375 -0.046875 -1.234375q-0.03125 -0.5 -0.203125 -0.8125q-0.15625 -0.3125 -0.5 -0.5q-0.328125 -0.203125 -0.921875 -0.359375l0 -1.03125l9.109375 0q1.84375 0 3.125 0.265625q1.296875 0.25 2.265625 0.78125q0.8125 0.4375 1.375 1.109375q0.5625 0.65625 0.859375 1.546875q0.3125 0.875 0.3125 2.046875q0 1.53125 -0.546875 2.625q-0.53125 1.09375 -1.453125 1.828125q-0.90625 0.71875 -2.4375 1.359375l0 0.15625q1.15625 0.5 1.90625 1.34375q0.765625 0.828125 1.375 2.109375l0.984375 2.125q0.65625 1.421875 1.296875 2.140625q0.65625 0.703125 1.546875 0.859375l0 1.03125l-6.015625 0q-0.90625 -1.25 -2.046875 -3.71875l-1.21875 -2.671875q-0.546875 -1.1875 -0.9375 -1.6875q-0.390625 -0.5 -0.8125 -0.6875q-0.40625 -0.1875 -1.265625 -0.1875l-0.90625 0l0 5.03125q0 1.171875 0.109375 1.640625q0.109375 0.46875 0.421875 0.75q0.3125 0.28125 1.15625 0.5l0 1.03125zm-1.6875 -19.46875l0 8.6875l1.546875 0q1.25 0 2.0625 -0.328125q0.8125 -0.34375 1.28125 -0.9375q0.484375 -0.609375 0.65625 -1.421875q0.1875 -0.8125 0.1875 -1.78125q0 -2.125 -1.0 -3.1875q-1.0 -1.0625 -2.96875 -1.0625q-1.34375 0 -1.765625 0.03125zm33.59375 -1.859375l0 1.03125q-0.625 0.203125 -0.890625 0.34375q-0.25 0.140625 -0.4375 0.375q-0.171875 0.234375 -0.265625 0.71875q-0.09375 0.46875 -0.09375 1.453125l0 17.40625l-3.96875 0l-7.03125 -12.15625q-1.421875 -2.46875 -2.09375 -3.875l-0.140625 0q0.15625 3.359375 0.15625 7.09375l0 5.03125q0 1.171875 0.109375 1.640625q0.125 0.46875 0.421875 0.75q0.3125 0.265625 1.15625 0.484375l0 1.03125l-5.90625 0l0 -1.03125q0.578125 -0.15625 0.90625 -0.34375q0.34375 -0.1875 0.5 -0.5q0.171875 -0.328125 0.21875 -0.8125q0.046875 -0.484375 0.046875 -1.21875l0 -13.515625q0 -1.171875 -0.109375 -1.609375q-0.09375 -0.453125 -0.421875 -0.75q-0.3125 -0.296875 -1.140625 -0.515625l0 -1.03125l6.328125 0l5.53125 9.609375q0.515625 0.90625 1.34375 2.453125q0.828125 1.546875 1.46875 2.921875l0.25 0q-0.171875 -3.734375 -0.171875 -8.15625l0 -2.90625q0 -1.015625 -0.078125 -1.46875q-0.078125 -0.453125 -0.25 -0.6875q-0.15625 -0.234375 -0.4375 -0.390625q-0.265625 -0.15625 -0.90625 -0.34375l0 -1.03125l5.90625 0zm21.734375 0l0 1.03125q-0.625 0.203125 -0.890625 0.34375q-0.25 0.140625 -0.4375 0.375q-0.171875 0.234375 -0.265625 0.71875q-0.09375 0.46875 -0.09375 1.453125l0 17.40625l-3.96875 0l-7.03125 -12.15625q-1.421875 -2.46875 -2.09375 -3.875l-0.140625 0q0.15625 3.359375 0.15625 7.09375l0 5.03125q0 1.171875 0.109375 1.640625q0.125 0.46875 0.421875 0.75q0.3125 0.265625 1.15625 0.484375l0 1.03125l-5.90625 0l0 -1.03125q0.578125 -0.15625 0.90625 -0.34375q0.34375 -0.1875 0.5 -0.5q0.171875 -0.328125 0.21875 -0.8125q0.046875 -0.484375 0.046875 -1.21875l0 -13.515625q0 -1.171875 -0.109375 -1.609375q-0.09375 -0.453125 -0.421875 -0.75q-0.3125 -0.296875 -1.140625 -0.515625l0 -1.03125l6.328125 0l5.53125 9.609375q0.515625 0.90625 1.34375 2.453125q0.828125 1.546875 1.46875 2.921875l0.25 0q-0.171875 -3.734375 -0.171875 -8.15625l0 -2.90625q0 -1.015625 -0.078125 -1.46875q-0.078125 -0.453125 -0.25 -0.6875q-0.15625 -0.234375 -0.4375 -0.390625q-0.265625 -0.15625 -0.90625 -0.34375l0 -1.03125l5.90625 0z" fill-rule="nonzero"/><path fill="#cfe2f3" d="m541.7034 346.84378l0 0c0 -20.3432 16.491394 -36.834625 36.834656 -36.834625l0 0c9.769104 0 19.138184 3.8807678 26.04602 10.788605c6.907837 6.907837 10.788574 16.276886 10.788574 26.04602l0 0c0 20.343231 -16.491394 36.834656 -36.834595 36.834656l0 0c-20.343262 0 -36.834656 -16.491425 -36.834656 -36.834656z" fill-rule="evenodd"/><path stroke="#000000" stroke-width="1.0" stroke-linejoin="round" stroke-linecap="butt" d="m541.7034 346.84378l0 0c0 -20.3432 16.491394 -36.834625 36.834656 -36.834625l0 0c9.769104 0 19.138184 3.8807678 26.04602 10.788605c6.907837 6.907837 10.788574 16.276886 10.788574 26.04602l0 0c0 20.343231 -16.491394 36.834656 -36.834595 36.834656l0 0c-20.343262 0 -36.834656 -16.491425 -36.834656 -36.834656z" fill-rule="evenodd"/><path fill="#000000" d="m572.7588 339.3838l0 0.78125q-0.546875 0.046875 -0.78125 0.25q-0.21875 0.1875 -0.21875 0.59375q0 0.1875 0.078125 0.453125q0.078125 0.25 0.265625 0.609375q0.1875 0.34375 0.640625 1.09375l1.078125 1.8125l1.421875 -2.09375q0.46875 -0.6875 0.625 -1.046875q0.15625 -0.375 0.15625 -0.796875q0 -0.375 -0.265625 -0.59375q-0.25 -0.234375 -0.703125 -0.28125l0 -0.78125l4.84375 0l0 0.78125q-0.34375 0.09375 -0.65625 0.3125q-0.296875 0.203125 -0.703125 0.671875q-0.390625 0.46875 -1.265625 1.734375l-2.53125 3.609375l3.8125 6.296875q0.203125 0.3125 0.40625 0.625q0.203125 0.3125 0.390625 0.5625q0.203125 0.234375 0.34375 0.359375q0.15625 0.109375 0.296875 0.171875q0.140625 0.0625 0.296875 0.09375l0 0.78125l-6.515625 0l0 -0.78125q0.515625 -0.046875 0.75 -0.234375q0.25 -0.1875 0.25 -0.609375q0 -0.140625 -0.046875 -0.296875q-0.03125 -0.171875 -0.140625 -0.40625q-0.09375 -0.234375 -0.203125 -0.40625q-0.09375 -0.1875 -0.390625 -0.703125l-1.625 -2.6875l-1.921875 2.828125q-0.21875 0.34375 -0.375 0.625q-0.140625 0.28125 -0.203125 0.515625q-0.0625 0.234375 -0.0625 0.546875q0 0.3125 0.25 0.546875q0.25 0.234375 0.71875 0.28125l0 0.78125l-4.84375 0l0 -0.78125q0.390625 -0.109375 0.703125 -0.34375q0.328125 -0.25 0.703125 -0.703125q0.390625 -0.453125 1.046875 -1.421875l3.0625 -4.375l-2.953125 -4.921875q-0.484375 -0.796875 -0.828125 -1.3125q-0.34375 -0.53125 -0.578125 -0.796875q-0.234375 -0.28125 -0.421875 -0.390625q-0.171875 -0.125 -0.421875 -0.171875l0 -0.78125l6.515625 0z" fill-rule="nonzero"/><path fill="#000000" d="m590.7471 353.7119l0 0.515625q-0.3125 0.109375 -0.4375 0.1875q-0.125 0.0625 -0.21875 0.1875q-0.09375 0.109375 -0.140625 0.34375q-0.046875 0.234375 -0.046875 0.734375l0 8.703125l-1.984375 0l-3.515625 -6.078125q-0.703125 -1.234375 -1.046875 -1.9375l-0.0625 0q0.078125 1.671875 0.078125 3.546875l0 2.515625q0 0.578125 0.046875 0.8125q0.0625 0.234375 0.21875 0.375q0.15625 0.140625 0.578125 0.25l0 0.515625l-2.953125 0l0 -0.515625q0.28125 -0.078125 0.453125 -0.171875q0.171875 -0.09375 0.25 -0.25q0.078125 -0.171875 0.09375 -0.40625q0.03125 -0.25 0.03125 -0.609375l0 -6.765625q0 -0.578125 -0.046875 -0.796875q-0.046875 -0.234375 -0.21875 -0.375q-0.15625 -0.15625 -0.5625 -0.265625l0 -0.515625l3.15625 0l2.765625 4.8125q0.265625 0.453125 0.671875 1.234375q0.421875 0.765625 0.734375 1.453125l0.125 0q-0.078125 -1.875 -0.078125 -4.078125l0 -1.453125q0 -0.515625 -0.046875 -0.734375q-0.03125 -0.234375 -0.125 -0.34375q-0.078125 -0.125 -0.21875 -0.203125q-0.125 -0.078125 -0.453125 -0.171875l0 -0.515625l2.953125 0z" fill-rule="nonzero"/><path fill="#ffffff" d="m507.9685 212.15486l0 0c0 -2.2874146 1.8543091 -4.141739 4.1417236 -4.141739l0 0c1.0984497 0 2.1519165 0.4363556 2.92865 1.213089c0.7767334 0.77671814 1.2130737 1.8301849 1.2130737 2.92865l0 0c0 2.2874146 -1.8543091 4.1417236 -4.1417236 4.1417236l0 0c-2.2874146 0 -4.1417236 -1.8543091 -4.1417236 -4.1417236z" fill-rule="evenodd"/><path stroke="#000000" stroke-width="1.0" stroke-linejoin="round" stroke-linecap="butt" d="m507.9685 212.15486l0 0c0 -2.2874146 1.8543091 -4.141739 4.1417236 -4.141739l0 0c1.0984497 0 2.1519165 0.4363556 2.92865 1.213089c0.7767334 0.77671814 1.2130737 1.8301849 1.2130737 2.92865l0 0c0 2.2874146 -1.8543091 4.1417236 -4.1417236 4.1417236l0 0c-2.2874146 0 -4.1417236 -1.8543091 -4.1417236 -4.1417236z" fill-rule="evenodd"/><path fill="#ffffff" d="m641.0824 212.15617l0 0c0 -2.2874146 1.8543091 -4.141739 4.1417236 -4.141739l0 0c1.0984497 0 2.1519165 0.4363556 2.92865 1.213089c0.7767334 0.77671814 1.2130737 1.8301849 1.2130737 2.92865l0 0c0 2.2874146 -1.8543091 4.1417236 -4.1417236 4.1417236l0 0c-2.2874146 0 -4.1417236 -1.8543091 -4.1417236 -4.1417236z" fill-rule="evenodd"/><path stroke="#000000" stroke-width="1.0" stroke-linejoin="round" stroke-linecap="butt" d="m641.0824 212.15617l0 0c0 -2.2874146 1.8543091 -4.141739 4.1417236 -4.141739l0 0c1.0984497 0 2.1519165 0.4363556 2.92865 1.213089c0.7767334 0.77671814 1.2130737 1.8301849 1.2130737 2.92865l0 0c0 2.2874146 -1.8543091 4.1417236 -4.1417236 4.1417236l0 0c-2.2874146 0 -4.1417236 -1.8543091 -4.1417236 -4.1417236z" fill-rule="evenodd"/><path fill="#cfe2f3" d="m541.7034 55.156208l0 0c0 -20.343216 16.491394 -36.83465 36.834656 -36.83465l0 0c9.769104 0 19.138184 3.8807812 26.04602 10.788618c6.907837 6.907837 10.788574 16.27687 10.788574 26.046028l0 0c0 20.343212 -16.491394 36.834644 -36.834595 36.834644l0 0c-20.343262 0 -36.834656 -16.491432 -36.834656 -36.834644z" fill-rule="evenodd"/><path stroke="#000000" stroke-width="1.0" stroke-linejoin="round" stroke-linecap="butt" d="m541.7034 55.156208l0 0c0 -20.343216 16.491394 -36.83465 36.834656 -36.83465l0 0c9.769104 0 19.138184 3.8807812 26.04602 10.788618c6.907837 6.907837 10.788574 16.27687 10.788574 26.046028l0 0c0 20.343212 -16.491394 36.834644 -36.834595 36.834644l0 0c-20.343262 0 -36.834656 -16.491432 -36.834656 -36.834644z" fill-rule="evenodd"/><path fill="#000000" d="m575.4834 57.53996l0 3.21875q0 0.609375 0.03125 0.9375q0.03125 0.328125 0.125 0.53125q0.09375 0.1875 0.21875 0.3125q0.140625 0.125 0.375 0.234375q0.25 0.09375 0.65625 0.140625l0 0.78125l-6.46875 0l0 -0.78125q0.484375 -0.078125 0.765625 -0.203125q0.296875 -0.125 0.4375 -0.375q0.140625 -0.25 0.171875 -0.625q0.046875 -0.390625 0.046875 -0.953125l0 -3.21875l-3.171875 -6.703125q-0.40625 -0.859375 -0.640625 -1.265625q-0.28125 -0.484375 -0.46875 -0.6875q-0.1875 -0.21875 -0.359375 -0.296875q-0.15625 -0.078125 -0.453125 -0.109375l0 -0.78125l6.25 0l0 0.78125q-0.90625 0.109375 -0.90625 0.890625q0 0.296875 0.140625 0.71875q0.15625 0.421875 0.484375 1.125l1.96875 4.40625l2.15625 -4.296875q0.3125 -0.640625 0.4375 -1.0625q0.125 -0.4375 0.125 -0.859375q0 -0.421875 -0.25 -0.65625q-0.234375 -0.25 -0.671875 -0.265625l0 -0.78125l4.703125 0l0 0.78125q-0.3125 0.0625 -0.53125 0.1875q-0.203125 0.125 -0.453125 0.390625q-0.234375 0.265625 -0.578125 0.796875q-0.34375 0.515625 -0.78125 1.359375l-3.359375 6.328125z" fill-rule="nonzero"/><path fill="#000000" d="m585.69434 72.821205q-1.21875 0 -2.046875 -0.53125q-0.8125 -0.546875 -1.265625 -1.734375q-0.4375 -1.203125 -0.4375 -3.09375q0 -1.796875 0.453125 -3.03125q0.453125 -1.2343712 1.328125 -1.8749962q0.875 -0.65625 2.109375 -0.65625q1.921875 0 2.859375 1.3125q0.953125 1.3124962 0.953125 3.9999962q0 2.765625 -1.0 4.1875q-1.0 1.421875 -2.953125 1.421875zm-1.375 -5.59375q0 1.71875 0.140625 2.734375q0.15625 1.015625 0.484375 1.5q0.328125 0.484375 0.875 0.484375q0.296875 0 0.515625 -0.140625q0.234375 -0.15625 0.40625 -0.453125q0.171875 -0.3125 0.296875 -0.828125q0.125 -0.515625 0.171875 -1.265625q0.0625 -0.765625 0.0625 -1.703125q0 -1.40625 -0.109375 -2.359375q-0.09375 -0.953125 -0.296875 -1.4687462q-0.1875 -0.515625 -0.453125 -0.734375q-0.265625 -0.21875 -0.625 -0.21875q-0.40625 0 -0.703125 0.28125q-0.28125 0.265625 -0.453125 0.828125q-0.171875 0.5468712 -0.25 1.3906212q-0.0625 0.828125 -0.0625 1.953125z" fill-rule="nonzero"/><path fill="#ffffff" d="m574.3963 279.7375l0 0c0 -2.2874146 1.8543701 -4.1417236 4.1417847 -4.1417236l0 0c1.0984497 0 2.1519165 0.43637085 2.9285889 1.2130737c0.7767334 0.7767334 1.2131348 1.8302002 1.2131348 2.92865l0 0c0 2.2874146 -1.8543091 4.1417236 -4.1417236 4.1417236l0 0c-2.2874146 0 -4.1417847 -1.8543091 -4.1417847 -4.1417236z" fill-rule="evenodd"/><path stroke="#000000" stroke-width="1.0" stroke-linejoin="round" stroke-linecap="butt" d="m574.3963 279.7375l0 0c0 -2.2874146 1.8543701 -4.1417236 4.1417847 -4.1417236l0 0c1.0984497 0 2.1519165 0.43637085 2.9285889 1.2130737c0.7767334 0.7767334 1.2131348 1.8302002 1.2131348 2.92865l0 0c0 2.2874146 -1.8543091 4.1417236 -4.1417236 4.1417236l0 0c-2.2874146 0 -4.1417847 -1.8543091 -4.1417847 -4.1417236z" fill-rule="evenodd"/><path fill="#ffffff" d="m574.3963 144.57222l0 0c0 -2.2874146 1.8543701 -4.141739 4.1417847 -4.141739l0 0c1.0984497 0 2.1519165 0.43637085 2.9285889 1.213089c0.7767334 0.7767334 1.2131348 1.8301849 1.2131348 2.92865l0 0c0 2.2874146 -1.8543091 4.1417236 -4.1417236 4.1417236l0 0c-2.2874146 0 -4.1417847 -1.8543091 -4.1417847 -4.1417236z" fill-rule="evenodd"/><path stroke="#000000" stroke-width="1.0" stroke-linejoin="round" stroke-linecap="butt" d="m574.3963 144.57222l0 0c0 -2.2874146 1.8543701 -4.141739 4.1417847 -4.141739l0 0c1.0984497 0 2.1519165 0.43637085 2.9285889 1.213089c0.7767334 0.7767334 1.2131348 1.8301849 1.2131348 2.92865l0 0c0 2.2874146 -1.8543091 4.1417236 -4.1417236 4.1417236l0 0c-2.2874146 0 -4.1417847 -1.8543091 -4.1417847 -4.1417236z" fill-rule="evenodd"/><path fill="#000000" fill-opacity="0.0" d="m578.5381 140.43048l0 -48.44094" fill-rule="evenodd"/><path stroke="#000000" stroke-width="2.0" stroke-linejoin="round" stroke-linecap="butt" d="m578.5381 140.43048l0 -36.44094" fill-rule="evenodd"/><path fill="#000000" stroke="#000000" stroke-width="2.0" stroke-linecap="butt" d="m581.84155 103.98954l-3.3034668 -9.076195l-3.3034668 9.076195z" fill-rule="evenodd"/><path fill="#000000" fill-opacity="0.0" d="m578.5381 310.00916l0 -26.141754" fill-rule="evenodd"/><path stroke="#000000" stroke-width="2.0" stroke-linejoin="round" stroke-linecap="butt" d="m578.5381 310.00916l0 -14.141754" fill-rule="evenodd"/><path fill="#000000" stroke="#000000" stroke-width="2.0" stroke-linecap="butt" d="m581.84155 295.8674l-3.3034668 -9.076172l-3.3034668 9.076172z" fill-rule="evenodd"/><path fill="#000000" d="m397.3501 212.15617l0 0c0 -2.2874146 1.8543396 -4.141739 4.141754 -4.141739l0 0c1.0984497 0 2.1519165 0.4363556 2.9286194 1.213089c0.7767334 0.77671814 1.2131042 1.8301849 1.2131042 2.92865l0 0c0 2.2874146 -1.8543091 4.1417236 -4.1417236 4.1417236l0 0c-2.2874146 0 -4.141754 -1.8543091 -4.141754 -4.1417236z" fill-rule="evenodd"/><path stroke="#000000" stroke-width="2.0" stroke-linejoin="round" stroke-linecap="butt" d="m397.3501 212.15617l0 0c0 -2.2874146 1.8543396 -4.141739 4.141754 -4.141739l0 0c1.0984497 0 2.1519165 0.4363556 2.9286194 1.213089c0.7767334 0.77671814 1.2131042 1.8301849 1.2131042 2.92865l0 0c0 2.2874146 -1.8543091 4.1417236 -4.1417236 4.1417236l0 0c-2.2874146 0 -4.141754 -1.8543091 -4.141754 -4.1417236z" fill-rule="evenodd"/><path fill="#000000" d="m424.22412 212.15617l0 0c0 -2.2874146 1.8543091 -4.141739 4.1417236 -4.141739l0 0c1.0984802 0 2.151947 0.4363556 2.92865 1.213089c0.7767334 0.77671814 1.2131042 1.8301849 1.2131042 2.92865l0 0c0 2.2874146 -1.8543396 4.1417236 -4.141754 4.1417236l0 0c-2.2874146 0 -4.1417236 -1.8543091 -4.1417236 -4.1417236z" fill-rule="evenodd"/><path stroke="#000000" stroke-width="2.0" stroke-linejoin="round" stroke-linecap="butt" d="m424.22412 212.15617l0 0c0 -2.2874146 1.8543091 -4.141739 4.1417236 -4.141739l0 0c1.0984802 0 2.151947 0.4363556 2.92865 1.213089c0.7767334 0.77671814 1.2131042 1.8301849 1.2131042 2.92865l0 0c0 2.2874146 -1.8543396 4.1417236 -4.141754 4.1417236l0 0c-2.2874146 0 -4.1417236 -1.8543091 -4.1417236 -4.1417236z" fill-rule="evenodd"/><path fill="#000000" d="m451.09814 212.15617l0 0c0 -2.2874146 1.8543091 -4.141739 4.1417236 -4.141739l0 0c1.0984497 0 2.1519165 0.4363556 2.92865 1.213089c0.7767334 0.77671814 1.2130737 1.8301849 1.2130737 2.92865l0 0c0 2.2874146 -1.8543091 4.1417236 -4.1417236 4.1417236l0 0c-2.2874146 0 -4.1417236 -1.8543091 -4.1417236 -4.1417236z" fill-rule="evenodd"/><path stroke="#000000" stroke-width="2.0" stroke-linejoin="round" stroke-linecap="butt" d="m451.09814 212.15617l0 0c0 -2.2874146 1.8543091 -4.141739 4.1417236 -4.141739l0 0c1.0984497 0 2.1519165 0.4363556 2.92865 1.213089c0.7767334 0.77671814 1.2130737 1.8301849 1.2130737 2.92865l0 0c0 2.2874146 -1.8543091 4.1417236 -4.1417236 4.1417236l0 0c-2.2874146 0 -4.1417236 -1.8543091 -4.1417236 -4.1417236z" fill-rule="evenodd"/><path fill="#000000" fill-opacity="0.0" d="m459.3816 212.15617l48.59845 0" fill-rule="evenodd"/><path stroke="#000000" stroke-width="2.0" stroke-linejoin="round" stroke-linecap="butt" d="m459.3816 212.15617l36.59845 0" fill-rule="evenodd"/><path fill="#000000" stroke="#000000" stroke-width="2.0" stroke-linecap="butt" d="m495.98004 215.45963l9.076172 -3.3034515l-9.076172 -3.3034668z" fill-rule="evenodd"/><path fill="#d9ead3" d="m694.147 167.4952l0 0c0 -12.333145 9.997986 -22.331146 22.331177 -22.331146l89.3219 0l0 0c5.9226074 0 11.602661 2.3527374 15.790527 6.540634c4.1879272 4.187912 6.5406494 9.86792 6.5406494 15.790512l0 89.321945c0 12.33316 -9.997986 22.331146 -22.331177 22.331146l-89.3219 0c-12.333191 0 -22.331177 -9.997986 -22.331177 -22.331146z" fill-rule="evenodd"/><path stroke="#274e13" stroke-width="2.0" stroke-linejoin="round" stroke-linecap="butt" d="m694.147 167.4952l0 0c0 -12.333145 9.997986 -22.331146 22.331177 -22.331146l89.3219 0l0 0c5.9226074 0 11.602661 2.3527374 15.790527 6.540634c4.1879272 4.187912 6.5406494 9.86792 6.5406494 15.790512l0 89.321945c0 12.33316 -9.997986 22.331146 -22.331177 22.331146l-89.3219 0c-12.333191 0 -22.331177 -9.997986 -22.331177 -22.331146z" fill-rule="evenodd"/><path fill="#000000" d="m738.5219 223.87617l-8.203125 0l0 -1.03125q0.578125 -0.15625 0.90625 -0.328125q0.34375 -0.1875 0.5 -0.5q0.171875 -0.328125 0.21875 -0.8125q0.046875 -0.5 0.046875 -1.25l0 -13.46875q0 -0.734375 -0.046875 -1.234375q-0.03125 -0.5 -0.203125 -0.8125q-0.15625 -0.3125 -0.5 -0.5q-0.328125 -0.203125 -0.921875 -0.359375l0 -1.03125l9.109375 0q1.84375 0 3.125 0.265625q1.296875 0.25 2.265625 0.78125q0.8125 0.4375 1.375 1.109375q0.5625 0.65625 0.859375 1.546875q0.3125 0.875 0.3125 2.046875q0 1.53125 -0.546875 2.625q-0.53125 1.09375 -1.453125 1.828125q-0.90625 0.71875 -2.4375 1.359375l0 0.15625q1.15625 0.5 1.90625 1.34375q0.765625 0.828125 1.375 2.109375l0.984375 2.125q0.65625 1.421875 1.296875 2.140625q0.65625 0.703125 1.546875 0.859375l0 1.03125l-6.015625 0q-0.90625 -1.25 -2.046875 -3.71875l-1.21875 -2.671875q-0.546875 -1.1875 -0.9375 -1.6875q-0.390625 -0.5 -0.8125 -0.6875q-0.40625 -0.1875 -1.265625 -0.1875l-0.90625 0l0 5.03125q0 1.171875 0.109375 1.640625q0.109375 0.46875 0.421875 0.75q0.3125 0.28125 1.15625 0.5l0 1.03125zm-1.6875 -19.46875l0 8.6875l1.546875 0q1.25 0 2.0625 -0.328125q0.8125 -0.34375 1.28125 -0.9375q0.484375 -0.609375 0.65625 -1.421875q0.1875 -0.8125 0.1875 -1.78125q0 -2.125 -1.0 -3.1875q-1.0 -1.0625 -2.96875 -1.0625q-1.34375 0 -1.765625 0.03125zm33.59375 -1.859375l0 1.03125q-0.625 0.203125 -0.890625 0.34375q-0.25 0.140625 -0.4375 0.375q-0.171875 0.234375 -0.265625 0.71875q-0.09375 0.46875 -0.09375 1.453125l0 17.40625l-3.96875 0l-7.03125 -12.15625q-1.421875 -2.46875 -2.09375 -3.875l-0.140625 0q0.15625 3.359375 0.15625 7.09375l0 5.03125q0 1.171875 0.109375 1.640625q0.125 0.46875 0.421875 0.75q0.3125 0.265625 1.15625 0.484375l0 1.03125l-5.90625 0l0 -1.03125q0.578125 -0.15625 0.90625 -0.34375q0.34375 -0.1875 0.5 -0.5q0.171875 -0.328125 0.21875 -0.8125q0.046875 -0.484375 0.046875 -1.21875l0 -13.515625q0 -1.171875 -0.109375 -1.609375q-0.09375 -0.453125 -0.421875 -0.75q-0.3125 -0.296875 -1.140625 -0.515625l0 -1.03125l6.328125 0l5.53125 9.609375q0.515625 0.90625 1.34375 2.453125q0.828125 1.546875 1.46875 2.921875l0.25 0q-0.171875 -3.734375 -0.171875 -8.15625l0 -2.90625q0 -1.015625 -0.078125 -1.46875q-0.078125 -0.453125 -0.25 -0.6875q-0.15625 -0.234375 -0.4375 -0.390625q-0.265625 -0.15625 -0.90625 -0.34375l0 -1.03125l5.90625 0zm21.734375 0l0 1.03125q-0.625 0.203125 -0.890625 0.34375q-0.25 0.140625 -0.4375 0.375q-0.171875 0.234375 -0.265625 0.71875q-0.09375 0.46875 -0.09375 1.453125l0 17.40625l-3.96875 0l-7.03125 -12.15625q-1.421875 -2.46875 -2.09375 -3.875l-0.140625 0q0.15625 3.359375 0.15625 7.09375l0 5.03125q0 1.171875 0.109375 1.640625q0.125 0.46875 0.421875 0.75q0.3125 0.265625 1.15625 0.484375l0 1.03125l-5.90625 0l0 -1.03125q0.578125 -0.15625 0.90625 -0.34375q0.34375 -0.1875 0.5 -0.5q0.171875 -0.328125 0.21875 -0.8125q0.046875 -0.484375 0.046875 -1.21875l0 -13.515625q0 -1.171875 -0.109375 -1.609375q-0.09375 -0.453125 -0.421875 -0.75q-0.3125 -0.296875 -1.140625 -0.515625l0 -1.03125l6.328125 0l5.53125 9.609375q0.515625 0.90625 1.34375 2.453125q0.828125 1.546875 1.46875 2.921875l0.25 0q-0.171875 -3.734375 -0.171875 -8.15625l0 -2.90625q0 -1.015625 -0.078125 -1.46875q-0.078125 -0.453125 -0.25 -0.6875q-0.15625 -0.234375 -0.4375 -0.390625q-0.265625 -0.15625 -0.90625 -0.34375l0 -1.03125l5.90625 0z" fill-rule="nonzero"/><path fill="#ffffff" d="m690.5696 212.15486l0 0c0 -2.2874146 1.8543091 -4.141739 4.1417236 -4.141739l0 0c1.0984497 0 2.1519165 0.4363556 2.92865 1.213089c0.7767334 0.77671814 1.2130737 1.8301849 1.2130737 2.92865l0 0c0 2.2874146 -1.8543091 4.1417236 -4.1417236 4.1417236l0 0c-2.2874146 0 -4.1417236 -1.8543091 -4.1417236 -4.1417236z" fill-rule="evenodd"/><path stroke="#000000" stroke-width="1.0" stroke-linejoin="round" stroke-linecap="butt" d="m690.5696 212.15486l0 0c0 -2.2874146 1.8543091 -4.141739 4.1417236 -4.141739l0 0c1.0984497 0 2.1519165 0.4363556 2.92865 1.213089c0.7767334 0.77671814 1.2130737 1.8301849 1.2130737 2.92865l0 0c0 2.2874146 -1.8543091 4.1417236 -4.1417236 4.1417236l0 0c-2.2874146 0 -4.1417236 -1.8543091 -4.1417236 -4.1417236z" fill-rule="evenodd"/><path fill="#ffffff" d="m823.6834 212.15617l0 0c0 -2.2874146 1.8543701 -4.141739 4.1417847 -4.141739l0 0c1.0984497 0 2.1519165 0.4363556 2.92865 1.213089c0.77667236 0.77671814 1.2130737 1.8301849 1.2130737 2.92865l0 0c0 2.2874146 -1.8543091 4.1417236 -4.1417236 4.1417236l0 0c-2.2874146 0 -4.1417847 -1.8543091 -4.1417847 -4.1417236z" fill-rule="evenodd"/><path stroke="#000000" stroke-width="1.0" stroke-linejoin="round" stroke-linecap="butt" d="m823.6834 212.15617l0 0c0 -2.2874146 1.8543701 -4.141739 4.1417847 -4.141739l0 0c1.0984497 0 2.1519165 0.4363556 2.92865 1.213089c0.77667236 0.77671814 1.2130737 1.8301849 1.2130737 2.92865l0 0c0 2.2874146 -1.8543091 4.1417236 -4.1417236 4.1417236l0 0c-2.2874146 0 -4.1417847 -1.8543091 -4.1417847 -4.1417236z" fill-rule="evenodd"/><path fill="#cfe2f3" d="m724.30444 55.156208l0 0c0 -20.343216 16.491455 -36.83465 36.834656 -36.83465l0 0c9.769165 0 19.138184 3.8807812 26.04602 10.788618c6.907837 6.907837 10.788635 16.27687 10.788635 26.046028l0 0c0 20.343212 -16.491455 36.834644 -36.834656 36.834644l0 0c-20.3432 0 -36.834656 -16.491432 -36.834656 -36.834644z" fill-rule="evenodd"/><path stroke="#000000" stroke-width="1.0" stroke-linejoin="round" stroke-linecap="butt" d="m724.30444 55.156208l0 0c0 -20.343216 16.491455 -36.83465 36.834656 -36.83465l0 0c9.769165 0 19.138184 3.8807812 26.04602 10.788618c6.907837 6.907837 10.788635 16.27687 10.788635 26.046028l0 0c0 20.343212 -16.491455 36.834644 -36.834656 36.834644l0 0c-20.3432 0 -36.834656 -16.491432 -36.834656 -36.834644z" fill-rule="evenodd"/><path fill="#000000" d="m758.0844 57.53996l0 3.21875q0 0.609375 0.03125 0.9375q0.03125 0.328125 0.125 0.53125q0.09375 0.1875 0.21875 0.3125q0.140625 0.125 0.375 0.234375q0.25 0.09375 0.65625 0.140625l0 0.78125l-6.46875 0l0 -0.78125q0.484375 -0.078125 0.765625 -0.203125q0.296875 -0.125 0.4375 -0.375q0.140625 -0.25 0.171875 -0.625q0.046875 -0.390625 0.046875 -0.953125l0 -3.21875l-3.171875 -6.703125q-0.40625 -0.859375 -0.640625 -1.265625q-0.28125 -0.484375 -0.46875 -0.6875q-0.1875 -0.21875 -0.359375 -0.296875q-0.15625 -0.078125 -0.453125 -0.109375l0 -0.78125l6.25 0l0 0.78125q-0.90625 0.109375 -0.90625 0.890625q0 0.296875 0.140625 0.71875q0.15625 0.421875 0.484375 1.125l1.96875 4.40625l2.15625 -4.296875q0.3125 -0.640625 0.4375 -1.0625q0.125 -0.4375 0.125 -0.859375q0 -0.421875 -0.25 -0.65625q-0.234375 -0.25 -0.671875 -0.265625l0 -0.78125l4.703125 0l0 0.78125q-0.3125 0.0625 -0.53125 0.1875q-0.203125 0.125 -0.453125 0.390625q-0.234375 0.265625 -0.578125 0.796875q-0.34375 0.515625 -0.78125 1.359375l-3.359375 6.328125z" fill-rule="nonzero"/><path fill="#000000" d="m769.92035 70.508705q0 0.453125 0.046875 0.6875q0.0625 0.234375 0.1875 0.375q0.125 0.140625 0.359375 0.234375q0.25 0.078125 0.609375 0.125q0.375 0.03125 0.984375 0.046875l0 0.71875l-6.75 0l0 -0.71875q0.875 -0.03125 1.234375 -0.09375q0.375 -0.078125 0.5625 -0.203125q0.203125 -0.140625 0.296875 -0.375q0.09375 -0.25 0.09375 -0.796875l0 -5.640625q0 -0.328125 -0.125 -0.46875q-0.125 -0.140625 -0.328125 -0.140625q-0.203125 0 -0.5625 0.1875q-0.34375 0.171875 -1.15625 0.734375l-0.484375 -0.828125l4.078125 -2.4531212l1.0 0q-0.046875 0.75 -0.046875 2.078125l0 6.531246z" fill-rule="nonzero"/><path fill="#ffffff" d="m756.9974 144.57222l0 0c0 -2.2874146 1.8543091 -4.141739 4.1417236 -4.141739l0 0c1.0984497 0 2.1519165 0.43637085 2.92865 1.213089c0.7767334 0.7767334 1.2130737 1.8301849 1.2130737 2.92865l0 0c0 2.2874146 -1.8543091 4.1417236 -4.1417236 4.1417236l0 0c-2.2874146 0 -4.1417236 -1.8543091 -4.1417236 -4.1417236z" fill-rule="evenodd"/><path stroke="#000000" stroke-width="1.0" stroke-linejoin="round" stroke-linecap="butt" d="m756.9974 144.57222l0 0c0 -2.2874146 1.8543091 -4.141739 4.1417236 -4.141739l0 0c1.0984497 0 2.1519165 0.43637085 2.92865 1.213089c0.7767334 0.7767334 1.2130737 1.8301849 1.2130737 2.92865l0 0c0 2.2874146 -1.8543091 4.1417236 -4.1417236 4.1417236l0 0c-2.2874146 0 -4.1417236 -1.8543091 -4.1417236 -4.1417236z" fill-rule="evenodd"/><path fill="#000000" fill-opacity="0.0" d="m761.1391 140.43048l0 -48.44094" fill-rule="evenodd"/><path stroke="#000000" stroke-width="2.0" stroke-linejoin="round" stroke-linecap="butt" d="m761.1391 140.43048l0 -36.44094" fill-rule="evenodd"/><path fill="#000000" stroke="#000000" stroke-width="2.0" stroke-linecap="butt" d="m764.44257 103.98954l-3.3034668 -9.076195l-3.3034668 9.076195z" fill-rule="evenodd"/><path fill="#d9ead3" d="m1000.063 167.4952l0 0c0 -12.333145 9.997986 -22.331146 22.331177 -22.331146l89.3219 0l0 0c5.9226074 0 11.602661 2.3527374 15.790527 6.540634c4.187866 4.187912 6.5406494 9.86792 6.5406494 15.790512l0 89.321945c0 12.33316 -9.998047 22.331146 -22.331177 22.331146l-89.3219 0c-12.333191 0 -22.331177 -9.997986 -22.331177 -22.331146z" fill-rule="evenodd"/><path stroke="#274e13" stroke-width="2.0" stroke-linejoin="round" stroke-linecap="butt" d="m1000.063 167.4952l0 0c0 -12.333145 9.997986 -22.331146 22.331177 -22.331146l89.3219 0l0 0c5.9226074 0 11.602661 2.3527374 15.790527 6.540634c4.187866 4.187912 6.5406494 9.86792 6.5406494 15.790512l0 89.321945c0 12.33316 -9.998047 22.331146 -22.331177 22.331146l-89.3219 0c-12.333191 0 -22.331177 -9.997986 -22.331177 -22.331146z" fill-rule="evenodd"/><path fill="#000000" d="m1044.438 223.87617l-8.203125 0l0 -1.03125q0.578125 -0.15625 0.90625 -0.328125q0.34375 -0.1875 0.5 -0.5q0.171875 -0.328125 0.21875 -0.8125q0.046875 -0.5 0.046875 -1.25l0 -13.46875q0 -0.734375 -0.046875 -1.234375q-0.03125 -0.5 -0.203125 -0.8125q-0.15625 -0.3125 -0.5 -0.5q-0.328125 -0.203125 -0.921875 -0.359375l0 -1.03125l9.109375 0q1.84375 0 3.125 0.265625q1.296875 0.25 2.265625 0.78125q0.8125 0.4375 1.375 1.109375q0.5625 0.65625 0.859375 1.546875q0.3125 0.875 0.3125 2.046875q0 1.53125 -0.546875 2.625q-0.53125 1.09375 -1.453125 1.828125q-0.90625 0.71875 -2.4375 1.359375l0 0.15625q1.15625 0.5 1.90625 1.34375q0.765625 0.828125 1.375 2.109375l0.984375 2.125q0.65625 1.421875 1.296875 2.140625q0.65625 0.703125 1.546875 0.859375l0 1.03125l-6.015625 0q-0.90625 -1.25 -2.046875 -3.71875l-1.21875 -2.671875q-0.546875 -1.1875 -0.9375 -1.6875q-0.390625 -0.5 -0.8125 -0.6875q-0.40625 -0.1875 -1.265625 -0.1875l-0.90625 0l0 5.03125q0 1.171875 0.109375 1.640625q0.109375 0.46875 0.421875 0.75q0.3125 0.28125 1.15625 0.5l0 1.03125zm-1.6875 -19.46875l0 8.6875l1.546875 0q1.25 0 2.0625 -0.328125q0.8125 -0.34375 1.28125 -0.9375q0.484375 -0.609375 0.65625 -1.421875q0.1875 -0.8125 0.1875 -1.78125q0 -2.125 -1.0 -3.1875q-1.0 -1.0625 -2.96875 -1.0625q-1.34375 0 -1.765625 0.03125zm33.59375 -1.859375l0 1.03125q-0.625 0.203125 -0.890625 0.34375q-0.25 0.140625 -0.4375 0.375q-0.171875 0.234375 -0.265625 0.71875q-0.09375 0.46875 -0.09375 1.453125l0 17.40625l-3.96875 0l-7.03125 -12.15625q-1.421875 -2.46875 -2.09375 -3.875l-0.140625 0q0.15625 3.359375 0.15625 7.09375l0 5.03125q0 1.171875 0.109375 1.640625q0.125 0.46875 0.421875 0.75q0.3125 0.265625 1.15625 0.484375l0 1.03125l-5.90625 0l0 -1.03125q0.578125 -0.15625 0.90625 -0.34375q0.34375 -0.1875 0.5 -0.5q0.171875 -0.328125 0.21875 -0.8125q0.046875 -0.484375 0.046875 -1.21875l0 -13.515625q0 -1.171875 -0.109375 -1.609375q-0.09375 -0.453125 -0.421875 -0.75q-0.3125 -0.296875 -1.140625 -0.515625l0 -1.03125l6.328125 0l5.53125 9.609375q0.515625 0.90625 1.34375 2.453125q0.828125 1.546875 1.46875 2.921875l0.25 0q-0.171875 -3.734375 -0.171875 -8.15625l0 -2.90625q0 -1.015625 -0.078125 -1.46875q-0.078125 -0.453125 -0.25 -0.6875q-0.15625 -0.234375 -0.4375 -0.390625q-0.265625 -0.15625 -0.90625 -0.34375l0 -1.03125l5.90625 0zm21.734375 0l0 1.03125q-0.625 0.203125 -0.890625 0.34375q-0.25 0.140625 -0.4375 0.375q-0.171875 0.234375 -0.265625 0.71875q-0.09375 0.46875 -0.09375 1.453125l0 17.40625l-3.96875 0l-7.03125 -12.15625q-1.421875 -2.46875 -2.09375 -3.875l-0.140625 0q0.15625 3.359375 0.15625 7.09375l0 5.03125q0 1.171875 0.109375 1.640625q0.125 0.46875 0.421875 0.75q0.3125 0.265625 1.15625 0.484375l0 1.03125l-5.90625 0l0 -1.03125q0.578125 -0.15625 0.90625 -0.34375q0.34375 -0.1875 0.5 -0.5q0.171875 -0.328125 0.21875 -0.8125q0.046875 -0.484375 0.046875 -1.21875l0 -13.515625q0 -1.171875 -0.109375 -1.609375q-0.09375 -0.453125 -0.421875 -0.75q-0.3125 -0.296875 -1.140625 -0.515625l0 -1.03125l6.328125 0l5.53125 9.609375q0.515625 0.90625 1.34375 2.453125q0.828125 1.546875 1.46875 2.921875l0.25 0q-0.171875 -3.734375 -0.171875 -8.15625l0 -2.90625q0 -1.015625 -0.078125 -1.46875q-0.078125 -0.453125 -0.25 -0.6875q-0.15625 -0.234375 -0.4375 -0.390625q-0.265625 -0.15625 -0.90625 -0.34375l0 -1.03125l5.90625 0z" fill-rule="nonzero"/><path fill="#ffffff" d="m996.48553 212.15486l0 0c0 -2.2874146 1.8543701 -4.141739 4.1417847 -4.141739l0 0c1.0984497 0 2.1519165 0.4363556 2.92865 1.213089c0.77667236 0.77671814 1.2130737 1.8301849 1.2130737 2.92865l0 0c0 2.2874146 -1.8543091 4.1417236 -4.1417236 4.1417236l0 0c-2.2874146 0 -4.1417847 -1.8543091 -4.1417847 -4.1417236z" fill-rule="evenodd"/><path stroke="#000000" stroke-width="1.0" stroke-linejoin="round" stroke-linecap="butt" d="m996.48553 212.15486l0 0c0 -2.2874146 1.8543701 -4.141739 4.1417847 -4.141739l0 0c1.0984497 0 2.1519165 0.4363556 2.92865 1.213089c0.77667236 0.77671814 1.2130737 1.8301849 1.2130737 2.92865l0 0c0 2.2874146 -1.8543091 4.1417236 -4.1417236 4.1417236l0 0c-2.2874146 0 -4.1417847 -1.8543091 -4.1417847 -4.1417236z" fill-rule="evenodd"/><path fill="#ffffff" d="m1129.5995 212.15617l0 0c0 -2.2874146 1.854248 -4.141739 4.1417236 -4.141739l0 0c1.0983887 0 2.1518555 0.4363556 2.9285889 1.213089c0.7767334 0.77671814 1.2131348 1.8301849 1.2131348 2.92865l0 0c0 2.2874146 -1.8543701 4.1417236 -4.1417236 4.1417236l0 0c-2.2874756 0 -4.1417236 -1.8543091 -4.1417236 -4.1417236z" fill-rule="evenodd"/><path stroke="#000000" stroke-width="1.0" stroke-linejoin="round" stroke-linecap="butt" d="m1129.5995 212.15617l0 0c0 -2.2874146 1.854248 -4.141739 4.1417236 -4.141739l0 0c1.0983887 0 2.1518555 0.4363556 2.9285889 1.213089c0.7767334 0.77671814 1.2131348 1.8301849 1.2131348 2.92865l0 0c0 2.2874146 -1.8543701 4.1417236 -4.1417236 4.1417236l0 0c-2.2874756 0 -4.1417236 -1.8543091 -4.1417236 -4.1417236z" fill-rule="evenodd"/><path fill="#cfe2f3" d="m1030.2205 55.156208l0 0c0 -20.343216 16.491455 -36.83465 36.834717 -36.83465l0 0c9.769043 0 19.138184 3.8807812 26.04602 10.788618c6.907837 6.907837 10.788574 16.27687 10.788574 26.046028l0 0c0 20.343212 -16.491455 36.834644 -36.834595 36.834644l0 0c-20.343262 0 -36.834717 -16.491432 -36.834717 -36.834644z" fill-rule="evenodd"/><path stroke="#000000" stroke-width="1.0" stroke-linejoin="round" stroke-linecap="butt" d="m1030.2205 55.156208l0 0c0 -20.343216 16.491455 -36.83465 36.834717 -36.83465l0 0c9.769043 0 19.138184 3.8807812 26.04602 10.788618c6.907837 6.907837 10.788574 16.27687 10.788574 26.046028l0 0c0 20.343212 -16.491455 36.834644 -36.834595 36.834644l0 0c-20.343262 0 -36.834717 -16.491432 -36.834717 -36.834644z" fill-rule="evenodd"/><path fill="#000000" d="m1061.9692 57.53996l0 3.21875q0 0.609375 0.03125 0.9375q0.03125 0.328125 0.125 0.53125q0.09375 0.1875 0.21875 0.3125q0.140625 0.125 0.375 0.234375q0.25 0.09375 0.65625 0.140625l0 0.78125l-6.46875 0l0 -0.78125q0.484375 -0.078125 0.765625 -0.203125q0.296875 -0.125 0.4375 -0.375q0.140625 -0.25 0.171875 -0.625q0.046875 -0.390625 0.046875 -0.953125l0 -3.21875l-3.171875 -6.703125q-0.40625 -0.859375 -0.640625 -1.265625q-0.28125 -0.484375 -0.46875 -0.6875q-0.1875 -0.21875 -0.359375 -0.296875q-0.15625 -0.078125 -0.453125 -0.109375l0 -0.78125l6.25 0l0 0.78125q-0.90625 0.109375 -0.90625 0.890625q0 0.296875 0.140625 0.71875q0.15625 0.421875 0.484375 1.125l1.96875 4.40625l2.15625 -4.296875q0.3125 -0.640625 0.4375 -1.0625q0.125 -0.4375 0.125 -0.859375q0 -0.421875 -0.25 -0.65625q-0.234375 -0.25 -0.671875 -0.265625l0 -0.78125l4.703125 0l0 0.78125q-0.3125 0.0625 -0.53125 0.1875q-0.203125 0.125 -0.453125 0.390625q-0.234375 0.265625 -0.578125 0.796875q-0.34375 0.515625 -0.78125 1.359375l-3.359375 6.328125z" fill-rule="nonzero"/><path fill="#000000" d="m1080.3208 62.53996q-0.40625 0.125 -0.5625 0.265625q-0.140625 0.125 -0.203125 0.359375q-0.0625 0.234375 -0.0625 0.8125l0 6.765621q0 0.46875 0.046875 0.75q0.046875 0.28125 0.1875 0.421875q0.15625 0.140625 0.59375 0.265625l0 0.515625l-4.0 0l0 -0.515625q0.34375 -0.09375 0.46875 -0.15625q0.140625 -0.078125 0.203125 -0.1875q0.078125 -0.125 0.109375 -0.34375q0.046875 -0.234375 0.046875 -0.765625l0 -3.828125q0 -0.640625 0.015625 -1.5q0.03125 -0.859375 0.046875 -1.21875l-0.15625 0q-0.09375 0.3125 -0.203125 0.625q-0.109375 0.296875 -0.390625 1.0625l-2.09375 5.640625l-1.375 0l-2.203125 -6.328125q-0.203125 -0.546875 -0.34375 -1.078125l-0.140625 0q0.078125 1.296875 0.078125 3.046875l0 3.59375q0 0.578125 0.046875 0.8125q0.0625 0.21875 0.21875 0.375q0.171875 0.140625 0.578125 0.25l0 0.515625l-2.953125 0l0 -0.515625q0.28125 -0.078125 0.453125 -0.171875q0.171875 -0.09375 0.25 -0.25q0.09375 -0.15625 0.109375 -0.390625q0.015625 -0.25 0.015625 -0.625l0 -6.765621q0 -0.59375 -0.046875 -0.8125q-0.046875 -0.21875 -0.203125 -0.359375q-0.140625 -0.140625 -0.578125 -0.265625l0 -0.515625l3.875 0l2.171875 6.421871l2.34375 -6.421871l3.65625 0l0 0.515625z" fill-rule="nonzero"/><path fill="#ffffff" d="m1062.9133 144.57222l0 0c0 -2.2874146 1.8543701 -4.141739 4.1418457 -4.141739l0 0c1.0983887 0 2.1518555 0.43637085 2.9285889 1.213089c0.7767334 0.7767334 1.2131348 1.8301849 1.2131348 2.92865l0 0c0 2.2874146 -1.8543701 4.1417236 -4.1417236 4.1417236l0 0c-2.2874756 0 -4.1418457 -1.8543091 -4.1418457 -4.1417236z" fill-rule="evenodd"/><path stroke="#000000" stroke-width="1.0" stroke-linejoin="round" stroke-linecap="butt" d="m1062.9133 144.57222l0 0c0 -2.2874146 1.8543701 -4.141739 4.1418457 -4.141739l0 0c1.0983887 0 2.1518555 0.43637085 2.9285889 1.213089c0.7767334 0.7767334 1.2131348 1.8301849 1.2131348 2.92865l0 0c0 2.2874146 -1.8543701 4.1417236 -4.1417236 4.1417236l0 0c-2.2874756 0 -4.1418457 -1.8543091 -4.1418457 -4.1417236z" fill-rule="evenodd"/><path fill="#000000" fill-opacity="0.0" d="m1067.0552 140.43048l0 -48.44094" fill-rule="evenodd"/><path stroke="#000000" stroke-width="1.0" stroke-linejoin="round" stroke-linecap="butt" d="m1067.0552 140.43048l0 -42.44094" fill-rule="evenodd"/><path fill="#000000" stroke="#000000" stroke-width="1.0" stroke-linecap="butt" d="m1068.7069 97.98954l-1.6517334 -4.5380936l-1.6517334 4.5380936z" fill-rule="evenodd"/><path fill="#000000" fill-opacity="0.0" d="m649.36584 212.15617l41.19684 0" fill-rule="evenodd"/><path stroke="#000000" stroke-width="2.0" stroke-linejoin="round" stroke-linecap="butt" d="m649.36584 212.15617l29.1969 0" fill-rule="evenodd"/><path fill="#000000" stroke="#000000" stroke-width="2.0" stroke-linecap="butt" d="m678.56274 215.45963l9.076172 -3.3034515l-9.076172 -3.3034668z" fill-rule="evenodd"/><path fill="#000000" fill-opacity="0.0" d="m831.9669 212.15617l51.968506 0" fill-rule="evenodd"/><path stroke="#000000" stroke-width="2.0" stroke-linejoin="round" stroke-linecap="butt" d="m831.9669 212.15617l39.968506 0" fill-rule="evenodd"/><path fill="#000000" stroke="#000000" stroke-width="2.0" stroke-linecap="butt" d="m871.9354 215.45963l9.076233 -3.3034515l-9.076233 -3.3034668z" fill-rule="evenodd"/><path fill="#000000" d="m883.93146 212.15617l0 0c0 -2.2874146 1.8543091 -4.141739 4.1417236 -4.141739l0 0c1.0984497 0 2.1519165 0.4363556 2.92865 1.213089c0.7767334 0.77671814 1.2131348 1.8301849 1.2131348 2.92865l0 0c0 2.2874146 -1.8543701 4.1417236 -4.1417847 4.1417236l0 0c-2.2874146 0 -4.1417236 -1.8543091 -4.1417236 -4.1417236z" fill-rule="evenodd"/><path stroke="#000000" stroke-width="2.0" stroke-linejoin="round" stroke-linecap="butt" d="m883.93146 212.15617l0 0c0 -2.2874146 1.8543091 -4.141739 4.1417236 -4.141739l0 0c1.0984497 0 2.1519165 0.4363556 2.92865 1.213089c0.7767334 0.77671814 1.2131348 1.8301849 1.2131348 2.92865l0 0c0 2.2874146 -1.8543701 4.1417236 -4.1417847 4.1417236l0 0c-2.2874146 0 -4.1417236 -1.8543091 -4.1417236 -4.1417236z" fill-rule="evenodd"/><path fill="#000000" d="m910.8055 212.15617l0 0c0 -2.2874146 1.8543091 -4.141739 4.1417236 -4.141739l0 0c1.0984497 0 2.1519165 0.4363556 2.92865 1.213089c0.7767334 0.77671814 1.2130737 1.8301849 1.2130737 2.92865l0 0c0 2.2874146 -1.8543091 4.1417236 -4.1417236 4.1417236l0 0c-2.2874146 0 -4.1417236 -1.8543091 -4.1417236 -4.1417236z" fill-rule="evenodd"/><path stroke="#000000" stroke-width="2.0" stroke-linejoin="round" stroke-linecap="butt" d="m910.8055 212.15617l0 0c0 -2.2874146 1.8543091 -4.141739 4.1417236 -4.141739l0 0c1.0984497 0 2.1519165 0.4363556 2.92865 1.213089c0.7767334 0.77671814 1.2130737 1.8301849 1.2130737 2.92865l0 0c0 2.2874146 -1.8543091 4.1417236 -4.1417236 4.1417236l0 0c-2.2874146 0 -4.1417236 -1.8543091 -4.1417236 -4.1417236z" fill-rule="evenodd"/><path fill="#000000" d="m937.6795 212.15617l0 0c0 -2.2874146 1.8543091 -4.141739 4.1417236 -4.141739l0 0c1.0984497 0 2.1519165 0.4363556 2.92865 1.213089c0.7767334 0.77671814 1.2130737 1.8301849 1.2130737 2.92865l0 0c0 2.2874146 -1.8543091 4.1417236 -4.1417236 4.1417236l0 0c-2.2874146 0 -4.1417236 -1.8543091 -4.1417236 -4.1417236z" fill-rule="evenodd"/><path stroke="#000000" stroke-width="2.0" stroke-linejoin="round" stroke-linecap="butt" d="m937.6795 212.15617l0 0c0 -2.2874146 1.8543091 -4.141739 4.1417236 -4.141739l0 0c1.0984497 0 2.1519165 0.4363556 2.92865 1.213089c0.7767334 0.77671814 1.2130737 1.8301849 1.2130737 2.92865l0 0c0 2.2874146 -1.8543091 4.1417236 -4.1417236 4.1417236l0 0c-2.2874146 0 -4.1417236 -1.8543091 -4.1417236 -4.1417236z" fill-rule="evenodd"/><path fill="#000000" fill-opacity="0.0" d="m945.96295 212.15617l50.519714 0" fill-rule="evenodd"/><path stroke="#000000" stroke-width="2.0" stroke-linejoin="round" stroke-linecap="butt" d="m945.963 212.15617l38.519653 0" fill-rule="evenodd"/><path fill="#000000" stroke="#000000" stroke-width="2.0" stroke-linecap="butt" d="m984.48267 215.45963l9.076233 -3.3034515l-9.076233 -3.3034668z" fill-rule="evenodd"/></g></svg>