<svg version="1.1" viewBox="0.0 0.0 1482.0 518.0" fill="none" stroke="none" stroke-linecap="square" stroke-miterlimit="10" xmlns:xlink="http://www.w3.org/1999/xlink" xmlns="http://www.w3.org/2000/svg"><clipPath id="p.0"><path d="m0 0l1482.0 0l0 518.0l-1482.0 0l0 -518.0z" clip-rule="nonzero"/></clipPath><g clip-path="url(#p.0)"><path fill="#000000" fill-opacity="0.0" d="m0 0l1482.0 0l0 518.0l-1482.0 0z" fill-rule="evenodd"/><path fill="#000000" fill-opacity="0.0" d="m7.7559056 207.56264l60.598427 0l0 51.27559l-60.598427 0z" fill-rule="evenodd"/><path fill="#000000" d="m31.693405 236.66513q0 0.890625 0.078125 1.234375q0.078125 0.328125 0.3125 0.5625q0.234375 0.21875 0.859375 0.359375l0 0.78125l-6.125 0l0 -0.78125q0.6875 -0.171875 0.875 -0.34375q0.203125 -0.171875 0.28125 -0.5q0.09375 -0.328125 0.09375 -1.3125l0 -4.703125l-5.296875 0l0 4.703125q0 0.40625 0.015625 0.765625q0.03125 0.34375 0.09375 0.5625q0.078125 0.21875 0.203125 0.375q0.140625 0.15625 0.375 0.265625q0.234375 0.109375 0.578125 0.1875l0 0.78125l-6.15625 0l0 -0.78125q0.4375 -0.109375 0.6875 -0.234375q0.25 -0.140625 0.375 -0.375q0.125 -0.25 0.15625 -0.609375q0.03125 -0.375 0.03125 -0.9375l0 -10.109375q0 -0.546875 -0.03125 -0.921875q-0.015625 -0.375 -0.140625 -0.609375q-0.125 -0.234375 -0.375 -0.375q-0.25 -0.15625 -0.703125 -0.265625l0 -0.78125l6.15625 0l0 0.78125q-0.625 0.171875 -0.859375 0.390625q-0.21875 0.203125 -0.3125 0.546875q-0.09375 0.34375 -0.09375 1.25l0 3.90625l5.296875 0l0 -3.90625q0 -0.890625 -0.078125 -1.234375q-0.078125 -0.34375 -0.3125 -0.5625q-0.21875 -0.21875 -0.859375 -0.390625l0 -0.78125l6.125 0l0 0.78125q-0.515625 0.140625 -0.75 0.296875q-0.234375 0.15625 -0.34375 0.40625q-0.09375 0.234375 -0.125 0.546875q-0.03125 0.296875 -0.03125 0.9375l0 10.09375z" fill-rule="nonzero"/><path fill="#000000" d="m40.091843 247.66513q-0.6875 0.578125 -1.25 0.828125q-0.5625 0.234375 -1.1875 0.234375q-1.15625 0 -1.734375 -0.625q-0.578125 -0.640625 -0.578125 -1.90625l0 -4.375l-0.96875 0l0 -0.53125q0.46875 -0.078125 0.6875 -0.234375q0.234375 -0.15625 0.359375 -0.421875q0.125 -0.265625 0.203125 -0.6875q0.078125 -0.421875 0.109375 -1.046875l1.875 0l0 1.953125l2.21875 0l0 0.96875l-2.21875 0l0 3.53125q0 0.875 0.078125 1.296875q0.078125 0.421875 0.265625 0.625q0.203125 0.203125 0.5 0.203125q0.21875 0 0.390625 -0.03125q0.171875 -0.046875 0.359375 -0.140625q0.1875 -0.109375 0.40625 -0.296875l0.484375 0.65625zm4.375 -2.515625l-3.703125 0l0 -1.640625l3.703125 0l0 1.640625zm6.734375 1.53125q0.515625 0 0.765625 -0.0625q0.25 -0.078125 0.390625 -0.265625q0.140625 -0.1875 0.234375 -0.546875l0.90625 0l-0.1875 2.796875l-7.15625 0l0 -0.515625q0.328125 -0.75 0.953125 -1.625q0.625 -0.890625 1.515625 -1.9375q0.84375 -1.0 1.28125 -1.640625q0.4375 -0.640625 0.65625 -1.203125q0.21875 -0.578125 0.21875 -1.1875q0 -0.859375 -0.390625 -1.34375q-0.375 -0.484375 -1.03125 -0.484375q-0.625 0 -1.046875 0.4375q-0.40625 0.4375 -0.59375 1.390625l-1.40625 0l0 -1.84375q0.953125 -0.375 1.484375 -0.53125q0.546875 -0.15625 1.078125 -0.234375q0.53125 -0.078125 1.140625 -0.078125q1.15625 0 1.875 0.3125q0.734375 0.3125 1.046875 0.84375q0.328125 0.515625 0.328125 1.21875q0 0.625 -0.234375 1.15625q-0.21875 0.53125 -0.796875 1.21875q-0.5625 0.671875 -1.90625 1.9375q-0.59375 0.578125 -1.125 1.1875q-0.515625 0.59375 -0.765625 0.921875l0 0.078125l2.765625 0z" fill-rule="nonzero"/><path fill="#d9ead3" d="m89.50131 174.74107l0 0c0 -25.382416 20.576515 -45.958923 45.958923 -45.958923l279.95618 0c12.189056 0 23.878876 4.842087 32.497864 13.46106c8.6189575 8.618973 13.46106 20.308807 13.46106 32.497864l0 183.83018c0 25.382416 -20.576508 45.958923 -45.958923 45.958923l-279.95618 0c-25.382408 0 -45.958923 -20.576508 -45.958923 -45.958923z" fill-rule="evenodd"/><path stroke="#274e13" stroke-width="3.0" stroke-linejoin="round" stroke-linecap="butt" d="m89.50131 174.74107l0 0c0 -25.382416 20.576515 -45.958923 45.958923 -45.958923l279.95618 0c12.189056 0 23.878876 4.842087 32.497864 13.46106c8.6189575 8.618973 13.46106 20.308807 13.46106 32.497864l0 183.83018c0 25.382416 -20.576508 45.958923 -45.958923 45.958923l-279.95618 0c-25.382408 0 -45.958923 -20.576508 -45.958923 -45.958923z" fill-rule="evenodd"/><path fill="#000000" fill-opacity="0.0" d="m1.6666666 266.65485l83.68504 0" fill-rule="evenodd"/><path stroke="#000000" stroke-width="2.0" stroke-linejoin="round" stroke-linecap="butt" d="m1.6666666 266.65485l71.68504 0" fill-rule="evenodd"/><path fill="#000000" stroke="#000000" stroke-width="2.0" stroke-linecap="butt" d="m73.35171 269.9583l9.076195 -3.3034668l-9.076195 -3.3034668z" fill-rule="evenodd"/><path fill="#cfe2f3" d="m136.11548 471.85303l0 0c0 -20.343231 16.49144 -36.834656 36.834656 -36.834656l0 0c9.76915 0 19.138184 3.8807678 26.04602 10.788605c6.907837 6.907837 10.78862 16.276886 10.78862 26.046051l0 0c0 20.3432 -16.491425 36.834625 -36.83464 36.834625l0 0c-20.343216 0 -36.834656 -16.491425 -36.834656 -36.834625z" fill-rule="evenodd"/><path stroke="#000000" stroke-width="1.0" stroke-linejoin="round" stroke-linecap="butt" d="m136.11548 471.85303l0 0c0 -20.343231 16.49144 -36.834656 36.834656 -36.834656l0 0c9.76915 0 19.138184 3.8807678 26.04602 10.788605c6.907837 6.907837 10.78862 16.276886 10.78862 26.046051l0 0c0 20.3432 -16.491425 36.834625 -36.83464 36.834625l0 0c-20.343216 0 -36.834656 -16.491425 -36.834656 -36.834625z" fill-rule="evenodd"/><path fill="#000000" d="m162.85042 465.01926l0 0.71875q-0.53125 0.0625 -0.75 0.25q-0.203125 0.171875 -0.203125 0.546875q0 0.1875 0.078125 0.4375q0.078125 0.234375 0.25 0.5625q0.171875 0.328125 0.59375 1.046875l1.03125 1.703125l1.34375 -1.96875q0.4375 -0.65625 0.578125 -1.0q0.15625 -0.34375 0.15625 -0.75q0 -0.34375 -0.25 -0.5625q-0.234375 -0.21875 -0.671875 -0.265625l0 -0.71875l4.578125 0l0 0.734375q-0.328125 0.09375 -0.625 0.28125q-0.28125 0.1875 -0.65625 0.640625q-0.375 0.453125 -1.203125 1.640625l-2.390625 3.40625l3.609375 5.953125q0.1875 0.296875 0.375 0.59375q0.203125 0.28125 0.375 0.515625q0.1875 0.21875 0.328125 0.328125q0.140625 0.109375 0.265625 0.171875q0.140625 0.0625 0.28125 0.09375l0 0.734375l-6.140625 0l0 -0.734375q0.484375 -0.046875 0.703125 -0.21875q0.234375 -0.1875 0.234375 -0.578125q0 -0.125 -0.046875 -0.28125q-0.03125 -0.15625 -0.125 -0.375q-0.09375 -0.21875 -0.1875 -0.390625q-0.09375 -0.171875 -0.375 -0.65625l-1.53125 -2.546875l-1.8125 2.671875q-0.203125 0.328125 -0.359375 0.59375q-0.140625 0.265625 -0.203125 0.484375q-0.046875 0.21875 -0.046875 0.515625q0 0.296875 0.234375 0.515625q0.25 0.21875 0.6875 0.265625l0 0.734375l-4.578125 0l0 -0.734375q0.359375 -0.109375 0.65625 -0.328125q0.3125 -0.234375 0.671875 -0.65625q0.359375 -0.4375 1.0 -1.34375l2.875 -4.140625l-2.78125 -4.640625q-0.453125 -0.75 -0.78125 -1.234375q-0.328125 -0.5 -0.546875 -0.765625q-0.21875 -0.265625 -0.390625 -0.375q-0.171875 -0.109375 -0.40625 -0.15625l0 -0.71875l6.15625 0z" fill-rule="nonzero"/><path fill="#000000" d="m175.86676 487.72238q-0.65625 0.5625 -1.1875 0.796875q-0.53125 0.21875 -1.125 0.21875q-1.09375 0 -1.640625 -0.59375q-0.546875 -0.59375 -0.546875 -1.796875l0 -4.125l-0.921875 0l0 -0.515625q0.453125 -0.078125 0.671875 -0.21875q0.21875 -0.15625 0.328125 -0.390625q0.125 -0.25 0.1875 -0.640625q0.078125 -0.40625 0.109375 -1.0l1.765625 0l0 1.84375l2.109375 0l0 0.921875l-2.109375 0l0 3.328125q0 0.828125 0.078125 1.234375q0.078125 0.390625 0.25 0.578125q0.1875 0.1875 0.46875 0.1875q0.203125 0 0.359375 -0.03125q0.171875 -0.046875 0.34375 -0.140625q0.1875 -0.09375 0.390625 -0.265625l0.46875 0.609375zm4.127838 -2.359375l-3.5 0l0 -1.546875l3.5 0l0 1.546875zm6.715561 1.1875q0 0.4375 0.046875 0.65625q0.046875 0.21875 0.15625 0.359375q0.125 0.125 0.359375 0.203125q0.234375 0.078125 0.578125 0.125q0.34375 0.03125 0.90625 0.046875l0 0.671875l-6.359375 0l0 -0.671875q0.8125 -0.03125 1.15625 -0.09375q0.359375 -0.0625 0.546875 -0.1875q0.1875 -0.125 0.265625 -0.359375q0.09375 -0.234375 0.09375 -0.75l0 -5.328125q0 -0.296875 -0.125 -0.421875q-0.109375 -0.140625 -0.3125 -0.140625q-0.1875 0 -0.515625 0.171875q-0.328125 0.15625 -1.109375 0.6875l-0.4375 -0.78125l3.84375 -2.3125l0.953125 0q-0.046875 0.703125 -0.046875 1.96875l0 6.15625z" fill-rule="nonzero"/><path fill="#d9d2e9" d="m224.44882 268.00262l38.236206 0l0 33.5748l-38.236206 0z" fill-rule="evenodd"/><path stroke="#000000" stroke-width="1.0" stroke-linejoin="round" stroke-linecap="butt" d="m224.44882 268.00262l38.236206 0l0 33.5748l-38.236206 0z" fill-rule="evenodd"/><path fill="#000000" d="m243.55025 281.60065l-2.921875 10.171875l-1.46875 0l-2.65625 -9.890625q-0.171875 -0.625 -0.3125 -1.015625q-0.125 -0.390625 -0.265625 -0.609375q-0.140625 -0.21875 -0.296875 -0.328125q-0.15625 -0.125 -0.453125 -0.203125l0 -0.453125l3.890625 0l0 0.453125q-0.5625 0.109375 -0.78125 0.328125q-0.21875 0.21875 -0.21875 0.609375q0 0.3125 0.078125 0.75q0.078125 0.4375 0.21875 1.0l1.84375 7.1875l2.921875 -10.328125l1.53125 0l2.375 10.34375l2.15625 -6.953125q0.390625 -1.265625 0.390625 -1.796875q0 -0.5625 -0.234375 -0.796875q-0.234375 -0.25 -0.765625 -0.34375l0 -0.453125l3.59375 0l0 0.453125q-0.28125 0.09375 -0.453125 0.203125q-0.15625 0.109375 -0.3125 0.3125q-0.140625 0.1875 -0.328125 0.609375q-0.171875 0.40625 -0.40625 1.09375l-3.3125 9.828125l-1.296875 0l-2.515625 -10.171875z" fill-rule="nonzero"/><path fill="#d9d2e9" d="m262.68503 268.00262l38.236237 0l0 33.5748l-38.236237 0z" fill-rule="evenodd"/><path stroke="#000000" stroke-width="1.0" stroke-linejoin="round" stroke-linecap="butt" d="m262.68503 268.00262l38.236237 0l0 33.5748l-38.236237 0z" fill-rule="evenodd"/><path fill="#000000" d="m281.78647 281.60065l-2.921875 10.171875l-1.46875 0l-2.65625 -9.890625q-0.171875 -0.625 -0.3125 -1.015625q-0.125 -0.390625 -0.265625 -0.609375q-0.140625 -0.21875 -0.296875 -0.328125q-0.15625 -0.125 -0.453125 -0.203125l0 -0.453125l3.890625 0l0 0.453125q-0.5625 0.109375 -0.78125 0.328125q-0.21875 0.21875 -0.21875 0.609375q0 0.3125 0.078125 0.75q0.078125 0.4375 0.21875 1.0l1.84375 7.1875l2.921875 -10.328125l1.53125 0l2.375 10.34375l2.15625 -6.953125q0.390625 -1.265625 0.390625 -1.796875q0 -0.5625 -0.234375 -0.796875q-0.234375 -0.25 -0.765625 -0.34375l0 -0.453125l3.59375 0l0 0.453125q-0.28125 0.09375 -0.453125 0.203125q-0.15625 0.109375 -0.3125 0.3125q-0.140625 0.1875 -0.328125 0.609375q-0.171875 0.40625 -0.40625 1.09375l-3.3125 9.828125l-1.296875 0l-2.515625 -10.171875z" fill-rule="nonzero"/><path fill="#fff2cc" d="m224.44878 234.42783l76.47243 0l0 33.5748l-76.47243 0z" fill-rule="evenodd"/><path stroke="#000000" stroke-width="1.0" stroke-linejoin="round" stroke-linecap="butt" d="m224.44878 234.42783l76.47243 0l0 33.5748l-76.47243 0z" fill-rule="evenodd"/><path fill="#000000" d="m239.88422 249.13022q0.578125 -0.09375 0.9375 -0.328125q0.375 -0.234375 0.578125 -0.59375q0.203125 -0.375 0.3125 -0.921875q0.125 -0.5625 0.25 -1.625l1.671875 0l0 2.890625l3.78125 0l0 1.1875l-3.78125 0l0 5.203125q0 1.140625 0.09375 1.8125q0.09375 0.671875 0.34375 1.0625q0.265625 0.375 0.59375 0.546875q0.328125 0.15625 0.84375 0.15625q0.46875 0 0.875 -0.1875q0.40625 -0.203125 0.8125 -0.5625l0.53125 0.640625q-0.84375 0.796875 -1.59375 1.171875q-0.734375 0.359375 -1.53125 0.359375q-1.515625 0 -2.25 -0.890625q-0.734375 -0.90625 -0.734375 -2.8125l0 -6.5l-1.734375 0l0 -0.609375zm15.589844 8.953125l-0.171875 -0.046875q-1.015625 1.03125 -1.921875 1.46875q-0.890625 0.4375 -1.890625 0.4375q-0.890625 0 -1.578125 -0.34375q-0.671875 -0.34375 -1.046875 -0.96875q-0.359375 -0.640625 -0.359375 -1.453125q0 -1.71875 1.6875 -2.640625q1.703125 -0.9375 5.09375 -1.09375l0 -0.75q0 -1.21875 -0.234375 -1.921875q-0.234375 -0.703125 -0.75 -1.03125q-0.5 -0.328125 -1.34375 -0.328125q-0.90625 0 -1.46875 0.484375q-0.5625 0.46875 -0.84375 1.4375l-1.53125 0l0 -1.53125q1.125 -0.578125 1.875 -0.859375q0.75 -0.28125 1.5 -0.4375q0.75 -0.15625 1.53125 -0.15625q1.15625 0 1.859375 0.375q0.703125 0.359375 1.046875 1.125q0.359375 0.765625 0.359375 2.296875l0 4.078125q0 0.875 0 1.234375q0.015625 0.34375 0.078125 0.65625q0.0625 0.296875 0.171875 0.484375q0.125 0.1875 0.34375 0.3125q0.234375 0.125 0.75 0.265625l0 0.578125l-3.203125 0l0.046875 -1.671875zm-0.1875 -3.671875q-2.390625 0.015625 -3.578125 0.625q-1.171875 0.609375 -1.171875 1.84375q0 0.671875 0.265625 1.0625q0.265625 0.375 0.671875 0.53125q0.421875 0.140625 0.984375 0.140625q0.796875 0 1.4375 -0.375q0.65625 -0.390625 1.015625 -0.984375q0.375 -0.609375 0.375 -1.1875l0 -1.65625zm16.546875 5.34375l-4.609375 0l0 -0.578125q0.453125 -0.140625 0.65625 -0.234375q0.203125 -0.109375 0.328125 -0.296875q0.140625 -0.1875 0.21875 -0.578125q0.078125 -0.40625 0.078125 -1.203125l0 -3.0625q0 -0.828125 -0.046875 -1.484375q-0.046875 -0.671875 -0.171875 -1.09375q-0.109375 -0.4375 -0.265625 -0.671875q-0.15625 -0.25 -0.375 -0.40625q-0.21875 -0.171875 -0.5 -0.265625q-0.28125 -0.109375 -0.734375 -0.109375q-0.453125 0 -0.875 0.1875q-0.40625 0.171875 -0.90625 0.625q-0.484375 0.4375 -0.703125 0.875q-0.21875 0.4375 -0.21875 1.0l0 4.359375q0 1.015625 0.09375 1.40625q0.09375 0.390625 0.359375 0.59375q0.265625 0.203125 0.859375 0.359375l0 0.578125l-4.59375 0l0 -0.578125q0.453125 -0.140625 0.640625 -0.234375q0.203125 -0.109375 0.328125 -0.296875q0.140625 -0.1875 0.21875 -0.578125q0.078125 -0.390625 0.078125 -1.203125l0 -5.109375q0 -0.75 -0.03125 -1.203125q-0.015625 -0.46875 -0.15625 -0.734375q-0.140625 -0.28125 -0.4375 -0.40625q-0.28125 -0.140625 -0.8125 -0.234375l0 -0.625l2.75 -0.109375l0.71875 0l-0.140625 1.90625l0.171875 0.046875q0.859375 -0.875 1.390625 -1.25q0.546875 -0.375 1.078125 -0.578125q0.546875 -0.203125 1.15625 -0.203125q0.640625 0 1.140625 0.15625q0.5 0.140625 0.875 0.453125q0.375 0.296875 0.625 0.75q0.25 0.4375 0.375 1.078125q0.125 0.625 0.125 1.609375l0 4.40625q0 0.8125 0.046875 1.1875q0.046875 0.359375 0.15625 0.5625q0.125 0.1875 0.34375 0.328125q0.21875 0.125 0.765625 0.28125l0 0.578125zm5.1289062 -9.359375l0.046875 0q0.90625 -0.921875 1.4375 -1.28125q0.546875 -0.375 1.0625 -0.5625q0.515625 -0.1875 1.125 -0.1875q0.640625 0 1.140625 0.15625q0.5 0.140625 0.875 0.453125q0.390625 0.3125 0.625 0.765625q0.25 0.453125 0.359375 1.078125q0.125 0.625 0.125 1.59375l0 4.40625q0 1.03125 0.078125 1.40625q0.09375 0.359375 0.3125 0.5625q0.234375 0.203125 0.9375 0.390625l0 0.578125l-4.625 0l0 -0.578125q0.453125 -0.140625 0.65625 -0.234375q0.203125 -0.109375 0.328125 -0.296875q0.140625 -0.1875 0.21875 -0.578125q0.078125 -0.40625 0.078125 -1.203125l0 -3.0625q0 -1.5625 -0.15625 -2.390625q-0.15625 -0.828125 -0.625 -1.234375q-0.46875 -0.40625 -1.296875 -0.40625q-0.46875 0 -0.84375 0.171875q-0.375 0.15625 -0.875 0.578125q-0.484375 0.421875 -0.734375 0.875q-0.25 0.4375 -0.25 0.9375l0 4.484375q0 0.796875 0.03125 1.140625q0.046875 0.34375 0.15625 0.578125q0.125 0.21875 0.359375 0.375q0.25 0.140625 0.75 0.265625l0 0.578125l-4.640625 0l0 -0.578125q0.515625 -0.140625 0.734375 -0.265625q0.234375 -0.125 0.34375 -0.328125q0.125 -0.203125 0.1875 -0.578125q0.0625 -0.375 0.0625 -1.1875l0 -9.796875q0 -1.125 -0.015625 -1.5625q-0.015625 -0.453125 -0.09375 -0.765625q-0.078125 -0.3125 -0.21875 -0.484375q-0.125 -0.1875 -0.359375 -0.28125q-0.234375 -0.109375 -0.828125 -0.21875l0 -0.609375l2.828125 -0.109375l0.703125 0l0 7.40625z" fill-rule="nonzero"/><path fill="#ffffff" d="m85.35171 266.65485l0 0c0 -2.2874146 1.8543167 -4.1417236 4.1417313 -4.1417236l0 0c1.0984573 0 2.1519241 0.43637085 2.92865 1.2130737c0.77672577 0.7767334 1.2130814 1.8302002 1.2130814 2.92865l0 0c0 2.2874146 -1.8543167 4.141754 -4.1417313 4.141754l0 0c-2.2874146 0 -4.1417313 -1.8543396 -4.1417313 -4.141754z" fill-rule="evenodd"/><path stroke="#000000" stroke-width="1.0" stroke-linejoin="round" stroke-linecap="butt" d="m85.35171 266.65485l0 0c0 -2.2874146 1.8543167 -4.1417236 4.1417313 -4.1417236l0 0c1.0984573 0 2.1519241 0.43637085 2.92865 1.2130737c0.77672577 0.7767334 1.2130814 1.8302002 1.2130814 2.92865l0 0c0 2.2874146 -1.8543167 4.141754 -4.1417313 4.141754l0 0c-2.2874146 0 -4.1417313 -1.8543396 -4.1417313 -4.141754z" fill-rule="evenodd"/><path fill="#000000" fill-opacity="0.0" d="m93.63517 266.65485l65.40615 0l0 59.9227l84.51511 0l0 -24.99356" fill-rule="evenodd"/><path stroke="#000000" stroke-width="2.0" stroke-linejoin="round" stroke-linecap="butt" d="m93.63517 266.65485l65.40615 0l0 59.9227l84.51511 0l0 -12.993561" fill-rule="evenodd"/><path fill="#000000" stroke="#000000" stroke-width="2.0" stroke-linecap="butt" d="m246.8599 313.58398l-3.3034668 -9.076202l-3.3034668 9.076202z" fill-rule="evenodd"/><path fill="#000000" fill-opacity="0.0" d="m172.95013 435.01837l0 -66.7204l108.8504 0l0 -66.728424" fill-rule="evenodd"/><path stroke="#000000" stroke-width="2.0" stroke-linejoin="round" stroke-linecap="butt" d="m172.95013 435.01837l0 -66.7204l108.8504 0l0 -54.728424" fill-rule="evenodd"/><path fill="#000000" stroke="#000000" stroke-width="2.0" stroke-linecap="butt" d="m285.104 313.56955l-3.3034668 -9.076202l-3.3034668 9.076202z" fill-rule="evenodd"/><path fill="#ffffff" d="m457.01672 268.00262l0 0c0 -2.2874146 1.8543396 -4.1417236 4.141754 -4.1417236l0 0c1.0984497 0 2.1519165 0.43634033 2.92865 1.2130737c0.7767029 0.7767334 1.2130737 1.8302002 1.2130737 2.92865l0 0c0 2.2874146 -1.8543091 4.1417236 -4.1417236 4.1417236l0 0c-2.2874146 0 -4.141754 -1.8543091 -4.141754 -4.1417236z" fill-rule="evenodd"/><path stroke="#000000" stroke-width="1.0" stroke-linejoin="round" stroke-linecap="butt" d="m457.01672 268.00262l0 0c0 -2.2874146 1.8543396 -4.1417236 4.141754 -4.1417236l0 0c1.0984497 0 2.1519165 0.43634033 2.92865 1.2130737c0.7767029 0.7767334 1.2130737 1.8302002 1.2130737 2.92865l0 0c0 2.2874146 -1.8543091 4.1417236 -4.1417236 4.1417236l0 0c-2.2874146 0 -4.141754 -1.8543091 -4.141754 -4.1417236z" fill-rule="evenodd"/><path fill="#cfe2f3" d="m346.4357 39.01837l0 0c0 -20.343212 16.491425 -36.834644 36.834656 -36.834644l0 0c9.7691345 0 19.138184 3.880782 26.04602 10.788618c6.907837 6.907835 10.788605 16.276873 10.788605 26.046026l0 0c0 20.343216 -16.491425 36.83465 -36.834625 36.83465l0 0c-20.343231 0 -36.834656 -16.491432 -36.834656 -36.83465z" fill-rule="evenodd"/><path stroke="#000000" stroke-width="1.0" stroke-linejoin="round" stroke-linecap="butt" d="m346.4357 39.01837l0 0c0 -20.343212 16.491425 -36.834644 36.834656 -36.834644l0 0c9.7691345 0 19.138184 3.880782 26.04602 10.788618c6.907837 6.907835 10.788605 16.276873 10.788605 26.046026l0 0c0 20.343216 -16.491425 36.83465 -36.834625 36.83465l0 0c-20.343231 0 -36.834656 -16.491432 -36.834656 -36.83465z" fill-rule="evenodd"/><path fill="#000000" d="m375.08102 41.46587l0 3.03125q0 0.59375 0.03125 0.90625q0.03125 0.296875 0.109375 0.484375q0.09375 0.1875 0.21875 0.3125q0.125 0.109375 0.34375 0.203125q0.234375 0.09375 0.625 0.140625l0 0.734375l-6.109375 0l0 -0.734375q0.453125 -0.078125 0.71875 -0.1875q0.28125 -0.125 0.40625 -0.359375q0.140625 -0.234375 0.171875 -0.59375q0.046875 -0.359375 0.046875 -0.90625l0 -3.03125l-3.0 -6.328125q-0.390625 -0.796875 -0.609375 -1.1875q-0.25 -0.453125 -0.4375 -0.65625q-0.171875 -0.203125 -0.328125 -0.28125q-0.15625 -0.078125 -0.4375 -0.109375l0 -0.71875l5.890625 0l0 0.71875q-0.84375 0.109375 -0.84375 0.84375q0 0.296875 0.140625 0.6875q0.140625 0.390625 0.4375 1.0625l1.875 4.15625l2.03125 -4.0625q0.296875 -0.609375 0.40625 -1.0q0.125 -0.40625 0.125 -0.8125q0 -0.390625 -0.234375 -0.609375q-0.21875 -0.234375 -0.640625 -0.265625l0 -0.71875l4.4375 0l0 0.71875q-0.296875 0.078125 -0.5 0.1875q-0.1875 0.109375 -0.421875 0.359375q-0.21875 0.25 -0.546875 0.75q-0.3125 0.5 -0.734375 1.296875l-3.171875 5.96875z" fill-rule="nonzero"/><path fill="#000000" d="m386.02655 54.887745q-0.65625 0.5625 -1.1875 0.796875q-0.53125 0.21875 -1.125 0.21875q-1.09375 0 -1.640625 -0.59375q-0.546875 -0.59375 -0.546875 -1.796875l0 -4.125l-0.921875 0l0 -0.515625q0.453125 -0.078125 0.671875 -0.21875q0.21875 -0.15625 0.328125 -0.390625q0.125 -0.25 0.1875 -0.640625q0.078125 -0.40625 0.109375 -1.0l1.765625 0l0 1.84375l2.109375 0l0 0.921875l-2.109375 0l0 3.328125q0 0.828125 0.078125 1.234375q0.078125 0.390625 0.25 0.578125q0.1875 0.1875 0.46875 0.1875q0.203125 0 0.359375 -0.03125q0.171875 -0.046875 0.34375 -0.140625q0.1875 -0.09375 0.390625 -0.265625l0.46875 0.609375zm4.127838 -2.359375l-3.5 0l0 -1.546875l3.5 0l0 1.546875zm6.715576 1.1875q0 0.4375 0.046875 0.65625q0.046875 0.21875 0.15625 0.359375q0.125 0.125 0.359375 0.203125q0.234375 0.078125 0.578125 0.125q0.34375 0.03125 0.90625 0.046875l0 0.671875l-6.359375 0l0 -0.671875q0.8125 -0.03125 1.15625 -0.09375q0.359375 -0.0625 0.546875 -0.1875q0.1875 -0.125 0.265625 -0.359375q0.09375 -0.234375 0.09375 -0.75l0 -5.328125q0 -0.296875 -0.125 -0.421875q-0.109375 -0.140625 -0.3125 -0.140625q-0.1875 0 -0.515625 0.171875q-0.328125 0.15625 -1.109375 0.6875l-0.4375 -0.78125l3.84375 -2.3125l0.953125 0q-0.046875 0.703125 -0.046875 1.96875l0 6.15625z" fill-rule="nonzero"/><path fill="#000000" fill-opacity="0.0" d="m262.685 234.42783l0 -25.000137l120.358734 0l0 58.574936l73.971985 0" fill-rule="evenodd"/><path stroke="#000000" stroke-width="2.0" stroke-linejoin="round" stroke-linecap="butt" d="m262.685 234.42783l0 -25.000153l120.358734 0l0 58.57495l61.971985 0" fill-rule="evenodd"/><path fill="#000000" stroke="#000000" stroke-width="2.0" stroke-linecap="butt" d="m445.01572 271.3061l9.076172 -3.3034668l-9.076172 -3.3034668z" fill-rule="evenodd"/><path fill="#000000" fill-opacity="0.0" d="m262.685 234.42783l0 -24.3694l120.59842 0l0 -134.21329" fill-rule="evenodd"/><path stroke="#000000" stroke-width="2.0" stroke-linejoin="round" stroke-linecap="butt" d="m262.685 234.42783l0 -24.3694l120.59842 0l0 -122.21328" fill-rule="evenodd"/><path fill="#000000" stroke="#000000" stroke-width="2.0" stroke-linecap="butt" d="m386.58688 87.845146l-3.3034668 -9.076195l-3.3034668 9.076195z" fill-rule="evenodd"/><path fill="#000000" fill-opacity="0.0" d="m465.3002 268.00262l82.04727 -1.3543396" fill-rule="evenodd"/><path stroke="#000000" stroke-width="2.0" stroke-linejoin="round" stroke-linecap="butt" d="m465.3002 268.00262l70.04886 -1.1562805" fill-rule="evenodd"/><path fill="#000000" stroke="#000000" stroke-width="2.0" stroke-linecap="butt" d="m535.4036 270.14935l9.020386 -3.4527893l-9.129456 -3.1532288z" fill-rule="evenodd"/><path fill="#000000" fill-opacity="0.0" d="m480.43832 207.56264l60.59842 0l0 51.27559l-60.59842 0z" fill-rule="evenodd"/><path fill="#000000" d="m504.37582 236.66513q0 0.890625 0.078125 1.234375q0.078125 0.328125 0.3125 0.5625q0.234375 0.21875 0.859375 0.359375l0 0.78125l-6.125 0l0 -0.78125q0.6875 -0.171875 0.875 -0.34375q0.203125 -0.171875 0.28125 -0.5q0.09375 -0.328125 0.09375 -1.3125l0 -4.703125l-5.296875 0l0 4.703125q0 0.40625 0.015625 0.765625q0.03125 0.34375 0.09375 0.5625q0.078125 0.21875 0.203125 0.375q0.140625 0.15625 0.375 0.265625q0.234375 0.109375 0.578125 0.1875l0 0.78125l-6.15625 0l0 -0.78125q0.4375 -0.109375 0.6875 -0.234375q0.25 -0.140625 0.375 -0.375q0.125 -0.25 0.15625 -0.609375q0.03125 -0.375 0.03125 -0.9375l0 -10.109375q0 -0.546875 -0.03125 -0.921875q-0.015625 -0.375 -0.140625 -0.609375q-0.125 -0.234375 -0.375 -0.375q-0.25 -0.15625 -0.703125 -0.265625l0 -0.78125l6.15625 0l0 0.78125q-0.625 0.171875 -0.859375 0.390625q-0.21875 0.203125 -0.3125 0.546875q-0.09375 0.34375 -0.09375 1.25l0 3.90625l5.296875 0l0 -3.90625q0 -0.890625 -0.078125 -1.234375q-0.078125 -0.34375 -0.3125 -0.5625q-0.21875 -0.21875 -0.859375 -0.390625l0 -0.78125l6.125 0l0 0.78125q-0.515625 0.140625 -0.75 0.296875q-0.234375 0.15625 -0.34375 0.40625q-0.09375 0.234375 -0.125 0.546875q-0.03125 0.296875 -0.03125 0.9375l0 10.09375z" fill-rule="nonzero"/><path fill="#000000" d="m512.77423 247.66513q-0.6875 0.578125 -1.2499695 0.828125q-0.5625 0.234375 -1.1875 0.234375q-1.15625 0 -1.734375 -0.625q-0.578125 -0.640625 -0.578125 -1.90625l0 -4.375l-0.96875 0l0 -0.53125q0.46875 -0.078125 0.6875 -0.234375q0.234375 -0.15625 0.359375 -0.421875q0.125 -0.265625 0.203125 -0.6875q0.078125 -0.421875 0.109375 -1.046875l1.875 0l0 1.953125l2.2187195 0l0 0.96875l-2.2187195 0l0 3.53125q0 0.875 0.078125 1.296875q0.078125 0.421875 0.265625 0.625q0.203125 0.203125 0.5 0.203125q0.21875 0 0.390625 -0.03125q0.171875 -0.046875 0.359375 -0.140625q0.18746948 -0.109375 0.40621948 -0.296875l0.484375 0.65625zm4.375 -2.515625l-3.703125 0l0 -1.640625l3.703125 0l0 1.640625zm7.109375 1.265625q0 0.453125 0.046875 0.6875q0.0625 0.234375 0.1875 0.375q0.125 0.140625 0.359375 0.234375q0.25 0.078125 0.609375 0.125q0.375 0.03125 0.984375 0.046875l0 0.71875l-6.75 0l0 -0.71875q0.875 -0.03125 1.234375 -0.09375q0.375 -0.078125 0.5625 -0.203125q0.203125 -0.140625 0.296875 -0.375q0.09375 -0.25 0.09375 -0.796875l0 -5.640625q0 -0.328125 -0.125 -0.46875q-0.125 -0.140625 -0.328125 -0.140625q-0.203125 0 -0.5625 0.1875q-0.34375 0.171875 -1.15625 0.734375l-0.484375 -0.828125l4.078125 -2.453125l1.0 0q-0.046875 0.75 -0.046875 2.078125l0 6.53125z" fill-rule="nonzero"/><path fill="#000000" fill-opacity="0.0" d="m948.0105 207.56264l45.826782 0l0 51.27559l-45.826782 0z" fill-rule="evenodd"/><path fill="#000000" d="m971.948 236.66513q0 0.890625 0.078125 1.234375q0.078125 0.328125 0.3125 0.5625q0.234375 0.21875 0.859375 0.359375l0 0.78125l-6.125 0l0 -0.78125q0.6875 -0.171875 0.875 -0.34375q0.203125 -0.171875 0.28125 -0.5q0.09375 -0.328125 0.09375 -1.3125l0 -4.703125l-5.296875 0l0 4.703125q0 0.40625 0.015625 0.765625q0.03125 0.34375 0.09375 0.5625q0.078125 0.21875 0.203125 0.375q0.140625 0.15625 0.375 0.265625q0.234375 0.109375 0.578125 0.1875l0 0.78125l-6.15625 0l0 -0.78125q0.4375 -0.109375 0.6875 -0.234375q0.25 -0.140625 0.375 -0.375q0.125 -0.25 0.15625 -0.609375q0.03125 -0.375 0.03125 -0.9375l0 -10.109375q0 -0.546875 -0.03125 -0.921875q-0.015625 -0.375 -0.140625 -0.609375q-0.125 -0.234375 -0.375 -0.375q-0.25 -0.15625 -0.703125 -0.265625l0 -0.78125l6.15625 0l0 0.78125q-0.625 0.171875 -0.859375 0.390625q-0.21875 0.203125 -0.3125 0.546875q-0.09375 0.34375 -0.09375 1.25l0 3.90625l5.296875 0l0 -3.90625q0 -0.890625 -0.078125 -1.234375q-0.078125 -0.34375 -0.3125 -0.5625q-0.21875 -0.21875 -0.859375 -0.390625l0 -0.78125l6.125 0l0 0.78125q-0.515625 0.140625 -0.75 0.296875q-0.234375 0.15625 -0.34375 0.40625q-0.09375 0.234375 -0.125 0.546875q-0.03125 0.296875 -0.03125 0.9375l0 10.09375z" fill-rule="nonzero"/><path fill="#000000" d="m980.34644 247.66513q-0.6875 0.578125 -1.25 0.828125q-0.5625 0.234375 -1.1875 0.234375q-1.15625 0 -1.734375 -0.625q-0.578125 -0.640625 -0.578125 -1.90625l0 -4.375l-0.96875 0l0 -0.53125q0.46875 -0.078125 0.6875 -0.234375q0.234375 -0.15625 0.359375 -0.421875q0.125 -0.265625 0.203125 -0.6875q0.078125 -0.421875 0.109375 -1.046875l1.875 0l0 1.953125l2.21875 0l0 0.96875l-2.21875 0l0 3.53125q0 0.875 0.078125 1.296875q0.078125 0.421875 0.265625 0.625q0.203125 0.203125 0.5 0.203125q0.21875 0 0.390625 -0.03125q0.171875 -0.046875 0.359375 -0.140625q0.1875 -0.109375 0.40625 -0.296875l0.484375 0.65625z" fill-rule="nonzero"/><path fill="#d9ead3" d="m551.50397 174.74107l0 0c0 -25.382416 20.576477 -45.958923 45.958923 -45.958923l279.95612 0c12.189087 0 23.878906 4.842087 32.497864 13.46106c8.619019 8.618973 13.46106 20.308807 13.46106 32.497864l0 183.83018c0 25.382416 -20.576477 45.958923 -45.958923 45.958923l-279.95612 0c-25.382446 0 -45.958923 -20.576508 -45.958923 -45.958923z" fill-rule="evenodd"/><path stroke="#274e13" stroke-width="3.0" stroke-linejoin="round" stroke-linecap="butt" d="m551.50397 174.74107l0 0c0 -25.382416 20.576477 -45.958923 45.958923 -45.958923l279.95612 0c12.189087 0 23.878906 4.842087 32.497864 13.46106c8.619019 8.618973 13.46106 20.308807 13.46106 32.497864l0 183.83018c0 25.382416 -20.576477 45.958923 -45.958923 45.958923l-279.95612 0c-25.382446 0 -45.958923 -20.576508 -45.958923 -45.958923z" fill-rule="evenodd"/><path fill="#cfe2f3" d="m598.1181 471.85303l0 0c0 -20.343231 16.491455 -36.834656 36.834656 -36.834656l0 0c9.769165 0 19.138184 3.8807678 26.04602 10.788605c6.907837 6.907837 10.788635 16.276886 10.788635 26.046051l0 0c0 20.3432 -16.491455 36.834625 -36.834656 36.834625l0 0c-20.3432 0 -36.834656 -16.491425 -36.834656 -36.834625z" fill-rule="evenodd"/><path stroke="#000000" stroke-width="1.0" stroke-linejoin="round" stroke-linecap="butt" d="m598.1181 471.85303l0 0c0 -20.343231 16.491455 -36.834656 36.834656 -36.834656l0 0c9.769165 0 19.138184 3.8807678 26.04602 10.788605c6.907837 6.907837 10.788635 16.276886 10.788635 26.046051l0 0c0 20.3432 -16.491455 36.834625 -36.834656 36.834625l0 0c-20.3432 0 -36.834656 -16.491425 -36.834656 -36.834625z" fill-rule="evenodd"/><path fill="#000000" d="m631.6852 464.393l0 0.78125q-0.546875 0.046875 -0.78125 0.25q-0.21875 0.1875 -0.21875 0.59375q0 0.1875 0.078125 0.453125q0.078125 0.25 0.265625 0.609375q0.1875 0.34375 0.640625 1.09375l1.078125 1.8125l1.421875 -2.09375q0.46875 -0.6875 0.625 -1.046875q0.15625 -0.375 0.15625 -0.796875q0 -0.375 -0.265625 -0.59375q-0.25 -0.234375 -0.703125 -0.28125l0 -0.78125l4.84375 0l0 0.78125q-0.34375 0.09375 -0.65625 0.3125q-0.296875 0.203125 -0.703125 0.671875q-0.390625 0.46875 -1.265625 1.734375l-2.53125 3.609375l3.8125 6.296875q0.203125 0.3125 0.40625 0.625q0.203125 0.3125 0.390625 0.5625q0.203125 0.234375 0.34375 0.359375q0.15625 0.109375 0.296875 0.171875q0.140625 0.0625 0.296875 0.09375l0 0.78125l-6.515625 0l0 -0.78125q0.515625 -0.046875 0.75 -0.234375q0.25 -0.1875 0.25 -0.609375q0 -0.140625 -0.046875 -0.296875q-0.03125 -0.171875 -0.140625 -0.40625q-0.09375 -0.234375 -0.203125 -0.40625q-0.09375 -0.1875 -0.390625 -0.703125l-1.625 -2.6875l-1.921875 2.828125q-0.21875 0.34375 -0.375 0.625q-0.140625 0.28125 -0.203125 0.515625q-0.0625 0.234375 -0.0625 0.546875q0 0.3125 0.25 0.546875q0.25 0.234375 0.71875 0.28125l0 0.78125l-4.84375 0l0 -0.78125q0.390625 -0.109375 0.703125 -0.34375q0.328125 -0.25 0.703125 -0.703125q0.390625 -0.453125 1.046875 -1.421875l3.0625 -4.375l-2.953125 -4.921875q-0.484375 -0.796875 -0.828125 -1.3125q-0.34375 -0.53125 -0.578125 -0.796875q-0.234375 -0.28125 -0.421875 -0.390625q-0.171875 -0.125 -0.421875 -0.171875l0 -0.78125l6.515625 0z" fill-rule="nonzero"/><path fill="#000000" d="m645.47034 488.4555q-0.6875 0.578125 -1.25 0.828125q-0.5625 0.234375 -1.1875 0.234375q-1.15625 0 -1.734375 -0.625q-0.578125 -0.640625 -0.578125 -1.90625l0 -4.375l-0.96875 0l0 -0.53125q0.46875 -0.078125 0.6875 -0.234375q0.234375 -0.15625 0.359375 -0.421875q0.125 -0.265625 0.203125 -0.6875q0.078125 -0.421875 0.109375 -1.046875l1.875 0l0 1.953125l2.21875 0l0 0.96875l-2.21875 0l0 3.53125q0 0.875 0.078125 1.296875q0.078125 0.421875 0.265625 0.625q0.203125 0.203125 0.5 0.203125q0.21875 0 0.390625 -0.03125q0.171875 -0.046875 0.359375 -0.140625q0.1875 -0.109375 0.40625 -0.296875l0.484375 0.65625z" fill-rule="nonzero"/><path fill="#d9d2e9" d="m686.4514 268.00262l38.236267 0l0 33.5748l-38.236267 0z" fill-rule="evenodd"/><path stroke="#000000" stroke-width="1.0" stroke-linejoin="round" stroke-linecap="butt" d="m686.4514 268.00262l38.236267 0l0 33.5748l-38.236267 0z" fill-rule="evenodd"/><path fill="#000000" d="m705.55286 281.60065l-2.921875 10.171875l-1.46875 0l-2.65625 -9.890625q-0.171875 -0.625 -0.3125 -1.015625q-0.125 -0.390625 -0.265625 -0.609375q-0.140625 -0.21875 -0.296875 -0.328125q-0.15625 -0.125 -0.453125 -0.203125l0 -0.453125l3.890625 0l0 0.453125q-0.5625 0.109375 -0.78125 0.328125q-0.21875 0.21875 -0.21875 0.609375q0 0.3125 0.078125 0.75q0.078125 0.4375 0.21875 1.0l1.84375 7.1875l2.921875 -10.328125l1.53125 0l2.375 10.34375l2.15625 -6.953125q0.390625 -1.265625 0.390625 -1.796875q0 -0.5625 -0.234375 -0.796875q-0.234375 -0.25 -0.765625 -0.34375l0 -0.453125l3.59375 0l0 0.453125q-0.28125 0.09375 -0.453125 0.203125q-0.15625 0.109375 -0.3125 0.3125q-0.140625 0.1875 -0.328125 0.609375q-0.171875 0.40625 -0.40625 1.09375l-3.3125 9.828125l-1.296875 0l-2.515625 -10.171875z" fill-rule="nonzero"/><path fill="#d9d2e9" d="m724.6877 268.00262l38.236206 0l0 33.5748l-38.236206 0z" fill-rule="evenodd"/><path stroke="#000000" stroke-width="1.0" stroke-linejoin="round" stroke-linecap="butt" d="m724.6877 268.00262l38.236206 0l0 33.5748l-38.236206 0z" fill-rule="evenodd"/><path fill="#000000" d="m743.78906 281.60065l-2.921875 10.171875l-1.46875 0l-2.65625 -9.890625q-0.171875 -0.625 -0.3125 -1.015625q-0.125 -0.390625 -0.265625 -0.609375q-0.140625 -0.21875 -0.296875 -0.328125q-0.15625 -0.125 -0.453125 -0.203125l0 -0.453125l3.890625 0l0 0.453125q-0.5625 0.109375 -0.78125 0.328125q-0.21875 0.21875 -0.21875 0.609375q0 0.3125 0.078125 0.75q0.078125 0.4375 0.21875 1.0l1.84375 7.1875l2.921875 -10.328125l1.53125 0l2.375 10.34375l2.15625 -6.953125q0.390625 -1.265625 0.390625 -1.796875q0 -0.5625 -0.234375 -0.796875q-0.234375 -0.25 -0.765625 -0.34375l0 -0.453125l3.59375 0l0 0.453125q-0.28125 0.09375 -0.453125 0.203125q-0.15625 0.109375 -0.3125 0.3125q-0.140625 0.1875 -0.328125 0.609375q-0.171875 0.40625 -0.40625 1.09375l-3.3125 9.828125l-1.296875 0l-2.515625 -10.171875z" fill-rule="nonzero"/><path fill="#fff2cc" d="m686.4514 234.42783l76.47241 0l0 33.5748l-76.47241 0z" fill-rule="evenodd"/><path stroke="#000000" stroke-width="1.0" stroke-linejoin="round" stroke-linecap="butt" d="m686.4514 234.42783l76.47241 0l0 33.5748l-76.47241 0z" fill-rule="evenodd"/><path fill="#000000" d="m701.88684 249.13022q0.578125 -0.09375 0.9375 -0.328125q0.375 -0.234375 0.578125 -0.59375q0.203125 -0.375 0.3125 -0.921875q0.125 -0.5625 0.25 -1.625l1.671875 0l0 2.890625l3.78125 0l0 1.1875l-3.78125 0l0 5.203125q0 1.140625 0.09375 1.8125q0.09375 0.671875 0.34375 1.0625q0.265625 0.375 0.59375 0.546875q0.328125 0.15625 0.84375 0.15625q0.46875 0 0.875 -0.1875q0.40625 -0.203125 0.8125 -0.5625l0.53125 0.640625q-0.84375 0.796875 -1.59375 1.171875q-0.734375 0.359375 -1.53125 0.359375q-1.515625 0 -2.25 -0.890625q-0.734375 -0.90625 -0.734375 -2.8125l0 -6.5l-1.734375 0l0 -0.609375zm15.589844 8.953125l-0.171875 -0.046875q-1.015625 1.03125 -1.921875 1.46875q-0.890625 0.4375 -1.890625 0.4375q-0.890625 0 -1.578125 -0.34375q-0.671875 -0.34375 -1.046875 -0.96875q-0.359375 -0.640625 -0.359375 -1.453125q0 -1.71875 1.6875 -2.640625q1.703125 -0.9375 5.09375 -1.09375l0 -0.75q0 -1.21875 -0.234375 -1.921875q-0.234375 -0.703125 -0.75 -1.03125q-0.5 -0.328125 -1.34375 -0.328125q-0.90625 0 -1.46875 0.484375q-0.5625 0.46875 -0.84375 1.4375l-1.53125 0l0 -1.53125q1.125 -0.578125 1.875 -0.859375q0.75 -0.28125 1.5 -0.4375q0.75 -0.15625 1.53125 -0.15625q1.15625 0 1.859375 0.375q0.703125 0.359375 1.046875 1.125q0.359375 0.765625 0.359375 2.296875l0 4.078125q0 0.875 0 1.234375q0.015625 0.34375 0.078125 0.65625q0.0625 0.296875 0.171875 0.484375q0.125 0.1875 0.34375 0.3125q0.234375 0.125 0.75 0.265625l0 0.578125l-3.203125 0l0.046875 -1.671875zm-0.1875 -3.671875q-2.390625 0.015625 -3.578125 0.625q-1.171875 0.609375 -1.171875 1.84375q0 0.671875 0.265625 1.0625q0.265625 0.375 0.671875 0.53125q0.421875 0.140625 0.984375 0.140625q0.796875 0 1.4375 -0.375q0.65625 -0.390625 1.015625 -0.984375q0.375 -0.609375 0.375 -1.1875l0 -1.65625zm16.546875 5.34375l-4.609375 0l0 -0.578125q0.453125 -0.140625 0.65625 -0.234375q0.203125 -0.109375 0.328125 -0.296875q0.140625 -0.1875 0.21875 -0.578125q0.078125 -0.40625 0.078125 -1.203125l0 -3.0625q0 -0.828125 -0.046875 -1.484375q-0.046875 -0.671875 -0.171875 -1.09375q-0.109375 -0.4375 -0.265625 -0.671875q-0.15625 -0.25 -0.375 -0.40625q-0.21875 -0.171875 -0.5 -0.265625q-0.28125 -0.109375 -0.734375 -0.109375q-0.453125 0 -0.875 0.1875q-0.40625 0.171875 -0.90625 0.625q-0.484375 0.4375 -0.703125 0.875q-0.21875 0.4375 -0.21875 1.0l0 4.359375q0 1.015625 0.09375 1.40625q0.09375 0.390625 0.359375 0.59375q0.265625 0.203125 0.859375 0.359375l0 0.578125l-4.59375 0l0 -0.578125q0.453125 -0.140625 0.640625 -0.234375q0.203125 -0.109375 0.328125 -0.296875q0.140625 -0.1875 0.21875 -0.578125q0.078125 -0.390625 0.078125 -1.203125l0 -5.109375q0 -0.75 -0.03125 -1.203125q-0.015625 -0.46875 -0.15625 -0.734375q-0.140625 -0.28125 -0.4375 -0.40625q-0.28125 -0.140625 -0.8125 -0.234375l0 -0.625l2.75 -0.109375l0.71875 0l-0.140625 1.90625l0.171875 0.046875q0.859375 -0.875 1.390625 -1.25q0.546875 -0.375 1.078125 -0.578125q0.546875 -0.203125 1.15625 -0.203125q0.640625 0 1.140625 0.15625q0.5 0.140625 0.875 0.453125q0.375 0.296875 0.625 0.75q0.25 0.4375 0.375 1.078125q0.125 0.625 0.125 1.609375l0 4.40625q0 0.8125 0.046875 1.1875q0.046875 0.359375 0.15625 0.5625q0.125 0.1875 0.34375 0.328125q0.21875 0.125 0.765625 0.28125l0 0.578125zm5.1289062 -9.359375l0.046875 0q0.90625 -0.921875 1.4375 -1.28125q0.546875 -0.375 1.0625 -0.5625q0.515625 -0.1875 1.125 -0.1875q0.640625 0 1.140625 0.15625q0.5 0.140625 0.875 0.453125q0.390625 0.3125 0.625 0.765625q0.25 0.453125 0.359375 1.078125q0.125 0.625 0.125 1.59375l0 4.40625q0 1.03125 0.078125 1.40625q0.09375 0.359375 0.3125 0.5625q0.234375 0.203125 0.9375 0.390625l0 0.578125l-4.625 0l0 -0.578125q0.453125 -0.140625 0.65625 -0.234375q0.203125 -0.109375 0.328125 -0.296875q0.140625 -0.1875 0.21875 -0.578125q0.078125 -0.40625 0.078125 -1.203125l0 -3.0625q0 -1.5625 -0.15625 -2.390625q-0.15625 -0.828125 -0.625 -1.234375q-0.46875 -0.40625 -1.296875 -0.40625q-0.46875 0 -0.84375 0.171875q-0.375 0.15625 -0.875 0.578125q-0.484375 0.421875 -0.734375 0.875q-0.25 0.4375 -0.25 0.9375l0 4.484375q0 0.796875 0.03125 1.140625q0.046875 0.34375 0.15625 0.578125q0.125 0.21875 0.359375 0.375q0.25 0.140625 0.75 0.265625l0 0.578125l-4.640625 0l0 -0.578125q0.515625 -0.140625 0.734375 -0.265625q0.234375 -0.125 0.34375 -0.328125q0.125 -0.203125 0.1875 -0.578125q0.0625 -0.375 0.0625 -1.1875l0 -9.796875q0 -1.125 -0.015625 -1.5625q-0.015625 -0.453125 -0.09375 -0.765625q-0.078125 -0.3125 -0.21875 -0.484375q-0.125 -0.1875 -0.359375 -0.28125q-0.234375 -0.109375 -0.828125 -0.21875l0 -0.609375l2.828125 -0.109375l0.703125 0l0 7.40625z" fill-rule="nonzero"/><path fill="#ffffff" d="m547.3543 266.65485l0 0c0 -2.2874146 1.8543091 -4.1417236 4.1417236 -4.1417236l0 0c1.0985107 0 2.1519775 0.43637085 2.92865 1.2130737c0.7767334 0.7767334 1.2131348 1.8302002 1.2131348 2.92865l0 0c0 2.2874146 -1.8543091 4.141754 -4.1417847 4.141754l0 0c-2.2874146 0 -4.1417236 -1.8543396 -4.1417236 -4.141754z" fill-rule="evenodd"/><path stroke="#000000" stroke-width="1.0" stroke-linejoin="round" stroke-linecap="butt" d="m547.3543 266.65485l0 0c0 -2.2874146 1.8543091 -4.1417236 4.1417236 -4.1417236l0 0c1.0985107 0 2.1519775 0.43637085 2.92865 1.2130737c0.7767334 0.7767334 1.2131348 1.8302002 1.2131348 2.92865l0 0c0 2.2874146 -1.8543091 4.141754 -4.1417847 4.141754l0 0c-2.2874146 0 -4.1417236 -1.8543396 -4.1417236 -4.141754z" fill-rule="evenodd"/><path fill="#000000" fill-opacity="0.0" d="m555.6378 266.65485l65.40613 0l0 59.9227l84.51514 0l0 -24.99356" fill-rule="evenodd"/><path stroke="#000000" stroke-width="2.0" stroke-linejoin="round" stroke-linecap="butt" d="m555.6378 266.65485l65.40613 0l0 59.9227l84.51514 0l0 -12.993561" fill-rule="evenodd"/><path fill="#000000" stroke="#000000" stroke-width="2.0" stroke-linecap="butt" d="m708.86255 313.58398l-3.3034668 -9.076202l-3.3034668 9.076202z" fill-rule="evenodd"/><path fill="#000000" fill-opacity="0.0" d="m634.95276 435.01837l0 -66.7204l108.8504 0l0 -66.728424" fill-rule="evenodd"/><path stroke="#000000" stroke-width="2.0" stroke-linejoin="round" stroke-linecap="butt" d="m634.95276 435.01837l0 -66.7204l108.8504 0l0 -54.728424" fill-rule="evenodd"/><path fill="#000000" stroke="#000000" stroke-width="2.0" stroke-linecap="butt" d="m747.1066 313.56955l-3.3034668 -9.076202l-3.3034668 9.076202z" fill-rule="evenodd"/><path fill="#ffffff" d="m919.01935 268.00262l0 0c0 -2.2874146 1.8543091 -4.1417236 4.1417236 -4.1417236l0 0c1.0984497 0 2.1519165 0.43634033 2.92865 1.2130737c0.7767334 0.7767334 1.2130737 1.8302002 1.2130737 2.92865l0 0c0 2.2874146 -1.8543091 4.1417236 -4.1417236 4.1417236l0 0c-2.2874146 0 -4.1417236 -1.8543091 -4.1417236 -4.1417236z" fill-rule="evenodd"/><path stroke="#000000" stroke-width="1.0" stroke-linejoin="round" stroke-linecap="butt" d="m919.01935 268.00262l0 0c0 -2.2874146 1.8543091 -4.1417236 4.1417236 -4.1417236l0 0c1.0984497 0 2.1519165 0.43634033 2.92865 1.2130737c0.7767334 0.7767334 1.2130737 1.8302002 1.2130737 2.92865l0 0c0 2.2874146 -1.8543091 4.1417236 -4.1417236 4.1417236l0 0c-2.2874146 0 -4.1417236 -1.8543091 -4.1417236 -4.1417236z" fill-rule="evenodd"/><path fill="#000000" fill-opacity="0.0" d="m927.3028 268.00262l93.98425 1.2283325" fill-rule="evenodd"/><path stroke="#000000" stroke-width="2.0" stroke-linejoin="round" stroke-linecap="butt" d="m927.3028 268.00262l81.98529 1.0715332" fill-rule="evenodd"/><path fill="#000000" stroke="#000000" stroke-width="2.0" stroke-linecap="butt" d="m1009.24493 272.37732l9.118591 -3.1845703l-9.032227 -3.4217834z" fill-rule="evenodd"/><path fill="#cfe2f3" d="m808.4383 39.01837l0 0c0 -20.343212 16.491455 -36.834644 36.834656 -36.834644l0 0c9.769165 0 19.138184 3.880782 26.04602 10.788618c6.907837 6.907835 10.788635 16.276873 10.788635 26.046026l0 0c0 20.343216 -16.491455 36.83465 -36.834656 36.83465l0 0c-20.3432 0 -36.834656 -16.491432 -36.834656 -36.83465z" fill-rule="evenodd"/><path stroke="#000000" stroke-width="1.0" stroke-linejoin="round" stroke-linecap="butt" d="m808.4383 39.01837l0 0c0 -20.343212 16.491455 -36.834644 36.834656 -36.834644l0 0c9.769165 0 19.138184 3.880782 26.04602 10.788618c6.907837 6.907835 10.788635 16.276873 10.788635 26.046026l0 0c0 20.343216 -16.491455 36.83465 -36.834656 36.83465l0 0c-20.3432 0 -36.834656 -16.491432 -36.834656 -36.83465z" fill-rule="evenodd"/><path fill="#000000" d="m844.03467 41.402122l0 3.21875q0 0.609375 0.03125 0.9375q0.03125 0.328125 0.125 0.53125q0.09375 0.1875 0.21875 0.3125q0.140625 0.125 0.375 0.234375q0.25 0.09375 0.65625 0.140625l0 0.78125l-6.46875 0l0 -0.78125q0.484375 -0.078125 0.765625 -0.203125q0.296875 -0.125 0.4375 -0.375q0.140625 -0.25 0.171875 -0.625q0.046875 -0.390625 0.046875 -0.953125l0 -3.21875l-3.171875 -6.703125q-0.40625 -0.859375 -0.640625 -1.265625q-0.28125 -0.484375 -0.46875 -0.6875q-0.1875 -0.21875 -0.359375 -0.296875q-0.15625 -0.078125 -0.453125 -0.109375l0 -0.7812481l6.25 0l0 0.7812481q-0.90625 0.109375 -0.90625 0.890625q0 0.296875 0.140625 0.71875q0.15625 0.421875 0.484375 1.125l1.96875 4.40625l2.15625 -4.296875q0.3125 -0.640625 0.4375 -1.0625q0.125 -0.4375 0.125 -0.859375q0 -0.421875 -0.25 -0.65625q-0.234375 -0.25 -0.671875 -0.265625l0 -0.7812481l4.703125 0l0 0.7812481q-0.3125 0.0625 -0.53125 0.1875q-0.203125 0.125 -0.453125 0.390625q-0.234375 0.265625 -0.578125 0.796875q-0.34375 0.515625 -0.78125 1.359375l-3.359375 6.328125z" fill-rule="nonzero"/><path fill="#000000" d="m855.6206 55.620872q-0.6875 0.578125 -1.25 0.828125q-0.5625 0.234375 -1.1875 0.234375q-1.15625 0 -1.734375 -0.625q-0.578125 -0.640625 -0.578125 -1.90625l0 -4.375l-0.96875 0l0 -0.53125q0.46875 -0.078125 0.6875 -0.234375q0.234375 -0.15625 0.359375 -0.421875q0.125 -0.265625 0.203125 -0.6875q0.078125 -0.421875 0.109375 -1.046875l1.875 0l0 1.953125l2.21875 0l0 0.96875l-2.21875 0l0 3.53125q0 0.875 0.078125 1.296875q0.078125 0.421875 0.265625 0.625q0.203125 0.203125 0.5 0.203125q0.21875 0 0.390625 -0.03125q0.171875 -0.046875 0.359375 -0.140625q0.1875 -0.109375 0.40625 -0.296875l0.484375 0.65625z" fill-rule="nonzero"/><path fill="#000000" fill-opacity="0.0" d="m724.6876 234.42783l0 -25.000137l120.31793 0l0 58.574936l74.01276 0" fill-rule="evenodd"/><path stroke="#000000" stroke-width="2.0" stroke-linejoin="round" stroke-linecap="butt" d="m724.68756 234.42783l0 -25.000153l120.31799 0l0 58.57495l62.012756 0" fill-rule="evenodd"/><path fill="#000000" stroke="#000000" stroke-width="2.0" stroke-linecap="butt" d="m907.0183 271.3061l9.076172 -3.3034668l-9.076172 -3.3034668z" fill-rule="evenodd"/><path fill="#000000" fill-opacity="0.0" d="m724.6876 234.42783l0 -25.606354l120.59845 0l0 -132.97632" fill-rule="evenodd"/><path stroke="#000000" stroke-width="2.0" stroke-linejoin="round" stroke-linecap="butt" d="m724.68756 234.42783l0 -25.606339l120.59845 0l0 -120.97634" fill-rule="evenodd"/><path fill="#000000" stroke="#000000" stroke-width="2.0" stroke-linecap="butt" d="m848.5895 87.845146l-3.3034668 -9.076195l-3.3034668 9.076195z" fill-rule="evenodd"/><path fill="#d9ead3" d="m1025.4252 177.30537l0 0c0 -25.3824 20.576538 -45.958923 45.958984 -45.958923l279.95618 0c12.188965 0 23.878906 4.842087 32.497803 13.46106c8.619019 8.618973 13.46106 20.308807 13.46106 32.497864l0 183.83018c0 25.382416 -20.576538 45.958923 -45.958862 45.958923l-279.95618 0c-25.382446 0 -45.958984 -20.576508 -45.958984 -45.958923z" fill-rule="evenodd"/><path stroke="#274e13" stroke-width="3.0" stroke-linejoin="round" stroke-linecap="butt" d="m1025.4252 177.30537l0 0c0 -25.3824 20.576538 -45.958923 45.958984 -45.958923l279.95618 0c12.188965 0 23.878906 4.842087 32.497803 13.46106c8.619019 8.618973 13.46106 20.308807 13.46106 32.497864l0 183.83018c0 25.382416 -20.576538 45.958923 -45.958862 45.958923l-279.95618 0c-25.382446 0 -45.958984 -20.576508 -45.958984 -45.958923z" fill-rule="evenodd"/><path fill="#cfe2f3" d="m1072.0394 474.41733l0 0c0 -20.343231 16.491333 -36.834656 36.834595 -36.834656l0 0c9.769165 0 19.138184 3.8807983 26.04602 10.788635c6.907837 6.907837 10.788574 16.276855 10.788574 26.04602l0 0c0 20.3432 -16.491333 36.834656 -36.834595 36.834656l0 0c-20.343262 0 -36.834595 -16.491455 -36.834595 -36.834656z" fill-rule="evenodd"/><path stroke="#000000" stroke-width="1.0" stroke-linejoin="round" stroke-linecap="butt" d="m1072.0394 474.41733l0 0c0 -20.343231 16.491333 -36.834656 36.834595 -36.834656l0 0c9.769165 0 19.138184 3.8807983 26.04602 10.788635c6.907837 6.907837 10.788574 16.276855 10.788574 26.04602l0 0c0 20.3432 -16.491333 36.834656 -36.834595 36.834656l0 0c-20.343262 0 -36.834595 -16.491455 -36.834595 -36.834656z" fill-rule="evenodd"/><path fill="#000000" d="m1098.2659 468.28918l0 0.640625q-0.46875 0.046875 -0.65625 0.21875q-0.1875 0.15625 -0.1875 0.484375q0 0.171875 0.0625 0.390625q0.078125 0.203125 0.234375 0.5q0.15625 0.28125 0.515625 0.90625l0.90625 1.515625l1.1875 -1.734375q0.390625 -0.578125 0.515625 -0.890625q0.140625 -0.3125 0.140625 -0.65625q0 -0.3125 -0.21875 -0.5q-0.21875 -0.1875 -0.59375 -0.234375l0 -0.640625l4.03125 0l0 0.65625q-0.28125 0.078125 -0.53125 0.25q-0.25 0.171875 -0.59375 0.5625q-0.328125 0.390625 -1.0625 1.4375l-2.109375 3.015625l3.1875 5.25q0.171875 0.265625 0.328125 0.53125q0.171875 0.25 0.328125 0.453125q0.171875 0.1875 0.296875 0.296875q0.125 0.09375 0.234375 0.15625q0.125 0.046875 0.25 0.078125l0 0.640625l-5.4375 0l0 -0.640625q0.4375 -0.046875 0.640625 -0.203125q0.203125 -0.15625 0.203125 -0.5q0 -0.125 -0.03125 -0.25q-0.03125 -0.140625 -0.125 -0.328125q-0.078125 -0.203125 -0.171875 -0.359375q-0.078125 -0.15625 -0.328125 -0.578125l-1.359375 -2.234375l-1.59375 2.34375q-0.171875 0.28125 -0.3125 0.515625q-0.125 0.234375 -0.171875 0.4375q-0.046875 0.1875 -0.046875 0.453125q0 0.265625 0.203125 0.46875q0.21875 0.1875 0.609375 0.234375l0 0.640625l-4.046875 0l0 -0.640625q0.328125 -0.109375 0.59375 -0.296875q0.265625 -0.203125 0.578125 -0.578125q0.328125 -0.390625 0.875 -1.1875l2.5625 -3.65625l-2.46875 -4.09375q-0.40625 -0.65625 -0.6875 -1.09375q-0.28125 -0.453125 -0.484375 -0.671875q-0.1875 -0.234375 -0.34375 -0.328125q-0.15625 -0.09375 -0.359375 -0.140625l0 -0.640625l5.4375 0z" fill-rule="nonzero"/><path fill="#000000" d="m1109.7483 488.33606q-0.578125 0.484375 -1.046875 0.6875q-0.46875 0.203125 -0.984375 0.203125q-0.96875 0 -1.453125 -0.515625q-0.484375 -0.53125 -0.484375 -1.59375l0 -3.640625l-0.8125 0l0 -0.453125q0.40625 -0.0625 0.59375 -0.1875q0.1875 -0.140625 0.28125 -0.359375q0.109375 -0.21875 0.171875 -0.5625q0.0625 -0.359375 0.09375 -0.875l1.5625 0l0 1.625l1.859375 0l0 0.8125l-1.859375 0l0 2.9375q0 0.734375 0.0625 1.09375q0.078125 0.34375 0.234375 0.515625q0.15625 0.15625 0.40625 0.15625q0.171875 0 0.3125 -0.03125q0.15625 -0.03125 0.3125 -0.109375q0.15625 -0.09375 0.328125 -0.25l0.421875 0.546875zm4.492798 -2.359375l0 2.5l-1.390625 0l0 -2.5l-2.46875 0l0 -1.328125l2.46875 0l0 -2.5l1.390625 0l0 2.5l2.46875 0l0 1.328125l-2.46875 0zm8.472168 1.328125q0 0.375 0.03125 0.578125q0.046875 0.1875 0.15625 0.3125q0.109375 0.109375 0.3125 0.1875q0.203125 0.0625 0.5 0.09375q0.3125 0.03125 0.8125 0.046875l0 0.59375l-5.609375 0l0 -0.59375q0.71875 -0.03125 1.03125 -0.078125q0.3125 -0.0625 0.46875 -0.171875q0.15625 -0.109375 0.234375 -0.3125q0.078125 -0.203125 0.078125 -0.65625l0 -4.703125q0 -0.265625 -0.109375 -0.375q-0.09375 -0.125 -0.265625 -0.125q-0.171875 0 -0.46875 0.15625q-0.28125 0.140625 -0.96875 0.59375l-0.390625 -0.6875l3.390625 -2.03125l0.84375 0q-0.046875 0.625 -0.046875 1.734375l0 5.4375z" fill-rule="nonzero"/><path fill="#d9d2e9" d="m1160.3727 270.56693l38.236206 0l0 33.5748l-38.236206 0z" fill-rule="evenodd"/><path stroke="#000000" stroke-width="1.0" stroke-linejoin="round" stroke-linecap="butt" d="m1160.3727 270.56693l38.236206 0l0 33.5748l-38.236206 0z" fill-rule="evenodd"/><path fill="#000000" d="m1179.4741 284.16495l-2.921875 10.171875l-1.46875 0l-2.65625 -9.890625q-0.171875 -0.625 -0.3125 -1.015625q-0.125 -0.390625 -0.265625 -0.609375q-0.140625 -0.21875 -0.296875 -0.328125q-0.15625 -0.125 -0.453125 -0.203125l0 -0.453125l3.890625 0l0 0.453125q-0.5625 0.109375 -0.78125 0.328125q-0.21875 0.21875 -0.21875 0.609375q0 0.3125 0.078125 0.75q0.078125 0.4375 0.21875 1.0l1.84375 7.1875l2.921875 -10.328125l1.53125 0l2.375 10.34375l2.15625 -6.953125q0.390625 -1.265625 0.390625 -1.796875q0 -0.5625 -0.234375 -0.796875q-0.234375 -0.25 -0.765625 -0.34375l0 -0.453125l3.59375 0l0 0.453125q-0.28125 0.09375 -0.453125 0.203125q-0.15625 0.109375 -0.3125 0.3125q-0.140625 0.1875 -0.328125 0.609375q-0.171875 0.40625 -0.40625 1.09375l-3.3125 9.828125l-1.296875 0l-2.515625 -10.171875z" fill-rule="nonzero"/><path fill="#d9d2e9" d="m1198.6089 270.56693l38.236206 0l0 33.5748l-38.236206 0z" fill-rule="evenodd"/><path stroke="#000000" stroke-width="1.0" stroke-linejoin="round" stroke-linecap="butt" d="m1198.6089 270.56693l38.236206 0l0 33.5748l-38.236206 0z" fill-rule="evenodd"/><path fill="#000000" d="m1217.7103 284.16495l-2.921875 10.171875l-1.46875 0l-2.65625 -9.890625q-0.171875 -0.625 -0.3125 -1.015625q-0.125 -0.390625 -0.265625 -0.609375q-0.140625 -0.21875 -0.296875 -0.328125q-0.15625 -0.125 -0.453125 -0.203125l0 -0.453125l3.890625 0l0 0.453125q-0.5625 0.109375 -0.78125 0.328125q-0.21875 0.21875 -0.21875 0.609375q0 0.3125 0.078125 0.75q0.078125 0.4375 0.21875 1.0l1.84375 7.1875l2.921875 -10.328125l1.53125 0l2.375 10.34375l2.15625 -6.953125q0.390625 -1.265625 0.390625 -1.796875q0 -0.5625 -0.234375 -0.796875q-0.234375 -0.25 -0.765625 -0.34375l0 -0.453125l3.59375 0l0 0.453125q-0.28125 0.09375 -0.453125 0.203125q-0.15625 0.109375 -0.3125 0.3125q-0.140625 0.1875 -0.328125 0.609375q-0.171875 0.40625 -0.40625 1.09375l-3.3125 9.828125l-1.296875 0l-2.515625 -10.171875z" fill-rule="nonzero"/><path fill="#fff2cc" d="m1160.3727 236.99213l76.47241 0l0 33.5748l-76.47241 0z" fill-rule="evenodd"/><path stroke="#000000" stroke-width="1.0" stroke-linejoin="round" stroke-linecap="butt" d="m1160.3727 236.99213l76.47241 0l0 33.5748l-76.47241 0z" fill-rule="evenodd"/><path fill="#000000" d="m1175.8081 251.69452q0.578125 -0.09375 0.9375 -0.328125q0.375 -0.234375 0.578125 -0.59375q0.203125 -0.375 0.3125 -0.921875q0.125 -0.5625 0.25 -1.625l1.671875 0l0 2.890625l3.78125 0l0 1.1875l-3.78125 0l0 5.203125q0 1.140625 0.09375 1.8125q0.09375 0.671875 0.34375 1.0625q0.265625 0.375 0.59375 0.546875q0.328125 0.15625 0.84375 0.15625q0.46875 0 0.875 -0.1875q0.40625 -0.203125 0.8125 -0.5625l0.53125 0.640625q-0.84375 0.796875 -1.59375 1.171875q-0.734375 0.359375 -1.53125 0.359375q-1.515625 0 -2.25 -0.890625q-0.734375 -0.90625 -0.734375 -2.8125l0 -6.5l-1.734375 0l0 -0.609375zm15.589844 8.953125l-0.171875 -0.046875q-1.015625 1.03125 -1.921875 1.46875q-0.890625 0.4375 -1.890625 0.4375q-0.890625 0 -1.578125 -0.34375q-0.671875 -0.34375 -1.046875 -0.96875q-0.359375 -0.640625 -0.359375 -1.453125q0 -1.71875 1.6875 -2.640625q1.703125 -0.9375 5.09375 -1.09375l0 -0.75q0 -1.21875 -0.234375 -1.921875q-0.234375 -0.703125 -0.75 -1.03125q-0.5 -0.328125 -1.34375 -0.328125q-0.90625 0 -1.46875 0.484375q-0.5625 0.46875 -0.84375 1.4375l-1.53125 0l0 -1.53125q1.125 -0.578125 1.875 -0.859375q0.75 -0.28125 1.5 -0.4375q0.75 -0.15625 1.53125 -0.15625q1.15625 0 1.859375 0.375q0.703125 0.359375 1.046875 1.125q0.359375 0.765625 0.359375 2.296875l0 4.078125q0 0.875 0 1.234375q0.015625 0.34375 0.078125 0.65625q0.0625 0.296875 0.171875 0.484375q0.125 0.1875 0.34375 0.3125q0.234375 0.125 0.75 0.265625l0 0.578125l-3.203125 0l0.046875 -1.671875zm-0.1875 -3.671875q-2.390625 0.015625 -3.578125 0.625q-1.171875 0.609375 -1.171875 1.84375q0 0.671875 0.265625 1.0625q0.265625 0.375 0.671875 0.53125q0.421875 0.140625 0.984375 0.140625q0.796875 0 1.4375 -0.375q0.65625 -0.390625 1.015625 -0.984375q0.375 -0.609375 0.375 -1.1875l0 -1.65625zm16.546875 5.34375l-4.609375 0l0 -0.578125q0.453125 -0.140625 0.65625 -0.234375q0.203125 -0.109375 0.328125 -0.296875q0.140625 -0.1875 0.21875 -0.578125q0.078125 -0.40625 0.078125 -1.203125l0 -3.0625q0 -0.828125 -0.046875 -1.484375q-0.046875 -0.671875 -0.171875 -1.09375q-0.109375 -0.4375 -0.265625 -0.671875q-0.15625 -0.25 -0.375 -0.40625q-0.21875 -0.171875 -0.5 -0.265625q-0.28125 -0.109375 -0.734375 -0.109375q-0.453125 0 -0.875 0.1875q-0.40625 0.171875 -0.90625 0.625q-0.484375 0.4375 -0.703125 0.875q-0.21875 0.4375 -0.21875 1.0l0 4.359375q0 1.015625 0.09375 1.40625q0.09375 0.390625 0.359375 0.59375q0.265625 0.203125 0.859375 0.359375l0 0.578125l-4.59375 0l0 -0.578125q0.453125 -0.140625 0.640625 -0.234375q0.203125 -0.109375 0.328125 -0.296875q0.140625 -0.1875 0.21875 -0.578125q0.078125 -0.390625 0.078125 -1.203125l0 -5.109375q0 -0.75 -0.03125 -1.203125q-0.015625 -0.46875 -0.15625 -0.734375q-0.140625 -0.28125 -0.4375 -0.40625q-0.28125 -0.140625 -0.8125 -0.234375l0 -0.625l2.75 -0.109375l0.71875 0l-0.140625 1.90625l0.171875 0.046875q0.859375 -0.875 1.390625 -1.25q0.546875 -0.375 1.078125 -0.578125q0.546875 -0.203125 1.15625 -0.203125q0.640625 0 1.140625 0.15625q0.5 0.140625 0.875 0.453125q0.375 0.296875 0.625 0.75q0.25 0.4375 0.375 1.078125q0.125 0.625 0.125 1.609375l0 4.40625q0 0.8125 0.046875 1.1875q0.046875 0.359375 0.15625 0.5625q0.125 0.1875 0.34375 0.328125q0.21875 0.125 0.765625 0.28125l0 0.578125zm5.1289062 -9.359375l0.046875 0q0.90625 -0.921875 1.4375 -1.28125q0.546875 -0.375 1.0625 -0.5625q0.515625 -0.1875 1.125 -0.1875q0.640625 0 1.140625 0.15625q0.5 0.140625 0.875 0.453125q0.390625 0.3125 0.625 0.765625q0.25 0.453125 0.359375 1.078125q0.125 0.625 0.125 1.59375l0 4.40625q0 1.03125 0.078125 1.40625q0.09375 0.359375 0.3125 0.5625q0.234375 0.203125 0.9375 0.390625l0 0.578125l-4.625 0l0 -0.578125q0.453125 -0.140625 0.65625 -0.234375q0.203125 -0.109375 0.328125 -0.296875q0.140625 -0.1875 0.21875 -0.578125q0.078125 -0.40625 0.078125 -1.203125l0 -3.0625q0 -1.5625 -0.15625 -2.390625q-0.15625 -0.828125 -0.625 -1.234375q-0.46875 -0.40625 -1.296875 -0.40625q-0.46875 0 -0.84375 0.171875q-0.375 0.15625 -0.875 0.578125q-0.484375 0.421875 -0.734375 0.875q-0.25 0.4375 -0.25 0.9375l0 4.484375q0 0.796875 0.03125 1.140625q0.046875 0.34375 0.15625 0.578125q0.125 0.21875 0.359375 0.375q0.25 0.140625 0.75 0.265625l0 0.578125l-4.640625 0l0 -0.578125q0.515625 -0.140625 0.734375 -0.265625q0.234375 -0.125 0.34375 -0.328125q0.125 -0.203125 0.1875 -0.578125q0.0625 -0.375 0.0625 -1.1875l0 -9.796875q0 -1.125 -0.015625 -1.5625q-0.015625 -0.453125 -0.09375 -0.765625q-0.078125 -0.3125 -0.21875 -0.484375q-0.125 -0.1875 -0.359375 -0.28125q-0.234375 -0.109375 -0.828125 -0.21875l0 -0.609375l2.828125 -0.109375l0.703125 0l0 7.40625z" fill-rule="nonzero"/><path fill="#ffffff" d="m1021.2756 269.21915l0 0c0 -2.2874146 1.8543091 -4.1417236 4.1417847 -4.1417236l0 0c1.0983887 0 2.1518555 0.43637085 2.9285889 1.2131042c0.7767334 0.7767029 1.2131348 1.8301697 1.2131348 2.9286194l0 0c0 2.2874146 -1.8543701 4.141754 -4.1417236 4.141754l0 0c-2.2874756 0 -4.1417847 -1.8543396 -4.1417847 -4.141754z" fill-rule="evenodd"/><path stroke="#000000" stroke-width="1.0" stroke-linejoin="round" stroke-linecap="butt" d="m1021.2756 269.21915l0 0c0 -2.2874146 1.8543091 -4.1417236 4.1417847 -4.1417236l0 0c1.0983887 0 2.1518555 0.43637085 2.9285889 1.2131042c0.7767334 0.7767029 1.2131348 1.8301697 1.2131348 2.9286194l0 0c0 2.2874146 -1.8543701 4.141754 -4.1417236 4.141754l0 0c-2.2874756 0 -4.1417847 -1.8543396 -4.1417847 -4.141754z" fill-rule="evenodd"/><path fill="#000000" fill-opacity="0.0" d="m1029.5591 269.21915l65.40613 0l0 59.9227l84.51514 0l0 -24.99356" fill-rule="evenodd"/><path stroke="#000000" stroke-width="2.0" stroke-linejoin="round" stroke-linecap="butt" d="m1029.5591 269.21915l65.40613 0l0 59.9227l84.51514 0l0 -12.993561" fill-rule="evenodd"/><path fill="#000000" stroke="#000000" stroke-width="2.0" stroke-linecap="butt" d="m1182.7838 316.1483l-3.3034668 -9.076172l-3.3034668 9.076172z" fill-rule="evenodd"/><path fill="#000000" fill-opacity="0.0" d="m1108.874 437.58267l0 -66.7204l108.85034 0l0 -66.728424" fill-rule="evenodd"/><path stroke="#000000" stroke-width="2.0" stroke-linejoin="round" stroke-linecap="butt" d="m1108.874 437.58267l0 -66.7204l108.85034 0l0 -54.728424" fill-rule="evenodd"/><path fill="#000000" stroke="#000000" stroke-width="2.0" stroke-linecap="butt" d="m1221.0278 316.13385l-3.3034668 -9.076202l-3.3034668 9.076202z" fill-rule="evenodd"/><path fill="#ffffff" d="m1392.9407 270.56693l0 0c0 -2.2874146 1.854248 -4.1417236 4.1417236 -4.1417236l0 0c1.0983887 0 2.1518555 0.43634033 2.9285889 1.2130737c0.7767334 0.7767334 1.2131348 1.8302002 1.2131348 2.92865l0 0c0 2.2874146 -1.8543701 4.1417236 -4.1417236 4.1417236l0 0c-2.2874756 0 -4.1417236 -1.8543091 -4.1417236 -4.1417236z" fill-rule="evenodd"/><path stroke="#000000" stroke-width="1.0" stroke-linejoin="round" stroke-linecap="butt" d="m1392.9407 270.56693l0 0c0 -2.2874146 1.854248 -4.1417236 4.1417236 -4.1417236l0 0c1.0983887 0 2.1518555 0.43634033 2.9285889 1.2130737c0.7767334 0.7767334 1.2131348 1.8302002 1.2131348 2.92865l0 0c0 2.2874146 -1.8543701 4.1417236 -4.1417236 4.1417236l0 0c-2.2874756 0 -4.1417236 -1.8543091 -4.1417236 -4.1417236z" fill-rule="evenodd"/><path fill="#000000" fill-opacity="0.0" d="m1401.2241 270.56693l79.369995 0" fill-rule="evenodd"/><path stroke="#000000" stroke-width="2.0" stroke-linejoin="round" stroke-linecap="butt" d="m1401.2241 270.56693l67.369995 0" fill-rule="evenodd"/><path fill="#000000" stroke="#000000" stroke-width="2.0" stroke-linecap="butt" d="m1468.5941 273.8704l9.076294 -3.3034668l-9.076294 -3.3034668z" fill-rule="evenodd"/><path fill="#000000" fill-opacity="0.0" d="m1411.252 210.12599l60.59839 0l0 51.27559l-60.59839 0z" fill-rule="evenodd"/><path fill="#000000" d="m1435.1895 239.22849q0 0.890625 0.078125 1.234375q0.078125 0.328125 0.3125 0.5625q0.234375 0.21875 0.859375 0.359375l0 0.78125l-6.125 0l0 -0.78125q0.6875 -0.171875 0.875 -0.34375q0.203125 -0.171875 0.28125 -0.5q0.09375 -0.328125 0.09375 -1.3125l0 -4.703125l-5.296875 0l0 4.703125q0 0.40625 0.015625 0.765625q0.03125 0.34375 0.09375 0.5625q0.078125 0.21875 0.203125 0.375q0.140625 0.15625 0.375 0.265625q0.234375 0.109375 0.578125 0.1875l0 0.78125l-6.15625 0l0 -0.78125q0.4375 -0.109375 0.6875 -0.234375q0.25 -0.140625 0.375 -0.375q0.125 -0.25 0.15625 -0.609375q0.03125 -0.375 0.03125 -0.9375l0 -10.109375q0 -0.546875 -0.03125 -0.921875q-0.015625 -0.375 -0.140625 -0.609375q-0.125 -0.234375 -0.375 -0.375q-0.25 -0.15625 -0.703125 -0.265625l0 -0.78125l6.15625 0l0 0.78125q-0.625 0.171875 -0.859375 0.390625q-0.21875 0.203125 -0.3125 0.546875q-0.09375 0.34375 -0.09375 1.25l0 3.90625l5.296875 0l0 -3.90625q0 -0.890625 -0.078125 -1.234375q-0.078125 -0.34375 -0.3125 -0.5625q-0.21875 -0.21875 -0.859375 -0.390625l0 -0.78125l6.125 0l0 0.78125q-0.515625 0.140625 -0.75 0.296875q-0.234375 0.15625 -0.34375 0.40625q-0.09375 0.234375 -0.125 0.546875q-0.03125 0.296875 -0.03125 0.9375l0 10.09375z" fill-rule="nonzero"/><path fill="#000000" d="m1443.5879 250.22849q-0.6875 0.578125 -1.25 0.828125q-0.5625 0.234375 -1.1875 0.234375q-1.15625 0 -1.734375 -0.625q-0.578125 -0.640625 -0.578125 -1.90625l0 -4.375l-0.96875 0l0 -0.53125q0.46875 -0.078125 0.6875 -0.234375q0.234375 -0.15625 0.359375 -0.421875q0.125 -0.265625 0.203125 -0.6875q0.078125 -0.421875 0.109375 -1.046875l1.875 0l0 1.953125l2.21875 0l0 0.96875l-2.21875 0l0 3.53125q0 0.875 0.078125 1.296875q0.078125 0.421875 0.265625 0.625q0.203125 0.203125 0.5 0.203125q0.21875 0 0.390625 -0.03125q0.171875 -0.046875 0.359375 -0.140625q0.1875 -0.109375 0.40625 -0.296875l0.484375 0.65625zm5.40625 -2.84375l0 3.0l-1.671875 0l0 -3.0l-2.96875 0l0 -1.59375l2.96875 0l0 -3.0l1.671875 0l0 3.0l2.96875 0l0 1.59375l-2.96875 0zm10.1640625 1.59375q0 0.453125 0.046875 0.6875q0.0625 0.234375 0.1875 0.375q0.125 0.140625 0.359375 0.234375q0.25 0.078125 0.609375 0.125q0.375 0.03125 0.984375 0.046875l0 0.71875l-6.75 0l0 -0.71875q0.875 -0.03125 1.234375 -0.09375q0.375 -0.078125 0.5625 -0.203125q0.203125 -0.140625 0.296875 -0.375q0.09375 -0.25 0.09375 -0.796875l0 -5.640625q0 -0.328125 -0.125 -0.46875q-0.125 -0.140625 -0.328125 -0.140625q-0.203125 0 -0.5625 0.1875q-0.34375 0.171875 -1.15625 0.734375l-0.484375 -0.828125l4.078125 -2.453125l1.0 0q-0.046875 0.75 -0.046875 2.078125l0 6.53125z" fill-rule="nonzero"/><path fill="#cfe2f3" d="m1282.3596 41.582676l0 0c0 -20.343212 16.491333 -36.834644 36.834595 -36.834644l0 0c9.769165 0 19.138184 3.8807821 26.04602 10.788618c6.907837 6.907835 10.788696 16.276873 10.788696 26.046026l0 0c0 20.343216 -16.491455 36.834644 -36.834717 36.834644l0 0c-20.343262 0 -36.834595 -16.491428 -36.834595 -36.834644z" fill-rule="evenodd"/><path stroke="#000000" stroke-width="1.0" stroke-linejoin="round" stroke-linecap="butt" d="m1282.3596 41.582676l0 0c0 -20.343212 16.491333 -36.834644 36.834595 -36.834644l0 0c9.769165 0 19.138184 3.8807821 26.04602 10.788618c6.907837 6.907835 10.788696 16.276873 10.788696 26.046026l0 0c0 20.343216 -16.491455 36.834644 -36.834717 36.834644l0 0c-20.343262 0 -36.834595 -16.491428 -36.834595 -36.834644z" fill-rule="evenodd"/><path fill="#000000" d="m1310.2589 43.657673l0 2.671875q0 0.515625 0.03125 0.796875q0.03125 0.265625 0.109375 0.4375q0.078125 0.15625 0.1875 0.265625q0.109375 0.09375 0.3125 0.1875q0.203125 0.078125 0.546875 0.125l0 0.640625l-5.390625 0l0 -0.640625q0.40625 -0.078125 0.640625 -0.171875q0.234375 -0.109375 0.34375 -0.3125q0.125 -0.21875 0.15625 -0.53125q0.046875 -0.3125 0.046875 -0.796875l0 -2.671875l-2.65625 -5.59375q-0.34375 -0.703125 -0.53125 -1.046875q-0.234375 -0.40625 -0.390625 -0.578125q-0.15625 -0.171875 -0.296875 -0.234375q-0.140625 -0.078125 -0.375 -0.109375l0 -0.640625l5.203125 0l0 0.640625q-0.75 0.09375 -0.75 0.75q0 0.25 0.109375 0.609375q0.125 0.34375 0.40625 0.921875l1.640625 3.671875l1.796875 -3.578125q0.265625 -0.53125 0.359375 -0.890625q0.109375 -0.359375 0.109375 -0.71875q0 -0.34375 -0.203125 -0.546875q-0.203125 -0.203125 -0.5625 -0.21875l0 -0.640625l3.921875 0l0 0.640625q-0.265625 0.0625 -0.4375 0.171875q-0.171875 0.09375 -0.375 0.3125q-0.203125 0.21875 -0.5 0.65625q-0.28125 0.4375 -0.640625 1.140625l-2.8125 5.28125z" fill-rule="nonzero"/><path fill="#000000" d="m1319.9269 55.501423q-0.578125 0.484375 -1.046875 0.6875q-0.46875 0.203125 -0.984375 0.203125q-0.96875 0 -1.453125 -0.515625q-0.484375 -0.53125 -0.484375 -1.59375l0 -3.640625l-0.8125 0l0 -0.453125q0.40625 -0.0625 0.59375 -0.1875q0.1875 -0.140625 0.28125 -0.359375q0.109375 -0.21875 0.171875 -0.5625q0.0625 -0.359375 0.09375 -0.875l1.5625 0l0 1.625l1.859375 0l0 0.8125l-1.859375 0l0 2.9375q0 0.734375 0.0625 1.09375q0.078125 0.34375 0.234375 0.515625q0.15625 0.15625 0.40625 0.15625q0.171875 0 0.3125 -0.03125q0.15625 -0.03125 0.3125 -0.109375q0.15625 -0.09375 0.328125 -0.25l0.421875 0.546875zm4.49292 -2.359375l0 2.5l-1.390625 0l0 -2.5l-2.46875 0l0 -1.328125l2.46875 0l0 -2.5l1.390625 0l0 2.5l2.46875 0l0 1.328125l-2.46875 0zm8.472046 1.328125q0 0.375 0.03125 0.578125q0.046875 0.1875 0.15625 0.3125q0.109375 0.109375 0.3125 0.1875q0.203125 0.0625 0.5 0.09375q0.3125 0.03125 0.8125 0.046875l0 0.59375l-5.609375 0l0 -0.59375q0.71875 -0.03125 1.03125 -0.078125q0.3125 -0.0625 0.46875 -0.171875q0.15625 -0.109375 0.234375 -0.3125q0.078125 -0.203125 0.078125 -0.65625l0 -4.703125q0 -0.265625 -0.109375 -0.375q-0.09375 -0.125 -0.265625 -0.125q-0.171875 0 -0.46875 0.15625q-0.28125 0.140625 -0.96875 0.59375l-0.390625 -0.6875l3.390625 -2.03125l0.84375 0q-0.046875 0.625 -0.046875 1.734375l0 5.4375z" fill-rule="nonzero"/><path fill="#000000" fill-opacity="0.0" d="m1198.6089 236.99213l0 -25.000137l120.39172 0l0 58.574936l73.938965 0" fill-rule="evenodd"/><path stroke="#000000" stroke-width="2.0" stroke-linejoin="round" stroke-linecap="butt" d="m1198.6089 236.99213l0 -25.000137l120.39172 0l0 58.574936l61.938965 0" fill-rule="evenodd"/><path fill="#000000" stroke="#000000" stroke-width="2.0" stroke-linecap="butt" d="m1380.9396 273.8704l9.076294 -3.3034668l-9.076294 -3.3034668z" fill-rule="evenodd"/><path fill="#000000" fill-opacity="0.0" d="m1198.6089 236.99213l0 -24.99263l120.59839 0l0 -133.59006" fill-rule="evenodd"/><path stroke="#000000" stroke-width="2.0" stroke-linejoin="round" stroke-linecap="butt" d="m1198.6089 236.99213l0 -24.992645l120.59839 0l0 -121.590034" fill-rule="evenodd"/><path fill="#000000" stroke="#000000" stroke-width="2.0" stroke-linecap="butt" d="m1322.5107 90.40945l-3.3034668 -9.076195l-3.3034668 9.076195z" fill-rule="evenodd"/><path fill="#ffffff" fill-opacity="0.502" d="m2.0 0l463.3071 0l0 518.01575l-463.3071 0z" fill-rule="evenodd"/><path fill="#ffffff" fill-opacity="0.502" d="m1018.4698 0l467.52753 0l0 518.01575l-467.52753 0z" fill-rule="evenodd"/></g></svg>