<svg version="1.1" viewBox="0.0 0.0 688.7060367454068 630.0551181102362" fill="none" stroke="none" stroke-linecap="square" stroke-miterlimit="10" xmlns:xlink="http://www.w3.org/1999/xlink" xmlns="http://www.w3.org/2000/svg"><clipPath id="p.0"><path d="m0 0l688.70605 0l0 630.0551l-688.70605 0l0 -630.0551z" clip-rule="nonzero"/></clipPath><g clip-path="url(#p.0)"><path fill="#000000" fill-opacity="0.0" d="m0 0l688.70605 0l0 630.0551l-688.70605 0z" fill-rule="evenodd"/><path fill="#f3f3f3" d="m7.3543305 6.4803147l671.21265 0l0 615.21265l-671.21265 0z" fill-rule="evenodd"/><path stroke="#000000" stroke-width="1.0" stroke-linejoin="round" stroke-linecap="butt" d="m7.3543305 6.4803147l671.21265 0l0 615.21265l-671.21265 0z" fill-rule="evenodd"/><path fill="#000000" d="m362.12585 356.74802l0 0c0 -17.403473 14.108337 -31.51181 31.51181 -31.51181l0 0c8.357452 0 16.37262 3.3200073 22.282227 9.229614c5.909607 5.909607 9.229584 13.924774 9.229584 22.282196l0 0c0 17.403503 -14.108307 31.51184 -31.51181 31.51184l0 0c-17.403473 0 -31.51181 -14.108337 -31.51181 -31.51184z" fill-rule="evenodd"/><path stroke="#000000" stroke-width="1.0" stroke-linejoin="round" stroke-linecap="butt" d="m362.12585 356.74802l0 0c0 -17.403473 14.108337 -31.51181 31.51181 -31.51181l0 0c8.357452 0 16.37262 3.3200073 22.282227 9.229614c5.909607 5.909607 9.229584 13.924774 9.229584 22.282196l0 0c0 17.403503 -14.108307 31.51184 -31.51181 31.51184l0 0c-17.403473 0 -31.51181 -14.108337 -31.51181 -31.51184z" fill-rule="evenodd"/><path fill="#ffffff" d="m380.2047 349.88678q0 0.3125 -0.5625 0.921875q-0.421875 0.421875 -0.828125 0.84375q-1.015625 1.140625 -1.59375 3.28125q-0.5 1.859375 -0.5 3.65625q0 4.625 2.09375 6.78125q0.421875 0.328125 0.84375 0.65625q0.53125 0.421875 0.53125 0.828125q0 0.296875 -0.234375 0.515625q-0.234375 0.234375 -0.546875 0.234375q-0.265625 0 -0.65625 -0.21875q-3.859375 -2.15625 -3.859375 -9.015625q0 -2.46875 1.0 -5.0q1.109375 -2.8125 2.921875 -4.078125q0.359375 -0.25 0.5625 -0.25q0.328125 0 0.578125 0.265625q0.25 0.25 0.25 0.578125zm10.128998 5.96875l-1.328125 1.25l-1.625 1.609375l2.96875 3.875q0.234375 0.296875 0.234375 0.578125q0 0.359375 -0.28125 0.625q-0.265625 0.28125 -0.625 0.28125q-0.34375 0 -0.625 -0.34375q-0.828125 -0.96875 -2.953125 -3.75l-1.765625 1.828125q-0.546875 0.484375 -1.578125 1.5q-0.28125 0.328125 -0.625 0.328125q-0.34375 0 -0.609375 -0.265625q-0.265625 -0.28125 -0.265625 -0.625q0 -0.296875 0.21875 -0.578125q0.25 -0.34375 0.796875 -0.8125q0.625 -0.5625 0.828125 -0.765625l1.9375 -2.03125l-1.1875 -1.71875q-0.71875 -1.03125 -1.265625 -1.5q-0.34375 -0.3125 -0.34375 -0.6875q0 -0.359375 0.25 -0.640625q0.265625 -0.28125 0.609375 -0.28125q0.53125 0 1.625 1.40625l1.578125 2.171875l1.78125 -1.640625q1.109375 -1.046875 1.5 -1.640625q0.296875 -0.421875 0.6875 -0.421875q0.359375 0 0.625 0.265625q0.28125 0.265625 0.28125 0.609375q0 0.5 -0.84375 1.375zm3.9664917 10.953125q-0.3125 0 -0.5625 -0.25q-0.234375 -0.25 -0.234375 -0.5625q0 -0.265625 0.578125 -1.578125q0.484375 -1.125 0.75 -1.609375q0.234375 -0.4375 0.625 -0.4375q0.328125 0 0.5625 0.25q0.234375 0.25 0.234375 0.578125q0 0.21875 -1.296875 3.109375q-0.203125 0.5 -0.65625 0.5zm11.774475 -11.265625l-3.140625 6.8125q-1.171875 2.484375 -1.796875 4.15625l-0.59375 1.78125q-0.234375 0.65625 -0.828125 0.65625q-0.375 0 -0.65625 -0.265625q-0.28125 -0.25 -0.28125 -0.609375q0 -0.921875 1.96875 -5.28125l-3.25 -6.28125l-0.421875 -0.65625q-0.234375 -0.421875 -0.234375 -0.703125q0 -0.375 0.28125 -0.65625q0.28125 -0.28125 0.640625 -0.28125q0.421875 0 0.65625 0.3125q1.546875 2.15625 3.3125 6.125l1.359375 -3.140625q0.71875 -1.625 1.390625 -2.8125q0.296875 -0.5 0.765625 -0.5q0.375 0 0.65625 0.265625q0.296875 0.25 0.296875 0.625q0 0.203125 -0.125 0.453125zm6.851349 2.828125q0 6.859375 -3.859375 9.015625q-0.375 0.21875 -0.65625 0.21875q-0.3125 0 -0.546875 -0.234375q-0.234375 -0.21875 -0.234375 -0.515625q0 -0.40625 0.53125 -0.828125q0.421875 -0.328125 0.84375 -0.65625q2.09375 -2.15625 2.09375 -6.78125q0 -1.796875 -0.5 -3.65625q-0.578125 -2.140625 -1.578125 -3.28125q-0.421875 -0.421875 -0.828125 -0.84375q-0.578125 -0.609375 -0.578125 -0.921875q0 -0.328125 0.234375 -0.578125q0.25 -0.265625 0.578125 -0.265625q0.21875 0 0.59375 0.25q1.796875 1.265625 2.90625 4.078125q1.0 2.53125 1.0 5.0z" fill-rule="nonzero"/><path fill="#b6d7a8" d="m269.4466 356.74802l0 0c0 -17.403473 14.108307 -31.51181 31.51181 -31.51181l0 0c8.357452 0 16.37262 3.3200073 22.282227 9.229614c5.909607 5.909607 9.229584 13.924774 9.229584 22.282196l0 0c0 17.403503 -14.108307 31.51184 -31.51181 31.51184l0 0c-17.403503 0 -31.51181 -14.108337 -31.51181 -31.51184z" fill-rule="evenodd"/><path stroke="#274e13" stroke-width="1.0" stroke-linejoin="round" stroke-linecap="butt" d="m269.4466 356.74802l0 0c0 -17.403473 14.108307 -31.51181 31.51181 -31.51181l0 0c8.357452 0 16.37262 3.3200073 22.282227 9.229614c5.909607 5.909607 9.229584 13.924774 9.229584 22.282196l0 0c0 17.403503 -14.108307 31.51184 -31.51181 31.51184l0 0c-17.403503 0 -31.51181 -14.108337 -31.51181 -31.51184z" fill-rule="evenodd"/><path fill="#000000" d="m284.05502 350.9999q0 0.25 -0.453125 0.734375q-0.328125 0.328125 -0.640625 0.65625q-0.796875 0.90625 -1.25 2.578125q-0.390625 1.453125 -0.390625 2.859375q0 3.640625 1.640625 5.34375q0.328125 0.25 0.671875 0.515625q0.40625 0.328125 0.40625 0.640625q0 0.234375 -0.1875 0.40625q-0.1875 0.1875 -0.421875 0.1875q-0.21875 0 -0.515625 -0.171875q-3.03125 -1.6875 -3.03125 -7.078125q0 -1.9375 0.78125 -3.9375q0.875 -2.203125 2.296875 -3.203125q0.28125 -0.203125 0.453125 -0.203125q0.25 0 0.4375 0.21875q0.203125 0.203125 0.203125 0.453125zm7.961029 4.6875l-1.046875 0.984375l-1.28125 1.265625l2.328125 3.046875q0.1875 0.234375 0.1875 0.453125q0 0.28125 -0.21875 0.484375q-0.21875 0.21875 -0.484375 0.21875q-0.265625 0 -0.5 -0.265625q-0.65625 -0.765625 -2.3125 -2.9375l-1.390625 1.4375q-0.421875 0.375 -1.234375 1.171875q-0.234375 0.265625 -0.5 0.265625q-0.265625 0 -0.484375 -0.21875q-0.203125 -0.21875 -0.203125 -0.5q0 -0.21875 0.171875 -0.453125q0.203125 -0.265625 0.625 -0.625q0.5 -0.4375 0.65625 -0.609375l1.515625 -1.59375l-0.9375 -1.359375q-0.5625 -0.796875 -0.984375 -1.171875q-0.265625 -0.25 -0.265625 -0.53125q0 -0.28125 0.203125 -0.5q0.203125 -0.234375 0.46875 -0.234375q0.421875 0 1.265625 1.109375l1.25 1.703125l1.390625 -1.28125q0.875 -0.828125 1.1875 -1.296875q0.234375 -0.328125 0.546875 -0.328125q0.28125 0 0.484375 0.203125q0.21875 0.203125 0.21875 0.484375q0 0.390625 -0.65625 1.078125zm5.9332886 2.734375q-0.96875 0.109375 -3.46875 0.109375q-0.59375 0 -0.59375 -0.5625q0 -0.5625 0.59375 -0.5625q0.5625 0 1.6875 -0.046875q1.140625 -0.046875 1.703125 -0.046875q0.640625 0 0.640625 0.5625q0 0.484375 -0.5625 0.546875zm6.2762756 3.40625l-1.421875 0l-1.40625 0q-0.5 0 -0.703125 -0.0625q-0.375 -0.125 -0.375 -0.546875q0 -0.71875 1.125 -0.71875l0.34375 0l0.296875 0.015625q0 -0.34375 -0.0625 -1.015625q-0.0625 -0.671875 -0.0625 -1.0q0 -0.921875 0.171875 -2.765625q0.15625 -1.828125 0.140625 -2.765625q-0.953125 0.734375 -1.21875 0.734375q-0.28125 0 -0.5 -0.203125q-0.203125 -0.21875 -0.203125 -0.5q0 -0.34375 0.609375 -0.8125q0.390625 -0.28125 1.09375 -0.875q0.640625 -0.640625 1.203125 -0.640625q0.484375 0 0.484375 0.546875q0 0.171875 -0.046875 0.5q-0.046875 0.3125 -0.046875 0.484375q0 0.234375 0.03125 0.71875q0.03125 0.46875 0.03125 0.71875q0 0.8125 -0.171875 2.4375q-0.171875 1.609375 -0.171875 2.421875q0 0.40625 0.046875 1.0q0.0625 0.59375 0.0625 0.96875l0.75 0q0.3125 0 0.5 0.203125q0.203125 0.1875 0.203125 0.46875q0 0.3125 -0.203125 0.5q-0.1875 0.1875 -0.5 0.1875zm3.6138 2.46875q-0.25 0 -0.4375 -0.203125q-0.1875 -0.1875 -0.1875 -0.4375q0 -0.203125 0.4375 -1.234375q0.390625 -0.890625 0.59375 -1.265625q0.1875 -0.34375 0.5 -0.34375q0.25 0 0.4375 0.203125q0.1875 0.1875 0.1875 0.4375q0 0.171875 -1.015625 2.453125q-0.171875 0.390625 -0.515625 0.390625zm9.245148 -8.859375l-2.46875 5.359375q-0.921875 1.953125 -1.40625 3.265625l-0.46875 1.390625q-0.1875 0.515625 -0.65625 0.515625q-0.296875 0 -0.515625 -0.203125q-0.21875 -0.1875 -0.21875 -0.484375q0 -0.71875 1.546875 -4.140625l-2.5625 -4.9375l-0.3125 -0.515625q-0.203125 -0.328125 -0.203125 -0.546875q0 -0.296875 0.21875 -0.515625q0.234375 -0.21875 0.515625 -0.21875q0.328125 0 0.5 0.25q1.21875 1.6875 2.625 4.796875l1.046875 -2.46875q0.578125 -1.28125 1.109375 -2.203125q0.234375 -0.390625 0.59375 -0.390625q0.296875 0 0.515625 0.203125q0.234375 0.203125 0.234375 0.5q0 0.15625 -0.09375 0.34375zm5.3786926 2.234375q0 5.390625 -3.03125 7.078125q-0.296875 0.171875 -0.515625 0.171875q-0.25 0 -0.4375 -0.1875q-0.171875 -0.171875 -0.171875 -0.40625q0 -0.3125 0.40625 -0.640625q0.328125 -0.265625 0.671875 -0.515625q1.640625 -1.703125 1.640625 -5.34375q0 -1.40625 -0.390625 -2.859375q-0.453125 -1.671875 -1.25 -2.578125q-0.328125 -0.328125 -0.640625 -0.65625q-0.453125 -0.484375 -0.453125 -0.734375q0 -0.25 0.1875 -0.453125q0.1875 -0.21875 0.453125 -0.21875q0.171875 0 0.453125 0.203125q1.421875 1.0 2.296875 3.203125q0.78125 2.0 0.78125 3.9375z" fill-rule="nonzero"/><path fill="#b6d7a8" d="m362.12585 269.61206l0 0c0 -17.403473 14.108337 -31.511795 31.51181 -31.511795l0 0c8.357452 0 16.37262 3.3199768 22.282227 9.229599c5.909607 5.909607 9.229584 13.924744 9.229584 22.282196l0 0c0 17.403503 -14.108307 31.51181 -31.51181 31.51181l0 0c-17.403473 0 -31.51181 -14.108307 -31.51181 -31.51181z" fill-rule="evenodd"/><path stroke="#274e13" stroke-width="1.0" stroke-linejoin="round" stroke-linecap="butt" d="m362.12585 269.61206l0 0c0 -17.403473 14.108337 -31.511795 31.51181 -31.511795l0 0c8.357452 0 16.37262 3.3199768 22.282227 9.229599c5.909607 5.909607 9.229584 13.924744 9.229584 22.282196l0 0c0 17.403503 -14.108307 31.51181 -31.51181 31.51181l0 0c-17.403473 0 -31.51181 -14.108307 -31.51181 -31.51181z" fill-rule="evenodd"/><path fill="#000000" d="m376.73428 263.86395q0 0.25 -0.453125 0.734375q-0.328125 0.328125 -0.640625 0.65625q-0.796875 0.90625 -1.25 2.578125q-0.390625 1.453125 -0.390625 2.859375q0 3.640625 1.640625 5.34375q0.328125 0.25 0.671875 0.515625q0.40625 0.328125 0.40625 0.640625q0 0.234375 -0.1875 0.40625q-0.1875 0.1875 -0.421875 0.1875q-0.21875 0 -0.515625 -0.171875q-3.03125 -1.6875 -3.03125 -7.078125q0 -1.9375 0.78125 -3.9375q0.875 -2.203125 2.296875 -3.203125q0.28125 -0.203125 0.453125 -0.203125q0.25 0 0.4375 0.21875q0.203125 0.203125 0.203125 0.453125zm7.961029 4.6875l-1.046875 0.984375l-1.28125 1.265625l2.328125 3.046875q0.1875 0.234375 0.1875 0.453125q0 0.28125 -0.21875 0.484375q-0.21875 0.21875 -0.484375 0.21875q-0.265625 0 -0.5 -0.265625q-0.65625 -0.765625 -2.3125 -2.9375l-1.390625 1.4375q-0.421875 0.375 -1.234375 1.171875q-0.234375 0.265625 -0.5 0.265625q-0.265625 0 -0.484375 -0.21875q-0.203125 -0.21875 -0.203125 -0.5q0 -0.21875 0.171875 -0.453125q0.203125 -0.265625 0.625 -0.625q0.5 -0.4375 0.65625 -0.609375l1.515625 -1.59375l-0.9375 -1.359375q-0.5625 -0.796875 -0.984375 -1.171875q-0.265625 -0.25 -0.265625 -0.53125q0 -0.28125 0.203125 -0.5q0.203125 -0.234375 0.46875 -0.234375q0.421875 0 1.265625 1.109375l1.25 1.703125l1.390625 -1.28125q0.875 -0.828125 1.1875 -1.296875q0.234375 -0.328125 0.546875 -0.328125q0.28125 0 0.484375 0.203125q0.21875 0.203125 0.21875 0.484375q0 0.390625 -0.65625 1.078125zm3.120819 8.609375q-0.25 0 -0.4375 -0.203125q-0.1875 -0.1875 -0.1875 -0.4375q0 -0.203125 0.4375 -1.234375q0.390625 -0.890625 0.59375 -1.265625q0.1875 -0.34375 0.5 -0.34375q0.25 0 0.4375 0.203125q0.1875 0.1875 0.1875 0.4375q0 0.171875 -1.015625 2.453125q-0.171875 0.390625 -0.515625 0.390625zm9.245148 -8.859375l-2.46875 5.359375q-0.921875 1.953125 -1.40625 3.265625l-0.46875 1.390625q-0.1875 0.515625 -0.65625 0.515625q-0.296875 0 -0.515625 -0.203125q-0.21875 -0.1875 -0.21875 -0.484375q0 -0.71875 1.546875 -4.140625l-2.5625 -4.9375l-0.3125 -0.515625q-0.203125 -0.328125 -0.203125 -0.546875q0 -0.296875 0.21875 -0.515625q0.234375 -0.21875 0.515625 -0.21875q0.328125 0 0.5 0.25q1.21875 1.6875 2.625 4.796875l1.046875 -2.46875q0.578125 -1.28125 1.109375 -2.203125q0.234375 -0.390625 0.59375 -0.390625q0.296875 0 0.515625 0.203125q0.234375 0.203125 0.234375 0.5q0 0.15625 -0.09375 0.34375zm5.2536926 2.984375q-0.96875 0.109375 -3.46875 0.109375q-0.59375 0 -0.59375 -0.5625q0 -0.5625 0.59375 -0.5625q0.5625 0 1.6875 -0.046875q1.140625 -0.046875 1.703125 -0.046875q0.640625 0 0.640625 0.5625q0 0.484375 -0.5625 0.546875zm6.2762756 3.40625l-1.421875 0l-1.40625 0q-0.5 0 -0.703125 -0.0625q-0.375 -0.125 -0.375 -0.546875q0 -0.71875 1.125 -0.71875l0.34375 0l0.296875 0.015625q0 -0.34375 -0.0625 -1.015625q-0.0625 -0.671875 -0.0625 -1.0q0 -0.921875 0.171875 -2.765625q0.15625 -1.828125 0.140625 -2.765625q-0.953125 0.734375 -1.21875 0.734375q-0.28125 0 -0.5 -0.203125q-0.203125 -0.21875 -0.203125 -0.5q0 -0.34375 0.609375 -0.8125q0.390625 -0.28125 1.09375 -0.875q0.640625 -0.640625 1.203125 -0.640625q0.484375 0 0.484375 0.546875q0 0.171875 -0.046875 0.5q-0.046875 0.3125 -0.046875 0.484375q0 0.234375 0.03125 0.71875q0.03125 0.46875 0.03125 0.71875q0 0.8125 -0.171875 2.4375q-0.171875 1.609375 -0.171875 2.421875q0 0.40625 0.046875 1.0q0.0625 0.59375 0.0625 0.96875l0.75 0q0.3125 0 0.5 0.203125q0.203125 0.1875 0.203125 0.46875q0 0.3125 -0.203125 0.5q-0.1875 0.1875 -0.5 0.1875zm6.5513 -4.15625q0 5.390625 -3.03125 7.078125q-0.296875 0.171875 -0.515625 0.171875q-0.25 0 -0.4375 -0.1875q-0.171875 -0.171875 -0.171875 -0.40625q0 -0.3125 0.40625 -0.640625q0.328125 -0.265625 0.671875 -0.515625q1.640625 -1.703125 1.640625 -5.34375q0 -1.40625 -0.390625 -2.859375q-0.453125 -1.671875 -1.25 -2.578125q-0.328125 -0.328125 -0.640625 -0.65625q-0.453125 -0.484375 -0.453125 -0.734375q0 -0.25 0.1875 -0.453125q0.1875 -0.21875 0.453125 -0.21875q0.171875 0 0.453125 0.203125q1.421875 1.0 2.296875 3.203125q0.78125 2.0 0.78125 3.9375z" fill-rule="nonzero"/><path fill="#b6d7a8" d="m28.556309 356.74802l0 0c0 -17.403473 14.108318 -31.51181 31.51181 -31.51181l0 0c8.357449 0 16.372608 3.3200073 22.282215 9.229614c5.9096146 5.909607 9.229599 13.924774 9.229599 22.282196l0 0c0 17.403503 -14.108322 31.51184 -31.511814 31.51184l0 0c-17.403492 0 -31.51181 -14.108337 -31.51181 -31.51184z" fill-rule="evenodd"/><path stroke="#274e13" stroke-width="1.0" stroke-linejoin="round" stroke-linecap="butt" d="m28.556309 356.74802l0 0c0 -17.403473 14.108318 -31.51181 31.51181 -31.51181l0 0c8.357449 0 16.372608 3.3200073 22.282215 9.229614c5.9096146 5.909607 9.229599 13.924774 9.229599 22.282196l0 0c0 17.403503 -14.108322 31.51184 -31.511814 31.51184l0 0c-17.403492 0 -31.51181 -14.108337 -31.51181 -31.51184z" fill-rule="evenodd"/><path fill="#000000" d="m50.54295 350.9999q0 0.25 -0.453125 0.734375q-0.328125 0.328125 -0.640625 0.65625q-0.796875 0.90625 -1.25 2.578125q-0.390625 1.453125 -0.390625 2.859375q0 3.640625 1.640625 5.34375q0.328125 0.25 0.671875 0.515625q0.40625 0.328125 0.40625 0.640625q0 0.234375 -0.1875 0.40625q-0.1875 0.1875 -0.421875 0.1875q-0.21875 0 -0.515625 -0.171875q-3.03125 -1.6875 -3.03125 -7.078125q0 -1.9375 0.78125 -3.9375q0.875 -2.203125 2.296875 -3.203125q0.28125 -0.203125 0.453125 -0.203125q0.25 0 0.4375 0.21875q0.203125 0.203125 0.203125 0.453125zm5.414154 10.828125l-1.421875 0l-1.40625 0q-0.5 0 -0.703125 -0.0625q-0.375 -0.125 -0.375 -0.546875q0 -0.71875 1.125 -0.71875l0.34375 0l0.296875 0.015625q0 -0.34375 -0.0625 -1.015625q-0.0625 -0.671875 -0.0625 -1.0q0 -0.921875 0.171875 -2.765625q0.15625 -1.828125 0.140625 -2.765625q-0.953125 0.734375 -1.21875 0.734375q-0.28125 0 -0.5 -0.203125q-0.203125 -0.21875 -0.203125 -0.5q0 -0.34375 0.609375 -0.8125q0.390625 -0.28125 1.09375 -0.875q0.640625 -0.640625 1.203125 -0.640625q0.484375 0 0.484375 0.546875q0 0.171875 -0.046875 0.5q-0.046875 0.3125 -0.046875 0.484375q0 0.234375 0.03125 0.71875q0.03125 0.46875 0.03125 0.71875q0 0.8125 -0.171875 2.4375q-0.171875 1.609375 -0.171875 2.421875q0 0.40625 0.046875 1.0q0.0625 0.59375 0.0625 0.96875l0.75 0q0.3125 0 0.5 0.203125q0.203125 0.1875 0.203125 0.46875q0 0.3125 -0.203125 0.5q-0.1875 0.1875 -0.5 0.1875zm3.6138 2.46875q-0.25 0 -0.4375 -0.203125q-0.1875 -0.1875 -0.1875 -0.4375q0 -0.203125 0.4375 -1.234375q0.390625 -0.890625 0.59375 -1.265625q0.1875 -0.34375 0.5 -0.34375q0.25 0 0.4375 0.203125q0.1875 0.1875 0.1875 0.4375q0 0.171875 -1.015625 2.453125q-0.171875 0.390625 -0.515625 0.390625zm9.245167 -8.859375l-2.46875 5.359375q-0.921875 1.953125 -1.40625 3.265625l-0.46875 1.390625q-0.1875 0.515625 -0.6562538 0.515625q-0.296875 0 -0.515625 -0.203125q-0.21875 -0.1875 -0.21875 -0.484375q0 -0.71875 1.5468788 -4.140625l-2.5625038 -4.9375l-0.3125 -0.515625q-0.203125 -0.328125 -0.203125 -0.546875q0 -0.296875 0.21875 -0.515625q0.234375 -0.21875 0.515625 -0.21875q0.328125 0 0.5 0.25q1.2187538 1.6875 2.6250038 4.796875l1.046875 -2.46875q0.578125 -1.28125 1.109375 -2.203125q0.234375 -0.390625 0.59375 -0.390625q0.296875 0 0.515625 0.203125q0.234375 0.203125 0.234375 0.5q0 0.15625 -0.09375 0.34375zm5.3786926 2.234375q0 5.390625 -3.03125 7.078125q-0.296875 0.171875 -0.515625 0.171875q-0.25 0 -0.4375 -0.1875q-0.171875 -0.171875 -0.171875 -0.40625q0 -0.3125 0.40625 -0.640625q0.328125 -0.265625 0.671875 -0.515625q1.640625 -1.703125 1.640625 -5.34375q0 -1.40625 -0.390625 -2.859375q-0.453125 -1.671875 -1.25 -2.578125q-0.328125 -0.328125 -0.640625 -0.65625q-0.453125 -0.484375 -0.453125 -0.734375q0 -0.25 0.1875 -0.453125q0.1875 -0.21875 0.453125 -0.21875q0.171875 0 0.453125 0.203125q1.421875 1.0 2.296875 3.203125q0.78125 2.0 0.78125 3.9375z" fill-rule="nonzero"/><path fill="#d9ead3" d="m121.23557 356.74802l0 0c0 -5.2358093 4.420746 -9.480286 9.874016 -9.480286l0 0c2.6187592 0 5.130249 0.9988098 6.9819794 2.776703c1.8517456 1.7778931 2.892044 4.18927 2.892044 6.703583l0 0c0 5.23584 -4.420761 9.480316 -9.874023 9.480316l0 0c-5.45327 0 -9.874016 -4.2444763 -9.874016 -9.480316z" fill-rule="evenodd"/><path stroke="#274e13" stroke-width="1.0" stroke-linejoin="round" stroke-linecap="butt" d="m121.23557 356.74802l0 0c0 -5.2358093 4.420746 -9.480286 9.874016 -9.480286l0 0c2.6187592 0 5.130249 0.9988098 6.9819794 2.776703c1.8517456 1.7778931 2.892044 4.18927 2.892044 6.703583l0 0c0 5.23584 -4.420761 9.480316 -9.874023 9.480316l0 0c-5.45327 0 -9.874016 -4.2444763 -9.874016 -9.480316z" fill-rule="evenodd"/><path fill="#d9ead3" d="m170.63925 356.74802l0 0c0 -5.2358093 4.420746 -9.480286 9.874008 -9.480286l0 0c2.6187592 0 5.130249 0.9988098 6.9819946 2.776703c1.8517303 1.7778931 2.8920288 4.18927 2.8920288 6.703583l0 0c0 5.23584 -4.420746 9.480316 -9.874023 9.480316l0 0c-5.4532623 0 -9.874008 -4.2444763 -9.874008 -9.480316z" fill-rule="evenodd"/><path stroke="#274e13" stroke-width="1.0" stroke-linejoin="round" stroke-linecap="butt" d="m170.63925 356.74802l0 0c0 -5.2358093 4.420746 -9.480286 9.874008 -9.480286l0 0c2.6187592 0 5.130249 0.9988098 6.9819946 2.776703c1.8517303 1.7778931 2.8920288 4.18927 2.8920288 6.703583l0 0c0 5.23584 -4.420746 9.480316 -9.874023 9.480316l0 0c-5.4532623 0 -9.874008 -4.2444763 -9.874008 -9.480316z" fill-rule="evenodd"/><path fill="#d9ead3" d="m220.04292 356.74802l0 0c0 -5.2358093 4.420746 -9.480286 9.874008 -9.480286l0 0c2.6187592 0 5.130249 0.9988098 6.9819946 2.776703c1.8517303 1.7778931 2.8920288 4.18927 2.8920288 6.703583l0 0c0 5.23584 -4.420746 9.480316 -9.874023 9.480316l0 0c-5.4532623 0 -9.874008 -4.2444763 -9.874008 -9.480316z" fill-rule="evenodd"/><path stroke="#274e13" stroke-width="1.0" stroke-linejoin="round" stroke-linecap="butt" d="m220.04292 356.74802l0 0c0 -5.2358093 4.420746 -9.480286 9.874008 -9.480286l0 0c2.6187592 0 5.130249 0.9988098 6.9819946 2.776703c1.8517303 1.7778931 2.8920288 4.18927 2.8920288 6.703583l0 0c0 5.23584 -4.420746 9.480316 -9.874023 9.480316l0 0c-5.4532623 0 -9.874008 -4.2444763 -9.874008 -9.480316z" fill-rule="evenodd"/><path fill="#b6d7a8" d="m362.12585 50.89501l0 0c0 -17.403492 14.108337 -31.51181 31.51181 -31.51181l0 0c8.357452 0 16.37262 3.3199844 22.282227 9.229597c5.909607 5.909609 9.229584 13.924761 9.229584 22.282213l0 0c0 17.403496 -14.108307 31.51181 -31.51181 31.51181l0 0c-17.403473 0 -31.51181 -14.1083145 -31.51181 -31.51181z" fill-rule="evenodd"/><path stroke="#274e13" stroke-width="1.0" stroke-linejoin="round" stroke-linecap="butt" d="m362.12585 50.89501l0 0c0 -17.403492 14.108337 -31.51181 31.51181 -31.51181l0 0c8.357452 0 16.37262 3.3199844 22.282227 9.229597c5.909607 5.909609 9.229584 13.924761 9.229584 22.282213l0 0c0 17.403496 -14.108307 31.51181 -31.51181 31.51181l0 0c-17.403473 0 -31.51181 -14.1083145 -31.51181 -31.51181z" fill-rule="evenodd"/><path fill="#000000" d="m383.60083 45.14689q0 0.25 -0.453125 0.734375q-0.328125 0.328125 -0.640625 0.65625q-0.796875 0.90625 -1.25 2.578125q-0.390625 1.453125 -0.390625 2.859375q0 3.640625 1.640625 5.34375q0.328125 0.25 0.671875 0.515625q0.40625 0.328125 0.40625 0.640625q0 0.234375 -0.1875 0.40625q-0.1875 0.1875 -0.421875 0.1875q-0.21875 0 -0.515625 -0.171875q-3.03125 -1.6875 -3.03125 -7.078125q0 -1.9375 0.78125 -3.9375q0.875 -2.203125 2.296875 -3.203125q0.28125 -0.203125 0.453125 -0.203125q0.25 0 0.4375 0.21875q0.203125 0.203125 0.203125 0.453125zm7.961029 4.6875l-1.046875 0.984375l-1.28125 1.265625l2.328125 3.046875q0.1875 0.234375 0.1875 0.453125q0 0.28125 -0.21875 0.484375q-0.21875 0.21875 -0.484375 0.21875q-0.265625 0 -0.5 -0.265625q-0.65625 -0.765625 -2.3125 -2.9375l-1.390625 1.4375q-0.421875 0.375 -1.234375 1.171875q-0.234375 0.265625 -0.5 0.265625q-0.265625 0 -0.484375 -0.21875q-0.203125 -0.21875 -0.203125 -0.5q0 -0.21875 0.171875 -0.453125q0.203125 -0.265625 0.625 -0.625q0.5 -0.4375 0.65625 -0.609375l1.515625 -1.59375l-0.9375 -1.359375q-0.5625 -0.796875 -0.984375 -1.171875q-0.265625 -0.25 -0.265625 -0.53125q0 -0.28125 0.203125 -0.5q0.203125 -0.234375 0.46875 -0.234375q0.421875 0 1.265625 1.109375l1.25 1.703125l1.390625 -1.28125q0.875 -0.828125 1.1875 -1.296875q0.234375 -0.328125 0.546875 -0.328125q0.28125 0 0.484375 0.203125q0.21875 0.203125 0.21875 0.484375q0 0.390625 -0.65625 1.078125zm3.1207886 8.609375q-0.25 0 -0.4375 -0.203125q-0.1875 -0.1875 -0.1875 -0.4375q0 -0.203125 0.4375 -1.234375q0.390625 -0.890625 0.59375 -1.265625q0.1875 -0.34375 0.5 -0.34375q0.25 0 0.4375 0.203125q0.1875 0.1875 0.1875 0.4375q0 0.171875 -1.015625 2.453125q-0.171875 0.390625 -0.515625 0.390625zm7.042053 -2.46875l-1.421875 0l-1.40625 0q-0.5 0 -0.703125 -0.0625q-0.375 -0.125 -0.375 -0.546875q0 -0.71875 1.125 -0.71875l0.34375 0l0.296875 0.015625q0 -0.34375 -0.0625 -1.015625q-0.0625 -0.671875 -0.0625 -1.0q0 -0.921875 0.171875 -2.765625q0.15625 -1.828125 0.140625 -2.765625q-0.953125 0.734375 -1.21875 0.734375q-0.28125 0 -0.5 -0.203125q-0.203125 -0.21875 -0.203125 -0.5q0 -0.34375 0.609375 -0.8125q0.390625 -0.28125 1.09375 -0.875q0.640625 -0.640625 1.203125 -0.640625q0.484375 0 0.484375 0.546875q0 0.171875 -0.046875 0.5q-0.046875 0.3125 -0.046875 0.484375q0 0.234375 0.03125 0.71875q0.03125 0.46875 0.03125 0.71875q0 0.8125 -0.171875 2.4375q-0.171875 1.609375 -0.171875 2.421875q0 0.40625 0.046875 1.0q0.0625 0.59375 0.0625 0.96875l0.75 0q0.3125 0 0.5 0.203125q0.203125 0.1875 0.203125 0.46875q0 0.3125 -0.203125 0.5q-0.1875 0.1875 -0.5 0.1875zm6.5513 -4.15625q0 5.390625 -3.03125 7.078125q-0.296875 0.171875 -0.515625 0.171875q-0.25 0 -0.4375 -0.1875q-0.171875 -0.171875 -0.171875 -0.40625q0 -0.3125 0.40625 -0.640625q0.328125 -0.265625 0.671875 -0.515625q1.640625 -1.703125 1.640625 -5.34375q0 -1.40625 -0.390625 -2.859375q-0.453125 -1.671875 -1.25 -2.578125q-0.328125 -0.328125 -0.640625 -0.65625q-0.453125 -0.484375 -0.453125 -0.734375q0 -0.25 0.1875 -0.453125q0.1875 -0.21875 0.453125 -0.21875q0.171875 0 0.453125 0.203125q1.421875 1.0 2.296875 3.203125q0.78125 2.0 0.78125 3.9375z" fill-rule="nonzero"/><path fill="#d9ead3" d="m393.63766 106.51916l0 0c5.23584 0 9.480316 4.4207535 9.480316 9.874016l0 0c0 2.6187515 -0.9988098 5.130249 -2.776703 6.981987c-1.7779236 1.851738 -4.18927 2.8920288 -6.7036133 2.8920288l0 0c-5.23584 0 -9.480316 -4.420746 -9.480316 -9.874016l0 0c0 -5.4532623 4.2444763 -9.874016 9.480316 -9.874016z" fill-rule="evenodd"/><path stroke="#274e13" stroke-width="1.0" stroke-linejoin="round" stroke-linecap="butt" d="m393.63766 106.51916l0 0c5.23584 0 9.480316 4.4207535 9.480316 9.874016l0 0c0 2.6187515 -0.9988098 5.130249 -2.776703 6.981987c-1.7779236 1.851738 -4.18927 2.8920288 -6.7036133 2.8920288l0 0c-5.23584 0 -9.480316 -4.420746 -9.480316 -9.874016l0 0c0 -5.4532623 4.2444763 -9.874016 9.480316 -9.874016z" fill-rule="evenodd"/><path fill="#d9ead3" d="m393.63766 150.37953l0 0c5.23584 0 9.480316 4.420746 9.480316 9.874008l0 0c0 2.6187592 -0.9988098 5.130249 -2.776703 6.9819794c-1.7779236 1.8517456 -4.18927 2.892044 -6.7036133 2.892044l0 0c-5.23584 0 -9.480316 -4.420746 -9.480316 -9.874023l0 0c0 -5.4532623 4.2444763 -9.874008 9.480316 -9.874008z" fill-rule="evenodd"/><path stroke="#274e13" stroke-width="1.0" stroke-linejoin="round" stroke-linecap="butt" d="m393.63766 150.37953l0 0c5.23584 0 9.480316 4.420746 9.480316 9.874008l0 0c0 2.6187592 -0.9988098 5.130249 -2.776703 6.9819794c-1.7779236 1.8517456 -4.18927 2.892044 -6.7036133 2.892044l0 0c-5.23584 0 -9.480316 -4.420746 -9.480316 -9.874023l0 0c0 -5.4532623 4.2444763 -9.874008 9.480316 -9.874008z" fill-rule="evenodd"/><path fill="#d9ead3" d="m393.63766 194.2399l0 0c5.23584 0 9.480316 4.420746 9.480316 9.874008l0 0c0 2.6187592 -0.9988098 5.130249 -2.776703 6.9819946c-1.7779236 1.8517303 -4.18927 2.8920288 -6.7036133 2.8920288l0 0c-5.23584 0 -9.480316 -4.420746 -9.480316 -9.874023l0 0c0 -5.4532623 4.2444763 -9.874008 9.480316 -9.874008z" fill-rule="evenodd"/><path stroke="#274e13" stroke-width="1.0" stroke-linejoin="round" stroke-linecap="butt" d="m393.63766 194.2399l0 0c5.23584 0 9.480316 4.420746 9.480316 9.874008l0 0c0 2.6187592 -0.9988098 5.130249 -2.776703 6.9819946c-1.7779236 1.8517303 -4.18927 2.8920288 -6.7036133 2.8920288l0 0c-5.23584 0 -9.480316 -4.420746 -9.480316 -9.874023l0 0c0 -5.4532623 4.2444763 -9.874008 9.480316 -9.874008z" fill-rule="evenodd"/><path fill="#b6d7a8" d="m28.556309 50.89501l0 0c0 -17.403492 14.108318 -31.51181 31.51181 -31.51181l0 0c8.357449 0 16.372608 3.3199844 22.282215 9.229597c5.9096146 5.909609 9.229599 13.924761 9.229599 22.282213l0 0c0 17.403496 -14.108322 31.51181 -31.511814 31.51181l0 0c-17.403492 0 -31.51181 -14.1083145 -31.51181 -31.51181z" fill-rule="evenodd"/><path stroke="#274e13" stroke-width="1.0" stroke-linejoin="round" stroke-linecap="butt" d="m28.556309 50.89501l0 0c0 -17.403492 14.108318 -31.51181 31.51181 -31.51181l0 0c8.357449 0 16.372608 3.3199844 22.282215 9.229597c5.9096146 5.909609 9.229599 13.924761 9.229599 22.282213l0 0c0 17.403496 -14.108322 31.51181 -31.511814 31.51181l0 0c-17.403492 0 -31.51181 -14.1083145 -31.51181 -31.51181z" fill-rule="evenodd"/><path fill="#000000" d="m51.05821 45.14689q0 0.25 -0.453125 0.734375q-0.328125 0.328125 -0.640625 0.65625q-0.796875 0.90625 -1.25 2.578125q-0.390625 1.453125 -0.390625 2.859375q0 3.640625 1.640625 5.34375q0.328125 0.25 0.671875 0.515625q0.40625 0.328125 0.40625 0.640625q0 0.234375 -0.1875 0.40625q-0.1875 0.1875 -0.421875 0.1875q-0.21875 0 -0.515625 -0.171875q-3.03125 -1.6875 -3.03125 -7.078125q0 -1.9375 0.78125 -3.9375q0.875 -2.203125 2.296875 -3.203125q0.28125 -0.203125 0.453125 -0.203125q0.25 0 0.4375 0.21875q0.203125 0.203125 0.203125 0.453125zm5.414154 10.828125l-1.421875 0l-1.40625 0q-0.5 0 -0.703125 -0.0625q-0.375 -0.125 -0.375 -0.546875q0 -0.71875 1.125 -0.71875l0.34375 0l0.296875 0.015625q0 -0.34375 -0.0625 -1.015625q-0.0625 -0.671875 -0.0625 -1.0q0 -0.921875 0.171875 -2.765625q0.15625 -1.828125 0.140625 -2.765625q-0.953125 0.734375 -1.21875 0.734375q-0.28125 0 -0.5 -0.203125q-0.203125 -0.21875 -0.203125 -0.5q0 -0.34375 0.609375 -0.8125q0.390625 -0.28125 1.09375 -0.875q0.640625 -0.640625 1.203125 -0.640625q0.484375 0 0.484375 0.546875q0 0.171875 -0.046875 0.5q-0.046875 0.3125 -0.046875 0.484375q0 0.234375 0.03125 0.71875q0.03125 0.46875 0.03125 0.71875q0 0.8125 -0.171875 2.4375q-0.171875 1.609375 -0.171875 2.421875q0 0.40625 0.046875 1.0q0.0625 0.59375 0.0625 0.96875l0.75 0q0.3125 0 0.5 0.203125q0.203125 0.1875 0.203125 0.46875q0 0.3125 -0.203125 0.5q-0.1875 0.1875 -0.5 0.1875zm3.6138 2.46875q-0.25 0 -0.4375 -0.203125q-0.1875 -0.1875 -0.1875 -0.4375q0 -0.203125 0.4375 -1.234375q0.390625 -0.890625 0.59375 -1.265625q0.1875 -0.34375 0.5 -0.34375q0.25 0 0.4375 0.203125q0.1875 0.1875 0.1875 0.4375q0 0.171875 -1.015625 2.453125q-0.171875 0.390625 -0.515625 0.390625zm7.042042 -2.46875l-1.421875 0l-1.40625 0q-0.5000038 0 -0.7031288 -0.0625q-0.375 -0.125 -0.375 -0.546875q0 -0.71875 1.1250038 -0.71875l0.34375 0l0.296875 0.015625q0 -0.34375 -0.0625 -1.015625q-0.0625 -0.671875 -0.0625 -1.0q0 -0.921875 0.171875 -2.765625q0.15625 -1.828125 0.140625 -2.765625q-0.953125 0.734375 -1.2187538 0.734375q-0.28125 0 -0.5 -0.203125q-0.203125 -0.21875 -0.203125 -0.5q0 -0.34375 0.609375 -0.8125q0.3906288 -0.28125 1.0937538 -0.875q0.640625 -0.640625 1.203125 -0.640625q0.484375 0 0.484375 0.546875q0 0.171875 -0.046875 0.5q-0.046875 0.3125 -0.046875 0.484375q0 0.234375 0.03125 0.71875q0.03125 0.46875 0.03125 0.71875q0 0.8125 -0.171875 2.4375q-0.171875 1.609375 -0.171875 2.421875q0 0.40625 0.046875 1.0q0.0625 0.59375 0.0625 0.96875l0.75 0q0.3125 0 0.5 0.203125q0.203125 0.1875 0.203125 0.46875q0 0.3125 -0.203125 0.5q-0.1875 0.1875 -0.5 0.1875zm6.5513 -4.15625q0 5.390625 -3.03125 7.078125q-0.296875 0.171875 -0.515625 0.171875q-0.25 0 -0.4375 -0.1875q-0.171875 -0.171875 -0.171875 -0.40625q0 -0.3125 0.40625 -0.640625q0.328125 -0.265625 0.671875 -0.515625q1.640625 -1.703125 1.640625 -5.34375q0 -1.40625 -0.390625 -2.859375q-0.453125 -1.671875 -1.25 -2.578125q-0.328125 -0.328125 -0.640625 -0.65625q-0.453125 -0.484375 -0.453125 -0.734375q0 -0.25 0.1875 -0.453125q0.1875 -0.21875 0.453125 -0.21875q0.171875 0 0.453125 0.203125q1.421875 1.0 2.296875 3.203125q0.78125 2.0 0.78125 3.9375z" fill-rule="nonzero"/><path fill="#d9ead3" d="m163.43242 50.89501l0 0c0 -5.235832 4.420746 -9.480312 9.874023 -9.480312l0 0c2.618744 0 5.130249 0.9988136 6.9819794 2.7767181c1.8517456 1.7779045 2.8920288 4.1892586 2.8920288 6.703594l0 0c0 5.235836 -4.420746 9.480316 -9.874008 9.480316l0 0c-5.4532776 0 -9.874023 -4.24448 -9.874023 -9.480316z" fill-rule="evenodd"/><path stroke="#274e13" stroke-width="1.0" stroke-linejoin="round" stroke-linecap="butt" d="m163.43242 50.89501l0 0c0 -5.235832 4.420746 -9.480312 9.874023 -9.480312l0 0c2.618744 0 5.130249 0.9988136 6.9819794 2.7767181c1.8517456 1.7779045 2.8920288 4.1892586 2.8920288 6.703594l0 0c0 5.235836 -4.420746 9.480316 -9.874008 9.480316l0 0c-5.4532776 0 -9.874023 -4.24448 -9.874023 -9.480316z" fill-rule="evenodd"/><path fill="#d9ead3" d="m212.8361 50.89501l0 0c0 -5.235832 4.420746 -9.480312 9.874008 -9.480312l0 0c2.6187592 0 5.130249 0.9988136 6.9819794 2.7767181c1.8517456 1.7779045 2.892044 4.1892586 2.892044 6.703594l0 0c0 5.235836 -4.420761 9.480316 -9.874023 9.480316l0 0c-5.4532623 0 -9.874008 -4.24448 -9.874008 -9.480316z" fill-rule="evenodd"/><path stroke="#274e13" stroke-width="1.0" stroke-linejoin="round" stroke-linecap="butt" d="m212.8361 50.89501l0 0c0 -5.235832 4.420746 -9.480312 9.874008 -9.480312l0 0c2.6187592 0 5.130249 0.9988136 6.9819794 2.7767181c1.8517456 1.7779045 2.892044 4.1892586 2.892044 6.703594l0 0c0 5.235836 -4.420761 9.480316 -9.874023 9.480316l0 0c-5.4532623 0 -9.874008 -4.24448 -9.874008 -9.480316z" fill-rule="evenodd"/><path fill="#d9ead3" d="m262.23978 50.89501l0 0c0 -5.235832 4.420746 -9.480312 9.874023 -9.480312l0 0c2.618744 0 5.130249 0.9988136 6.981964 2.7767181c1.8517456 1.7779045 2.8920288 4.1892586 2.8920288 6.703594l0 0c0 5.235836 -4.420746 9.480316 -9.873993 9.480316l0 0c-5.4532776 0 -9.874023 -4.24448 -9.874023 -9.480316z" fill-rule="evenodd"/><path stroke="#274e13" stroke-width="1.0" stroke-linejoin="round" stroke-linecap="butt" d="m262.23978 50.89501l0 0c0 -5.235832 4.420746 -9.480312 9.874023 -9.480312l0 0c2.618744 0 5.130249 0.9988136 6.981964 2.7767181c1.8517456 1.7779045 2.8920288 4.1892586 2.8920288 6.703594l0 0c0 5.235836 -4.420746 9.480316 -9.873993 9.480316l0 0c-5.4532776 0 -9.874023 -4.24448 -9.874023 -9.480316z" fill-rule="evenodd"/><path fill="#d9ead3" d="m60.06812 134.26457l0 0c5.235836 0 9.480312 4.420746 9.480312 9.874008l0 0c0 2.6187592 -0.9988098 5.130249 -2.7767181 6.9819794c-1.7779007 1.8517456 -4.1892586 2.892044 -6.703594 2.892044l0 0c-5.235832 0 -9.480316 -4.420746 -9.480316 -9.874023l0 0c0 -5.4532623 4.244484 -9.874008 9.480316 -9.874008z" fill-rule="evenodd"/><path stroke="#274e13" stroke-width="1.0" stroke-linejoin="round" stroke-linecap="butt" d="m60.06812 134.26457l0 0c5.235836 0 9.480312 4.420746 9.480312 9.874008l0 0c0 2.6187592 -0.9988098 5.130249 -2.7767181 6.9819794c-1.7779007 1.8517456 -4.1892586 2.892044 -6.703594 2.892044l0 0c-5.235832 0 -9.480316 -4.420746 -9.480316 -9.874023l0 0c0 -5.4532623 4.244484 -9.874008 9.480316 -9.874008z" fill-rule="evenodd"/><path fill="#d9ead3" d="m60.06812 178.12494l0 0c5.235836 0 9.480312 4.420746 9.480312 9.874008l0 0c0 2.6187592 -0.9988098 5.130249 -2.7767181 6.9819794c-1.7779007 1.8517456 -4.1892586 2.892044 -6.703594 2.892044l0 0c-5.235832 0 -9.480316 -4.420746 -9.480316 -9.874023l0 0c0 -5.4532623 4.244484 -9.874008 9.480316 -9.874008z" fill-rule="evenodd"/><path stroke="#274e13" stroke-width="1.0" stroke-linejoin="round" stroke-linecap="butt" d="m60.06812 178.12494l0 0c5.235836 0 9.480312 4.420746 9.480312 9.874008l0 0c0 2.6187592 -0.9988098 5.130249 -2.7767181 6.9819794c-1.7779007 1.8517456 -4.1892586 2.892044 -6.703594 2.892044l0 0c-5.235832 0 -9.480316 -4.420746 -9.480316 -9.874023l0 0c0 -5.4532623 4.244484 -9.874008 9.480316 -9.874008z" fill-rule="evenodd"/><path fill="#d9ead3" d="m60.06812 221.9853l0 0c5.235836 0 9.480312 4.420746 9.480312 9.874008l0 0c0 2.6187592 -0.9988098 5.130249 -2.7767181 6.9819946c-1.7779007 1.8517303 -4.1892586 2.8920288 -6.703594 2.8920288l0 0c-5.235832 0 -9.480316 -4.420746 -9.480316 -9.874023l0 0c0 -5.4532623 4.244484 -9.874008 9.480316 -9.874008z" fill-rule="evenodd"/><path stroke="#274e13" stroke-width="1.0" stroke-linejoin="round" stroke-linecap="butt" d="m60.06812 221.9853l0 0c5.235836 0 9.480312 4.420746 9.480312 9.874008l0 0c0 2.6187592 -0.9988098 5.130249 -2.7767181 6.9819946c-1.7779007 1.8517303 -4.1892586 2.8920288 -6.703594 2.8920288l0 0c-5.235832 0 -9.480316 -4.420746 -9.480316 -9.874023l0 0c0 -5.4532623 4.244484 -9.874008 9.480316 -9.874008z" fill-rule="evenodd"/><path fill="#f4cccc" d="m449.49332 356.74857l0 0c0 -17.403503 14.108307 -31.51181 31.51181 -31.51181l0 0c8.357452 0 16.37262 3.3199768 22.282227 9.229584c5.909607 5.909607 9.229614 13.924774 9.229614 22.282227l0 0c0 17.403473 -14.108337 31.51181 -31.51184 31.51181l0 0c-17.403503 0 -31.51181 -14.108337 -31.51181 -31.51181z" fill-rule="evenodd"/><path stroke="#990000" stroke-width="1.0" stroke-linejoin="round" stroke-linecap="butt" d="m449.49332 356.74857l0 0c0 -17.403503 14.108307 -31.51181 31.51181 -31.51181l0 0c8.357452 0 16.37262 3.3199768 22.282227 9.229584c5.909607 5.909607 9.229614 13.924774 9.229614 22.282227l0 0c0 17.403473 -14.108337 31.51181 -31.51184 31.51181l0 0c-17.403503 0 -31.51181 -14.108337 -31.51181 -31.51181z" fill-rule="evenodd"/><path fill="#000000" d="m465.20578 351.7048q0 0.21875 -0.40625 0.65625q-0.296875 0.296875 -0.59375 0.609375q-0.71875 0.8125 -1.125 2.34375q-0.359375 1.328125 -0.359375 2.609375q0 3.296875 1.5 4.84375q0.296875 0.234375 0.59375 0.46875q0.375 0.296875 0.375 0.59375q0 0.21875 -0.171875 0.375q-0.15625 0.15625 -0.375 0.15625q-0.203125 0 -0.46875 -0.15625q-2.765625 -1.53125 -2.765625 -6.4375q0 -1.765625 0.71875 -3.578125q0.796875 -2.0 2.078125 -2.90625q0.265625 -0.1875 0.40625 -0.1875q0.234375 0 0.40625 0.1875q0.1875 0.1875 0.1875 0.421875zm7.240265 4.265625l-0.953125 0.890625l-1.15625 1.140625l2.109375 2.78125q0.171875 0.203125 0.171875 0.40625q0 0.25 -0.203125 0.4375q-0.1875 0.203125 -0.4375 0.203125q-0.25 0 -0.453125 -0.234375q-0.59375 -0.703125 -2.109375 -2.6875l-1.265625 1.3125q-0.375 0.34375 -1.109375 1.078125q-0.21875 0.234375 -0.453125 0.234375q-0.25 0 -0.453125 -0.1875q-0.1875 -0.203125 -0.1875 -0.453125q0 -0.203125 0.171875 -0.421875q0.171875 -0.234375 0.5625 -0.578125q0.453125 -0.390625 0.59375 -0.546875l1.390625 -1.453125l-0.859375 -1.21875q-0.515625 -0.734375 -0.890625 -1.078125q-0.25 -0.21875 -0.25 -0.484375q0 -0.265625 0.1875 -0.453125q0.1875 -0.203125 0.421875 -0.203125q0.390625 0 1.15625 1.0l1.125 1.546875l1.28125 -1.171875q0.796875 -0.75 1.078125 -1.171875q0.203125 -0.296875 0.484375 -0.296875q0.25 0 0.4375 0.1875q0.203125 0.1875 0.203125 0.4375q0 0.359375 -0.59375 0.984375zm6.914917 1.390625q0 0.25 -0.15625 0.4375q-0.15625 0.171875 -0.40625 0.171875q-0.078125 0 -0.234375 -0.03125q-0.15625 -0.03125 -0.234375 -0.03125l-0.65625 0.015625q-0.390625 0.015625 -0.640625 0l0 1.53125q0 0.578125 -0.578125 0.578125q-0.296875 0 -0.4375 -0.140625q-0.140625 -0.140625 -0.140625 -0.4375l-0.015625 -0.75l0 -0.75q-0.796875 0.046875 -1.109375 0.046875q-1.015625 0 -1.015625 -0.609375q0 -0.421875 0.359375 -0.515625q0.125 -0.046875 0.65625 -0.046875q0.3125 0 1.109375 -0.03125l-0.015625 -0.765625q0 -0.59375 0.0625 -0.828125q0.0625 -0.234375 0.203125 -0.34375q0.140625 -0.125 0.359375 -0.125q0.234375 0 0.40625 0.171875q0.171875 0.15625 0.171875 0.40625q0 0.109375 -0.03125 0.34375q-0.015625 0.234375 -0.015625 0.359375l0.015625 0.75l0.484375 0.015625q0.125 0 0.390625 -0.015625q0.28125 -0.015625 0.40625 -0.015625q1.0625 0 1.0625 0.609375zm5.0443726 4.1875l-1.296875 0l-1.28125 0q-0.453125 0 -0.640625 -0.0625q-0.328125 -0.109375 -0.328125 -0.484375q0 -0.65625 1.015625 -0.65625l0.3125 0l0.265625 0.015625q0 -0.3125 -0.0625 -0.921875q-0.046875 -0.625 -0.046875 -0.921875q0 -0.828125 0.15625 -2.515625q0.140625 -1.65625 0.140625 -2.515625q-0.875 0.671875 -1.125 0.671875q-0.25 0 -0.453125 -0.1875q-0.1875 -0.203125 -0.1875 -0.453125q0 -0.3125 0.5625 -0.734375q0.34375 -0.25 1.0 -0.796875q0.5625 -0.578125 1.09375 -0.578125q0.421875 0 0.421875 0.5q0 0.140625 -0.046875 0.4375q-0.03125 0.296875 -0.03125 0.453125q0 0.21875 0.015625 0.65625q0.03125 0.421875 0.03125 0.640625q0 0.75 -0.15625 2.21875q-0.15625 1.46875 -0.15625 2.203125q0 0.375 0.046875 0.921875q0.0625 0.53125 0.0625 0.875l0.6875 -0.015625q0.28125 0 0.453125 0.1875q0.1875 0.171875 0.1875 0.4375q0 0.28125 -0.1875 0.453125q-0.171875 0.171875 -0.453125 0.171875zm3.2814941 2.234375q-0.234375 0 -0.40625 -0.171875q-0.171875 -0.171875 -0.171875 -0.40625q0 -0.1875 0.40625 -1.109375q0.359375 -0.8125 0.546875 -1.15625q0.171875 -0.3125 0.453125 -0.3125q0.234375 0 0.390625 0.1875q0.171875 0.171875 0.171875 0.390625q0 0.15625 -0.921875 2.234375q-0.15625 0.34375 -0.46875 0.34375zm8.408722 -8.046875l-2.25 4.875q-0.828125 1.78125 -1.28125 2.96875l-0.421875 1.265625q-0.171875 0.46875 -0.59375 0.46875q-0.265625 0 -0.46875 -0.1875q-0.203125 -0.171875 -0.203125 -0.4375q0 -0.640625 1.40625 -3.765625l-2.328125 -4.484375l-0.28125 -0.46875q-0.1875 -0.3125 -0.1875 -0.5q0 -0.28125 0.203125 -0.46875q0.21875 -0.203125 0.46875 -0.203125q0.296875 0 0.453125 0.21875q1.109375 1.546875 2.375 4.375l0.96875 -2.25q0.515625 -1.15625 1.0 -2.0q0.21875 -0.359375 0.546875 -0.359375q0.265625 0 0.46875 0.1875q0.21875 0.1875 0.21875 0.453125q0 0.140625 -0.09375 0.3125zm4.8905334 2.03125q0 4.90625 -2.765625 6.4375q-0.265625 0.15625 -0.453125 0.15625q-0.21875 0 -0.390625 -0.15625q-0.171875 -0.15625 -0.171875 -0.375q0 -0.296875 0.375 -0.59375q0.296875 -0.234375 0.609375 -0.46875q1.5 -1.546875 1.5 -4.84375q0 -1.28125 -0.359375 -2.609375q-0.421875 -1.53125 -1.140625 -2.34375q-0.296875 -0.3125 -0.59375 -0.609375q-0.40625 -0.4375 -0.40625 -0.65625q0 -0.234375 0.171875 -0.421875q0.1875 -0.1875 0.421875 -0.1875q0.140625 0 0.40625 0.1875q1.296875 0.90625 2.078125 2.90625q0.71875 1.8125 0.71875 3.578125z" fill-rule="nonzero"/><path fill="#f4cccc" d="m362.12585 443.88504l0 0c0 -17.403503 14.108337 -31.51181 31.51181 -31.51181l0 0c8.357452 0 16.37262 3.3199768 22.282227 9.229584c5.909607 5.909607 9.229584 13.924774 9.229584 22.282227l0 0c0 17.403503 -14.108307 31.51181 -31.51181 31.51181l0 0c-17.403473 0 -31.51181 -14.108307 -31.51181 -31.51181z" fill-rule="evenodd"/><path stroke="#990000" stroke-width="1.0" stroke-linejoin="round" stroke-linecap="butt" d="m362.12585 443.88504l0 0c0 -17.403503 14.108337 -31.51181 31.51181 -31.51181l0 0c8.357452 0 16.37262 3.3199768 22.282227 9.229584c5.909607 5.909607 9.229584 13.924774 9.229584 22.282227l0 0c0 17.403503 -14.108307 31.51181 -31.51181 31.51181l0 0c-17.403473 0 -31.51181 -14.108307 -31.51181 -31.51181z" fill-rule="evenodd"/><path fill="#000000" d="m377.83832 438.84128q0 0.21875 -0.40625 0.65625q-0.296875 0.296875 -0.59375 0.609375q-0.71875 0.8125 -1.125 2.34375q-0.359375 1.328125 -0.359375 2.609375q0 3.296875 1.5 4.84375q0.296875 0.234375 0.59375 0.46875q0.375 0.296875 0.375 0.59375q0 0.21875 -0.171875 0.375q-0.15625 0.15625 -0.375 0.15625q-0.203125 0 -0.46875 -0.15625q-2.765625 -1.53125 -2.765625 -6.4375q0 -1.765625 0.71875 -3.578125q0.796875 -2.0 2.078125 -2.90625q0.265625 -0.1875 0.40625 -0.1875q0.234375 0 0.40625 0.1875q0.1875 0.1875 0.1875 0.421875zm7.2402954 4.265625l-0.953125 0.890625l-1.15625 1.140625l2.109375 2.78125q0.171875 0.203125 0.171875 0.40625q0 0.25 -0.203125 0.4375q-0.1875 0.203125 -0.4375 0.203125q-0.25 0 -0.453125 -0.234375q-0.59375 -0.703125 -2.109375 -2.6875l-1.265625 1.3125q-0.375 0.34375 -1.109375 1.078125q-0.21875 0.234375 -0.453125 0.234375q-0.25 0 -0.453125 -0.1875q-0.1875 -0.203125 -0.1875 -0.453125q0 -0.203125 0.171875 -0.421875q0.171875 -0.234375 0.5625 -0.578125q0.453125 -0.390625 0.59375 -0.546875l1.390625 -1.453125l-0.859375 -1.21875q-0.515625 -0.734375 -0.890625 -1.078125q-0.25 -0.21875 -0.25 -0.484375q0 -0.265625 0.1875 -0.453125q0.1875 -0.203125 0.421875 -0.203125q0.390625 0 1.15625 1.0l1.125 1.546875l1.28125 -1.171875q0.796875 -0.75 1.078125 -1.171875q0.203125 -0.296875 0.484375 -0.296875q0.25 0 0.4375 0.1875q0.203125 0.1875 0.203125 0.4375q0 0.359375 -0.59375 0.984375zm2.8367615 7.8125q-0.234375 0 -0.40625 -0.171875q-0.171875 -0.171875 -0.171875 -0.40625q0 -0.1875 0.40625 -1.109375q0.359375 -0.8125 0.546875 -1.15625q0.171875 -0.3125 0.453125 -0.3125q0.234375 0 0.390625 0.1875q0.171875 0.171875 0.171875 0.390625q0 0.15625 -0.921875 2.234375q-0.15625 0.34375 -0.46875 0.34375zm8.408722 -8.046875l-2.25 4.875q-0.828125 1.78125 -1.28125 2.96875l-0.421875 1.265625q-0.171875 0.46875 -0.59375 0.46875q-0.265625 0 -0.46875 -0.1875q-0.203125 -0.171875 -0.203125 -0.4375q0 -0.640625 1.40625 -3.765625l-2.328125 -4.484375l-0.28125 -0.46875q-0.1875 -0.3125 -0.1875 -0.5q0 -0.28125 0.203125 -0.46875q0.21875 -0.203125 0.46875 -0.203125q0.296875 0 0.453125 0.21875q1.109375 1.546875 2.375 4.375l0.96875 -2.25q0.515625 -1.15625 1.0 -2.0q0.21875 -0.359375 0.546875 -0.359375q0.265625 0 0.46875 0.1875q0.21875 0.1875 0.21875 0.453125q0 0.140625 -0.09375 0.3125zm6.2967834 1.625q0 0.25 -0.15625 0.4375q-0.15625 0.171875 -0.40625 0.171875q-0.078125 0 -0.234375 -0.03125q-0.15625 -0.03125 -0.234375 -0.03125l-0.65625 0.015625q-0.390625 0.015625 -0.640625 0l0 1.53125q0 0.578125 -0.578125 0.578125q-0.296875 0 -0.4375 -0.140625q-0.140625 -0.140625 -0.140625 -0.4375l-0.015625 -0.75l0 -0.75q-0.796875 0.046875 -1.109375 0.046875q-1.015625 0 -1.015625 -0.609375q0 -0.421875 0.359375 -0.515625q0.125 -0.046875 0.65625 -0.046875q0.3125 0 1.109375 -0.03125l-0.015625 -0.765625q0 -0.59375 0.0625 -0.828125q0.0625 -0.234375 0.203125 -0.34375q0.140625 -0.125 0.359375 -0.125q0.234375 0 0.40625 0.171875q0.171875 0.15625 0.171875 0.40625q0 0.109375 -0.03125 0.34375q-0.015625 0.234375 -0.015625 0.359375l0.015625 0.75l0.484375 0.015625q0.125 0 0.390625 -0.015625q0.28125 -0.015625 0.40625 -0.015625q1.0625 0 1.0625 0.609375zm5.0443726 4.1875l-1.296875 0l-1.28125 0q-0.453125 0 -0.640625 -0.0625q-0.328125 -0.109375 -0.328125 -0.484375q0 -0.65625 1.015625 -0.65625l0.3125 0l0.265625 0.015625q0 -0.3125 -0.0625 -0.921875q-0.046875 -0.625 -0.046875 -0.921875q0 -0.828125 0.15625 -2.515625q0.140625 -1.65625 0.140625 -2.515625q-0.875 0.671875 -1.125 0.671875q-0.25 0 -0.453125 -0.1875q-0.1875 -0.203125 -0.1875 -0.453125q0 -0.3125 0.5625 -0.734375q0.34375 -0.25 1.0 -0.796875q0.5625 -0.578125 1.09375 -0.578125q0.421875 0 0.421875 0.5q0 0.140625 -0.046875 0.4375q-0.03125 0.296875 -0.03125 0.453125q0 0.21875 0.015625 0.65625q0.03125 0.421875 0.03125 0.640625q0 0.75 -0.15625 2.21875q-0.15625 1.46875 -0.15625 2.203125q0 0.375 0.046875 0.921875q0.0625 0.53125 0.0625 0.875l0.6875 -0.015625q0.28125 0 0.453125 0.1875q0.1875 0.171875 0.1875 0.4375q0 0.28125 -0.1875 0.453125q-0.171875 0.171875 -0.453125 0.171875zm5.953369 -3.78125q0 4.90625 -2.765625 6.4375q-0.265625 0.15625 -0.453125 0.15625q-0.21875 0 -0.390625 -0.15625q-0.171875 -0.15625 -0.171875 -0.375q0 -0.296875 0.375 -0.59375q0.296875 -0.234375 0.609375 -0.46875q1.5 -1.546875 1.5 -4.84375q0 -1.28125 -0.359375 -2.609375q-0.421875 -1.53125 -1.140625 -2.34375q-0.296875 -0.3125 -0.59375 -0.609375q-0.40625 -0.4375 -0.40625 -0.65625q0 -0.234375 0.171875 -0.421875q0.1875 -0.1875 0.421875 -0.1875q0.140625 0 0.40625 0.1875q1.296875 0.90625 2.078125 2.90625q0.71875 1.8125 0.71875 3.578125z" fill-rule="nonzero"/><path fill="#f4cccc" d="m393.63766 499.50867l0 0c5.23584 0 9.480316 4.420746 9.480316 9.874023l0 0c0 2.6187134 -0.9988098 5.130249 -2.776703 6.9819946c-1.7779236 1.8516846 -4.18927 2.8920288 -6.7036133 2.8920288l0 0c-5.23584 0 -9.480316 -4.4207764 -9.480316 -9.874023l0 0c0 -5.4532776 4.2444763 -9.874023 9.480316 -9.874023z" fill-rule="evenodd"/><path stroke="#990000" stroke-width="1.0" stroke-linejoin="round" stroke-linecap="butt" d="m393.63766 499.50867l0 0c5.23584 0 9.480316 4.420746 9.480316 9.874023l0 0c0 2.6187134 -0.9988098 5.130249 -2.776703 6.9819946c-1.7779236 1.8516846 -4.18927 2.8920288 -6.7036133 2.8920288l0 0c-5.23584 0 -9.480316 -4.4207764 -9.480316 -9.874023l0 0c0 -5.4532776 4.2444763 -9.874023 9.480316 -9.874023z" fill-rule="evenodd"/><path fill="#f4cccc" d="m393.63766 543.369l0 0c5.23584 0 9.480316 4.4207764 9.480316 9.874023l0 0c0 2.6187744 -0.9988098 5.130249 -2.776703 6.9819946c-1.7779236 1.8517456 -4.18927 2.8920288 -6.7036133 2.8920288l0 0c-5.23584 0 -9.480316 -4.4207764 -9.480316 -9.874023l0 0c0 -5.453247 4.2444763 -9.874023 9.480316 -9.874023z" fill-rule="evenodd"/><path stroke="#990000" stroke-width="1.0" stroke-linejoin="round" stroke-linecap="butt" d="m393.63766 543.369l0 0c5.23584 0 9.480316 4.4207764 9.480316 9.874023l0 0c0 2.6187744 -0.9988098 5.130249 -2.776703 6.9819946c-1.7779236 1.8517456 -4.18927 2.8920288 -6.7036133 2.8920288l0 0c-5.23584 0 -9.480316 -4.4207764 -9.480316 -9.874023l0 0c0 -5.453247 4.2444763 -9.874023 9.480316 -9.874023z" fill-rule="evenodd"/><path fill="#f4cccc" d="m393.63766 587.2294l0 0c5.23584 0 9.480316 4.4207764 9.480316 9.874023l0 0c0 2.6187744 -0.9988098 5.130249 -2.776703 6.9819946c-1.7779236 1.8517456 -4.18927 2.8920288 -6.7036133 2.8920288l0 0c-5.23584 0 -9.480316 -4.4207153 -9.480316 -9.874023l0 0c0 -5.453247 4.2444763 -9.874023 9.480316 -9.874023z" fill-rule="evenodd"/><path stroke="#990000" stroke-width="1.0" stroke-linejoin="round" stroke-linecap="butt" d="m393.63766 587.2294l0 0c5.23584 0 9.480316 4.4207764 9.480316 9.874023l0 0c0 2.6187744 -0.9988098 5.130249 -2.776703 6.9819946c-1.7779236 1.8517456 -4.18927 2.8920288 -6.7036133 2.8920288l0 0c-5.23584 0 -9.480316 -4.4207153 -9.480316 -9.874023l0 0c0 -5.453247 4.2444763 -9.874023 9.480316 -9.874023z" fill-rule="evenodd"/><path fill="#f4cccc" d="m536.8602 356.74802l0 0c0 -5.2358093 4.4207764 -9.480286 9.874023 -9.480286l0 0c2.6187744 0 5.130249 0.9988098 6.9819946 2.776703c1.8517456 1.7778931 2.8920288 4.18927 2.8920288 6.703583l0 0c0 5.23584 -4.4207764 9.480316 -9.874023 9.480316l0 0c-5.453247 0 -9.874023 -4.2444763 -9.874023 -9.480316z" fill-rule="evenodd"/><path stroke="#990000" stroke-width="1.0" stroke-linejoin="round" stroke-linecap="butt" d="m536.8602 356.74802l0 0c0 -5.2358093 4.4207764 -9.480286 9.874023 -9.480286l0 0c2.6187744 0 5.130249 0.9988098 6.9819946 2.776703c1.8517456 1.7778931 2.8920288 4.18927 2.8920288 6.703583l0 0c0 5.23584 -4.4207764 9.480316 -9.874023 9.480316l0 0c-5.453247 0 -9.874023 -4.2444763 -9.874023 -9.480316z" fill-rule="evenodd"/><path fill="#f4cccc" d="m586.2639 356.74802l0 0c0 -5.2358093 4.4207764 -9.480286 9.874023 -9.480286l0 0c2.6187744 0 5.130249 0.9988098 6.9819946 2.776703c1.8517456 1.7778931 2.8920288 4.18927 2.8920288 6.703583l0 0c0 5.23584 -4.4207764 9.480316 -9.874023 9.480316l0 0c-5.453247 0 -9.874023 -4.2444763 -9.874023 -9.480316z" fill-rule="evenodd"/><path stroke="#990000" stroke-width="1.0" stroke-linejoin="round" stroke-linecap="butt" d="m586.2639 356.74802l0 0c0 -5.2358093 4.4207764 -9.480286 9.874023 -9.480286l0 0c2.6187744 0 5.130249 0.9988098 6.9819946 2.776703c1.8517456 1.7778931 2.8920288 4.18927 2.8920288 6.703583l0 0c0 5.23584 -4.4207764 9.480316 -9.874023 9.480316l0 0c-5.453247 0 -9.874023 -4.2444763 -9.874023 -9.480316z" fill-rule="evenodd"/><path fill="#f4cccc" d="m635.6676 356.74802l0 0c0 -5.2358093 4.4207153 -9.480286 9.874023 -9.480286l0 0c2.6187134 0 5.130249 0.9988098 6.9819946 2.776703c1.8516846 1.7778931 2.8920288 4.18927 2.8920288 6.703583l0 0c0 5.23584 -4.4207764 9.480316 -9.874023 9.480316l0 0c-5.453308 0 -9.874023 -4.2444763 -9.874023 -9.480316z" fill-rule="evenodd"/><path stroke="#990000" stroke-width="1.0" stroke-linejoin="round" stroke-linecap="butt" d="m635.6676 356.74802l0 0c0 -5.2358093 4.4207153 -9.480286 9.874023 -9.480286l0 0c2.6187134 0 5.130249 0.9988098 6.9819946 2.776703c1.8516846 1.7778931 2.8920288 4.18927 2.8920288 6.703583l0 0c0 5.23584 -4.4207764 9.480316 -9.874023 9.480316l0 0c-5.453308 0 -9.874023 -4.2444763 -9.874023 -9.480316z" fill-rule="evenodd"/></g></svg>