<?xml version="1.0" standalone="yes"?>

<svg version="1.1" viewBox="0.0 0.0 998.8136482939633 407.26771653543307" fill="none" stroke="none" stroke-linecap="square" stroke-miterlimit="10" xmlns="http://www.w3.org/2000/svg" xmlns:xlink="http://www.w3.org/1999/xlink"><clipPath id="p.0"><path d="m0 0l998.81366 0l0 407.26773l-998.81366 0l0 -407.26773z" clip-rule="nonzero"></path></clipPath><g clip-path="url(#p.0)"><path fill="#000000" fill-opacity="0.0" d="m0 0l998.81366 0l0 407.26773l-998.81366 0z" fill-rule="evenodd"></path><path fill="#f4cccc" d="m39.98163 49.85077l0 0c0 -10.329819 8.37397 -18.703787 18.703785 -18.703787l198.11998 0c4.9605713 0 9.717957 1.9705715 13.225586 5.4782124c3.5076294 3.5076408 5.4782104 8.265022 5.4782104 13.2255745l0 74.8129c0 10.329819 -8.373962 18.703781 -18.703796 18.703781l-198.11998 0c-10.329815 0 -18.703785 -8.373962 -18.703785 -18.703781z" fill-rule="evenodd"></path><path stroke="#ff0000" stroke-width="1.0" stroke-linejoin="round" stroke-linecap="butt" d="m39.98163 49.85077l0 0c0 -10.329819 8.37397 -18.703787 18.703785 -18.703787l198.11998 0c4.9605713 0 9.717957 1.9705715 13.225586 5.4782124c3.5076294 3.5076408 5.4782104 8.265022 5.4782104 13.2255745l0 74.8129c0 10.329819 -8.373962 18.703781 -18.703796 18.703781l-198.11998 0c-10.329815 0 -18.703785 -8.373962 -18.703785 -18.703781z" fill-rule="evenodd"></path><path fill="#000000" d="m82.53642 79.54722l0 5.5l-0.453125 0q-0.515625 -2.15625 -1.921875 -3.296875q-1.40625 -1.15625 -3.1875 -1.15625q-1.484375 0 -2.734375 0.859375q-1.234375 0.859375 -1.8125 2.234375q-0.734375 1.765625 -0.734375 3.9375q0 2.140625 0.53125 3.890625q0.546875 1.75 1.6875 2.65625q1.15625 0.890625 2.984375 0.890625q1.5 0 2.75 -0.65625q1.25 -0.65625 2.625 -2.265625l0 1.375q-1.328125 1.390625 -2.78125 2.015625q-1.453125 0.625 -3.375 0.625q-2.546875 0 -4.53125 -1.015625q-1.96875 -1.015625 -3.046875 -2.921875q-1.0625 -1.921875 -1.0625 -4.078125q0 -2.265625 1.1875 -4.296875q1.1875 -2.046875 3.203125 -3.171875q2.03125 -1.125 4.296875 -1.125q1.6875 0 3.546875 0.71875q1.078125 0.421875 1.375 0.421875q0.375 0 0.640625 -0.265625q0.28125 -0.28125 0.359375 -0.875l0.453125 0zm8.097656 16.25l0 -0.4375q0.59375 -0.015625 0.96875 -0.28125q0.390625 -0.28125 0.390625 -1.234375l0 -8.265625l-3.09375 0l0 4.796875q0 2.578125 -0.265625 3.5625q-0.25 0.984375 -1.0 1.515625q-0.734375 0.53125 -1.5625 0.53125q-0.9375 0 -1.515625 -0.5625q-0.5625 -0.578125 -0.5625 -1.3125q0 -0.71875 0.40625 -1.171875q0.421875 -0.453125 1.078125 -0.453125q1.265625 0 1.265625 1.53125q0 0.6875 0.265625 0.6875q0.515625 0 0.796875 -0.84375q0.28125 -0.859375 0.28125 -3.484375l0 -3.1875q0 -1.078125 -0.296875 -1.46875q-0.296875 -0.40625 -1.0 -0.453125l0 -0.421875l9.65625 0l0 0.421875q-1.171875 0.03125 -1.171875 1.484375l0 7.046875q0 0.796875 0.234375 1.171875q0.25 0.375 0.9375 0.390625l0 0.4375l-5.8125 0zm12.527344 0.453125l-3.546875 -8.125q-0.796875 -1.84375 -1.1875 -2.265625q-0.375 -0.421875 -0.90625 -0.59375l0 -0.421875l5.828125 0l0 0.421875q-0.578125 0.03125 -0.8125 0.234375q-0.234375 0.1875 -0.234375 0.46875q0 0.453125 0.578125 1.765625l1.875 4.28125l1.28125 -3.3125q0.6875 -1.765625 0.6875 -2.453125q0 -0.4375 -0.28125 -0.6875q-0.28125 -0.265625 -1.015625 -0.296875l0 -0.421875l3.671875 0l0 0.421875q-0.546875 0.0625 -0.890625 0.421875q-0.328125 0.359375 -1.125 2.4375l-3.125 8.125q-1.1875 3.046875 -1.765625 3.75q-0.8125 0.984375 -2.03125 0.984375q-0.96875 0 -1.578125 -0.5625q-0.59375 -0.5625 -0.59375 -1.34375q0 -0.671875 0.40625 -1.125q0.421875 -0.4375 1.03125 -0.4375q0.59375 0 0.9375 0.375q0.359375 0.375 0.375 1.15625q0.015625 0.4375 0.109375 0.578125q0.09375 0.125 0.265625 0.125q0.28125 0 0.59375 -0.34375q0.46875 -0.484375 1.109375 -2.25l0.34375 -0.90625zm18.78125 -11.40625l0 0.421875q-0.59375 0.0625 -0.875 0.375q-0.28125 0.296875 -0.28125 1.3125l0 6.484375q0 1.25 0.234375 1.53125q0.234375 0.28125 0.921875 0.390625l0 0.4375l-5.609375 0l0 -0.4375q0.796875 -0.109375 0.984375 -0.40625q0.1875 -0.296875 0.1875 -1.515625l0 -2.75q-2.34375 0.75 -3.6875 0.75q-0.953125 0 -1.65625 -0.453125q-0.6875 -0.453125 -0.890625 -0.96875q-0.1875 -0.53125 -0.1875 -1.46875l0 -1.46875q0 -1.109375 -0.21875 -1.40625q-0.203125 -0.3125 -0.9375 -0.40625l0 -0.421875l5.46875 0l0 0.421875q-0.46875 0.078125 -0.75 0.34375q-0.28125 0.265625 -0.28125 1.34375l0 1.59375q0 1.03125 0.21875 1.40625q0.21875 0.375 0.984375 0.375q0.671875 0 1.9375 -0.359375l0 -2.890625q0 -1.015625 -0.203125 -1.34375q-0.1875 -0.34375 -0.84375 -0.46875l0 -0.421875l5.484375 0zm7.7695312 9.328125q-2.0 1.78125 -3.59375 1.78125q-0.9375 0 -1.5625 -0.609375q-0.625 -0.625 -0.625 -1.546875q0 -1.265625 1.078125 -2.265625q1.078125 -1.0 4.703125 -2.65625l0 -1.109375q0 -1.234375 -0.140625 -1.5625q-0.125 -0.328125 -0.5 -0.5625q-0.375 -0.234375 -0.84375 -0.234375q-0.765625 0 -1.265625 0.328125q-0.296875 0.21875 -0.296875 0.5q0 0.25 0.328125 0.609375q0.4375 0.5 0.4375 0.96875q0 0.578125 -0.421875 0.984375q-0.421875 0.40625 -1.125 0.40625q-0.734375 0 -1.234375 -0.4375q-0.5 -0.453125 -0.5 -1.0625q0 -0.84375 0.671875 -1.609375q0.671875 -0.765625 1.859375 -1.171875q1.203125 -0.40625 2.484375 -0.40625q1.5625 0 2.46875 0.65625q0.90625 0.65625 1.1875 1.4375q0.15625 0.484375 0.15625 2.265625l0 4.25q0 0.75 0.0625 0.953125q0.0625 0.1875 0.171875 0.28125q0.125 0.09375 0.265625 0.09375q0.3125 0 0.625 -0.4375l0.359375 0.28125q-0.59375 0.859375 -1.21875 1.265625q-0.625 0.390625 -1.421875 0.390625q-0.9375 0 -1.46875 -0.4375q-0.53125 -0.453125 -0.640625 -1.34375zm0 -0.84375l0 -3.671875q-1.421875 0.828125 -2.109375 1.78125q-0.453125 0.625 -0.453125 1.28125q0 0.53125 0.375 0.9375q0.296875 0.328125 0.828125 0.328125q0.578125 0 1.359375 -0.65625zm12.140625 -10.1875q-1.875 0 -3.015625 -0.578125q-1.140625 -0.59375 -1.140625 -1.59375q0 -0.53125 0.296875 -0.828125q0.3125 -0.3125 0.734375 -0.3125q0.921875 0 1.359375 1.453125q0.203125 0.65625 0.546875 0.921875q0.34375 0.25 1.0625 0.25q0.96875 0 1.234375 -0.25q0.265625 -0.265625 0.453125 -0.859375q0.484375 -1.515625 1.40625 -1.515625q0.4375 0 0.734375 0.3125q0.3125 0.296875 0.3125 0.828125q0 1.0 -1.078125 1.59375q-1.0625 0.578125 -2.90625 0.578125zm0.421875 12.65625l0 -0.4375q1.046875 0 1.046875 -1.5625l0 -5.375l-3.140625 5.375q0.015625 1.53125 1.078125 1.5625l0 0.4375l-5.578125 0l0 -0.4375q0.65625 0 0.9375 -0.375q0.28125 -0.375 0.28125 -1.3125l0 -6.765625q0 -1.640625 -1.21875 -1.640625l0 -0.421875l5.578125 0l0 0.421875q-0.609375 0.03125 -0.84375 0.359375q-0.234375 0.328125 -0.234375 1.28125l0 5.34375l3.140625 -5.4375q0 -0.859375 -0.25 -1.203125q-0.25 -0.34375 -0.796875 -0.34375l0 -0.421875l5.578125 0l0 0.421875q-0.640625 0.015625 -0.953125 0.328125q-0.296875 0.296875 -0.296875 1.171875l0 6.96875q0 0.96875 0.28125 1.296875q0.28125 0.328125 0.96875 0.328125l0 0.4375l-5.578125 0zm7.234375 0l0 -0.4375q0.671875 0 0.9375 -0.34375q0.28125 -0.34375 0.28125 -1.3125l0 -6.734375q0 -1.03125 -0.265625 -1.359375q-0.265625 -0.34375 -0.953125 -0.34375l0 -0.421875l5.578125 0l0 0.421875q-0.59375 0.03125 -0.84375 0.3125q-0.234375 0.28125 -0.234375 1.28125l0 2.890625l3.140625 0l0 -2.890625q0 -0.828125 -0.171875 -1.203125q-0.171875 -0.390625 -0.875 -0.390625l0 -0.421875l5.5625 0l0 0.421875q-0.671875 0 -0.953125 0.34375q-0.28125 0.328125 -0.28125 1.109375l0 6.984375q0 1.03125 0.265625 1.34375q0.28125 0.296875 0.96875 0.3125l0 0.4375l-5.5625 0l0 -0.4375q0.578125 -0.015625 0.8125 -0.265625q0.234375 -0.265625 0.234375 -1.3125l0 -3.296875l-3.140625 0l0 3.21875q0 1.03125 0.234375 1.34375q0.25 0.3125 0.84375 0.3125l0 0.4375l-5.578125 0zm30.859375 -10.953125l0 0.421875q-1.1875 0.09375 -1.1875 1.59375l0 6.890625q0 0.796875 0.265625 1.1875q0.265625 0.375 0.921875 0.421875l0 0.4375l-5.640625 0l0 -0.4375q0.625 -0.046875 0.890625 -0.390625q0.28125 -0.359375 0.28125 -1.21875l0 -6.890625q0 -0.796875 -0.265625 -1.15625q-0.25 -0.375 -0.90625 -0.4375l0 -0.421875l5.640625 0zm-16.9375 10.953125l0 -0.4375q0.671875 -0.09375 0.90625 -0.453125q0.25 -0.359375 0.25 -1.3125l0 -6.625q0 -0.890625 -0.25 -1.234375q-0.25 -0.359375 -0.90625 -0.46875l0 -0.421875l5.59375 0l0 0.421875q-0.703125 0.109375 -0.9375 0.5q-0.21875 0.375 -0.21875 1.375l0 2.609375l0.84375 0q2.859375 0 4.3125 0.8125q1.453125 0.8125 1.453125 2.25q0 1.359375 -1.296875 2.171875q-1.28125 0.8125 -3.8125 0.8125l-5.9375 0zm4.4375 -5.3125l0 3.40625q0 0.796875 0.265625 0.984375q0.265625 0.1875 0.640625 0.1875q0.90625 0 1.578125 -0.625q0.671875 -0.625 0.671875 -1.6875q0 -2.265625 -3.15625 -2.265625zm20.378906 -7.34375q-1.875 0 -3.015625 -0.578125q-1.140625 -0.59375 -1.140625 -1.59375q0 -0.53125 0.296875 -0.828125q0.3125 -0.3125 0.734375 -0.3125q0.921875 0 1.359375 1.453125q0.203125 0.65625 0.546875 0.921875q0.34375 0.25 1.0625 0.25q0.96875 0 1.234375 -0.25q0.265625 -0.265625 0.453125 -0.859375q0.484375 -1.515625 1.40625 -1.515625q0.4375 0 0.734375 0.3125q0.3125 0.296875 0.3125 0.828125q0 1.0 -1.078125 1.59375q-1.0625 0.578125 -2.90625 0.578125zm0.421875 12.65625l0 -0.4375q1.046875 0 1.046875 -1.5625l0 -5.375l-3.140625 5.375q0.015625 1.53125 1.078125 1.5625l0 0.4375l-5.578125 0l0 -0.4375q0.65625 0 0.9375 -0.375q0.28125 -0.375 0.28125 -1.3125l0 -6.765625q0 -1.640625 -1.21875 -1.640625l0 -0.421875l5.578125 0l0 0.421875q-0.609375 0.03125 -0.84375 0.359375q-0.234375 0.328125 -0.234375 1.28125l0 5.34375l3.140625 -5.4375q0 -0.859375 -0.25 -1.203125q-0.25 -0.34375 -0.796875 -0.34375l0 -0.421875l5.578125 0l0 0.421875q-0.640625 0.015625 -0.953125 0.328125q-0.296875 0.296875 -0.296875 1.171875l0 6.96875q0 0.96875 0.28125 1.296875q0.28125 0.328125 0.96875 0.328125l0 0.4375l-5.578125 0z" fill-rule="nonzero"></path><path fill="#000000" d="m201.18877 95.79722l0 -0.4375q0.828125 0 1.03125 -0.453125q0.203125 -0.453125 0.203125 -1.109375l0 -6.796875q0 -0.96875 -0.25 -1.328125q-0.234375 -0.359375 -0.984375 -0.40625l0 -0.421875l5.53125 0l0 0.421875q-0.578125 0.09375 -0.796875 0.46875q-0.21875 0.359375 -0.21875 1.265625l0 6.90625q0 0.6875 0.1875 0.921875q0.1875 0.234375 0.734375 0.234375l1.1875 0q0.59375 0 0.8125 -0.21875q0.21875 -0.21875 0.21875 -0.9375l0 -6.71875q0 -1.0625 -0.203125 -1.4375q-0.203125 -0.375 -0.828125 -0.484375l0 -0.421875l5.328125 0l0 0.421875q-0.609375 0.09375 -0.8125 0.46875q-0.203125 0.359375 -0.203125 1.359375l0 6.8125q0 0.734375 0.203125 0.953125q0.203125 0.203125 0.8125 0.203125l1.125 0q0.59375 0 0.796875 -0.203125q0.203125 -0.203125 0.203125 -0.90625l0 -6.859375q0 -0.984375 -0.203125 -1.34375q-0.1875 -0.375 -0.796875 -0.484375l0 -0.421875l5.53125 0l0 0.421875q-0.734375 0.03125 -1.0 0.375q-0.25 0.328125 -0.25 1.453125l0 6.703125q0 0.953125 0.3125 1.265625q0.3125 0.296875 0.9375 0.296875l0 0.4375l-18.609375 0zm25.277344 0.453125l-3.546875 -8.125q-0.796875 -1.84375 -1.1875 -2.265625q-0.375 -0.421875 -0.90625 -0.59375l0 -0.421875l5.828125 0l0 0.421875q-0.578125 0.03125 -0.8125 0.234375q-0.234375 0.1875 -0.234375 0.46875q0 0.453125 0.578125 1.765625l1.875 4.28125l1.28125 -3.3125q0.6875 -1.765625 0.6875 -2.453125q0 -0.4375 -0.28125 -0.6875q-0.28125 -0.265625 -1.015625 -0.296875l0 -0.421875l3.671875 0l0 0.421875q-0.546875 0.0625 -0.890625 0.421875q-0.328125 0.359375 -1.125 2.4375l-3.125 8.125q-1.1875 3.046875 -1.765625 3.75q-0.8125 0.984375 -2.03125 0.984375q-0.96875 0 -1.578125 -0.5625q-0.59375 -0.5625 -0.59375 -1.34375q0 -0.671875 0.40625 -1.125q0.421875 -0.4375 1.03125 -0.4375q0.59375 0 0.9375 0.375q0.359375 0.375 0.375 1.15625q0.015625 0.4375 0.109375 0.578125q0.09375 0.125 0.265625 0.125q0.28125 0 0.59375 -0.34375q0.46875 -0.484375 1.109375 -2.25l0.34375 -0.90625zm7.015625 -11.40625l4.578125 0l2.78125 6.796875l2.78125 -6.796875l4.453125 0l0 0.421875q-0.640625 0.046875 -0.90625 0.390625q-0.265625 0.34375 -0.265625 1.234375l0 6.8125q0 0.921875 0.25 1.28125q0.25 0.34375 0.921875 0.375l0 0.4375l-5.765625 0l0 -0.4375q0.71875 -0.015625 1.015625 -0.390625q0.296875 -0.375 0.296875 -1.265625l0 -7.03125l-3.828125 9.125l-0.59375 0l-3.703125 -8.984375l0 7.078125q0 0.75 0.25 1.09375q0.265625 0.34375 1.015625 0.375l0 0.4375l-3.28125 0l0 -0.4375q0.65625 -0.015625 0.921875 -0.359375q0.28125 -0.359375 0.28125 -1.203125l0 -6.984375q0 -0.8125 -0.265625 -1.15625q-0.265625 -0.34375 -0.9375 -0.390625l0 -0.421875z" fill-rule="nonzero"></path><path fill="#c9daf8" d="m374.98425 49.85077l0 0c0 -10.329819 8.373962 -18.703787 18.703796 -18.703787l198.12 0c4.9605103 0 9.7178955 1.9705715 13.225525 5.4782124c3.5076904 3.5076408 5.4782715 8.265022 5.4782715 13.2255745l0 74.8129c0 10.329819 -8.374023 18.703781 -18.703796 18.703781l-198.12 0c-10.329834 0 -18.703796 -8.373962 -18.703796 -18.703781z" fill-rule="evenodd"></path><path stroke="#4a86e8" stroke-width="1.0" stroke-linejoin="round" stroke-linecap="butt" d="m374.98425 49.85077l0 0c0 -10.329819 8.373962 -18.703787 18.703796 -18.703787l198.12 0c4.9605103 0 9.7178955 1.9705715 13.225525 5.4782124c3.5076904 3.5076408 5.4782715 8.265022 5.4782715 13.2255745l0 74.8129c0 10.329819 -8.374023 18.703781 -18.703796 18.703781l-198.12 0c-10.329834 0 -18.703796 -8.373962 -18.703796 -18.703781z" fill-rule="evenodd"></path><path fill="#000000" d="m391.12695 70.40659l14.015625 0l0 4.3125l-0.4375 0q-0.28125 -1.59375 -0.71875 -2.25q-0.4375 -0.65625 -1.078125 -0.84375q-0.625 -0.1875 -2.5 -0.1875l-3.234375 0l0 12.34375q0 1.34375 0.390625 1.71875q0.390625 0.359375 1.4375 0.359375l0.40625 0l0 0.4375l-8.28125 0l0 -0.4375l0.4375 0q1.03125 0 1.40625 -0.390625q0.375 -0.390625 0.375 -1.6875l0 -10.96875q0 -1.078125 -0.3125 -1.515625q-0.296875 -0.453125 -1.40625 -0.453125l-0.5 0l0 -0.4375zm24.878906 10.015625l-6.015625 0q0.109375 2.1875 1.15625 3.453125q0.8125 0.96875 1.953125 0.96875q0.703125 0 1.265625 -0.390625q0.578125 -0.390625 1.234375 -1.421875l0.40625 0.265625q-0.890625 1.8125 -1.96875 2.578125q-1.078125 0.75 -2.5 0.75q-2.4375 0 -3.6875 -1.875q-1.015625 -1.515625 -1.015625 -3.75q0 -2.75 1.484375 -4.359375q1.484375 -1.625 3.484375 -1.625q1.65625 0 2.875 1.359375q1.234375 1.359375 1.328125 4.046875zm-2.890625 -0.78125q0 -1.890625 -0.203125 -2.59375q-0.203125 -0.703125 -0.640625 -1.0625q-0.234375 -0.21875 -0.65625 -0.21875q-0.609375 0 -0.984375 0.609375q-0.703125 1.03125 -0.703125 2.859375l0 0.40625l3.1875 0zm4.2773438 6.65625l0 -0.4375q0.671875 0 0.9375 -0.34375q0.28125 -0.34375 0.28125 -1.3125l0 -6.734375q0 -1.03125 -0.265625 -1.359375q-0.265625 -0.34375 -0.953125 -0.34375l0 -0.421875l5.578125 0l0 0.421875q-0.59375 0.03125 -0.84375 0.3125q-0.234375 0.28125 -0.234375 1.28125l0 2.890625l3.140625 0l0 -2.890625q0 -0.828125 -0.171875 -1.203125q-0.171875 -0.390625 -0.875 -0.390625l0 -0.421875l5.5625 0l0 0.421875q-0.671875 0 -0.953125 0.34375q-0.28125 0.328125 -0.28125 1.109375l0 6.984375q0 1.03125 0.265625 1.34375q0.28125 0.296875 0.96875 0.3125l0 0.4375l-5.5625 0l0 -0.4375q0.578125 -0.015625 0.8125 -0.265625q0.234375 -0.265625 0.234375 -1.3125l0 -3.296875l-3.140625 0l0 3.21875q0 1.03125 0.234375 1.34375q0.25 0.3125 0.84375 0.3125l0 0.4375l-5.578125 0zm23.09375 -5.875l-6.015625 0q0.109375 2.1875 1.15625 3.453125q0.8125 0.96875 1.953125 0.96875q0.703125 0 1.265625 -0.390625q0.578125 -0.390625 1.234375 -1.421875l0.40625 0.265625q-0.890625 1.8125 -1.96875 2.578125q-1.078125 0.75 -2.5 0.75q-2.4375 0 -3.6875 -1.875q-1.015625 -1.515625 -1.015625 -3.75q0 -2.75 1.484375 -4.359375q1.484375 -1.625 3.484375 -1.625q1.65625 0 2.875 1.359375q1.234375 1.359375 1.328125 4.046875zm-2.890625 -0.78125q0 -1.890625 -0.203125 -2.59375q-0.203125 -0.703125 -0.640625 -1.0625q-0.234375 -0.21875 -0.65625 -0.21875q-0.609375 0 -0.984375 0.609375q-0.703125 1.03125 -0.703125 2.859375l0 0.40625l3.1875 0zm8.496094 5.546875l0 4.078125q0 0.84375 0.140625 1.140625q0.140625 0.3125 0.421875 0.453125q0.28125 0.140625 1.09375 0.140625l0 0.4375l-6.25 0l0 -0.4375q0.734375 -0.03125 1.078125 -0.40625q0.234375 -0.28125 0.234375 -1.40625l0 -11.5625q0 -1.15625 -0.265625 -1.484375q-0.265625 -0.328125 -1.046875 -0.375l0 -0.421875l4.59375 0l0 1.4375q0.578125 -0.84375 1.171875 -1.21875q0.859375 -0.546875 1.875 -0.546875q1.203125 0 2.1875 0.765625q1.0 0.75 1.515625 2.09375q0.515625 1.34375 0.515625 2.890625q0 1.65625 -0.546875 3.046875q-0.53125 1.375 -1.546875 2.09375q-1.0 0.71875 -2.25 0.71875q-0.90625 0 -1.6875 -0.40625q-0.578125 -0.296875 -1.234375 -1.03125zm0 -1.1875q1.015625 1.421875 2.15625 1.421875q0.640625 0 1.046875 -0.65625q0.609375 -0.984375 0.609375 -3.75q0 -2.84375 -0.671875 -3.890625q-0.4375 -0.6875 -1.1875 -0.6875q-1.1875 0 -1.953125 1.71875l0 5.84375zm15.160156 0.671875q-2.0 1.78125 -3.59375 1.78125q-0.9375 0 -1.5625 -0.609375q-0.625 -0.625 -0.625 -1.546875q0 -1.265625 1.078125 -2.265625q1.078125 -1.0 4.703125 -2.65625l0 -1.109375q0 -1.234375 -0.140625 -1.5625q-0.125 -0.328125 -0.5 -0.5625q-0.375 -0.234375 -0.84375 -0.234375q-0.765625 0 -1.265625 0.328125q-0.296875 0.21875 -0.296875 0.5q0 0.25 0.328125 0.609375q0.4375 0.5 0.4375 0.96875q0 0.578125 -0.421875 0.984375q-0.421875 0.40625 -1.125 0.40625q-0.734375 0 -1.234375 -0.4375q-0.5 -0.453125 -0.5 -1.0625q0 -0.84375 0.671875 -1.609375q0.671875 -0.765625 1.859375 -1.171875q1.203125 -0.40625 2.484375 -0.40625q1.5625 0 2.46875 0.65625q0.90625 0.65625 1.1875 1.4375q0.15625 0.484375 0.15625 2.265625l0 4.25q0 0.75 0.0625 0.953125q0.0625 0.1875 0.171875 0.28125q0.125 0.09375 0.265625 0.09375q0.3125 0 0.625 -0.4375l0.359375 0.28125q-0.59375 0.859375 -1.21875 1.265625q-0.625 0.390625 -1.421875 0.390625q-0.9375 0 -1.46875 -0.4375q-0.53125 -0.453125 -0.640625 -1.34375zm0 -0.84375l0 -3.671875q-1.421875 0.828125 -2.109375 1.78125q-0.453125 0.625 -0.453125 1.28125q0 0.53125 0.375 0.9375q0.296875 0.328125 0.828125 0.328125q0.578125 0 1.359375 -0.65625zm8.171875 2.46875l0 -0.4375q0.703125 0 0.953125 -0.359375q0.265625 -0.359375 0.265625 -1.4375l0 -7.984375l-1.078125 0q-1.15625 0 -1.609375 0.40625q-0.4375 0.40625 -0.6875 1.71875l-0.4375 0l0 -2.859375l10.921875 0l0 2.859375l-0.4375 0q-0.203125 -1.171875 -0.625 -1.640625q-0.40625 -0.484375 -1.640625 -0.484375l-1.125 0l0 7.984375q0 1.109375 0.265625 1.453125q0.265625 0.328125 0.96875 0.34375l0 0.4375l-5.734375 0zm16.179688 0l0 -0.4375q1.046875 0 1.046875 -1.5625l0 -5.375l-3.140625 5.375q0.015625 1.53125 1.078125 1.5625l0 0.4375l-5.578125 0l0 -0.4375q0.65625 0 0.9375 -0.375q0.28125 -0.375 0.28125 -1.3125l0 -6.765625q0 -1.640625 -1.21875 -1.640625l0 -0.421875l5.578125 0l0 0.421875q-0.609375 0.03125 -0.84375 0.359375q-0.234375 0.328125 -0.234375 1.28125l0 5.34375l3.140625 -5.4375q0 -0.859375 -0.25 -1.203125q-0.25 -0.34375 -0.796875 -0.34375l0 -0.421875l5.578125 0l0 0.421875q-0.640625 0.015625 -0.953125 0.328125q-0.296875 0.296875 -0.296875 1.171875l0 6.96875q0 0.96875 0.28125 1.296875q0.28125 0.328125 0.96875 0.328125l0 0.4375l-5.578125 0zm7.265625 -10.953125l6.046875 0q1.890625 0 3.09375 0.6875q1.21875 0.671875 1.21875 2.03125q0 1.8125 -2.515625 2.4375q3.390625 0.40625 3.390625 2.84375q0 1.46875 -1.375 2.21875q-1.359375 0.734375 -3.75 0.734375l-6.109375 0l0 -0.4375q0.8125 -0.078125 1.0 -0.375q0.1875 -0.296875 0.1875 -1.140625l0 -6.53125q0 -1.328125 -0.21875 -1.65625q-0.203125 -0.328125 -0.96875 -0.390625l0 -0.421875zm4.640625 4.875q2.78125 -0.078125 2.78125 -2.0625q0 -2.046875 -2.78125 -2.078125l0 4.140625zm0 0.75l0 3.59375q0 0.546875 0.171875 0.78125q0.171875 0.21875 0.765625 0.21875q0.984375 0 1.671875 -0.6875q0.6875 -0.6875 0.6875 -1.75q0 -1.125 -0.765625 -1.640625q-0.765625 -0.515625 -2.53125 -0.515625zm8.2890625 5.328125l0 -0.4375q0.671875 0 0.9375 -0.34375q0.28125 -0.34375 0.28125 -1.3125l0 -6.734375q0 -1.03125 -0.265625 -1.359375q-0.265625 -0.34375 -0.953125 -0.34375l0 -0.421875l5.578125 0l0 0.421875q-0.59375 0.03125 -0.84375 0.3125q-0.234375 0.28125 -0.234375 1.28125l0 2.890625l3.140625 0l0 -2.890625q0 -0.828125 -0.171875 -1.203125q-0.171875 -0.390625 -0.875 -0.390625l0 -0.421875l5.5625 0l0 0.421875q-0.671875 0 -0.953125 0.34375q-0.28125 0.328125 -0.28125 1.109375l0 6.984375q0 1.03125 0.265625 1.34375q0.28125 0.296875 0.96875 0.3125l0 0.4375l-5.5625 0l0 -0.4375q0.578125 -0.015625 0.8125 -0.265625q0.234375 -0.265625 0.234375 -1.3125l0 -3.296875l-3.140625 0l0 3.21875q0 1.03125 0.234375 1.34375q0.25 0.3125 0.84375 0.3125l0 0.4375l-5.578125 0zm19.859375 -1.625q-2.0 1.78125 -3.59375 1.78125q-0.9375 0 -1.5625 -0.609375q-0.625 -0.625 -0.625 -1.546875q0 -1.265625 1.078125 -2.265625q1.078125 -1.0 4.703125 -2.65625l0 -1.109375q0 -1.234375 -0.140625 -1.5625q-0.125 -0.328125 -0.5 -0.5625q-0.375 -0.234375 -0.84375 -0.234375q-0.765625 0 -1.265625 0.328125q-0.296875 0.21875 -0.296875 0.5q0 0.25 0.328125 0.609375q0.4375 0.5 0.4375 0.96875q0 0.578125 -0.421875 0.984375q-0.421875 0.40625 -1.125 0.40625q-0.734375 0 -1.234375 -0.4375q-0.5 -0.453125 -0.5 -1.0625q0 -0.84375 0.671875 -1.609375q0.671875 -0.765625 1.859375 -1.171875q1.203125 -0.40625 2.484375 -0.40625q1.5625 0 2.46875 0.65625q0.90625 0.65625 1.1875 1.4375q0.15625 0.484375 0.15625 2.265625l0 4.25q0 0.75 0.0625 0.953125q0.0625 0.1875 0.171875 0.28125q0.125 0.09375 0.265625 0.09375q0.3125 0 0.625 -0.4375l0.359375 0.28125q-0.59375 0.859375 -1.21875 1.265625q-0.625 0.390625 -1.421875 0.390625q-0.9375 0 -1.46875 -0.4375q-0.53125 -0.453125 -0.640625 -1.34375zm0 -0.84375l0 -3.671875q-1.421875 0.828125 -2.109375 1.78125q-0.453125 0.625 -0.453125 1.28125q0 0.53125 0.375 0.9375q0.296875 0.328125 0.828125 0.328125q0.578125 0 1.359375 -0.65625zm17.21875 -8.484375l0 0.421875q-0.5625 0 -0.859375 0.296875q-0.296875 0.296875 -0.296875 1.40625l0 6.25q0 1.21875 0.25 1.65625q0.265625 0.4375 0.90625 0.484375l0 0.4375l-5.59375 0l0 -0.4375q1.15625 -0.0625 1.15625 -1.96875l0 -2.546875q-0.421875 0.03125 -0.484375 0.03125q-0.171875 0 -0.546875 -0.03125l-1.859375 4.953125l-4.34375 0l0 -0.4375q1.28125 -0.015625 1.828125 -1.453125l1.265625 -3.40625q-2.484375 -0.78125 -2.484375 -2.796875q0 -1.03125 0.65625 -1.75q0.65625 -0.734375 1.53125 -0.921875q0.890625 -0.1875 3.140625 -0.1875l5.734375 0zm-4.4375 0.890625q-0.6875 -0.15625 -1.15625 -0.15625q-1.0 0 -1.515625 0.609375q-0.5 0.59375 -0.5 1.515625q0 1.125 0.703125 1.78125q0.703125 0.65625 2.09375 0.65625q0.125 0 0.375 0l0 -4.40625z" fill-rule="nonzero"></path><path fill="#000000" d="m558.81836 83.46909l0.359375 0.28125q-0.765625 1.453125 -1.921875 2.171875q-1.15625 0.703125 -2.453125 0.703125q-2.1875 0 -3.5 -1.65625q-1.3125 -1.65625 -1.3125 -3.96875q0 -2.234375 1.1875 -3.9375q1.4375 -2.046875 3.96875 -2.046875q1.703125 0 2.703125 0.859375q1.0 0.84375 1.0 1.90625q0 0.65625 -0.40625 1.0625q-0.390625 0.390625 -1.046875 0.390625q-0.703125 0 -1.15625 -0.453125q-0.4375 -0.453125 -0.546875 -1.625q-0.078125 -0.734375 -0.34375 -1.03125q-0.265625 -0.296875 -0.625 -0.296875q-0.5625 0 -0.96875 0.59375q-0.609375 0.90625 -0.609375 2.765625q0 1.546875 0.484375 2.96875q0.5 1.40625 1.359375 2.09375q0.640625 0.515625 1.515625 0.515625q0.578125 0 1.09375 -0.265625q0.515625 -0.28125 1.21875 -1.03125zm10.996094 -3.046875l-6.015625 0q0.109375 2.1875 1.15625 3.453125q0.8125 0.96875 1.953125 0.96875q0.703125 0 1.265625 -0.390625q0.578125 -0.390625 1.234375 -1.421875l0.40625 0.265625q-0.890625 1.8125 -1.96875 2.578125q-1.078125 0.75 -2.5 0.75q-2.4375 0 -3.6875 -1.875q-1.015625 -1.515625 -1.015625 -3.75q0 -2.75 1.484375 -4.359375q1.484375 -1.625 3.484375 -1.625q1.65625 0 2.875 1.359375q1.234375 1.359375 1.328125 4.046875zm-2.890625 -0.78125q0 -1.890625 -0.203125 -2.59375q-0.203125 -0.703125 -0.640625 -1.0625q-0.234375 -0.21875 -0.65625 -0.21875q-0.609375 0 -0.984375 0.609375q-0.703125 1.03125 -0.703125 2.859375l0 0.40625l3.1875 0zm6.4804688 6.65625l0 -0.4375q0.703125 0 0.953125 -0.359375q0.265625 -0.359375 0.265625 -1.4375l0 -7.984375l-1.078125 0q-1.15625 0 -1.609375 0.40625q-0.4375 0.40625 -0.6875 1.71875l-0.4375 0l0 -2.859375l10.921875 0l0 2.859375l-0.4375 0q-0.203125 -1.171875 -0.625 -1.640625q-0.40625 -0.484375 -1.640625 -0.484375l-1.125 0l0 7.984375q0 1.109375 0.265625 1.453125q0.265625 0.328125 0.96875 0.34375l0 0.4375l-5.734375 0zm9.6640625 0l0 -0.4375q0.671875 -0.09375 0.90625 -0.453125q0.25 -0.359375 0.25 -1.3125l0 -6.625q0 -0.890625 -0.25 -1.234375q-0.25 -0.359375 -0.90625 -0.46875l0 -0.421875l5.59375 0l0 0.421875q-0.703125 0.109375 -0.9375 0.5q-0.21875 0.375 -0.21875 1.375l0 2.609375l0.84375 0q2.859375 0 4.3125 0.8125q1.453125 0.8125 1.453125 2.25q0 1.359375 -1.296875 2.171875q-1.28125 0.8125 -3.8125 0.8125l-5.9375 0zm4.4375 -5.3125l0 3.40625q0 0.796875 0.265625 0.984375q0.265625 0.1875 0.640625 0.1875q0.90625 0 1.578125 -0.625q0.6875 -0.625 0.6875 -1.6875q0 -2.265625 -3.171875 -2.265625z" fill-rule="nonzero"></path><path fill="#000000" d="m418.9004 111.02347q-1.484375 0 -2.421875 -0.40625q-0.921875 -0.390625 -1.453125 -1.203125q-0.515625 -0.8125 -0.765625 -2.109375q-0.234375 -1.3125 -0.234375 -3.5625q0 -2.265625 0.234375 -3.578125q0.25 -1.328125 0.765625 -2.140625q0.53125 -0.8125 1.46875 -1.21875q0.953125 -0.40625 2.40625 -0.40625l0 0.859375q-0.5 0 -0.875 0.109375q-0.375 0.09375 -0.65625 0.375q-0.34375 0.34375 -0.53125 0.953125q-0.234375 0.71875 -0.34375 1.9375q-0.109375 1.203125 -0.109375 3.046875q0 1.6875 0.09375 2.859375q0.109375 1.265625 0.34375 2.03125q0.1875 0.640625 0.484375 0.984375q0.234375 0.296875 0.578125 0.4375q0.390625 0.171875 1.015625 0.171875l0 0.859375zm9.28125 -13.78125l0 2.21875l-1.078125 0q-0.171875 -0.65625 -0.40625 -1.015625q-0.234375 -0.359375 -0.59375 -0.53125q-0.359375 -0.171875 -0.9375 -0.171875q-0.765625 0 -1.359375 0.46875q-0.59375 0.46875 -0.9375 1.515625q-0.34375 1.03125 -0.34375 2.609375q0 1.375 0.21875 2.375q0.234375 1.0 0.703125 1.5625q0.484375 0.546875 1.171875 0.546875q0.6875 0 1.015625 -0.40625q0.328125 -0.40625 0.328125 -1.3125l0 -0.296875q0 -0.59375 -0.046875 -0.84375q-0.03125 -0.25 -0.109375 -0.375q-0.078125 -0.125 -0.21875 -0.203125q-0.125 -0.078125 -0.46875 -0.1875l0 -0.515625l4.0 0l0 0.515625q-0.390625 0.125 -0.53125 0.28125q-0.140625 0.140625 -0.1875 0.390625q-0.046875 0.234375 -0.046875 0.6875l0 2.9375l-1.125 0.25l-0.53125 -0.578125q-0.9375 0.578125 -2.140625 0.578125q-2.28125 0 -3.40625 -1.328125q-1.109375 -1.34375 -1.109375 -4.046875q0 -1.421875 0.390625 -2.5q0.40625 -1.078125 1.109375 -1.75q0.703125 -0.671875 1.59375 -0.984375q0.890625 -0.3125 1.90625 -0.3125q1.703125 0 3.140625 0.421875zm9.140625 8.953125q-0.796875 0.84375 -1.578125 1.203125q-0.78125 0.34375 -1.796875 0.34375q-1.828125 0 -2.75 -1.0q-0.90625 -1.0 -0.90625 -2.953125q0 -1.265625 0.46875 -2.1875q0.46875 -0.921875 1.328125 -1.390625q0.875 -0.46875 2.03125 -0.46875q0.703125 0 1.234375 0.171875q0.546875 0.15625 0.921875 0.453125q0.390625 0.28125 0.640625 0.703125q0.296875 0.484375 0.4375 1.125q0.15625 0.640625 0.171875 1.5625l-4.953125 0q0 1.421875 0.5 2.09375q0.5 0.65625 1.515625 0.65625q0.59375 0 1.0625 -0.21875q0.484375 -0.21875 1.03125 -0.78125l0.640625 0.6875zm-2.109375 -3.28125q-0.03125 -1.1875 -0.3125 -1.765625q-0.28125 -0.59375 -0.90625 -0.59375q-0.609375 0 -0.96875 0.609375q-0.34375 0.609375 -0.421875 1.75l2.609375 0zm12.0234375 4.703125l-3.796875 0l0 -0.515625q0.359375 -0.09375 0.5 -0.25q0.140625 -0.171875 0.1875 -0.453125q0.0625 -0.296875 0.0625 -1.03125l0 -2.09375q0 -0.546875 -0.03125 -0.90625q-0.015625 -0.359375 -0.078125 -0.578125q-0.046875 -0.234375 -0.140625 -0.375q-0.078125 -0.15625 -0.1875 -0.25q-0.109375 -0.109375 -0.25 -0.15625q-0.140625 -0.046875 -0.359375 -0.046875q-0.296875 0 -0.625 0.1875q-0.3125 0.1875 -0.53125 0.515625q-0.21875 0.3125 -0.21875 0.6875l0 3.0q0 0.75 0.046875 1.046875q0.046875 0.28125 0.1875 0.453125q0.140625 0.15625 0.515625 0.25l0 0.515625l-3.78125 0l0 -0.515625q0.375 -0.109375 0.515625 -0.265625q0.15625 -0.171875 0.203125 -0.453125q0.046875 -0.28125 0.046875 -1.015625l0 -3.21875q0 -0.578125 -0.015625 -0.84375q-0.015625 -0.28125 -0.09375 -0.453125q-0.078125 -0.171875 -0.234375 -0.265625q-0.140625 -0.109375 -0.515625 -0.1875l0 -0.53125l2.140625 -0.0625l0.984375 0l-0.125 1.125l0.09375 0.015625q0.484375 -0.421875 0.84375 -0.671875q0.375 -0.25 0.78125 -0.390625q0.40625 -0.140625 0.84375 -0.140625q0.640625 0 1.0625 0.1875q0.421875 0.171875 0.6875 0.53125q0.265625 0.34375 0.375 0.859375q0.109375 0.5 0.109375 1.171875l0 2.859375q0 0.34375 0.015625 0.65625q0.015625 0.296875 0.0625 0.484375q0.046875 0.171875 0.125 0.28125q0.078125 0.109375 0.21875 0.1875q0.15625 0.078125 0.375 0.140625l0 0.515625zm8.234375 -1.421875q-0.796875 0.84375 -1.578125 1.203125q-0.78125 0.34375 -1.796875 0.34375q-1.828125 0 -2.75 -1.0q-0.90625 -1.0 -0.90625 -2.953125q0 -1.265625 0.46875 -2.1875q0.46875 -0.921875 1.328125 -1.390625q0.875 -0.46875 2.03125 -0.46875q0.703125 0 1.234375 0.171875q0.546875 0.15625 0.921875 0.453125q0.390625 0.28125 0.640625 0.703125q0.296875 0.484375 0.4375 1.125q0.15625 0.640625 0.171875 1.5625l-4.953125 0q0 1.421875 0.5 2.09375q0.5 0.65625 1.515625 0.65625q0.59375 0 1.0625 -0.21875q0.484375 -0.21875 1.03125 -0.78125l0.640625 0.6875zm-2.109375 -3.28125q-0.03125 -1.1875 -0.3125 -1.765625q-0.28125 -0.59375 -0.90625 -0.59375q-0.609375 0 -0.96875 0.609375q-0.34375 0.609375 -0.421875 1.75l2.609375 0zm6.4453125 -1.9375l0.09375 0.03125q0.578125 -0.671875 1.171875 -0.96875q0.609375 -0.296875 1.3125 -0.296875q0.46875 0 1.0 0.09375l0 2.15625l-1.421875 0q-0.125 -0.453125 -0.34375 -0.6875q-0.21875 -0.25 -0.578125 -0.25q-0.171875 0 -0.375 0.109375q-0.203125 0.109375 -0.390625 0.296875q-0.171875 0.1875 -0.25 0.390625q-0.0625 0.203125 -0.09375 0.40625q-0.015625 0.203125 -0.015625 0.609375l0 2.484375q0 0.75 0.046875 1.046875q0.0625 0.296875 0.21875 0.46875q0.171875 0.15625 0.5625 0.234375l0 0.515625l-3.859375 0l0 -0.515625q0.375 -0.109375 0.515625 -0.265625q0.15625 -0.171875 0.203125 -0.453125q0.046875 -0.28125 0.046875 -1.015625l0 -3.21875q0 -0.578125 -0.015625 -0.84375q-0.015625 -0.28125 -0.09375 -0.453125q-0.078125 -0.171875 -0.234375 -0.265625q-0.140625 -0.109375 -0.515625 -0.1875l0 -0.53125l2.140625 -0.0625l0.984375 0l-0.109375 1.171875zm9.0859375 5.609375l-0.125 -0.03125q-0.640625 0.625 -1.25 0.90625q-0.59375 0.28125 -1.28125 0.28125q-0.671875 0 -1.171875 -0.25q-0.484375 -0.25 -0.75 -0.6875q-0.25 -0.4375 -0.25 -1.0q0 -1.15625 1.125 -1.8125q1.140625 -0.65625 3.4375 -0.828125l0 -0.75q0 -0.71875 -0.171875 -1.109375q-0.15625 -0.40625 -0.421875 -0.5625q-0.25 -0.15625 -0.609375 -0.15625q-0.359375 0 -0.625 0.125q-0.265625 0.125 -0.484375 0.46875q-0.203125 0.34375 -0.296875 0.96875l-1.484375 0l0 -1.421875q0.71875 -0.328125 1.1875 -0.5q0.484375 -0.171875 0.953125 -0.28125q0.46875 -0.109375 0.828125 -0.15625q0.375 -0.046875 0.734375 -0.046875q0.953125 0 1.515625 0.25q0.5625 0.25 0.84375 0.8125q0.28125 0.5625 0.28125 1.546875l0 3.046875q0 0.515625 0.015625 0.796875q0.03125 0.28125 0.078125 0.421875q0.0625 0.140625 0.140625 0.21875q0.078125 0.078125 0.1875 0.140625q0.109375 0.046875 0.421875 0.125l0 0.515625l-2.90625 0l0.078125 -1.03125zm-0.265625 -2.65625q-1.203125 0.03125 -1.796875 0.453125q-0.578125 0.421875 -0.578125 1.234375q0 0.484375 0.265625 0.734375q0.265625 0.25 0.734375 0.25q0.359375 0 0.671875 -0.1875q0.328125 -0.1875 0.515625 -0.5q0.1875 -0.328125 0.1875 -0.6875l0 -1.296875zm9.546875 2.75q-0.6875 0.578125 -1.25 0.828125q-0.5625 0.234375 -1.1875 0.234375q-1.15625 0 -1.734375 -0.625q-0.578125 -0.640625 -0.578125 -1.90625l0 -4.375l-0.96875 0l0 -0.53125q0.46875 -0.078125 0.6875 -0.234375q0.234375 -0.15625 0.359375 -0.421875q0.125 -0.265625 0.203125 -0.6875q0.078125 -0.421875 0.109375 -1.046875l1.875 0l0 1.953125l2.21875 0l0 0.96875l-2.21875 0l0 3.53125q0 0.875 0.078125 1.296875q0.078125 0.421875 0.265625 0.625q0.203125 0.203125 0.5 0.203125q0.21875 0 0.390625 -0.03125q0.171875 -0.046875 0.359375 -0.140625q0.1875 -0.109375 0.40625 -0.296875l0.484375 0.65625zm3.46875 -9.9375l0 1.921875l-2.140625 0l0 -1.921875l2.140625 0zm-2.96875 10.359375q0.375 -0.109375 0.515625 -0.265625q0.15625 -0.171875 0.203125 -0.453125q0.046875 -0.28125 0.046875 -1.015625l0 -3.640625q0 -0.375 -0.03125 -0.609375q-0.03125 -0.234375 -0.140625 -0.375q-0.09375 -0.140625 -0.265625 -0.21875q-0.15625 -0.078125 -0.421875 -0.125l0 -0.53125l2.140625 -0.0625l0.984375 0l0 5.546875q0 0.4375 0 0.6875q0.015625 0.234375 0.03125 0.359375q0.03125 0.125 0.078125 0.234375q0.046875 0.09375 0.109375 0.1875q0.078125 0.078125 0.203125 0.15625q0.140625 0.0625 0.359375 0.125l0 0.515625l-3.8125 0l0 -0.515625zm8.40625 -7.234375l0 0.515625q-0.359375 0.0625 -0.53125 0.203125q-0.171875 0.140625 -0.171875 0.421875q0 0.375 0.203125 0.984375l1.125 3.40625l1.234375 -2.984375q0.15625 -0.375 0.234375 -0.65625q0.078125 -0.296875 0.078125 -0.5625q0 -0.328125 -0.1875 -0.546875q-0.1875 -0.21875 -0.53125 -0.265625l0 -0.515625l3.046875 0l0 0.515625q-0.234375 0.078125 -0.375 0.1875q-0.125 0.09375 -0.25 0.265625q-0.125 0.15625 -0.296875 0.484375q-0.171875 0.3125 -0.46875 0.96875l-2.4375 5.40625l-1.46875 0l-2.0625 -5.953125q-0.21875 -0.609375 -0.359375 -0.84375q-0.125 -0.234375 -0.28125 -0.34375q-0.15625 -0.125 -0.390625 -0.171875l0 -0.515625l3.890625 0zm12.1953125 6.328125q-0.796875 0.84375 -1.578125 1.203125q-0.78125 0.34375 -1.796875 0.34375q-1.828125 0 -2.75 -1.0q-0.90625 -1.0 -0.90625 -2.953125q0 -1.265625 0.46875 -2.1875q0.46875 -0.921875 1.328125 -1.390625q0.875 -0.46875 2.03125 -0.46875q0.703125 0 1.234375 0.171875q0.546875 0.15625 0.921875 0.453125q0.390625 0.28125 0.640625 0.703125q0.296875 0.484375 0.4375 1.125q0.15625 0.640625 0.171875 1.5625l-4.953125 0q0 1.421875 0.5 2.09375q0.5 0.65625 1.515625 0.65625q0.59375 0 1.0625 -0.21875q0.484375 -0.21875 1.03125 -0.78125l0.640625 0.6875zm-2.109375 -3.28125q-0.03125 -1.1875 -0.3125 -1.765625q-0.28125 -0.59375 -0.90625 -0.59375q-0.609375 0 -0.96875 0.609375q-0.34375 0.609375 -0.421875 1.75l2.609375 0zm15.546875 4.703125l-3.796875 0l0 -0.515625q0.359375 -0.09375 0.5 -0.25q0.140625 -0.171875 0.1875 -0.453125q0.0625 -0.296875 0.0625 -1.03125l0 -2.09375q0 -0.546875 -0.03125 -0.90625q-0.015625 -0.359375 -0.078125 -0.578125q-0.046875 -0.234375 -0.140625 -0.375q-0.078125 -0.15625 -0.1875 -0.25q-0.109375 -0.109375 -0.25 -0.15625q-0.140625 -0.046875 -0.359375 -0.046875q-0.296875 0 -0.625 0.1875q-0.3125 0.1875 -0.53125 0.515625q-0.21875 0.3125 -0.21875 0.6875l0 3.0q0 0.75 0.046875 1.046875q0.046875 0.28125 0.1875 0.453125q0.140625 0.15625 0.515625 0.25l0 0.515625l-3.78125 0l0 -0.515625q0.375 -0.109375 0.515625 -0.265625q0.15625 -0.171875 0.203125 -0.453125q0.046875 -0.28125 0.046875 -1.015625l0 -3.21875q0 -0.578125 -0.015625 -0.84375q-0.015625 -0.28125 -0.09375 -0.453125q-0.078125 -0.171875 -0.234375 -0.265625q-0.140625 -0.109375 -0.515625 -0.1875l0 -0.53125l2.140625 -0.0625l0.984375 0l-0.125 1.125l0.09375 0.015625q0.484375 -0.421875 0.84375 -0.671875q0.375 -0.25 0.78125 -0.390625q0.40625 -0.140625 0.84375 -0.140625q0.640625 0 1.0625 0.1875q0.421875 0.171875 0.6875 0.53125q0.265625 0.34375 0.375 0.859375q0.109375 0.5 0.109375 1.171875l0 2.859375q0 0.34375 0.015625 0.65625q0.015625 0.296875 0.0625 0.484375q0.046875 0.171875 0.125 0.28125q0.078125 0.109375 0.21875 0.1875q0.15625 0.078125 0.375 0.140625l0 0.515625zm8.234375 -1.421875q-0.796875 0.84375 -1.578125 1.203125q-0.78125 0.34375 -1.796875 0.34375q-1.828125 0 -2.75 -1.0q-0.90625 -1.0 -0.90625 -2.953125q0 -1.265625 0.46875 -2.1875q0.46875 -0.921875 1.328125 -1.390625q0.875 -0.46875 2.03125 -0.46875q0.703125 0 1.234375 0.171875q0.546875 0.15625 0.921875 0.453125q0.390625 0.28125 0.640625 0.703125q0.296875 0.484375 0.4375 1.125q0.15625 0.640625 0.171875 1.5625l-4.953125 0q0 1.421875 0.5 2.09375q0.5 0.65625 1.515625 0.65625q0.59375 0 1.0625 -0.21875q0.484375 -0.21875 1.03125 -0.78125l0.640625 0.6875zm-2.109375 -3.28125q-0.03125 -1.1875 -0.3125 -1.765625q-0.28125 -0.59375 -0.90625 -0.59375q-0.609375 0 -0.96875 0.609375q-0.34375 0.609375 -0.421875 1.75l2.609375 0zm8.8671875 3.765625q-0.6875 0.578125 -1.25 0.828125q-0.5625 0.234375 -1.1875 0.234375q-1.15625 0 -1.734375 -0.625q-0.578125 -0.640625 -0.578125 -1.90625l0 -4.375l-0.96875 0l0 -0.53125q0.46875 -0.078125 0.6875 -0.234375q0.234375 -0.15625 0.359375 -0.421875q0.125 -0.265625 0.203125 -0.6875q0.078125 -0.421875 0.109375 -1.046875l1.875 0l0 1.953125l2.21875 0l0 0.96875l-2.21875 0l0 3.53125q0 0.875 0.078125 1.296875q0.078125 0.421875 0.265625 0.625q0.203125 0.203125 0.5 0.203125q0.21875 0 0.390625 -0.03125q0.171875 -0.046875 0.359375 -0.140625q0.1875 -0.109375 0.40625 -0.296875l0.484375 0.65625zm7.65625 1.015625l-1.46875 -5.046875l-1.71875 5.046875l-1.578125 0l-1.890625 -5.953125q-0.171875 -0.546875 -0.296875 -0.78125q-0.109375 -0.25 -0.265625 -0.390625q-0.140625 -0.140625 -0.390625 -0.1875l0 -0.515625l3.8125 0l0 0.515625q-0.359375 0.0625 -0.546875 0.21875q-0.1875 0.15625 -0.1875 0.453125q0 0.1875 0.0625 0.4375q0.0625 0.234375 0.140625 0.5l0.984375 3.234375l1.796875 -5.359375l1.453125 0l1.515625 5.359375l1.015625 -2.8125q0.15625 -0.421875 0.21875 -0.703125q0.0625 -0.296875 0.0625 -0.515625q0 -0.328125 -0.1875 -0.546875q-0.1875 -0.21875 -0.53125 -0.265625l0 -0.515625l2.9375 0l0 0.515625q-0.234375 0.078125 -0.359375 0.171875q-0.125 0.09375 -0.25 0.265625q-0.109375 0.15625 -0.25 0.46875q-0.140625 0.3125 -0.421875 1.0l-2.09375 5.40625l-1.5625 0zm9.4140625 0.046875q-1.15625 0 -1.984375 -0.40625q-0.828125 -0.40625 -1.296875 -1.28125q-0.46875 -0.890625 -0.46875 -2.265625q0 -1.046875 0.28125 -1.8125q0.296875 -0.765625 0.8125 -1.265625q0.515625 -0.5 1.21875 -0.734375q0.71875 -0.234375 1.5625 -0.234375q1.890625 0 2.84375 1.0q0.96875 0.984375 0.96875 2.90625q0 1.359375 -0.484375 2.28125q-0.46875 0.921875 -1.359375 1.375q-0.875 0.4375 -2.09375 0.4375zm-1.375 -4.125q0 1.65625 0.359375 2.484375q0.375 0.828125 1.125 0.828125q0.421875 0 0.6875 -0.203125q0.28125 -0.21875 0.453125 -0.609375q0.171875 -0.40625 0.234375 -0.96875q0.078125 -0.5625 0.078125 -1.25q0 -1.6875 -0.375 -2.515625q-0.375 -0.828125 -1.09375 -0.828125q-0.53125 0 -0.859375 0.34375q-0.3125 0.328125 -0.46875 1.0q-0.140625 0.671875 -0.140625 1.71875zm9.609375 -2.640625l0.09375 0.03125q0.578125 -0.671875 1.171875 -0.96875q0.609375 -0.296875 1.3125 -0.296875q0.46875 0 1.0 0.09375l0 2.15625l-1.421875 0q-0.125 -0.453125 -0.34375 -0.6875q-0.21875 -0.25 -0.578125 -0.25q-0.171875 0 -0.375 0.109375q-0.203125 0.109375 -0.390625 0.296875q-0.171875 0.1875 -0.25 0.390625q-0.0625 0.203125 -0.09375 0.40625q-0.015625 0.203125 -0.015625 0.609375l0 2.484375q0 0.75 0.046875 1.046875q0.0625 0.296875 0.21875 0.46875q0.171875 0.15625 0.5625 0.234375l0 0.515625l-3.859375 0l0 -0.515625q0.375 -0.109375 0.515625 -0.265625q0.15625 -0.171875 0.203125 -0.453125q0.046875 -0.28125 0.046875 -1.015625l0 -3.21875q0 -0.578125 -0.015625 -0.84375q-0.015625 -0.28125 -0.09375 -0.453125q-0.078125 -0.171875 -0.234375 -0.265625q-0.140625 -0.109375 -0.515625 -0.1875l0 -0.53125l2.140625 -0.0625l0.984375 0l-0.109375 1.171875zm9.9921875 1.703125l2.015625 2.984375q0.4375 0.671875 0.640625 0.921875q0.21875 0.25 0.375 0.359375q0.15625 0.09375 0.390625 0.15625l0 0.515625l-3.8125 0l0 -0.515625q0.34375 -0.078125 0.34375 -0.375q0 -0.203125 -0.140625 -0.46875q-0.125 -0.28125 -0.53125 -0.875l-0.59375 -0.90625q-0.203125 -0.296875 -0.328125 -0.4375q-0.125 -0.140625 -0.25 -0.203125q-0.125 -0.078125 -0.34375 -0.078125l-0.375 0l0 1.59375q0 0.75 0.046875 1.03125q0.046875 0.28125 0.1875 0.453125q0.15625 0.15625 0.546875 0.265625l0 0.515625l-3.828125 0l0 -0.515625q0.234375 -0.0625 0.359375 -0.125q0.140625 -0.078125 0.21875 -0.171875q0.078125 -0.109375 0.125 -0.25q0.0625 -0.15625 0.078125 -0.421875q0.015625 -0.28125 0.015625 -0.78125l0 -6.09375q0 -0.671875 -0.015625 -0.984375q-0.015625 -0.3125 -0.0625 -0.53125q-0.03125 -0.21875 -0.109375 -0.34375q-0.078125 -0.125 -0.234375 -0.203125q-0.140625 -0.078125 -0.46875 -0.140625l0 -0.515625l2.171875 -0.109375l0.96875 0l0 6.578125l0.265625 0q0.265625 0 0.421875 -0.046875q0.15625 -0.0625 0.328125 -0.171875q0.171875 -0.125 0.515625 -0.4375q0.359375 -0.328125 0.53125 -0.5625q0.1875 -0.25 0.25 -0.4375q0.0625 -0.1875 0.0625 -0.359375q0 -0.53125 -0.6875 -0.625l0 -0.5l3.90625 0l0 0.5q-0.296875 0.046875 -0.671875 0.28125q-0.375 0.234375 -1.1875 0.984375l-1.125 1.046875zm3.609375 -6.28125q1.453125 0 2.375 0.390625q0.9375 0.390625 1.46875 1.203125q0.53125 0.796875 0.765625 2.109375q0.25 1.296875 0.25 3.578125q0 2.265625 -0.234375 3.59375q-0.234375 1.3125 -0.765625 2.125q-0.53125 0.8125 -1.46875 1.21875q-0.9375 0.40625 -2.390625 0.40625l0 -0.859375q0.5 0 0.875 -0.109375q0.375 -0.09375 0.65625 -0.375q0.328125 -0.34375 0.53125 -0.953125q0.234375 -0.71875 0.34375 -1.9375q0.109375 -1.21875 0.109375 -3.046875q0 -1.703125 -0.109375 -2.875q-0.09375 -1.25 -0.328125 -2.015625q-0.203125 -0.640625 -0.484375 -0.984375q-0.25 -0.296875 -0.59375 -0.4375q-0.375 -0.171875 -1.0 -0.171875l0 -0.859375z" fill-rule="nonzero"></path><path fill="#000000" fill-opacity="0.0" d="m275.5092 87.25722l99.46457 0" fill-rule="evenodd"></path><path stroke="#000000" stroke-width="1.0" stroke-linejoin="round" stroke-linecap="butt" d="m275.5092 87.25722l93.46457 0" fill-rule="evenodd"></path><path fill="#000000" stroke="#000000" stroke-width="1.0" stroke-linecap="butt" d="m368.97375 88.90895l4.538086 -1.6517334l-4.538086 -1.6517334z" fill-rule="evenodd"></path><path fill="#d9ead3" d="m709.9869 162.07124l0 0c0 -10.329819 8.373962 -18.703796 18.703796 -18.703796l225.64752 0c4.9605713 0 9.717957 1.970581 13.225586 5.4782257c3.5076294 3.5076294 5.4782104 8.265015 5.4782104 13.225571l0 74.8129c0 10.329819 -8.373962 18.703781 -18.703796 18.703781l-225.64752 0c-10.329834 0 -18.703796 -8.373962 -18.703796 -18.703781z" fill-rule="evenodd"></path><path stroke="#00ff00" stroke-width="1.0" stroke-linejoin="round" stroke-linecap="butt" d="m709.9869 162.07124l0 0c0 -10.329819 8.373962 -18.703796 18.703796 -18.703796l225.64752 0c4.9605713 0 9.717957 1.970581 13.225586 5.4782257c3.5076294 3.5076294 5.4782104 8.265015 5.4782104 13.225571l0 74.8129c0 10.329819 -8.373962 18.703781 -18.703796 18.703781l-225.64752 0c-10.329834 0 -18.703796 -8.373962 -18.703796 -18.703781z" fill-rule="evenodd"></path><path fill="#000000" d="m736.75665 168.12706l13.125 0l0 0.4375q-1.453125 0.046875 -1.859375 0.4375q-0.390625 0.375 -0.390625 1.65625l0 10.609375q0 1.015625 0.140625 1.421875q0.15625 0.390625 0.671875 0.640625q0.53125 0.25 1.4375 0.25l0 5.078125l-0.421875 0q-0.140625 -2.0625 -1.5 -3.359375q-1.359375 -1.28125 -3.734375 -1.28125l-4.328125 0q-2.4375 0 -3.921875 1.203125q-1.484375 1.203125 -1.71875 3.4375l-0.4375 0l0 -5.078125q2.890625 -0.578125 4.140625 -3.90625q1.25 -3.328125 1.25 -8.921875q0 -1.34375 -0.46875 -1.765625q-0.453125 -0.421875 -1.984375 -0.421875l0 -0.4375zm7.46875 1.03125l-4.0 0l0 1.359375q0 2.859375 -0.390625 5.578125q-0.375 2.71875 -1.046875 4.28125q-0.671875 1.546875 -1.78125 2.609375l5.65625 0q1.15625 0 1.359375 -0.15625q0.203125 -0.15625 0.203125 -1.03125l0 -12.640625zm13.527344 14.859375l0 -0.4375q1.046875 0 1.046875 -1.5625l0 -5.375l-3.140625 5.375q0.015625 1.53125 1.078125 1.5625l0 0.4375l-5.578125 0l0 -0.4375q0.65625 0 0.9375 -0.375q0.28125 -0.375 0.28125 -1.3125l0 -6.765625q0 -1.640625 -1.21875 -1.640625l0 -0.421875l5.578125 0l0 0.421875q-0.609375 0.03125 -0.84375 0.359375q-0.234375 0.328125 -0.234375 1.28125l0 5.34375l3.140625 -5.4375q0 -0.859375 -0.25 -1.203125q-0.25 -0.34375 -0.796875 -0.34375l0 -0.421875l5.578125 0l0 0.421875q-0.640625 0.015625 -0.953125 0.328125q-0.296875 0.296875 -0.296875 1.171875l0 6.96875q0 0.96875 0.28125 1.296875q0.28125 0.328125 0.96875 0.328125l0 0.4375l-5.578125 0zm16.15625 -2.828125l0.359375 0.28125q-0.765625 1.453125 -1.921875 2.171875q-1.15625 0.703125 -2.453125 0.703125q-2.1875 0 -3.5 -1.65625q-1.3125 -1.65625 -1.3125 -3.96875q0 -2.234375 1.1875 -3.9375q1.4375 -2.046875 3.96875 -2.046875q1.703125 0 2.703125 0.859375q1.0 0.84375 1.0 1.90625q0 0.65625 -0.40625 1.0625q-0.390625 0.390625 -1.046875 0.390625q-0.703125 0 -1.15625 -0.453125q-0.4375 -0.453125 -0.546875 -1.625q-0.078125 -0.734375 -0.34375 -1.03125q-0.265625 -0.296875 -0.625 -0.296875q-0.5625 0 -0.96875 0.59375q-0.609375 0.90625 -0.609375 2.765625q0 1.546875 0.484375 2.96875q0.5 1.40625 1.359375 2.09375q0.640625 0.515625 1.515625 0.515625q0.578125 0 1.09375 -0.265625q0.515625 -0.28125 1.21875 -1.03125zm1.7304688 -8.125l5.578125 0l0 0.421875q-0.625 0.03125 -0.84375 0.359375q-0.21875 0.328125 -0.21875 1.390625l0 2.703125q1.3125 0 1.796875 -0.421875q0.484375 -0.4375 0.9375 -1.640625q0.625 -1.703125 1.25 -2.34375q0.640625 -0.65625 1.75 -0.65625q0.921875 0 1.609375 0.515625q0.703125 0.515625 0.703125 1.375q0 0.65625 -0.40625 1.125q-0.40625 0.453125 -1.046875 0.453125q-1.328125 0 -1.359375 -1.359375q0 -0.9375 -0.40625 -0.9375q-0.59375 0 -1.203125 1.59375q-0.5 1.3125 -0.6875 1.65625q-0.1875 0.34375 -0.640625 0.75q1.1875 0.234375 1.71875 0.640625q0.53125 0.390625 1.40625 1.8125l1.03125 1.671875q0.828125 1.34375 1.734375 1.40625l0 0.4375l-4.21875 0l-3.265625 -5.328125l-0.703125 0l0 3.046875q0 1.03125 0.25 1.421875q0.25 0.390625 0.8125 0.421875l0 0.4375l-5.578125 0l0 -0.4375q0.5625 -0.015625 0.890625 -0.296875q0.34375 -0.28125 0.34375 -1.421875l0 -6.46875q0 -1.09375 -0.265625 -1.5q-0.265625 -0.40625 -0.96875 -0.40625l0 -0.421875zm18.046875 9.84375l0 4.078125q0 0.84375 0.140625 1.140625q0.140625 0.3125 0.421875 0.453125q0.28125 0.140625 1.09375 0.140625l0 0.4375l-6.25 0l0 -0.4375q0.734375 -0.03125 1.078125 -0.40625q0.234375 -0.28125 0.234375 -1.40625l0 -11.5625q0 -1.15625 -0.265625 -1.484375q-0.265625 -0.328125 -1.046875 -0.375l0 -0.421875l4.59375 0l0 1.4375q0.578125 -0.84375 1.171875 -1.21875q0.859375 -0.546875 1.875 -0.546875q1.203125 0 2.1875 0.765625q1.0 0.75 1.515625 2.09375q0.515625 1.34375 0.515625 2.890625q0 1.65625 -0.546875 3.046875q-0.53125 1.375 -1.546875 2.09375q-1.0 0.71875 -2.25 0.71875q-0.90625 0 -1.6875 -0.40625q-0.578125 -0.296875 -1.234375 -1.03125zm0 -1.1875q1.015625 1.421875 2.15625 1.421875q0.640625 0 1.046875 -0.65625q0.609375 -0.984375 0.609375 -3.75q0 -2.84375 -0.671875 -3.890625q-0.4375 -0.6875 -1.1875 -0.6875q-1.1875 0 -1.953125 1.71875l0 5.84375zm15.722656 2.296875l0 -0.4375q1.046875 0 1.046875 -1.5625l0 -5.375l-3.140625 5.375q0.015625 1.53125 1.078125 1.5625l0 0.4375l-5.578125 0l0 -0.4375q0.65625 0 0.9375 -0.375q0.28125 -0.375 0.28125 -1.3125l0 -6.765625q0 -1.640625 -1.21875 -1.640625l0 -0.421875l5.578125 0l0 0.421875q-0.609375 0.03125 -0.84375 0.359375q-0.234375 0.328125 -0.234375 1.28125l0 5.34375l3.140625 -5.4375q0 -0.859375 -0.25 -1.203125q-0.25 -0.34375 -0.796875 -0.34375l0 -0.421875l5.578125 0l0 0.421875q-0.640625 0.015625 -0.953125 0.328125q-0.296875 0.296875 -0.296875 1.171875l0 6.96875q0 0.96875 0.28125 1.296875q0.28125 0.328125 0.96875 0.328125l0 0.4375l-5.578125 0zm7.265625 -10.953125l4.578125 0l2.78125 6.796875l2.78125 -6.796875l4.453125 0l0 0.421875q-0.640625 0.046875 -0.90625 0.390625q-0.265625 0.34375 -0.265625 1.234375l0 6.8125q0 0.921875 0.25 1.28125q0.25 0.34375 0.921875 0.375l0 0.4375l-5.765625 0l0 -0.4375q0.71875 -0.015625 1.015625 -0.390625q0.296875 -0.375 0.296875 -1.265625l0 -7.03125l-3.828125 9.125l-0.59375 0l-3.703125 -8.984375l0 7.078125q0 0.75 0.25 1.09375q0.265625 0.34375 1.015625 0.375l0 0.4375l-3.28125 0l0 -0.4375q0.65625 -0.015625 0.921875 -0.359375q0.28125 -0.359375 0.28125 -1.203125l0 -6.984375q0 -0.8125 -0.265625 -1.15625q-0.265625 -0.34375 -0.9375 -0.390625l0 -0.421875zm22.910156 10.953125l0 -0.4375q1.046875 0 1.046875 -1.5625l0 -5.375l-3.140625 5.375q0.015625 1.53125 1.078125 1.5625l0 0.4375l-5.578125 0l0 -0.4375q0.65625 0 0.9375 -0.375q0.28125 -0.375 0.28125 -1.3125l0 -6.765625q0 -1.640625 -1.21875 -1.640625l0 -0.421875l5.578125 0l0 0.421875q-0.609375 0.03125 -0.84375 0.359375q-0.234375 0.328125 -0.234375 1.28125l0 5.34375l3.140625 -5.4375q0 -0.859375 -0.25 -1.203125q-0.25 -0.34375 -0.796875 -0.34375l0 -0.421875l5.578125 0l0 0.421875q-0.640625 0.015625 -0.953125 0.328125q-0.296875 0.296875 -0.296875 1.171875l0 6.96875q0 0.96875 0.28125 1.296875q0.28125 0.328125 0.96875 0.328125l0 0.4375l-5.578125 0zm7.234375 0l0 -0.4375q0.671875 0 0.9375 -0.34375q0.28125 -0.34375 0.28125 -1.3125l0 -6.734375q0 -1.03125 -0.265625 -1.359375q-0.265625 -0.34375 -0.953125 -0.34375l0 -0.421875l5.578125 0l0 0.421875q-0.59375 0.03125 -0.84375 0.3125q-0.234375 0.28125 -0.234375 1.28125l0 2.890625l3.140625 0l0 -2.890625q0 -0.828125 -0.171875 -1.203125q-0.171875 -0.390625 -0.875 -0.390625l0 -0.421875l5.5625 0l0 0.421875q-0.671875 0 -0.953125 0.34375q-0.28125 0.328125 -0.28125 1.109375l0 6.984375q0 1.03125 0.265625 1.34375q0.28125 0.296875 0.96875 0.3125l0 0.4375l-5.5625 0l0 -0.4375q0.578125 -0.015625 0.8125 -0.265625q0.234375 -0.265625 0.234375 -1.3125l0 -3.296875l-3.140625 0l0 3.21875q0 1.03125 0.234375 1.34375q0.25 0.3125 0.84375 0.3125l0 0.4375l-5.578125 0zm19.859375 -1.625q-2.0 1.78125 -3.59375 1.78125q-0.9375 0 -1.5625 -0.609375q-0.625 -0.625 -0.625 -1.546875q0 -1.265625 1.078125 -2.265625q1.078125 -1.0 4.703125 -2.65625l0 -1.109375q0 -1.234375 -0.140625 -1.5625q-0.125 -0.328125 -0.5 -0.5625q-0.375 -0.234375 -0.84375 -0.234375q-0.765625 0 -1.265625 0.328125q-0.296875 0.21875 -0.296875 0.5q0 0.25 0.328125 0.609375q0.4375 0.5 0.4375 0.96875q0 0.578125 -0.421875 0.984375q-0.421875 0.40625 -1.125 0.40625q-0.734375 0 -1.234375 -0.4375q-0.5 -0.453125 -0.5 -1.0625q0 -0.84375 0.671875 -1.609375q0.671875 -0.765625 1.859375 -1.171875q1.203125 -0.40625 2.484375 -0.40625q1.5625 0 2.46875 0.65625q0.90625 0.65625 1.1875 1.4375q0.15625 0.484375 0.15625 2.265625l0 4.25q0 0.75 0.0625 0.953125q0.0625 0.1875 0.171875 0.28125q0.125 0.09375 0.265625 0.09375q0.3125 0 0.625 -0.4375l0.359375 0.28125q-0.59375 0.859375 -1.21875 1.265625q-0.625 0.390625 -1.421875 0.390625q-0.9375 0 -1.46875 -0.4375q-0.53125 -0.453125 -0.640625 -1.34375zm0 -0.84375l0 -3.671875q-1.421875 0.828125 -2.109375 1.78125q-0.453125 0.625 -0.453125 1.28125q0 0.53125 0.375 0.9375q0.296875 0.328125 0.828125 0.328125q0.578125 0 1.359375 -0.65625zm8.171875 2.46875l0 -0.4375q0.703125 0 0.953125 -0.359375q0.265625 -0.359375 0.265625 -1.4375l0 -7.984375l-1.078125 0q-1.15625 0 -1.609375 0.40625q-0.4375 0.40625 -0.6875 1.71875l-0.4375 0l0 -2.859375l10.921875 0l0 2.859375l-0.4375 0q-0.203125 -1.171875 -0.625 -1.640625q-0.40625 -0.484375 -1.640625 -0.484375l-1.125 0l0 7.984375q0 1.109375 0.265625 1.453125q0.265625 0.328125 0.96875 0.34375l0 0.4375l-5.734375 0zm16.179688 0l0 -0.4375q1.046875 0 1.046875 -1.5625l0 -5.375l-3.140625 5.375q0.015625 1.53125 1.078125 1.5625l0 0.4375l-5.578125 0l0 -0.4375q0.65625 0 0.9375 -0.375q0.28125 -0.375 0.28125 -1.3125l0 -6.765625q0 -1.640625 -1.21875 -1.640625l0 -0.421875l5.578125 0l0 0.421875q-0.609375 0.03125 -0.84375 0.359375q-0.234375 0.328125 -0.234375 1.28125l0 5.34375l3.140625 -5.4375q0 -0.859375 -0.25 -1.203125q-0.25 -0.34375 -0.796875 -0.34375l0 -0.421875l5.578125 0l0 0.421875q-0.640625 0.015625 -0.953125 0.328125q-0.296875 0.296875 -0.296875 1.171875l0 6.96875q0 0.96875 0.28125 1.296875q0.28125 0.328125 0.96875 0.328125l0 0.4375l-5.578125 0zm7.265625 -10.953125l6.046875 0q1.890625 0 3.09375 0.6875q1.21875 0.671875 1.21875 2.03125q0 1.8125 -2.515625 2.4375q3.390625 0.40625 3.390625 2.84375q0 1.46875 -1.375 2.21875q-1.359375 0.734375 -3.75 0.734375l-6.109375 0l0 -0.4375q0.8125 -0.078125 1.0 -0.375q0.1875 -0.296875 0.1875 -1.140625l0 -6.53125q0 -1.328125 -0.21875 -1.65625q-0.203125 -0.328125 -0.96875 -0.390625l0 -0.421875zm4.640625 4.875q2.78125 -0.078125 2.78125 -2.0625q0 -2.046875 -2.78125 -2.078125l0 4.140625zm0 0.75l0 3.59375q0 0.546875 0.171875 0.78125q0.171875 0.21875 0.765625 0.21875q0.984375 0 1.671875 -0.6875q0.6875 -0.6875 0.6875 -1.75q0 -1.125 -0.765625 -1.640625q-0.765625 -0.515625 -2.53125 -0.515625zm8.2890625 5.328125l0 -0.4375q0.671875 0 0.9375 -0.34375q0.28125 -0.34375 0.28125 -1.3125l0 -6.734375q0 -1.03125 -0.265625 -1.359375q-0.265625 -0.34375 -0.953125 -0.34375l0 -0.421875l5.578125 0l0 0.421875q-0.59375 0.03125 -0.84375 0.3125q-0.234375 0.28125 -0.234375 1.28125l0 2.890625l3.140625 0l0 -2.890625q0 -0.828125 -0.171875 -1.203125q-0.171875 -0.390625 -0.875 -0.390625l0 -0.421875l5.5625 0l0 0.421875q-0.671875 0 -0.953125 0.34375q-0.28125 0.328125 -0.28125 1.109375l0 6.984375q0 1.03125 0.265625 1.34375q0.28125 0.296875 0.96875 0.3125l0 0.4375l-5.5625 0l0 -0.4375q0.578125 -0.015625 0.8125 -0.265625q0.234375 -0.265625 0.234375 -1.3125l0 -3.296875l-3.140625 0l0 3.21875q0 1.03125 0.234375 1.34375q0.25 0.3125 0.84375 0.3125l0 0.4375l-5.578125 0zm19.859375 -1.625q-2.0 1.78125 -3.59375 1.78125q-0.9375 0 -1.5625 -0.609375q-0.625 -0.625 -0.625 -1.546875q0 -1.265625 1.078125 -2.265625q1.078125 -1.0 4.703125 -2.65625l0 -1.109375q0 -1.234375 -0.140625 -1.5625q-0.125 -0.328125 -0.5 -0.5625q-0.375 -0.234375 -0.84375 -0.234375q-0.765625 0 -1.265625 0.328125q-0.296875 0.21875 -0.296875 0.5q0 0.25 0.328125 0.609375q0.4375 0.5 0.4375 0.96875q0 0.578125 -0.421875 0.984375q-0.421875 0.40625 -1.125 0.40625q-0.734375 0 -1.234375 -0.4375q-0.5 -0.453125 -0.5 -1.0625q0 -0.84375 0.671875 -1.609375q0.671875 -0.765625 1.859375 -1.171875q1.203125 -0.40625 2.484375 -0.40625q1.5625 0 2.46875 0.65625q0.90625 0.65625 1.1875 1.4375q0.15625 0.484375 0.15625 2.265625l0 4.25q0 0.75 0.0625 0.953125q0.0625 0.1875 0.171875 0.28125q0.125 0.09375 0.265625 0.09375q0.3125 0 0.625 -0.4375l0.359375 0.28125q-0.59375 0.859375 -1.21875 1.265625q-0.625 0.390625 -1.421875 0.390625q-0.9375 0 -1.46875 -0.4375q-0.53125 -0.453125 -0.640625 -1.34375zm0 -0.84375l0 -3.671875q-1.421875 0.828125 -2.109375 1.78125q-0.453125 0.625 -0.453125 1.28125q0 0.53125 0.375 0.9375q0.296875 0.328125 0.828125 0.328125q0.578125 0 1.359375 -0.65625zm17.21875 -8.484375l0 0.421875q-0.5625 0 -0.859375 0.296875q-0.296875 0.296875 -0.296875 1.40625l0 6.25q0 1.21875 0.25 1.65625q0.265625 0.4375 0.90625 0.484375l0 0.4375l-5.59375 0l0 -0.4375q1.15625 -0.0625 1.15625 -1.96875l0 -2.546875q-0.421875 0.03125 -0.484375 0.03125q-0.171875 0 -0.546875 -0.03125l-1.859375 4.953125l-4.34375 0l0 -0.4375q1.28125 -0.015625 1.828125 -1.453125l1.265625 -3.40625q-2.484375 -0.78125 -2.484375 -2.796875q0 -1.03125 0.65625 -1.75q0.65625 -0.734375 1.53125 -0.921875q0.890625 -0.1875 3.140625 -0.1875l5.734375 0zm-4.4375 0.890625q-0.6875 -0.15625 -1.15625 -0.15625q-1.0 0 -1.515625 0.609375q-0.5 0.59375 -0.5 1.515625q0 1.125 0.703125 1.78125q0.703125 0.65625 2.09375 0.65625q0.125 0 0.375 0l0 -4.40625z" fill-rule="nonzero"></path><path fill="#000000" d="m828.3719 210.18956l0.359375 0.28125q-0.765625 1.453125 -1.921875 2.171875q-1.15625 0.703125 -2.453125 0.703125q-2.1875 0 -3.5 -1.65625q-1.3125 -1.65625 -1.3125 -3.96875q0 -2.234375 1.1875 -3.9375q1.4375 -2.046875 3.96875 -2.046875q1.703125 0 2.703125 0.859375q1.0 0.84375 1.0 1.90625q0 0.65625 -0.40625 1.0625q-0.390625 0.390625 -1.046875 0.390625q-0.703125 0 -1.15625 -0.453125q-0.4375 -0.453125 -0.546875 -1.625q-0.078125 -0.734375 -0.34375 -1.03125q-0.265625 -0.296875 -0.625 -0.296875q-0.5625 0 -0.96875 0.59375q-0.609375 0.90625 -0.609375 2.765625q0 1.546875 0.484375 2.96875q0.5 1.40625 1.359375 2.09375q0.640625 0.515625 1.515625 0.515625q0.578125 0 1.09375 -0.265625q0.515625 -0.28125 1.21875 -1.03125zm10.996094 -3.046875l-6.015625 0q0.109375 2.1875 1.15625 3.453125q0.8125 0.96875 1.953125 0.96875q0.703125 0 1.265625 -0.390625q0.578125 -0.390625 1.234375 -1.421875l0.40625 0.265625q-0.890625 1.8125 -1.96875 2.578125q-1.078125 0.75 -2.5 0.75q-2.4375 0 -3.6875 -1.875q-1.015625 -1.515625 -1.015625 -3.75q0 -2.75 1.484375 -4.359375q1.484375 -1.625 3.484375 -1.625q1.65625 0 2.875 1.359375q1.234375 1.359375 1.328125 4.046875zm-2.890625 -0.78125q0 -1.890625 -0.203125 -2.59375q-0.203125 -0.703125 -0.640625 -1.0625q-0.234375 -0.21875 -0.65625 -0.21875q-0.609375 0 -0.984375 0.609375q-0.703125 1.03125 -0.703125 2.859375l0 0.40625l3.1875 0zm6.4804688 6.65625l0 -0.4375q0.703125 0 0.953125 -0.359375q0.265625 -0.359375 0.265625 -1.4375l0 -7.984375l-1.078125 0q-1.15625 0 -1.609375 0.40625q-0.4375 0.40625 -0.6875 1.71875l-0.4375 0l0 -2.859375l10.921875 0l0 2.859375l-0.4375 0q-0.203125 -1.171875 -0.625 -1.640625q-0.40625 -0.484375 -1.640625 -0.484375l-1.125 0l0 7.984375q0 1.109375 0.265625 1.453125q0.265625 0.328125 0.96875 0.34375l0 0.4375l-5.734375 0zm9.6640625 0l0 -0.4375q0.671875 -0.09375 0.90625 -0.453125q0.25 -0.359375 0.25 -1.3125l0 -6.625q0 -0.890625 -0.25 -1.234375q-0.25 -0.359375 -0.90625 -0.46875l0 -0.421875l5.59375 0l0 0.421875q-0.703125 0.109375 -0.9375 0.5q-0.21875 0.375 -0.21875 1.375l0 2.609375l0.84375 0q2.859375 0 4.3125 0.8125q1.453125 0.8125 1.453125 2.25q0 1.359375 -1.296875 2.171875q-1.28125 0.8125 -3.8125 0.8125l-5.9375 0zm4.4375 -5.3125l0 3.40625q0 0.796875 0.265625 0.984375q0.265625 0.1875 0.640625 0.1875q0.90625 0 1.578125 -0.625q0.6875 -0.625 0.6875 -1.6875q0 -2.265625 -3.171875 -2.265625z" fill-rule="nonzero"></path><path fill="#000000" d="m753.6043 237.74394q-1.484375 0 -2.421875 -0.40625q-0.921875 -0.390625 -1.453125 -1.203125q-0.515625 -0.8125 -0.765625 -2.109375q-0.234375 -1.3125 -0.234375 -3.5625q0 -2.265625 0.234375 -3.578125q0.25 -1.328125 0.765625 -2.140625q0.53125 -0.8125 1.46875 -1.21875q0.953125 -0.40625 2.40625 -0.40625l0 0.859375q-0.5 0 -0.875 0.109375q-0.375 0.09375 -0.65625 0.375q-0.34375 0.34375 -0.53125 0.953125q-0.234375 0.71875 -0.34375 1.9375q-0.109375 1.203125 -0.109375 3.046875q0 1.6875 0.09375 2.859375q0.109375 1.265625 0.34375 2.03125q0.1875 0.640625 0.484375 0.984375q0.234375 0.296875 0.578125 0.4375q0.390625 0.171875 1.015625 0.171875l0 0.859375zm5.140625 -14.078125q1.3125 0 2.1875 0.203125q0.875 0.203125 1.546875 0.640625q0.6875 0.4375 1.09375 1.046875q0.421875 0.609375 0.625 1.40625q0.203125 0.796875 0.203125 1.8125q0 1.21875 -0.28125 2.1875q-0.28125 0.96875 -0.859375 1.65625q-0.5 0.609375 -1.25 1.015625q-0.734375 0.390625 -1.6875 0.5625q-0.828125 0.140625 -2.09375 0.140625l-3.546875 0l0 -0.515625q0.296875 -0.078125 0.453125 -0.171875q0.171875 -0.09375 0.25 -0.25q0.09375 -0.15625 0.109375 -0.40625q0.03125 -0.25 0.03125 -0.625l0 -6.734375q0 -0.359375 -0.03125 -0.609375q-0.015625 -0.25 -0.09375 -0.40625q-0.078125 -0.15625 -0.25 -0.25q-0.171875 -0.109375 -0.46875 -0.1875l0 -0.515625l4.0625 0zm-0.796875 9.71875q0.140625 0.03125 0.703125 0.03125q0.859375 0 1.453125 -0.25q0.4375 -0.1875 0.734375 -0.515625q0.515625 -0.546875 0.765625 -1.40625q0.28125 -0.9375 0.28125 -2.28125q0 -1.484375 -0.40625 -2.46875q-0.390625 -0.984375 -1.109375 -1.4375q-0.71875 -0.46875 -1.734375 -0.46875q-0.484375 0 -0.6875 0.015625l0 8.78125zm10.8984375 -9.921875l0 1.921875l-2.140625 0l0 -1.921875l2.140625 0zm-2.96875 10.359375q0.375 -0.109375 0.515625 -0.265625q0.15625 -0.171875 0.203125 -0.453125q0.046875 -0.28125 0.046875 -1.015625l0 -3.640625q0 -0.375 -0.03125 -0.609375q-0.03125 -0.234375 -0.140625 -0.375q-0.09375 -0.140625 -0.265625 -0.21875q-0.15625 -0.078125 -0.421875 -0.125l0 -0.53125l2.140625 -0.0625l0.984375 0l0 5.546875q0 0.4375 0 0.6875q0.015625 0.234375 0.03125 0.359375q0.03125 0.125 0.078125 0.234375q0.046875 0.09375 0.109375 0.1875q0.078125 0.078125 0.203125 0.15625q0.140625 0.0625 0.359375 0.125l0 0.515625l-3.8125 0l0 -0.515625zm6.046875 -1.59375q0.1875 0.703125 0.59375 1.0625q0.40625 0.359375 1.078125 0.359375q0.59375 0 0.890625 -0.265625q0.296875 -0.265625 0.296875 -0.78125q0 -0.3125 -0.140625 -0.53125q-0.125 -0.234375 -0.453125 -0.4375q-0.3125 -0.21875 -1.078125 -0.546875q-0.421875 -0.1875 -0.8125 -0.40625q-0.375 -0.234375 -0.65625 -0.515625q-0.28125 -0.296875 -0.453125 -0.640625q-0.15625 -0.359375 -0.15625 -0.78125q0 -0.703125 0.40625 -1.21875q0.40625 -0.515625 1.15625 -0.78125q0.765625 -0.28125 1.734375 -0.28125q0.5625 0 1.109375 0.046875q0.546875 0.046875 1.421875 0.203125l0 1.8125l-1.03125 0q-0.1875 -0.5 -0.40625 -0.765625q-0.203125 -0.28125 -0.46875 -0.375q-0.25 -0.109375 -0.609375 -0.109375q-0.515625 0 -0.828125 0.234375q-0.296875 0.234375 -0.296875 0.65625q0 0.296875 0.109375 0.515625q0.109375 0.203125 0.390625 0.40625q0.28125 0.1875 1.078125 0.53125q0.734375 0.296875 1.1875 0.640625q0.46875 0.328125 0.703125 0.765625q0.25 0.421875 0.25 1.0q0 0.640625 -0.234375 1.09375q-0.234375 0.453125 -0.65625 0.75q-0.421875 0.296875 -1.015625 0.453125q-0.578125 0.140625 -1.296875 0.140625q-1.28125 0 -2.859375 -0.375l0 -1.859375l1.046875 0zm12.28125 0.109375l0.609375 0.71875q-0.765625 0.75 -1.484375 1.078125q-0.71875 0.328125 -1.5625 0.328125q-1.6875 0 -2.578125 -1.0q-0.890625 -1.0 -0.890625 -2.890625q0 -1.28125 0.484375 -2.21875q0.484375 -0.9375 1.390625 -1.40625q0.921875 -0.484375 2.109375 -0.484375q0.625 0 1.25 0.09375q0.640625 0.078125 1.15625 0.234375l0 1.890625l-1.546875 0q-0.125 -0.734375 -0.359375 -1.0625q-0.234375 -0.34375 -0.671875 -0.34375q-0.28125 0 -0.546875 0.140625q-0.265625 0.140625 -0.46875 0.5q-0.1875 0.359375 -0.3125 0.953125q-0.109375 0.59375 -0.109375 1.515625q0 0.90625 0.171875 1.546875q0.171875 0.625 0.546875 0.96875q0.390625 0.328125 1.015625 0.328125q0.453125 0 0.84375 -0.1875q0.40625 -0.203125 0.953125 -0.703125zm4.46875 -4.640625l0.09375 0.03125q0.578125 -0.671875 1.171875 -0.96875q0.609375 -0.296875 1.3125 -0.296875q0.46875 0 1.0 0.09375l0 2.15625l-1.421875 0q-0.125 -0.453125 -0.34375 -0.6875q-0.21875 -0.25 -0.578125 -0.25q-0.171875 0 -0.375 0.109375q-0.203125 0.109375 -0.390625 0.296875q-0.171875 0.1875 -0.25 0.390625q-0.0625 0.203125 -0.09375 0.40625q-0.015625 0.203125 -0.015625 0.609375l0 2.484375q0 0.75 0.046875 1.046875q0.0625 0.296875 0.21875 0.46875q0.171875 0.15625 0.5625 0.234375l0 0.515625l-3.859375 0l0 -0.515625q0.375 -0.109375 0.515625 -0.265625q0.15625 -0.171875 0.203125 -0.453125q0.046875 -0.28125 0.046875 -1.015625l0 -3.21875q0 -0.578125 -0.015625 -0.84375q-0.015625 -0.28125 -0.09375 -0.453125q-0.078125 -0.171875 -0.234375 -0.265625q-0.140625 -0.109375 -0.515625 -0.1875l0 -0.53125l2.140625 -0.0625l0.984375 0l-0.109375 1.171875zm7.4296875 -4.234375l0 1.921875l-2.140625 0l0 -1.921875l2.140625 0zm-2.96875 10.359375q0.375 -0.109375 0.515625 -0.265625q0.15625 -0.171875 0.203125 -0.453125q0.046875 -0.28125 0.046875 -1.015625l0 -3.640625q0 -0.375 -0.03125 -0.609375q-0.03125 -0.234375 -0.140625 -0.375q-0.09375 -0.140625 -0.265625 -0.21875q-0.15625 -0.078125 -0.421875 -0.125l0 -0.53125l2.140625 -0.0625l0.984375 0l0 5.546875q0 0.4375 0 0.6875q0.015625 0.234375 0.03125 0.359375q0.03125 0.125 0.078125 0.234375q0.046875 0.09375 0.109375 0.1875q0.078125 0.078125 0.203125 0.15625q0.140625 0.0625 0.359375 0.125l0 0.515625l-3.8125 0l0 -0.515625zm7.9375 -6.171875l0.09375 0.015625q0.71875 -0.65625 1.28125 -0.921875q0.578125 -0.28125 1.171875 -0.28125q0.578125 0 0.953125 0.15625q0.390625 0.140625 0.65625 0.421875q0.265625 0.28125 0.421875 0.75q0.796875 -0.734375 1.375 -1.03125q0.578125 -0.296875 1.21875 -0.296875q0.625 0 1.03125 0.171875q0.40625 0.15625 0.671875 0.5q0.265625 0.34375 0.390625 0.859375q0.125 0.515625 0.125 1.234375l0 2.84375q0 0.34375 0 0.65625q0.015625 0.296875 0.0625 0.484375q0.046875 0.171875 0.125 0.28125q0.09375 0.109375 0.234375 0.1875q0.15625 0.078125 0.359375 0.140625l0 0.515625l-3.765625 0l0 -0.515625q0.359375 -0.09375 0.484375 -0.25q0.140625 -0.171875 0.1875 -0.453125q0.046875 -0.296875 0.046875 -1.03125l0 -2.09375q0 -0.703125 -0.046875 -1.140625q-0.046875 -0.453125 -0.1875 -0.703125q-0.125 -0.25 -0.3125 -0.359375q-0.171875 -0.109375 -0.46875 -0.109375q-0.203125 0 -0.375 0.0625q-0.171875 0.0625 -0.359375 0.203125q-0.171875 0.125 -0.296875 0.265625q-0.125 0.125 -0.203125 0.296875q-0.0625 0.15625 -0.09375 0.359375q-0.03125 0.203125 -0.03125 0.65625l0 2.546875q0 0.53125 0.015625 0.8125q0.03125 0.28125 0.09375 0.453125q0.0625 0.171875 0.1875 0.296875q0.140625 0.109375 0.4375 0.1875l0 0.515625l-3.71875 0l0 -0.515625q0.359375 -0.09375 0.484375 -0.25q0.140625 -0.171875 0.1875 -0.453125q0.046875 -0.28125 0.046875 -1.03125l0 -2.09375q0 -0.515625 -0.015625 -0.875q-0.015625 -0.359375 -0.0625 -0.578125q-0.046875 -0.21875 -0.140625 -0.375q-0.078125 -0.171875 -0.1875 -0.265625q-0.09375 -0.109375 -0.25 -0.15625q-0.140625 -0.0625 -0.359375 -0.0625q-0.28125 0 -0.609375 0.1875q-0.3125 0.171875 -0.53125 0.5q-0.203125 0.3125 -0.203125 0.6875l0 3.015625q0 0.734375 0.03125 1.03125q0.046875 0.296875 0.1875 0.46875q0.140625 0.15625 0.5 0.25l0 0.515625l-3.75 0l0 -0.515625q0.375 -0.109375 0.515625 -0.265625q0.15625 -0.171875 0.203125 -0.453125q0.046875 -0.28125 0.046875 -1.015625l0 -3.21875q0 -0.578125 -0.015625 -0.84375q-0.015625 -0.28125 -0.09375 -0.453125q-0.078125 -0.171875 -0.234375 -0.265625q-0.140625 -0.109375 -0.515625 -0.1875l0 -0.53125l2.140625 -0.0625l0.984375 0l-0.125 1.125zm14.3046875 -4.1875l0 1.921875l-2.140625 0l0 -1.921875l2.140625 0zm-2.96875 10.359375q0.375 -0.109375 0.515625 -0.265625q0.15625 -0.171875 0.203125 -0.453125q0.046875 -0.28125 0.046875 -1.015625l0 -3.640625q0 -0.375 -0.03125 -0.609375q-0.03125 -0.234375 -0.140625 -0.375q-0.09375 -0.140625 -0.265625 -0.21875q-0.15625 -0.078125 -0.421875 -0.125l0 -0.53125l2.140625 -0.0625l0.984375 0l0 5.546875q0 0.4375 0 0.6875q0.015625 0.234375 0.03125 0.359375q0.03125 0.125 0.078125 0.234375q0.046875 0.09375 0.109375 0.1875q0.078125 0.078125 0.203125 0.15625q0.140625 0.0625 0.359375 0.125l0 0.515625l-3.8125 0l0 -0.515625zm13.53125 0.515625l-3.796875 0l0 -0.515625q0.359375 -0.09375 0.5 -0.25q0.140625 -0.171875 0.1875 -0.453125q0.0625 -0.296875 0.0625 -1.03125l0 -2.09375q0 -0.546875 -0.03125 -0.90625q-0.015625 -0.359375 -0.078125 -0.578125q-0.046875 -0.234375 -0.140625 -0.375q-0.078125 -0.15625 -0.1875 -0.25q-0.109375 -0.109375 -0.25 -0.15625q-0.140625 -0.046875 -0.359375 -0.046875q-0.296875 0 -0.625 0.1875q-0.3125 0.1875 -0.53125 0.515625q-0.21875 0.3125 -0.21875 0.6875l0 3.0q0 0.75 0.046875 1.046875q0.046875 0.28125 0.1875 0.453125q0.140625 0.15625 0.515625 0.25l0 0.515625l-3.78125 0l0 -0.515625q0.375 -0.109375 0.515625 -0.265625q0.15625 -0.171875 0.203125 -0.453125q0.046875 -0.28125 0.046875 -1.015625l0 -3.21875q0 -0.578125 -0.015625 -0.84375q-0.015625 -0.28125 -0.09375 -0.453125q-0.078125 -0.171875 -0.234375 -0.265625q-0.140625 -0.109375 -0.515625 -0.1875l0 -0.53125l2.140625 -0.0625l0.984375 0l-0.125 1.125l0.09375 0.015625q0.484375 -0.421875 0.84375 -0.671875q0.375 -0.25 0.78125 -0.390625q0.40625 -0.140625 0.84375 -0.140625q0.640625 0 1.0625 0.1875q0.421875 0.171875 0.6875 0.53125q0.265625 0.34375 0.375 0.859375q0.109375 0.5 0.109375 1.171875l0 2.859375q0 0.34375 0.015625 0.65625q0.015625 0.296875 0.0625 0.484375q0.046875 0.171875 0.125 0.28125q0.078125 0.109375 0.21875 0.1875q0.15625 0.078125 0.375 0.140625l0 0.515625zm5.78125 -1.03125l-0.125 -0.03125q-0.640625 0.625 -1.25 0.90625q-0.59375 0.28125 -1.28125 0.28125q-0.671875 0 -1.171875 -0.25q-0.484375 -0.25 -0.75 -0.6875q-0.25 -0.4375 -0.25 -1.0q0 -1.15625 1.125 -1.8125q1.140625 -0.65625 3.4375 -0.828125l0 -0.75q0 -0.71875 -0.171875 -1.109375q-0.15625 -0.40625 -0.421875 -0.5625q-0.25 -0.15625 -0.609375 -0.15625q-0.359375 0 -0.625 0.125q-0.265625 0.125 -0.484375 0.46875q-0.203125 0.34375 -0.296875 0.96875l-1.484375 0l0 -1.421875q0.71875 -0.328125 1.1875 -0.5q0.484375 -0.171875 0.953125 -0.28125q0.46875 -0.109375 0.828125 -0.15625q0.375 -0.046875 0.734375 -0.046875q0.953125 0 1.515625 0.25q0.5625 0.25 0.84375 0.8125q0.28125 0.5625 0.28125 1.546875l0 3.046875q0 0.515625 0.015625 0.796875q0.03125 0.28125 0.078125 0.421875q0.0625 0.140625 0.140625 0.21875q0.078125 0.078125 0.1875 0.140625q0.109375 0.046875 0.421875 0.125l0 0.515625l-2.90625 0l0.078125 -1.03125zm-0.265625 -2.65625q-1.203125 0.03125 -1.796875 0.453125q-0.578125 0.421875 -0.578125 1.234375q0 0.484375 0.265625 0.734375q0.265625 0.25 0.734375 0.25q0.359375 0 0.671875 -0.1875q0.328125 -0.1875 0.515625 -0.5q0.1875 -0.328125 0.1875 -0.6875l0 -1.296875zm9.546875 2.75q-0.6875 0.578125 -1.25 0.828125q-0.5625 0.234375 -1.1875 0.234375q-1.15625 0 -1.734375 -0.625q-0.578125 -0.640625 -0.578125 -1.90625l0 -4.375l-0.96875 0l0 -0.53125q0.46875 -0.078125 0.6875 -0.234375q0.234375 -0.15625 0.359375 -0.421875q0.125 -0.265625 0.203125 -0.6875q0.078125 -0.421875 0.109375 -1.046875l1.875 0l0 1.953125l2.21875 0l0 0.96875l-2.21875 0l0 3.53125q0 0.875 0.078125 1.296875q0.078125 0.421875 0.265625 0.625q0.203125 0.203125 0.5 0.203125q0.21875 0 0.390625 -0.03125q0.171875 -0.046875 0.359375 -0.140625q0.1875 -0.109375 0.40625 -0.296875l0.484375 0.65625zm3.46875 -9.9375l0 1.921875l-2.140625 0l0 -1.921875l2.140625 0zm-2.96875 10.359375q0.375 -0.109375 0.515625 -0.265625q0.15625 -0.171875 0.203125 -0.453125q0.046875 -0.28125 0.046875 -1.015625l0 -3.640625q0 -0.375 -0.03125 -0.609375q-0.03125 -0.234375 -0.140625 -0.375q-0.09375 -0.140625 -0.265625 -0.21875q-0.15625 -0.078125 -0.421875 -0.125l0 -0.53125l2.140625 -0.0625l0.984375 0l0 5.546875q0 0.4375 0 0.6875q0.015625 0.234375 0.03125 0.359375q0.03125 0.125 0.078125 0.234375q0.046875 0.09375 0.109375 0.1875q0.078125 0.078125 0.203125 0.15625q0.140625 0.0625 0.359375 0.125l0 0.515625l-3.8125 0l0 -0.515625zm8.40625 -7.234375l0 0.515625q-0.359375 0.0625 -0.53125 0.203125q-0.171875 0.140625 -0.171875 0.421875q0 0.375 0.203125 0.984375l1.125 3.40625l1.234375 -2.984375q0.15625 -0.375 0.234375 -0.65625q0.078125 -0.296875 0.078125 -0.5625q0 -0.328125 -0.1875 -0.546875q-0.1875 -0.21875 -0.53125 -0.265625l0 -0.515625l3.046875 0l0 0.515625q-0.234375 0.078125 -0.375 0.1875q-0.125 0.09375 -0.25 0.265625q-0.125 0.15625 -0.296875 0.484375q-0.171875 0.3125 -0.46875 0.96875l-2.4375 5.40625l-1.46875 0l-2.0625 -5.953125q-0.21875 -0.609375 -0.359375 -0.84375q-0.125 -0.234375 -0.28125 -0.34375q-0.15625 -0.125 -0.390625 -0.171875l0 -0.515625l3.890625 0zm12.1953125 6.328125q-0.796875 0.84375 -1.578125 1.203125q-0.78125 0.34375 -1.796875 0.34375q-1.828125 0 -2.75 -1.0q-0.90625 -1.0 -0.90625 -2.953125q0 -1.265625 0.46875 -2.1875q0.46875 -0.921875 1.328125 -1.390625q0.875 -0.46875 2.03125 -0.46875q0.703125 0 1.234375 0.171875q0.546875 0.15625 0.921875 0.453125q0.390625 0.28125 0.640625 0.703125q0.296875 0.484375 0.4375 1.125q0.15625 0.640625 0.171875 1.5625l-4.953125 0q0 1.421875 0.5 2.09375q0.5 0.65625 1.515625 0.65625q0.59375 0 1.0625 -0.21875q0.484375 -0.21875 1.03125 -0.78125l0.640625 0.6875zm-2.109375 -3.28125q-0.03125 -1.1875 -0.3125 -1.765625q-0.28125 -0.59375 -0.90625 -0.59375q-0.609375 0 -0.96875 0.609375q-0.34375 0.609375 -0.421875 1.75l2.609375 0zm15.546875 4.703125l-3.796875 0l0 -0.515625q0.359375 -0.09375 0.5 -0.25q0.140625 -0.171875 0.1875 -0.453125q0.0625 -0.296875 0.0625 -1.03125l0 -2.09375q0 -0.546875 -0.03125 -0.90625q-0.015625 -0.359375 -0.078125 -0.578125q-0.046875 -0.234375 -0.140625 -0.375q-0.078125 -0.15625 -0.1875 -0.25q-0.109375 -0.109375 -0.25 -0.15625q-0.140625 -0.046875 -0.359375 -0.046875q-0.296875 0 -0.625 0.1875q-0.3125 0.1875 -0.53125 0.515625q-0.21875 0.3125 -0.21875 0.6875l0 3.0q0 0.75 0.046875 1.046875q0.046875 0.28125 0.1875 0.453125q0.140625 0.15625 0.515625 0.25l0 0.515625l-3.78125 0l0 -0.515625q0.375 -0.109375 0.515625 -0.265625q0.15625 -0.171875 0.203125 -0.453125q0.046875 -0.28125 0.046875 -1.015625l0 -3.21875q0 -0.578125 -0.015625 -0.84375q-0.015625 -0.28125 -0.09375 -0.453125q-0.078125 -0.171875 -0.234375 -0.265625q-0.140625 -0.109375 -0.515625 -0.1875l0 -0.53125l2.140625 -0.0625l0.984375 0l-0.125 1.125l0.09375 0.015625q0.484375 -0.421875 0.84375 -0.671875q0.375 -0.25 0.78125 -0.390625q0.40625 -0.140625 0.84375 -0.140625q0.640625 0 1.0625 0.1875q0.421875 0.171875 0.6875 0.53125q0.265625 0.34375 0.375 0.859375q0.109375 0.5 0.109375 1.171875l0 2.859375q0 0.34375 0.015625 0.65625q0.015625 0.296875 0.0625 0.484375q0.046875 0.171875 0.125 0.28125q0.078125 0.109375 0.21875 0.1875q0.15625 0.078125 0.375 0.140625l0 0.515625zm8.234375 -1.421875q-0.796875 0.84375 -1.578125 1.203125q-0.78125 0.34375 -1.796875 0.34375q-1.828125 0 -2.75 -1.0q-0.90625 -1.0 -0.90625 -2.953125q0 -1.265625 0.46875 -2.1875q0.46875 -0.921875 1.328125 -1.390625q0.875 -0.46875 2.03125 -0.46875q0.703125 0 1.234375 0.171875q0.546875 0.15625 0.921875 0.453125q0.390625 0.28125 0.640625 0.703125q0.296875 0.484375 0.4375 1.125q0.15625 0.640625 0.171875 1.5625l-4.953125 0q0 1.421875 0.5 2.09375q0.5 0.65625 1.515625 0.65625q0.59375 0 1.0625 -0.21875q0.484375 -0.21875 1.03125 -0.78125l0.640625 0.6875zm-2.109375 -3.28125q-0.03125 -1.1875 -0.3125 -1.765625q-0.28125 -0.59375 -0.90625 -0.59375q-0.609375 0 -0.96875 0.609375q-0.34375 0.609375 -0.421875 1.75l2.609375 0zm8.8671875 3.765625q-0.6875 0.578125 -1.25 0.828125q-0.5625 0.234375 -1.1875 0.234375q-1.15625 0 -1.734375 -0.625q-0.578125 -0.640625 -0.578125 -1.90625l0 -4.375l-0.96875 0l0 -0.53125q0.46875 -0.078125 0.6875 -0.234375q0.234375 -0.15625 0.359375 -0.421875q0.125 -0.265625 0.203125 -0.6875q0.078125 -0.421875 0.109375 -1.046875l1.875 0l0 1.953125l2.21875 0l0 0.96875l-2.21875 0l0 3.53125q0 0.875 0.078125 1.296875q0.078125 0.421875 0.265625 0.625q0.203125 0.203125 0.5 0.203125q0.21875 0 0.390625 -0.03125q0.171875 -0.046875 0.359375 -0.140625q0.1875 -0.109375 0.40625 -0.296875l0.484375 0.65625zm7.65625 1.015625l-1.46875 -5.046875l-1.71875 5.046875l-1.578125 0l-1.890625 -5.953125q-0.171875 -0.546875 -0.296875 -0.78125q-0.109375 -0.25 -0.265625 -0.390625q-0.140625 -0.140625 -0.390625 -0.1875l0 -0.515625l3.8125 0l0 0.515625q-0.359375 0.0625 -0.546875 0.21875q-0.1875 0.15625 -0.1875 0.453125q0 0.1875 0.0625 0.4375q0.0625 0.234375 0.140625 0.5l0.984375 3.234375l1.796875 -5.359375l1.453125 0l1.515625 5.359375l1.015625 -2.8125q0.15625 -0.421875 0.21875 -0.703125q0.0625 -0.296875 0.0625 -0.515625q0 -0.328125 -0.1875 -0.546875q-0.1875 -0.21875 -0.53125 -0.265625l0 -0.515625l2.9375 0l0 0.515625q-0.234375 0.078125 -0.359375 0.171875q-0.125 0.09375 -0.25 0.265625q-0.109375 0.15625 -0.25 0.46875q-0.140625 0.3125 -0.421875 1.0l-2.09375 5.40625l-1.5625 0zm9.4140625 0.046875q-1.15625 0 -1.984375 -0.40625q-0.828125 -0.40625 -1.296875 -1.28125q-0.46875 -0.890625 -0.46875 -2.265625q0 -1.046875 0.28125 -1.8125q0.296875 -0.765625 0.8125 -1.265625q0.515625 -0.5 1.21875 -0.734375q0.71875 -0.234375 1.5625 -0.234375q1.890625 0 2.84375 1.0q0.96875 0.984375 0.96875 2.90625q0 1.359375 -0.484375 2.28125q-0.46875 0.921875 -1.359375 1.375q-0.875 0.4375 -2.09375 0.4375zm-1.375 -4.125q0 1.65625 0.359375 2.484375q0.375 0.828125 1.125 0.828125q0.421875 0 0.6875 -0.203125q0.28125 -0.21875 0.453125 -0.609375q0.171875 -0.40625 0.234375 -0.96875q0.078125 -0.5625 0.078125 -1.25q0 -1.6875 -0.375 -2.515625q-0.375 -0.828125 -1.09375 -0.828125q-0.53125 0 -0.859375 0.34375q-0.3125 0.328125 -0.46875 1.0q-0.140625 0.671875 -0.140625 1.71875zm9.609375 -2.640625l0.09375 0.03125q0.578125 -0.671875 1.171875 -0.96875q0.609375 -0.296875 1.3125 -0.296875q0.46875 0 1.0 0.09375l0 2.15625l-1.421875 0q-0.125 -0.453125 -0.34375 -0.6875q-0.21875 -0.25 -0.578125 -0.25q-0.171875 0 -0.375 0.109375q-0.203125 0.109375 -0.390625 0.296875q-0.171875 0.1875 -0.25 0.390625q-0.0625 0.203125 -0.09375 0.40625q-0.015625 0.203125 -0.015625 0.609375l0 2.484375q0 0.75 0.046875 1.046875q0.0625 0.296875 0.21875 0.46875q0.171875 0.15625 0.5625 0.234375l0 0.515625l-3.859375 0l0 -0.515625q0.375 -0.109375 0.515625 -0.265625q0.15625 -0.171875 0.203125 -0.453125q0.046875 -0.28125 0.046875 -1.015625l0 -3.21875q0 -0.578125 -0.015625 -0.84375q-0.015625 -0.28125 -0.09375 -0.453125q-0.078125 -0.171875 -0.234375 -0.265625q-0.140625 -0.109375 -0.515625 -0.1875l0 -0.53125l2.140625 -0.0625l0.984375 0l-0.109375 1.171875zm9.9921875 1.703125l2.015625 2.984375q0.4375 0.671875 0.640625 0.921875q0.21875 0.25 0.375 0.359375q0.15625 0.09375 0.390625 0.15625l0 0.515625l-3.8125 0l0 -0.515625q0.34375 -0.078125 0.34375 -0.375q0 -0.203125 -0.140625 -0.46875q-0.125 -0.28125 -0.53125 -0.875l-0.59375 -0.90625q-0.203125 -0.296875 -0.328125 -0.4375q-0.125 -0.140625 -0.25 -0.203125q-0.125 -0.078125 -0.34375 -0.078125l-0.375 0l0 1.59375q0 0.75 0.046875 1.03125q0.046875 0.28125 0.1875 0.453125q0.15625 0.15625 0.546875 0.265625l0 0.515625l-3.828125 0l0 -0.515625q0.234375 -0.0625 0.359375 -0.125q0.140625 -0.078125 0.21875 -0.171875q0.078125 -0.109375 0.125 -0.25q0.0625 -0.15625 0.078125 -0.421875q0.015625 -0.28125 0.015625 -0.78125l0 -6.09375q0 -0.671875 -0.015625 -0.984375q-0.015625 -0.3125 -0.0625 -0.53125q-0.03125 -0.21875 -0.109375 -0.34375q-0.078125 -0.125 -0.234375 -0.203125q-0.140625 -0.078125 -0.46875 -0.140625l0 -0.515625l2.171875 -0.109375l0.96875 0l0 6.578125l0.265625 0q0.265625 0 0.421875 -0.046875q0.15625 -0.0625 0.328125 -0.171875q0.171875 -0.125 0.515625 -0.4375q0.359375 -0.328125 0.53125 -0.5625q0.1875 -0.25 0.25 -0.4375q0.0625 -0.1875 0.0625 -0.359375q0 -0.53125 -0.6875 -0.625l0 -0.5l3.90625 0l0 0.5q-0.296875 0.046875 -0.671875 0.28125q-0.375 0.234375 -1.1875 0.984375l-1.125 1.046875zm3.609375 -6.28125q1.453125 0 2.375 0.390625q0.9375 0.390625 1.46875 1.203125q0.53125 0.796875 0.765625 2.109375q0.25 1.296875 0.25 3.578125q0 2.265625 -0.234375 3.59375q-0.234375 1.3125 -0.765625 2.125q-0.53125 0.8125 -1.46875 1.21875q-0.9375 0.40625 -2.390625 0.40625l0 -0.859375q0.5 0 0.875 -0.109375q0.375 -0.09375 0.65625 -0.375q0.328125 -0.34375 0.53125 -0.953125q0.234375 -0.71875 0.34375 -1.9375q0.109375 -1.21875 0.109375 -3.046875q0 -1.703125 -0.109375 -2.875q-0.09375 -1.25 -0.328125 -2.015625q-0.203125 -0.640625 -0.484375 -0.984375q-0.25 -0.296875 -0.59375 -0.4375q-0.375 -0.171875 -1.0 -0.171875l0 -0.859375z" fill-rule="nonzero"></path><path fill="#fce5cd" d="m39.98163 283.92163l0 0c0 -10.329803 8.37397 -18.703796 18.703785 -18.703796l198.11998 0c4.9605713 0 9.717957 1.970581 13.225586 5.4782104c3.5076294 3.50766 5.4782104 8.265045 5.4782104 13.225586l0 74.8129c0 10.329834 -8.373962 18.703796 -18.703796 18.703796l-198.11998 0c-10.329815 0 -18.703785 -8.373962 -18.703785 -18.703796z" fill-rule="evenodd"></path><path stroke="#ff9900" stroke-width="1.0" stroke-linejoin="round" stroke-linecap="butt" d="m39.98163 283.92163l0 0c0 -10.329803 8.37397 -18.703796 18.703785 -18.703796l198.11998 0c4.9605713 0 9.717957 1.970581 13.225586 5.4782104c3.5076294 3.50766 5.4782104 8.265045 5.4782104 13.225586l0 74.8129c0 10.329834 -8.373962 18.703796 -18.703796 18.703796l-198.11998 0c-10.329815 0 -18.703785 -8.373962 -18.703785 -18.703796z" fill-rule="evenodd"></path><path fill="#000000" d="m99.69853 315.36807l0 -0.4375l0.5 0q1.15625 0 1.4375 -0.484375q0.28125 -0.5 0.28125 -1.8125l0 -12.125l-5.609375 0l0 12.125q0 1.53125 0.375 1.921875q0.375 0.375 1.40625 0.375l0.484375 0l0 0.4375l-8.3125 0l0 -0.4375l0.5 0q1.046875 0 1.375 -0.390625q0.34375 -0.40625 0.34375 -1.90625l0 -10.4375q0 -1.421875 -0.3125 -1.84375q-0.3125 -0.4375 -1.40625 -0.4375l-0.5 0l0 -0.4375l17.734375 0l0 0.4375l-0.421875 0q-1.125 0 -1.484375 0.453125q-0.34375 0.4375 -0.34375 1.828125l0 10.4375q0 1.53125 0.390625 1.921875q0.40625 0.375 1.484375 0.375l0.375 0l0 0.4375l-8.296875 0zm14.730469 -11.28125q1.421875 0 2.65625 0.734375q1.234375 0.734375 1.859375 2.09375q0.640625 1.359375 0.640625 2.984375q0 2.328125 -1.171875 3.890625q-1.4375 1.90625 -3.953125 1.90625q-2.46875 0 -3.8125 -1.734375q-1.328125 -1.734375 -1.328125 -4.015625q0 -2.359375 1.359375 -4.109375q1.359375 -1.75 3.75 -1.75zm0.046875 0.828125q-0.609375 0 -1.03125 0.453125q-0.421875 0.453125 -0.5625 1.78125q-0.140625 1.328125 -0.140625 3.6875q0 1.265625 0.171875 2.34375q0.125 0.84375 0.546875 1.28125q0.421875 0.421875 0.96875 0.421875q0.515625 0 0.875 -0.296875q0.453125 -0.390625 0.609375 -1.109375q0.234375 -1.109375 0.234375 -4.5q0 -1.984375 -0.234375 -2.734375q-0.21875 -0.75 -0.640625 -1.078125q-0.3125 -0.25 -0.796875 -0.25zm11.8125 4.5625q2.046875 0.515625 2.59375 1.3125q0.546875 0.796875 0.546875 1.6875q0 1.359375 -1.15625 2.296875q-1.140625 0.921875 -3.28125 0.921875q-2.921875 0 -4.234375 -2.28125l0.375 -0.203125q1.34375 1.328125 2.734375 1.328125q1.046875 0 1.65625 -0.640625q0.625 -0.640625 0.625 -1.71875q0 -2.046875 -2.421875 -2.1875l0 -0.734375q2.125 0 2.125 -2.171875q0 -1.0 -0.484375 -1.578125q-0.484375 -0.59375 -1.328125 -0.59375q-1.765625 0 -2.25 2.59375l-0.453125 0l0.171875 -3.421875l0.4375 0q0.203125 0.46875 0.5 0.46875q0.109375 0 0.5625 -0.125q1.28125 -0.34375 2.234375 -0.34375q1.609375 0 2.609375 0.734375q1.015625 0.734375 1.015625 1.984375q0 2.015625 -2.578125 2.671875zm11.222656 5.890625l0 -0.4375q1.046875 0 1.046875 -1.5625l0 -5.375l-3.140625 5.375q0.015625 1.53125 1.078125 1.5625l0 0.4375l-5.578125 0l0 -0.4375q0.65625 0 0.9375 -0.375q0.28125 -0.375 0.28125 -1.3125l0 -6.765625q0 -1.640625 -1.21875 -1.640625l0 -0.421875l5.578125 0l0 0.421875q-0.609375 0.03125 -0.84375 0.359375q-0.234375 0.328125 -0.234375 1.28125l0 5.34375l3.140625 -5.4375q0 -0.859375 -0.25 -1.203125q-0.25 -0.34375 -0.796875 -0.34375l0 -0.421875l5.578125 0l0 0.421875q-0.640625 0.015625 -0.953125 0.328125q-0.296875 0.296875 -0.296875 1.171875l0 6.96875q0 0.96875 0.28125 1.296875q0.28125 0.328125 0.96875 0.328125l0 0.4375l-5.578125 0zm9.4375 0l0 -0.4375q0.703125 0 0.953125 -0.359375q0.265625 -0.359375 0.265625 -1.4375l0 -7.984375l-1.078125 0q-1.15625 0 -1.609375 0.40625q-0.4375 0.40625 -0.6875 1.71875l-0.4375 0l0 -2.859375l10.921875 0l0 2.859375l-0.4375 0q-0.203125 -1.171875 -0.625 -1.640625q-0.40625 -0.484375 -1.640625 -0.484375l-1.125 0l0 7.984375q0 1.109375 0.265625 1.453125q0.265625 0.328125 0.96875 0.34375l0 0.4375l-5.734375 0zm16.179688 0l0 -0.4375q1.046875 0 1.046875 -1.5625l0 -5.375l-3.140625 5.375q0.015625 1.53125 1.078125 1.5625l0 0.4375l-5.578125 0l0 -0.4375q0.65625 0 0.9375 -0.375q0.28125 -0.375 0.28125 -1.3125l0 -6.765625q0 -1.640625 -1.21875 -1.640625l0 -0.421875l5.578125 0l0 0.421875q-0.609375 0.03125 -0.84375 0.359375q-0.234375 0.328125 -0.234375 1.28125l0 5.34375l3.140625 -5.4375q0 -0.859375 -0.25 -1.203125q-0.25 -0.34375 -0.796875 -0.34375l0 -0.421875l5.578125 0l0 0.421875q-0.640625 0.015625 -0.953125 0.328125q-0.296875 0.296875 -0.296875 1.171875l0 6.96875q0 0.96875 0.28125 1.296875q0.28125 0.328125 0.96875 0.328125l0 0.4375l-5.578125 0zm7.265625 -10.953125l6.046875 0q1.890625 0 3.09375 0.6875q1.21875 0.671875 1.21875 2.03125q0 1.8125 -2.515625 2.4375q3.390625 0.40625 3.390625 2.84375q0 1.46875 -1.375 2.21875q-1.359375 0.734375 -3.75 0.734375l-6.109375 0l0 -0.4375q0.8125 -0.078125 1.0 -0.375q0.1875 -0.296875 0.1875 -1.140625l0 -6.53125q0 -1.328125 -0.21875 -1.65625q-0.203125 -0.328125 -0.96875 -0.390625l0 -0.421875zm4.640625 4.875q2.78125 -0.078125 2.78125 -2.0625q0 -2.046875 -2.78125 -2.078125l0 4.140625zm0 0.75l0 3.59375q0 0.546875 0.171875 0.78125q0.171875 0.21875 0.765625 0.21875q0.984375 0 1.671875 -0.6875q0.6875 -0.6875 0.6875 -1.75q0 -1.125 -0.765625 -1.640625q-0.765625 -0.515625 -2.53125 -0.515625zm8.2890625 5.328125l0 -0.4375q0.671875 0 0.9375 -0.34375q0.28125 -0.34375 0.28125 -1.3125l0 -6.734375q0 -1.03125 -0.265625 -1.359375q-0.265625 -0.34375 -0.953125 -0.34375l0 -0.421875l5.578125 0l0 0.421875q-0.59375 0.03125 -0.84375 0.3125q-0.234375 0.28125 -0.234375 1.28125l0 2.890625l3.140625 0l0 -2.890625q0 -0.828125 -0.171875 -1.203125q-0.171875 -0.390625 -0.875 -0.390625l0 -0.421875l5.5625 0l0 0.421875q-0.671875 0 -0.953125 0.34375q-0.28125 0.328125 -0.28125 1.109375l0 6.984375q0 1.03125 0.265625 1.34375q0.28125 0.296875 0.96875 0.3125l0 0.4375l-5.5625 0l0 -0.4375q0.578125 -0.015625 0.8125 -0.265625q0.234375 -0.265625 0.234375 -1.3125l0 -3.296875l-3.140625 0l0 3.21875q0 1.03125 0.234375 1.34375q0.25 0.3125 0.84375 0.3125l0 0.4375l-5.578125 0zm30.859375 -10.953125l0 0.421875q-1.1875 0.09375 -1.1875 1.59375l0 6.890625q0 0.796875 0.265625 1.1875q0.265625 0.375 0.921875 0.421875l0 0.4375l-5.640625 0l0 -0.4375q0.625 -0.046875 0.890625 -0.390625q0.28125 -0.359375 0.28125 -1.21875l0 -6.890625q0 -0.796875 -0.265625 -1.15625q-0.25 -0.375 -0.90625 -0.4375l0 -0.421875l5.640625 0zm-16.9375 10.953125l0 -0.4375q0.671875 -0.09375 0.90625 -0.453125q0.25 -0.359375 0.25 -1.3125l0 -6.625q0 -0.890625 -0.25 -1.234375q-0.25 -0.359375 -0.90625 -0.46875l0 -0.421875l5.59375 0l0 0.421875q-0.703125 0.109375 -0.9375 0.5q-0.21875 0.375 -0.21875 1.375l0 2.609375l0.84375 0q2.859375 0 4.3125 0.8125q1.453125 0.8125 1.453125 2.25q0 1.359375 -1.296875 2.171875q-1.28125 0.8125 -3.8125 0.8125l-5.9375 0zm4.4375 -5.3125l0 3.40625q0 0.796875 0.265625 0.984375q0.265625 0.1875 0.640625 0.1875q0.90625 0 1.578125 -0.625q0.671875 -0.625 0.671875 -1.6875q0 -2.265625 -3.15625 -2.265625zm23.472656 -0.5625l-6.015625 0q0.109375 2.1875 1.15625 3.453125q0.8125 0.96875 1.953125 0.96875q0.703125 0 1.265625 -0.390625q0.578125 -0.390625 1.234375 -1.421875l0.40625 0.265625q-0.890625 1.8125 -1.96875 2.578125q-1.078125 0.75 -2.5 0.75q-2.4375 0 -3.6875 -1.875q-1.015625 -1.515625 -1.015625 -3.75q0 -2.75 1.484375 -4.359375q1.484375 -1.625 3.484375 -1.625q1.65625 0 2.875 1.359375q1.234375 1.359375 1.328125 4.046875zm-2.890625 -0.78125q0 -1.890625 -0.203125 -2.59375q-0.203125 -0.703125 -0.640625 -1.0625q-0.234375 -0.21875 -0.65625 -0.21875q-0.609375 0 -0.984375 0.609375q-0.703125 1.03125 -0.703125 2.859375l0 0.40625l3.1875 0z" fill-rule="nonzero"></path><path fill="#000000" d="m120.700485 333.41495l0 0.421875q-0.78125 0.09375 -1.015625 0.421875q-0.234375 0.328125 -0.234375 1.40625l0 6.53125q0 1.03125 0.25 1.375q0.265625 0.34375 1.0 0.359375l0 0.4375l-5.578125 0l0 -0.4375q0.71875 0 0.875 -0.375q0.171875 -0.390625 0.171875 -1.28125l0 -8.125l-3.140625 0l0 8.046875q0 1.078125 0.203125 1.40625q0.21875 0.328125 0.875 0.328125l0 0.4375l-5.578125 0l0 -0.4375q0.703125 -0.015625 0.953125 -0.359375q0.265625 -0.359375 0.265625 -1.5l0 -6.546875q0 -1.078125 -0.28125 -1.375q-0.28125 -0.3125 -0.9375 -0.3125l0 -0.421875l12.171875 0zm5.875 9.84375l0 4.078125q0 0.84375 0.140625 1.140625q0.140625 0.3125 0.421875 0.453125q0.28125 0.140625 1.09375 0.140625l0 0.4375l-6.25 0l0 -0.4375q0.734375 -0.03125 1.078125 -0.40625q0.234375 -0.28125 0.234375 -1.40625l0 -11.5625q0 -1.15625 -0.265625 -1.484375q-0.265625 -0.328125 -1.046875 -0.375l0 -0.421875l4.59375 0l0 1.4375q0.578125 -0.84375 1.171875 -1.21875q0.859375 -0.546875 1.875 -0.546875q1.203125 0 2.1875 0.765625q1.0 0.75 1.515625 2.09375q0.515625 1.34375 0.515625 2.890625q0 1.65625 -0.546875 3.046875q-0.53125 1.375 -1.546875 2.09375q-1.0 0.71875 -2.25 0.71875q-0.90625 0 -1.6875 -0.40625q-0.578125 -0.296875 -1.234375 -1.03125zm0 -1.1875q1.015625 1.421875 2.15625 1.421875q0.640625 0 1.046875 -0.65625q0.609375 -0.984375 0.609375 -3.75q0 -2.84375 -0.671875 -3.890625q-0.4375 -0.6875 -1.1875 -0.6875q-1.1875 0 -1.953125 1.71875l0 5.84375zm15.722656 2.296875l0 -0.4375q1.046875 0 1.046875 -1.5625l0 -5.375l-3.140625 5.375q0.015625 1.53125 1.078125 1.5625l0 0.4375l-5.578125 0l0 -0.4375q0.65625 0 0.9375 -0.375q0.28125 -0.375 0.28125 -1.3125l0 -6.765625q0 -1.640625 -1.21875 -1.640625l0 -0.421875l5.578125 0l0 0.421875q-0.609375 0.03125 -0.84375 0.359375q-0.234375 0.328125 -0.234375 1.28125l0 5.34375l3.140625 -5.4375q0 -0.859375 -0.25 -1.203125q-0.25 -0.34375 -0.796875 -0.34375l0 -0.421875l5.578125 0l0 0.421875q-0.640625 0.015625 -0.953125 0.328125q-0.296875 0.296875 -0.296875 1.171875l0 6.96875q0 0.96875 0.28125 1.296875q0.28125 0.328125 0.96875 0.328125l0 0.4375l-5.578125 0zm7.265625 -10.953125l4.578125 0l2.78125 6.796875l2.78125 -6.796875l4.453125 0l0 0.421875q-0.640625 0.046875 -0.90625 0.390625q-0.265625 0.34375 -0.265625 1.234375l0 6.8125q0 0.921875 0.25 1.28125q0.25 0.34375 0.921875 0.375l0 0.4375l-5.765625 0l0 -0.4375q0.71875 -0.015625 1.015625 -0.390625q0.296875 -0.375 0.296875 -1.265625l0 -7.03125l-3.828125 9.125l-0.59375 0l-3.703125 -8.984375l0 7.078125q0 0.75 0.25 1.09375q0.265625 0.34375 1.015625 0.375l0 0.4375l-3.28125 0l0 -0.4375q0.65625 -0.015625 0.921875 -0.359375q0.28125 -0.359375 0.28125 -1.203125l0 -6.984375q0 -0.8125 -0.265625 -1.15625q-0.265625 -0.34375 -0.9375 -0.390625l0 -0.421875zm25.582031 5.078125l-6.015625 0q0.109375 2.1875 1.15625 3.453125q0.8125 0.96875 1.953125 0.96875q0.703125 0 1.265625 -0.390625q0.578125 -0.390625 1.234375 -1.421875l0.40625 0.265625q-0.890625 1.8125 -1.96875 2.578125q-1.078125 0.75 -2.5 0.75q-2.4375 0 -3.6875 -1.875q-1.015625 -1.515625 -1.015625 -3.75q0 -2.75 1.484375 -4.359375q1.484375 -1.625 3.484375 -1.625q1.65625 0 2.875 1.359375q1.234375 1.359375 1.328125 4.046875zm-2.890625 -0.78125q0 -1.890625 -0.203125 -2.59375q-0.203125 -0.703125 -0.640625 -1.0625q-0.234375 -0.21875 -0.65625 -0.21875q-0.609375 0 -0.984375 0.609375q-0.703125 1.03125 -0.703125 2.859375l0 0.40625l3.1875 0zm8.496094 5.546875l0 4.078125q0 0.84375 0.140625 1.140625q0.140625 0.3125 0.421875 0.453125q0.28125 0.140625 1.09375 0.140625l0 0.4375l-6.25 0l0 -0.4375q0.734375 -0.03125 1.078125 -0.40625q0.234375 -0.28125 0.234375 -1.40625l0 -11.5625q0 -1.15625 -0.265625 -1.484375q-0.265625 -0.328125 -1.046875 -0.375l0 -0.421875l4.59375 0l0 1.4375q0.578125 -0.84375 1.171875 -1.21875q0.859375 -0.546875 1.875 -0.546875q1.203125 0 2.1875 0.765625q1.0 0.75 1.515625 2.09375q0.515625 1.34375 0.515625 2.890625q0 1.65625 -0.546875 3.046875q-0.53125 1.375 -1.546875 2.09375q-1.0 0.71875 -2.25 0.71875q-0.90625 0 -1.6875 -0.40625q-0.578125 -0.296875 -1.234375 -1.03125zm0 -1.1875q1.015625 1.421875 2.15625 1.421875q0.640625 0 1.046875 -0.65625q0.609375 -0.984375 0.609375 -3.75q0 -2.84375 -0.671875 -3.890625q-0.4375 -0.6875 -1.1875 -0.6875q-1.1875 0 -1.953125 1.71875l0 5.84375zm26.160156 -8.65625l0 0.421875q-1.1875 0.09375 -1.1875 1.59375l0 6.890625q0 0.796875 0.265625 1.1875q0.265625 0.375 0.921875 0.421875l0 0.4375l-5.640625 0l0 -0.4375q0.625 -0.046875 0.890625 -0.390625q0.28125 -0.359375 0.28125 -1.21875l0 -6.890625q0 -0.796875 -0.265625 -1.15625q-0.25 -0.375 -0.90625 -0.4375l0 -0.421875l5.640625 0zm-16.9375 10.953125l0 -0.4375q0.671875 -0.09375 0.90625 -0.453125q0.25 -0.359375 0.25 -1.3125l0 -6.625q0 -0.890625 -0.25 -1.234375q-0.25 -0.359375 -0.90625 -0.46875l0 -0.421875l5.59375 0l0 0.421875q-0.703125 0.109375 -0.9375 0.5q-0.21875 0.375 -0.21875 1.375l0 2.609375l0.84375 0q2.859375 0 4.3125 0.8125q1.453125 0.8125 1.453125 2.25q0 1.359375 -1.296875 2.171875q-1.28125 0.8125 -3.8125 0.8125l-5.9375 0zm4.4375 -5.3125l0 3.40625q0 0.796875 0.265625 0.984375q0.265625 0.1875 0.640625 0.1875q0.90625 0 1.578125 -0.625q0.671875 -0.625 0.671875 -1.6875q0 -2.265625 -3.15625 -2.265625z" fill-rule="nonzero"></path><path fill="#000000" fill-opacity="0.0" d="m610.51184 87.25722l49.737244 0l0 112.220474l49.727295 0" fill-rule="evenodd"></path><path stroke="#000000" stroke-width="1.0" stroke-linejoin="round" stroke-linecap="butt" d="m610.51184 87.25722l49.737244 0l0 112.220474l43.727295 0" fill-rule="evenodd"></path><path fill="#000000" stroke="#000000" stroke-width="1.0" stroke-linecap="butt" d="m703.9764 201.12943l4.538086 -1.6517334l-4.538086 -1.6517334z" fill-rule="evenodd"></path><path fill="#000000" fill-opacity="0.0" d="m275.5092 321.3281l384.7914 0l0 -121.85828l49.696777 0" fill-rule="evenodd"></path><path stroke="#000000" stroke-width="1.0" stroke-linejoin="round" stroke-linecap="butt" d="m275.5092 321.3281l384.7914 0l0 -121.85828l43.696777 0" fill-rule="evenodd"></path><path fill="#000000" stroke="#000000" stroke-width="1.0" stroke-linecap="butt" d="m703.9974 201.12155l4.538086 -1.6517334l-4.538086 -1.6517334z" fill-rule="evenodd"></path></g></svg>

