<svg version="1.1" viewBox="0.0 0.0 781.0 133.0" fill="none" stroke="none" stroke-linecap="square" stroke-miterlimit="10" xmlns:xlink="http://www.w3.org/1999/xlink" xmlns="http://www.w3.org/2000/svg"><clipPath id="p.0"><path d="m0 0l781.0 0l0 133.0l-781.0 0l0 -133.0z" clip-rule="nonzero"/></clipPath><g clip-path="url(#p.0)"><path fill="#000000" fill-opacity="0.0" d="m0 0l781.0 0l0 133.0l-781.0 0z" fill-rule="evenodd"/><path fill="#f4cccc" d="m449.15485 23.02231l151.87402 0l0 85.76378l-151.87402 0z" fill-rule="evenodd"/><path stroke="#ff0000" stroke-width="1.0" stroke-linejoin="round" stroke-linecap="butt" d="m449.15485 23.02231l151.87402 0l0 85.76378l-151.87402 0z" fill-rule="evenodd"/><path fill="#000000" d="m471.08798 62.02732q0 0.265625 -0.015625 0.453125q-0.015625 0.1875 -0.078125 0.296875q-0.046875 0.109375 -0.109375 0.171875q-0.0625 0.046875 -0.140625 0.046875l-3.859375 0l0 3.171875l3.625 0q0.078125 0 0.140625 0.046875q0.0625 0.046875 0.109375 0.15625q0.046875 0.109375 0.0625 0.296875q0.03125 0.171875 0.03125 0.4375q0 0.28125 -0.03125 0.46875q-0.015625 0.171875 -0.0625 0.296875q-0.046875 0.109375 -0.109375 0.171875q-0.0625 0.046875 -0.140625 0.046875l-3.625 0l0 4.390625q0 0.09375 -0.0625 0.171875q-0.046875 0.078125 -0.1875 0.125q-0.140625 0.046875 -0.375 0.0625q-0.21875 0.03125 -0.578125 0.03125q-0.34375 0 -0.578125 -0.03125q-0.234375 -0.015625 -0.375 -0.0625q-0.125 -0.046875 -0.1875 -0.125q-0.0625 -0.078125 -0.0625 -0.171875l0 -10.6875q0 -0.40625 0.203125 -0.578125q0.203125 -0.171875 0.515625 -0.171875l5.546875 0q0.078125 0 0.140625 0.046875q0.0625 0.046875 0.109375 0.171875q0.0625 0.109375 0.078125 0.296875q0.015625 0.1875 0.015625 0.46875zm9.531677 10.484375q0 0.09375 -0.046875 0.171875q-0.046875 0.0625 -0.171875 0.109375q-0.109375 0.046875 -0.296875 0.0625q-0.1875 0.015625 -0.46875 0.015625q-0.296875 0 -0.484375 -0.015625q-0.1875 -0.015625 -0.296875 -0.0625q-0.109375 -0.046875 -0.15625 -0.109375q-0.046875 -0.078125 -0.046875 -0.171875l0 -0.9375q-0.671875 0.734375 -1.375 1.09375q-0.6875 0.359375 -1.4375 0.359375q-0.828125 0 -1.40625 -0.265625q-0.5625 -0.28125 -0.921875 -0.75q-0.34375 -0.46875 -0.5 -1.09375q-0.140625 -0.625 -0.140625 -1.5625l0 -4.96875q0 -0.09375 0.046875 -0.15625q0.046875 -0.0625 0.171875 -0.109375q0.140625 -0.046875 0.359375 -0.0625q0.21875 -0.03125 0.546875 -0.03125q0.34375 0 0.5625 0.03125q0.21875 0.015625 0.34375 0.0625q0.140625 0.046875 0.1875 0.109375q0.0625 0.0625 0.0625 0.15625l0 4.59375q0 0.640625 0.078125 0.984375q0.078125 0.328125 0.25 0.578125q0.171875 0.234375 0.421875 0.375q0.265625 0.125 0.609375 0.125q0.4375 0 0.875 -0.3125q0.453125 -0.328125 0.953125 -0.9375l0 -5.40625q0 -0.09375 0.046875 -0.15625q0.046875 -0.0625 0.171875 -0.109375q0.140625 -0.046875 0.359375 -0.0625q0.21875 -0.03125 0.5625 -0.03125q0.328125 0 0.546875 0.03125q0.21875 0.015625 0.34375 0.0625q0.140625 0.046875 0.1875 0.109375q0.0625 0.0625 0.0625 0.15625l0 8.125zm4.5894775 0q0 0.09375 -0.0625 0.171875q-0.046875 0.0625 -0.1875 0.109375q-0.125 0.046875 -0.34375 0.0625q-0.21875 0.015625 -0.546875 0.015625q-0.34375 0 -0.5625 -0.015625q-0.21875 -0.015625 -0.359375 -0.0625q-0.125 -0.046875 -0.1875 -0.109375q-0.046875 -0.078125 -0.046875 -0.171875l0 -11.96875q0 -0.09375 0.046875 -0.171875q0.0625 -0.078125 0.1875 -0.125q0.140625 -0.046875 0.359375 -0.078125q0.21875 -0.03125 0.5625 -0.03125q0.328125 0 0.546875 0.03125q0.21875 0.03125 0.34375 0.078125q0.140625 0.046875 0.1875 0.125q0.0625 0.078125 0.0625 0.171875l0 11.96875zm4.582062 0q0 0.09375 -0.0625 0.171875q-0.046875 0.0625 -0.1875 0.109375q-0.125 0.046875 -0.34375 0.0625q-0.21875 0.015625 -0.546875 0.015625q-0.34375 0 -0.5625 -0.015625q-0.21875 -0.015625 -0.359375 -0.0625q-0.125 -0.046875 -0.1875 -0.109375q-0.046875 -0.078125 -0.046875 -0.171875l0 -11.96875q0 -0.09375 0.046875 -0.171875q0.0625 -0.078125 0.1875 -0.125q0.140625 -0.046875 0.359375 -0.078125q0.21875 -0.03125 0.5625 -0.03125q0.328125 0 0.546875 0.03125q0.21875 0.03125 0.34375 0.078125q0.140625 0.046875 0.1875 0.125q0.0625 0.078125 0.0625 0.171875l0 11.96875zm7.0039673 0.3125l-0.984375 2.875q-0.078125 0.234375 -0.453125 0.328125q-0.359375 0.109375 -1.0625 0.109375q-0.359375 0 -0.578125 -0.03125q-0.21875 -0.03125 -0.328125 -0.109375q-0.109375 -0.078125 -0.125 -0.1875q0 -0.109375 0.0625 -0.265625l1.078125 -2.71875q-0.109375 -0.046875 -0.21875 -0.15625q-0.09375 -0.125 -0.140625 -0.25l-2.796875 -7.46875q-0.109375 -0.328125 -0.109375 -0.484375q0 -0.171875 0.109375 -0.265625q0.109375 -0.109375 0.359375 -0.140625q0.265625 -0.03125 0.6875 -0.03125q0.40625 0 0.625 0.015625q0.234375 0.015625 0.359375 0.078125q0.125 0.046875 0.1875 0.15625q0.0625 0.109375 0.125 0.328125l1.921875 5.4375l0.015625 0l1.75 -5.546875q0.0625 -0.25 0.140625 -0.328125q0.09375 -0.078125 0.296875 -0.109375q0.203125 -0.03125 0.703125 -0.03125q0.390625 0 0.640625 0.03125q0.265625 0.03125 0.390625 0.140625q0.125 0.09375 0.125 0.265625q0 0.171875 -0.078125 0.390625l-2.703125 7.96875zm16.632019 -1.78125q0 0.21875 -0.015625 0.390625q-0.015625 0.15625 -0.046875 0.265625q-0.015625 0.109375 -0.0625 0.203125q-0.046875 0.078125 -0.15625 0.1875q-0.09375 0.09375 -0.390625 0.265625q-0.28125 0.15625 -0.703125 0.3125q-0.40625 0.140625 -0.9375 0.234375q-0.53125 0.109375 -1.15625 0.109375q-1.203125 0 -2.1875 -0.375q-0.96875 -0.375 -1.65625 -1.109375q-0.671875 -0.75 -1.046875 -1.859375q-0.359375 -1.109375 -0.359375 -2.578125q0 -1.5 0.390625 -2.671875q0.40625 -1.171875 1.125 -1.953125q0.71875 -0.796875 1.71875 -1.203125q1.015625 -0.421875 2.234375 -0.421875q0.484375 0 0.9375 0.09375q0.46875 0.078125 0.84375 0.21875q0.390625 0.125 0.703125 0.296875q0.3125 0.171875 0.4375 0.296875q0.125 0.125 0.15625 0.203125q0.046875 0.078125 0.078125 0.203125q0.03125 0.125 0.046875 0.3125q0.015625 0.171875 0.015625 0.421875q0 0.265625 -0.03125 0.46875q-0.015625 0.1875 -0.0625 0.3125q-0.03125 0.109375 -0.109375 0.171875q-0.0625 0.046875 -0.140625 0.046875q-0.140625 0 -0.34375 -0.15625q-0.203125 -0.15625 -0.546875 -0.34375q-0.328125 -0.203125 -0.796875 -0.359375q-0.453125 -0.171875 -1.09375 -0.171875q-0.703125 0 -1.25 0.296875q-0.546875 0.28125 -0.9375 0.8125q-0.390625 0.53125 -0.59375 1.296875q-0.1875 0.75 -0.1875 1.703125q0 1.03125 0.203125 1.796875q0.21875 0.75 0.609375 1.25q0.40625 0.484375 0.953125 0.734375q0.5625 0.234375 1.265625 0.234375q0.640625 0 1.109375 -0.140625q0.46875 -0.15625 0.796875 -0.328125q0.328125 -0.1875 0.546875 -0.328125q0.21875 -0.15625 0.328125 -0.15625q0.09375 0 0.140625 0.046875q0.0625 0.03125 0.09375 0.140625q0.046875 0.109375 0.0625 0.3125q0.015625 0.1875 0.015625 0.515625zm9.79657 -2.671875q0 1.03125 -0.28125 1.890625q-0.265625 0.859375 -0.828125 1.484375q-0.546875 0.609375 -1.390625 0.953125q-0.828125 0.328125 -1.953125 0.328125q-1.078125 0 -1.890625 -0.296875q-0.796875 -0.296875 -1.328125 -0.875q-0.515625 -0.578125 -0.78125 -1.40625q-0.25 -0.84375 -0.25 -1.921875q0 -1.03125 0.28125 -1.890625q0.28125 -0.859375 0.828125 -1.46875q0.5625 -0.625 1.390625 -0.953125q0.828125 -0.34375 1.953125 -0.34375q1.09375 0 1.890625 0.296875q0.8125 0.296875 1.328125 0.875q0.53125 0.5625 0.78125 1.40625q0.25 0.84375 0.25 1.921875zm-2.359375 0.09375q0 -0.609375 -0.09375 -1.109375q-0.09375 -0.5 -0.328125 -0.875q-0.21875 -0.375 -0.59375 -0.578125q-0.375 -0.21875 -0.953125 -0.21875q-0.515625 0 -0.90625 0.1875q-0.375 0.1875 -0.625 0.546875q-0.234375 0.359375 -0.359375 0.875q-0.125 0.5 -0.125 1.140625q0 0.59375 0.09375 1.109375q0.109375 0.5 0.328125 0.875q0.21875 0.375 0.59375 0.578125q0.390625 0.203125 0.953125 0.203125q0.53125 0 0.90625 -0.1875q0.390625 -0.1875 0.625 -0.53125q0.25 -0.359375 0.359375 -0.859375q0.125 -0.515625 0.125 -1.15625zm11.935791 4.046875q0 0.09375 -0.0625 0.171875q-0.046875 0.0625 -0.171875 0.109375q-0.125 0.046875 -0.359375 0.0625q-0.21875 0.015625 -0.546875 0.015625q-0.328125 0 -0.5625 -0.015625q-0.21875 -0.015625 -0.34375 -0.0625q-0.125 -0.046875 -0.1875 -0.109375q-0.046875 -0.078125 -0.046875 -0.171875l0 -4.640625q0 -0.578125 -0.09375 -0.921875q-0.078125 -0.34375 -0.25 -0.578125q-0.15625 -0.25 -0.421875 -0.375q-0.25 -0.125 -0.609375 -0.125q-0.4375 0 -0.890625 0.3125q-0.4375 0.3125 -0.921875 0.921875l0 5.40625q0 0.09375 -0.0625 0.171875q-0.046875 0.0625 -0.1875 0.109375q-0.125 0.046875 -0.34375 0.0625q-0.21875 0.015625 -0.546875 0.015625q-0.34375 0 -0.5625 -0.015625q-0.21875 -0.015625 -0.359375 -0.0625q-0.125 -0.046875 -0.1875 -0.109375q-0.046875 -0.078125 -0.046875 -0.171875l0 -8.125q0 -0.09375 0.046875 -0.15625q0.046875 -0.0625 0.15625 -0.109375q0.125 -0.046875 0.3125 -0.0625q0.1875 -0.03125 0.46875 -0.03125q0.296875 0 0.484375 0.03125q0.203125 0.015625 0.296875 0.0625q0.109375 0.046875 0.15625 0.109375q0.046875 0.0625 0.046875 0.15625l0 0.9375q0.671875 -0.71875 1.359375 -1.078125q0.703125 -0.375 1.46875 -0.375q0.828125 0 1.390625 0.28125q0.5625 0.265625 0.90625 0.734375q0.359375 0.46875 0.515625 1.09375q0.15625 0.625 0.15625 1.515625l0 5.015625zm10.011353 0q0 0.09375 -0.0625 0.171875q-0.046875 0.0625 -0.171875 0.109375q-0.125 0.046875 -0.359375 0.0625q-0.21875 0.015625 -0.546875 0.015625q-0.328125 0 -0.5625 -0.015625q-0.21875 -0.015625 -0.34375 -0.0625q-0.125 -0.046875 -0.1875 -0.109375q-0.046875 -0.078125 -0.046875 -0.171875l0 -4.640625q0 -0.578125 -0.09375 -0.921875q-0.078125 -0.34375 -0.25 -0.578125q-0.15625 -0.25 -0.421875 -0.375q-0.25 -0.125 -0.609375 -0.125q-0.4375 0 -0.890625 0.3125q-0.4375 0.3125 -0.921875 0.921875l0 5.40625q0 0.09375 -0.0625 0.171875q-0.046875 0.0625 -0.1875 0.109375q-0.125 0.046875 -0.34375 0.0625q-0.21875 0.015625 -0.546875 0.015625q-0.34375 0 -0.5625 -0.015625q-0.21875 -0.015625 -0.359375 -0.0625q-0.125 -0.046875 -0.1875 -0.109375q-0.046875 -0.078125 -0.046875 -0.171875l0 -8.125q0 -0.09375 0.046875 -0.15625q0.046875 -0.0625 0.15625 -0.109375q0.125 -0.046875 0.3125 -0.0625q0.1875 -0.03125 0.46875 -0.03125q0.296875 0 0.484375 0.03125q0.203125 0.015625 0.296875 0.0625q0.109375 0.046875 0.15625 0.109375q0.046875 0.0625 0.046875 0.15625l0 0.9375q0.671875 -0.71875 1.359375 -1.078125q0.703125 -0.375 1.46875 -0.375q0.828125 0 1.390625 0.28125q0.5625 0.265625 0.90625 0.734375q0.359375 0.46875 0.515625 1.09375q0.15625 0.625 0.15625 1.515625l0 5.015625zm9.761353 -4.296875q0 0.421875 -0.1875 0.625q-0.1875 0.1875 -0.515625 0.1875l-4.953125 0q0 0.53125 0.125 0.953125q0.125 0.421875 0.390625 0.71875q0.28125 0.296875 0.703125 0.453125q0.421875 0.15625 1.015625 0.15625q0.59375 0 1.046875 -0.078125q0.453125 -0.09375 0.78125 -0.203125q0.34375 -0.109375 0.5625 -0.1875q0.21875 -0.09375 0.359375 -0.09375q0.078125 0 0.125 0.03125q0.0625 0.03125 0.09375 0.125q0.046875 0.078125 0.046875 0.234375q0.015625 0.140625 0.015625 0.359375q0 0.203125 -0.015625 0.34375q0 0.140625 -0.015625 0.25q-0.015625 0.09375 -0.0625 0.171875q-0.03125 0.0625 -0.09375 0.125q-0.046875 0.0625 -0.3125 0.171875q-0.265625 0.109375 -0.6875 0.21875q-0.40625 0.09375 -0.9375 0.171875q-0.515625 0.078125 -1.125 0.078125q-1.078125 0 -1.890625 -0.265625q-0.8125 -0.28125 -1.359375 -0.828125q-0.546875 -0.5625 -0.828125 -1.40625q-0.265625 -0.84375 -0.265625 -1.984375q0 -1.078125 0.28125 -1.953125q0.28125 -0.875 0.8125 -1.46875q0.546875 -0.609375 1.3125 -0.921875q0.78125 -0.328125 1.734375 -0.328125q1.03125 0 1.75 0.296875q0.71875 0.296875 1.1875 0.84375q0.46875 0.53125 0.6875 1.265625q0.21875 0.71875 0.21875 1.578125l0 0.359375zm-2.21875 -0.65625q0.015625 -0.96875 -0.40625 -1.515625q-0.40625 -0.546875 -1.265625 -0.546875q-0.4375 0 -0.765625 0.171875q-0.3125 0.15625 -0.53125 0.4375q-0.21875 0.265625 -0.328125 0.65625q-0.109375 0.375 -0.140625 0.796875l3.4375 0zm10.251282 3.65625q0 0.25 -0.015625 0.40625q-0.015625 0.15625 -0.046875 0.265625q-0.015625 0.109375 -0.046875 0.1875q-0.03125 0.0625 -0.140625 0.171875q-0.109375 0.09375 -0.375 0.25q-0.265625 0.140625 -0.609375 0.265625q-0.328125 0.109375 -0.71875 0.1875q-0.390625 0.078125 -0.8125 0.078125q-0.9375 0 -1.671875 -0.28125q-0.71875 -0.296875 -1.21875 -0.859375q-0.484375 -0.578125 -0.734375 -1.390625q-0.25 -0.828125 -0.25 -1.890625q0 -1.21875 0.296875 -2.109375q0.3125 -0.890625 0.859375 -1.46875q0.546875 -0.578125 1.296875 -0.859375q0.75 -0.296875 1.640625 -0.296875q0.359375 0 0.703125 0.078125q0.359375 0.0625 0.65625 0.171875q0.3125 0.109375 0.546875 0.25q0.25 0.125 0.34375 0.234375q0.109375 0.09375 0.140625 0.171875q0.046875 0.0625 0.0625 0.171875q0.03125 0.109375 0.046875 0.265625q0.015625 0.15625 0.015625 0.390625q0 0.515625 -0.09375 0.734375q-0.09375 0.21875 -0.234375 0.21875q-0.15625 0 -0.328125 -0.125q-0.171875 -0.125 -0.421875 -0.28125q-0.234375 -0.15625 -0.5625 -0.28125q-0.328125 -0.140625 -0.78125 -0.140625q-0.890625 0 -1.375 0.6875q-0.46875 0.6875 -0.46875 2.03125q0 0.65625 0.125 1.15625q0.125 0.5 0.34375 0.84375q0.234375 0.328125 0.578125 0.5q0.359375 0.15625 0.828125 0.15625q0.46875 0 0.8125 -0.140625q0.34375 -0.140625 0.59375 -0.3125q0.265625 -0.171875 0.4375 -0.3125q0.171875 -0.140625 0.28125 -0.140625q0.09375 0 0.140625 0.046875q0.0625 0.046875 0.09375 0.171875q0.03125 0.125 0.046875 0.3125q0.015625 0.1875 0.015625 0.484375zm6.4630737 0.5q0 0.40625 -0.046875 0.625q-0.046875 0.203125 -0.140625 0.296875q-0.078125 0.078125 -0.234375 0.15625q-0.15625 0.0625 -0.375 0.109375q-0.203125 0.046875 -0.453125 0.078125q-0.25 0.03125 -0.515625 0.03125q-0.6875 0 -1.1875 -0.171875q-0.5 -0.171875 -0.828125 -0.53125q-0.328125 -0.375 -0.484375 -0.921875q-0.140625 -0.546875 -0.140625 -1.28125l0 -4.171875l-0.984375 0q-0.171875 0 -0.265625 -0.203125q-0.09375 -0.21875 -0.09375 -0.71875q0 -0.265625 0.015625 -0.4375q0.03125 -0.1875 0.078125 -0.296875q0.046875 -0.109375 0.109375 -0.15625q0.078125 -0.046875 0.171875 -0.046875l0.96875 0l0 -1.8125q0 -0.09375 0.046875 -0.15625q0.046875 -0.078125 0.171875 -0.125q0.140625 -0.046875 0.359375 -0.0625q0.21875 -0.03125 0.546875 -0.03125q0.34375 0 0.5625 0.03125q0.234375 0.015625 0.359375 0.0625q0.125 0.046875 0.171875 0.125q0.0625 0.0625 0.0625 0.15625l0 1.8125l1.765625 0q0.09375 0 0.15625 0.046875q0.078125 0.046875 0.109375 0.15625q0.046875 0.109375 0.0625 0.296875q0.03125 0.171875 0.03125 0.4375q0 0.5 -0.09375 0.71875q-0.078125 0.203125 -0.25 0.203125l-1.78125 0l0 3.828125q0 0.65625 0.203125 1.0q0.21875 0.328125 0.75 0.328125q0.1875 0 0.328125 -0.03125q0.140625 -0.03125 0.25 -0.078125q0.125 -0.046875 0.203125 -0.078125q0.078125 -0.03125 0.140625 -0.03125q0.046875 0 0.09375 0.03125q0.0625 0.03125 0.078125 0.140625q0.03125 0.09375 0.046875 0.265625q0.03125 0.15625 0.03125 0.40625zm9.170837 -3.5q0 0.421875 -0.1875 0.625q-0.1875 0.1875 -0.515625 0.1875l-4.953125 0q0 0.53125 0.125 0.953125q0.125 0.421875 0.390625 0.71875q0.28125 0.296875 0.703125 0.453125q0.421875 0.15625 1.015625 0.15625q0.59375 0 1.046875 -0.078125q0.453125 -0.09375 0.78125 -0.203125q0.34375 -0.109375 0.5625 -0.1875q0.21875 -0.09375 0.359375 -0.09375q0.078125 0 0.125 0.03125q0.0625 0.03125 0.09375 0.125q0.046875 0.078125 0.046875 0.234375q0.015625 0.140625 0.015625 0.359375q0 0.203125 -0.015625 0.34375q0 0.140625 -0.015625 0.25q-0.015625 0.09375 -0.0625 0.171875q-0.03125 0.0625 -0.09375 0.125q-0.046875 0.0625 -0.3125 0.171875q-0.265625 0.109375 -0.6875 0.21875q-0.40625 0.09375 -0.9375 0.171875q-0.515625 0.078125 -1.125 0.078125q-1.078125 0 -1.890625 -0.265625q-0.8125 -0.28125 -1.359375 -0.828125q-0.546875 -0.5625 -0.828125 -1.40625q-0.265625 -0.84375 -0.265625 -1.984375q0 -1.078125 0.28125 -1.953125q0.28125 -0.875 0.8125 -1.46875q0.546875 -0.609375 1.3125 -0.921875q0.78125 -0.328125 1.734375 -0.328125q1.03125 0 1.75 0.296875q0.71875 0.296875 1.1875 0.84375q0.46875 0.53125 0.6875 1.265625q0.21875 0.71875 0.21875 1.578125l0 0.359375zm-2.21875 -0.65625q0.015625 -0.96875 -0.40625 -1.515625q-0.40625 -0.546875 -1.265625 -0.546875q-0.4375 0 -0.765625 0.171875q-0.3125 0.15625 -0.53125 0.4375q-0.21875 0.265625 -0.328125 0.65625q-0.109375 0.375 -0.140625 0.796875l3.4375 0zm11.813782 4.953125q0 0.109375 -0.046875 0.171875q-0.046875 0.0625 -0.15625 0.109375q-0.109375 0.046875 -0.296875 0.0625q-0.1875 0.015625 -0.46875 0.015625q-0.28125 0 -0.46875 -0.015625q-0.1875 -0.015625 -0.296875 -0.0625q-0.109375 -0.046875 -0.15625 -0.109375q-0.046875 -0.0625 -0.046875 -0.171875l0 -0.90625q-0.640625 0.6875 -1.328125 1.0625q-0.6875 0.359375 -1.515625 0.359375q-0.9375 0 -1.578125 -0.359375q-0.640625 -0.359375 -1.046875 -0.96875q-0.40625 -0.609375 -0.59375 -1.421875q-0.171875 -0.8125 -0.171875 -1.71875q0 -1.078125 0.21875 -1.9375q0.234375 -0.875 0.6875 -1.484375q0.453125 -0.609375 1.109375 -0.9375q0.671875 -0.328125 1.53125 -0.328125q0.6875 0 1.234375 0.28125q0.5625 0.265625 1.109375 0.8125l0 -4.40625q0 -0.09375 0.046875 -0.15625q0.046875 -0.078125 0.171875 -0.125q0.140625 -0.046875 0.359375 -0.078125q0.21875 -0.03125 0.5625 -0.03125q0.328125 0 0.546875 0.03125q0.21875 0.03125 0.34375 0.078125q0.140625 0.046875 0.1875 0.125q0.0625 0.0625 0.0625 0.15625l0 11.953125zm-2.28125 -5.421875q-0.5 -0.625 -0.953125 -0.953125q-0.4375 -0.328125 -0.9375 -0.328125q-0.4375 0 -0.765625 0.234375q-0.328125 0.21875 -0.53125 0.59375q-0.1875 0.359375 -0.28125 0.828125q-0.09375 0.453125 -0.09375 0.9375q0 0.515625 0.078125 1.0q0.078125 0.484375 0.265625 0.859375q0.1875 0.375 0.5 0.609375q0.3125 0.21875 0.78125 0.21875q0.234375 0 0.453125 -0.0625q0.234375 -0.078125 0.46875 -0.21875q0.234375 -0.15625 0.46875 -0.40625q0.25 -0.25 0.546875 -0.625l0 -2.6875z" fill-rule="nonzero"/><path fill="#cfe2f3" d="m657.4018 48.926563l120.59839 0l0 33.952755l-120.59839 0z" fill-rule="evenodd"/><path stroke="#4a86e8" stroke-width="1.0" stroke-linejoin="round" stroke-linecap="butt" d="m657.4018 48.926563l120.59839 0l0 33.952755l-120.59839 0z" fill-rule="evenodd"/><path fill="#000000" d="m673.85724 68.91919q0 0.71875 -0.265625 1.28125q-0.265625 0.546875 -0.734375 0.9375q-0.453125 0.375 -1.09375 0.578125q-0.625 0.203125 -1.34375 0.203125q-0.515625 0 -0.953125 -0.09375q-0.421875 -0.09375 -0.765625 -0.21875q-0.34375 -0.125 -0.578125 -0.25q-0.21875 -0.140625 -0.3125 -0.234375q-0.09375 -0.09375 -0.140625 -0.234375q-0.03125 -0.140625 -0.03125 -0.390625q0 -0.171875 0.015625 -0.28125q0.015625 -0.109375 0.046875 -0.171875q0.03125 -0.078125 0.078125 -0.109375q0.046875 -0.03125 0.109375 -0.03125q0.109375 0 0.296875 0.140625q0.203125 0.125 0.515625 0.28125q0.3125 0.15625 0.75 0.296875q0.453125 0.140625 1.03125 0.140625q0.4375 0 0.796875 -0.109375q0.359375 -0.125 0.625 -0.34375q0.265625 -0.21875 0.40625 -0.53125q0.140625 -0.3125 0.140625 -0.703125q0 -0.4375 -0.203125 -0.734375q-0.1875 -0.3125 -0.515625 -0.53125q-0.3125 -0.234375 -0.734375 -0.421875q-0.40625 -0.203125 -0.84375 -0.390625q-0.421875 -0.203125 -0.828125 -0.4375q-0.40625 -0.25 -0.734375 -0.578125q-0.3125 -0.328125 -0.515625 -0.765625q-0.1875 -0.453125 -0.1875 -1.0625q0 -0.640625 0.21875 -1.125q0.234375 -0.5 0.640625 -0.828125q0.421875 -0.34375 0.984375 -0.515625q0.5625 -0.1875 1.21875 -0.1875q0.34375 0 0.671875 0.0625q0.34375 0.0625 0.640625 0.15625q0.3125 0.09375 0.546875 0.21875q0.234375 0.125 0.296875 0.203125q0.078125 0.0625 0.09375 0.109375q0.03125 0.046875 0.046875 0.109375q0.015625 0.0625 0.015625 0.15625q0.015625 0.09375 0.015625 0.25q0 0.140625 -0.015625 0.25q0 0.109375 -0.03125 0.1875q-0.015625 0.0625 -0.0625 0.109375q-0.046875 0.03125 -0.09375 0.03125q-0.09375 0 -0.28125 -0.109375q-0.171875 -0.109375 -0.4375 -0.25q-0.265625 -0.140625 -0.640625 -0.25q-0.359375 -0.109375 -0.8125 -0.109375q-0.421875 0 -0.734375 0.109375q-0.3125 0.109375 -0.515625 0.296875q-0.203125 0.1875 -0.3125 0.453125q-0.09375 0.25 -0.09375 0.546875q0 0.421875 0.1875 0.734375q0.203125 0.296875 0.53125 0.53125q0.328125 0.234375 0.734375 0.4375q0.421875 0.1875 0.84375 0.390625q0.4375 0.1875 0.84375 0.4375q0.421875 0.234375 0.734375 0.5625q0.328125 0.3125 0.53125 0.765625q0.203125 0.4375 0.203125 1.03125zm10.71875 2.5q0.0625 0.109375 0.0625 0.1875q0 0.0625 -0.078125 0.125q-0.078125 0.046875 -0.234375 0.0625q-0.140625 0.015625 -0.390625 0.015625q-0.234375 0 -0.375 -0.015625q-0.125 0 -0.21875 -0.03125q-0.078125 -0.03125 -0.125 -0.078125q-0.03125 -0.046875 -0.0625 -0.09375l-1.6875 -2.796875l-1.6875 2.796875q-0.03125 0.046875 -0.078125 0.09375q-0.03125 0.046875 -0.125 0.078125q-0.078125 0.03125 -0.21875 0.03125q-0.125 0.015625 -0.34375 0.015625q-0.21875 0 -0.375 -0.015625q-0.140625 -0.015625 -0.203125 -0.0625q-0.0625 -0.0625 -0.0625 -0.125q0 -0.078125 0.078125 -0.1875l2.1875 -3.4375l-2.078125 -3.296875q-0.0625 -0.109375 -0.0625 -0.1875q0 -0.078125 0.0625 -0.125q0.078125 -0.046875 0.234375 -0.0625q0.15625 -0.015625 0.40625 -0.015625q0.21875 0 0.359375 0.015625q0.140625 0 0.21875 0.03125q0.078125 0.015625 0.109375 0.0625q0.046875 0.03125 0.078125 0.09375l1.59375 2.609375l1.625 -2.609375q0.03125 -0.046875 0.0625 -0.078125q0.046875 -0.046875 0.109375 -0.078125q0.078125 -0.03125 0.1875 -0.03125q0.125 -0.015625 0.34375 -0.015625q0.21875 0 0.359375 0.015625q0.15625 0.015625 0.21875 0.0625q0.078125 0.03125 0.0625 0.109375q0 0.078125 -0.078125 0.203125l-2.046875 3.265625l2.171875 3.46875zm10.796875 -2.5q0 0.71875 -0.265625 1.28125q-0.265625 0.546875 -0.734375 0.9375q-0.453125 0.375 -1.09375 0.578125q-0.625 0.203125 -1.34375 0.203125q-0.515625 0 -0.953125 -0.09375q-0.421875 -0.09375 -0.765625 -0.21875q-0.34375 -0.125 -0.578125 -0.25q-0.21875 -0.140625 -0.3125 -0.234375q-0.09375 -0.09375 -0.140625 -0.234375q-0.03125 -0.140625 -0.03125 -0.390625q0 -0.171875 0.015625 -0.28125q0.015625 -0.109375 0.046875 -0.171875q0.03125 -0.078125 0.078125 -0.109375q0.046875 -0.03125 0.109375 -0.03125q0.109375 0 0.296875 0.140625q0.203125 0.125 0.515625 0.28125q0.3125 0.15625 0.75 0.296875q0.453125 0.140625 1.03125 0.140625q0.4375 0 0.796875 -0.109375q0.359375 -0.125 0.625 -0.34375q0.265625 -0.21875 0.40625 -0.53125q0.140625 -0.3125 0.140625 -0.703125q0 -0.4375 -0.203125 -0.734375q-0.1875 -0.3125 -0.515625 -0.53125q-0.3125 -0.234375 -0.734375 -0.421875q-0.40625 -0.203125 -0.84375 -0.390625q-0.421875 -0.203125 -0.828125 -0.4375q-0.40625 -0.25 -0.734375 -0.578125q-0.3125 -0.328125 -0.515625 -0.765625q-0.1875 -0.453125 -0.1875 -1.0625q0 -0.640625 0.21875 -1.125q0.234375 -0.5 0.640625 -0.828125q0.421875 -0.34375 0.984375 -0.515625q0.5625 -0.1875 1.21875 -0.1875q0.34375 0 0.671875 0.0625q0.34375 0.0625 0.640625 0.15625q0.3125 0.09375 0.546875 0.21875q0.234375 0.125 0.296875 0.203125q0.078125 0.0625 0.09375 0.109375q0.03125 0.046875 0.046875 0.109375q0.015625 0.0625 0.015625 0.15625q0.015625 0.09375 0.015625 0.25q0 0.140625 -0.015625 0.25q0 0.109375 -0.03125 0.1875q-0.015625 0.0625 -0.0625 0.109375q-0.046875 0.03125 -0.09375 0.03125q-0.09375 0 -0.28125 -0.109375q-0.171875 -0.109375 -0.4375 -0.25q-0.265625 -0.140625 -0.640625 -0.25q-0.359375 -0.109375 -0.8125 -0.109375q-0.421875 0 -0.734375 0.109375q-0.3125 0.109375 -0.515625 0.296875q-0.203125 0.1875 -0.3125 0.453125q-0.09375 0.25 -0.09375 0.546875q0 0.421875 0.1875 0.734375q0.203125 0.296875 0.53125 0.53125q0.328125 0.234375 0.734375 0.4375q0.421875 0.1875 0.84375 0.390625q0.4375 0.1875 0.84375 0.4375q0.421875 0.234375 0.734375 0.5625q0.328125 0.3125 0.53125 0.765625q0.203125 0.4375 0.203125 1.03125zm10.71875 2.5q0.0625 0.109375 0.0625 0.1875q0 0.0625 -0.078125 0.125q-0.078125 0.046875 -0.234375 0.0625q-0.140625 0.015625 -0.390625 0.015625q-0.234375 0 -0.375 -0.015625q-0.125 0 -0.21875 -0.03125q-0.078125 -0.03125 -0.125 -0.078125q-0.03125 -0.046875 -0.0625 -0.09375l-1.6875 -2.796875l-1.6875 2.796875q-0.03125 0.046875 -0.078125 0.09375q-0.03125 0.046875 -0.125 0.078125q-0.078125 0.03125 -0.21875 0.03125q-0.125 0.015625 -0.34375 0.015625q-0.21875 0 -0.375 -0.015625q-0.140625 -0.015625 -0.203125 -0.0625q-0.0625 -0.0625 -0.0625 -0.125q0 -0.078125 0.078125 -0.1875l2.1875 -3.4375l-2.078125 -3.296875q-0.0625 -0.109375 -0.0625 -0.1875q0 -0.078125 0.0625 -0.125q0.078125 -0.046875 0.234375 -0.0625q0.15625 -0.015625 0.40625 -0.015625q0.21875 0 0.359375 0.015625q0.140625 0 0.21875 0.03125q0.078125 0.015625 0.109375 0.0625q0.046875 0.03125 0.078125 0.09375l1.59375 2.609375l1.625 -2.609375q0.03125 -0.046875 0.0625 -0.078125q0.046875 -0.046875 0.109375 -0.078125q0.078125 -0.03125 0.1875 -0.03125q0.125 -0.015625 0.34375 -0.015625q0.21875 0 0.359375 0.015625q0.15625 0.015625 0.21875 0.0625q0.078125 0.03125 0.0625 0.109375q0 0.078125 -0.078125 0.203125l-2.046875 3.265625l2.171875 3.46875zm7.890625 -10.421875q-0.75 1.5625 -1.109375 3.21875q-0.359375 1.65625 -0.359375 3.328125q0 1.671875 0.359375 3.328125q0.375 1.65625 1.09375 3.234375q0.03125 0.09375 0.03125 0.15625q0.015625 0.078125 -0.046875 0.109375q-0.046875 0.046875 -0.171875 0.0625q-0.109375 0.03125 -0.296875 0.03125q-0.140625 0 -0.25 -0.015625q-0.09375 0 -0.171875 -0.03125q-0.078125 -0.015625 -0.125 -0.046875q-0.046875 -0.03125 -0.0625 -0.078125q-0.421875 -0.796875 -0.75 -1.609375q-0.3125 -0.8125 -0.53125 -1.65625q-0.21875 -0.859375 -0.328125 -1.71875q-0.109375 -0.859375 -0.109375 -1.75q0 -0.875 0.109375 -1.734375q0.125 -0.859375 0.34375 -1.703125q0.234375 -0.859375 0.546875 -1.671875q0.328125 -0.828125 0.71875 -1.625q0.015625 -0.03125 0.046875 -0.046875q0.03125 -0.03125 0.09375 -0.046875q0.0625 -0.03125 0.171875 -0.046875q0.109375 -0.015625 0.28125 -0.015625q0.1875 0 0.296875 0.03125q0.109375 0.015625 0.171875 0.0625q0.0625 0.03125 0.0625 0.09375q0.015625 0.0625 -0.015625 0.140625zm8.9921875 7.859375q0 0.484375 -0.125 0.890625q-0.125 0.390625 -0.34375 0.71875q-0.21875 0.3125 -0.53125 0.5625q-0.296875 0.234375 -0.6875 0.40625q-0.390625 0.15625 -0.828125 0.25q-0.4375 0.078125 -1.015625 0.078125l-2.640625 0q-0.171875 0 -0.34375 -0.125q-0.15625 -0.125 -0.15625 -0.421875l0 -9.015625q0 -0.3125 0.15625 -0.421875q0.171875 -0.125 0.34375 -0.125l2.296875 0q0.90625 0 1.484375 0.171875q0.578125 0.171875 0.96875 0.5q0.390625 0.328125 0.578125 0.8125q0.203125 0.46875 0.203125 1.0625q0 0.359375 -0.09375 0.6875q-0.078125 0.328125 -0.25 0.609375q-0.171875 0.28125 -0.421875 0.5q-0.25 0.21875 -0.578125 0.359375q0.40625 0.078125 0.765625 0.28125q0.359375 0.203125 0.625 0.53125q0.28125 0.3125 0.4375 0.75q0.15625 0.421875 0.15625 0.9375zm-2.03125 -4.515625q0 -0.375 -0.109375 -0.671875q-0.09375 -0.296875 -0.3125 -0.5q-0.21875 -0.203125 -0.578125 -0.3125q-0.34375 -0.109375 -0.921875 -0.109375l-1.390625 0l0 3.265625l1.53125 0q0.53125 0 0.84375 -0.125q0.328125 -0.140625 0.53125 -0.375q0.21875 -0.234375 0.3125 -0.53125q0.09375 -0.3125 0.09375 -0.640625zm0.609375 4.59375q0 -0.453125 -0.140625 -0.796875q-0.140625 -0.34375 -0.421875 -0.578125q-0.28125 -0.234375 -0.703125 -0.34375q-0.40625 -0.125 -1.046875 -0.125l-1.609375 0l0 3.5625l1.953125 0q0.46875 0 0.8125 -0.109375q0.34375 -0.109375 0.59375 -0.328125q0.265625 -0.21875 0.40625 -0.53125q0.15625 -0.328125 0.15625 -0.75zm8.6875 -4.484375q0.109375 0.046875 0.09375 0.1875q0 0.140625 -0.1875 0.4375q-0.171875 0.3125 -0.296875 0.390625q-0.109375 0.0625 -0.203125 0l-1.65625 -1.21875l0.21875 2.046875q0.015625 0.125 -0.109375 0.1875q-0.125 0.0625 -0.484375 0.0625q-0.359375 0 -0.484375 -0.0625q-0.125 -0.0625 -0.09375 -0.1875l0.21875 -2.046875l-1.65625 1.21875q-0.09375 0.0625 -0.21875 0q-0.109375 -0.078125 -0.296875 -0.390625q-0.171875 -0.296875 -0.1875 -0.4375q0 -0.140625 0.109375 -0.1875l1.890625 -0.828125l-1.890625 -0.828125q-0.109375 -0.0625 -0.109375 -0.1875q0.015625 -0.140625 0.1875 -0.453125q0.1875 -0.296875 0.296875 -0.359375q0.125 -0.078125 0.21875 -0.015625l1.65625 1.203125l-0.21875 -2.03125q-0.03125 -0.125 0.09375 -0.1875q0.125 -0.0625 0.484375 -0.0625q0.359375 0 0.484375 0.0625q0.125 0.0625 0.109375 0.1875l-0.21875 2.03125l1.65625 -1.203125q0.09375 -0.0625 0.203125 0.015625q0.125 0.0625 0.296875 0.375q0.1875 0.296875 0.1875 0.4375q0.015625 0.125 -0.09375 0.1875l-1.890625 0.828125l1.890625 0.828125zm8.5625 4.0625q0 0.8125 -0.28125 1.453125q-0.265625 0.625 -0.765625 1.0625q-0.5 0.421875 -1.1875 0.65625q-0.6875 0.234375 -1.53125 0.234375q-0.46875 0 -0.890625 -0.078125q-0.421875 -0.0625 -0.75 -0.15625q-0.328125 -0.109375 -0.546875 -0.203125q-0.203125 -0.09375 -0.265625 -0.140625q-0.0625 -0.0625 -0.09375 -0.109375q-0.015625 -0.046875 -0.03125 -0.109375q-0.015625 -0.0625 -0.03125 -0.15625q0 -0.109375 0 -0.25q0 -0.140625 0 -0.234375q0.015625 -0.109375 0.046875 -0.171875q0.03125 -0.078125 0.078125 -0.109375q0.046875 -0.03125 0.09375 -0.03125q0.078125 0 0.234375 0.109375q0.171875 0.09375 0.453125 0.203125q0.28125 0.109375 0.6875 0.21875q0.40625 0.09375 0.96875 0.09375q0.53125 0 0.96875 -0.125q0.4375 -0.125 0.75 -0.390625q0.3125 -0.265625 0.484375 -0.65625q0.1875 -0.40625 0.1875 -0.984375q0 -0.484375 -0.15625 -0.859375q-0.140625 -0.375 -0.46875 -0.609375q-0.3125 -0.25 -0.796875 -0.375q-0.484375 -0.125 -1.15625 -0.125q-0.46875 0 -0.8125 0.046875q-0.34375 0.046875 -0.640625 0.046875q-0.21875 0 -0.3125 -0.09375q-0.09375 -0.109375 -0.09375 -0.390625l0 -4.125q0 -0.25 0.109375 -0.375q0.125 -0.125 0.359375 -0.125l4.46875 0q0.0625 0 0.125 0.03125q0.0625 0.03125 0.09375 0.109375q0.046875 0.0625 0.0625 0.171875q0.015625 0.109375 0.015625 0.265625q0 0.28125 -0.078125 0.4375q-0.078125 0.15625 -0.21875 0.15625l-3.765625 0l0 2.828125q0.265625 -0.03125 0.546875 -0.03125q0.296875 -0.015625 0.671875 -0.015625q0.859375 0 1.5 0.203125q0.65625 0.203125 1.09375 0.59375q0.4375 0.375 0.65625 0.921875q0.21875 0.53125 0.21875 1.1875zm11.9765625 -1.25q0 0.140625 -0.03125 0.25q-0.015625 0.109375 -0.0625 0.1875q-0.03125 0.0625 -0.09375 0.09375q-0.046875 0.03125 -0.109375 0.03125l-2.5625 0l0 2.84375q0 0.0625 -0.03125 0.109375q-0.03125 0.03125 -0.09375 0.0625q-0.0625 0.03125 -0.171875 0.0625q-0.109375 0.015625 -0.28125 0.015625q-0.15625 0 -0.265625 -0.015625q-0.109375 -0.03125 -0.1875 -0.0625q-0.0625 -0.03125 -0.09375 -0.0625q-0.03125 -0.046875 -0.03125 -0.109375l0 -2.84375l-2.5625 0q-0.0625 0 -0.125 -0.03125q-0.046875 -0.03125 -0.09375 -0.09375q-0.03125 -0.078125 -0.0625 -0.1875q-0.015625 -0.109375 -0.015625 -0.25q0 -0.140625 0.015625 -0.25q0.03125 -0.109375 0.0625 -0.171875q0.046875 -0.078125 0.09375 -0.109375q0.0625 -0.03125 0.125 -0.03125l2.5625 0l0 -2.84375q0 -0.0625 0.03125 -0.109375q0.03125 -0.046875 0.09375 -0.078125q0.078125 -0.046875 0.1875 -0.0625q0.109375 -0.015625 0.265625 -0.015625q0.171875 0 0.28125 0.015625q0.109375 0.015625 0.171875 0.0625q0.0625 0.03125 0.09375 0.078125q0.03125 0.046875 0.03125 0.109375l0 2.84375l2.578125 0q0.0625 0 0.109375 0.03125q0.046875 0.03125 0.09375 0.109375q0.046875 0.0625 0.0625 0.171875q0.015625 0.109375 0.015625 0.25zm12.2578125 3.0625q0 0.125 -0.015625 0.21875q0 0.09375 -0.015625 0.171875q-0.015625 0.0625 -0.046875 0.125q-0.03125 0.046875 -0.109375 0.125q-0.078125 0.078125 -0.328125 0.25q-0.25 0.15625 -0.625 0.3125q-0.375 0.140625 -0.859375 0.25q-0.46875 0.109375 -1.046875 0.109375q-0.984375 0 -1.78125 -0.328125q-0.78125 -0.328125 -1.34375 -0.96875q-0.5625 -0.640625 -0.859375 -1.578125q-0.296875 -0.953125 -0.296875 -2.171875q0 -1.265625 0.3125 -2.25q0.328125 -0.984375 0.90625 -1.65625q0.59375 -0.6875 1.40625 -1.046875q0.828125 -0.359375 1.8125 -0.359375q0.4375 0 0.84375 0.078125q0.421875 0.078125 0.765625 0.203125q0.359375 0.125 0.625 0.296875q0.28125 0.15625 0.390625 0.265625q0.109375 0.109375 0.140625 0.171875q0.03125 0.046875 0.046875 0.125q0.015625 0.0625 0.03125 0.171875q0.015625 0.09375 0.015625 0.234375q0 0.15625 -0.015625 0.265625q-0.015625 0.109375 -0.046875 0.1875q-0.03125 0.078125 -0.078125 0.109375q-0.046875 0.03125 -0.109375 0.03125q-0.109375 0 -0.3125 -0.140625q-0.1875 -0.15625 -0.5 -0.34375q-0.296875 -0.1875 -0.75 -0.328125q-0.4375 -0.15625 -1.046875 -0.15625q-0.671875 0 -1.234375 0.265625q-0.546875 0.265625 -0.9375 0.796875q-0.390625 0.515625 -0.609375 1.28125q-0.203125 0.75 -0.203125 1.71875q0 0.953125 0.203125 1.703125q0.203125 0.734375 0.59375 1.234375q0.390625 0.484375 0.953125 0.75q0.5625 0.25 1.265625 0.25q0.609375 0 1.046875 -0.140625q0.453125 -0.15625 0.765625 -0.34375q0.328125 -0.1875 0.53125 -0.328125q0.203125 -0.15625 0.3125 -0.15625q0.0625 0 0.09375 0.03125q0.046875 0.015625 0.0625 0.09375q0.03125 0.0625 0.03125 0.1875q0.015625 0.109375 0.015625 0.28125zm4.25 -2.765625q0 0.890625 -0.109375 1.75q-0.109375 0.859375 -0.328125 1.71875q-0.21875 0.84375 -0.546875 1.65625q-0.3125 0.8125 -0.734375 1.609375q-0.015625 0.046875 -0.0625 0.078125q-0.046875 0.03125 -0.125 0.046875q-0.078125 0.03125 -0.1875 0.03125q-0.09375 0.015625 -0.234375 0.015625q-0.203125 0 -0.3125 -0.03125q-0.109375 -0.015625 -0.171875 -0.0625q-0.046875 -0.03125 -0.046875 -0.109375q0.015625 -0.0625 0.046875 -0.15625q0.71875 -1.578125 1.078125 -3.234375q0.375 -1.65625 0.375 -3.328125q0 -1.671875 -0.375 -3.328125q-0.359375 -1.65625 -1.09375 -3.21875q-0.03125 -0.078125 -0.03125 -0.140625q0.015625 -0.0625 0.078125 -0.09375q0.0625 -0.046875 0.171875 -0.0625q0.109375 -0.03125 0.296875 -0.03125q0.15625 0 0.265625 0.015625q0.109375 0.015625 0.171875 0.046875q0.078125 0.015625 0.109375 0.046875q0.03125 0.015625 0.046875 0.046875q0.796875 1.59375 1.25 3.296875q0.46875 1.6875 0.46875 3.4375z" fill-rule="nonzero"/><path fill="#000000" fill-opacity="0.0" d="m392.78217 65.9042l56.37793 0" fill-rule="evenodd"/><path stroke="#000000" stroke-width="1.0" stroke-linejoin="round" stroke-linecap="butt" d="m392.78217 65.9042l50.37793 0" fill-rule="evenodd"/><path fill="#000000" stroke="#000000" stroke-width="1.0" stroke-linecap="butt" d="m443.1601 67.55593l4.5381165 -1.6517334l-4.5381165 -1.6517334z" fill-rule="evenodd"/><path fill="#d9ead3" d="m198.94008 -0.001312336l193.84209 0c4.5776367E-4 0 9.1552734E-4 1.8947641E-4 0.0012512207 5.2674656E-4c3.3569336E-4 3.3727012E-4 5.187988E-4 7.9470663E-4 5.187988E-4 0.0012716786l-0.0017700195 109.84028c0 12.13311 -9.835846 21.96894 -21.968964 21.96894l-193.84207 0l0 0c-9.918213E-4 0 -0.0018005371 -8.087158E-4 -0.0018005371 -0.0018005371l0.0018005371 -109.84028l0 0c0 -12.133112 9.835831 -21.968943 21.968948 -21.968943z" fill-rule="evenodd"/><path stroke="#274e13" stroke-width="1.0" stroke-linejoin="round" stroke-linecap="butt" d="m198.94008 -0.001312336l193.84209 0c4.5776367E-4 0 9.1552734E-4 1.8947641E-4 0.0012512207 5.2674656E-4c3.3569336E-4 3.3727012E-4 5.187988E-4 7.9470663E-4 5.187988E-4 0.0012716786l-0.0017700195 109.84028c0 12.13311 -9.835846 21.96894 -21.968964 21.96894l-193.84207 0l0 0c-9.918213E-4 0 -0.0018005371 -8.087158E-4 -0.0018005371 -0.0018005371l0.0018005371 -109.84028l0 0c0 -12.133112 9.835831 -21.968943 21.968948 -21.968943z" fill-rule="evenodd"/><path fill="#000000" d="m221.38525 62.027317q0 0.265625 -0.015625 0.453125q-0.015625 0.1875 -0.078125 0.296875q-0.046875 0.109375 -0.109375 0.171875q-0.0625 0.046875 -0.140625 0.046875l-3.859375 0l0 3.1718788l3.625 0q0.078125 0 0.140625 0.046875q0.0625 0.046875 0.109375 0.15625q0.046875 0.109375 0.0625 0.296875q0.03125 0.171875 0.03125 0.4375q0 0.28125 -0.03125 0.46875q-0.015625 0.171875 -0.0625 0.296875q-0.046875 0.109375 -0.109375 0.171875q-0.0625 0.046875 -0.140625 0.046875l-3.625 0l0 4.390625q0 0.09375 -0.0625 0.171875q-0.046875 0.078125 -0.1875 0.125q-0.140625 0.046875 -0.375 0.0625q-0.21875 0.03125 -0.578125 0.03125q-0.34375 0 -0.578125 -0.03125q-0.234375 -0.015625 -0.375 -0.0625q-0.125 -0.046875 -0.1875 -0.125q-0.0625 -0.078125 -0.0625 -0.171875l0 -10.687504q0 -0.40625 0.203125 -0.578125q0.203125 -0.171875 0.515625 -0.171875l5.546875 0q0.078125 0 0.140625 0.046875q0.0625 0.046875 0.109375 0.171875q0.0625 0.109375 0.078125 0.296875q0.015625 0.1875 0.015625 0.46875zm9.328552 6.187504q0 0.421875 -0.1875 0.625q-0.1875 0.1875 -0.515625 0.1875l-4.953125 0q0 0.53125 0.125 0.953125q0.125 0.421875 0.390625 0.71875q0.28125 0.296875 0.703125 0.453125q0.421875 0.15625 1.015625 0.15625q0.59375 0 1.046875 -0.078125q0.453125 -0.09375 0.78125 -0.203125q0.34375 -0.109375 0.5625 -0.1875q0.21875 -0.09375 0.359375 -0.09375q0.078125 0 0.125 0.03125q0.0625 0.03125 0.09375 0.125q0.046875 0.078125 0.046875 0.234375q0.015625 0.140625 0.015625 0.359375q0 0.203125 -0.015625 0.34375q0 0.140625 -0.015625 0.25q-0.015625 0.09375 -0.0625 0.171875q-0.03125 0.0625 -0.09375 0.125q-0.046875 0.0625 -0.3125 0.171875q-0.265625 0.109375 -0.6875 0.21875q-0.40625 0.09375 -0.9375 0.171875q-0.515625 0.078125 -1.125 0.078125q-1.078125 0 -1.890625 -0.265625q-0.8125 -0.28125 -1.359375 -0.828125q-0.546875 -0.5625 -0.828125 -1.40625q-0.265625 -0.84375 -0.265625 -1.984375q0 -1.078125 0.28125 -1.953125q0.28125 -0.875 0.8125 -1.46875q0.546875 -0.609375 1.3125 -0.921875q0.78125 -0.3281288 1.734375 -0.3281288q1.03125 0 1.75 0.2968788q0.71875 0.296875 1.1875 0.84375q0.46875 0.53125 0.6875 1.265625q0.21875 0.71875 0.21875 1.578125l0 0.359375zm-2.21875 -0.65625q0.015625 -0.96875 -0.40625 -1.515625q-0.40625 -0.546875 -1.265625 -0.546875q-0.4375 0 -0.765625 0.171875q-0.3125 0.15625 -0.53125 0.4375q-0.21875 0.265625 -0.328125 0.65625q-0.109375 0.375 -0.140625 0.796875l3.4375 0zm11.0325165 4.984375q0 0.125 -0.09375 0.203125q-0.09375 0.0625 -0.296875 0.09375q-0.1875 0.03125 -0.578125 0.03125q-0.40625 0 -0.59375 -0.03125q-0.1875 -0.03125 -0.265625 -0.09375q-0.078125 -0.078125 -0.078125 -0.203125l0 -0.640625q-0.5 0.53125 -1.140625 0.828125q-0.640625 0.296875 -1.421875 0.296875q-0.65625 0 -1.203125 -0.171875q-0.53125 -0.15625 -0.9375 -0.484375q-0.390625 -0.34375 -0.609375 -0.828125q-0.21875 -0.5 -0.21875 -1.15625q0 -0.703125 0.28125 -1.21875q0.28125 -0.53125 0.828125 -0.875q0.5625 -0.34375 1.375 -0.5q0.8125 -0.171875 1.90625 -0.171875l0.796875 0l0 -0.484375q0 -0.390625 -0.078125 -0.671875q-0.078125 -0.296875 -0.265625 -0.484375q-0.171875 -0.1875 -0.46875 -0.28125q-0.296875 -0.09375 -0.734375 -0.09375q-0.578125 0 -1.03125 0.140625q-0.4375 0.125 -0.796875 0.28125q-0.34375 0.140625 -0.578125 0.28125q-0.21875 0.125 -0.375 0.125q-0.09375 0 -0.171875 -0.0625q-0.078125 -0.0625 -0.140625 -0.1875q-0.046875 -0.125 -0.078125 -0.296875q-0.015625 -0.171875 -0.015625 -0.375q0 -0.28125 0.046875 -0.4375q0.046875 -0.171875 0.171875 -0.296875q0.125 -0.140625 0.4375 -0.296875q0.328125 -0.171875 0.75 -0.296875q0.4375 -0.140625 0.9375 -0.21875381q0.5 -0.09375 1.046875 -0.09375q0.953125 0 1.625 0.18750381q0.6875 0.1875 1.125 0.578125q0.4375 0.375 0.640625 0.984375q0.203125 0.609375 0.203125 1.453125l0 5.46875zm-2.25 -3.484375l-0.875 0q-0.5625 0 -0.953125 0.09375q-0.390625 0.078125 -0.640625 0.25q-0.25 0.15625 -0.359375 0.390625q-0.109375 0.21875 -0.109375 0.53125q0 0.5 0.3125 0.796875q0.328125 0.296875 0.90625 0.296875q0.484375 0 0.890625 -0.25q0.40625 -0.25 0.828125 -0.71875l0 -1.390625zm9.334702 2.65625q0 0.40625 -0.046875 0.625q-0.046875 0.203125 -0.140625 0.296875q-0.078125 0.078125 -0.234375 0.15625q-0.15625 0.0625 -0.375 0.109375q-0.203125 0.046875 -0.453125 0.078125q-0.25 0.03125 -0.515625 0.03125q-0.6875 0 -1.1875 -0.171875q-0.5 -0.171875 -0.828125 -0.53125q-0.328125 -0.375 -0.484375 -0.921875q-0.140625 -0.546875 -0.140625 -1.28125l0 -4.171875l-0.984375 0q-0.171875 0 -0.265625 -0.203125q-0.09375 -0.21875 -0.09375 -0.71875q0 -0.265625 0.015625 -0.4375q0.03125 -0.1875 0.078125 -0.296875q0.046875 -0.109375 0.109375 -0.15625q0.078125 -0.046875 0.171875 -0.046875l0.96875 0l0 -1.8125038q0 -0.09375 0.046875 -0.15625q0.046875 -0.078125 0.171875 -0.125q0.140625 -0.046875 0.359375 -0.0625q0.21875 -0.03125 0.546875 -0.03125q0.34375 0 0.5625 0.03125q0.234375 0.015625 0.359375 0.0625q0.125 0.046875 0.171875 0.125q0.0625 0.0625 0.0625 0.15625l0 1.8125038l1.765625 0q0.09375 0 0.15625 0.046875q0.078125 0.046875 0.109375 0.15625q0.046875 0.109375 0.0625 0.296875q0.03125 0.171875 0.03125 0.4375q0 0.5 -0.09375 0.71875q-0.078125 0.203125 -0.25 0.203125l-1.78125 0l0 3.828125q0 0.65625 0.203125 1.0q0.21875 0.328125 0.75 0.328125q0.1875 0 0.328125 -0.03125q0.140625 -0.03125 0.25 -0.078125q0.125 -0.046875 0.203125 -0.078125q0.078125 -0.03125 0.140625 -0.03125q0.046875 0 0.09375 0.03125q0.0625 0.03125 0.078125 0.140625q0.03125 0.09375 0.046875 0.265625q0.03125 0.15625 0.03125 0.40625zm9.373993 0.796875q0 0.09375 -0.046875 0.171875q-0.046875 0.0625 -0.171875 0.109375q-0.109375 0.046875 -0.296875 0.0625q-0.1875 0.015625 -0.46875 0.015625q-0.296875 0 -0.484375 -0.015625q-0.1875 -0.015625 -0.296875 -0.0625q-0.109375 -0.046875 -0.15625 -0.109375q-0.046875 -0.078125 -0.046875 -0.171875l0 -0.9375q-0.671875 0.734375 -1.375 1.09375q-0.6875 0.359375 -1.4375 0.359375q-0.828125 0 -1.40625 -0.265625q-0.5625 -0.28125 -0.921875 -0.75q-0.34375 -0.46875 -0.5 -1.09375q-0.140625 -0.625 -0.140625 -1.5625l0 -4.96875q0 -0.09375 0.046875 -0.15625q0.046875 -0.0625 0.171875 -0.109375q0.140625 -0.046875 0.359375 -0.0625q0.21875 -0.03125 0.546875 -0.03125q0.34375 0 0.5625 0.03125q0.21875 0.015625 0.34375 0.0625q0.140625 0.046875 0.1875 0.109375q0.0625 0.0625 0.0625 0.15625l0 4.59375q0 0.640625 0.078125 0.984375q0.078125 0.328125 0.25 0.578125q0.171875 0.234375 0.421875 0.375q0.265625 0.125 0.609375 0.125q0.4375 0 0.875 -0.3125q0.453125 -0.328125 0.953125 -0.9375l0 -5.40625q0 -0.09375 0.046875 -0.15625q0.046875 -0.0625 0.171875 -0.109375q0.140625 -0.046875 0.359375 -0.0625q0.21875 -0.03125 0.5625 -0.03125q0.328125 0 0.546875 0.03125q0.21875 0.015625 0.34375 0.0625q0.140625 0.046875 0.1875 0.109375q0.0625 0.0625 0.0625 0.15625l0 8.125zm7.526947 -7.359375q0 0.328125 -0.03125 0.53125q-0.015625 0.203125 -0.046875 0.328125q-0.03125 0.109375 -0.09375 0.15625q-0.0625 0.046875 -0.15625 0.046875q-0.078125 0 -0.171875 -0.03125q-0.078125 -0.03125 -0.203125 -0.0625q-0.109375 -0.03125 -0.25 -0.0625q-0.125 -0.046875 -0.296875 -0.046875q-0.1875 0 -0.375 0.078125q-0.1875 0.078125 -0.40625 0.25q-0.203125 0.15625 -0.421875 0.4375q-0.21875 0.265625 -0.484375 0.671875l0 5.0625q0 0.09375 -0.0625 0.171875q-0.046875 0.0625 -0.1875 0.109375q-0.125 0.046875 -0.34375 0.0625q-0.21875 0.015625 -0.546875 0.015625q-0.34375 0 -0.5625 -0.015625q-0.21875 -0.015625 -0.359375 -0.0625q-0.125 -0.046875 -0.1875 -0.109375q-0.046875 -0.078125 -0.046875 -0.171875l0 -8.125q0 -0.09375 0.046875 -0.15625q0.046875 -0.0625 0.15625 -0.109375q0.125 -0.046875 0.3125 -0.0625q0.1875 -0.03125 0.46875 -0.03125q0.296875 0 0.484375 0.03125q0.203125 0.015625 0.296875 0.0625q0.109375 0.046875 0.15625 0.109375q0.046875 0.0625 0.046875 0.15625l0 1.015625q0.3125 -0.453125 0.59375 -0.75q0.28125 -0.296875 0.53125 -0.46875q0.265625 -0.171875 0.515625 -0.23437881q0.265625 -0.078125 0.515625 -0.078125q0.125 0 0.25 0.015625q0.140625 0.015625 0.28125 0.046875q0.15625 0.03125 0.265625 0.078128815q0.109375 0.03125 0.15625 0.078125q0.046875 0.046875 0.0625 0.109375q0.03125 0.046875 0.046875 0.140625q0.015625 0.09375 0.03125 0.296875q0.015625 0.1875 0.015625 0.515625zm8.912964 3.0625q0 0.421875 -0.1875 0.625q-0.1875 0.1875 -0.515625 0.1875l-4.953125 0q0 0.53125 0.125 0.953125q0.125 0.421875 0.390625 0.71875q0.28125 0.296875 0.703125 0.453125q0.421875 0.15625 1.015625 0.15625q0.59375 0 1.046875 -0.078125q0.453125 -0.09375 0.78125 -0.203125q0.34375 -0.109375 0.5625 -0.1875q0.21875 -0.09375 0.359375 -0.09375q0.078125 0 0.125 0.03125q0.0625 0.03125 0.09375 0.125q0.046875 0.078125 0.046875 0.234375q0.015625 0.140625 0.015625 0.359375q0 0.203125 -0.015625 0.34375q0 0.140625 -0.015625 0.25q-0.015625 0.09375 -0.0625 0.171875q-0.03125 0.0625 -0.09375 0.125q-0.046875 0.0625 -0.3125 0.171875q-0.265625 0.109375 -0.6875 0.21875q-0.40625 0.09375 -0.9375 0.171875q-0.515625 0.078125 -1.125 0.078125q-1.078125 0 -1.890625 -0.265625q-0.8125 -0.28125 -1.359375 -0.828125q-0.546875 -0.5625 -0.828125 -1.40625q-0.265625 -0.84375 -0.265625 -1.984375q0 -1.078125 0.28125 -1.953125q0.28125 -0.875 0.8125 -1.46875q0.546875 -0.609375 1.3125 -0.921875q0.78125 -0.3281288 1.734375 -0.3281288q1.03125 0 1.75 0.2968788q0.71875 0.296875 1.1875 0.84375q0.46875 0.53125 0.6875 1.265625q0.21875 0.71875 0.21875 1.578125l0 0.359375zm-2.21875 -0.65625q0.015625 -0.96875 -0.40625 -1.515625q-0.40625 -0.546875 -1.265625 -0.546875q-0.4375 0 -0.765625 0.171875q-0.3125 0.15625 -0.53125 0.4375q-0.21875 0.265625 -0.328125 0.65625q-0.109375 0.375 -0.140625 0.796875l3.4375 0zm15.437714 4.328125q0 0.265625 -0.03125 0.453125q-0.015625 0.171875 -0.0625 0.28125q-0.03125 0.109375 -0.109375 0.15625q-0.0625 0.046875 -0.140625 0.046875l-5.921875 0q-0.3125 0 -0.515625 -0.171875q-0.203125 -0.1875 -0.203125 -0.578125l0 -10.281254q0 -0.40625 0.203125 -0.578125q0.203125 -0.171875 0.515625 -0.171875l5.875 0q0.09375 0 0.15625 0.046875q0.0625 0.03125 0.109375 0.15625q0.046875 0.109375 0.0625 0.296875q0.015625 0.171875 0.015625 0.4375q0 0.265625 -0.015625 0.4375q-0.015625 0.171875 -0.0625 0.28125q-0.046875 0.109375 -0.109375 0.171875q-0.0625 0.046875 -0.15625 0.046875l-4.203125 0l0 2.8750038l3.5625 0q0.078125 0 0.140625 0.046875q0.078125 0.046875 0.125 0.15625q0.046875 0.109375 0.0625 0.28125q0.03125 0.171875 0.03125 0.4375q0 0.265625 -0.03125 0.4375q-0.015625 0.171875 -0.0625 0.28125q-0.046875 0.09375 -0.125 0.140625q-0.0625 0.046875 -0.140625 0.046875l-3.5625 0l0 3.328125l4.25 0q0.078125 0 0.140625 0.046875q0.078125 0.046875 0.109375 0.15625q0.046875 0.109375 0.0625 0.296875q0.03125 0.171875 0.03125 0.4375zm9.037903 0.46875q0.078125 0.15625 0.0625 0.25q0 0.09375 -0.125 0.171875q-0.125 0.0625 -0.390625 0.078125q-0.265625 0.015625 -0.703125 0.015625q-0.40625 0 -0.65625 -0.015625q-0.25 0 -0.390625 -0.03125q-0.140625 -0.046875 -0.21875 -0.109375q-0.0625 -0.0625 -0.09375 -0.15625l-1.5 -2.890625l-1.515625 2.890625q-0.03125 0.09375 -0.09375 0.15625q-0.0625 0.0625 -0.203125 0.109375q-0.125 0.03125 -0.359375 0.03125q-0.234375 0.015625 -0.625 0.015625q-0.390625 0 -0.640625 -0.015625q-0.234375 -0.015625 -0.34375 -0.078125q-0.109375 -0.078125 -0.109375 -0.171875q0 -0.09375 0.078125 -0.25l2.25 -4.0l-2.078125 -3.75q-0.078125 -0.171875 -0.09375 -0.28125q0 -0.125 0.109375 -0.1875q0.125 -0.0625 0.390625 -0.078125q0.265625 -0.03125 0.703125 -0.03125q0.40625 0 0.640625 0.015625q0.25 0.015625 0.375 0.046875q0.140625 0.015625 0.203125 0.078125q0.0625 0.0625 0.109375 0.140625l1.453125 2.71875l1.4375 -2.71875q0.03125 -0.0625 0.078125 -0.109375q0.0625 -0.0625 0.171875 -0.09375q0.125 -0.046875 0.328125 -0.0625q0.203125 -0.015625 0.5625 -0.015625q0.40625 0 0.640625 0.015625q0.234375 0.015625 0.34375 0.078125q0.109375 0.0625 0.09375 0.1875q0 0.109375 -0.09375 0.296875l-2.03125 3.6875l2.234375 4.0625zm6.3220215 -0.640625q0 0.40625 -0.046875 0.625q-0.046875 0.203125 -0.140625 0.296875q-0.078125 0.078125 -0.234375 0.15625q-0.15625 0.0625 -0.375 0.109375q-0.203125 0.046875 -0.453125 0.078125q-0.25 0.03125 -0.515625 0.03125q-0.6875 0 -1.1875 -0.171875q-0.5 -0.171875 -0.828125 -0.53125q-0.328125 -0.375 -0.484375 -0.921875q-0.140625 -0.546875 -0.140625 -1.28125l0 -4.171875l-0.984375 0q-0.171875 0 -0.265625 -0.203125q-0.09375 -0.21875 -0.09375 -0.71875q0 -0.265625 0.015625 -0.4375q0.03125 -0.1875 0.078125 -0.296875q0.046875 -0.109375 0.109375 -0.15625q0.078125 -0.046875 0.171875 -0.046875l0.96875 0l0 -1.8125038q0 -0.09375 0.046875 -0.15625q0.046875 -0.078125 0.171875 -0.125q0.140625 -0.046875 0.359375 -0.0625q0.21875 -0.03125 0.546875 -0.03125q0.34375 0 0.5625 0.03125q0.234375 0.015625 0.359375 0.0625q0.125 0.046875 0.171875 0.125q0.0625 0.0625 0.0625 0.15625l0 1.8125038l1.765625 0q0.09375 0 0.15625 0.046875q0.078125 0.046875 0.109375 0.15625q0.046875 0.109375 0.0625 0.296875q0.03125 0.171875 0.03125 0.4375q0 0.5 -0.09375 0.71875q-0.078125 0.203125 -0.25 0.203125l-1.78125 0l0 3.828125q0 0.65625 0.203125 1.0q0.21875 0.328125 0.75 0.328125q0.1875 0 0.328125 -0.03125q0.140625 -0.03125 0.25 -0.078125q0.125 -0.046875 0.203125 -0.078125q0.078125 -0.03125 0.140625 -0.03125q0.046875 0 0.09375 0.03125q0.0625 0.03125 0.078125 0.140625q0.03125 0.09375 0.046875 0.265625q0.03125 0.15625 0.03125 0.40625zm6.889618 -6.5625q0 0.328125 -0.03125 0.53125q-0.015625 0.203125 -0.046875 0.328125q-0.03125 0.109375 -0.09375 0.15625q-0.0625 0.046875 -0.15625 0.046875q-0.078125 0 -0.171875 -0.03125q-0.078125 -0.03125 -0.203125 -0.0625q-0.109375 -0.03125 -0.25 -0.0625q-0.125 -0.046875 -0.296875 -0.046875q-0.1875 0 -0.375 0.078125q-0.1875 0.078125 -0.40625 0.25q-0.203125 0.15625 -0.421875 0.4375q-0.21875 0.265625 -0.484375 0.671875l0 5.0625q0 0.09375 -0.0625 0.171875q-0.046875 0.0625 -0.1875 0.109375q-0.125 0.046875 -0.34375 0.0625q-0.21875 0.015625 -0.546875 0.015625q-0.34375 0 -0.5625 -0.015625q-0.21875 -0.015625 -0.359375 -0.0625q-0.125 -0.046875 -0.1875 -0.109375q-0.046875 -0.078125 -0.046875 -0.171875l0 -8.125q0 -0.09375 0.046875 -0.15625q0.046875 -0.0625 0.15625 -0.109375q0.125 -0.046875 0.3125 -0.0625q0.1875 -0.03125 0.46875 -0.03125q0.296875 0 0.484375 0.03125q0.203125 0.015625 0.296875 0.0625q0.109375 0.046875 0.15625 0.109375q0.046875 0.0625 0.046875 0.15625l0 1.015625q0.3125 -0.453125 0.59375 -0.75q0.28125 -0.296875 0.53125 -0.46875q0.265625 -0.171875 0.515625 -0.23437881q0.265625 -0.078125 0.515625 -0.078125q0.125 0 0.25 0.015625q0.140625 0.015625 0.28125 0.046875q0.15625 0.03125 0.265625 0.078128815q0.109375 0.03125 0.15625 0.078125q0.046875 0.046875 0.0625 0.109375q0.03125 0.046875 0.046875 0.140625q0.015625 0.09375 0.03125 0.296875q0.015625 0.1875 0.015625 0.515625zm8.334839 7.390625q0 0.125 -0.09375 0.203125q-0.09375 0.0625 -0.296875 0.09375q-0.1875 0.03125 -0.578125 0.03125q-0.40625 0 -0.59375 -0.03125q-0.1875 -0.03125 -0.265625 -0.09375q-0.078125 -0.078125 -0.078125 -0.203125l0 -0.640625q-0.5 0.53125 -1.140625 0.828125q-0.640625 0.296875 -1.421875 0.296875q-0.65625 0 -1.203125 -0.171875q-0.53125 -0.15625 -0.9375 -0.484375q-0.390625 -0.34375 -0.609375 -0.828125q-0.21875 -0.5 -0.21875 -1.15625q0 -0.703125 0.28125 -1.21875q0.28125 -0.53125 0.828125 -0.875q0.5625 -0.34375 1.375 -0.5q0.8125 -0.171875 1.90625 -0.171875l0.796875 0l0 -0.484375q0 -0.390625 -0.078125 -0.671875q-0.078125 -0.296875 -0.265625 -0.484375q-0.171875 -0.1875 -0.46875 -0.28125q-0.296875 -0.09375 -0.734375 -0.09375q-0.578125 0 -1.03125 0.140625q-0.4375 0.125 -0.796875 0.28125q-0.34375 0.140625 -0.578125 0.28125q-0.21875 0.125 -0.375 0.125q-0.09375 0 -0.171875 -0.0625q-0.078125 -0.0625 -0.140625 -0.1875q-0.046875 -0.125 -0.078125 -0.296875q-0.015625 -0.171875 -0.015625 -0.375q0 -0.28125 0.046875 -0.4375q0.046875 -0.171875 0.171875 -0.296875q0.125 -0.140625 0.4375 -0.296875q0.328125 -0.171875 0.75 -0.296875q0.4375 -0.140625 0.9375 -0.21875381q0.5 -0.09375 1.046875 -0.09375q0.953125 0 1.625 0.18750381q0.6875 0.1875 1.125 0.578125q0.4375 0.375 0.640625 0.984375q0.203125 0.609375 0.203125 1.453125l0 5.46875zm-2.25 -3.484375l-0.875 0q-0.5625 0 -0.953125 0.09375q-0.390625 0.078125 -0.640625 0.25q-0.25 0.15625 -0.359375 0.390625q-0.109375 0.21875 -0.109375 0.53125q0 0.5 0.3125 0.796875q0.328125 0.296875 0.90625 0.296875q0.484375 0 0.890625 -0.25q0.40625 -0.25 0.828125 -0.71875l0 -1.390625zm10.678467 2.15625q0 0.25 -0.015625 0.40625q-0.015625 0.15625 -0.046875 0.265625q-0.015625 0.109375 -0.046875 0.1875q-0.03125 0.0625 -0.140625 0.171875q-0.109375 0.09375 -0.375 0.25q-0.265625 0.140625 -0.609375 0.265625q-0.328125 0.109375 -0.71875 0.1875q-0.390625 0.078125 -0.8125 0.078125q-0.9375 0 -1.671875 -0.28125q-0.71875 -0.296875 -1.21875 -0.859375q-0.484375 -0.578125 -0.734375 -1.390625q-0.25 -0.828125 -0.25 -1.890625q0 -1.21875 0.296875 -2.109375q0.3125 -0.890625 0.859375 -1.46875q0.546875 -0.578125 1.296875 -0.859375q0.75 -0.2968788 1.640625 -0.2968788q0.359375 0 0.703125 0.078125q0.359375 0.062503815 0.65625 0.17187881q0.3125 0.109375 0.546875 0.25q0.25 0.125 0.34375 0.234375q0.109375 0.09375 0.140625 0.171875q0.046875 0.0625 0.0625 0.171875q0.03125 0.109375 0.046875 0.265625q0.015625 0.15625 0.015625 0.390625q0 0.515625 -0.09375 0.734375q-0.09375 0.21875 -0.234375 0.21875q-0.15625 0 -0.328125 -0.125q-0.171875 -0.125 -0.421875 -0.28125q-0.234375 -0.15625 -0.5625 -0.28125q-0.328125 -0.140625 -0.78125 -0.140625q-0.890625 0 -1.375 0.6875q-0.46875 0.6875 -0.46875 2.03125q0 0.65625 0.125 1.15625q0.125 0.5 0.34375 0.84375q0.234375 0.328125 0.578125 0.5q0.359375 0.15625 0.828125 0.15625q0.46875 0 0.8125 -0.140625q0.34375 -0.140625 0.59375 -0.3125q0.265625 -0.171875 0.4375 -0.3125q0.171875 -0.140625 0.28125 -0.140625q0.09375 0 0.140625 0.046875q0.0625 0.046875 0.09375 0.171875q0.03125 0.125 0.046875 0.3125q0.015625 0.1875 0.015625 0.484375zm6.4630737 0.5q0 0.40625 -0.046875 0.625q-0.046875 0.203125 -0.140625 0.296875q-0.078125 0.078125 -0.234375 0.15625q-0.15625 0.0625 -0.375 0.109375q-0.203125 0.046875 -0.453125 0.078125q-0.25 0.03125 -0.515625 0.03125q-0.6875 0 -1.1875 -0.171875q-0.5 -0.171875 -0.828125 -0.53125q-0.328125 -0.375 -0.484375 -0.921875q-0.140625 -0.546875 -0.140625 -1.28125l0 -4.171875l-0.984375 0q-0.171875 0 -0.265625 -0.203125q-0.09375 -0.21875 -0.09375 -0.71875q0 -0.265625 0.015625 -0.4375q0.03125 -0.1875 0.078125 -0.296875q0.046875 -0.109375 0.109375 -0.15625q0.078125 -0.046875 0.171875 -0.046875l0.96875 0l0 -1.8125038q0 -0.09375 0.046875 -0.15625q0.046875 -0.078125 0.171875 -0.125q0.140625 -0.046875 0.359375 -0.0625q0.21875 -0.03125 0.546875 -0.03125q0.34375 0 0.5625 0.03125q0.234375 0.015625 0.359375 0.0625q0.125 0.046875 0.171875 0.125q0.0625 0.0625 0.0625 0.15625l0 1.8125038l1.765625 0q0.09375 0 0.15625 0.046875q0.078125 0.046875 0.109375 0.15625q0.046875 0.109375 0.0625 0.296875q0.03125 0.171875 0.03125 0.4375q0 0.5 -0.09375 0.71875q-0.078125 0.203125 -0.25 0.203125l-1.78125 0l0 3.828125q0 0.65625 0.203125 1.0q0.21875 0.328125 0.75 0.328125q0.1875 0 0.328125 -0.03125q0.140625 -0.03125 0.25 -0.078125q0.125 -0.046875 0.203125 -0.078125q0.078125 -0.03125 0.140625 -0.03125q0.046875 0 0.09375 0.03125q0.0625 0.03125 0.078125 0.140625q0.03125 0.09375 0.046875 0.265625q0.03125 0.15625 0.03125 0.40625zm3.952118 0.796875q0 0.09375 -0.0625 0.171875q-0.046875 0.0625 -0.1875 0.109375q-0.125 0.046875 -0.34375 0.0625q-0.21875 0.015625 -0.546875 0.015625q-0.34375 0 -0.5625 -0.015625q-0.21875 -0.015625 -0.359375 -0.0625q-0.125 -0.046875 -0.1875 -0.109375q-0.046875 -0.078125 -0.046875 -0.171875l0 -8.109375q0 -0.09375 0.046875 -0.15625q0.0625 -0.0625 0.1875 -0.109375q0.140625 -0.0625 0.359375 -0.078125q0.21875 -0.03125 0.5625 -0.03125q0.328125 0 0.546875 0.03125q0.21875 0.015625 0.34375 0.078125q0.140625 0.046875 0.1875 0.109375q0.0625 0.0625 0.0625 0.15625l0 8.109375zm0.171875 -10.875004q0 0.6875 -0.28125 0.953125q-0.28125 0.265625 -1.046875 0.265625q-0.765625 0 -1.046875 -0.25q-0.265625 -0.25 -0.265625 -0.921875q0 -0.6875 0.28125 -0.953125q0.28125 -0.28125 1.0625 -0.28125q0.75 0 1.015625 0.265625q0.28125 0.265625 0.28125 0.921875zm10.332092 6.734379q0 1.03125 -0.28125 1.890625q-0.265625 0.859375 -0.828125 1.484375q-0.546875 0.609375 -1.390625 0.953125q-0.828125 0.328125 -1.953125 0.328125q-1.078125 0 -1.890625 -0.296875q-0.796875 -0.296875 -1.328125 -0.875q-0.515625 -0.578125 -0.78125 -1.40625q-0.25 -0.84375 -0.25 -1.921875q0 -1.03125 0.28125 -1.890625q0.28125 -0.859375 0.828125 -1.46875q0.5625 -0.625 1.390625 -0.953125q0.828125 -0.3437538 1.953125 -0.3437538q1.09375 0 1.890625 0.2968788q0.8125 0.296875 1.328125 0.875q0.53125 0.5625 0.78125 1.40625q0.25 0.84375 0.25 1.921875zm-2.359375 0.09375q0 -0.609375 -0.09375 -1.109375q-0.09375 -0.5 -0.328125 -0.875q-0.21875 -0.375 -0.59375 -0.578125q-0.375 -0.21875 -0.953125 -0.21875q-0.515625 0 -0.90625 0.1875q-0.375 0.1875 -0.625 0.546875q-0.234375 0.359375 -0.359375 0.875q-0.125 0.5 -0.125 1.140625q0 0.59375 0.09375 1.109375q0.109375 0.5 0.328125 0.875q0.21875 0.375 0.59375 0.578125q0.390625 0.203125 0.953125 0.203125q0.53125 0 0.90625 -0.1875q0.390625 -0.1875 0.625 -0.53125q0.25 -0.359375 0.359375 -0.859375q0.125 -0.515625 0.125 -1.15625zm11.935791 4.046875q0 0.09375 -0.0625 0.171875q-0.046875 0.0625 -0.171875 0.109375q-0.125 0.046875 -0.359375 0.0625q-0.21875 0.015625 -0.546875 0.015625q-0.328125 0 -0.5625 -0.015625q-0.21875 -0.015625 -0.34375 -0.0625q-0.125 -0.046875 -0.1875 -0.109375q-0.046875 -0.078125 -0.046875 -0.171875l0 -4.640625q0 -0.578125 -0.09375 -0.921875q-0.078125 -0.34375 -0.25 -0.578125q-0.15625 -0.25 -0.421875 -0.375q-0.25 -0.125 -0.609375 -0.125q-0.4375 0 -0.890625 0.3125q-0.4375 0.3125 -0.921875 0.921875l0 5.40625q0 0.09375 -0.0625 0.171875q-0.046875 0.0625 -0.1875 0.109375q-0.125 0.046875 -0.34375 0.0625q-0.21875 0.015625 -0.546875 0.015625q-0.34375 0 -0.5625 -0.015625q-0.21875 -0.015625 -0.359375 -0.0625q-0.125 -0.046875 -0.1875 -0.109375q-0.046875 -0.078125 -0.046875 -0.171875l0 -8.125q0 -0.09375 0.046875 -0.15625q0.046875 -0.0625 0.15625 -0.109375q0.125 -0.046875 0.3125 -0.0625q0.1875 -0.03125 0.46875 -0.03125q0.296875 0 0.484375 0.03125q0.203125 0.015625 0.296875 0.0625q0.109375 0.046875 0.15625 0.109375q0.046875 0.0625 0.046875 0.15625l0 0.9375q0.671875 -0.71875 1.359375 -1.078125q0.703125 -0.3750038 1.46875 -0.3750038q0.828125 0 1.390625 0.2812538q0.5625 0.265625 0.90625 0.734375q0.359375 0.46875 0.515625 1.09375q0.15625 0.625 0.15625 1.515625l0 5.015625z" fill-rule="nonzero"/><path fill="#000000" fill-opacity="0.0" d="m601.0289 65.9042l56.37793 0" fill-rule="evenodd"/><path stroke="#000000" stroke-width="1.0" stroke-linejoin="round" stroke-linecap="butt" d="m601.0289 65.9042l50.37793 0" fill-rule="evenodd"/><path fill="#000000" stroke="#000000" stroke-width="1.0" stroke-linecap="butt" d="m651.4068 67.55593l4.538147 -1.6517334l-4.538147 -1.6517334z" fill-rule="evenodd"/><path fill="#cfe2f3" d="m2.1207349E-4 48.929188l120.59843 0l0 33.952755l-120.59843 0z" fill-rule="evenodd"/><path stroke="#4a86e8" stroke-width="1.0" stroke-linejoin="round" stroke-linecap="butt" d="m2.1207349E-4 48.929188l120.59843 0l0 33.952755l-120.59843 0z" fill-rule="evenodd"/><path fill="#000000" d="m41.010365 71.46869q-0.03125 0.109375 -0.09375 0.171875q-0.0625 0.0625 -0.171875 0.109375q-0.109375 0.03125 -0.28125 0.046875q-0.15625 0.015625 -0.390625 0.015625q-0.234375 0 -0.40625 -0.015625q-0.171875 -0.015625 -0.28125 -0.046875q-0.109375 -0.046875 -0.171875 -0.109375q-0.046875 -0.0625 -0.078125 -0.171875l-2.109375 -7.640625l-0.015625 0l-1.953125 7.640625q-0.03125 0.109375 -0.09375 0.171875q-0.046875 0.0625 -0.15625 0.109375q-0.09375 0.03125 -0.25 0.046875q-0.15625 0.015625 -0.40625 0.015625q-0.265625 0 -0.4375 -0.015625q-0.171875 -0.015625 -0.28125 -0.046875q-0.109375 -0.046875 -0.171875 -0.109375q-0.046875 -0.0625 -0.078125 -0.171875l-2.671877 -9.34375q-0.046875 -0.171875 -0.046875 -0.265625q0 -0.109375 0.0625 -0.15625q0.0625 -0.0625 0.203125 -0.078125q0.15625 -0.015625 0.40625 -0.015625q0.25 0 0.390625 0.015625q0.140625 0 0.203125 0.03125q0.078125 0.03125 0.109375 0.09375q0.03125 0.046875 0.046875 0.140625l2.265627 8.46875l0.015625 0l2.15625 -8.453125q0.015625 -0.09375 0.046875 -0.140625q0.046875 -0.0625 0.125 -0.09375q0.078125 -0.03125 0.21875 -0.046875q0.140625 -0.015625 0.375 -0.015625q0.21875 0 0.34375 0.015625q0.140625 0.015625 0.21875 0.046875q0.078125 0.03125 0.109375 0.09375q0.03125 0.046875 0.0625 0.140625l2.3125 8.453125l0.015625 0l2.234375 -8.46875q0.015625 -0.078125 0.03125 -0.125q0.03125 -0.0625 0.109375 -0.09375q0.078125 -0.03125 0.203125 -0.046875q0.140625 -0.015625 0.375 -0.015625q0.234375 0 0.359375 0.015625q0.140625 0.015625 0.203125 0.078125q0.0625 0.046875 0.0625 0.15625q0 0.09375 -0.046875 0.28125l-2.671875 9.328125zm13.3515625 -0.046875q0.0625 0.109375 0.0625 0.1875q0 0.0625 -0.078125 0.125q-0.078125 0.046875 -0.234375 0.0625q-0.140625 0.015625 -0.390625 0.015625q-0.234375 0 -0.375 -0.015625q-0.125 0 -0.21875 -0.03125q-0.078125 -0.03125 -0.125 -0.078125q-0.03125 -0.046875 -0.0625 -0.09375l-1.6875 -2.796875l-1.6875 2.796875q-0.03125 0.046875 -0.078125 0.09375q-0.03125 0.046875 -0.125 0.078125q-0.078125 0.03125 -0.21875 0.03125q-0.125 0.015625 -0.34375 0.015625q-0.21875 0 -0.375 -0.015625q-0.140625 -0.015625 -0.203125 -0.0625q-0.0625 -0.0625 -0.0625 -0.125q0 -0.078125 0.078125 -0.1875l2.1875 -3.4375l-2.078125 -3.296875q-0.0625 -0.109375 -0.0625 -0.1875q0 -0.078125 0.0625 -0.125q0.078125 -0.046875 0.234375 -0.0625q0.15625 -0.015625 0.40625 -0.015625q0.21875 0 0.359375 0.015625q0.140625 0 0.21875 0.03125q0.078125 0.015625 0.109375 0.0625q0.046875 0.03125 0.078125 0.09375l1.59375 2.609375l1.625 -2.609375q0.03125 -0.046875 0.0625 -0.078125q0.046875 -0.046875 0.109375 -0.078125q0.078125 -0.03125 0.1875 -0.03125q0.125 -0.015625 0.34375 -0.015625q0.21875 0 0.359375 0.015625q0.15625 0.015625 0.21875 0.0625q0.078125 0.03125 0.0625 0.109375q0 0.078125 -0.078125 0.203125l-2.046875 3.265625l2.171875 3.46875zm12.640621 0.140625q0 0.0625 -0.03125 0.109375q-0.03125 0.046875 -0.109375 0.078125q-0.078125 0.03125 -0.203125 0.046875q-0.125 0.015625 -0.3125 0.015625q-0.203125 0 -0.328125 -0.015625q-0.125 -0.015625 -0.203125 -0.046875q-0.078125 -0.03125 -0.109375 -0.078125q-0.03125 -0.046875 -0.03125 -0.109375l0 -4.484375l-4.609371 0l0 4.484375q0 0.0625 -0.03125 0.109375q-0.03125 0.046875 -0.109375 0.078125q-0.078125 0.03125 -0.203125 0.046875q-0.125 0.015625 -0.328125 0.015625q-0.1875 0 -0.328125 -0.015625q-0.125 -0.015625 -0.203125 -0.046875q-0.078125 -0.03125 -0.109375 -0.078125q-0.03125 -0.046875 -0.03125 -0.109375l0 -9.703125q0 -0.0625 0.03125 -0.109375q0.03125 -0.046875 0.109375 -0.078125q0.078125 -0.03125 0.203125 -0.046875q0.140625 -0.015625 0.328125 -0.015625q0.203125 0 0.328125 0.015625q0.125 0.015625 0.203125 0.046875q0.078125 0.03125 0.109375 0.078125q0.03125 0.046875 0.03125 0.109375l0 4.046875l4.609371 0l0 -4.046875q0 -0.0625 0.03125 -0.109375q0.03125 -0.046875 0.109375 -0.078125q0.078125 -0.03125 0.203125 -0.046875q0.125 -0.015625 0.328125 -0.015625q0.1875 0 0.3125 0.015625q0.125 0.015625 0.203125 0.046875q0.078125 0.03125 0.109375 0.078125q0.03125 0.046875 0.03125 0.109375l0 9.703125zm11.4921875 -0.140625q0.0625 0.109375 0.0625 0.1875q0 0.0625 -0.078125 0.125q-0.078125 0.046875 -0.234375 0.0625q-0.140625 0.015625 -0.390625 0.015625q-0.234375 0 -0.375 -0.015625q-0.125 0 -0.21875 -0.03125q-0.078125 -0.03125 -0.125 -0.078125q-0.03125 -0.046875 -0.0625 -0.09375l-1.6875 -2.796875l-1.6875 2.796875q-0.03125 0.046875 -0.078125 0.09375q-0.03125 0.046875 -0.125 0.078125q-0.078125 0.03125 -0.21875 0.03125q-0.125 0.015625 -0.34375 0.015625q-0.21875 0 -0.375 -0.015625q-0.140625 -0.015625 -0.203125 -0.0625q-0.0625 -0.0625 -0.0625 -0.125q0 -0.078125 0.078125 -0.1875l2.1875 -3.4375l-2.078125 -3.296875q-0.0625 -0.109375 -0.0625 -0.1875q0 -0.078125 0.0625 -0.125q0.078125 -0.046875 0.234375 -0.0625q0.15625 -0.015625 0.40625 -0.015625q0.21875 0 0.359375 0.015625q0.140625 0 0.21875 0.03125q0.078125 0.015625 0.109375 0.0625q0.046875 0.03125 0.078125 0.09375l1.59375 2.609375l1.625 -2.609375q0.03125 -0.046875 0.0625 -0.078125q0.046875 -0.046875 0.109375 -0.078125q0.078125 -0.03125 0.1875 -0.03125q0.125 -0.015625 0.34375 -0.015625q0.21875 0 0.359375 0.015625q0.15625 0.015625 0.21875 0.0625q0.078125 0.03125 0.0625 0.109375q0 0.078125 -0.078125 0.203125l-2.046875 3.265625l2.171875 3.46875zm11.15625 -2.546875q0 0.6875 -0.25 1.25q-0.234375 0.5625 -0.6875 0.96875q-0.453125 0.390625 -1.125 0.609375q-0.65625 0.21875 -1.484375 0.21875q-0.515625 0 -0.953125 -0.09375q-0.4375 -0.078125 -0.78125 -0.1875q-0.34375 -0.125 -0.578125 -0.234375q-0.21875 -0.125 -0.28125 -0.171875q-0.0625 -0.0625 -0.09375 -0.109375q-0.03125 -0.0625 -0.0625 -0.140625q-0.015625 -0.078125 -0.03125 -0.1875q0 -0.125 0 -0.28125q0 -0.28125 0.046875 -0.390625q0.0625 -0.109375 0.15625 -0.109375q0.078125 0 0.28125 0.125q0.203125 0.125 0.53125 0.265625q0.328125 0.140625 0.75 0.265625q0.4375 0.125 0.96875 0.125q0.515625 0 0.90625 -0.125q0.390625 -0.140625 0.65625 -0.375q0.265625 -0.25 0.390625 -0.578125q0.140625 -0.328125 0.140625 -0.71875q0 -0.4375 -0.171875 -0.78125q-0.15625 -0.34375 -0.484375 -0.59375q-0.328125 -0.25 -0.796875 -0.375q-0.46875 -0.140625 -1.078125 -0.140625l-0.953125 0q-0.0625 0 -0.125 -0.015625q-0.0625 -0.03125 -0.109375 -0.09375q-0.03125 -0.0625 -0.0625 -0.15625q-0.03125 -0.109375 -0.03125 -0.28125q0 -0.140625 0.015625 -0.234375q0.03125 -0.109375 0.078125 -0.15625q0.046875 -0.0625 0.09375 -0.09375q0.0625 -0.03125 0.125 -0.03125l0.890625 0q0.515625 0 0.921875 -0.125q0.40625 -0.140625 0.6875 -0.390625q0.296875 -0.25 0.4375 -0.59375q0.15625 -0.34375 0.15625 -0.78125q0 -0.3125 -0.109375 -0.59375q-0.09375 -0.28125 -0.296875 -0.484375q-0.203125 -0.21875 -0.515625 -0.34375q-0.3125 -0.125 -0.734375 -0.125q-0.453125 0 -0.828125 0.140625q-0.375 0.140625 -0.671875 0.296875q-0.296875 0.15625 -0.5 0.296875q-0.1875 0.125 -0.265625 0.125q-0.0625 0 -0.109375 -0.015625q-0.03125 -0.015625 -0.0625 -0.078125q-0.03125 -0.0625 -0.046875 -0.15625q0 -0.109375 0 -0.28125q0 -0.125 0 -0.203125q0.015625 -0.09375 0.03125 -0.15625q0.03125 -0.078125 0.0625 -0.125q0.03125 -0.0625 0.09375 -0.125q0.078125 -0.078125 0.296875 -0.21875q0.234375 -0.140625 0.5625 -0.28125q0.34375 -0.140625 0.765625 -0.234375q0.4375 -0.09375 0.9375 -0.09375q0.703125 0 1.234375 0.1875q0.53125 0.171875 0.890625 0.5q0.359375 0.328125 0.53125 0.796875q0.171875 0.453125 0.171875 1.0q0 0.484375 -0.125 0.890625q-0.125 0.40625 -0.375 0.734375q-0.234375 0.3125 -0.59375 0.53125q-0.34375 0.21875 -0.796875 0.3125l0 0.015625q0.515625 0.046875 0.953125 0.265625q0.4375 0.203125 0.75 0.515625q0.3125 0.3125 0.484375 0.734375q0.171875 0.40625 0.171875 0.890625z" fill-rule="nonzero"/><path fill="#000000" fill-opacity="0.0" d="m120.59864 65.90556l56.377953 0" fill-rule="evenodd"/><path stroke="#000000" stroke-width="1.0" stroke-linejoin="round" stroke-linecap="butt" d="m120.59864 65.90556l50.377937 0" fill-rule="evenodd"/><path fill="#000000" stroke="#000000" stroke-width="1.0" stroke-linecap="butt" d="m170.97658 67.5573l4.538101 -1.6517334l-4.538101 -1.6517334z" fill-rule="evenodd"/></g></svg>